<?xml version="1.0" encoding="utf-8"?>
<!-- Generator: Adobe Illustrator 15.1.0, SVG Export Plug-In . SVG Version: 6.00 Build 0)  -->
<!DOCTYPE svg PUBLIC "-//W3C//DTD SVG 1.1//EN" "http://www.w3.org/Graphics/SVG/1.1/DTD/svg11.dtd">
<svg version="1.1" xmlns="http://www.w3.org/2000/svg" xmlns:xlink="http://www.w3.org/1999/xlink" x="0px" y="0px"
	 width="566.93px" height="566.93px" viewBox="0 0 566.93 566.93" enable-background="new 0 0 566.93 566.93" xml:space="preserve">
<g id="Calque_5">
	
		<ellipse fill="#151E59" stroke="#151E59" stroke-width="0.25" stroke-miterlimit="10" cx="284.335" cy="282.619" rx="280.333" ry="279.937"/>
	<path fill="#FFFFFF" stroke="#151E59" stroke-width="0.25" stroke-miterlimit="10" d="M550.751,282.598
		c0,147.458-119.372,266.999-266.626,266.999C136.872,549.597,17.5,430.056,17.5,282.598c0-147.462,119.372-267.001,266.625-267.001
		C431.379,15.597,550.751,135.136,550.751,282.598z"/>
</g>
<g id="Calque_3">
	<path fill="#121B54" d="M543.75,282.807c0,143.385-116.126,259.623-259.375,259.623S25,426.192,25,282.807
		C25,139.418,141.126,23.18,284.375,23.18S543.75,139.418,543.75,282.807z"/>
	<path fill="#121B54" d="M489.75,342.18c-45.452,161.06-191.512,157.867-212.5,156.167C108.5,484.68,78.625,341.43,78.625,341.43
		l56.25-52.875l1.75-1.625l2-0.75l2.375-1.25l2.625-0.375l3.625-6l2-1.75l2.125-1l2.75-0.75l10.5-12.375l3.75-3.75l3.25-2
		l2.625-1.125l3.875-0.625l3.125,0.625l2.75,1l4.375,2.25l3.75,0.125l2.25-0.125l2.125-0.625l1.625-0.5l36.25-32.25l-1.875-3.291
		l-0.75-2.5l-0.125-2.584l0.125-1.916l0.431-1.695l0.351-1.014l0.531-0.938l1.063-1.25l1.5-1.313l2.25-1l2-0.5h2l1.875,0.313
		l1.569,0.354l1.556,0.771l3.25,2.438l28.25-24.625l2.625-1.875l1.469-0.594l1.406-0.281l1.406,0.094l1.75,0.531l1.832,1.471
		l28.762,24.904l1.875-1.75l2.406-1.25l1.75-0.594l1.594-0.406l1.594-0.125h1.531l1.677,0.322l1.573,0.303l1.396,0.838l1.197,0.912
		l1.019,1.072l1.097,1.303l0.697,1.156l0.719,1.761l0.375,2.583l-0.5,2.625l-1.25,2.75l6,8.75l1.25,1.375L346,233.68l3.25,2.25
		l12.5,11.375l18,0.5l1.625,0.125l1.75,1.125l23,22.125l27,25.375l5.625-0.125l3.75,0.25l3,0.875l2.5,1.5"/>
	<path fill="#323366" stroke="#323366" stroke-width="0.25" stroke-miterlimit="10" d="M78.625,341.43"/>
	<path fill="#279AD3" d="M106.5,331.18"/>
	<path fill="#279AD3" d="M78.75,341.348c0,0-39.151-116.052,53.75-209.418c100-100.5,238.287-63.283,295.5-7.5
		c100,97.5,61.874,217.668,61.874,217.668l-41.75-43l-2.5-1.5l-3-0.875l-3.75-0.25l-5.625,0.125l-27-25.375l-23-22.126l-1.75-1.125
		l-1.625-0.125l-18-0.5l-12.5-11.375l-3.25-2.25l-2.375-0.875l-1.25-1.375l-6-8.75l1.25-2.75l0.5-2.625l-0.375-2.583l-0.719-1.761
		l-0.697-1.156l-1.096-1.303l-1.02-1.072l-1.197-0.912l-1.396-0.838l-1.572-0.302l-1.678-0.323h-1.531l-1.594,0.125l-1.594,0.406
		l-1.75,0.594l-2.406,1.25l-1.875,1.75l-28.762-24.904l-1.832-1.471l-1.75-0.531l-1.406-0.094l-1.406,0.281l-1.469,0.594
		l-2.625,1.875l-28.249,24.625L247,209.16l-1.556-0.771l-1.569-0.354L242,207.722h-2l-2,0.5l-2.25,1l-1.5,1.313l-1.063,1.25
		l-0.531,0.938l-0.351,1.014l-0.431,1.694l-0.125,1.917l0.125,2.584l0.75,2.5l1.875,3.291l-36.25,32.25l-1.625,0.5l-2.125,0.625
		l-2.25,0.125l-3.75-0.125l-4.375-2.25l-2.75-1l-3.125-0.625l-3.875,0.625l-2.625,1.125l-3.25,2l-3.75,3.75l-10.5,12.376l-2.75,0.75
		l-2.125,1l-2,1.75l-3.625,6l-2.625,0.375l-2.375,1.25l-2,0.75l-1.75,1.625L78.75,341.348"/>
</g>
<g id="Calque_2">
	<polyline fill="#121B56" points="170.417,485.014 177.25,493.097 146.417,502.847 134.75,494.514 	"/>
	<path fill="#FFFFFF" d="M35.708,231.389l11.667,5.667c0,0-22.583,102,43.792,190.125l-8.208,10.208
		C82.958,437.388,11.625,358.055,35.708,231.389z"/>
	<path fill="#FFFFFF" d="M533.199,230.889l-11.666,5.666c0,0,22.301,90.042-37.532,180.875l8.166,10.166
		C492.167,427.596,555.668,347.763,533.199,230.889z"/>
	<path fill="#FFFFFF" d="M238.75,32.18L239,45.93c0,0-93,10.75-156.75,105.5l-12.526-3.828
		C69.724,147.602,122.25,55.68,238.75,32.18z"/>
	<path fill="#FFFFFF" d="M499,147.18l-12.083,4.75c0,0-48.667-85.5-157.083-106L329.5,32.347C329.5,32.347,434,46.18,499,147.18z"/>
	<path fill="#FFFFFF" d="M420.334,481.263l9.5,9c0,0-65.5,53.168-169.167,45.334l17.167-12.334
		C277.834,523.263,347.501,529.929,420.334,481.263z"/>
	<polyline fill="#FFFFFF" points="92.375,458.118 163.208,376.035 142.042,375.785 81.875,445.868 	"/>
	<polyline fill="#FFFFFF" points="392.125,448.68 392.5,427.18 450.813,482.618 438.875,492.243 	"/>
	<polyline fill="#FFFFFF" points="418.375,374.055 438.625,372.43 493.75,437.18 484.125,449.43 	"/>
	<polyline fill="#FFFFFF" points="489.75,342.18 448,299.18 445.5,297.68 442.5,296.805 438.75,296.555 433.125,296.68 
		406.125,271.305 383.125,249.18 381.375,248.055 379.75,247.93 361.75,247.43 349.25,236.055 346,233.805 343.625,232.93 
		342.375,231.555 336.375,222.805 337.625,220.055 338.125,217.43 337.75,214.847 337.031,213.086 336.334,211.93 335.237,210.627 
		334.219,209.555 333.021,208.643 331.625,207.805 330.052,207.503 328.375,207.18 326.844,207.18 325.25,207.305 323.656,207.711 
		321.906,208.305 319.5,209.555 317.625,211.305 288.863,186.401 287.031,184.93 285.281,184.399 283.875,184.305 282.469,184.586 
		281,185.18 278.375,187.055 250.125,211.68 246.875,209.243 245.319,208.471 243.75,208.118 241.875,207.805 239.875,207.805 
		237.875,208.305 235.625,209.305 234.125,210.618 233.063,211.868 232.531,212.805 232.181,213.819 231.75,215.514 231.625,217.43 
		231.75,220.014 232.5,222.514 234.375,225.805 198.125,258.055 196.5,258.555 194.375,259.18 192.125,259.305 188.375,259.18 
		184,256.93 181.25,255.93 178.125,255.305 174.25,255.93 171.625,257.055 168.375,259.055 164.625,262.805 154.125,275.18 
		151.375,275.93 149.25,276.93 147.25,278.68 143.625,284.68 141,285.055 138.625,286.305 136.625,287.055 134.875,288.68 
		78.625,341.43 76.625,334.055 130.75,283.305 134.625,281.055 138.5,279.055 142.125,274.555 31.25,223.68 35.25,208.18 
		155.625,262.555 159.375,257.805 163,254.055 165.75,251.93 169,249.93 172.375,248.555 176.125,248.18 180.375,248.055 
		184.5,249.347 188.125,251.43 191,252.93 193.167,252.18 195.125,251.18 214.125,233.68 213.5,231.18 211.875,227.305 
		210.25,224.805 208,222.43 205.125,220.555 202.5,219.055 53.875,162.93 61.5,148.93 204.25,202.055 207.875,203.055 
		211.625,204.055 216.25,203.93 220.5,203.68 224.25,202.68 227.375,201.055 230.625,198.68 233.125,196.305 235.125,193.43 
		237.625,188.305 239,182.18 239.25,173.68 243.75,25.68 259.75,23.805 255.75,182.43 255.75,187.18 257.125,191.68 258.875,194.93 
		269.5,185.305 275.75,180.555 278.625,179.18 281.625,178.18 284.375,177.68 287,177.805 289.125,178.43 292.125,179.93 
		309.875,195.555 311.375,193.055 312.5,189.43 312.75,187.055 312.75,183.555 308.875,23.68 324.875,25.555 329.5,178.555 
		330,183.18 331,187.18 332.5,191.68 334.375,194.93 337.875,199.055 342,201.18 346,203.055 350.375,204.18 355.625,204.18 
		360.375,203.18 365.375,202.18 507.25,149.055 515.375,162.805 367,219.18 364.375,220.43 361.875,222.055 359.875,223.805 
		357.5,226.305 355.833,229.347 354.75,231.305 364.5,240.93 369.25,241.055 381.625,241.055 384.75,242.055 386.125,243.18 
		408.25,264.93 533.375,208.555 537.75,223.805 421.75,277.18 434.5,290.055 440.25,289.555 443.5,289.555 446.25,290.305 
		449.125,291.93 451.25,293.305 454,295.43 491.875,334.055 	"/>
	<polyline fill="#FFFFFF" points="102.375,469.638 130.25,464.388 165.375,457.388 194,450.638 224.375,442.263 239.125,437.138 
		256.5,430.013 267.125,424.388 272.875,420.638 278.375,415.513 281.625,410.888 282.75,407.263 282.5,402.638 280.375,398.513 
		275.625,393.638 262.5,386.513 249.75,380.263 240.625,375.263 234.875,371.888 230.625,368.388 228.125,365.263 226.625,361.638 
		227.375,357.513 229.125,355.763 232.75,352.638 238.5,349.888 245.125,347.513 268,341.513 275.833,339.846 282.667,337.596 
		285.083,336.346 285.313,335.805 285.417,335.096 285.047,334.321 284.417,333.513 281.917,332.43 276.917,331.096 
		267.833,329.096 246.333,324.846 239,322.596 234.917,320.846 233.333,319.513 232.333,318.18 232.25,317.18 232.417,316.346 
		233.125,315.399 234.25,314.596 237.25,313.096 241.417,311.513 248.833,309.763 253.833,309.18 249.583,310.43 241.083,312.596 
		236.917,314.18 234.75,315.18 234.094,316.055 233.813,316.836 234.031,317.805 234.667,318.763 237,320.096 240.583,321.513 
		244.5,322.68 249,323.68 257.25,325.43 268.083,327.263 274.75,328.763 287.25,331.096 291.333,332.513 293.667,333.846 
		294.469,334.571 295,335.263 295.109,336.149 295,337.096 293.25,338.346 288.417,340.68 274.083,345.013 268.333,346.68 
		262.25,348.93 257.417,351.096 254.5,353.013 252.583,354.93 251.667,357.013 251.667,359.18 253.083,361.846 255.583,364.263 
		259.167,366.263 276.833,373.096 282.667,374.763 300.75,380.596 328.75,389.679 344.334,396.596 349.584,399.596 355.834,405.013 
		359.5,409.596 361.834,414.596 362.75,419.596 362.75,424.18 361.834,427.846 359,435.596 355.667,441.013 349.5,448.596 
		343.584,454.929 336.584,461.263 319.417,473.929 275,499.596 212.5,533.096 182.583,523.18 166.5,515.43 145.417,503.846 
		131.167,495.513 	"/>
	<polygon fill="#121B56" points="196.333,477.597 202.833,484.514 231.5,474.181 259.417,463.181 253.833,458.431 231.875,466.618 	
		"/>
	<polygon fill="#121B56" points="270.75,452.098 276.25,456.348 289.917,449.681 304.584,441.431 298.584,438.264 291,443.055 
		280.75,448.055 	"/>
	<polygon fill="#121B56" points="307.834,432.181 313.5,434.847 316.667,431.181 319.667,427.514 323.25,421.847 317.334,421.431 
		315.917,424.097 313.167,427.347 310.625,429.93 	"/>
	<polygon fill="#121B56" points="319.75,414.848 325.25,415.014 325,411.514 324.5,409.014 322.917,405.431 318.167,405.931 
		319.5,408.098 320.084,410.264 	"/>
	<polygon fill="#121B56" points="314.25,401.431 318.417,399.764 313.167,395.931 309.75,393.431 306.834,395.264 310.667,397.681 
		312.938,399.618 	"/>
	<polygon fill="#121B56" points="298.5,391.431 301.333,389.514 288.583,384.431 282.917,382.014 281,383.848 288.833,386.931 
		293.833,389.014 	"/>
	<polygon fill="#121B56" points="257.5,374.347 272.667,380.764 274.417,378.931 259.5,372.681 	"/>
	<polygon fill="#121B56" points="251.25,371.014 252.75,370.097 248.417,367.181 246.583,368.181 250.25,370.597 	"/>
	<polygon fill="#121B56" points="243.667,366.264 245.25,365.097 243.25,362.931 242.167,360.931 239.833,360.847 240.417,362.264 
		242,364.764 	"/>
	<polygon fill="#121B56" points="239.583,358.097 242,359.014 242.104,357.41 242.833,355.847 244.167,354.097 242.25,353.681 
		241.063,355.285 240.167,356.431 	"/>
	<polygon fill="#121B56" points="246.167,350.931 248,351.681 251.583,349.785 255.917,348.181 254.917,347.181 251.583,348.181 
		249.167,349.16 	"/>
	<polygon fill="#121B56" points="259.583,345.847 261,346.514 264.667,345.431 270.083,343.764 269.813,343.306 269.167,343.014 	
		"/>
	<polygon fill="#121B56" points="273.833,341.597 274.333,342.597 278.167,341.847 282.667,340.597 284.917,339.764 
		287.167,338.764 289,337.514 290.25,336.514 290.75,335.097 290.333,334.014 286.5,332.097 288.083,333.681 288.984,334.493 
		289,335.431 288.25,336.493 285.5,338.097 282.083,339.514 276.833,340.931 	"/>
	<polygon fill="#FFFFFF" points="206.5,441.597 232.833,433.931 247,428.597 258.167,423.764 266.333,418.764 272.333,414.264 
		276.167,409.597 277.333,406.097 277.333,403.097 275.5,398.597 271.167,394.597 265.333,390.764 248.333,381.264 238.333,376.097 
		230.833,371.431 227,367.764 224.833,364.764 224.167,361.264 224.375,358.68 225.875,355.805 229.25,352.68 235.375,349.68 
		241.5,347.305 255.75,343.305 275.5,338.18 270.875,338.93 246.875,344.555 239.75,346.93 234.25,349.055 229.125,351.43 
		224.875,354.43 223,357.18 222,359.43 221.813,361.43 222.125,363.555 222.688,365.555 224.125,367.43 228.5,371.93 235,376.43 
		243.75,381.18 255.25,387.055 259.625,389.18 265.125,392.805 269.5,396.555 272.875,400.93 273.75,403.555 273.5,406.055 
		271.875,409.68 269.375,413.055 265.375,416.68 260.125,419.805 251.5,424.43 244,428.055 231.125,433.055 	"/>
	<path fill="#FFFFFF" d="M-218.5,434.097"/>
	<polyline id="_x3C_Tranche_x3E__8_" fill="none" points="-269,287.93 -378,287.93 -378,265.93 	"/>
	<rect id="_x3C_Tranche_x3E__2_" x="-393" y="287.93" fill="none" width="15" height="18"/>
	<polyline id="_x3C_Tranche_x3E__7_" fill="none" points="-231,256.93 -231,298.93 -525,298.93 -525,256.93 	"/>
	<line id="_x3C_Tranche_x3E__6_" fill="none" x1="-307" y1="279.93" x2="-308" y2="279.93"/>
	<rect id="_x3C_Tranche_x3E__5_" x="-307" y="280.93" fill="none" width="1" height="21"/>
	<line fill="#FFFFFF" x1="-550.625" y1="325.43" x2="-543" y2="311.43"/>
	<polygon fill="#FFFFFF" points="226,536.431 234.667,538.264 264.167,520.598 306.667,494.598 325.334,482.431 340,470.931 
		351.833,460.431 358.167,453.431 363.333,447.097 368,438.431 370.5,432.931 371.833,427.264 372,420.764 371,414.555 
		368.625,408.555 365.375,403.68 359.625,398.43 353.75,394.68 348.5,391.93 333.875,386.43 291.625,374.305 280.5,370.805 
		271,367.555 264,364.555 259.625,362.18 257.375,360.305 256.125,358.43 256.25,356.305 258,353.93 260.75,352.055 264.25,350.055 
		273.5,346.43 282.5,343.68 277.5,344.555 263.75,349.18 259.5,351.305 256,353.555 254.75,355.555 254.25,357.305 254.438,358.93 
		255,360.055 257.5,362.805 263.25,366.055 275.25,370.555 285.5,373.93 297.125,377.305 313.375,381.93 325.5,385.805 
		332.375,388.18 340.125,391.055 345.625,393.43 353.25,397.68 358.125,401.18 362.875,405.93 366,410.93 367.5,415.93 368,421.305 
		367.375,427.43 366,432.805 363.75,437.805 359.5,444.68 355.625,449.93 349,456.805 333.875,469.93 326.25,475.93 316.25,482.805 
		285.75,502.055 	"/>
	<polygon fill="#121B56" points="146.417,502.847 177.25,493.097 173.167,488.263 170.625,484.93 134.625,494.743 	"/>
	<line fill="#FFFFFF" x1="-400.875" y1="258.68" x2="-399.125" y2="261.93"/>
	<polyline fill="#279AD3" points="82.833,344.597 140.167,292.93 146.5,290.43 148,288.764 152.333,282.264 154.333,280.597 
		158.333,280.097 170.167,265.43 172.667,262.764 175.333,262.43 177,261.264 179.5,261.597 183.667,263.264 186.333,264.764 
		195.833,264.264 199.667,263.764 234,233.597 282.875,191.18 283.25,193.305 283.125,197.93 280.375,209.18 280,211.055 
		280.875,213.43 283,216.305 293.625,226.305 296.125,228.805 296.875,230.93 296.375,232.555 285.375,240.68 283.875,242.18 
		282.5,243.93 278.75,249.805 278.875,251.305 280,251.93 293.125,258.805 295.5,260.305 296.75,262.305 296.875,264.43 
		295.625,266.805 285.375,274.43 283.25,279.805 282.75,280.805 271.875,288.805 269.25,291.805 267.875,291.68 265.125,290.555 
		263.875,290.68 261.625,293.305 256.375,301.305 254.75,302.805 229.375,312.93 234.75,308.805 246.875,297.555 231.625,304.43 
		230.125,304.43 227.25,303.93 223.5,304.43 203.375,310.43 220.75,294.93 221,293.93 200.25,297.805 197.5,297.68 176.75,310.93 
		167.875,324.055 153,334.43 164,318.055 165.375,316.43 167.875,305.305 167.75,304.555 166.125,303.18 166.625,295.43 
		168.75,290.18 168.75,288.93 168.375,288.055 167.625,288.055 166,288.805 153.75,304.68 150.875,307.43 147.875,313.055 
		136.75,322.805 141,312.68 143.875,307.555 144.25,303.055 129,315.055 126,317.555 117.5,329.43 114.5,332.805 105.125,341.805 
		108.5,335.305 110.875,329.305 	"/>
	<polygon fill="#FFFFFF" points="269.75,314.68 284.25,296.18 291.25,292.93 295.75,290.93 306.25,281.93 309.5,278.68 
		309.25,272.18 305.75,263.68 337.75,285.43 317.5,265.18 307.5,257.43 301.25,253.18 287,248.18 289.5,244.18 295.75,239.43 
		301.25,235.43 304,232.93 303,228.68 299.5,224.68 285,211.93 285,209.68 286.25,204.93 287.25,198.18 287,192.18 317.5,220.18 
		320.25,222.43 327.25,223.93 330,225.18 332.25,227.93 339.25,237.43 347,241.68 350,244.18 357.5,253.68 379.75,279.93 
		378.5,273.93 369.75,256.18 376,255.68 380,255.18 392,267.93 398,271.43 428,298.43 427.75,300.18 407.25,303.93 427,303.93 
		437,302.18 439.75,302.68 445.5,306.18 449,309.18 488.25,347.68 479.5,342.93 465,334.18 446.5,322.68 447,326.68 450.5,333.43 
		440.75,328.93 437,326.68 431,321.93 427.25,319.68 431,315.18 433.75,315.18 431.5,311.18 420.25,310.43 409.75,307.43 
		407.5,307.43 411,312.43 396.75,306.43 390,303.93 393.25,306.93 397.5,308.68 409.75,317.93 413,320.18 421,324.43 432,334.18 
		444,344.18 429.75,338.18 408.75,326.93 411.75,333.93 401,325.68 395.75,321.68 382.25,314.18 385.25,322.93 389.5,332.93 
		370.25,313.18 368,315.18 352.75,311.43 341.5,307.93 345.25,313.43 351.5,319.43 353.25,324.68 356.5,331.43 360.25,340.18 
		364,345.93 354.5,340.18 350,337.18 346,328.93 338.75,320.93 337.25,327.43 332.25,316.93 323.5,304.18 323.5,297.43 319,300.93 
		308.25,303.93 300.25,307.93 304,296.43 286.75,303.18 	"/>
	<polygon fill="#FFFFFF" points="143.25,297.68 147.75,293.68 150.5,290.68 153,285.93 155.5,285.68 158.75,285.93 167,278.68 
		165.5,283.43 159.75,288.18 155.5,293.43 151.75,300.18 150.75,294.93 	"/>
	<polygon fill="#FFFFFF" points="175.333,262.43 172,270.43 171.5,283.68 171,286.93 183.25,276.43 179,285.93 172,298.18 
		198.75,274.43 201,272.68 201.5,274.43 211.75,268.18 210.5,272.93 209.25,276.93 205.25,286.93 218.5,273.68 220.25,269.68 
		222.75,263.43 226,257.68 229.75,253.18 230.5,264.68 240,247.43 243,246.18 247,243.68 251.75,239.18 259.5,231.43 257.5,239.18 
		255,242.43 252.25,246.18 243.5,253.43 242.75,259.93 240.25,263.68 228,279.43 249.25,267.68 245.25,273.68 241.5,282.43 
		236.5,288.18 226.25,300.18 252.75,286.18 260.75,280.93 264,277.93 275.25,271.93 272.75,266.18 274.5,260.93 268,262.68 
		261.75,263.43 258.5,262.93 263.5,254.18 273,243.43 273,239.68 276.75,236.93 284,225.68 281,224.43 274,222.68 270,222.18 
		273.75,212.93 276.5,205.18 276.75,201.43 275.25,200.93 269.5,207.93 258,216.18 250.75,225.43 249.25,225.43 239.75,235.68 
		234.25,237.68 231.25,238.93 209.75,260.68 201.5,267.93 203.75,264.43 199.667,263.764 194.25,264.43 186.333,264.764 
		182.75,262.68 178.5,261.18 177,261.264 	"/>
	<polygon fill="#299AD4" points="330,269.68 331.25,267.93 333,265.93 330.25,260.18 328.75,256.43 326.25,250.93 324.25,246.18 
		322.5,238.93 332.5,249.68 337.5,256.68 341.25,260.18 342.75,266.93 346.25,271.68 363,284.68 362,281.18 360,273.93 376,286.43 
		380,289.93 377.75,281.18 392.25,298.43 391,294.43 388.5,286.68 392,289.93 392.75,287.18 407.25,303.93 421.5,303.868 
		427.25,303.868 437,302.18 435.25,306.18 431.5,311.18 420.25,310.43 409.75,307.43 407.5,307.43 411,312.43 394.375,305.618 
		390,303.93 393.25,306.93 384,303.43 380.25,301.43 371,294.68 366.75,293.18 363,293.18 359,296.18 	"/>
	<polygon fill="#2898D2" points="379.75,279.93 378.5,273.93 369.75,256.18 376,255.68 380,255.18 378,253.055 375.25,253.055 
		363.75,253.18 366.25,258.68 373.625,273.055 	"/>
</g>
<g id="Calque_1" display="none">
	
		<image display="inline" overflow="visible" opacity="0.38" width="3840" height="3840" xlink:href="LOGO.png"  transform="matrix(0.1476 0 0 0.1476 0 0)">
	</image>
</g>
</svg>
