<svg width="154" height="154" viewBox="0 0 154 154" fill="none" xmlns="http://www.w3.org/2000/svg">
<g clip-path="url(#clip0_2268_2855)">
<path d="M76.9998 42.53C74.9944 42.53 73.292 40.7795 73.292 38.7041V34.8259C73.292 32.7505 74.9944 31 76.9998 31C79.0051 31 80.7075 32.7505 80.7075 34.8259V38.7041C80.7075 40.7795 79.0155 42.53 76.9998 42.53ZM76.9998 33.8301C76.6446 33.8301 76.112 34.2284 76.112 34.8259V38.7041C76.112 39.2073 76.5506 39.6999 76.9998 39.6999C77.3549 39.6999 77.8875 39.3016 77.8875 38.7041V34.8259C77.8875 34.3227 77.4489 33.8301 76.9998 33.8301Z" fill="url(#paint0_linear_2268_2855)"/>
<path d="M69.062 44.522C67.6102 44.522 66.4718 43.8512 65.8451 42.6353L63.8816 39.323C63.3907 38.5055 63.2549 37.4678 63.5264 36.5034C63.7876 35.5601 64.3933 34.732 65.208 34.2498C66.9104 33.2226 69.2291 33.8306 70.2735 35.5706L72.258 38.9352C73.2815 40.6438 72.6757 42.9707 70.9315 44.0189C70.4511 44.3438 69.7722 44.5325 69.062 44.5325V44.522ZM67.0149 36.5768C66.8791 36.5768 66.7538 36.6083 66.6493 36.6711C66.4613 36.7864 66.3047 36.9961 66.242 37.2476C66.1793 37.4782 66.2002 37.7088 66.3047 37.8766L68.3413 41.3251C68.4353 41.5242 68.5711 41.6919 69.062 41.6919C69.2709 41.6919 69.3962 41.6395 69.4275 41.6186C69.6782 41.4718 69.8244 41.2517 69.8975 41.0106C69.9602 40.78 69.9393 40.5494 69.8349 40.3817L67.8504 37.017C67.6833 36.7445 67.3387 36.5768 67.0253 36.5768H67.0149Z" fill="url(#paint1_linear_2268_2855)"/>
<path d="M84.9377 44.5215C84.3842 44.5215 83.7575 44.3538 83.1622 44.0603L83.0682 44.0079C82.2535 43.5153 81.6477 42.6977 81.3866 41.7543C81.1255 40.7795 81.2509 39.7523 81.7522 38.9242L83.6113 35.6015C84.1126 34.6791 84.99 34.0083 86.0031 33.7672C86.9431 33.5471 87.9248 33.7252 88.7186 34.2493C89.5542 34.7315 90.1495 35.5072 90.4106 36.4505C90.6717 37.4253 90.5359 38.4735 90.0241 39.3225L88.165 42.6453C87.4966 43.8192 86.2955 44.5215 84.9482 44.5215H84.9377ZM84.4782 41.5552C84.7184 41.6705 84.896 41.6914 84.9377 41.6914C85.2719 41.6914 85.5331 41.5342 85.7002 41.2512L87.5697 37.9075C87.7055 37.6769 87.7368 37.4253 87.6742 37.1947C87.6324 37.0375 87.5279 36.8279 87.2877 36.6916L87.1519 36.6077C86.9639 36.4715 86.7655 36.482 86.6402 36.5134C86.3999 36.5658 86.1911 36.7335 86.0657 36.9641L84.1753 40.3393C84.05 40.5384 84.0395 40.769 84.1022 40.9996C84.1648 41.2302 84.3006 41.4294 84.4677 41.5447L84.4782 41.5552Z" fill="url(#paint2_linear_2268_2855)"/>
<path d="M55.3804 122.611C52.3515 122.611 49.7927 119.99 49.7927 116.898V96.2594L43.2649 118.554C42.5651 120.944 40.33 122.611 37.8443 122.611C37.1445 122.611 36.4447 122.474 35.7554 122.191C32.9981 121.227 31.5568 118.135 32.5385 115.19L39.7347 90.6097C39.8914 90.0437 39.9958 89.3414 39.9958 88.702V81.5534L35.4943 88.723C34.4603 90.2114 32.8519 91.0604 31.1703 91.0604C30.1781 91.0604 29.2694 90.7774 28.4025 90.1905C27.2641 89.4777 26.4286 88.3142 26.1361 87.0145C25.8541 85.7357 26.0943 84.4254 26.8359 83.2305L35.7136 69.0801C37.8756 65.5791 41.646 63.4932 45.782 63.4932H54.4509C55.7773 63.4932 57.1664 63.2417 58.7017 62.7281C61.4799 61.7113 63.6002 59.4787 64.4879 56.6277L66.5768 50.1184C67.1304 48.0221 69.1044 46.5127 71.3603 46.5127C71.8617 46.5127 72.3943 46.607 72.9479 46.7957C75.5381 47.6657 77.0734 50.5377 76.3737 53.2106L74.2639 59.7827C72.3735 65.6001 67.9868 70.1597 62.2424 72.3085C61.9395 72.4133 61.5426 72.5181 61.1771 72.6124L61.0726 116.992C61.0726 120.085 58.5242 122.6 55.3804 122.6V122.611ZM50.8998 91.2281C51.892 91.5216 52.6022 92.4755 52.6022 93.5237V116.898C52.6022 118.46 53.866 119.781 55.37 119.781C56.9784 119.781 58.2422 118.565 58.2422 117.003L58.3466 70.3903L59.4328 70.1387C59.788 70.0549 60.8324 69.8033 61.292 69.6461C66.1799 67.8118 69.9504 63.902 71.5692 58.9127L73.6581 52.414C73.961 51.2505 73.2299 49.8669 72.0497 49.479C71.7886 49.3952 71.5379 49.3428 71.3499 49.3428C70.389 49.3428 69.5117 50.0031 69.261 50.9151L67.1513 57.4872C66.0024 61.1768 63.2555 64.0593 59.6104 65.4009C57.7409 66.0299 56.0593 66.3233 54.43 66.3233H45.7611C42.5965 66.3233 39.7347 67.9166 38.0845 70.579L29.2068 84.7399C28.8621 85.2954 28.7472 85.851 28.8725 86.4065C28.9979 86.9621 29.3843 87.4861 29.917 87.8216C30.3661 88.115 30.7212 88.2408 31.1494 88.2408C31.9327 88.2408 32.6534 87.853 33.1234 87.1717L42.7949 71.7634V88.723C42.7949 89.6244 42.6696 90.5888 42.4294 91.4168L35.2227 116.06C34.7214 117.579 35.3898 119.089 36.7372 119.571C37.1549 119.739 37.4892 119.802 37.8338 119.802C39.0872 119.802 40.2047 118.974 40.5494 117.779L47.85 92.8738C47.9962 92.2554 48.4036 91.7208 48.9884 91.4063C49.5838 91.0814 50.2731 91.029 50.9102 91.2491L50.8998 91.2281Z" fill="url(#paint3_linear_2268_2855)"/>
<path d="M50.3668 63.7029C44.6955 63.7029 40.0791 59.0699 40.0791 53.3783C40.0791 47.6867 44.6955 43.0537 50.3668 43.0537C56.0381 43.0537 60.6546 47.6867 60.6546 53.3783C60.6546 59.0699 56.0381 63.7029 50.3668 63.7029ZM50.3668 45.8838C46.2517 45.8838 42.8991 49.2485 42.8991 53.3783C42.8991 57.5081 46.2517 60.8728 50.3668 60.8728C54.4819 60.8728 57.8346 57.5081 57.8346 53.3783C57.8346 49.2485 54.4819 45.8838 50.3668 45.8838Z" fill="url(#paint4_linear_2268_2855)"/>
<path d="M116.166 122.611C113.67 122.611 111.435 120.944 110.735 118.554L104.208 96.2699V116.898C104.208 119.99 101.649 122.611 98.6199 122.611C95.591 122.611 92.9277 120.095 92.9277 117.003L92.8232 72.6229C92.4577 72.5286 92.0817 72.4238 91.7997 72.3294C86.003 70.1597 81.6164 65.6001 79.726 59.7932L77.7311 53.1582C76.8851 50.6111 78.3891 47.6762 81.042 46.7957C81.6059 46.607 82.1386 46.5127 82.6399 46.5127C84.8959 46.5127 86.8699 48.0221 87.4444 50.1813L89.5124 56.6067C90.4001 59.4682 92.5308 61.7009 95.3403 62.7386C96.8443 63.2417 98.2334 63.4932 99.5599 63.4932H108.229C112.365 63.4932 116.135 65.5896 118.308 69.0905L127.175 83.0209C127.927 84.2263 128.167 85.5365 127.885 86.8153C127.593 88.115 126.757 89.2785 125.587 90.0122C124.752 90.5783 123.843 90.8613 122.851 90.8613C121.159 90.8613 119.561 90.0122 118.558 88.5762L114.025 81.3438V88.4924C114.025 89.1318 114.119 89.8341 114.286 90.4106L121.598 115.032C122.433 118.24 121.002 121.238 118.203 122.223C117.576 122.474 116.866 122.621 116.166 122.621V122.611ZM106.15 92.8528L113.451 117.758C113.9 119.277 115.561 120.231 117.211 119.571C118.642 119.068 119.321 117.485 118.882 115.787L111.581 91.1967C111.341 90.3477 111.205 89.3938 111.205 88.4819V71.5223L120.908 86.9935C121.347 87.6224 122.068 88.0102 122.851 88.0102C123.279 88.0102 123.645 87.8949 124.052 87.6224C124.616 87.266 125.013 86.7419 125.128 86.1864C125.253 85.6413 125.128 85.0753 124.783 84.5198L115.916 70.5894C114.255 67.9061 111.383 66.3129 108.229 66.3129H99.5599C97.9305 66.3129 96.249 66.0194 94.4108 65.4009C90.7239 64.0488 87.977 61.1558 86.8281 57.4557L84.7393 50.9675C84.4782 49.9927 83.6008 49.3323 82.6399 49.3323C82.4519 49.3323 82.2013 49.3847 81.9402 49.4686C80.7704 49.8669 80.0602 51.1771 80.4362 52.2882L82.4311 58.9337C84.0395 63.8916 87.8099 67.8013 92.7501 69.6461C93.1679 69.7823 94.2019 70.0339 94.557 70.1178L95.6432 70.3693L95.7477 116.982C95.7477 118.544 97.0114 119.76 98.6199 119.76C100.124 119.76 101.388 118.439 101.388 116.877V93.5027C101.388 92.4545 102.098 91.5111 103.09 91.2072C103.717 90.9871 104.406 91.0395 105.012 91.3644C105.586 91.6789 106.004 92.2134 106.15 92.8319V92.8528Z" fill="url(#paint5_linear_2268_2855)"/>
<path d="M103.633 63.7029C97.9621 63.7029 93.3457 59.0699 93.3457 53.3783C93.3457 47.6867 97.9621 43.0537 103.633 43.0537C109.305 43.0537 113.921 47.6867 113.921 53.3783C113.921 59.0699 109.305 63.7029 103.633 63.7029ZM103.633 45.8838C99.5183 45.8838 96.1657 49.2485 96.1657 53.3783C96.1657 57.5081 99.5183 60.8728 103.633 60.8728C107.749 60.8728 111.101 57.5081 111.101 53.3783C111.101 49.2485 107.749 45.8838 103.633 45.8838Z" fill="url(#paint6_linear_2268_2855)"/>
</g>
<circle cx="77" cy="77" r="75.5" stroke="url(#paint7_linear_2268_2855)" stroke-width="3"/>
<defs>
<linearGradient id="paint0_linear_2268_2855" x1="78.6103" y1="33.5985" x2="73.1374" y2="38.1352" gradientUnits="userSpaceOnUse">
<stop stop-color="#F39200"/>
<stop offset="0.33" stop-color="#EA5B0B"/>
<stop offset="0.635" stop-color="#D60B51"/>
<stop offset="1" stop-color="#A11881"/>
</linearGradient>
<linearGradient id="paint1_linear_2268_2855" x1="70.1073" y1="36.1793" x2="64.9315" y2="41.9745" gradientUnits="userSpaceOnUse">
<stop stop-color="#F39200"/>
<stop offset="0.33" stop-color="#EA5B0B"/>
<stop offset="0.635" stop-color="#D60B51"/>
<stop offset="1" stop-color="#A11881"/>
</linearGradient>
<linearGradient id="paint2_linear_2268_2855" x1="87.9139" y1="36.1193" x2="82.6998" y2="41.8729" gradientUnits="userSpaceOnUse">
<stop stop-color="#F39200"/>
<stop offset="0.33" stop-color="#EA5B0B"/>
<stop offset="0.635" stop-color="#D60B51"/>
<stop offset="1" stop-color="#A11881"/>
</linearGradient>
<linearGradient id="paint3_linear_2268_2855" x1="62.2549" y1="63.6629" x2="25.9383" y2="94.7384" gradientUnits="userSpaceOnUse">
<stop stop-color="#F39200"/>
<stop offset="0.33" stop-color="#EA5B0B"/>
<stop offset="0.635" stop-color="#D60B51"/>
<stop offset="1" stop-color="#A11881"/>
</linearGradient>
<linearGradient id="paint4_linear_2268_2855" x1="54.8356" y1="47.7074" x2="45.1654" y2="60.1266" gradientUnits="userSpaceOnUse">
<stop stop-color="#F39200"/>
<stop offset="0.33" stop-color="#EA5B0B"/>
<stop offset="0.635" stop-color="#D60B51"/>
<stop offset="1" stop-color="#A11881"/>
</linearGradient>
<linearGradient id="paint5_linear_2268_2855" x1="113.716" y1="63.6653" x2="77.3974" y2="94.728" gradientUnits="userSpaceOnUse">
<stop stop-color="#F39200"/>
<stop offset="0.33" stop-color="#EA5B0B"/>
<stop offset="0.635" stop-color="#D60B51"/>
<stop offset="1" stop-color="#A11881"/>
</linearGradient>
<linearGradient id="paint6_linear_2268_2855" x1="108.102" y1="47.7074" x2="98.432" y2="60.1266" gradientUnits="userSpaceOnUse">
<stop stop-color="#F39200"/>
<stop offset="0.33" stop-color="#EA5B0B"/>
<stop offset="0.635" stop-color="#D60B51"/>
<stop offset="1" stop-color="#A11881"/>
</linearGradient>
<linearGradient id="paint7_linear_2268_2855" x1="110.447" y1="34.707" x2="38.3914" y2="127.578" gradientUnits="userSpaceOnUse">
<stop stop-color="#F39200"/>
<stop offset="0.33" stop-color="#EA5B0B"/>
<stop offset="0.635" stop-color="#D60B51"/>
<stop offset="1" stop-color="#A11881"/>
</linearGradient>
<clipPath id="clip0_2268_2855">
<rect width="102" height="91.6111" fill="white" transform="translate(26 31)"/>
</clipPath>
</defs>
</svg>
