<svg width="154" height="154" viewBox="0 0 154 154" fill="none" xmlns="http://www.w3.org/2000/svg">
<g clip-path="url(#clip0_2268_2794)">
<path d="M55.1445 57.0755C53.5814 58.1029 52.3771 59.5805 51.6708 61.3006C51.5782 61.4276 51.5087 61.5776 51.4624 61.7277L51.2887 62.3511V62.4781L48.7297 71.4593C47.9192 74.3799 48.116 77.4737 49.2855 80.2674L52.6319 88.3482L51.474 92.6656C49.7371 92.6195 48.1971 93.7508 47.7223 95.4131L46.5644 99.4304C46.1013 101.104 46.8423 102.871 48.3708 103.713L43.1602 122.472C42.9865 123.246 43.4728 124.019 44.2486 124.204C44.3528 124.227 44.457 124.239 44.5612 124.239H72.7448C73.3932 124.239 73.9722 123.8 74.1459 123.176L77.3185 111.759C77.6196 111.84 77.9438 111.886 78.2564 111.886C78.9049 111.886 79.5417 111.713 80.1091 111.39C80.9891 110.894 81.6259 110.062 81.8807 109.081L83.0386 105.064C83.5828 103.078 82.4365 101.035 80.468 100.446L81.6144 96.2443L85.4471 92.7811C89.025 89.5718 91.6071 85.416 92.8924 80.7869L94.664 74.4377L98.0104 62.3626C98.9599 58.9571 96.9567 55.4247 93.5408 54.4781C92.2903 54.1317 90.9587 54.1664 89.7197 54.5935C90.0787 51.0841 87.5197 47.9441 83.9881 47.5747C82.6565 47.4362 81.3249 47.7248 80.167 48.3828C80.0049 48.4867 79.8543 48.5906 79.7038 48.7061C78.3838 45.4391 74.6553 43.8576 71.3669 45.1736C70.5911 45.4853 69.8732 45.947 69.2826 46.5358C67.43 43.5228 63.4699 42.5762 60.4478 44.4348C59.0814 45.2659 58.0856 46.582 57.6341 48.1058L55.1445 57.0755ZM71.6448 121.353H46.4602L51.0919 104.533L74.4932 110.998L71.6448 121.353ZM80.2133 104.325L79.0554 108.342C78.928 108.804 78.4417 109.081 77.9785 108.954L49.9571 101.22C49.4939 101.093 49.2276 100.619 49.355 100.158L50.5129 96.1404C50.6171 95.7594 50.9645 95.4939 51.3582 95.4939C51.4392 95.4939 51.5087 95.4939 51.5898 95.4939L79.6459 103.24C80.1091 103.39 80.3522 103.875 80.2133 104.337V104.325ZM88.4345 59.6844C88.8629 58.1606 90.2524 57.1216 91.8387 57.1216C92.1514 57.1216 92.4756 57.1563 92.7766 57.2486C94.6293 57.7219 95.7525 59.6151 95.2777 61.4622C95.2661 61.5084 95.2546 61.5545 95.2314 61.6123L91.885 73.6758C91.2713 75.5228 89.2682 76.5156 87.4155 75.9037C85.7018 75.3381 84.6944 73.5603 85.0881 71.7941L85.7365 69.4853L88.4345 59.6844ZM79.947 53.0004C80.2017 52.1115 80.8038 51.3496 81.6144 50.8879C82.4249 50.4261 83.3975 50.3107 84.3007 50.5646C85.2039 50.8186 85.9681 51.4074 86.4313 52.2154C86.8944 53.0235 87.0102 53.9932 86.7555 54.8936L82.946 68.6541C82.4133 70.5242 80.468 71.6209 78.5922 71.1014C77.6891 70.859 76.9248 70.2703 76.4617 69.4506C76.288 69.1159 76.1606 68.7695 76.0796 68.4001C77.0522 68.2847 77.9901 67.9384 78.8006 67.3843C82.0775 65.1332 81.7417 60.3655 81.7302 60.1693C81.6838 59.5574 81.267 59.0495 80.6765 58.8879L78.488 58.2876L79.947 53.0004ZM70.0353 51.5228L70.3942 50.2183C70.7995 48.683 72.2006 47.6209 73.7985 47.644C74.1111 47.644 74.4353 47.6786 74.7364 47.771C76.589 48.2443 77.7122 50.1375 77.2375 51.9846C77.2375 52.0192 77.2143 52.0538 77.2027 52.1L75.6974 57.5372L68.8774 55.644L70.0353 51.5228ZM78.8238 61.3814C78.8238 62.8013 78.2217 64.1519 77.1448 65.0755C75.6627 66.0913 73.0111 65.7566 69.4911 64.1173C69.2247 63.9903 68.9237 63.9557 68.6342 64.0019L61.8604 65.1563C61.073 65.2833 60.5404 66.0221 60.6678 66.8186C60.7488 67.3381 61.1078 67.7652 61.6057 67.9384C61.6636 67.9384 67.3952 70.0971 68.7731 74.6108C69.6068 77.1851 68.8774 80.1981 66.5615 83.5459C66.0752 84.1693 66.191 85.0697 66.8163 85.5545C67.071 85.7508 67.3952 85.8547 67.7194 85.8547C68.1826 85.8547 68.611 85.6123 68.8774 85.2313C71.7374 81.1332 72.629 77.2775 71.5058 73.7566C71.2974 73.0985 71.0195 72.4521 70.6721 71.8518C71.4827 71.7479 72.27 71.4824 72.9879 71.0783C73.2543 70.9167 73.509 70.7436 73.7522 70.5473C73.8216 70.6743 73.8564 70.8128 73.9258 70.9398C74.7595 72.4175 76.1606 73.5026 77.8048 73.9528C79.2291 74.3684 80.7459 74.253 82.0891 73.6296C82.4249 76.1693 84.2428 78.2703 86.7207 78.9745C87.925 79.3092 89.2103 79.2746 90.4029 78.8936L90.0671 80.048C88.9324 84.1462 86.6513 87.8287 83.4786 90.6685L79.3333 94.3742C79.1249 94.5589 78.9859 94.8013 78.9049 95.0668L77.6543 99.7075L54.253 93.2775L55.5614 88.5791C55.6424 88.2674 55.6193 87.9441 55.5035 87.644L51.9487 79.1592C51.034 76.9658 50.8834 74.53 51.5203 72.2327L51.7287 71.4939L53.0256 67.0957C53.0487 66.9571 53.0487 66.8186 53.0256 66.6801L54.0098 63.1245C54.6814 60.6887 56.7193 58.8879 59.2204 58.5069L65.2878 57.618L78.8238 61.3814ZM72.1427 68.0884C71.969 68.2501 71.7837 68.377 71.5753 68.4925C70.7648 68.9658 69.7921 69.0812 68.8889 68.8273C68.4721 68.7118 68.0784 68.5156 67.731 68.2616L67.5342 68.0884C67.2331 67.8345 66.9784 67.5459 66.7815 67.2111L68.6805 66.8763C69.7921 67.3843 70.95 67.7883 72.1427 68.0884ZM60.4362 48.9138C60.9573 47.0437 62.9025 45.947 64.7899 46.4665C65.6931 46.7205 66.4573 47.3092 66.9089 48.1173C67.3721 48.9369 67.4879 49.8951 67.2447 50.7955L66.0868 54.9167L65.7857 54.8359C65.5889 54.7897 65.392 54.7897 65.1952 54.8359L58.8267 55.771C58.7225 55.7941 58.6067 55.8172 58.5025 55.8403L60.4362 48.9138Z" fill="url(#paint0_linear_2268_2794)"/>
<path d="M38.0534 42.1948C43.5187 43.6609 45.9851 51.4993 46.0082 51.5801C46.1935 52.1919 46.7609 52.596 47.3977 52.596C48.0346 52.596 48.602 52.1688 48.7757 51.557C48.7757 51.4762 51.0104 43.9957 56.7768 42.1833C57.541 41.9293 57.9579 41.1097 57.7031 40.3478C57.5758 39.9437 57.2747 39.6205 56.881 39.4589C50.802 37.0231 48.7757 30.1198 48.7757 30.062C48.602 29.4502 48.0462 29.0115 47.4093 29C46.7725 29 46.2167 29.4156 46.0198 30.0159C46.0198 30.0851 43.704 37.1039 37.9145 39.4589C37.1734 39.7475 36.8029 40.5902 37.1039 41.329C37.2776 41.7561 37.6366 42.0794 38.0766 42.1948H38.0534ZM47.3167 34.114C48.6599 36.7691 50.6515 39.0433 53.1062 40.7403C50.6167 42.4141 48.6251 44.7229 47.3167 47.4127C46.043 44.7114 44.0745 42.4026 41.6198 40.6941C44.0282 38.974 45.9967 36.7229 47.363 34.1025H47.3167V34.114Z" fill="url(#paint1_linear_2268_2794)"/>
<path d="M116.073 85.6347C109.994 83.1989 107.968 76.2955 107.968 76.2378C107.794 75.626 107.239 75.1873 106.602 75.1758C105.965 75.1758 105.409 75.5914 105.224 76.1917C105.224 76.2609 102.908 83.2797 97.1184 85.6347C96.5394 85.8655 96.1805 86.4427 96.2152 87.0661C96.2499 87.6895 96.6784 88.209 97.2805 88.3706C102.734 89.8367 105.212 97.6751 105.235 97.7559C105.421 98.3677 105.976 98.7833 106.613 98.7833C107.25 98.7833 107.817 98.3446 107.991 97.7328C107.991 97.652 110.191 90.183 115.992 88.359C116.757 88.1051 117.173 87.2855 116.919 86.5235C116.791 86.1195 116.49 85.7963 116.097 85.6347H116.073ZM106.555 93.5769C105.282 90.8756 103.313 88.5668 100.858 86.8583C103.244 85.1383 105.177 82.8872 106.532 80.2782C107.887 82.9334 109.867 85.2075 112.322 86.9045C109.844 88.5784 107.852 90.8872 106.555 93.5769Z" fill="url(#paint2_linear_2268_2794)"/>
<path d="M91.6304 45.2655C98.9368 47.228 102.202 57.6176 102.237 57.7215C102.422 58.3333 102.978 58.7489 103.615 58.7489C104.252 58.7374 104.807 58.3102 104.993 57.6984C104.993 57.5945 107.945 47.6782 115.645 45.254C116.41 45 116.826 44.1804 116.572 43.4185C116.444 43.0144 116.143 42.6912 115.75 42.5296C107.644 39.2857 105.016 30.1429 104.993 30.062C104.819 29.4387 104.263 29 103.615 29C102.978 29 102.399 29.404 102.202 30.0159C102.202 30.1082 99.1684 39.4012 91.4219 42.5411C90.6809 42.8413 90.3335 43.6955 90.6461 44.4228C90.8198 44.8384 91.1672 45.1385 91.5956 45.2655H91.6304ZM103.615 34.2525C105.433 38.1429 108.304 41.4444 111.905 43.7879C108.246 46.0967 105.352 49.4329 103.615 53.3925C102.167 50.3449 99.5273 46.062 95.4167 43.7302C98.9484 41.3521 101.774 38.0851 103.615 34.2525Z" fill="url(#paint3_linear_2268_2794)"/>
</g>
<circle cx="77" cy="77" r="75.5" stroke="url(#paint4_linear_2268_2794)" stroke-width="3"/>
<defs>
<linearGradient id="paint0_linear_2268_2794" x1="82.6575" y1="61.6824" x2="43.9668" y2="95.7201" gradientUnits="userSpaceOnUse">
<stop stop-color="#F39200"/>
<stop offset="0.33" stop-color="#EA5B0B"/>
<stop offset="0.635" stop-color="#D60B51"/>
<stop offset="1" stop-color="#A11881"/>
</linearGradient>
<linearGradient id="paint1_linear_2268_2794" x1="51.9015" y1="34.3178" x2="40.5944" y2="47.1514" gradientUnits="userSpaceOnUse">
<stop stop-color="#F39200"/>
<stop offset="0.33" stop-color="#EA5B0B"/>
<stop offset="0.635" stop-color="#D60B51"/>
<stop offset="1" stop-color="#A11881"/>
</linearGradient>
<linearGradient id="paint2_linear_2268_2794" x1="111.117" y1="80.4962" x2="99.8033" y2="93.3314" gradientUnits="userSpaceOnUse">
<stop stop-color="#F39200"/>
<stop offset="0.33" stop-color="#EA5B0B"/>
<stop offset="0.635" stop-color="#D60B51"/>
<stop offset="1" stop-color="#A11881"/>
</linearGradient>
<linearGradient id="paint3_linear_2268_2794" x1="109.261" y1="35.7045" x2="94.9998" y2="51.8402" gradientUnits="userSpaceOnUse">
<stop stop-color="#F39200"/>
<stop offset="0.33" stop-color="#EA5B0B"/>
<stop offset="0.635" stop-color="#D60B51"/>
<stop offset="1" stop-color="#A11881"/>
</linearGradient>
<linearGradient id="paint4_linear_2268_2794" x1="110.447" y1="34.707" x2="38.3914" y2="127.578" gradientUnits="userSpaceOnUse">
<stop stop-color="#F39200"/>
<stop offset="0.33" stop-color="#EA5B0B"/>
<stop offset="0.635" stop-color="#D60B51"/>
<stop offset="1" stop-color="#A11881"/>
</linearGradient>
<clipPath id="clip0_2268_2794">
<rect width="80" height="95.2381" fill="white" transform="translate(37 29)"/>
</clipPath>
</defs>
</svg>
