<svg width="154" height="154" viewBox="0 0 154 154" fill="none" xmlns="http://www.w3.org/2000/svg">
<g clip-path="url(#clip0_2268_2806)">
<path d="M77.0001 118.778C92.9778 118.808 105.969 106.041 106 90.2489C106 84.8228 104.461 79.5183 101.521 74.9282C101.613 74.7154 101.659 74.4874 101.659 74.2442V36.8999C101.659 35.8512 100.797 35 99.7352 35C98.6731 35 97.8111 35.8512 97.8111 36.8999V70.2469C86.7591 58.8931 68.4725 58.5587 56.9895 69.4717C56.5893 69.8517 56.189 70.2621 55.8042 70.6724V36.8999C55.8042 35.8512 54.9422 35 53.8801 35C52.818 35 51.956 35.8512 51.956 36.8999V75.2018C51.956 75.3538 52.0022 75.4906 52.0484 75.6274C43.9056 89.2002 48.4465 106.74 62.2076 114.78C66.6869 117.395 71.7973 118.778 77.0155 118.763L77.0001 118.778ZM77.0001 65.3071C90.8844 65.3071 102.152 76.4329 102.152 90.1426C102.152 103.852 90.8844 114.978 77.0001 114.978C63.1158 114.978 51.8483 103.852 51.8483 90.1426C51.8483 76.4329 63.1158 65.3223 77.0001 65.3071Z" fill="url(#paint0_linear_2268_2806)"/>
<path d="M67.272 52.555V36.8999C67.272 35.8512 66.41 35 65.3479 35C64.2858 35 63.4238 35.8512 63.4238 36.8999V52.555C63.4238 53.6038 64.2858 54.4549 65.3479 54.4549C66.41 54.4549 67.272 53.6038 67.272 52.555Z" fill="url(#paint1_linear_2268_2806)"/>
<path d="M90.2066 52.555V36.8999C90.2066 35.8512 89.3446 35 88.2825 35C87.2204 35 86.3584 35.8512 86.3584 36.8999V52.555C86.3584 53.6038 87.2204 54.4549 88.2825 54.4549C89.3446 54.4549 90.2066 53.6038 90.2066 52.555Z" fill="url(#paint2_linear_2268_2806)"/>
<path d="M78.7398 52.555V36.8999C78.7398 35.8512 77.8778 35 76.8157 35C75.7536 35 74.8916 35.8512 74.8916 36.8999V52.555C74.8916 53.6038 75.7536 54.4549 76.8157 54.4549C77.8778 54.4549 78.7398 53.6038 78.7398 52.555Z" fill="url(#paint3_linear_2268_2806)"/>
<path d="M62.916 98.1679C63.3008 98.8215 64.0397 99.1863 64.7939 99.1103L72.2286 98.3047L75.2456 105.068C75.6766 106.026 76.8157 106.467 77.7854 106.041C78.2318 105.843 78.5705 105.509 78.7706 105.068L81.7876 98.3047L89.2223 99.1103C90.2844 99.2167 91.2233 98.4719 91.3465 97.4232C91.3926 96.952 91.2695 96.4808 90.9924 96.1008L86.5747 90.1428L90.9924 84.1847C91.6235 83.3335 91.4388 82.148 90.5768 81.5248C90.192 81.2512 89.7148 81.1145 89.2377 81.1752L81.8029 81.9808L78.786 75.2172C78.355 74.2596 77.2159 73.8189 76.2462 74.2444C75.7998 74.442 75.4611 74.7764 75.261 75.2172L72.244 81.9808L64.8093 81.1752C63.7472 81.0689 62.8083 81.8136 62.6851 82.8624C62.6389 83.3335 62.7621 83.8047 63.0391 84.1847L67.4569 90.1428L63.0391 96.1008C62.5928 96.7088 62.5466 97.5144 62.9314 98.1679H62.916ZM71.382 89.018L68.7037 85.4158L73.1984 85.9022C74.0296 85.9934 74.83 85.5374 75.1687 84.7775L77.0004 80.6889L78.8321 84.7775C79.1708 85.5374 79.9712 85.9782 80.8024 85.9022L85.2971 85.4158L82.6188 89.018C82.1262 89.6868 82.1262 90.5987 82.6188 91.2675L85.2971 94.8697L80.8024 94.3833C79.9712 94.2921 79.1708 94.7481 78.8321 95.5081L77.0004 99.5966L75.1687 95.5081C74.8608 94.8241 74.1681 94.3681 73.4139 94.3681C73.3369 94.3681 73.2753 94.3681 73.1984 94.3681L68.7037 94.8545L71.382 91.2523C71.8746 90.5835 71.8746 89.6716 71.382 89.0028V89.018Z" fill="url(#paint4_linear_2268_2806)"/>
</g>
<circle cx="77" cy="77" r="75.5" stroke="url(#paint5_linear_2268_2806)" stroke-width="3"/>
<defs>
<linearGradient id="paint0_linear_2268_2806" x1="89.5985" y1="53.881" x2="49.3919" y2="89.7543" gradientUnits="userSpaceOnUse">
<stop stop-color="#F39200"/>
<stop offset="0.33" stop-color="#EA5B0B"/>
<stop offset="0.635" stop-color="#D60B51"/>
<stop offset="1" stop-color="#A11881"/>
</linearGradient>
<linearGradient id="paint1_linear_2268_2806" x1="66.1837" y1="39.3846" x2="61.6845" y2="40.5316" gradientUnits="userSpaceOnUse">
<stop stop-color="#F39200"/>
<stop offset="0.33" stop-color="#EA5B0B"/>
<stop offset="0.635" stop-color="#D60B51"/>
<stop offset="1" stop-color="#A11881"/>
</linearGradient>
<linearGradient id="paint2_linear_2268_2806" x1="89.1183" y1="39.3846" x2="84.6191" y2="40.5316" gradientUnits="userSpaceOnUse">
<stop stop-color="#F39200"/>
<stop offset="0.33" stop-color="#EA5B0B"/>
<stop offset="0.635" stop-color="#D60B51"/>
<stop offset="1" stop-color="#A11881"/>
</linearGradient>
<linearGradient id="paint3_linear_2268_2806" x1="77.6515" y1="39.3846" x2="73.1523" y2="40.5316" gradientUnits="userSpaceOnUse">
<stop stop-color="#F39200"/>
<stop offset="0.33" stop-color="#EA5B0B"/>
<stop offset="0.635" stop-color="#D60B51"/>
<stop offset="1" stop-color="#A11881"/>
</linearGradient>
<linearGradient id="paint4_linear_2268_2806" x1="83.2515" y1="81.3212" x2="67.8885" y2="99.0108" gradientUnits="userSpaceOnUse">
<stop stop-color="#F39200"/>
<stop offset="0.33" stop-color="#EA5B0B"/>
<stop offset="0.635" stop-color="#D60B51"/>
<stop offset="1" stop-color="#A11881"/>
</linearGradient>
<linearGradient id="paint5_linear_2268_2806" x1="110.447" y1="34.707" x2="38.3914" y2="127.578" gradientUnits="userSpaceOnUse">
<stop stop-color="#F39200"/>
<stop offset="0.33" stop-color="#EA5B0B"/>
<stop offset="0.635" stop-color="#D60B51"/>
<stop offset="1" stop-color="#A11881"/>
</linearGradient>
<clipPath id="clip0_2268_2806">
<rect width="58" height="83.7778" fill="white" transform="translate(48 35)"/>
</clipPath>
</defs>
</svg>
