<svg width="154" height="154" viewBox="0 0 154 154" fill="none" xmlns="http://www.w3.org/2000/svg">
<g clip-path="url(#clip0_2268_2788)">
<mask id="path-1-outside-1_2268_2788" maskUnits="userSpaceOnUse" x="27.1182" y="28.3262" width="99" height="98" fill="black">
<rect fill="white" x="27.1182" y="28.3262" width="99" height="98"/>
<path d="M92.8008 111.401L122.392 111.529L122.519 108.846C122.519 108.036 121.712 107.099 120.778 107.241L94.4007 106.972C93.5937 106.972 92.8008 107.781 92.8008 108.576V111.401ZM102.301 56.5043L93.1973 41.3286C91.8522 41.7261 90.9178 42.805 91.1868 44.2814C91.1868 44.8208 91.4558 45.3603 91.8522 46.0275L98.9456 57.9807C99.8942 57.1715 101.098 56.774 102.301 56.5043ZM117.705 104.828L122.392 88.4456C124.133 82.0006 123.737 80.7939 121.316 74.6186C118.767 67.5063 115.964 60.394 112.608 53.5373L97.8837 33.2794C95.4768 30.0568 90.5213 32.3424 93.0699 36.6297L105.246 56.7598C107.257 57.427 108.856 59.1732 109.394 62.2679C110.201 67.3643 110.994 72.475 111.801 77.5714C113.543 80.1267 115.015 82.8098 115.95 85.8903C116.346 87.3667 114.081 88.034 113.67 86.5576C113.401 85.6206 111.66 81.3192 109.791 78.7781C109.663 78.6503 109.522 78.5083 109.522 78.2386C108.715 73.0002 107.922 67.9038 107.115 62.6654C106.181 56.8876 99.3562 58.364 99.2146 62.2679L98.9456 81.3334C98.9456 82.8098 98.4076 84.0164 97.8695 85.4928C96.5245 88.5734 94.6556 92.8748 97.4731 104.686L117.705 104.828ZM61.1993 111.401V108.576C61.1993 107.767 60.3923 106.972 59.5994 106.972L33.2224 107.241C32.2879 107.114 31.4809 108.051 31.4809 108.846L31.6083 111.529L61.1993 111.401ZM51.6991 56.5043C52.9025 56.774 54.106 57.1715 55.0404 57.9807L62.1338 46.0275C62.5302 45.3603 62.7992 44.8208 62.7992 44.2814C63.0682 42.805 62.1338 41.7261 60.9303 41.3286L51.6991 56.5043ZM36.2947 104.828L56.5129 104.7C59.3304 92.889 57.4474 88.5876 56.1165 85.507C55.5785 84.0306 55.0404 82.824 55.0404 81.3476L54.7714 62.2679C54.644 58.3782 47.8055 56.9018 46.871 62.6654C46.064 67.9038 45.2712 73.0002 44.4641 78.2386C44.4641 78.5083 44.3367 78.6361 44.1951 78.7781C42.3262 81.3334 40.5847 85.6206 40.3157 86.5576C39.9193 88.0481 37.6398 87.3809 38.0362 85.9045C38.9707 82.824 40.4431 80.1267 42.1846 77.5856C42.9917 72.4892 43.7845 67.3785 44.5916 62.2821C45.1296 59.2015 46.871 57.4554 48.74 56.774L60.9162 36.6439C63.4647 32.3424 58.5092 30.071 56.1023 33.2936L41.3776 53.5657C38.0362 60.394 35.3603 67.5063 32.6844 74.6186C30.2774 80.7939 29.8668 82.0006 31.6083 88.4456L36.2947 104.828ZM31.6083 113.814C31.6083 115.688 32.6844 116.497 34.4258 117.037L57.7164 123.084C59.7269 123.624 61.0578 122.147 61.0578 120.259L61.1852 113.686L31.6083 113.814ZM56.7819 60.6638C58.127 58.5201 59.9959 56.774 62.8134 55.6951L64.1584 53.5515C64.6965 52.4726 65.0929 51.4079 64.5549 50.329C64.2859 49.6617 63.7478 49.25 63.0824 48.9803L56.5271 59.9823C56.6545 60.2663 56.7819 60.394 56.7819 60.6638ZM91.1868 55.6951C94.0043 56.774 95.8732 58.5201 97.2183 60.6638C97.2183 60.394 97.3457 60.2663 97.4873 59.9965L90.9319 48.9945C90.2665 49.2642 89.7285 49.6617 89.4595 50.3431C88.9214 51.4221 89.332 52.4868 89.8559 53.5657L91.1868 55.6951ZM66.0273 54.8859C69.7793 54.4884 73.9277 55.8229 77.0001 59.4429C80.0725 55.8229 84.235 54.4742 87.9728 54.8859L87.8454 54.7582C86.911 53.012 86.5004 50.9962 87.449 49.25C87.8454 48.1711 88.6524 47.5039 89.5869 46.9645C89.1905 46.1553 88.9214 45.3603 88.7799 44.5511C88.5108 42.2655 89.8559 40.1219 91.8522 39.185L91.0594 37.8363C86.9109 30.9938 95.7458 26.1671 99.7668 31.803L114.491 52.2028C114.576 52.288 114.619 52.3779 114.619 52.4726C118.102 59.3151 120.778 66.5694 123.595 73.8094C126.144 80.5242 126.668 81.8586 124.671 88.9851L120.112 104.828C122.661 104.828 124.799 106.035 124.799 108.86L124.671 114.765C124.544 117.179 122.392 118.655 120.112 119.322L96.8218 125.37C93.3389 126.307 90.6629 123.766 90.5355 120.273L90.4081 108.732C90.6771 105.779 92.4186 104.7 95.0945 104.7C92.277 92.6193 94.2875 87.9204 95.7599 84.5701C96.1564 83.4912 96.6944 82.2845 96.6944 81.2198V75.7117C96.4254 76.2511 96.1564 76.7906 95.7599 77.3158C91.6115 83.7609 84.1076 89.1271 77.6797 93.1588C77.2833 93.4285 76.7452 93.5563 76.3346 93.2865C70.0483 89.1271 62.417 83.7609 58.2544 77.3158C57.858 76.7764 57.5889 76.2369 57.3199 75.7117V81.2198C57.3199 82.2987 57.858 83.5054 58.2544 84.5701C59.7269 87.9204 61.7374 92.6193 58.9198 104.7C61.5958 104.7 63.3372 105.779 63.6063 108.732L63.4788 120.273C63.3514 123.766 60.6613 126.321 57.1925 125.37L33.8878 119.322C31.6083 118.655 29.4704 117.179 29.3288 114.765L29.2014 108.86C29.2014 106.035 31.3393 104.828 33.8878 104.828L29.343 88.9851C27.3325 81.8728 27.8705 80.5242 30.419 73.8094C33.2365 66.5552 35.9125 59.3151 39.3954 52.4726C39.3954 52.3874 39.4379 52.2975 39.5229 52.2028L54.2476 31.803C58.396 26.1671 67.0892 30.9938 62.9408 37.8363L62.1338 39.185C64.1443 40.1219 65.4752 42.2655 65.2062 44.5511C65.0787 45.3603 64.8097 46.1553 64.3991 46.9645C65.3336 47.5039 66.1406 48.1711 66.6786 49.25C67.4857 50.9962 67.0751 53.012 66.1406 54.7582L66.0273 54.8859ZM91.8664 72.0775C91.2009 73.4261 89.0489 72.475 89.7285 70.9986C91.2009 68.0458 91.0735 63.3468 86.7835 63.2191C85.3111 63.2191 85.3111 60.9335 86.911 60.9335C92.9283 60.9335 94.1317 67.3785 91.8664 72.0775ZM86.911 78.5225C85.8349 79.6014 84.235 77.9831 85.3111 76.9184C85.9765 76.2511 86.6561 75.442 87.3215 74.7747C88.256 73.5681 89.9975 75.0445 89.063 76.2511C88.3834 77.0461 87.7038 77.8411 86.911 78.5225ZM75.7966 103.21C75.5276 103.607 75.2586 104.019 75.2586 104.416V113.005C75.2586 113.402 75.5276 113.942 75.7966 114.212C76.8727 115.291 78.7416 114.481 78.7416 113.005V104.416C78.7416 102.954 76.8727 102.145 75.7966 103.21ZM79.945 101.605C80.6105 102.273 81.1485 103.352 81.1485 104.431V113.019C81.1485 114.098 80.6105 115.163 79.945 115.844C78.3451 117.448 75.655 117.448 74.1826 115.844C73.3755 115.177 72.9791 114.098 72.9791 113.019V104.431C72.9791 103.352 73.3755 102.287 74.1826 101.605C75.655 100.001 78.3451 100.001 79.945 101.605ZM84.9005 94.7629C83.966 94.7629 83.159 95.4302 83.159 96.5091C83.159 96.9066 83.2864 97.3182 83.5554 97.588L87.4348 101.747C87.8312 102.017 88.2418 102.287 88.6383 102.287C89.5727 102.287 90.3798 101.478 90.3798 100.541C90.3798 100.143 90.2523 99.7316 89.9833 99.3341L86.1039 95.3024C85.7075 94.8907 85.2969 94.7629 84.9005 94.7629ZM84.9005 92.3496C85.9765 92.3496 87.0384 92.889 87.8454 93.6982L91.5974 97.7299C92.4044 98.5391 92.8008 99.6038 92.8008 100.683C92.6734 102.968 90.7903 104.714 88.6524 104.572C87.5764 104.572 86.5145 104.175 85.8349 103.366L81.8139 99.3341C81.1485 98.3972 80.7379 97.4602 80.7379 96.3813C80.8795 94.0815 82.621 92.3496 84.9005 92.3496ZM69.0997 94.7629C70.0342 94.7629 70.8412 95.4302 70.8412 96.5091C70.8412 96.9066 70.7138 97.3182 70.4448 97.588L66.5654 101.747C66.1689 102.017 65.7583 102.287 65.3619 102.287C64.4274 102.287 63.6204 101.478 63.6204 100.541C63.6204 100.143 63.7478 99.7316 64.0169 99.3341L67.8962 95.3024C68.2927 94.8907 68.7033 94.7629 69.0997 94.7629ZM69.0997 92.3496C68.0237 92.3496 66.9618 92.889 66.1548 93.6982L62.4028 97.7299C61.5958 98.5391 61.1993 99.6038 61.1993 100.683C61.3268 102.968 63.2098 104.714 65.3477 104.572C66.4238 104.572 67.4857 104.175 68.1653 103.366L72.1862 99.3341C72.8517 98.3972 73.2623 97.4602 73.2623 96.3813C73.1207 94.0815 71.3792 92.3496 69.0997 92.3496ZM76.0656 62.0124C73.2481 57.9807 69.2413 56.774 65.7583 57.3135C65.0929 57.4412 64.5549 57.5832 64.0169 57.8529C63.4788 58.1226 62.9408 58.3924 62.417 58.3924C56.3855 61.6149 56.1306 69.8061 60.1375 75.9814C64.0169 81.887 71.1102 86.9834 77.0001 90.8874C82.89 86.9976 89.9833 81.887 93.8627 75.9814C97.8837 69.9338 97.7421 61.6149 91.5832 58.5343C91.1868 58.4066 90.5072 58.1368 89.9833 57.8671C89.4453 57.5974 88.9073 57.4696 88.2418 57.3277C84.7589 56.7882 80.7379 57.9949 77.9345 62.0266C77.5381 62.6796 76.4621 62.6796 76.0656 62.0266V62.0124ZM122.392 113.814L92.8008 113.686L92.9283 120.259C92.9283 122.133 94.2733 123.61 96.2696 123.084L119.56 117.037C121.316 116.511 122.392 115.702 122.392 113.814Z"/>
</mask>
<path d="M92.8008 111.401L122.392 111.529L122.519 108.846C122.519 108.036 121.712 107.099 120.778 107.241L94.4007 106.972C93.5937 106.972 92.8008 107.781 92.8008 108.576V111.401ZM102.301 56.5043L93.1973 41.3286C91.8522 41.7261 90.9178 42.805 91.1868 44.2814C91.1868 44.8208 91.4558 45.3603 91.8522 46.0275L98.9456 57.9807C99.8942 57.1715 101.098 56.774 102.301 56.5043ZM117.705 104.828L122.392 88.4456C124.133 82.0006 123.737 80.7939 121.316 74.6186C118.767 67.5063 115.964 60.394 112.608 53.5373L97.8837 33.2794C95.4768 30.0568 90.5213 32.3424 93.0699 36.6297L105.246 56.7598C107.257 57.427 108.856 59.1732 109.394 62.2679C110.201 67.3643 110.994 72.475 111.801 77.5714C113.543 80.1267 115.015 82.8098 115.95 85.8903C116.346 87.3667 114.081 88.034 113.67 86.5576C113.401 85.6206 111.66 81.3192 109.791 78.7781C109.663 78.6503 109.522 78.5083 109.522 78.2386C108.715 73.0002 107.922 67.9038 107.115 62.6654C106.181 56.8876 99.3562 58.364 99.2146 62.2679L98.9456 81.3334C98.9456 82.8098 98.4076 84.0164 97.8695 85.4928C96.5245 88.5734 94.6556 92.8748 97.4731 104.686L117.705 104.828ZM61.1993 111.401V108.576C61.1993 107.767 60.3923 106.972 59.5994 106.972L33.2224 107.241C32.2879 107.114 31.4809 108.051 31.4809 108.846L31.6083 111.529L61.1993 111.401ZM51.6991 56.5043C52.9025 56.774 54.106 57.1715 55.0404 57.9807L62.1338 46.0275C62.5302 45.3603 62.7992 44.8208 62.7992 44.2814C63.0682 42.805 62.1338 41.7261 60.9303 41.3286L51.6991 56.5043ZM36.2947 104.828L56.5129 104.7C59.3304 92.889 57.4474 88.5876 56.1165 85.507C55.5785 84.0306 55.0404 82.824 55.0404 81.3476L54.7714 62.2679C54.644 58.3782 47.8055 56.9018 46.871 62.6654C46.064 67.9038 45.2712 73.0002 44.4641 78.2386C44.4641 78.5083 44.3367 78.6361 44.1951 78.7781C42.3262 81.3334 40.5847 85.6206 40.3157 86.5576C39.9193 88.0481 37.6398 87.3809 38.0362 85.9045C38.9707 82.824 40.4431 80.1267 42.1846 77.5856C42.9917 72.4892 43.7845 67.3785 44.5916 62.2821C45.1296 59.2015 46.871 57.4554 48.74 56.774L60.9162 36.6439C63.4647 32.3424 58.5092 30.071 56.1023 33.2936L41.3776 53.5657C38.0362 60.394 35.3603 67.5063 32.6844 74.6186C30.2774 80.7939 29.8668 82.0006 31.6083 88.4456L36.2947 104.828ZM31.6083 113.814C31.6083 115.688 32.6844 116.497 34.4258 117.037L57.7164 123.084C59.7269 123.624 61.0578 122.147 61.0578 120.259L61.1852 113.686L31.6083 113.814ZM56.7819 60.6638C58.127 58.5201 59.9959 56.774 62.8134 55.6951L64.1584 53.5515C64.6965 52.4726 65.0929 51.4079 64.5549 50.329C64.2859 49.6617 63.7478 49.25 63.0824 48.9803L56.5271 59.9823C56.6545 60.2663 56.7819 60.394 56.7819 60.6638ZM91.1868 55.6951C94.0043 56.774 95.8732 58.5201 97.2183 60.6638C97.2183 60.394 97.3457 60.2663 97.4873 59.9965L90.9319 48.9945C90.2665 49.2642 89.7285 49.6617 89.4595 50.3431C88.9214 51.4221 89.332 52.4868 89.8559 53.5657L91.1868 55.6951ZM66.0273 54.8859C69.7793 54.4884 73.9277 55.8229 77.0001 59.4429C80.0725 55.8229 84.235 54.4742 87.9728 54.8859L87.8454 54.7582C86.911 53.012 86.5004 50.9962 87.449 49.25C87.8454 48.1711 88.6524 47.5039 89.5869 46.9645C89.1905 46.1553 88.9214 45.3603 88.7799 44.5511C88.5108 42.2655 89.8559 40.1219 91.8522 39.185L91.0594 37.8363C86.9109 30.9938 95.7458 26.1671 99.7668 31.803L114.491 52.2028C114.576 52.288 114.619 52.3779 114.619 52.4726C118.102 59.3151 120.778 66.5694 123.595 73.8094C126.144 80.5242 126.668 81.8586 124.671 88.9851L120.112 104.828C122.661 104.828 124.799 106.035 124.799 108.86L124.671 114.765C124.544 117.179 122.392 118.655 120.112 119.322L96.8218 125.37C93.3389 126.307 90.6629 123.766 90.5355 120.273L90.4081 108.732C90.6771 105.779 92.4186 104.7 95.0945 104.7C92.277 92.6193 94.2875 87.9204 95.7599 84.5701C96.1564 83.4912 96.6944 82.2845 96.6944 81.2198V75.7117C96.4254 76.2511 96.1564 76.7906 95.7599 77.3158C91.6115 83.7609 84.1076 89.1271 77.6797 93.1588C77.2833 93.4285 76.7452 93.5563 76.3346 93.2865C70.0483 89.1271 62.417 83.7609 58.2544 77.3158C57.858 76.7764 57.5889 76.2369 57.3199 75.7117V81.2198C57.3199 82.2987 57.858 83.5054 58.2544 84.5701C59.7269 87.9204 61.7374 92.6193 58.9198 104.7C61.5958 104.7 63.3372 105.779 63.6063 108.732L63.4788 120.273C63.3514 123.766 60.6613 126.321 57.1925 125.37L33.8878 119.322C31.6083 118.655 29.4704 117.179 29.3288 114.765L29.2014 108.86C29.2014 106.035 31.3393 104.828 33.8878 104.828L29.343 88.9851C27.3325 81.8728 27.8705 80.5242 30.419 73.8094C33.2365 66.5552 35.9125 59.3151 39.3954 52.4726C39.3954 52.3874 39.4379 52.2975 39.5229 52.2028L54.2476 31.803C58.396 26.1671 67.0892 30.9938 62.9408 37.8363L62.1338 39.185C64.1443 40.1219 65.4752 42.2655 65.2062 44.5511C65.0787 45.3603 64.8097 46.1553 64.3991 46.9645C65.3336 47.5039 66.1406 48.1711 66.6786 49.25C67.4857 50.9962 67.0751 53.012 66.1406 54.7582L66.0273 54.8859ZM91.8664 72.0775C91.2009 73.4261 89.0489 72.475 89.7285 70.9986C91.2009 68.0458 91.0735 63.3468 86.7835 63.2191C85.3111 63.2191 85.3111 60.9335 86.911 60.9335C92.9283 60.9335 94.1317 67.3785 91.8664 72.0775ZM86.911 78.5225C85.8349 79.6014 84.235 77.9831 85.3111 76.9184C85.9765 76.2511 86.6561 75.442 87.3215 74.7747C88.256 73.5681 89.9975 75.0445 89.063 76.2511C88.3834 77.0461 87.7038 77.8411 86.911 78.5225ZM75.7966 103.21C75.5276 103.607 75.2586 104.019 75.2586 104.416V113.005C75.2586 113.402 75.5276 113.942 75.7966 114.212C76.8727 115.291 78.7416 114.481 78.7416 113.005V104.416C78.7416 102.954 76.8727 102.145 75.7966 103.21ZM79.945 101.605C80.6105 102.273 81.1485 103.352 81.1485 104.431V113.019C81.1485 114.098 80.6105 115.163 79.945 115.844C78.3451 117.448 75.655 117.448 74.1826 115.844C73.3755 115.177 72.9791 114.098 72.9791 113.019V104.431C72.9791 103.352 73.3755 102.287 74.1826 101.605C75.655 100.001 78.3451 100.001 79.945 101.605ZM84.9005 94.7629C83.966 94.7629 83.159 95.4302 83.159 96.5091C83.159 96.9066 83.2864 97.3182 83.5554 97.588L87.4348 101.747C87.8312 102.017 88.2418 102.287 88.6383 102.287C89.5727 102.287 90.3798 101.478 90.3798 100.541C90.3798 100.143 90.2523 99.7316 89.9833 99.3341L86.1039 95.3024C85.7075 94.8907 85.2969 94.7629 84.9005 94.7629ZM84.9005 92.3496C85.9765 92.3496 87.0384 92.889 87.8454 93.6982L91.5974 97.7299C92.4044 98.5391 92.8008 99.6038 92.8008 100.683C92.6734 102.968 90.7903 104.714 88.6524 104.572C87.5764 104.572 86.5145 104.175 85.8349 103.366L81.8139 99.3341C81.1485 98.3972 80.7379 97.4602 80.7379 96.3813C80.8795 94.0815 82.621 92.3496 84.9005 92.3496ZM69.0997 94.7629C70.0342 94.7629 70.8412 95.4302 70.8412 96.5091C70.8412 96.9066 70.7138 97.3182 70.4448 97.588L66.5654 101.747C66.1689 102.017 65.7583 102.287 65.3619 102.287C64.4274 102.287 63.6204 101.478 63.6204 100.541C63.6204 100.143 63.7478 99.7316 64.0169 99.3341L67.8962 95.3024C68.2927 94.8907 68.7033 94.7629 69.0997 94.7629ZM69.0997 92.3496C68.0237 92.3496 66.9618 92.889 66.1548 93.6982L62.4028 97.7299C61.5958 98.5391 61.1993 99.6038 61.1993 100.683C61.3268 102.968 63.2098 104.714 65.3477 104.572C66.4238 104.572 67.4857 104.175 68.1653 103.366L72.1862 99.3341C72.8517 98.3972 73.2623 97.4602 73.2623 96.3813C73.1207 94.0815 71.3792 92.3496 69.0997 92.3496ZM76.0656 62.0124C73.2481 57.9807 69.2413 56.774 65.7583 57.3135C65.0929 57.4412 64.5549 57.5832 64.0169 57.8529C63.4788 58.1226 62.9408 58.3924 62.417 58.3924C56.3855 61.6149 56.1306 69.8061 60.1375 75.9814C64.0169 81.887 71.1102 86.9834 77.0001 90.8874C82.89 86.9976 89.9833 81.887 93.8627 75.9814C97.8837 69.9338 97.7421 61.6149 91.5832 58.5343C91.1868 58.4066 90.5072 58.1368 89.9833 57.8671C89.4453 57.5974 88.9073 57.4696 88.2418 57.3277C84.7589 56.7882 80.7379 57.9949 77.9345 62.0266C77.5381 62.6796 76.4621 62.6796 76.0656 62.0266V62.0124ZM122.392 113.814L92.8008 113.686L92.9283 120.259C92.9283 122.133 94.2733 123.61 96.2696 123.084L119.56 117.037C121.316 116.511 122.392 115.702 122.392 113.814Z" fill="url(#paint0_linear_2268_2788)"/>
<path d="M92.8008 111.401L122.392 111.529L122.519 108.846C122.519 108.036 121.712 107.099 120.778 107.241L94.4007 106.972C93.5937 106.972 92.8008 107.781 92.8008 108.576V111.401ZM102.301 56.5043L93.1973 41.3286C91.8522 41.7261 90.9178 42.805 91.1868 44.2814C91.1868 44.8208 91.4558 45.3603 91.8522 46.0275L98.9456 57.9807C99.8942 57.1715 101.098 56.774 102.301 56.5043ZM117.705 104.828L122.392 88.4456C124.133 82.0006 123.737 80.7939 121.316 74.6186C118.767 67.5063 115.964 60.394 112.608 53.5373L97.8837 33.2794C95.4768 30.0568 90.5213 32.3424 93.0699 36.6297L105.246 56.7598C107.257 57.427 108.856 59.1732 109.394 62.2679C110.201 67.3643 110.994 72.475 111.801 77.5714C113.543 80.1267 115.015 82.8098 115.95 85.8903C116.346 87.3667 114.081 88.034 113.67 86.5576C113.401 85.6206 111.66 81.3192 109.791 78.7781C109.663 78.6503 109.522 78.5083 109.522 78.2386C108.715 73.0002 107.922 67.9038 107.115 62.6654C106.181 56.8876 99.3562 58.364 99.2146 62.2679L98.9456 81.3334C98.9456 82.8098 98.4076 84.0164 97.8695 85.4928C96.5245 88.5734 94.6556 92.8748 97.4731 104.686L117.705 104.828ZM61.1993 111.401V108.576C61.1993 107.767 60.3923 106.972 59.5994 106.972L33.2224 107.241C32.2879 107.114 31.4809 108.051 31.4809 108.846L31.6083 111.529L61.1993 111.401ZM51.6991 56.5043C52.9025 56.774 54.106 57.1715 55.0404 57.9807L62.1338 46.0275C62.5302 45.3603 62.7992 44.8208 62.7992 44.2814C63.0682 42.805 62.1338 41.7261 60.9303 41.3286L51.6991 56.5043ZM36.2947 104.828L56.5129 104.7C59.3304 92.889 57.4474 88.5876 56.1165 85.507C55.5785 84.0306 55.0404 82.824 55.0404 81.3476L54.7714 62.2679C54.644 58.3782 47.8055 56.9018 46.871 62.6654C46.064 67.9038 45.2712 73.0002 44.4641 78.2386C44.4641 78.5083 44.3367 78.6361 44.1951 78.7781C42.3262 81.3334 40.5847 85.6206 40.3157 86.5576C39.9193 88.0481 37.6398 87.3809 38.0362 85.9045C38.9707 82.824 40.4431 80.1267 42.1846 77.5856C42.9917 72.4892 43.7845 67.3785 44.5916 62.2821C45.1296 59.2015 46.871 57.4554 48.74 56.774L60.9162 36.6439C63.4647 32.3424 58.5092 30.071 56.1023 33.2936L41.3776 53.5657C38.0362 60.394 35.3603 67.5063 32.6844 74.6186C30.2774 80.7939 29.8668 82.0006 31.6083 88.4456L36.2947 104.828ZM31.6083 113.814C31.6083 115.688 32.6844 116.497 34.4258 117.037L57.7164 123.084C59.7269 123.624 61.0578 122.147 61.0578 120.259L61.1852 113.686L31.6083 113.814ZM56.7819 60.6638C58.127 58.5201 59.9959 56.774 62.8134 55.6951L64.1584 53.5515C64.6965 52.4726 65.0929 51.4079 64.5549 50.329C64.2859 49.6617 63.7478 49.25 63.0824 48.9803L56.5271 59.9823C56.6545 60.2663 56.7819 60.394 56.7819 60.6638ZM91.1868 55.6951C94.0043 56.774 95.8732 58.5201 97.2183 60.6638C97.2183 60.394 97.3457 60.2663 97.4873 59.9965L90.9319 48.9945C90.2665 49.2642 89.7285 49.6617 89.4595 50.3431C88.9214 51.4221 89.332 52.4868 89.8559 53.5657L91.1868 55.6951ZM66.0273 54.8859C69.7793 54.4884 73.9277 55.8229 77.0001 59.4429C80.0725 55.8229 84.235 54.4742 87.9728 54.8859L87.8454 54.7582C86.911 53.012 86.5004 50.9962 87.449 49.25C87.8454 48.1711 88.6524 47.5039 89.5869 46.9645C89.1905 46.1553 88.9214 45.3603 88.7799 44.5511C88.5108 42.2655 89.8559 40.1219 91.8522 39.185L91.0594 37.8363C86.9109 30.9938 95.7458 26.1671 99.7668 31.803L114.491 52.2028C114.576 52.288 114.619 52.3779 114.619 52.4726C118.102 59.3151 120.778 66.5694 123.595 73.8094C126.144 80.5242 126.668 81.8586 124.671 88.9851L120.112 104.828C122.661 104.828 124.799 106.035 124.799 108.86L124.671 114.765C124.544 117.179 122.392 118.655 120.112 119.322L96.8218 125.37C93.3389 126.307 90.6629 123.766 90.5355 120.273L90.4081 108.732C90.6771 105.779 92.4186 104.7 95.0945 104.7C92.277 92.6193 94.2875 87.9204 95.7599 84.5701C96.1564 83.4912 96.6944 82.2845 96.6944 81.2198V75.7117C96.4254 76.2511 96.1564 76.7906 95.7599 77.3158C91.6115 83.7609 84.1076 89.1271 77.6797 93.1588C77.2833 93.4285 76.7452 93.5563 76.3346 93.2865C70.0483 89.1271 62.417 83.7609 58.2544 77.3158C57.858 76.7764 57.5889 76.2369 57.3199 75.7117V81.2198C57.3199 82.2987 57.858 83.5054 58.2544 84.5701C59.7269 87.9204 61.7374 92.6193 58.9198 104.7C61.5958 104.7 63.3372 105.779 63.6063 108.732L63.4788 120.273C63.3514 123.766 60.6613 126.321 57.1925 125.37L33.8878 119.322C31.6083 118.655 29.4704 117.179 29.3288 114.765L29.2014 108.86C29.2014 106.035 31.3393 104.828 33.8878 104.828L29.343 88.9851C27.3325 81.8728 27.8705 80.5242 30.419 73.8094C33.2365 66.5552 35.9125 59.3151 39.3954 52.4726C39.3954 52.3874 39.4379 52.2975 39.5229 52.2028L54.2476 31.803C58.396 26.1671 67.0892 30.9938 62.9408 37.8363L62.1338 39.185C64.1443 40.1219 65.4752 42.2655 65.2062 44.5511C65.0787 45.3603 64.8097 46.1553 64.3991 46.9645C65.3336 47.5039 66.1406 48.1711 66.6786 49.25C67.4857 50.9962 67.0751 53.012 66.1406 54.7582L66.0273 54.8859ZM91.8664 72.0775C91.2009 73.4261 89.0489 72.475 89.7285 70.9986C91.2009 68.0458 91.0735 63.3468 86.7835 63.2191C85.3111 63.2191 85.3111 60.9335 86.911 60.9335C92.9283 60.9335 94.1317 67.3785 91.8664 72.0775ZM86.911 78.5225C85.8349 79.6014 84.235 77.9831 85.3111 76.9184C85.9765 76.2511 86.6561 75.442 87.3215 74.7747C88.256 73.5681 89.9975 75.0445 89.063 76.2511C88.3834 77.0461 87.7038 77.8411 86.911 78.5225ZM75.7966 103.21C75.5276 103.607 75.2586 104.019 75.2586 104.416V113.005C75.2586 113.402 75.5276 113.942 75.7966 114.212C76.8727 115.291 78.7416 114.481 78.7416 113.005V104.416C78.7416 102.954 76.8727 102.145 75.7966 103.21ZM79.945 101.605C80.6105 102.273 81.1485 103.352 81.1485 104.431V113.019C81.1485 114.098 80.6105 115.163 79.945 115.844C78.3451 117.448 75.655 117.448 74.1826 115.844C73.3755 115.177 72.9791 114.098 72.9791 113.019V104.431C72.9791 103.352 73.3755 102.287 74.1826 101.605C75.655 100.001 78.3451 100.001 79.945 101.605ZM84.9005 94.7629C83.966 94.7629 83.159 95.4302 83.159 96.5091C83.159 96.9066 83.2864 97.3182 83.5554 97.588L87.4348 101.747C87.8312 102.017 88.2418 102.287 88.6383 102.287C89.5727 102.287 90.3798 101.478 90.3798 100.541C90.3798 100.143 90.2523 99.7316 89.9833 99.3341L86.1039 95.3024C85.7075 94.8907 85.2969 94.7629 84.9005 94.7629ZM84.9005 92.3496C85.9765 92.3496 87.0384 92.889 87.8454 93.6982L91.5974 97.7299C92.4044 98.5391 92.8008 99.6038 92.8008 100.683C92.6734 102.968 90.7903 104.714 88.6524 104.572C87.5764 104.572 86.5145 104.175 85.8349 103.366L81.8139 99.3341C81.1485 98.3972 80.7379 97.4602 80.7379 96.3813C80.8795 94.0815 82.621 92.3496 84.9005 92.3496ZM69.0997 94.7629C70.0342 94.7629 70.8412 95.4302 70.8412 96.5091C70.8412 96.9066 70.7138 97.3182 70.4448 97.588L66.5654 101.747C66.1689 102.017 65.7583 102.287 65.3619 102.287C64.4274 102.287 63.6204 101.478 63.6204 100.541C63.6204 100.143 63.7478 99.7316 64.0169 99.3341L67.8962 95.3024C68.2927 94.8907 68.7033 94.7629 69.0997 94.7629ZM69.0997 92.3496C68.0237 92.3496 66.9618 92.889 66.1548 93.6982L62.4028 97.7299C61.5958 98.5391 61.1993 99.6038 61.1993 100.683C61.3268 102.968 63.2098 104.714 65.3477 104.572C66.4238 104.572 67.4857 104.175 68.1653 103.366L72.1862 99.3341C72.8517 98.3972 73.2623 97.4602 73.2623 96.3813C73.1207 94.0815 71.3792 92.3496 69.0997 92.3496ZM76.0656 62.0124C73.2481 57.9807 69.2413 56.774 65.7583 57.3135C65.0929 57.4412 64.5549 57.5832 64.0169 57.8529C63.4788 58.1226 62.9408 58.3924 62.417 58.3924C56.3855 61.6149 56.1306 69.8061 60.1375 75.9814C64.0169 81.887 71.1102 86.9834 77.0001 90.8874C82.89 86.9976 89.9833 81.887 93.8627 75.9814C97.8837 69.9338 97.7421 61.6149 91.5832 58.5343C91.1868 58.4066 90.5072 58.1368 89.9833 57.8671C89.4453 57.5974 88.9073 57.4696 88.2418 57.3277C84.7589 56.7882 80.7379 57.9949 77.9345 62.0266C77.5381 62.6796 76.4621 62.6796 76.0656 62.0266V62.0124ZM122.392 113.814L92.8008 113.686L92.9283 120.259C92.9283 122.133 94.2733 123.61 96.2696 123.084L119.56 117.037C121.316 116.511 122.392 115.702 122.392 113.814Z" stroke="url(#paint1_linear_2268_2788)" stroke-width="0.4" mask="url(#path-1-outside-1_2268_2788)"/>
</g>
<circle cx="77" cy="77" r="75.5" stroke="url(#paint2_linear_2268_2788)" stroke-width="3"/>
<defs>
<linearGradient id="paint0_linear_2268_2788" x1="98.2394" y1="51.0167" x2="53.3882" y2="109.742" gradientUnits="userSpaceOnUse">
<stop stop-color="#F39200"/>
<stop offset="0.33" stop-color="#EA5B0B"/>
<stop offset="0.635" stop-color="#D60B51"/>
<stop offset="1" stop-color="#A11881"/>
</linearGradient>
<linearGradient id="paint1_linear_2268_2788" x1="98.2394" y1="51.0167" x2="53.3882" y2="109.742" gradientUnits="userSpaceOnUse">
<stop stop-color="#F39200"/>
<stop offset="0.33" stop-color="#EA5B0B"/>
<stop offset="0.635" stop-color="#D60B51"/>
<stop offset="1" stop-color="#A11881"/>
</linearGradient>
<linearGradient id="paint2_linear_2268_2788" x1="110.447" y1="34.707" x2="38.3914" y2="127.578" gradientUnits="userSpaceOnUse">
<stop stop-color="#F39200"/>
<stop offset="0.33" stop-color="#EA5B0B"/>
<stop offset="0.635" stop-color="#D60B51"/>
<stop offset="1" stop-color="#A11881"/>
</linearGradient>
<clipPath id="clip0_2268_2788">
<rect width="97.7778" height="96.25" fill="white" transform="translate(28.1113 29.333)"/>
</clipPath>
</defs>
</svg>
