<svg width="154" height="154" viewBox="0 0 154 154" fill="none" xmlns="http://www.w3.org/2000/svg">
<mask id="path-1-outside-1_2268_2852" maskUnits="userSpaceOnUse" x="40" y="27" width="74" height="100" fill="black">
<rect fill="white" x="40" y="27" width="74" height="100"/>
<path d="M112.998 86.0704C112.998 84.6472 112.375 83.3754 111.4 82.5202C112.375 81.6649 112.998 80.3932 112.998 78.9722C112.998 76.402 110.968 74.3106 108.473 74.3106H104.597V67.9965C107.941 66.2681 109.894 61.5063 110.404 53.8269C110.776 48.2321 110.246 43.0672 110.175 42.4079V36.1917C110.175 33.3476 107.928 31.0335 105.168 31.0335C104.059 31.0335 103.034 31.4076 102.204 32.038C101.707 29.7306 99.7051 28 97.3185 28C95.7296 28 94.3115 28.7684 93.3949 29.9622C92.4783 28.7684 91.0602 28 89.4691 28C87.878 28 86.4621 28.7684 85.5433 29.9622C84.6267 28.7684 83.2086 28 81.6175 28C78.857 28 76.613 30.3141 76.613 33.1582V35.4501C74.996 35.6149 71.9696 36.2741 69.7862 38.8354C67.5595 41.448 66.8375 45.2766 67.6395 50.1965C67.7001 50.6063 69.25 60.1945 80.7442 69.0009V74.3106H79.3931C79.3801 74.3106 79.3693 74.3106 79.3563 74.3106C75.677 74.4398 74.8425 76.9788 74.2329 78.8319C73.6644 80.5602 73.3509 81.3242 71.8442 81.3242H56.8674C48.1187 81.3242 41 88.6584 41 97.672V118.937C41 119.552 41.4842 120.051 42.0809 120.051H55.6352C56.2319 120.051 56.7161 119.552 56.7161 118.937V100.469C56.7161 98.9838 57.8899 97.7744 59.3318 97.7744H80.7442V124.886C80.7442 125.501 81.2284 126 81.8251 126C82.4217 126 82.906 125.501 82.906 124.886V96.6653C82.906 96.6653 82.906 96.663 82.906 96.6608C82.906 96.6586 82.906 96.6586 82.906 96.6563V75.4265C82.906 75.4265 82.906 75.4242 82.906 75.422C82.906 75.4198 82.906 75.4198 82.906 75.4176V68.4352C82.906 68.0789 82.7395 67.7425 82.4606 67.5332C71.3405 59.2212 69.7905 49.9448 69.7754 49.8401C69.0858 45.6084 69.6327 42.4057 71.3988 40.3188C73.0007 38.4279 75.2944 37.8621 76.613 37.6951V50.564C76.613 51.1787 77.0973 51.6776 77.6939 51.6776C78.2906 51.6776 78.7748 51.1787 78.7748 50.564V33.1582C78.7748 31.5435 80.0503 30.2272 81.6175 30.2272C83.1848 30.2272 84.4624 31.5413 84.4624 33.1582V42.4703C84.4624 43.085 84.9467 43.5839 85.5433 43.5839C86.14 43.5839 86.6242 43.085 86.6242 42.4703V33.1582C86.6242 31.5435 87.8997 30.2272 89.4669 30.2272C91.0342 30.2272 92.3118 31.5413 92.3118 33.1582V42.4703C92.3118 43.085 92.7961 43.5839 93.3927 43.5839C93.5181 43.5839 93.637 43.5571 93.7494 43.5171C93.771 43.5104 93.7926 43.5059 93.8143 43.497C93.8186 43.4948 93.8251 43.4903 93.8294 43.4881C94.2077 43.3144 94.4736 42.9246 94.4736 42.4703V33.1582C94.4736 31.5435 95.7491 30.2272 97.3185 30.2272C98.888 30.2272 100.161 31.5413 100.161 33.1582V42.4703C100.161 43.085 100.645 43.5839 101.242 43.5839C101.839 43.5839 102.323 43.085 102.323 42.4703V36.1917C102.323 34.577 103.598 33.2607 105.168 33.2607C106.737 33.2607 108.013 34.5748 108.013 36.1917V42.4703C108.013 42.4925 108.017 42.5126 108.019 42.5349C108.019 42.5571 108.019 42.5772 108.019 42.5994C108.679 48.4236 109.092 64.0186 103.151 66.2169C102.721 66.375 102.435 66.796 102.435 67.2659V74.3106H97.8957C96.6894 74.3106 95.5545 74.7962 94.6984 75.6781C93.8424 76.5601 93.3711 77.7316 93.3711 78.9722C93.3711 80.9923 94.6271 82.7117 96.376 83.3576C95.8139 84.1616 95.5113 85.1193 95.5221 86.126C95.5458 88.0994 96.8018 89.7809 98.5421 90.4357C97.9822 91.2286 97.6752 92.1752 97.6752 93.1685C97.6752 95.1886 98.9312 96.908 100.68 97.5539C100.129 98.3401 99.8283 99.28 99.8283 100.267C99.8283 102.131 100.898 103.739 102.438 104.485V124.886C102.438 125.501 102.922 126 103.518 126C104.115 126 104.599 125.501 104.599 124.886V104.93H108.475C110.97 104.93 113 102.839 113 100.269C113 98.8457 112.377 97.574 111.402 96.7187C112.377 95.8635 113 94.5917 113 93.1707C113 91.7475 112.377 90.4758 111.402 89.6206C112.377 88.7653 113 87.4936 113 86.0726L112.998 86.0704ZM54.5565 117.822H43.1639V114.499H54.5565V117.822ZM59.334 95.545C56.6988 95.545 54.5565 97.7521 54.5565 100.467V112.269H43.1639V97.6697C43.1639 89.8834 49.312 83.5491 56.8696 83.5491H71.8463C74.9658 83.5491 75.7267 81.2328 76.2823 79.5424C76.9135 77.6203 77.3416 76.6136 79.4147 76.5334H80.7464V95.545H59.334ZM95.5329 78.9722C95.5329 78.3241 95.7793 77.7138 96.2268 77.2528C96.6743 76.7918 97.2688 76.5378 97.8957 76.5378H108.473C109.777 76.5378 110.836 77.6292 110.836 78.9722C110.836 80.3152 109.777 81.4066 108.475 81.4066H100.051H100.047H97.8979C96.5943 81.4066 95.5329 80.3152 95.5329 78.9722ZM97.6838 86.0971C97.6752 85.4401 97.9238 84.8187 98.3778 84.3487C98.8253 83.8877 99.4197 83.6338 100.047 83.6338H108.471C109.772 83.6338 110.832 84.7273 110.832 86.0681C110.832 87.4134 109.772 88.5047 108.469 88.5047H100.137C98.7972 88.5047 97.6968 87.4245 97.6795 86.0993L97.6838 86.0971ZM110.836 100.267C110.836 101.61 109.777 102.701 108.473 102.701H104.351C103.047 102.701 101.986 101.607 101.986 100.264C101.986 99.6163 102.232 99.0061 102.68 98.545C103.127 98.084 103.722 97.8301 104.349 97.8301H108.471C109.775 97.8301 110.834 98.9214 110.834 100.264L110.836 100.267ZM110.836 93.1663C110.836 94.5093 109.779 95.6006 108.478 95.6029H108.473H104.351H104.342H102.2C100.896 95.6029 99.8348 94.5093 99.8348 93.1663C99.8348 92.5204 100.081 91.9079 100.529 91.4469C100.976 90.9858 101.571 90.7319 102.198 90.7319H108.471C109.775 90.7319 110.834 91.8233 110.834 93.1663H110.836Z"/>
</mask>
<path d="M112.998 86.0704C112.998 84.6472 112.375 83.3754 111.4 82.5202C112.375 81.6649 112.998 80.3932 112.998 78.9722C112.998 76.402 110.968 74.3106 108.473 74.3106H104.597V67.9965C107.941 66.2681 109.894 61.5063 110.404 53.8269C110.776 48.2321 110.246 43.0672 110.175 42.4079V36.1917C110.175 33.3476 107.928 31.0335 105.168 31.0335C104.059 31.0335 103.034 31.4076 102.204 32.038C101.707 29.7306 99.7051 28 97.3185 28C95.7296 28 94.3115 28.7684 93.3949 29.9622C92.4783 28.7684 91.0602 28 89.4691 28C87.878 28 86.4621 28.7684 85.5433 29.9622C84.6267 28.7684 83.2086 28 81.6175 28C78.857 28 76.613 30.3141 76.613 33.1582V35.4501C74.996 35.6149 71.9696 36.2741 69.7862 38.8354C67.5595 41.448 66.8375 45.2766 67.6395 50.1965C67.7001 50.6063 69.25 60.1945 80.7442 69.0009V74.3106H79.3931C79.3801 74.3106 79.3693 74.3106 79.3563 74.3106C75.677 74.4398 74.8425 76.9788 74.2329 78.8319C73.6644 80.5602 73.3509 81.3242 71.8442 81.3242H56.8674C48.1187 81.3242 41 88.6584 41 97.672V118.937C41 119.552 41.4842 120.051 42.0809 120.051H55.6352C56.2319 120.051 56.7161 119.552 56.7161 118.937V100.469C56.7161 98.9838 57.8899 97.7744 59.3318 97.7744H80.7442V124.886C80.7442 125.501 81.2284 126 81.8251 126C82.4217 126 82.906 125.501 82.906 124.886V96.6653C82.906 96.6653 82.906 96.663 82.906 96.6608C82.906 96.6586 82.906 96.6586 82.906 96.6563V75.4265C82.906 75.4265 82.906 75.4242 82.906 75.422C82.906 75.4198 82.906 75.4198 82.906 75.4176V68.4352C82.906 68.0789 82.7395 67.7425 82.4606 67.5332C71.3405 59.2212 69.7905 49.9448 69.7754 49.8401C69.0858 45.6084 69.6327 42.4057 71.3988 40.3188C73.0007 38.4279 75.2944 37.8621 76.613 37.6951V50.564C76.613 51.1787 77.0973 51.6776 77.6939 51.6776C78.2906 51.6776 78.7748 51.1787 78.7748 50.564V33.1582C78.7748 31.5435 80.0503 30.2272 81.6175 30.2272C83.1848 30.2272 84.4624 31.5413 84.4624 33.1582V42.4703C84.4624 43.085 84.9467 43.5839 85.5433 43.5839C86.14 43.5839 86.6242 43.085 86.6242 42.4703V33.1582C86.6242 31.5435 87.8997 30.2272 89.4669 30.2272C91.0342 30.2272 92.3118 31.5413 92.3118 33.1582V42.4703C92.3118 43.085 92.7961 43.5839 93.3927 43.5839C93.5181 43.5839 93.637 43.5571 93.7494 43.5171C93.771 43.5104 93.7926 43.5059 93.8143 43.497C93.8186 43.4948 93.8251 43.4903 93.8294 43.4881C94.2077 43.3144 94.4736 42.9246 94.4736 42.4703V33.1582C94.4736 31.5435 95.7491 30.2272 97.3185 30.2272C98.888 30.2272 100.161 31.5413 100.161 33.1582V42.4703C100.161 43.085 100.645 43.5839 101.242 43.5839C101.839 43.5839 102.323 43.085 102.323 42.4703V36.1917C102.323 34.577 103.598 33.2607 105.168 33.2607C106.737 33.2607 108.013 34.5748 108.013 36.1917V42.4703C108.013 42.4925 108.017 42.5126 108.019 42.5349C108.019 42.5571 108.019 42.5772 108.019 42.5994C108.679 48.4236 109.092 64.0186 103.151 66.2169C102.721 66.375 102.435 66.796 102.435 67.2659V74.3106H97.8957C96.6894 74.3106 95.5545 74.7962 94.6984 75.6781C93.8424 76.5601 93.3711 77.7316 93.3711 78.9722C93.3711 80.9923 94.6271 82.7117 96.376 83.3576C95.8139 84.1616 95.5113 85.1193 95.5221 86.126C95.5458 88.0994 96.8018 89.7809 98.5421 90.4357C97.9822 91.2286 97.6752 92.1752 97.6752 93.1685C97.6752 95.1886 98.9312 96.908 100.68 97.5539C100.129 98.3401 99.8283 99.28 99.8283 100.267C99.8283 102.131 100.898 103.739 102.438 104.485V124.886C102.438 125.501 102.922 126 103.518 126C104.115 126 104.599 125.501 104.599 124.886V104.93H108.475C110.97 104.93 113 102.839 113 100.269C113 98.8457 112.377 97.574 111.402 96.7187C112.377 95.8635 113 94.5917 113 93.1707C113 91.7475 112.377 90.4758 111.402 89.6206C112.377 88.7653 113 87.4936 113 86.0726L112.998 86.0704ZM54.5565 117.822H43.1639V114.499H54.5565V117.822ZM59.334 95.545C56.6988 95.545 54.5565 97.7521 54.5565 100.467V112.269H43.1639V97.6697C43.1639 89.8834 49.312 83.5491 56.8696 83.5491H71.8463C74.9658 83.5491 75.7267 81.2328 76.2823 79.5424C76.9135 77.6203 77.3416 76.6136 79.4147 76.5334H80.7464V95.545H59.334ZM95.5329 78.9722C95.5329 78.3241 95.7793 77.7138 96.2268 77.2528C96.6743 76.7918 97.2688 76.5378 97.8957 76.5378H108.473C109.777 76.5378 110.836 77.6292 110.836 78.9722C110.836 80.3152 109.777 81.4066 108.475 81.4066H100.051H100.047H97.8979C96.5943 81.4066 95.5329 80.3152 95.5329 78.9722ZM97.6838 86.0971C97.6752 85.4401 97.9238 84.8187 98.3778 84.3487C98.8253 83.8877 99.4197 83.6338 100.047 83.6338H108.471C109.772 83.6338 110.832 84.7273 110.832 86.0681C110.832 87.4134 109.772 88.5047 108.469 88.5047H100.137C98.7972 88.5047 97.6968 87.4245 97.6795 86.0993L97.6838 86.0971ZM110.836 100.267C110.836 101.61 109.777 102.701 108.473 102.701H104.351C103.047 102.701 101.986 101.607 101.986 100.264C101.986 99.6163 102.232 99.0061 102.68 98.545C103.127 98.084 103.722 97.8301 104.349 97.8301H108.471C109.775 97.8301 110.834 98.9214 110.834 100.264L110.836 100.267ZM110.836 93.1663C110.836 94.5093 109.779 95.6006 108.478 95.6029H108.473H104.351H104.342H102.2C100.896 95.6029 99.8348 94.5093 99.8348 93.1663C99.8348 92.5204 100.081 91.9079 100.529 91.4469C100.976 90.9858 101.571 90.7319 102.198 90.7319H108.471C109.775 90.7319 110.834 91.8233 110.834 93.1663H110.836Z" fill="url(#paint0_linear_2268_2852)"/>
<path d="M112.998 86.0704C112.998 84.6472 112.375 83.3754 111.4 82.5202C112.375 81.6649 112.998 80.3932 112.998 78.9722C112.998 76.402 110.968 74.3106 108.473 74.3106H104.597V67.9965C107.941 66.2681 109.894 61.5063 110.404 53.8269C110.776 48.2321 110.246 43.0672 110.175 42.4079V36.1917C110.175 33.3476 107.928 31.0335 105.168 31.0335C104.059 31.0335 103.034 31.4076 102.204 32.038C101.707 29.7306 99.7051 28 97.3185 28C95.7296 28 94.3115 28.7684 93.3949 29.9622C92.4783 28.7684 91.0602 28 89.4691 28C87.878 28 86.4621 28.7684 85.5433 29.9622C84.6267 28.7684 83.2086 28 81.6175 28C78.857 28 76.613 30.3141 76.613 33.1582V35.4501C74.996 35.6149 71.9696 36.2741 69.7862 38.8354C67.5595 41.448 66.8375 45.2766 67.6395 50.1965C67.7001 50.6063 69.25 60.1945 80.7442 69.0009V74.3106H79.3931C79.3801 74.3106 79.3693 74.3106 79.3563 74.3106C75.677 74.4398 74.8425 76.9788 74.2329 78.8319C73.6644 80.5602 73.3509 81.3242 71.8442 81.3242H56.8674C48.1187 81.3242 41 88.6584 41 97.672V118.937C41 119.552 41.4842 120.051 42.0809 120.051H55.6352C56.2319 120.051 56.7161 119.552 56.7161 118.937V100.469C56.7161 98.9838 57.8899 97.7744 59.3318 97.7744H80.7442V124.886C80.7442 125.501 81.2284 126 81.8251 126C82.4217 126 82.906 125.501 82.906 124.886V96.6653C82.906 96.6653 82.906 96.663 82.906 96.6608C82.906 96.6586 82.906 96.6586 82.906 96.6563V75.4265C82.906 75.4265 82.906 75.4242 82.906 75.422C82.906 75.4198 82.906 75.4198 82.906 75.4176V68.4352C82.906 68.0789 82.7395 67.7425 82.4606 67.5332C71.3405 59.2212 69.7905 49.9448 69.7754 49.8401C69.0858 45.6084 69.6327 42.4057 71.3988 40.3188C73.0007 38.4279 75.2944 37.8621 76.613 37.6951V50.564C76.613 51.1787 77.0973 51.6776 77.6939 51.6776C78.2906 51.6776 78.7748 51.1787 78.7748 50.564V33.1582C78.7748 31.5435 80.0503 30.2272 81.6175 30.2272C83.1848 30.2272 84.4624 31.5413 84.4624 33.1582V42.4703C84.4624 43.085 84.9467 43.5839 85.5433 43.5839C86.14 43.5839 86.6242 43.085 86.6242 42.4703V33.1582C86.6242 31.5435 87.8997 30.2272 89.4669 30.2272C91.0342 30.2272 92.3118 31.5413 92.3118 33.1582V42.4703C92.3118 43.085 92.7961 43.5839 93.3927 43.5839C93.5181 43.5839 93.637 43.5571 93.7494 43.5171C93.771 43.5104 93.7926 43.5059 93.8143 43.497C93.8186 43.4948 93.8251 43.4903 93.8294 43.4881C94.2077 43.3144 94.4736 42.9246 94.4736 42.4703V33.1582C94.4736 31.5435 95.7491 30.2272 97.3185 30.2272C98.888 30.2272 100.161 31.5413 100.161 33.1582V42.4703C100.161 43.085 100.645 43.5839 101.242 43.5839C101.839 43.5839 102.323 43.085 102.323 42.4703V36.1917C102.323 34.577 103.598 33.2607 105.168 33.2607C106.737 33.2607 108.013 34.5748 108.013 36.1917V42.4703C108.013 42.4925 108.017 42.5126 108.019 42.5349C108.019 42.5571 108.019 42.5772 108.019 42.5994C108.679 48.4236 109.092 64.0186 103.151 66.2169C102.721 66.375 102.435 66.796 102.435 67.2659V74.3106H97.8957C96.6894 74.3106 95.5545 74.7962 94.6984 75.6781C93.8424 76.5601 93.3711 77.7316 93.3711 78.9722C93.3711 80.9923 94.6271 82.7117 96.376 83.3576C95.8139 84.1616 95.5113 85.1193 95.5221 86.126C95.5458 88.0994 96.8018 89.7809 98.5421 90.4357C97.9822 91.2286 97.6752 92.1752 97.6752 93.1685C97.6752 95.1886 98.9312 96.908 100.68 97.5539C100.129 98.3401 99.8283 99.28 99.8283 100.267C99.8283 102.131 100.898 103.739 102.438 104.485V124.886C102.438 125.501 102.922 126 103.518 126C104.115 126 104.599 125.501 104.599 124.886V104.93H108.475C110.97 104.93 113 102.839 113 100.269C113 98.8457 112.377 97.574 111.402 96.7187C112.377 95.8635 113 94.5917 113 93.1707C113 91.7475 112.377 90.4758 111.402 89.6206C112.377 88.7653 113 87.4936 113 86.0726L112.998 86.0704ZM54.5565 117.822H43.1639V114.499H54.5565V117.822ZM59.334 95.545C56.6988 95.545 54.5565 97.7521 54.5565 100.467V112.269H43.1639V97.6697C43.1639 89.8834 49.312 83.5491 56.8696 83.5491H71.8463C74.9658 83.5491 75.7267 81.2328 76.2823 79.5424C76.9135 77.6203 77.3416 76.6136 79.4147 76.5334H80.7464V95.545H59.334ZM95.5329 78.9722C95.5329 78.3241 95.7793 77.7138 96.2268 77.2528C96.6743 76.7918 97.2688 76.5378 97.8957 76.5378H108.473C109.777 76.5378 110.836 77.6292 110.836 78.9722C110.836 80.3152 109.777 81.4066 108.475 81.4066H100.051H100.047H97.8979C96.5943 81.4066 95.5329 80.3152 95.5329 78.9722ZM97.6838 86.0971C97.6752 85.4401 97.9238 84.8187 98.3778 84.3487C98.8253 83.8877 99.4197 83.6338 100.047 83.6338H108.471C109.772 83.6338 110.832 84.7273 110.832 86.0681C110.832 87.4134 109.772 88.5047 108.469 88.5047H100.137C98.7972 88.5047 97.6968 87.4245 97.6795 86.0993L97.6838 86.0971ZM110.836 100.267C110.836 101.61 109.777 102.701 108.473 102.701H104.351C103.047 102.701 101.986 101.607 101.986 100.264C101.986 99.6163 102.232 99.0061 102.68 98.545C103.127 98.084 103.722 97.8301 104.349 97.8301H108.471C109.775 97.8301 110.834 98.9214 110.834 100.264L110.836 100.267ZM110.836 93.1663C110.836 94.5093 109.779 95.6006 108.478 95.6029H108.473H104.351H104.342H102.2C100.896 95.6029 99.8348 94.5093 99.8348 93.1663C99.8348 92.5204 100.081 91.9079 100.529 91.4469C100.976 90.9858 101.571 90.7319 102.198 90.7319H108.471C109.775 90.7319 110.834 91.8233 110.834 93.1663H110.836Z" stroke="url(#paint1_linear_2268_2852)" stroke-width="0.8" mask="url(#path-1-outside-1_2268_2852)"/>
<circle cx="77" cy="77" r="75.5" stroke="url(#paint2_linear_2268_2852)" stroke-width="3"/>
<defs>
<linearGradient id="paint0_linear_2268_2852" x1="92.6378" y1="50.0863" x2="45.3698" y2="94.8456" gradientUnits="userSpaceOnUse">
<stop stop-color="#F39200"/>
<stop offset="0.33" stop-color="#EA5B0B"/>
<stop offset="0.635" stop-color="#D60B51"/>
<stop offset="1" stop-color="#A11881"/>
</linearGradient>
<linearGradient id="paint1_linear_2268_2852" x1="92.6378" y1="50.0863" x2="45.3698" y2="94.8456" gradientUnits="userSpaceOnUse">
<stop stop-color="#F39200"/>
<stop offset="0.33" stop-color="#EA5B0B"/>
<stop offset="0.635" stop-color="#D60B51"/>
<stop offset="1" stop-color="#A11881"/>
</linearGradient>
<linearGradient id="paint2_linear_2268_2852" x1="110.447" y1="34.707" x2="38.3914" y2="127.578" gradientUnits="userSpaceOnUse">
<stop stop-color="#F39200"/>
<stop offset="0.33" stop-color="#EA5B0B"/>
<stop offset="0.635" stop-color="#D60B51"/>
<stop offset="1" stop-color="#A11881"/>
</linearGradient>
</defs>
</svg>
