<?xml version="1.0" encoding="UTF-8"?>
<svg id="Calque_2" data-name="Calque 2" xmlns="http://www.w3.org/2000/svg" viewBox="0 0 516.29 581.8">
  <defs>
    <style>
      .cls-1 {
        fill: #fff;
        opacity: .1;
      }
    </style>
  </defs>
  <g id="Calque_2-2" data-name="Calque 2">
    <path class="cls-1" d="M183.01,501.69v68.67c0,5.72,5.78,11.44,11.56,11.44h127.15c5.78,0,11.56-5.72,11.56-11.44v-70.58c107.89-32.43,183.01-131.62,183.01-244.16C516.29,114.45,400.7,0,258.15,0S0,114.45,0,255.62c0,114.45,75.13,213.64,183.01,246.07ZM310.16,558.91h-102.1V221.28c0-5.72-5.78-11.45-11.56-11.45h-46.23l107.88-110.63,109.81,108.73h-46.23c-5.78,0-11.56,5.72-11.56,11.44v339.55h0ZM258.15,24.8c129.08,0,235.03,104.91,235.03,232.71,0,99.2-63.58,186.94-157.98,219.37v-244.16h63.58c5.77,0,9.63-3.82,11.56-7.63,1.93-3.82,0-9.54-1.93-13.36l-138.71-139.25c-3.86-3.82-11.56-3.82-17.34,0L113.66,211.74c-3.86,3.82-3.86,7.63-1.93,13.36,1.93,3.81,5.78,7.63,11.56,7.63h63.58v244.16c-94.4-30.51-159.89-120.17-159.89-221.27C23.12,127.81,129.07,24.8,258.15,24.8Z"/>
  </g>
</svg>