<?xml version="1.0" encoding="UTF-8"?>
<svg id="Calque_2" data-name="Calque 2" xmlns="http://www.w3.org/2000/svg" viewBox="0 0 519.61 504.21">
  <defs>
    <style>
      .cls-1 {
        fill: #fff;
      }

      .cls-2 {
        opacity: .1;
      }
    </style>
  </defs>
  <g id="Calque_2-2" data-name="Calque 2">
    <g class="cls-2">
      <g id="_519_Business_Candidates_Profile_Best_Team" data-name="519, Business, Candidates, Profile, Best Team">
        <g>
          <path class="cls-1" d="M155.98,149.34c-.96,2.85,0,4.74,1.91,6.63l55.5,39.8-21.05,64.43c-.96,2.84,0,4.74,1.91,6.63,1.91,1.9,4.79,1.9,6.7,0l55.5-39.8,55.5,39.8c1.92,1.9,4.78,1.9,6.7,0,1.91-1.9,2.87-3.79,1.91-6.63l-21.05-64.43,55.5-39.8c1.91-1.9,2.87-3.78,1.91-6.63-.96-2.84-2.87-3.78-5.74-3.78h-68.9l-21.05-64.43c-.96-2.85-2.87-3.79-5.74-3.79s-4.79,1.9-5.74,3.79l-19.14,64.43h-68.9c-1.92,0-4.78,1.9-5.74,3.78ZM234.44,157.87c2.87,0,4.79-1.9,5.74-3.79l17.22-51.16,17.22,51.16c.96,2.85,2.87,3.79,5.74,3.79h54.55l-44.02,31.27c-2.87,1.9-3.83,3.79-2.87,6.63l17.22,51.17-44.02-31.28c-1.92-1.89-4.78-1.89-6.7,0l-44.02,31.28,17.23-51.17c.95-2.84,0-4.74-1.91-6.63l-44.02-31.27h52.63Z"/>
          <g>
            <path class="cls-1" d="M145.45,472.45c-2.87,0-5.74,2.84-5.74,5.68v26.09h11.48v-26.09c0-2.84-2.87-5.68-5.74-5.68Z"/>
            <path class="cls-1" d="M463.15,472.45c-2.87,0-5.74,2.84-5.74,5.68v26.09h11.48v-26.09c0-2.84-2.87-5.68-5.74-5.68Z"/>
            <path class="cls-1" d="M374.16,472.45c-2.87,0-5.74,2.84-5.74,5.68v26.09h11.48v-26.09c0-2.84-2.87-5.68-5.74-5.68Z"/>
            <path class="cls-1" d="M21.34,504.21c-3.38-7.85-4.12-16.96-4.12-26.09,0-42.64,32.53-77.7,74.64-82.44l-19.14,47.38c-.96,1.9,0,4.74.96,6.63l22.01,21.79c1.92,1.9,5.74,1.9,8.61,0l22.01-21.79c1.91-1.9,1.91-3.78.96-6.63l-19.14-47.38c32.54,3.79,60.29,25.58,70.81,55.91-10.87,15.26-17.45,33.06-18.12,52.61h15.36c2.07-40.7,33.83-73.62,74.53-78.2l-19.14,47.38c-.96,1.9,0,4.74.96,6.63l22.01,21.79c1.91,1.9,5.74,1.9,8.61,0l22.01-21.79c1.91-1.9,1.91-3.79.95-6.63l-19.14-47.38c40.7,4.58,72.45,37.49,74.53,78.2h13.45c-.63-17.74-6.29-34.54-16.2-48.82,9.57-33.16,38.28-55.91,71.77-59.7l-19.14,47.38c-.96,1.9,0,4.74.96,6.63l22.01,21.79c1.92,1.9,5.74,1.9,8.61,0l22.01-21.79c1.91-1.9,1.91-3.78.96-6.63l-19.14-47.38c42.11,4.74,74.64,39.8,74.64,82.44,0,9.12-.73,18.23-3.48,26.09h15.06c1.93-8.2,2.77-17.35,2.77-26.09-1.91-42.64-30.62-78.64-70.81-90.96,14.35-8.53,23.92-24.64,23.92-42.64,0-27.48-22.97-50.22-50.72-50.22s-50.72,22.73-50.72,50.22c0,18,9.57,33.16,23.92,42.64-28.71,8.52-51.67,29.37-62.2,56.85-11.48-12.32-26.8-22.74-44.02-27.48,14.35-8.52,23.92-24.63,23.92-42.64,0-27.47-22.97-50.22-50.72-50.22s-50.72,22.74-50.72,50.22c0,18.01,9.57,33.16,23.92,42.64-15.31,4.74-29.66,13.27-41.15,24.64-11.48-25.58-33.49-46.43-61.25-54.01,14.36-8.53,23.92-24.64,23.92-42.64,0-27.48-22.97-50.22-50.72-50.22s-50.72,22.73-50.72,50.22c0,18,9.57,33.16,23.92,42.64-39.23,11.37-68.9,48.32-68.9,90.96,0,8.89,1.29,17.77,3.29,26.09h11.35ZM433.49,444.02l-15.31,15.16-15.31-15.16,15.31-37.9,15.31,37.9ZM378.94,345.48c0-20.85,17.22-38.84,39.23-38.84s39.24,17.05,39.24,38.84-17.22,38.85-39.24,38.85-39.23-18.01-39.23-38.85ZM272.72,473.39l-15.31,15.17-15.31-15.17,15.31-37.9,15.31,37.9ZM218.18,374.85c0-20.85,17.22-38.85,39.23-38.85s39.24,17.05,39.24,38.85-17.22,38.84-39.24,38.84c-21.05-.94-39.23-18.01-39.23-38.84ZM115.79,444.02l-15.31,15.16-15.31-15.16,15.31-37.9,15.31,37.9ZM62.2,345.48c0-20.85,17.22-38.84,39.23-38.84s39.24,17.05,39.24,38.84-17.22,38.85-39.24,38.85c-22.01-.95-39.23-18.01-39.23-38.85Z"/>
            <path class="cls-1" d="M56.46,472.45c-2.87,0-5.74,2.84-5.74,5.68v26.09h11.48v-26.09c0-2.84-2.87-5.68-5.74-5.68Z"/>
          </g>
          <path class="cls-1" d="M83.04,83.38c22.97,0,42.11-18.95,42.11-41.69S106.01,0,83.04,0s-42.11,18.95-42.11,41.68,19.14,41.69,42.11,41.69ZM83.04,12.32c16.27,0,29.66,13.26,29.66,29.37s-13.4,29.38-29.66,29.38-29.67-13.27-29.67-29.38,13.4-29.37,29.67-29.37Z"/>
          <path class="cls-1" d="M471.76,235.57c20.1,0,36.36-16.11,36.36-36s-16.27-36.01-36.36-36.01-36.36,16.11-36.36,36.01,16.27,36,36.36,36ZM471.76,175.88c13.4,0,23.92,10.42,23.92,23.69s-10.53,23.69-23.92,23.69-23.92-10.43-23.92-23.69c0-12.33,10.53-23.69,23.92-23.69Z"/>
          <path class="cls-1" d="M444.97,29.01c4.76,0,8.61,3.81,8.61,8.52s-3.85,8.53-8.61,8.53-8.61-3.82-8.61-8.53,3.86-8.52,8.61-8.52Z"/>
          <path class="cls-1" d="M336.84,82.07c4.76,0,8.61,3.82,8.61,8.53s-3.85,8.52-8.61,8.52-8.61-3.81-8.61-8.52,3.85-8.53,8.61-8.53Z"/>
          <path class="cls-1" d="M25.83,182.5c4.76,0,8.61,3.82,8.61,8.53s-3.86,8.53-8.61,8.53-8.61-3.82-8.61-8.53,3.85-8.53,8.61-8.53Z"/>
          <path class="cls-1" d="M139.71,242.2c4.76,0,8.61,3.81,8.61,8.52s-3.85,8.53-8.61,8.53-8.61-3.82-8.61-8.53,3.86-8.52,8.61-8.52Z"/>
          <path class="cls-1" d="M8.61,348.32c4.76,0,8.61,3.82,8.61,8.53s-3.85,8.53-8.61,8.53-8.61-3.82-8.61-8.53,3.85-8.53,8.61-8.53Z"/>
          <path class="cls-1" d="M195.29,37.87c4.76,0,8.61,3.82,8.61,8.53s-3.85,8.53-8.61,8.53-8.61-3.82-8.61-8.53,3.85-8.53,8.61-8.53Z"/>
          <path class="cls-1" d="M373.2,194.83c4.76,0,8.61,3.81,8.61,8.52s-3.86,8.53-8.61,8.53-8.61-3.82-8.61-8.53,3.85-8.52,8.61-8.52Z"/>
          <path class="cls-1" d="M511,306.63c4.76,0,8.61,3.81,8.61,8.52s-3.85,8.53-8.61,8.53-8.61-3.82-8.61-8.53,3.85-8.52,8.61-8.52Z"/>
        </g>
      </g>
    </g>
  </g>
</svg>