<?xml version="1.0" encoding="UTF-8"?>
<svg id="Calque_2" data-name="Calque 2" xmlns="http://www.w3.org/2000/svg" viewBox="0 0 1159.02 1972.55">
  <defs>
    <style>
      .cls-1 {
        fill: #fff;
      }

      .cls-2 {
        opacity: .1;
      }
    </style>
  </defs>
  <g id="Calque_3" data-name="Calque 3">
    <g class="cls-2">
      <path class="cls-1" d="M611.9,236.21V0h-219.01c-120.76,0-219.01,101.28-219.01,225.76v236.2h219.01c120.76,0,219.01-101.28,219.01-225.76ZM249.38,225.76c0-82.85,64.38-150.26,143.5-150.26h143.5v160.7c0,82.85-64.37,150.25-143.5,150.25h-143.5v-160.7Z"/>
      <path class="cls-1" d="M0,1446.05v-463.16l910.36-452.58,94.63,204.8c51.68,111.85,5.67,246.63-102.59,300.45L59.78,1454.44l-59.78-8.39ZM75.51,1029.68v332.62l793.29-394.36c72.01-35.8,102.36-126.04,67.65-201.15l-62.05-134.28L75.51,1029.68Z"/>
      <polygon class="cls-1" points="37.76 1423.23 37.76 1424.33 211.62 1511.96 211.62 1336.8 37.76 1423.23"/>
      <path class="cls-1" d="M249.38,1573.27L0,1447.58v-47.75l249.38-123.96v297.4Z"/>
      <g>
        <polygon class="cls-1" points="210.78 1469.26 121 1424.01 210.78 1379.37 210.78 1295.05 0 1399.83 0 1447.58 210.78 1553.82 210.78 1469.26"/>
        <path class="cls-1" d="M1036.29,1467.26l-448.83-226.21v84.56l414.85,209.08c71.83,36.2,101.71,126.61,66.61,201.54l-62.73,133.91-418.73-211.04v78.71h-11.6l465.75,234.73,95.7-204.29c52.26-111.56,6.95-246.59-101.01-301Z"/>
      </g>
      <g>
        <path class="cls-1" d="M249.38,883.94v-170.59c0-82.85,64.37-150.25,143.5-150.25h143.5v173.28l75.51-38.82v-209.97h-219.01c-120.76,0-219.01,101.28-219.01,225.76v209.41s75.51-38.82,75.51-38.82Z"/>
        <path class="cls-1" d="M536.39,1140.13v593.35c0,82.84-64.38,150.25-143.5,150.25h-143.5v-596.04s-75.51,38.82-75.51,38.82v632.73h219.01c120.76,0,219.01-101.27,219.01-225.76v-632.17l-75.51,38.82Z"/>
      </g>
    </g>
  </g>
</svg>