<?xml version="1.0" encoding="UTF-8"?>
<svg id="Calque_2" data-name="Calque 2" xmlns="http://www.w3.org/2000/svg" xmlns:xlink="http://www.w3.org/1999/xlink" viewBox="0 0 74.86 88.45">
  <defs>
    <style>
      .cls-1 {
        fill: url(#Dégradé_sans_nom_45);
      }

      .cls-2 {
        fill: url(#Dégradé_sans_nom_45-2);
      }
    </style>
    <linearGradient id="Dégradé_sans_nom_45" data-name="Dégradé sans nom 45" x1="221.26" y1="12.16" x2="-1282.65" y2="-16.06" gradientUnits="userSpaceOnUse">
      <stop offset="0" stop-color="#a01880"/>
      <stop offset=".35" stop-color="#d60b51"/>
      <stop offset=".65" stop-color="#e95a0c"/>
      <stop offset="1" stop-color="#f29100"/>
    </linearGradient>
    <linearGradient id="Dégradé_sans_nom_45-2" data-name="Dégradé sans nom 45" x1="220.4" y1="57.99" x2="-1283.51" y2="29.77" xlink:href="#Dégradé_sans_nom_45"/>
  </defs>
  <g id="Calque_2-2" data-name="Calque 2">
    <g id="_522_Best_Podium_Professional_Winner" data-name="522, Best, Podium, Professional, Winner">
      <g>
        <path class="cls-1" d="M37.32,17.42c4.72,0,8.79-3.82,8.79-8.71S42.26,0,37.32,0s-8.79,3.82-8.79,8.71,3.86,8.71,8.79,8.71ZM37.32,2.76c3.43,0,6.01,2.76,6.01,5.95,0,3.4-2.79,5.95-6.01,5.95-3.43,0-6-2.76-6-5.95s2.57-5.95,6-5.95Z"/>
        <path class="cls-2" d="M68.08,88.45c3.68,0,6.76-2.94,6.79-6.62,0-.02,0-.03,0-.05,0-4.04-3.22-7.22-7.29-7.22h-7.72c1.07-1.27,1.72-2.97,1.72-4.67,0-4.04-3.22-7.22-7.29-7.22h-8.79v-9.35h3.86c.71,0,1.29-.58,1.29-1.29v-23.78c0-4.46-3.65-8.07-8.15-8.07h-10.3c-4.5,0-8.15,3.61-8.15,8.07v23.79c0,.7.57,1.27,1.27,1.27h4.09v9.35h-8.79c-4.08,0-7.29,3.19-7.29,7.22,0,1.7.64,3.4,1.72,4.67h-7.72c-4.08,0-7.29,3.19-7.29,7.22,0,.02,0,.03,0,.05.03,3.68,3.1,6.62,6.79,6.62h61.29ZM26.6,28.25c0-2.97,2.57-5.52,5.58-5.52h10.3c3,0,5.58,2.55,5.58,5.52v22.3h-21.45v-22.3ZM31.96,53.31h10.73v9.35h-10.73v-9.35ZM15.87,69.88c0-2.55,2.14-4.67,4.72-4.67h33.46c2.57,0,4.72,2.12,4.72,4.67s-2.14,4.67-4.72,4.67H20.59c-2.57,0-4.72-2.12-4.72-4.67ZM2.36,81.78c0-2.55,2.15-4.67,4.72-4.67h60.28c2.57,0,4.72,2.12,4.72,4.67s-2.14,4.67-4.72,4.67H7.08c-2.57,0-4.72-2.12-4.72-4.67Z"/>
      </g>
    </g>
  </g>
</svg>