<?xml version="1.0" encoding="UTF-8"?>
<svg id="Calque_2" data-name="Calque 2" xmlns="http://www.w3.org/2000/svg" xmlns:xlink="http://www.w3.org/1999/xlink" viewBox="0 0 151.1 75.37">
  <defs>
    <style>
      .cls-1 {
        fill: url(#Dégradé_sans_nom_45);
      }
    </style>
    <linearGradient id="Dégradé_sans_nom_45" data-name="Dégradé sans nom 45" x1="996.13" y1="54.75" x2="-507.78" y2="26.54" gradientUnits="userSpaceOnUse">
      <stop offset="0" stop-color="#a01880"/>
      <stop offset=".35" stop-color="#d60b51"/>
      <stop offset=".65" stop-color="#e95a0c"/>
      <stop offset="1" stop-color="#f29100"/>
    </linearGradient>
  </defs>
  <g id="Calque_2-2" data-name="Calque 2">
    <path class="cls-1" d="M130.2,27.65l-.61-.19.55-.33c4.31-2.56,6.99-7.34,6.99-12.46,0-8.09-6.65-14.68-14.83-14.68s-14.83,6.58-14.83,14.68c0,4.99,2.55,9.53,7,12.47l.51.34-.58.17c-8.55,2.54-15.24,8.65-18.35,16.77l-.16.42-.31-.33c-3.67-3.93-8.28-6.81-12.98-8.11l-.64-.18.57-.34c4.31-2.56,6.99-7.33,6.99-12.46,0-8.09-6.65-14.68-14.83-14.68s-14.83,6.58-14.83,14.68c0,4.99,2.55,9.53,7,12.47l.5.33-.57.18c-4.57,1.41-8.77,3.93-12.14,7.27l-.29.29-.17-.37c-3.52-7.85-10.28-13.81-18.06-15.93l-.64-.18.57-.34c4.31-2.56,6.99-7.34,6.99-12.46,0-8.09-6.65-14.68-14.83-14.68s-14.83,6.58-14.83,14.68c0,4.99,2.55,9.53,7,12.47l.51.34-.59.17C8.36,31.12,0,42.15,0,54.48c0,3.48.68,7.35,1.98,11.2.13.26.57.94,1.44.94h43.3l.03.26c.31,3.09.94,5.48,1.97,7.52.15.29.59.97,1.46.97h49.61c.87,0,1.31-.68,1.46-.97.59-1.56,1.64-4.66,1.97-7.53l.03-.25h44.44c.87,0,1.31-.68,1.46-.97,1.27-2.76,1.97-6.73,1.97-11.16-.56-12.38-8.95-23.17-20.9-26.83ZM110.33,14.96c0-6.54,5.37-11.86,11.97-11.86s11.97,5.21,11.97,11.86-5.26,11.86-11.97,11.86-11.97-5.32-11.97-11.86ZM122.57,32.92l4.56,11.29.07.18-.13.13-4.56,4.52-.2.2-.2-.2-4.56-4.52-.13-.13.07-.18,4.56-11.29.26-.65.26.65ZM62.44,23.71c0-6.54,5.37-11.86,11.97-11.86s11.97,5.32,11.97,11.86-5.26,11.86-11.97,11.86h-.01c-6.59-.3-11.96-5.61-11.96-11.86ZM74.67,41.67l4.56,11.29.07.17-.13.13-4.56,4.52-.2.2-.2-.2-4.56-4.52-.13-.13.07-.17,4.56-11.29.26-.65.26.65ZM15.97,14.96c0-6.54,5.37-11.86,11.97-11.86s11.97,5.32,11.97,11.86-5.26,11.86-11.97,11.86h-.01c-6.71-.29-11.96-5.5-11.96-11.86ZM32.48,44.21l.07.18-.13.13-4.56,4.52-.2.2-.2-.2-4.56-4.52-.13-.13.07-.18,4.56-11.29.26-.65.26.65,4.56,11.29ZM45.9,63.23v.28h-3.42v-9.04c0-.68-.73-1.41-1.43-1.41s-1.43.72-1.43,1.41v9.04H15.97v-9.04c0-.68-.73-1.41-1.43-1.41s-1.43.72-1.43,1.41v9.04H4.4l-.08-.14c-1.54-2.74-1.75-6.03-1.75-8.89,0-12.72,9.67-23.4,22.49-24.84l.47-.05-.18.44-5.7,14.11c-.19.38-.09,1,.26,1.7l6.52,6.46c.22.22.57.34.98.34s.85-.13,1.21-.36l6.54-6.47c.44-.44.5-.85.22-1.68l-5.7-14.1-.18-.44.47.06c9.8,1.14,18.18,7.75,21.33,16.84l.05.14-.08.12c-3.56,4.99-5.36,10.54-5.36,16.49ZM98.34,72.34l-.06.2h-8.76v-9.03c0-.68-.73-1.41-1.43-1.41s-1.43.72-1.43,1.41v9.03h-23.66v-9.03c0-.68-.73-1.41-1.43-1.41s-1.43.72-1.43,1.41v9.03h-8.75l-.07-.19c-.89-2.64-1.44-6.03-1.44-8.84,0-12.72,9.67-23.4,22.49-24.84l.47-.05-.18.44-5.7,14.11c-.19.38-.09,1,.26,1.7l6.52,6.46c.22.22.57.34.98.34s.85-.13,1.21-.36l6.54-6.47c.44-.44.5-.85.21-1.68l-5.7-14.1-.18-.44.47.05c12.82,1.44,22.49,12.12,22.49,24.84,0,3.37-.78,6.67-1.44,8.83ZM145.94,63.35l-.08.17h-8.73v-9.04c0-.68-.73-1.41-1.43-1.41s-1.43.72-1.43,1.41v9.04h-23.66v-9.04c0-.68-.73-1.41-1.43-1.41s-1.43.72-1.43,1.41v9.04h-4.56v-.28c0-5.53-1.66-10.85-4.8-15.36l-.08-.11.04-.13c2.82-9.76,11.3-16.82,21.62-17.99l.47-.05-.18.44-5.7,14.11c-.19.38-.09,1,.26,1.7l6.52,6.46c.22.22.57.34.98.34s.85-.13,1.21-.36l6.54-6.47c.44-.44.5-.85.22-1.69l-5.7-14.1-.18-.44.47.05c12.82,1.44,22.49,12.12,22.49,24.84,0,3.84-.46,6.66-1.45,8.87Z"/>
  </g>
</svg>