<?xml version="1.0" encoding="UTF-8"?>
<svg id="Calque_2" data-name="Calque 2" xmlns="http://www.w3.org/2000/svg" xmlns:xlink="http://www.w3.org/1999/xlink" viewBox="0 0 112.25 66.78">
  <defs>
    <style>
      .cls-1 {
        fill: url(#Dégradé_sans_nom_45-5);
      }

      .cls-2 {
        fill: url(#Dégradé_sans_nom_45);
      }

      .cls-3 {
        fill: url(#Dégradé_sans_nom_45-3);
      }

      .cls-4 {
        fill: url(#Dégradé_sans_nom_45-2);
      }

      .cls-5 {
        fill: url(#Dégradé_sans_nom_45-4);
      }
    </style>
    <linearGradient id="Dégradé_sans_nom_45" data-name="Dégradé sans nom 45" x1="1340.36" y1="57.91" x2="-163.55" y2="29.7" gradientUnits="userSpaceOnUse">
      <stop offset="0" stop-color="#a01880"/>
      <stop offset=".35" stop-color="#d60b51"/>
      <stop offset=".65" stop-color="#e95a0c"/>
      <stop offset="1" stop-color="#f29100"/>
    </linearGradient>
    <linearGradient id="Dégradé_sans_nom_45-2" data-name="Dégradé sans nom 45" x1="1340.91" y1="28.45" x2="-163" y2=".23" xlink:href="#Dégradé_sans_nom_45"/>
    <linearGradient id="Dégradé_sans_nom_45-3" data-name="Dégradé sans nom 45" x1="1339.84" y1="85.73" x2="-164.07" y2="57.52" xlink:href="#Dégradé_sans_nom_45"/>
    <linearGradient id="Dégradé_sans_nom_45-4" data-name="Dégradé sans nom 45" x1="1340.18" y1="67.64" x2="-163.73" y2="39.42" xlink:href="#Dégradé_sans_nom_45"/>
    <linearGradient id="Dégradé_sans_nom_45-5" data-name="Dégradé sans nom 45" x1="1340.59" y1="45.57" x2="-163.32" y2="17.35" xlink:href="#Dégradé_sans_nom_45"/>
  </defs>
  <g id="Calque_2-2" data-name="Calque 2">
    <g id="_519_Business_Candidates_Profile_Best_Team" data-name="519, Business, Candidates, Profile, Best Team">
      <g>
        <path class="cls-2" d="M8.7,25.19c-.34,1,0,1.66.67,2.32l19.41,13.92-7.36,22.54c-.34.99,0,1.66.67,2.32.67.66,1.67.66,2.34,0l19.41-13.92,19.41,13.92c.67.66,1.67.66,2.34,0,.67-.66,1-1.33.67-2.32l-7.36-22.54,19.41-13.92c.67-.66,1-1.32.67-2.32-.34-.99-1-1.32-2.01-1.32h-24.1L45.52,1.33c-.34-1-1-1.33-2.01-1.33s-1.67.66-2.01,1.33l-6.69,22.54H10.71c-.67,0-1.67.66-2.01,1.32ZM36.15,28.17c1,0,1.67-.66,2.01-1.33l6.03-17.9,6.03,17.9c.33,1,1,1.33,2.01,1.33h19.08l-15.4,10.94c-1,.66-1.34,1.33-1,2.32l6.03,17.9-15.4-10.94c-.67-.66-1.67-.66-2.34,0l-15.4,10.94,6.03-17.9c.33-.99,0-1.66-.67-2.32l-15.4-10.94h18.41Z"/>
        <path class="cls-4" d="M71.97,1.66c1.66,0,3.01,1.34,3.01,2.98s-1.35,2.98-3.01,2.98-3.01-1.33-3.01-2.98,1.35-2.98,3.01-2.98Z"/>
        <path class="cls-3" d="M3.01,57.67c1.66,0,3.01,1.33,3.01,2.98s-1.35,2.98-3.01,2.98-3.01-1.34-3.01-2.98,1.35-2.98,3.01-2.98Z"/>
        <path class="cls-5" d="M84.68,41.1c1.66,0,3.01,1.33,3.01,2.98s-1.35,2.98-3.01,2.98-3.01-1.34-3.01-2.98,1.35-2.98,3.01-2.98Z"/>
        <path class="cls-1" d="M109.23,19.49c1.67,0,3.01,1.33,3.01,2.98s-1.35,2.98-3.01,2.98-3.01-1.34-3.01-2.98,1.35-2.98,3.01-2.98Z"/>
      </g>
    </g>
  </g>
</svg>