<?xml version="1.0" encoding="UTF-8"?>
<svg id="Calque_2" data-name="Calque 2" xmlns="http://www.w3.org/2000/svg" xmlns:xlink="http://www.w3.org/1999/xlink" viewBox="0 0 87.71 71.5">
  <defs>
    <style>
      .cls-1 {
        fill: url(#Dégradé_sans_nom_45);
      }
    </style>
    <linearGradient id="Dégradé_sans_nom_45" data-name="Dégradé sans nom 45" x1="605.45" y1="46.48" x2="-898.47" y2="18.26" gradientUnits="userSpaceOnUse">
      <stop offset="0" stop-color="#a01880"/>
      <stop offset=".35" stop-color="#d60b51"/>
      <stop offset=".65" stop-color="#e95a0c"/>
      <stop offset="1" stop-color="#f29100"/>
    </linearGradient>
  </defs>
  <g id="Calque_2-2" data-name="Calque 2">
    <path class="cls-1" d="M62.7,7.26c0-4-3.29-7.26-7.33-7.26h-23.02c-4.05,0-7.34,3.26-7.34,7.26v4.93h-13.7C5.07,12.19,0,17.2,0,23.37v36.89c.79,6.41,5.81,11.24,11.7,11.24h64.7c6.23,0,11.31-5.02,11.31-11.18V23.37c0-6.17-5.07-11.18-11.31-11.18h-13.7v-4.93ZM3.56,47.74v-24.76c0-4.3,3.81-8.07,8.14-8.07h1v33.83H3.56v-1ZM13.1,62.67v6.11h-1c-3.78,0-7.11-2.4-8.11-5.83l-.37-1.28h9.47v1ZM13.1,52.85v6.11H3.56v-7.11h9.54v1ZM23.02,15.9v52.49h-7.16V14.9h7.16v1ZM84.86,63.07c-1.23,2.84-4.2,5.71-8.06,5.71h-1v-7.11h9.67l-.6,1.4ZM75.4,48.13V15.38l.91-.08c.25-.02.5-.03.75-.03h0c2.18,0,4.2.88,5.68,2.47,1.4,1.5,2.2,3.56,2.2,5.63v25.76h-9.54v-1ZM75.4,57.95v-6.11h9.54v7.11h-9.54v-1ZM65.48,67.39V14.9h7.16v53.49h-7.16v-1ZM28.57,7.26c0-2.5,2.05-4.54,4.57-4.54h23.02c2.52,0,4.57,2.04,4.57,4.54v4.93h-31.77v-3.93h-.4v-1ZM62.72,62.67v6.11H25.79v-7.11h36.93v1ZM62.72,52.85v6.11H25.79v-7.11h36.93v1ZM62.72,14.9v33.83H25.79V14.9h36.93Z"/>
  </g>
</svg>