<?xml version="1.0" encoding="UTF-8"?>
<svg id="Calque_1" xmlns="http://www.w3.org/2000/svg" version="1.1" xmlns:xlink="http://www.w3.org/1999/xlink" viewBox="0 0 159.2 152.5">
  <!-- Generator: Adobe Illustrator 29.0.1, SVG Export Plug-In . SVG Version: 2.1.0 Build 192)  -->
  <defs>
    <style>
      .st0 {
        stroke: #ea5b0b;
        stroke-width: 3px;
      }

      .st0, .st1 {
        fill: none;
      }

      .st2 {
        fill: #ea5b0b;
      }

      .st3 {
        clip-path: url(#clippath);
      }
    </style>
    <clipPath id="clippath">
      <rect class="st1" x="46" y="37" width="79" height="81"/>
    </clipPath>
  </defs>
  <circle class="st0" cx="80" cy="77" r="75.5"/>
  <g class="st3">
    <g>
      <path class="st2" d="M121.1,87.5h-3.1l.4-.2c1.8-1.1,2.3-3.4,1.3-5.1,0,0,0-.1,0-.2-1.1-1.6-3.2-2.1-4.9-1.2l-5.8,3.3c-1.3.7-2.2,2-2.5,3.5l-2.2,10.2-2.7,9.4v-10.4c0-6.6-5.3-11.9-11.9-12h-7.9v-6.1c4.9-2.8,7.9-8.1,7.9-13.8,2.9,0,5.3-2.4,5.3-5.3s-2.4-5.3-5.3-5.3v-6.6c0-5.9-4.7-10.6-10.5-10.6h-22.4c-.7,0-1.3.6-1.3,1.3,0,3,1.3,5.9,3.5,7.9-.6,1.6-.9,3.3-.9,5v3.1c-2.9,0-5.3,2.4-5.3,5.3s2.4,5.3,5.3,5.3c0,5.7,3,10.9,7.9,13.8v6.1h-7.9c-6.5,0-11.8,5.4-11.8,12v19.9h2.6v-19.9c0-5.1,4.1-9.3,9.2-9.3h1.8l-3,6c-.3.7,0,1.4.6,1.8l4.3,2.2-1.1,4.3c-.1.5,0,1.1.5,1.4l11.8,8s.1,0,.2,0c0,0,.1,0,.2,0,.2,0,.5,0,.8,0,0,0,.1,0,.2,0,0,0,.1,0,.2,0l11.8-8c.5-.3.7-.9.6-1.4l-1.1-4.3,4.3-2.2c.6-.3.9-1.1.6-1.8l-3-6.1h1.8c5.1,0,9.2,4.2,9.2,9.3v19.9c0,.7.5,1.2,1.1,1.3,0,0,.1,0,.2,0,.6,0,1.1-.4,1.3-1l3.5-12.3h7.8l-3.3,11.6,2.5.7,5-17.6h4.3c2.2,0,3.9-1.8,3.9-4v-4c0-2.2-1.8-4-3.9-4h0ZM89.4,56.9c1.4,0,2.6,1.2,2.6,2.7s-1.2,2.7-2.6,2.7v-5.3ZM57.8,62.2c-1.4,0-2.6-1.2-2.6-2.7s1.2-2.7,2.6-2.7v5.3ZM58,39.7h21c4.4,0,7.9,3.6,7.9,8v5.3c-1.7-1.3-2.6-3.2-2.6-5.3s-.6-1.3-1.3-1.3h-17.1c-1.8,0-3.6-.6-5-1.8-1.5-1.2-2.5-2.9-2.8-4.8ZM60.5,64.9v-13.7c0-1.1.2-2.3.5-3.4,1.5.8,3.1,1.2,4.8,1.1h15.9c.4,2.4,1.6,4.6,3.6,6.1l1.6,1.2v8.6c0,7.3-5.9,13.3-13.2,13.3s-13.2-5.9-13.2-13.3h0ZM78.9,79.9v4.9h-10.5v-4.9c3.4,1.2,7.1,1.2,10.5,0ZM63.3,101.5l1.1-4.4c.1-.6-.1-1.2-.7-1.5l-4.1-2.1,3-6h.9l7.4,19.1-7.6-5.1ZM70.3,97.7l-4-10.3h2.5l2.1,4.2-.7,6h0ZM73.6,106.4l-1.3-3.3,1.1-10.3h.3l1.1,10.3-1.3,3.3ZM74.1,90.1h-1l-1.3-2.7h3.6l-1.3,2.7ZM78.4,87.5h2.5l-4,10.3-.7-6,2.1-4.2h0ZM87.7,93.5l-4.1,2.1c-.6.3-.8.9-.7,1.5l1.1,4.4-7.6,5.1,7.4-19.1h.9l3,6ZM113.3,102.1h-7.8l.8-2.7h7.8l-.8,2.7ZM122.4,95.4c0,.7-.6,1.3-1.3,1.3h-14.2l1.9-8.6c.2-.7.6-1.4,1.3-1.7l5.8-3.3c.5-.3,1.2-.1,1.5.4.1.2.2.5.1.8,0,.3-.2.5-.5.7l-4.4,2.7c-.3.2-.5.4-.6.7l-1.3,4,2.5.8,1-3.1h7c.7,0,1.3.6,1.3,1.3v4Z"/>
      <path class="st2" d="M119.7,37h-17.1c-2.9,0-5.3,2.4-5.3,5.3v15.9c0,2.9,2.4,5.3,5.3,5.3h3.9v5.3c0,.7.6,1.3,1.3,1.3s.7-.1.9-.4l6.2-6.3h4.7c2.9,0,5.3-2.4,5.3-5.3v-15.9c0-2.9-2.4-5.3-5.3-5.3h0ZM122.4,58.2c0,1.5-1.2,2.7-2.6,2.7h-5.3c-.4,0-.7.1-.9.4l-4.3,4.4v-3.4c0-.7-.6-1.3-1.3-1.3h-5.3c-1.4,0-2.6-1.2-2.6-2.7v-15.9c0-1.5,1.2-2.7,2.6-2.7h17.1c1.4,0,2.6,1.2,2.6,2.7v15.9Z"/>
      <path class="st2" d="M111.8,43.6h-9.2v2.7h9.2v-2.7Z"/>
      <path class="st2" d="M119.7,43.6h-5.3v2.7h5.3v-2.7Z"/>
      <path class="st2" d="M119.7,49h-17.1v2.7h17.1v-2.7Z"/>
      <path class="st2" d="M111.8,54.3h-9.2v2.7h9.2v-2.7Z"/>
      <path class="st2" d="M65.8,62.2c1.5,0,2.6-1.2,2.6-2.7s-1.2-2.7-2.6-2.7-2.6,1.2-2.6,2.7,1.2,2.7,2.6,2.7Z"/>
      <path class="st2" d="M81.6,62.2c1.5,0,2.6-1.2,2.6-2.7s-1.2-2.7-2.6-2.7-2.6,1.2-2.6,2.7,1.2,2.7,2.6,2.7Z"/>
      <path class="st2" d="M57.8,100.7h-2.6v15.9h2.6v-15.9Z"/>
      <path class="st2" d="M92.1,100.7h-2.6v15.9h2.6v-15.9Z"/>
      <path class="st2" d="M75,67.5v-2.7h-2.2l2.2-7.6-2.5-.7-2.6,9.3c-.2.7.2,1.4.9,1.6.1,0,.2,0,.4,0h3.9,0Z"/>
      <path class="st2" d="M78,67.9c-1.4,1.5-3.4,2.3-5.4,2.3h-1.5v2.7h1.5c2.7,0,5.4-1.1,7.3-3l-1.9-1.9h0Z"/>
      <path class="st2" d="M75,114h-2.6v2.7h2.6v-2.7Z"/>
    </g>
  </g>
</svg>