<svg width="61" height="64" viewBox="0 0 61 64" fill="none" xmlns="http://www.w3.org/2000/svg">
<g id="Calque_1" clip-path="url(#clip0_2260_4701)">
<path id="Vector" d="M57.95 39.7178H55.5202L55.7947 39.5538C57.157 38.7335 57.5942 36.9596 56.7808 35.5958C56.7605 35.5548 56.73 35.5138 56.7097 35.4728C55.876 34.2116 54.2087 33.8219 52.9073 34.5704L48.4645 37.1339C47.4682 37.7081 46.7565 38.6822 46.5125 39.8101L44.7842 47.6748L42.7102 54.9652V46.9058C42.7102 41.8096 38.613 37.6876 33.5602 37.6773H27.4602V32.9401C31.232 30.7458 33.55 26.6955 33.5602 22.2966C35.807 22.2966 37.6268 20.4612 37.6268 18.1951C37.6268 15.929 35.807 14.0936 33.5602 14.0936V8.96671C33.5602 4.43453 29.9205 0.763672 25.4268 0.763672H8.13333C7.57417 0.763672 7.11667 1.22509 7.11667 1.78905C7.11667 4.11666 8.10283 6.33148 9.821 7.87981C9.37367 9.11026 9.15 10.4125 9.15 11.7147V14.0936C6.90317 14.0936 5.08333 15.929 5.08333 18.1951C5.08333 20.4612 6.90317 22.2966 9.15 22.2966C9.15 26.6853 11.4782 30.7458 15.25 32.9401V37.6773H9.15C4.09717 37.6773 0.0101667 41.8096 0 46.9058V62.2864H2.03333V46.9058C2.03333 42.9478 5.22567 39.7281 9.15 39.7281H10.553L8.235 44.3936C7.98083 44.896 8.18417 45.5112 8.6925 45.7676L12.0272 47.4492L11.2037 50.7509C11.102 51.1713 11.2647 51.6122 11.6205 51.8583L20.7705 58.0106C20.7705 58.0106 20.8518 58.0516 20.8925 58.0721C20.9332 58.1029 20.984 58.1234 21.0348 58.1337C21.228 58.1952 21.4313 58.1952 21.6245 58.1337C21.6753 58.1132 21.716 58.0926 21.7668 58.0721C21.8075 58.0516 21.8482 58.0311 21.8888 58.0106L31.0388 51.8583C31.3947 51.6225 31.5675 51.1816 31.4658 50.7509L30.6525 47.4492L33.9872 45.7676C34.4853 45.5112 34.6887 44.896 34.4447 44.3936L32.1267 39.7178H33.5297C37.454 39.7178 40.6463 42.9375 40.6463 46.8955V62.2762C40.6463 62.7889 41.0225 63.2195 41.5207 63.2913C41.5715 63.2913 41.6122 63.3016 41.663 63.2913C42.1205 63.2913 42.517 62.9837 42.639 62.553L45.3332 53.0375H51.3518L48.8203 61.9788L50.7723 62.5428L54.6255 48.936H57.9297C59.6173 48.936 60.9797 47.562 60.9797 45.8599V42.7837C60.9797 41.0816 59.6173 39.7076 57.9297 39.7076L57.95 39.7178ZM33.55 16.1341C34.6683 16.1341 35.5833 17.057 35.5833 18.1849C35.5833 19.3128 34.6683 20.2356 33.55 20.2356V16.1341ZM9.15 20.2356C8.03167 20.2356 7.11667 19.3128 7.11667 18.1849C7.11667 17.057 8.03167 16.1341 9.15 16.1341V20.2356ZM9.23133 2.80418H25.4167C28.7818 2.80418 31.5167 5.56245 31.5167 8.95645V13.058C30.2357 12.0839 29.4833 10.5663 29.4833 8.95645C29.4833 8.3925 29.0258 7.93107 28.4667 7.93107H15.25C13.847 7.93107 12.4847 7.44915 11.407 6.54681C10.2582 5.60346 9.4855 4.27047 9.23133 2.80418ZM11.1833 22.2864V11.7045C11.1833 10.8226 11.3155 9.94082 11.5697 9.08975C12.7083 9.67422 13.969 9.98183 15.25 9.97158H27.5212C27.7957 11.848 28.792 13.5502 30.2967 14.6883L31.5167 15.6112V22.2761C31.5167 27.9362 26.962 32.5299 21.35 32.5299C15.738 32.5299 11.1833 27.9362 11.1833 22.2761V22.2864ZM25.4167 33.8732V37.6671H17.2833V33.8732C19.9165 34.8268 22.7835 34.8268 25.4167 33.8732ZM13.359 50.5459L14.2028 47.1416C14.3147 46.6699 14.1012 46.188 13.6742 45.9727L10.5225 44.3833L12.8303 39.7178H13.542L19.2353 54.4936L13.359 50.5459ZM18.7778 47.644L15.7177 39.7178H17.6697L19.2862 42.9785L18.7677 47.644H18.7778ZM21.35 54.3192L20.3638 51.7661L21.2483 43.8091H21.4618L22.3362 51.7661L21.35 54.3192ZM21.7363 41.7686H20.9637L19.947 39.7178H22.753L21.7363 41.7686ZM25.0303 39.7178H26.9823L23.9222 47.644L23.4037 42.9785L25.0202 39.7178H25.0303ZM32.1877 44.3833L29.036 45.9727C28.609 46.188 28.3853 46.6699 28.5073 47.1416L29.3512 50.5459L23.4748 54.4936L29.1682 39.7178H29.8798L32.1877 44.3833ZM51.9517 50.997H45.933L46.5125 48.9463H52.5312L51.9517 50.997ZM58.9667 45.8701C58.9667 46.4341 58.5092 46.8955 57.95 46.8955H47.0208L48.4848 40.2408C48.6068 39.6768 48.9627 39.1949 49.4608 38.9078L53.9037 36.3443C54.3002 36.1188 54.8085 36.2521 55.0423 36.6622C55.144 36.8468 55.1745 37.0621 55.1338 37.2672C55.083 37.4928 54.9407 37.6876 54.7475 37.8004L51.3213 39.8717C51.118 39.9947 50.9655 40.1998 50.8842 40.4254L49.8675 43.5015L51.7992 44.1475L52.582 41.7686H57.95C58.5092 41.7686 58.9667 42.23 58.9667 42.794V45.8701Z" fill="white"/>
<path id="Vector_2" d="M56.9337 0.753906H43.7171C41.4702 0.753906 39.6504 2.58934 39.6504 4.85542V17.16C39.6504 19.4261 41.4702 21.2615 43.7171 21.2615H46.7671V25.363C46.7671 25.927 47.2246 26.3884 47.7837 26.3884C48.0582 26.3884 48.3124 26.2756 48.5056 26.091L53.2941 21.2615H56.9439C59.1907 21.2615 61.0106 19.4261 61.0106 17.16V4.85542C61.0106 2.58934 59.1907 0.753906 56.9439 0.753906H56.9337ZM58.9671 17.16C58.9671 18.2879 58.0521 19.2107 56.9337 19.2107H52.8671C52.5926 19.2107 52.3384 19.3235 52.1452 19.5081L48.8004 22.8816V20.2259C48.8004 19.6619 48.3429 19.2005 47.7837 19.2005H43.7171C42.5987 19.2005 41.6837 18.2776 41.6837 17.1497V4.85542C41.6837 3.72751 42.5987 2.80467 43.7171 2.80467H56.9337C58.0521 2.80467 58.9671 3.72751 58.9671 4.85542V17.16Z" fill="white"/>
<path id="Vector_3" d="M50.8335 5.88086H43.7168V7.93162H50.8335V5.88086Z" fill="white"/>
<path id="Vector_4" d="M56.9329 5.88086H52.8662V7.93162H56.9329V5.88086Z" fill="white"/>
<path id="Vector_5" d="M56.9335 9.98242H43.7168V12.0332H56.9335V9.98242Z" fill="white"/>
<path id="Vector_6" d="M50.8335 14.084H43.7168V16.1347H50.8335V14.084Z" fill="white"/>
<path id="Vector_7" d="M15.2501 20.2363C16.3731 20.2363 17.2835 19.3181 17.2835 18.1855C17.2835 17.0529 16.3731 16.1348 15.2501 16.1348C14.1272 16.1348 13.2168 17.0529 13.2168 18.1855C13.2168 19.3181 14.1272 20.2363 15.2501 20.2363Z" fill="white"/>
<path id="Vector_8" d="M27.4503 20.2363C28.5733 20.2363 29.4837 19.3181 29.4837 18.1855C29.4837 17.0529 28.5733 16.1348 27.4503 16.1348C26.3273 16.1348 25.417 17.0529 25.417 18.1855C25.417 19.3181 26.3273 20.2363 27.4503 20.2363Z" fill="white"/>
<path id="Vector_9" d="M9.14954 49.9717H7.11621V62.2762H9.14954V49.9717Z" fill="white"/>
<path id="Vector_10" d="M35.5831 49.9717H33.5498V62.2762H35.5831V49.9717Z" fill="white"/>
<path id="Vector_11" d="M22.3668 24.3378V22.287H20.6689L22.3363 16.4116L20.3843 15.8477L18.3509 23.0253C18.1984 23.5688 18.5136 24.1327 19.0524 24.2968C19.1439 24.3275 19.2354 24.3378 19.3269 24.3378H22.3769H22.3668Z" fill="white"/>
<path id="Vector_12" d="M24.6946 24.6348C23.5864 25.7627 22.0716 26.3882 20.5059 26.3882H19.3164V28.4389H20.5059C22.6206 28.4389 24.6437 27.5981 26.1382 26.0908L24.7047 24.645L24.6946 24.6348Z" fill="white"/>
<path id="Vector_13" d="M22.3663 60.2256H20.333V62.2763H22.3663V60.2256Z" fill="white"/>
</g>
<defs>
<clipPath id="clip0_2260_4701">
<rect width="61" height="62.5482" fill="white" transform="translate(0 0.753906)"/>
</clipPath>
</defs>
</svg>
