<?xml version="1.0" standalone="no"?>
<!DOCTYPE svg PUBLIC "-//W3C//DTD SVG 20010904//EN"
 "http://www.w3.org/TR/2001/REC-SVG-20010904/DTD/svg10.dtd">
<svg version="1.0" xmlns="http://www.w3.org/2000/svg"
 width="512.000000pt" height="512.000000pt" viewBox="0 0 512.000000 512.000000"
 preserveAspectRatio="xMidYMid meet">

<g transform="translate(0.000000,512.000000) scale(0.100000,-0.100000)"
fill="#000000" stroke="none">
<path d="M0 2560 l0 -2220 2560 0 2560 0 0 2220 0 2220 -2560 0 -2560 0 0
-2220z m4820 0 l0 -1920 -2260 0 -2260 0 0 1920 0 1920 2260 0 2260 0 0 -1920z"/>
<path d="M690 2905 l0 -1185 495 0 495 0 0 150 0 150 -345 0 -345 0 0 195 0
195 690 0 690 0 0 150 0 150 -690 0 -690 0 0 540 0 540 538 -2 537 -3 3 -342
2 -343 150 0 150 0 0 345 0 345 880 0 880 0 0 -195 0 -195 -345 0 -345 0 0
-150 0 -150 345 0 345 0 0 -540 0 -540 -537 2 -538 3 -3 688 -2 688 -148 -3
-147 -3 -3 -687 -2 -688 -340 0 -340 0 0 -150 0 -150 1180 0 1180 0 0 1185 0
1185 -1870 0 -1870 0 0 -1185z"/>
<path d="M2752 1183 l3 -148 148 -3 147 -3 0 151 0 150 -150 0 -151 0 3 -147z"/>
<path d="M3440 1180 l0 -150 495 0 495 0 0 150 0 150 -495 0 -495 0 0 -150z"/>
</g>
</svg>
