<svg width="11" height="10" viewBox="0 0 11 10" fill="none" xmlns="http://www.w3.org/2000/svg">
<path d="M10.1402 1.42465V7.78861C10.1402 7.98787 10.0611 8.17897 9.92017 8.31986C9.77928 8.46076 9.58818 8.53991 9.38892 8.53991C9.18967 8.53992 8.99857 8.46076 8.85767 8.31986C8.71678 8.17897 8.63762 7.98787 8.63762 7.78861L8.63851 3.23661L2.14196 9.73316C2.00131 9.87381 1.81054 9.95283 1.61163 9.95283C1.41272 9.95283 1.22195 9.87381 1.0813 9.73316C0.94065 9.59251 0.861632 9.40174 0.861632 9.20283C0.861632 9.00391 0.94065 8.81315 1.0813 8.6725L7.57785 2.17595L3.0254 2.17463C2.82615 2.17463 2.63505 2.09547 2.49415 1.95458C2.35326 1.81368 2.2741 1.62258 2.2741 1.42333C2.2741 1.22407 2.35326 1.03297 2.49415 0.892077C2.63505 0.751181 2.82615 0.672026 3.0254 0.672026H9.38936C9.48815 0.671913 9.58598 0.691315 9.67725 0.729119C9.76851 0.766924 9.85141 0.822386 9.92118 0.892319C9.99095 0.962253 10.0462 1.04528 10.0838 1.13663C10.1214 1.22799 10.1406 1.32587 10.1402 1.42465Z" fill="white"/>
</svg>
