<svg width="72" height="74" viewBox="0 0 72 74" fill="none" xmlns="http://www.w3.org/2000/svg">
<g clip-path="url(#clip0_2500_3386)">
<path d="M71.9926 13.436C71.9926 10.8407 69.8707 8.72743 67.2576 8.72743H49.0696C44.2378 -2.91415 27.6505 -2.90674 22.8262 8.72743H4.74243C2.12925 8.72743 0.00744494 10.8407 0.00744494 13.436C0.00744494 16.7727 0.00744494 53.5735 0 55.6126C0 58.2078 2.12181 60.3285 4.73498 60.3285H28.7672V65.9639H25.8042C22.99 65.9639 20.7044 68.2404 20.7044 71.0432V73.0675C20.7044 73.4976 21.0543 73.8535 21.4935 73.8535H50.5139C50.9457 73.8535 51.3031 73.505 51.3031 73.0675V71.0432C51.3031 68.2404 49.0175 65.9639 46.2033 65.9639H43.2402V60.3285H67.265C69.8707 60.3285 71.9926 58.2153 71.9926 55.6126V50.3331C71.9926 50.3331 71.9926 13.4582 72 13.436H71.9926ZM48.7941 17.7293C51.586 17.4252 51.5934 21.6518 48.7941 21.3478V17.7293ZM22.3274 22.7937C22.1264 24.5214 22.0072 26.2788 21.9998 28.0361C21.8509 29.1855 22.722 30.2532 23.8983 30.2458H31.172C31.3357 30.3496 31.4995 30.4386 31.6633 30.535L31.5814 32.8485C30.6508 32.2775 29.482 32.1589 28.4769 32.6112L22.1636 35.3622C20.2949 36.2223 18.992 37.9723 18.59 40.2116L16.8851 49.5249H5.87406V14.5705H21.769V16.4909C19.0963 17.7589 19.4462 22.0226 22.3274 22.7937ZM33.3012 34.0423L33.1151 33.9162L33.2119 31.2098C33.2119 31.3951 35.2295 31.6398 35.4081 31.6547C36.5398 31.7436 37.6937 31.6398 38.7807 31.321C38.803 31.929 38.8551 33.3008 38.8775 33.9237C38.5871 34.1313 36.3536 35.6884 36.0037 35.9257L33.3012 34.0423ZM34.9391 37.1121C33.8596 38.8324 32.7131 40.6268 31.6261 42.3545L28.6481 34.2499L29.1246 34.0423C30.1892 33.4713 31.3283 34.6133 32.1547 35.1545L34.9391 37.1121ZM39.8081 35.1916C40.2846 34.9099 41.3566 33.9756 41.915 33.9237C42.384 33.8347 42.9424 34.0423 43.3668 34.2499C42.4213 36.8971 41.4757 39.5442 40.5302 42.1914C39.9123 41.2719 37.7458 38.0612 37.0907 37.0899L39.8006 35.1916H39.8081ZM39.3763 29.4079C35.0135 31.5064 29.7053 28.6516 28.3057 24.21L31.3432 26.6421C31.4846 26.7533 31.6559 26.8127 31.8346 26.8127H33.8075C34.6115 28.5848 37.8575 28.1399 37.865 26.1231C37.865 24.2248 34.8795 23.6687 33.9266 25.2407H32.11L27.7547 21.7556C27.7175 21.8075 27.7398 18.2261 27.7324 18.1593C30.4126 18.5968 33.2565 18.2409 35.7357 17.1212C35.8995 17.0471 37.3513 16.1721 37.4183 16.2166C39.5252 17.6403 42.1309 18.3002 44.6622 18.0333V20.7249C44.6622 24.3064 42.5776 27.9175 39.3763 29.4005V29.4079ZM35.222 26.1231C35.222 26.0637 35.4081 25.8784 35.758 25.8784C36.108 25.8784 36.2941 26.0637 36.2941 26.1231C36.2941 26.1824 36.108 26.3678 35.758 26.3678C35.4081 26.3678 35.222 26.1824 35.222 26.1231ZM43.2402 28.5107C44.4388 27.2205 45.3173 25.6411 45.7864 23.9505C46.6202 24.3805 47.6774 24.1581 48.2953 23.4611C48.4814 25.0627 48.5559 26.694 48.5633 28.3253C48.5633 28.5107 48.407 28.6664 48.2209 28.6664H43.0987C43.1434 28.6145 43.1881 28.5552 43.2328 28.5033L43.2402 28.5107ZM47.2232 22.1041C47.2307 22.7566 46.2405 22.7641 46.2331 22.1264C46.2331 21.2069 46.2331 18.1148 46.2331 17.1435C46.1512 16.5503 46.7393 16.2685 47.0892 16.6318C47.1711 16.7208 47.2232 16.832 47.2232 16.9655V22.1115V22.1041ZM46.6351 14.9116C45.7417 14.9486 44.96 15.5937 44.7292 16.4465C42.317 16.7653 39.8602 16.1054 37.9096 14.6372C37.6416 14.437 37.2619 14.4296 36.9865 14.6224C34.3212 16.4687 30.8742 17.1954 27.6952 16.5503C27.4867 15.527 26.4519 14.7855 25.4096 14.919C27.308 2.5433 44.8036 2.56555 46.7319 14.9041C46.7021 14.9041 46.6723 14.9116 46.6425 14.9116H46.6351ZM25.6627 16.4687C26.0498 16.4687 26.2211 16.8617 26.1094 17.1954C26.1168 17.8924 26.0796 21.0067 26.1541 21.6444C26.1541 21.6444 26.1541 22.1189 26.1541 22.1264C26.1541 22.1338 26.1541 22.1486 26.1541 22.156C26.1094 22.7715 25.1713 22.7492 25.1713 22.1264V16.9655C25.1713 16.6912 25.4096 16.4835 25.6701 16.4687H25.6627ZM25.1713 24.1062C25.6329 24.2322 26.1317 24.1655 26.571 23.9727C26.9805 25.5521 28.0823 27.4578 29.2512 28.6738H23.8983C23.7121 28.6738 23.5632 28.5255 23.5632 28.3327C23.5632 26.5902 23.66 24.8625 23.8685 23.157C24.1737 23.6168 24.6279 23.9801 25.1713 24.1062ZM20.146 40.4785C20.3991 38.9288 21.434 37.3642 22.8038 36.7933L27.2113 34.8802L30.7104 44.3937C30.9114 44.9943 31.7973 45.0907 32.1175 44.542C33.3235 42.6141 34.8423 40.2338 36.0409 38.3282C37.1651 39.9966 39.0115 42.7327 40.1133 44.3788C40.4484 44.9127 41.3194 44.8015 41.5055 44.2083C42.6074 41.1014 43.7167 38.0093 44.826 34.9024L49.2036 36.8081C50.566 37.4161 51.6009 38.8917 51.8689 40.5008C52.2188 42.399 53.1569 47.5673 53.5217 49.5323H18.4858L20.1386 40.4934L20.146 40.4785ZM53.4025 40.1968C53.008 38.0983 51.7498 36.2297 49.8141 35.3548L44.7664 33.1599C43.3891 32.4777 41.8182 31.9364 40.4111 32.8633C40.3888 32.3813 40.3516 31.2098 40.3292 30.7204C40.6121 30.5721 40.895 30.4089 41.1705 30.2458H48.2209C49.5088 30.2458 50.3055 29.0223 50.1268 27.8285C50.1193 26.1675 50.0002 24.5066 49.8066 22.8604C53.1569 22.1931 53.3206 17.3363 50.1342 16.3056V14.5779H66.1259V49.5249H55.1074C54.6905 47.2336 53.8195 42.4732 53.4025 40.2042V40.1968ZM23.3399 14.0885C23.2952 7.35565 28.9459 1.48295 35.9516 1.52003C43.7837 1.62384 49.278 8.40858 48.5633 16.0386C46.8361 0.0147788 25.0373 0.0666851 23.6228 16.1647H23.3399V14.0885ZM23.191 17.7293H23.593V21.3478C21.0692 21.6963 20.6895 17.8701 23.191 17.7293ZM1.57833 13.436C1.57833 11.7008 2.99287 10.292 4.73498 10.292H22.2753C22.0519 11.1818 21.8881 12.0864 21.8062 12.9985H5.08489C4.65309 12.9985 4.29573 13.347 4.29573 13.7845V49.51H1.57833V13.436ZM46.1958 67.5285C48.139 67.5285 49.7247 69.1005 49.7247 71.0432V72.2815H22.2753V71.0432C22.2753 69.1079 23.8536 67.5285 25.8042 67.5285H46.2033H46.1958ZM30.3381 65.9639V60.3285H41.6619V65.9639H30.3381ZM70.4142 55.6126C70.4142 57.3477 68.9997 58.764 67.265 58.764H4.73498C2.99287 58.764 1.57088 57.3551 1.57088 55.6126V51.082C20.2056 51.1043 51.7721 51.1043 70.4142 51.082V55.6126ZM70.4217 49.5174H67.7043V13.7919C67.7043 13.3618 67.3544 13.0059 66.9151 13.0059H50.097C50.0151 12.0938 49.8439 11.1892 49.628 10.2994H67.265C69.0071 10.2994 70.4217 11.7083 70.4217 13.4434V49.5249V49.5174Z" fill="black"/>
</g>
<defs>
<clipPath id="clip0_2500_3386">
<rect width="72" height="73.8461" fill="white"/>
</clipPath>
</defs>
</svg>
