<svg width="32" height="32" viewBox="0 0 32 32" fill="none" xmlns="http://www.w3.org/2000/svg">
<mask id="path-1-outside-1_2367_2523" maskUnits="userSpaceOnUse" x="-0.15918" y="-0.00195312" width="32" height="32" fill="black">
<rect fill="white" x="-0.15918" y="-0.00195312" width="32" height="32"/>
<path d="M30.4131 17.5253H30.2184L26.3499 8.47331C26.8606 8.25307 27.2213 7.74557 27.2213 7.15189C27.2213 6.9157 27.0298 6.72738 26.7968 6.72738C26.5638 6.72738 26.3723 6.91889 26.3723 7.15189C26.3723 7.47427 26.1105 7.73919 25.785 7.73919C25.0668 7.73919 24.1476 7.43916 23.174 7.11998C22.1622 6.78802 21.0132 6.41458 19.8226 6.28052C19.446 6.23903 19.047 6.20392 18.6353 6.172C18.5491 5.3517 18.1054 4.63992 17.4671 4.18349V2.62588C17.4671 1.72898 16.7361 0.998047 15.836 0.998047C14.9359 0.998047 14.2082 1.72898 14.2082 2.62588V4.18349C13.5698 4.63992 13.1294 5.3517 13.04 6.172C12.6282 6.20392 12.2261 6.23903 11.8526 6.28052C10.6621 6.41458 9.51302 6.78802 8.50121 7.11998C7.5277 7.43916 6.60846 7.73919 5.89029 7.73919C5.56792 7.73919 5.303 7.47746 5.303 7.15189C5.303 6.9157 5.11149 6.72738 4.87848 6.72738C4.64548 6.72738 4.45397 6.91889 4.45397 7.15189C4.45397 7.74238 4.81465 8.25307 5.32534 8.47331L1.46004 17.5253H1.26533C1.02914 17.5253 0.84082 17.7168 0.84082 17.9499C0.84082 18.8755 1.39301 19.7309 2.39524 20.3597C3.33683 20.947 4.57845 21.2725 5.89349 21.2725C7.20852 21.2725 8.45014 20.947 9.39173 20.3597C10.394 19.7309 10.9462 18.8755 10.9462 17.9499C10.9462 17.7137 10.7546 17.5253 10.5216 17.5253H10.3269L6.48397 8.54353C7.18618 8.44458 7.9586 8.19243 8.76613 7.9307C9.78752 7.59556 10.844 7.25084 11.9484 7.12955C12.3059 7.09125 12.6889 7.05614 13.0815 7.02741C13.2219 7.74238 13.6369 8.3584 14.2114 8.76696V25.2304H13.6975C12.5963 25.2304 11.6994 26.1273 11.6962 27.2285H10.8153C9.77475 27.2285 8.92892 28.0743 8.92892 29.1149V29.9703C8.92892 30.5384 9.39173 31.0012 9.95988 31.0012H21.7154C22.2835 31.0012 22.7463 30.5384 22.7463 29.9703V29.1149C22.7463 28.0743 21.9005 27.2285 20.86 27.2285H19.979C19.9758 26.1273 19.0789 25.2304 17.9778 25.2304H17.4671V8.76377C18.0416 8.35521 18.4533 7.73919 18.597 7.02422C18.9896 7.05295 19.3726 7.08806 19.7301 7.12636C20.8344 7.25084 21.8909 7.59556 22.9123 7.92751C23.7199 8.19243 24.4891 8.44139 25.1945 8.54034L21.3547 17.5253H21.16C20.9238 17.5253 20.7355 17.7168 20.7355 17.9499C20.7355 18.8755 21.2877 19.7309 22.2899 20.3597C23.2315 20.947 24.4731 21.2725 25.7882 21.2725C27.1032 21.2725 28.3448 20.947 29.2864 20.3597C30.2886 19.7309 30.8408 18.8755 30.8408 17.9499C30.8344 17.7168 30.6461 17.5253 30.4099 17.5253H30.4131ZM5.89349 20.4235C3.86029 20.4235 2.11117 19.5234 1.75688 18.3776H10.0301C9.6758 19.5234 7.92349 20.4235 5.89349 20.4235ZM2.38567 17.5253L5.89349 9.31595L9.40131 17.5253H2.38567ZM15.0604 2.62588C15.0604 2.19817 15.4083 1.84707 15.8392 1.84707C16.2701 1.84707 16.618 2.19498 16.618 2.62588V3.77175C16.3723 3.70153 16.1105 3.66003 15.8392 3.66003C15.5679 3.66003 15.3094 3.70153 15.0604 3.77175V2.62588ZM21.9005 29.1117V29.9671C21.9005 30.066 21.8175 30.149 21.7186 30.149H9.95988C9.86093 30.149 9.77794 30.066 9.77794 29.9671V29.1117C9.77794 28.5403 10.2439 28.0743 10.8153 28.0743H20.8632C21.4345 28.0743 21.9005 28.5403 21.9005 29.1117ZM19.13 27.2253H12.5484C12.5516 26.5933 13.0655 26.0762 13.6975 26.0762H17.9778C18.6129 26.0762 19.13 26.5933 19.13 27.2253ZM16.618 25.2272H15.0636V9.17551C15.3094 9.24573 15.5711 9.28723 15.8424 9.28723C16.1137 9.28723 16.3723 9.24573 16.6212 9.17551V25.2272H16.618ZM15.8392 8.43501C14.7572 8.43501 13.8763 7.55406 13.8763 6.47203C13.8763 5.39 14.7572 4.50906 15.8392 4.50906C16.9213 4.50906 17.8022 5.39 17.8022 6.47203C17.8022 7.55406 16.9213 8.43501 15.8392 8.43501ZM25.785 9.31595L29.2928 17.5253H22.2803L25.785 9.31595ZM25.785 20.4235C23.7518 20.4235 22.0026 19.5234 21.6484 18.3776H29.9216C29.5705 19.5234 27.8182 20.4235 25.785 20.4235ZM16.5989 6.47523C16.5989 6.89335 16.2574 7.23488 15.8392 7.23488C15.4211 7.23488 15.0796 6.89335 15.0796 6.47523C15.0796 6.0571 15.4211 5.71557 15.8392 5.71557C16.2574 5.71557 16.5989 6.0539 16.5989 6.47523Z"/>
</mask>
<path d="M30.4131 17.5253H30.2184L26.3499 8.47331C26.8606 8.25307 27.2213 7.74557 27.2213 7.15189C27.2213 6.9157 27.0298 6.72738 26.7968 6.72738C26.5638 6.72738 26.3723 6.91889 26.3723 7.15189C26.3723 7.47427 26.1105 7.73919 25.785 7.73919C25.0668 7.73919 24.1476 7.43916 23.174 7.11998C22.1622 6.78802 21.0132 6.41458 19.8226 6.28052C19.446 6.23903 19.047 6.20392 18.6353 6.172C18.5491 5.3517 18.1054 4.63992 17.4671 4.18349V2.62588C17.4671 1.72898 16.7361 0.998047 15.836 0.998047C14.9359 0.998047 14.2082 1.72898 14.2082 2.62588V4.18349C13.5698 4.63992 13.1294 5.3517 13.04 6.172C12.6282 6.20392 12.2261 6.23903 11.8526 6.28052C10.6621 6.41458 9.51302 6.78802 8.50121 7.11998C7.5277 7.43916 6.60846 7.73919 5.89029 7.73919C5.56792 7.73919 5.303 7.47746 5.303 7.15189C5.303 6.9157 5.11149 6.72738 4.87848 6.72738C4.64548 6.72738 4.45397 6.91889 4.45397 7.15189C4.45397 7.74238 4.81465 8.25307 5.32534 8.47331L1.46004 17.5253H1.26533C1.02914 17.5253 0.84082 17.7168 0.84082 17.9499C0.84082 18.8755 1.39301 19.7309 2.39524 20.3597C3.33683 20.947 4.57845 21.2725 5.89349 21.2725C7.20852 21.2725 8.45014 20.947 9.39173 20.3597C10.394 19.7309 10.9462 18.8755 10.9462 17.9499C10.9462 17.7137 10.7546 17.5253 10.5216 17.5253H10.3269L6.48397 8.54353C7.18618 8.44458 7.9586 8.19243 8.76613 7.9307C9.78752 7.59556 10.844 7.25084 11.9484 7.12955C12.3059 7.09125 12.6889 7.05614 13.0815 7.02741C13.2219 7.74238 13.6369 8.3584 14.2114 8.76696V25.2304H13.6975C12.5963 25.2304 11.6994 26.1273 11.6962 27.2285H10.8153C9.77475 27.2285 8.92892 28.0743 8.92892 29.1149V29.9703C8.92892 30.5384 9.39173 31.0012 9.95988 31.0012H21.7154C22.2835 31.0012 22.7463 30.5384 22.7463 29.9703V29.1149C22.7463 28.0743 21.9005 27.2285 20.86 27.2285H19.979C19.9758 26.1273 19.0789 25.2304 17.9778 25.2304H17.4671V8.76377C18.0416 8.35521 18.4533 7.73919 18.597 7.02422C18.9896 7.05295 19.3726 7.08806 19.7301 7.12636C20.8344 7.25084 21.8909 7.59556 22.9123 7.92751C23.7199 8.19243 24.4891 8.44139 25.1945 8.54034L21.3547 17.5253H21.16C20.9238 17.5253 20.7355 17.7168 20.7355 17.9499C20.7355 18.8755 21.2877 19.7309 22.2899 20.3597C23.2315 20.947 24.4731 21.2725 25.7882 21.2725C27.1032 21.2725 28.3448 20.947 29.2864 20.3597C30.2886 19.7309 30.8408 18.8755 30.8408 17.9499C30.8344 17.7168 30.6461 17.5253 30.4099 17.5253H30.4131ZM5.89349 20.4235C3.86029 20.4235 2.11117 19.5234 1.75688 18.3776H10.0301C9.6758 19.5234 7.92349 20.4235 5.89349 20.4235ZM2.38567 17.5253L5.89349 9.31595L9.40131 17.5253H2.38567ZM15.0604 2.62588C15.0604 2.19817 15.4083 1.84707 15.8392 1.84707C16.2701 1.84707 16.618 2.19498 16.618 2.62588V3.77175C16.3723 3.70153 16.1105 3.66003 15.8392 3.66003C15.5679 3.66003 15.3094 3.70153 15.0604 3.77175V2.62588ZM21.9005 29.1117V29.9671C21.9005 30.066 21.8175 30.149 21.7186 30.149H9.95988C9.86093 30.149 9.77794 30.066 9.77794 29.9671V29.1117C9.77794 28.5403 10.2439 28.0743 10.8153 28.0743H20.8632C21.4345 28.0743 21.9005 28.5403 21.9005 29.1117ZM19.13 27.2253H12.5484C12.5516 26.5933 13.0655 26.0762 13.6975 26.0762H17.9778C18.6129 26.0762 19.13 26.5933 19.13 27.2253ZM16.618 25.2272H15.0636V9.17551C15.3094 9.24573 15.5711 9.28723 15.8424 9.28723C16.1137 9.28723 16.3723 9.24573 16.6212 9.17551V25.2272H16.618ZM15.8392 8.43501C14.7572 8.43501 13.8763 7.55406 13.8763 6.47203C13.8763 5.39 14.7572 4.50906 15.8392 4.50906C16.9213 4.50906 17.8022 5.39 17.8022 6.47203C17.8022 7.55406 16.9213 8.43501 15.8392 8.43501ZM25.785 9.31595L29.2928 17.5253H22.2803L25.785 9.31595ZM25.785 20.4235C23.7518 20.4235 22.0026 19.5234 21.6484 18.3776H29.9216C29.5705 19.5234 27.8182 20.4235 25.785 20.4235ZM16.5989 6.47523C16.5989 6.89335 16.2574 7.23488 15.8392 7.23488C15.4211 7.23488 15.0796 6.89335 15.0796 6.47523C15.0796 6.0571 15.4211 5.71557 15.8392 5.71557C16.2574 5.71557 16.5989 6.0539 16.5989 6.47523Z" fill="#EA5B0B"/>
<path d="M30.4131 17.5253H30.2184L26.3499 8.47331C26.8606 8.25307 27.2213 7.74557 27.2213 7.15189C27.2213 6.9157 27.0298 6.72738 26.7968 6.72738C26.5638 6.72738 26.3723 6.91889 26.3723 7.15189C26.3723 7.47427 26.1105 7.73919 25.785 7.73919C25.0668 7.73919 24.1476 7.43916 23.174 7.11998C22.1622 6.78802 21.0132 6.41458 19.8226 6.28052C19.446 6.23903 19.047 6.20392 18.6353 6.172C18.5491 5.3517 18.1054 4.63992 17.4671 4.18349V2.62588C17.4671 1.72898 16.7361 0.998047 15.836 0.998047C14.9359 0.998047 14.2082 1.72898 14.2082 2.62588V4.18349C13.5698 4.63992 13.1294 5.3517 13.04 6.172C12.6282 6.20392 12.2261 6.23903 11.8526 6.28052C10.6621 6.41458 9.51302 6.78802 8.50121 7.11998C7.5277 7.43916 6.60846 7.73919 5.89029 7.73919C5.56792 7.73919 5.303 7.47746 5.303 7.15189C5.303 6.9157 5.11149 6.72738 4.87848 6.72738C4.64548 6.72738 4.45397 6.91889 4.45397 7.15189C4.45397 7.74238 4.81465 8.25307 5.32534 8.47331L1.46004 17.5253H1.26533C1.02914 17.5253 0.84082 17.7168 0.84082 17.9499C0.84082 18.8755 1.39301 19.7309 2.39524 20.3597C3.33683 20.947 4.57845 21.2725 5.89349 21.2725C7.20852 21.2725 8.45014 20.947 9.39173 20.3597C10.394 19.7309 10.9462 18.8755 10.9462 17.9499C10.9462 17.7137 10.7546 17.5253 10.5216 17.5253H10.3269L6.48397 8.54353C7.18618 8.44458 7.9586 8.19243 8.76613 7.9307C9.78752 7.59556 10.844 7.25084 11.9484 7.12955C12.3059 7.09125 12.6889 7.05614 13.0815 7.02741C13.2219 7.74238 13.6369 8.3584 14.2114 8.76696V25.2304H13.6975C12.5963 25.2304 11.6994 26.1273 11.6962 27.2285H10.8153C9.77475 27.2285 8.92892 28.0743 8.92892 29.1149V29.9703C8.92892 30.5384 9.39173 31.0012 9.95988 31.0012H21.7154C22.2835 31.0012 22.7463 30.5384 22.7463 29.9703V29.1149C22.7463 28.0743 21.9005 27.2285 20.86 27.2285H19.979C19.9758 26.1273 19.0789 25.2304 17.9778 25.2304H17.4671V8.76377C18.0416 8.35521 18.4533 7.73919 18.597 7.02422C18.9896 7.05295 19.3726 7.08806 19.7301 7.12636C20.8344 7.25084 21.8909 7.59556 22.9123 7.92751C23.7199 8.19243 24.4891 8.44139 25.1945 8.54034L21.3547 17.5253H21.16C20.9238 17.5253 20.7355 17.7168 20.7355 17.9499C20.7355 18.8755 21.2877 19.7309 22.2899 20.3597C23.2315 20.947 24.4731 21.2725 25.7882 21.2725C27.1032 21.2725 28.3448 20.947 29.2864 20.3597C30.2886 19.7309 30.8408 18.8755 30.8408 17.9499C30.8344 17.7168 30.6461 17.5253 30.4099 17.5253H30.4131ZM5.89349 20.4235C3.86029 20.4235 2.11117 19.5234 1.75688 18.3776H10.0301C9.6758 19.5234 7.92349 20.4235 5.89349 20.4235ZM2.38567 17.5253L5.89349 9.31595L9.40131 17.5253H2.38567ZM15.0604 2.62588C15.0604 2.19817 15.4083 1.84707 15.8392 1.84707C16.2701 1.84707 16.618 2.19498 16.618 2.62588V3.77175C16.3723 3.70153 16.1105 3.66003 15.8392 3.66003C15.5679 3.66003 15.3094 3.70153 15.0604 3.77175V2.62588ZM21.9005 29.1117V29.9671C21.9005 30.066 21.8175 30.149 21.7186 30.149H9.95988C9.86093 30.149 9.77794 30.066 9.77794 29.9671V29.1117C9.77794 28.5403 10.2439 28.0743 10.8153 28.0743H20.8632C21.4345 28.0743 21.9005 28.5403 21.9005 29.1117ZM19.13 27.2253H12.5484C12.5516 26.5933 13.0655 26.0762 13.6975 26.0762H17.9778C18.6129 26.0762 19.13 26.5933 19.13 27.2253ZM16.618 25.2272H15.0636V9.17551C15.3094 9.24573 15.5711 9.28723 15.8424 9.28723C16.1137 9.28723 16.3723 9.24573 16.6212 9.17551V25.2272H16.618ZM15.8392 8.43501C14.7572 8.43501 13.8763 7.55406 13.8763 6.47203C13.8763 5.39 14.7572 4.50906 15.8392 4.50906C16.9213 4.50906 17.8022 5.39 17.8022 6.47203C17.8022 7.55406 16.9213 8.43501 15.8392 8.43501ZM25.785 9.31595L29.2928 17.5253H22.2803L25.785 9.31595ZM25.785 20.4235C23.7518 20.4235 22.0026 19.5234 21.6484 18.3776H29.9216C29.5705 19.5234 27.8182 20.4235 25.785 20.4235ZM16.5989 6.47523C16.5989 6.89335 16.2574 7.23488 15.8392 7.23488C15.4211 7.23488 15.0796 6.89335 15.0796 6.47523C15.0796 6.0571 15.4211 5.71557 15.8392 5.71557C16.2574 5.71557 16.5989 6.0539 16.5989 6.47523Z" stroke="#EA5B0B" stroke-width="1.6" stroke-linejoin="round" mask="url(#path-1-outside-1_2367_2523)"/>
</svg>
