<?xml version="1.0" encoding="UTF-8"?>
<svg version="1.1" xmlns="http://www.w3.org/2000/svg" width="512" height="512">
<path d="M0 0 C26.85050922 25.64579569 44.85444291 62.13817182 46.64538956 99.48354721 C46.70860991 103.53332186 46.7130944 107.57843193 46.69189453 111.62841797 C46.69132876 113.16740919 46.69165021 114.70640094 46.69277954 116.24539185 C46.69334758 120.37671115 46.68168347 124.50791159 46.66763163 128.63920355 C46.6550315 132.97399112 46.65394652 137.30878215 46.65158081 141.64358521 C46.64539308 149.83131656 46.62901935 158.01899376 46.60888183 166.2067014 C46.58643799 175.53694973 46.57550817 184.86720081 46.56549096 194.19746947 C46.54465038 213.37126021 46.5095277 232.54500073 46.46484375 251.71875 C47.54590393 251.71430878 48.62696411 251.70986755 49.74078369 251.70529175 C59.92309691 251.66476836 70.10539379 251.6347765 80.28776932 251.61512566 C85.5227723 251.6046834 90.75771024 251.59051606 95.99267578 251.56787109 C101.04362376 251.54615858 106.09450914 251.5341847 111.14550018 251.52899551 C113.07363623 251.5252969 115.0017688 251.51807456 116.92987823 251.50728989 C119.62813249 251.49279619 122.32612722 251.49077118 125.02441406 251.49169922 C125.82354721 251.48450867 126.62268036 251.47731812 127.44602966 251.46990967 C134.39306671 251.49580649 134.39306671 251.49580649 137.46484375 253.71875 C139.0194468 256.82795609 139.19205068 260.34958028 138.46484375 263.71875 C134.46484375 266.71875 134.46484375 266.71875 120.46484375 266.71875 C120.46484375 308.29875 120.46484375 349.87875 120.46484375 392.71875 C124.75484375 392.71875 129.04484375 392.71875 133.46484375 392.71875 C137.46484375 394.71875 137.46484375 394.71875 138.46484375 396.71875 C138.57047667 398.39784739 138.61359874 400.08105645 138.62597656 401.76342773 C138.63558411 402.81469345 138.64519165 403.86595917 138.65509033 404.94908142 C138.66146515 406.65844627 138.66146515 406.65844627 138.66796875 408.40234375 C138.67366882 409.56878922 138.6793689 410.73523468 138.6852417 411.93702698 C138.69470023 414.40763438 138.70122905 416.87825444 138.70507812 419.34887695 C138.71479464 423.13710386 138.74581525 426.9247909 138.77734375 430.71289062 C138.78387244 433.10937177 138.78912344 435.5058568 138.79296875 437.90234375 C138.80531555 439.03989609 138.81766235 440.17744843 138.8303833 441.34947205 C138.8273822 442.40388992 138.8243811 443.4583078 138.82128906 444.54467773 C138.82493469 445.4735228 138.82858032 446.40236786 138.83233643 447.35935974 C138.39226217 450.18474101 137.73412587 451.03013811 135.46484375 452.71875 C131.78976867 453.94377503 128.40849714 453.85904013 124.58209419 453.85017776 C123.76633453 453.8522304 122.95057486 453.85428303 122.1100952 453.85639787 C119.35309584 453.86209094 116.59614608 453.86060778 113.83914185 453.85919189 C111.85196178 453.8617742 109.86478223 453.86478698 107.87760341 453.8681953 C102.39847336 453.87628421 96.91935639 453.87805592 91.44022107 453.87879276 C85.53827896 453.88064001 79.63634369 453.88818562 73.73440552 453.89492798 C60.14785096 453.90923395 46.5612974 453.9150393 32.97473688 453.91961992 C26.26335164 453.9219548 19.55196725 453.9255573 12.84058267 453.9293153 C-10.12543652 453.9421508 -33.09145524 453.95287057 -56.05747795 453.9563179 C-57.49942285 453.95653954 -58.94136775 453.95676132 -60.38331265 453.95698325 C-61.82877056 453.95720389 -63.27422848 453.95742438 -64.71968639 453.9576447 C-67.61960212 453.95808726 -70.51951786 453.95853437 -73.41943359 453.95898438 C-74.13844532 453.95909377 -74.85745704 453.95920316 -75.598257 453.95931586 C-98.92114542 453.96294787 -122.24400278 453.97887333 -145.56687931 454.00217474 C-170.21553472 454.02675577 -194.86417237 454.04048991 -219.51284039 454.04168582 C-222.2171797 454.04185728 -224.921519 454.04207271 -227.62585831 454.04232025 C-228.62471118 454.0424039 -228.62471118 454.0424039 -229.6437429 454.04248925 C-239.70709707 454.04356974 -249.77042253 454.0528893 -259.83376694 454.06650543 C-271.27586903 454.08187163 -282.71791788 454.08704749 -294.16002832 454.07876733 C-300.00157736 454.07484861 -305.84301908 454.07584982 -311.68455505 454.08982468 C-317.0275478 454.1024904 -322.37035178 454.101431 -327.71334399 454.08923396 C-329.65074813 454.0872642 -331.5881653 454.09041385 -333.52555107 454.09907833 C-336.15084104 454.11008 -338.77545407 454.10274785 -341.40072441 454.0906868 C-342.53967725 454.10207959 -342.53967725 454.10207959 -343.70163924 454.11370254 C-348.57539685 454.06507367 -352.02557089 453.22833536 -355.53515625 449.71875 C-355.64426823 448.0777788 -355.68421838 446.43214812 -355.69628906 444.78759766 C-355.70589661 443.73625641 -355.71550415 442.68491516 -355.72540283 441.60171509 C-355.72965271 440.45697723 -355.73390259 439.31223938 -355.73828125 438.1328125 C-355.74398132 436.96495209 -355.7496814 435.79709167 -355.7555542 434.59384155 C-355.7650214 432.1172578 -355.77154497 429.64066136 -355.77539062 427.1640625 C-355.78509691 423.36696482 -355.81610521 419.57040799 -355.84765625 415.7734375 C-355.85418576 413.37239906 -355.85943644 410.97135674 -355.86328125 408.5703125 C-355.87562805 407.42962311 -355.88797485 406.28893372 -355.9006958 405.11367798 C-355.89619415 403.52720963 -355.89619415 403.52720963 -355.89160156 401.90869141 C-355.89524719 400.97683014 -355.89889282 400.04496887 -355.90264893 399.08486938 C-355.46575926 396.2719341 -354.75683788 395.4350348 -352.53515625 393.71875 C-348.05309323 391.47771849 -342.54625504 392.71875 -337.53515625 392.71875 C-337.53515625 351.13875 -337.53515625 309.55875 -337.53515625 266.71875 C-342.15515625 266.71875 -346.77515625 266.71875 -351.53515625 266.71875 C-355.53515625 263.71875 -355.53515625 263.71875 -355.99609375 261.78125 C-355.96773438 261.100625 -355.939375 260.42 -355.91015625 259.71875 C-355.89726562 259.038125 -355.884375 258.3575 -355.87109375 257.65625 C-355.53515625 255.71875 -355.53515625 255.71875 -353.53515625 252.71875 C-349.73077029 251.45062135 -346.17089585 251.58747664 -342.20825195 251.60522461 C-341.35925323 251.60507858 -340.51025452 251.60493256 -339.63552856 251.6047821 C-336.82730562 251.60547917 -334.01914887 251.61326194 -331.2109375 251.62109375 C-329.26466406 251.62295866 -327.31839016 251.62438222 -325.37211609 251.62538147 C-320.24782008 251.62920088 -315.12355239 251.63902627 -309.99926758 251.65008545 C-304.77099999 251.66031194 -299.54272783 251.66488175 -294.31445312 251.66992188 C-284.05467506 251.68064903 -273.79491801 251.69771857 -263.53515625 251.71875 C-263.53792163 250.93136003 -263.54068701 250.14397007 -263.54353619 249.3327198 C-263.61003286 230.09908449 -263.65955139 210.86547237 -263.69059277 191.63174629 C-263.70600637 182.3301389 -263.72698945 173.02860864 -263.76147461 163.72705078 C-263.79154679 155.61186125 -263.81077117 147.49672763 -263.81742173 139.38148391 C-263.82130408 135.09173711 -263.83031058 130.80215013 -263.85234642 126.51245499 C-264.02147276 92.26386997 -264.02147276 92.26386997 -260.53515625 77.71875 C-260.29810974 76.67822983 -260.06106323 75.63770966 -259.8168335 74.56565857 C-259.23206912 72.08948158 -258.56773939 69.65872402 -257.84765625 67.21875 C-257.59274414 66.34839111 -257.33783203 65.47803223 -257.07519531 64.58129883 C-245.4822254 26.47477737 -218.05313597 -6.19116362 -183.32421875 -25.43115234 C-122.34111216 -57.95794281 -49.93107794 -46.67322164 0 0 Z M-135.22265625 -26.59375 C-136.09059814 -26.41295898 -136.95854004 -26.23216797 -137.8527832 -26.04589844 C-158.87564566 -21.50020537 -189.01677517 -11.05882163 -201.53515625 7.71875 C-190.47283216 18.80440081 -179.40767203 29.88721228 -168.33909702 40.9666214 C-163.20021099 46.11067087 -158.06226886 51.25565661 -152.92651367 56.40283203 C-148.45188892 60.88740216 -143.97552835 65.37023097 -139.49704593 69.85094881 C-137.12425382 72.22504828 -134.75235963 74.60002989 -132.38253975 76.97709656 C-129.74112951 79.62571031 -127.09666297 82.27123451 -124.45141602 84.91601562 C-123.66019852 85.7108284 -122.86898102 86.50564117 -122.05378723 87.32453918 C-121.33720947 88.03974228 -120.62063171 88.75494537 -119.88233948 89.49182129 C-119.25644204 90.11864052 -118.63054461 90.74545975 -117.98568058 91.3912735 C-116.73991715 92.83127075 -116.73991715 92.83127075 -115.53515625 92.71875 C-115.53515625 52.78875 -115.53515625 12.85875 -115.53515625 -28.28125 C-122.5923852 -28.28125 -128.46805548 -28.02282699 -135.22265625 -26.59375 Z M-101.53515625 -28.28125 C-101.53515625 11.64875 -101.53515625 51.57875 -101.53515625 92.71875 C-95.96364159 87.97955848 -95.96364159 87.97955848 -90.69422913 82.99807739 C-89.6827179 81.98862816 -89.6827179 81.98862816 -88.65077209 80.95878601 C-87.93723068 80.24164932 -87.22368927 79.52451263 -86.48852539 78.78564453 C-85.331194 77.62853218 -85.331194 77.62853218 -84.15048218 76.44804382 C-81.62137907 73.91824856 -79.0958285 71.38493838 -76.5703125 68.8515625 C-74.80933645 67.08871979 -73.0481383 65.32609891 -71.28672791 63.56369019 C-66.66663558 58.93979219 -62.04955513 54.31289819 -57.43310547 49.68536377 C-52.71596357 44.95742011 -47.99541874 40.23287441 -43.27539062 35.5078125 C-34.0258559 26.24757486 -24.7794046 16.98426475 -15.53515625 7.71875 C-16.32306549 6.76100677 -17.11097473 5.80326355 -17.92276001 4.8164978 C-18.36595896 4.27776724 -18.80915791 3.73903667 -19.26578712 3.18398094 C-20.70391647 1.52395032 -22.18924757 0.25429757 -23.99609375 -0.9921875 C-24.62451172 -1.42829346 -25.25292969 -1.86439941 -25.90039062 -2.3137207 C-26.56361328 -2.75675537 -27.22683594 -3.19979004 -27.91015625 -3.65625 C-28.61205078 -4.12957764 -29.31394531 -4.60290527 -30.03710938 -5.09057617 C-51.5327918 -19.34953951 -75.54028544 -28.28125 -101.53515625 -28.28125 Z M-213.53515625 17.71875 C-229.64162557 35.79799157 -240.5806569 57.591596 -245.97265625 81.15625 C-246.12452393 81.81608887 -246.2763916 82.47592773 -246.43286133 83.15576172 C-247.84991089 90.04146065 -248.02365177 96.55768725 -248.53515625 103.71875 C-208.60515625 103.71875 -168.67515625 103.71875 -127.53515625 103.71875 C-132.27250683 98.14988298 -132.27250683 98.14988298 -137.24909973 92.87782288 C-137.92062073 92.20348206 -138.59214172 91.52914124 -139.28401184 90.83436584 C-139.99957748 90.12082443 -140.71514313 89.40728302 -141.45239258 88.67211914 C-142.22219452 87.90056488 -142.99199646 87.12901062 -143.78512573 86.33407593 C-146.30998346 83.80484479 -148.83844776 81.27925568 -151.3671875 78.75390625 C-153.12756224 76.99285759 -154.88778854 75.23166052 -156.64787292 73.47032166 C-160.32539312 69.79133097 -164.00470687 66.11414602 -167.68530273 62.43823242 C-171.47145174 58.65666436 -175.25541775 54.87293895 -179.03686523 51.08666992 C-183.60610898 46.51165015 -188.17776345 41.93905545 -192.7515316 37.36855888 C-194.49588216 35.62487739 -196.23948474 33.8804473 -197.98233986 32.13527107 C-200.40745433 29.70763386 -202.83572188 27.2831966 -205.26489258 24.85961914 C-205.99057938 24.13190811 -206.71626617 23.40419708 -207.46394348 22.6544342 C-208.12136536 21.99983215 -208.77878723 21.3452301 -209.45613098 20.67079163 C-210.02998944 20.09731019 -210.6038479 19.52382875 -211.19509602 18.93296909 C-212.35727392 17.60684075 -212.35727392 17.60684075 -213.53515625 17.71875 Z M-4.53515625 17.71875 C-15.62080706 28.78107409 -26.70361853 39.84623422 -37.78302765 50.91480923 C-42.92707712 56.05369526 -48.07206286 61.19163739 -53.21923828 66.32739258 C-57.70380841 70.80201733 -62.18663722 75.2783779 -66.66735506 79.75686032 C-69.04145453 82.12965243 -71.41643614 84.50154662 -73.79350281 86.8713665 C-76.44211656 89.51277674 -79.08764076 92.15724328 -81.73242188 94.80249023 C-82.52723465 95.59370773 -83.32204742 96.38492523 -84.14094543 97.20011902 C-84.85614853 97.91669678 -85.57135162 98.63327454 -86.30822754 99.37156677 C-86.93504677 99.99746421 -87.561866 100.62336164 -88.20767975 101.26822567 C-89.647677 102.5139891 -89.647677 102.5139891 -89.53515625 103.71875 C-49.60515625 103.71875 -9.67515625 103.71875 31.46484375 103.71875 C30.6328935 91.46039298 30.6328935 91.46039298 28.40234375 79.59375 C28.07689575 78.26778809 28.07689575 78.26778809 27.74487305 76.91503906 C22.0552843 54.86127713 11.75551062 33.8682599 -4.53515625 17.71875 Z M-248.53515625 118.71875 C-248.53515625 162.60875 -248.53515625 206.49875 -248.53515625 251.71875 C-204.64515625 251.71875 -160.75515625 251.71875 -115.53515625 251.71875 C-115.53515625 207.82875 -115.53515625 163.93875 -115.53515625 118.71875 C-159.42515625 118.71875 -203.31515625 118.71875 -248.53515625 118.71875 Z M-101.53515625 118.71875 C-101.53515625 162.60875 -101.53515625 206.49875 -101.53515625 251.71875 C-57.64515625 251.71875 -13.75515625 251.71875 31.46484375 251.71875 C31.46484375 207.82875 31.46484375 163.93875 31.46484375 118.71875 C-12.42515625 118.71875 -56.31515625 118.71875 -101.53515625 118.71875 Z M-322.53515625 266.71875 C-322.53515625 308.29875 -322.53515625 349.87875 -322.53515625 392.71875 C-303.06515625 392.71875 -283.59515625 392.71875 -263.53515625 392.71875 C-263.53515625 351.13875 -263.53515625 309.55875 -263.53515625 266.71875 C-283.00515625 266.71875 -302.47515625 266.71875 -322.53515625 266.71875 Z M-248.53515625 266.71875 C-248.53515625 308.29875 -248.53515625 349.87875 -248.53515625 392.71875 C-229.06515625 392.71875 -209.59515625 392.71875 -189.53515625 392.71875 C-189.53515625 351.13875 -189.53515625 309.55875 -189.53515625 266.71875 C-209.00515625 266.71875 -228.47515625 266.71875 -248.53515625 266.71875 Z M-174.53515625 266.71875 C-174.53515625 308.29875 -174.53515625 349.87875 -174.53515625 392.71875 C-155.06515625 392.71875 -135.59515625 392.71875 -115.53515625 392.71875 C-115.53515625 351.13875 -115.53515625 309.55875 -115.53515625 266.71875 C-135.00515625 266.71875 -154.47515625 266.71875 -174.53515625 266.71875 Z M-101.53515625 266.71875 C-101.53515625 308.29875 -101.53515625 349.87875 -101.53515625 392.71875 C-82.06515625 392.71875 -62.59515625 392.71875 -42.53515625 392.71875 C-42.53515625 351.13875 -42.53515625 309.55875 -42.53515625 266.71875 C-62.00515625 266.71875 -81.47515625 266.71875 -101.53515625 266.71875 Z M-27.53515625 266.71875 C-27.53515625 308.29875 -27.53515625 349.87875 -27.53515625 392.71875 C-8.06515625 392.71875 11.40484375 392.71875 31.46484375 392.71875 C31.46484375 351.13875 31.46484375 309.55875 31.46484375 266.71875 C11.99484375 266.71875 -7.47515625 266.71875 -27.53515625 266.71875 Z M46.46484375 266.71875 C46.46484375 308.29875 46.46484375 349.87875 46.46484375 392.71875 C65.93484375 392.71875 85.40484375 392.71875 105.46484375 392.71875 C105.46484375 351.13875 105.46484375 309.55875 105.46484375 266.71875 C85.99484375 266.71875 66.52484375 266.71875 46.46484375 266.71875 Z M-341.53515625 407.71875 C-341.53515625 417.94875 -341.53515625 428.17875 -341.53515625 438.71875 C-187.75515625 438.71875 -33.97515625 438.71875 124.46484375 438.71875 C124.46484375 428.48875 124.46484375 418.25875 124.46484375 407.71875 C-29.31515625 407.71875 -183.09515625 407.71875 -341.53515625 407.71875 Z " fill="#000000" transform="translate(364.53515625,51.28125)"/>
</svg>
