<svg width="40" height="40" viewBox="0 0 40 40" fill="none" xmlns="http://www.w3.org/2000/svg">
<circle cx="20" cy="20" r="19.5" stroke="url(#paint0_linear_2039_9676)"/>
<path d="M30.722 19.6434C30.6208 18.9782 30.2496 18.3852 29.7013 17.9442C30.3424 17.5537 30.7642 16.9102 30.7642 16.1871V13.8372C30.7642 12.6369 29.6338 11.668 28.2335 11.668H11.7584C10.3581 11.668 9.22769 12.6369 9.22769 13.8372V16.1871C9.22769 16.9174 9.64948 17.561 10.299 17.9514C9.75914 18.3925 9.38797 18.9782 9.28674 19.6362C8.72154 19.8458 8.3335 20.3303 8.3335 20.8943V24.0324C8.3335 24.5819 8.71311 25.0519 9.25299 25.2688V27.1705C9.25299 27.4959 9.55668 27.7562 9.93629 27.7562C9.93629 27.7562 9.94473 27.7562 9.95316 27.7562C10.3328 27.7562 10.6365 27.4886 10.628 27.1633V25.4062H29.3807V27.1705C29.3807 27.4959 29.6844 27.7562 30.064 27.7562C30.064 27.7562 30.0725 27.7562 30.0809 27.7562C30.4605 27.7562 30.7642 27.4886 30.7558 27.1633V25.2688C31.2957 25.0447 31.6668 24.5819 31.6668 24.0324V20.8943C31.6668 20.3375 31.2788 19.8603 30.7305 19.6434H30.722ZM30.064 24.2204H30.0472H9.95316H9.93629C9.93629 24.2204 9.93629 24.2204 9.92786 24.2204C9.80132 24.2204 9.70853 24.1336 9.70853 24.0252V20.8871C9.70853 20.7786 9.80976 20.6918 9.93629 20.6918H30.064C30.1906 20.6918 30.2918 20.7786 30.2918 20.8871V24.0252C30.2918 24.1336 30.1906 24.2132 30.0725 24.2204H30.064ZM13.1334 16.5776C13.1334 16.2522 13.4371 15.9847 13.8252 15.9847H18.6251C19.0047 15.9847 19.3169 16.245 19.3169 16.5776C19.3169 16.9102 19.0132 17.1705 18.6251 17.1705H13.8252C13.4456 17.1705 13.1334 16.9102 13.1334 16.5776ZM20.6835 16.5993C20.6835 16.2739 20.9871 16.0064 21.3752 16.0064H26.1751C26.5548 16.0064 26.8669 16.2667 26.8669 16.5993C26.8669 16.8957 26.6054 17.1343 26.2595 17.1705H21.2908C20.9534 17.1343 20.6835 16.8957 20.6835 16.5993ZM13.8167 18.3563H27.6598C28.4275 18.4214 29.0686 18.8769 29.2711 19.5205H10.7124C10.9148 18.8842 11.5475 18.4286 12.2983 18.3563H13.8167ZM10.6112 13.8372C10.6112 13.2949 11.1257 12.8538 11.7584 12.8538H28.225C28.8577 12.8538 29.3723 13.2949 29.3723 13.8372V16.1871C29.3723 16.7294 28.8577 17.1705 28.225 17.1705H28.0985C28.1744 16.9897 28.225 16.7945 28.225 16.592C28.225 15.6159 27.3055 14.8278 26.1667 14.8278H21.3668C20.8353 14.8278 20.3545 15.0013 19.9917 15.2905C19.629 15.0085 19.1481 14.8278 18.6167 14.8278H13.8167C12.6779 14.8278 11.7584 15.6159 11.7584 16.592C11.7584 16.7945 11.809 16.9897 11.885 17.1705H11.7669C11.1342 17.1705 10.6196 16.7294 10.6196 16.1871V13.8372H10.6112Z" fill="url(#paint1_linear_2039_9676)"/>
<defs>
<linearGradient id="paint0_linear_2039_9676" x1="28.6877" y1="9.0148" x2="9.9718" y2="33.1372" gradientUnits="userSpaceOnUse">
<stop stop-color="#F39200"/>
<stop offset="0.33" stop-color="#EA5B0B"/>
<stop offset="0.635" stop-color="#D60B51"/>
<stop offset="1" stop-color="#A11881"/>
</linearGradient>
<linearGradient id="paint1_linear_2039_9676" x1="25.068" y1="15.2938" x2="18.6034" y2="27.3781" gradientUnits="userSpaceOnUse">
<stop stop-color="#F39200"/>
<stop offset="0.33" stop-color="#EA5B0B"/>
<stop offset="0.635" stop-color="#D60B51"/>
<stop offset="1" stop-color="#A11881"/>
</linearGradient>
</defs>
</svg>
