<svg width="21" height="20" viewBox="0 0 21 20" fill="none" xmlns="http://www.w3.org/2000/svg">
<g id="Misc/bell">
<path id="Vector" d="M17.2215 13.2169C16.9075 12.2598 16.743 11.2579 16.743 10.241V7.74366C16.7579 6.15851 16.2046 4.61822 15.1578 3.43683C14.111 2.24049 12.6754 1.47782 11.1052 1.28342C10.2379 1.19369 9.35556 1.28342 8.51812 1.56755C7.68069 1.83672 6.91802 2.28535 6.27498 2.88352C5.63195 3.46674 5.10855 4.18454 4.7646 4.97712C4.42066 5.7697 4.22625 6.62209 4.22625 7.50439V10.256C4.22625 11.2579 4.06175 12.2598 3.74771 13.2169L3 15.4302L3.59817 16.2526H7.97977C7.97977 16.9106 8.24895 17.5537 8.71253 18.0172C9.17611 18.4808 9.81915 18.75 10.4771 18.75C11.1351 18.75 11.7782 18.4808 12.2417 18.0172C12.7053 17.5537 12.9745 16.9106 12.9745 16.2526H17.3561L17.9543 15.4302L17.2215 13.2169ZM11.3594 17.1499C11.1202 17.3892 10.8061 17.5238 10.4771 17.5238C10.1481 17.5238 9.8341 17.3892 9.59483 17.1499C9.35556 16.9106 9.22097 16.5966 9.22097 16.2676H11.7183C11.7333 16.5966 11.5987 16.9106 11.3594 17.1499ZM4.46552 15.0114L4.9291 13.6207C5.288 12.529 5.48241 11.3925 5.48241 10.256V7.50439C5.48241 6.80154 5.63195 6.11365 5.91608 5.48557C6.20021 4.84253 6.60398 4.27427 7.12738 3.81069C7.65078 3.33215 8.2639 2.97325 8.92189 2.76389C9.59483 2.53958 10.2977 2.4648 10.9856 2.53958C12.2417 2.70407 13.4082 3.33215 14.2307 4.28922C15.0681 5.2463 15.5018 6.4875 15.4868 7.75861V10.2709C15.4868 11.4075 15.6663 12.544 16.0401 13.6356L16.5037 15.0264H4.46552V15.0114Z" fill="white" stroke="white" stroke-width="0.5"/>
</g>
</svg>
