<svg width="61" height="60" viewBox="0 0 61 60" fill="none" xmlns="http://www.w3.org/2000/svg">
<circle cx="30.5" cy="30" r="30" fill="white"/>
<g clip-path="url(#clip0_2270_4452)">
<path d="M21.9847 22.2374C21.3757 22.6377 20.9065 23.2134 20.6313 23.8835C20.5952 23.933 20.5681 23.9915 20.5501 24.05L20.4824 24.2928V24.3423L19.4854 27.8415C19.1696 28.9794 19.2463 30.1848 19.702 31.2732L21.0057 34.4216L20.5546 36.1037C19.8779 36.0857 19.2779 36.5265 19.0929 37.1741L18.6418 38.7393C18.4613 39.3915 18.7501 40.0796 19.3456 40.408L17.3155 47.7167C17.2478 48.018 17.4373 48.3194 17.7395 48.3913C17.7801 48.4003 17.8207 48.4048 17.8613 48.4048H28.8419C29.0946 48.4048 29.3201 48.2339 29.3878 47.991L30.6239 43.5428C30.7412 43.5743 30.8675 43.5923 30.9893 43.5923C31.242 43.5923 31.4901 43.5249 31.7111 43.3989C32.054 43.2055 32.3021 42.8817 32.4014 42.4994L32.8525 40.9342C33.0645 40.1606 32.6179 39.3645 31.851 39.1351L32.2976 37.498L33.7909 36.1487C35.1849 34.8983 36.1909 33.2792 36.6917 31.4756L37.3819 29.0019L38.6857 24.2973C39.0556 22.9705 38.2751 21.5942 36.9443 21.2254C36.4571 21.0905 35.9383 21.104 35.4556 21.2704C35.5954 19.9031 34.5984 18.6797 33.2224 18.5358C32.7036 18.4818 32.1848 18.5943 31.7337 18.8507C31.6705 18.8911 31.6119 18.9316 31.5532 18.9766C31.039 17.7037 29.5863 17.0876 28.3051 17.6003C28.0028 17.7217 27.7231 17.9016 27.493 18.131C26.7712 16.9571 25.2283 16.5883 24.0509 17.3124C23.5186 17.6363 23.1306 18.149 22.9546 18.7427L21.9847 22.2374ZM28.4134 47.2804H18.6012L20.4057 40.7273L29.5231 43.246L28.4134 47.2804ZM31.7517 40.6463L31.3006 42.2115C31.251 42.3914 31.0615 42.4994 30.8811 42.4499L19.9636 39.4365C19.7832 39.387 19.6794 39.2026 19.729 39.0227L20.1802 37.4575C20.2208 37.3091 20.3561 37.2056 20.5095 37.2056C20.5411 37.2056 20.5681 37.2056 20.5997 37.2056L31.5307 40.2236C31.7111 40.282 31.8059 40.4709 31.7517 40.6508V40.6463ZM34.9548 23.2539C35.1217 22.6602 35.6631 22.2554 36.2811 22.2554C36.4029 22.2554 36.5292 22.2689 36.6465 22.3049C37.3684 22.4893 37.806 23.2269 37.621 23.9465C37.6165 23.9645 37.612 23.9825 37.6029 24.005L36.2992 28.705C36.0601 29.4247 35.2796 29.8115 34.5578 29.5731C33.8901 29.3527 33.4976 28.6601 33.651 27.9719L33.9037 27.0724L34.9548 23.2539ZM31.648 20.6497C31.7472 20.3034 31.9818 20.0066 32.2976 19.8266C32.6134 19.6467 32.9924 19.6018 33.3442 19.7007C33.6961 19.7997 33.9939 20.029 34.1743 20.3439C34.3548 20.6587 34.3999 21.0365 34.3006 21.3873L32.8164 26.7486C32.6089 27.4772 31.851 27.9045 31.1202 27.7021C30.7683 27.6076 30.4705 27.3782 30.2901 27.0589C30.2224 26.9285 30.1728 26.7935 30.1412 26.6496C30.5201 26.6046 30.8856 26.4697 31.2014 26.2538C32.4781 25.3768 32.3472 23.5192 32.3427 23.4428C32.3247 23.2044 32.1623 23.0065 31.9322 22.9435L31.0796 22.7097L31.648 20.6497ZM27.7863 20.074L27.9261 19.5658C28.084 18.9676 28.6299 18.5538 29.2525 18.5628C29.3743 18.5628 29.5006 18.5763 29.6179 18.6123C30.3397 18.7967 30.7773 19.5343 30.5923 20.2539C30.5923 20.2674 30.5833 20.2809 30.5788 20.2989L29.9923 22.4173L27.3351 21.6797L27.7863 20.074ZM31.2104 23.915C31.2104 24.4682 30.9758 24.9945 30.5562 25.3543C29.9788 25.7501 28.9457 25.6196 27.5742 24.981C27.4705 24.9315 27.3532 24.918 27.2404 24.936L24.6013 25.3858C24.2945 25.4352 24.087 25.7231 24.1366 26.0334C24.1682 26.2358 24.308 26.4022 24.502 26.4697C24.5246 26.4697 26.7577 27.3108 27.2945 29.0694C27.6194 30.0723 27.3351 31.2462 26.4329 32.5505C26.2434 32.7934 26.2885 33.1442 26.5321 33.3331C26.6314 33.4096 26.7577 33.4501 26.884 33.4501C27.0645 33.4501 27.2314 33.3556 27.3351 33.2072C28.4494 31.6105 28.7968 30.1083 28.3592 28.7365C28.278 28.4802 28.1697 28.2283 28.0344 27.9944C28.3502 27.9539 28.657 27.8505 28.9367 27.6931C29.0404 27.6301 29.1397 27.5626 29.2344 27.4862C29.2615 27.5356 29.275 27.5896 29.3021 27.6391C29.6269 28.2148 30.1728 28.6376 30.8134 28.813C31.3683 28.9749 31.9593 28.9299 32.4826 28.687C32.6134 29.6765 33.3217 30.4951 34.2871 30.7695C34.7563 30.8999 35.2571 30.8864 35.7217 30.738L35.5909 31.1878C35.1488 32.7844 34.26 34.2192 33.0239 35.3256L31.4089 36.7694C31.3277 36.8413 31.2735 36.9358 31.242 37.0392L30.7547 38.8473L21.6373 36.3421L22.1471 34.5115C22.1787 34.3901 22.1697 34.2642 22.1245 34.1472L20.7396 30.8414C20.3832 29.9869 20.3245 29.0379 20.5726 28.1428L20.6539 27.855L21.1591 26.1414C21.1681 26.0874 21.1681 26.0334 21.1591 25.9795L21.5426 24.5942C21.8042 23.6452 22.5982 22.9435 23.5727 22.7951L25.9366 22.4488L31.2104 23.915ZM28.6073 26.5282C28.5397 26.5911 28.4675 26.6406 28.3863 26.6856C28.0705 26.87 27.6915 26.915 27.3397 26.816C27.1772 26.771 27.0239 26.6946 26.8885 26.5956L26.8118 26.5282C26.6945 26.4292 26.5953 26.3168 26.5186 26.1863L27.2585 26.0559C27.6915 26.2538 28.1427 26.4112 28.6073 26.5282ZM24.0464 19.0575C24.2494 18.3289 25.0073 17.9016 25.7426 18.104C26.0945 18.203 26.3923 18.4324 26.5682 18.7472C26.7487 19.0665 26.7938 19.4398 26.699 19.7907L26.2479 21.3963L26.1306 21.3648C26.0539 21.3469 25.9772 21.3469 25.9005 21.3648L23.4193 21.7292C23.3787 21.7382 23.3336 21.7471 23.293 21.7561L24.0464 19.0575Z" fill="#EA5B0B"/>
<path d="M15.3258 16.4397C17.4552 17.0109 18.4161 20.0648 18.4251 20.0963C18.4973 20.3346 18.7184 20.4921 18.9665 20.4921C19.2146 20.4921 19.4357 20.3256 19.5033 20.0873C19.5033 20.0558 20.374 17.1413 22.6207 16.4352C22.9184 16.3362 23.0808 16.0169 22.9816 15.72C22.932 15.5626 22.8147 15.4367 22.6613 15.3737C20.2928 14.4247 19.5033 11.7351 19.5033 11.7126C19.4357 11.4742 19.2191 11.3033 18.971 11.2988C18.7229 11.2988 18.5063 11.4607 18.4296 11.6946C18.4296 11.7216 17.5274 14.4562 15.2717 15.3737C14.983 15.4862 14.8386 15.8145 14.9559 16.1023C15.0236 16.2687 15.1634 16.3947 15.3349 16.4397H15.3258ZM18.9349 13.2913C19.4582 14.3258 20.2342 15.2118 21.1906 15.873C20.2206 16.5251 19.4447 17.4247 18.9349 18.4726C18.4387 17.4202 17.6717 16.5206 16.7153 15.855C17.6537 15.1848 18.4206 14.3078 18.953 13.2868H18.9349V13.2913Z" fill="#EA5B0B"/>
<path d="M45.7232 33.364C43.3547 32.4149 42.5653 29.7253 42.5653 29.7028C42.4976 29.4645 42.281 29.2936 42.0329 29.2891C41.7848 29.2891 41.5683 29.451 41.4961 29.6849C41.4961 29.7118 40.5938 32.4464 38.3381 33.364C38.1126 33.4539 37.9727 33.6788 37.9863 33.9217C37.9998 34.1645 38.1667 34.3669 38.4013 34.4299C40.5261 35.0011 41.4916 38.055 41.5006 38.0865C41.5728 38.3249 41.7893 38.4868 42.0374 38.4868C42.2856 38.4868 42.5066 38.3159 42.5743 38.0775C42.5743 38.046 43.4314 35.136 45.6916 34.4254C45.9894 34.3264 46.1518 34.0071 46.0525 33.7103C46.0029 33.5529 45.8856 33.4269 45.7322 33.364H45.7232ZM42.0149 36.4583C41.5186 35.4059 40.7517 34.5064 39.7953 33.8407C40.7246 33.1705 41.478 32.2935 42.0059 31.277C42.5337 32.3115 43.3051 33.1975 44.2615 33.8587C43.2961 34.5109 42.5201 35.4104 42.0149 36.4583Z" fill="#EA5B0B"/>
<path d="M36.1997 17.636C39.0464 18.4006 40.3186 22.4485 40.3321 22.489C40.4043 22.7274 40.6208 22.8893 40.8689 22.8893C41.1171 22.8848 41.3336 22.7184 41.4058 22.48C41.4058 22.4395 42.5562 18.5761 45.5562 17.6315C45.854 17.5326 46.0164 17.2133 45.9171 16.9164C45.8675 16.759 45.7502 16.6331 45.5968 16.5701C42.4389 15.3062 41.4148 11.7441 41.4058 11.7126C41.3381 11.4697 41.1216 11.2988 40.8689 11.2988C40.6208 11.2988 40.3953 11.4562 40.3186 11.6946C40.3186 11.7306 39.1366 15.3512 36.1185 16.5746C35.8298 16.6915 35.6944 17.0244 35.8162 17.3077C35.8839 17.4696 36.0193 17.5866 36.1862 17.636H36.1997ZM40.8689 13.3453C41.5772 14.861 42.696 16.1473 44.0991 17.0603C42.6735 17.9599 41.5456 19.2597 40.8689 20.8024C40.305 19.615 39.2764 17.9464 37.6749 17.0379C39.0509 16.1113 40.1516 14.8385 40.8689 13.3453Z" fill="#EA5B0B"/>
</g>
<defs>
<clipPath id="clip0_2270_4452">
<rect width="31.1688" height="37.1058" fill="white" transform="translate(14.915 11.2988)"/>
</clipPath>
</defs>
</svg>
