<svg width="58" height="56" viewBox="0 0 58 56" fill="none" xmlns="http://www.w3.org/2000/svg">
<g id="Mode_Isolation" clip-path="url(#clip0_2146_7970)">
<path id="Vector" d="M52.1873 5.54203H47.4302V1.41378C47.4302 0.636203 46.7969 0 46.0228 0C45.2487 0 44.6154 0.636203 44.6154 1.41378V5.54203H30.4004V1.41378C30.4004 0.636203 29.767 0 28.993 0C28.2189 0 27.5855 0.636203 27.5855 1.41378V5.54203H13.5113V1.41378C13.5113 0.636203 12.8779 0 12.1039 0C11.3298 0 10.6964 0.636203 10.6964 1.41378V5.54203H5.79859C2.60374 5.54203 0 8.12926 0 11.3385V50.2035C0 53.4128 2.60374 56.0141 5.79859 56H52.2014C55.3963 56.0141 57.9859 53.4128 58 50.2035V11.3527C57.9859 8.1434 55.3822 5.54203 52.1873 5.54203ZM55.1711 50.2176C55.1711 51.8576 53.834 53.2007 52.2014 53.1866H5.79859C4.16598 53.2007 2.82893 51.8717 2.81485 50.2318V20.2454H55.1711V50.2176ZM55.1711 17.4178H2.81485V11.3527C2.81485 9.69856 4.1519 8.3696 5.78452 8.3696H10.6964V12.5261C10.6964 13.3037 11.3298 13.9399 12.1039 13.9399C12.8779 13.9399 13.5113 13.3037 13.5113 12.5261V8.3696H27.5855V12.5261C27.5855 13.3037 28.2189 13.9399 28.993 13.9399C29.767 13.9399 30.4004 13.3037 30.4004 12.5261V8.3696H44.6154V12.5261C44.6154 13.3037 45.2487 13.9399 46.0228 13.9399C46.7969 13.9399 47.4302 13.3037 47.4302 12.5261V8.3696H52.1873C53.834 8.35547 55.1711 9.68442 55.1711 11.3385V17.4178Z" fill="white"/>
<path id="Vector_2" d="M25.1926 50.7836H32.7927C33.5668 50.7836 34.2001 50.1474 34.2001 49.3698V36.363C34.2001 35.5854 33.5668 34.9492 32.7927 34.9492H25.1926C24.4185 34.9492 23.7852 35.5854 23.7852 36.363V49.3698C23.7852 50.1474 24.4185 50.7836 25.1926 50.7836ZM26.6 37.7768H31.3853V47.956H26.6V37.7768Z" fill="white"/>
<path id="Vector_3" d="M25.9108 32.191C26.7271 33.0535 27.8531 33.5483 29.0353 33.5483C30.2176 33.5483 31.3576 33.0676 32.188 32.2193C32.188 32.2052 32.202 32.2052 32.2161 32.191C33.9191 30.4097 33.9191 27.5821 32.202 25.8149L30.0627 23.6094C29.5138 23.0439 28.6272 23.0439 28.0783 23.5811L28.0501 23.6094L25.8968 25.8149C24.2079 27.5963 24.2079 30.4097 25.9108 32.191ZM27.9235 27.78L29.0494 26.6207L30.1753 27.78C30.8228 28.4587 30.8368 29.5331 30.1894 30.2259C29.8798 30.5369 29.4716 30.7207 29.0353 30.7207C28.599 30.7207 28.219 30.5369 27.9375 30.24C27.276 29.5473 27.276 28.4728 27.9235 27.78Z" fill="white"/>
</g>
<defs>
<clipPath id="clip0_2146_7970">
<rect width="58" height="56" fill="white"/>
</clipPath>
</defs>
</svg>
