<svg width="78" height="47" viewBox="0 0 78 47" fill="none" xmlns="http://www.w3.org/2000/svg">
<g clip-path="url(#clip0_2500_3413)">
<path d="M39.3114 46.7996C34.7767 46.7996 30.25 46.1477 25.843 44.8516L18.027 42.5458C15.4164 41.7746 13.668 39.4449 13.668 36.7495V23.1532L32.9245 28.8938C34.9683 29.4425 37.0201 29.7207 39 29.7207C41.2674 29.7207 43.2473 29.4504 45.0676 28.8938L64.9707 22.9941V36.7495C64.9707 39.4449 63.2143 41.7746 60.6117 42.5458L52.7957 44.8516C48.3887 46.1477 43.8541 46.7996 39.3273 46.7996H39.3114ZM15.8156 26.0315V36.7495C15.8156 38.4908 16.9492 39.9935 18.6338 40.4865L26.4498 42.7923C34.8645 45.273 43.7582 45.273 52.165 42.7923L59.981 40.4865C61.6655 39.9935 62.7992 38.4908 62.7992 36.7495V25.8724L45.6743 30.9452C43.6624 31.5654 41.4669 31.8596 38.984 31.8596C36.8205 31.8596 34.5771 31.5495 32.3177 30.9452L15.8076 26.0235L15.8156 26.0315Z" fill="black"/>
<path d="M72.7947 35.1994H71.6131L69.8567 35.0324C69.1781 34.945 68.6272 34.6031 68.3239 34.0703C68.0205 33.5535 67.9965 32.9254 68.244 32.345L69.5773 29.252C69.0903 28.7511 68.8029 28.0514 68.8029 27.2801V25.3719C68.8029 24.6006 69.1541 23.8612 69.7609 23.3205V18.2239L44.1814 25.7615C40.7803 26.7792 37.2276 26.7792 33.9065 25.7615L2.3871 16.4826C0.934084 16.0532 0 14.789 0 13.2703C0 11.7517 0.934084 10.4875 2.3871 10.0581L33.8186 0.763303C37.2197 -0.254434 40.7724 -0.254434 44.0936 0.763303L75.5969 10.0581C77.018 10.4795 77.9601 11.704 77.992 13.1908C78.024 14.6936 77.1378 15.9817 75.7247 16.4746L74.6948 16.8006V23.3364C75.3015 23.8771 75.6528 24.6086 75.6528 25.3878V27.296C75.6528 28.0355 75.3654 28.7193 74.8624 29.2361L76.2516 32.4801C76.4193 33.0605 76.3314 33.6728 76.0121 34.1657C75.7087 34.6349 75.2137 34.9529 74.6549 35.0324L72.7947 35.1994ZM71.7568 33.0526H72.6989L74.112 32.9254L72.2278 28.5523L70.3437 32.9254L71.7568 33.0526ZM71.9085 15.3694V24.4972L71.3656 24.8073C71.166 24.9187 70.9505 25.1333 70.9505 25.3878V27.296C70.9505 27.5743 71.0862 27.8049 71.2858 27.8765L72.3396 28.274L73.0581 27.9242C73.4573 27.7254 73.4972 27.4709 73.4972 27.296V25.3878C73.4972 25.1333 73.2817 24.9266 73.0821 24.8073L72.5392 24.4972V15.2263L75.0461 14.4312C75.6448 14.2245 75.8524 13.6758 75.8444 13.2385C75.8444 13.0318 75.7646 12.348 74.9902 12.1174L43.4788 2.82263C40.5568 1.92416 37.4352 1.92416 34.4414 2.82263L3.00184 12.1174C2.37912 12.3003 2.15558 12.833 2.15558 13.2703C2.15558 13.7076 2.37912 14.2404 3.00184 14.4232L34.5132 23.718C37.4352 24.6165 40.5568 24.6165 43.5507 23.718L71.9005 15.3615L71.9085 15.3694Z" fill="black"/>
</g>
<defs>
<clipPath id="clip0_2500_3413">
<rect width="78" height="46.8" fill="white"/>
</clipPath>
</defs>
</svg>
