<svg width="18" height="18" viewBox="0 0 18 18" fill="none" xmlns="http://www.w3.org/2000/svg">
<g id="CaretRight">
<path id="Vector" d="M12.0235 13.8511L7.17365 8.99984L12.0249 4.14995L12.0249 4.14992C12.2303 3.94453 12.3457 3.66596 12.3457 3.37549C12.3457 3.08502 12.2303 2.80645 12.0249 2.60106C11.8195 2.39567 11.541 2.28028 11.2505 2.28028C10.96 2.28028 10.6814 2.39567 10.4761 2.60106L4.85157 8.22554C4.85148 8.22563 4.8514 8.22571 4.85131 8.2258C4.74935 8.32724 4.66839 8.4478 4.61308 8.58056C4.55772 8.71345 4.52913 8.85595 4.52896 8.9999C4.5288 9.14385 4.55704 9.28642 4.61209 9.41944C4.66712 9.55241 4.74785 9.67321 4.84965 9.77492C4.84968 9.77496 4.84972 9.77499 4.84975 9.77502L10.4747 15.3999C10.5763 15.5016 10.6971 15.5823 10.83 15.6373C10.9628 15.6924 11.1053 15.7207 11.2491 15.7207C11.3929 15.7207 11.5353 15.6924 11.6682 15.6373C11.8011 15.5823 11.9218 15.5016 12.0235 15.3999C12.1252 15.2982 12.2059 15.1775 12.2609 15.0446C12.316 14.9117 12.3443 14.7693 12.3443 14.6255C12.3443 14.4817 12.316 14.3392 12.2609 14.2064C12.2059 14.0735 12.1252 13.9528 12.0235 13.8511C12.0235 13.8511 12.0235 13.8511 12.0235 13.8511Z" fill="#444444" stroke="#444444" stroke-width="0.5" stroke-linejoin="round"/>
</g>
</svg>
