<svg width="18" height="18" viewBox="0 0 18 18" fill="none" xmlns="http://www.w3.org/2000/svg">
<g id="CaretRight">
<path id="Vector" d="M5.97648 4.14894L10.8263 9.00016L5.9751 13.8501L5.97508 13.8501C5.76968 14.0555 5.65429 14.334 5.65429 14.6245C5.65429 14.915 5.76968 15.1936 5.97508 15.3989C6.18047 15.6043 6.45904 15.7197 6.74951 15.7197C7.03998 15.7197 7.31855 15.6043 7.52394 15.3989L13.1484 9.77446C13.1485 9.77437 13.1486 9.77429 13.1487 9.7742C13.2507 9.67276 13.3316 9.5522 13.3869 9.41944C13.4423 9.28655 13.4709 9.14405 13.471 9.0001C13.4712 8.85615 13.443 8.71358 13.3879 8.58056C13.3329 8.44759 13.2521 8.32679 13.1503 8.22508C13.1503 8.22505 13.1503 8.22501 13.1502 8.22498L7.52535 2.60008C7.42365 2.49838 7.30291 2.4177 7.17004 2.36267C7.03716 2.30763 6.89474 2.2793 6.75092 2.2793C6.60709 2.2793 6.46467 2.30763 6.3318 2.36267C6.19892 2.4177 6.07818 2.49838 5.97648 2.60008C5.87478 2.70178 5.79411 2.82251 5.73907 2.95539C5.68403 3.08827 5.6557 3.23068 5.6557 3.37451C5.6557 3.51834 5.68403 3.66075 5.73907 3.79363C5.79411 3.9265 5.87477 4.04722 5.97646 4.14892C5.97647 4.14893 5.97648 4.14894 5.97648 4.14894Z" fill="#444444" stroke="#444444" stroke-width="0.5" stroke-linejoin="round"/>
</g>
</svg>
