<?xml version="1.0" standalone="no"?>
<!DOCTYPE svg PUBLIC "-//W3C//DTD SVG 20010904//EN"
 "http://www.w3.org/TR/2001/REC-SVG-20010904/DTD/svg10.dtd">
<svg version="1.0" xmlns="http://www.w3.org/2000/svg"
 width="512.000000pt" height="512.000000pt" viewBox="0 0 512.000000 512.000000"
 preserveAspectRatio="xMidYMid meet">

<g transform="translate(0.000000,512.000000) scale(0.100000,-0.100000)"
fill="#000000" stroke="none">
<path d="M1288 5099 c-23 -12 -46 -35 -58 -59 -19 -38 -20 -58 -20 -525 0
-467 1 -487 20 -525 31 -60 78 -80 190 -80 l90 0 0 -150 0 -150 -695 0 c-678
0 -697 -1 -735 -20 -26 -13 -47 -34 -60 -60 -19 -38 -20 -58 -20 -520 0 -462
1 -482 20 -520 31 -60 78 -80 190 -80 l90 0 0 -1055 0 -1055 -90 0 c-71 0 -99
-4 -130 -20 -45 -23 -80 -80 -80 -130 0 -50 35 -107 80 -130 39 -20 53 -20
2480 -20 2427 0 2441 0 2480 20 45 23 80 80 80 130 0 50 -35 107 -80 130 -31
16 -59 20 -135 20 l-95 0 0 1055 0 1055 95 0 c117 0 164 19 195 80 19 38 20
58 20 520 0 462 -1 482 -20 520 -13 26 -34 47 -60 60 -38 19 -57 20 -735 20
l-695 0 0 150 0 150 90 0 c112 0 159 20 190 80 19 38 20 58 20 525 0 467 -1
487 -20 525 -13 26 -34 47 -60 60 -39 20 -56 20 -1272 20 -1208 -1 -1234 -1
-1270 -21z m522 -369 c0 -71 4 -99 20 -130 23 -45 80 -80 130 -80 50 0 107 35
130 80 16 31 20 59 20 130 l0 90 150 0 150 0 0 -90 c0 -71 4 -99 20 -130 23
-45 80 -80 130 -80 50 0 107 35 130 80 16 31 20 59 20 130 l0 90 150 0 150 0
0 -90 c0 -71 4 -99 20 -130 23 -45 80 -80 130 -80 50 0 107 35 130 80 16 31
20 59 20 130 l0 90 150 0 150 0 0 -305 0 -305 -1050 0 -1050 0 0 305 0 305
150 0 150 0 0 -90z m1500 -970 l0 -150 -90 0 c-112 0 -159 -20 -190 -80 -19
-38 -20 -58 -20 -520 0 -462 1 -482 20 -520 31 -60 78 -80 190 -80 l90 0 0
-150 0 -150 -750 0 -750 0 0 150 0 150 90 0 c112 0 159 20 190 80 19 38 20 58
20 520 0 462 -1 482 -20 520 -31 60 -78 80 -190 80 l-90 0 0 150 0 150 750 0
750 0 0 -150z m-2700 -540 c0 -71 4 -99 20 -130 23 -45 80 -80 130 -80 50 0
107 35 130 80 16 31 20 59 20 130 l0 90 150 0 150 0 0 -90 c0 -71 4 -99 20
-130 23 -45 80 -80 130 -80 50 0 107 35 130 80 16 31 20 59 20 130 l0 90 150
0 150 0 0 -300 0 -300 -755 0 -755 0 0 300 0 300 155 0 155 0 0 -90z m3000 0
c0 -71 4 -99 20 -130 23 -45 80 -80 130 -80 50 0 107 35 130 80 16 31 20 59
20 130 l0 90 150 0 150 0 0 -90 c0 -71 4 -99 20 -130 23 -45 80 -80 130 -80
50 0 107 35 130 80 16 31 20 59 20 130 l0 90 155 0 155 0 0 -300 0 -300 -755
0 -755 0 0 300 0 300 150 0 150 0 0 -90z m-2100 -1260 l0 -450 -240 0 c-222 0
-244 -2 -280 -20 -45 -23 -80 -80 -80 -130 0 -50 35 -107 80 -130 36 -18 58
-20 280 -20 l240 0 0 -455 0 -455 -455 0 -455 0 0 155 0 155 245 0 c227 0 249
2 285 20 45 23 80 80 80 130 0 50 -35 107 -80 130 -36 18 -58 20 -285 20
l-245 0 0 450 0 450 245 0 c227 0 249 2 285 20 45 23 80 80 80 130 0 50 -35
107 -80 130 -36 18 -58 20 -285 20 l-245 0 0 150 0 150 455 0 455 0 0 -450z
m3000 300 l0 -150 -240 0 c-222 0 -244 -2 -280 -20 -45 -23 -80 -80 -80 -130
0 -50 35 -107 80 -130 36 -18 58 -20 280 -20 l240 0 0 -450 0 -450 -240 0
c-222 0 -244 -2 -280 -20 -45 -23 -80 -80 -80 -130 0 -50 35 -107 80 -130 36
-18 58 -20 280 -20 l240 0 0 -155 0 -155 -450 0 -450 0 0 455 0 455 240 0
c222 0 244 2 280 20 45 23 80 80 80 130 0 50 -35 107 -80 130 -36 18 -58 20
-280 20 l-240 0 0 450 0 450 450 0 450 0 0 -150z m-1200 -1205 l0 -755 -150 0
-150 0 0 400 c0 260 -4 418 -11 452 -19 86 -59 158 -124 223 -70 71 -146 110
-246 127 -230 40 -458 -118 -508 -350 -7 -34 -11 -192 -11 -452 l0 -400 -150
0 -150 0 0 755 0 755 750 0 750 0 0 -755z m-680 135 c26 -13 47 -34 60 -60 19
-37 20 -58 20 -435 l0 -395 -150 0 -150 0 0 398 c1 447 0 442 76 488 48 29 92
30 144 4z"/>
<path d="M2488 3589 c-43 -22 -78 -81 -78 -129 0 -50 35 -107 80 -130 21 -11
53 -20 70 -20 76 0 150 74 150 150 0 50 -35 107 -80 130 -49 25 -94 25 -142
-1z"/>
<path d="M2488 2989 c-43 -22 -78 -81 -78 -129 0 -50 35 -107 80 -130 21 -11
53 -20 70 -20 76 0 150 74 150 150 0 50 -35 107 -80 130 -49 25 -94 25 -142
-1z"/>
</g>
</svg>
