<svg width="14" height="9" viewBox="0 0 14 9" fill="none" xmlns="http://www.w3.org/2000/svg">
<path d="M0.777832 6.65311L6.40283 1.02811C6.48122 0.949446 6.57436 0.887034 6.67692 0.844448C6.77948 0.801863 6.88944 0.77994 7.00049 0.77994C7.11154 0.77994 7.2215 0.801863 7.32406 0.844449C7.42661 0.887034 7.51976 0.949446 7.59815 1.02811L13.2231 6.65311C13.3817 6.81161 13.4707 7.0266 13.4707 7.25076C13.4707 7.47493 13.3817 7.68991 13.2231 7.84842C13.0646 8.00693 12.8497 8.09598 12.6255 8.09598C12.4013 8.09598 12.1863 8.00693 12.0278 7.84842L6.99979 2.82037L1.97174 7.84912C1.81323 8.00763 1.59825 8.09668 1.37408 8.09668C1.14992 8.09668 0.934935 8.00763 0.776426 7.84912C0.617918 7.69061 0.528868 7.47563 0.528868 7.25146C0.528868 7.0273 0.617918 6.81232 0.776426 6.65381L0.777832 6.65311Z" fill="black"/>
</svg>
