<svg width="56" height="56" viewBox="0 0 56 56" fill="none" xmlns="http://www.w3.org/2000/svg">
<rect x="54" y="54" width="52" height="52" rx="26" transform="rotate(-180 54 54)" stroke="url(#paint0_linear_1955_263)" stroke-width="4"/>
<path d="M32.4656 34.9092L25.5585 28.0001L32.4676 21.0929L32.4677 21.0929C32.7904 20.7702 32.9717 20.3325 32.9717 19.8761C32.9717 19.4197 32.7904 18.9819 32.4677 18.6592C32.1449 18.3365 31.7072 18.1552 31.2508 18.1552C30.7944 18.1552 30.3567 18.3365 30.034 18.6592L21.91 26.7832C21.9098 26.7834 21.9095 26.7837 21.9093 26.7839C21.7492 26.9433 21.6221 27.1326 21.5352 27.3411C21.4482 27.5499 21.4033 27.7738 21.4031 28C21.4028 28.2263 21.4472 28.4503 21.5337 28.6593C21.6202 28.8682 21.747 29.0581 21.907 29.2179C21.907 29.218 21.9071 29.218 21.9072 29.2181L30.0319 37.3429C30.1917 37.5027 30.3815 37.6294 30.5902 37.7159C30.799 37.8024 31.0228 37.8469 31.2488 37.8469C31.4748 37.8469 31.6985 37.8024 31.9073 37.7159C32.1161 37.6294 32.3058 37.5027 32.4656 37.3429C32.6254 37.1831 32.7522 36.9934 32.8387 36.7846C32.9251 36.5758 32.9696 36.352 32.9696 36.1261C32.9696 35.9001 32.9251 35.6763 32.8387 35.4675C32.7522 35.2587 32.6254 35.0691 32.4657 34.9093C32.4657 34.9093 32.4656 34.9092 32.4656 34.9092Z" fill="url(#paint1_linear_1955_263)" stroke="url(#paint2_linear_1955_263)" stroke-linejoin="round"/>
<defs>
<linearGradient id="paint0_linear_1955_263" x1="96.1627" y1="68.6207" x2="69.9605" y2="102.392" gradientUnits="userSpaceOnUse">
<stop stop-color="#F39200"/>
<stop offset="0.33" stop-color="#EA5B0B"/>
<stop offset="0.635" stop-color="#D60B51"/>
<stop offset="1" stop-color="#A11881"/>
</linearGradient>
<linearGradient id="paint1_linear_1955_263" x1="24.892" y1="33.1344" x2="33.487" y2="26.8707" gradientUnits="userSpaceOnUse">
<stop stop-color="#F39200"/>
<stop offset="0.33" stop-color="#EA5B0B"/>
<stop offset="0.635" stop-color="#D60B51"/>
<stop offset="1" stop-color="#A11881"/>
</linearGradient>
<linearGradient id="paint2_linear_1955_263" x1="24.892" y1="33.1344" x2="33.487" y2="26.8707" gradientUnits="userSpaceOnUse">
<stop stop-color="#F39200"/>
<stop offset="0.33" stop-color="#EA5B0B"/>
<stop offset="0.635" stop-color="#D60B51"/>
<stop offset="1" stop-color="#A11881"/>
</linearGradient>
</defs>
</svg>
