<svg width="15" height="9" viewBox="0 0 15 9" fill="none" xmlns="http://www.w3.org/2000/svg">
<path d="M14.4137 2.16305L8.16374 8.41305C8.07664 8.50045 7.97315 8.5698 7.85919 8.61712C7.74524 8.66443 7.62306 8.68879 7.49967 8.68879C7.37629 8.68879 7.25411 8.66443 7.14016 8.61712C7.0262 8.5698 6.92271 8.50045 6.83561 8.41305L0.585611 2.16305C0.40949 1.98693 0.310547 1.74806 0.310547 1.49899C0.310547 1.24992 0.40949 1.01105 0.585611 0.834927C0.761731 0.658807 1.0006 0.559863 1.24967 0.559863C1.49875 0.559863 1.73762 0.658807 1.91374 0.834927L7.50046 6.42165L13.0872 0.834146C13.2633 0.658026 13.5022 0.559082 13.7512 0.559082C14.0003 0.559082 14.2392 0.658026 14.4153 0.834146C14.5914 1.01027 14.6904 1.24914 14.6904 1.49821C14.6904 1.74728 14.5914 1.98615 14.4153 2.16227L14.4137 2.16305Z" fill="url(#paint0_linear_1978_7166)"/>
<defs>
<linearGradient id="paint0_linear_1978_7166" x1="10.6236" y1="2.39127" x2="7.73443" y2="8.97795" gradientUnits="userSpaceOnUse">
<stop stop-color="#F39200"/>
<stop offset="1" stop-color="#EA5B0B"/>
</linearGradient>
</defs>
</svg>
