<svg width="19" height="18" viewBox="0 0 19 18" fill="none" xmlns="http://www.w3.org/2000/svg">
<g id="CaretDown">
<path id="Vector" d="M15.7222 7.34787L10.0972 12.9729C10.0188 13.0515 9.92564 13.1139 9.82308 13.1565C9.72052 13.1991 9.61056 13.221 9.49951 13.221C9.38846 13.221 9.2785 13.1991 9.17595 13.1565C9.07339 13.1139 8.98024 13.0515 8.90185 12.9729L3.27685 7.34787C3.11835 7.18936 3.0293 6.97438 3.0293 6.75021C3.0293 6.52605 3.11835 6.31107 3.27685 6.15256C3.43536 5.99405 3.65035 5.905 3.87451 5.905C4.09868 5.905 4.31366 5.99405 4.47217 6.15256L9.50021 11.1806L14.5283 6.15185C14.6868 5.99335 14.9018 5.9043 15.1259 5.9043C15.3501 5.9043 15.5651 5.99335 15.7236 6.15185C15.8821 6.31036 15.9711 6.52535 15.9711 6.74951C15.9711 6.97368 15.8821 7.18866 15.7236 7.34717L15.7222 7.34787Z" fill="#919191"/>
</g>
</svg>
