<?xml version="1.0" encoding="UTF-8"?>
<svg id="Calque_1" xmlns="http://www.w3.org/2000/svg" version="1.1" xmlns:xlink="http://www.w3.org/1999/xlink" viewBox="0 0 155.4 152.5">
  <!-- Generator: Adobe Illustrator 29.0.1, SVG Export Plug-In . SVG Version: 2.1.0 Build 192)  -->
  <defs>
    <style>
      .st0 {
        fill: #a11881;
      }

      .st1 {
        stroke: #a11881;
        stroke-width: 3px;
      }

      .st1, .st2 {
        fill: none;
      }

      .st3 {
        clip-path: url(#clippath);
      }
    </style>
    <clipPath id="clippath">
      <rect class="st2" x="34.7" y="40" width="96" height="90"/>
    </clipPath>
  </defs>
  <circle class="st1" cx="77.7" cy="77" r="75.5"/>
  <g class="st3">
    <g>
      <path class="st0" d="M124.4,40h-34.3c-1.9,0-3.7.9-4.9,2.3-1.2,1.4-1.7,3.4-1.4,5.2h-45.8c-1.8,0-3.2,1.4-3.2,3.2v4c0,.9.3,1.7.9,2.3.6.6,1.4,1,2.3,1h2.3v40.9h-2.1c-1.9,0-3.4,1.5-3.4,3.4v3.6c0,.9.4,1.8,1,2.4.6.6,1.5,1,2.4,1h63.9v8.8c-3,.8-4.9,3.7-4.5,6.8.4,3,3.1,5.3,6.2,5.3s5.7-2.3,6.2-5.3c.4-3-1.5-5.9-4.4-6.8v-8.9h9.8c.9,0,1.8-.4,2.4-1,.6-.6,1-1.5,1-2.4v-3.6c0-.9-.4-1.8-1-2.4-.6-.6-1.5-1-2.4-1h-2.2v-27.5h11.3c3.5,0,6.3-2.8,6.3-6.2v-18.8c0-1.6-.7-3.2-1.8-4.4-1.2-1.2-2.8-1.8-4.5-1.8h0ZM106.5,123.8c0,1.5-1.3,2.8-2.8,2.8s-2.8-1.2-2.8-2.8,1.3-2.8,2.8-2.8,2.8,1.2,2.8,2.8ZM38.1,50.9h45.6v3.7h-45.6v-3.7ZM115.2,105.7H38.1v-3.6h77.1v3.6ZM109.7,98.8H43.6v-40.8h40v7.1c0,1.7.7,3.3,1.9,4.5,1.2,1.2,2.9,1.8,4.6,1.8.7,0,1.2.5,1.2,1.2v5.9c0,1.3.9,2.4,2.2,2.9,1.2.5,2.6.2,3.6-.7l7.1-7.6c1.4-1.4,3.4-2,5.4-1.7v27.4s0,0,0,0ZM127.2,65c0,.8-.3,1.5-.8,2-.5.5-1.3.8-2,.8h-16c-2.5,0-4.9,1-6.5,2.8l-6.9,7.4v-5.6c0-1.2-.5-2.4-1.4-3.3-.9-.9-2.1-1.3-3.4-1.3-1.6,0-2.9-1.3-2.9-2.8v-18.8c0-1.6,1.3-2.8,2.9-2.8h34.3c1.6,0,2.8,1.3,2.8,2.8v18.8Z"/>
      <path class="st0" d="M92.3,52.7h19.6c.9,0,1.7-.8,1.7-1.7s-.8-1.7-1.7-1.7h-19.6c-.9,0-1.7.8-1.7,1.7s.8,1.7,1.7,1.7Z"/>
      <path class="st0" d="M122.1,58.5h-29.8c-.9,0-1.7.8-1.7,1.7s.8,1.7,1.7,1.7h29.8c.9,0,1.7-.8,1.7-1.7s-.8-1.7-1.7-1.7Z"/>
    </g>
  </g>
  <path d="M-36.3,181.9h2.7c-.1.7-.1,1.3-.1,2.4v6.4c0,3.7-2.2,5.8-6.1,5.8s-3.7-.6-4.6-1.7c-.9-1-1.4-2.3-1.4-4.1v-6.4c0-1.1,0-1.8-.1-2.5h2.7c-.1.6-.1,1.3-.1,2.5v6.4c0,2.4,1.3,3.7,3.7,3.7s3.7-1.3,3.7-3.7v-6.3c0-1.2,0-1.8-.1-2.5ZM-28.7,196.2h-2.6c.1-.8.1-1.3.1-2.3v-5.7c0-1,0-1.6-.1-2.3h2.4v1c0,.3,0,.3,0,.8,1.1-1.4,2.1-1.9,3.7-1.9s2.4.5,3.1,1.3c.4.6.6,1.3.6,2.5v4.3c0,1,0,1.7.1,2.3h-2.6c0-.8.1-1.4.1-2.3v-4c0-.8,0-1.2-.3-1.6-.3-.5-.8-.7-1.5-.7-1.3,0-2.4.9-3.2,2.7v3.6c0,.9,0,1.6.1,2.3ZM-3.8,188.8l-2.2.5c-.2-.6-.3-.8-.6-1.1-.4-.5-1.1-.8-1.9-.8-1.8,0-2.9,1.4-2.9,3.6s1.1,3.6,2.9,3.6,1.6-.4,2.1-1c.2-.3.3-.4.4-.9l2.2.5c-.3.7-.4,1.1-.8,1.5-.9,1.2-2.2,1.8-4,1.8-3.2,0-5.2-2.1-5.2-5.5s.5-3.1,1.5-4.2c.9-.9,2.1-1.4,3.6-1.4s3.2.7,4,1.9c.2.4.4.6.6,1.3ZM3.1,196.6c-3.3,0-5.4-2.1-5.4-5.5s2.1-5.5,5.4-5.5,5.3,2.1,5.3,5.5-2.1,5.5-5.3,5.5ZM3,187.4c-1.9,0-3,1.4-3,3.6s1.2,3.6,3,3.6,3-1.3,3-3.5-1.1-3.7-3-3.7ZM17,196.2v-1.2c-.7.7-1.2.9-1.9,1.1-.5.1-1.1.2-1.7.2-2.2,0-3.5-1.1-3.5-3s.8-2.4,2-2.9c1.2-.5,2.5-.7,5.1-.7v-.9c0-1-.7-1.6-2.1-1.6s-1.5.2-1.9.5c-.3.3-.5.5-.7,1.2l-2.3-.4c.4-1,.7-1.5,1.4-2,.9-.6,1.9-.9,3.4-.9s2.8.3,3.5,1.1c.6.6.8,1.3.8,2.5v4.8c0,1,0,1.4.1,2.2h-2.4ZM17,192.2v-.9c-3.4,0-4.8.7-4.8,2.1s.6,1.4,1.6,1.4,1.9-.4,2.5-1c.4-.4.6-1,.6-1.6ZM31,188.8l-2.2.5c-.2-.6-.3-.8-.6-1.1-.4-.5-1.1-.8-1.9-.8-1.8,0-2.9,1.4-2.9,3.6s1.1,3.6,2.9,3.6,1.6-.4,2.1-1c.2-.3.3-.4.4-.9l2.2.5c-.3.7-.4,1.1-.8,1.5-.9,1.2-2.2,1.8-4,1.8-3.2,0-5.2-2.1-5.2-5.5s.5-3.1,1.5-4.2c.9-.9,2.1-1.4,3.6-1.4s3.2.7,4,1.9c.2.4.4.6.6,1.3ZM32.8,181.9h2.6c0,.7-.1,1.4-.1,2.4v2.6c0,.2,0,.3,0,.8,1.1-1.4,2.1-1.9,3.7-1.9s3.6,1.3,3.6,3.6v4.5c0,1,0,1.7.1,2.3h-2.6c0-.8.1-1.4.1-2.3v-4c0-.8-.2-1.4-.5-1.8-.3-.3-.8-.5-1.2-.5-1.3,0-2.4.9-3.2,2.7v3.6c0,.9,0,1.6.1,2.3h-2.6c.1-.8.1-1.3.1-2.3v-9.6c0-1.1,0-1.6-.1-2.4ZM44.9,181.9h2.6v2.3h-2.6v-2.3ZM44.9,185.9h2.6c0,.7-.1,1.3-.1,2.4v5.6c0,1,0,1.6.1,2.4h-2.6c.1-.8.1-1.4.1-2.3v-5.7c0-1,0-1.6-.1-2.3ZM52.4,196.2h-2.6c.1-.8.1-1.3.1-2.3v-5.7c0-1,0-1.6-.1-2.3h2.4v1c0,.3,0,.3,0,.8,1.1-1.4,2.1-1.9,3.7-1.9s2.4.5,3.1,1.3c.4.6.6,1.3.6,2.5v4.3c0,1,0,1.7.1,2.3h-2.6c0-.8.1-1.4.1-2.3v-4c0-.8,0-1.2-.3-1.6-.3-.5-.8-.7-1.5-.7-1.3,0-2.4.9-3.2,2.7v3.6c0,.9,0,1.6.1,2.3ZM61.7,197.9l1.8-1.2c.7,1,1.5,1.4,2.8,1.4s2.4-.5,3-1.4c.3-.5.4-1.2.5-2.4-.9,1.1-2,1.6-3.5,1.6-2.9,0-4.7-2-4.7-5s1.9-5.1,4.8-5.1,2.7.5,3.4,1.6c0-.4,0-.4,0-.6v-.8h2.4c0,.8-.1,1.3-.1,2.2v6c0,2.2-.5,3.5-1.5,4.4-.9.7-2.4,1.2-4.2,1.2s-3.3-.5-4.5-1.9ZM63.9,190.9c0,1.1.3,1.9.8,2.5.4.5,1.2.8,1.9.8,1,0,2-.6,2.5-1.4.3-.6.5-1.2.5-2.1s-.4-2.1-1.1-2.7c-.5-.4-1.1-.6-1.7-.6-1.8,0-2.9,1.4-2.9,3.5ZM82.8,185.9v.9c0,.2,0,.4,0,.6,1-1.3,2.1-1.8,3.7-1.8s2.6.4,3.4,1.3c1,1,1.4,2.3,1.4,4.1,0,3.3-1.8,5.3-4.9,5.3s-2.8-.6-3.6-1.7q0,.2,0,.6c0,.1,0,.4,0,.8v1.4c0,1.1,0,1.6.1,2.4h-2.5c0-.8.1-1.5.1-2.4v-9.1c0-1,0-1.6-.1-2.4h2.4ZM88.9,191c0-2.1-1.1-3.4-2.9-3.4s-3.1,1.5-3.1,3.4,1.3,3.5,3.2,3.5,2.9-1.3,2.9-3.5ZM102.8,191.6h-7.8c0,1,.3,1.5.7,2,.5.6,1.3,1,2.2,1s1.6-.3,2.2-.9c.2-.3.3-.5.5-.9l2.1.7c-.4.9-.6,1.2-1.1,1.7-.9.9-2.2,1.4-3.7,1.4-3.2,0-5.2-2.1-5.2-5.5s2-5.5,5.1-5.5,3.8,1,4.5,2.8c.3.9.5,1.5.5,2.7,0,0,0,0,0,.5ZM95,189.9h5.4c-.1-.8-.3-1.3-.8-1.7s-1.1-.7-1.9-.7c-1.4,0-2.4.9-2.7,2.4ZM112.1,185.9l-.6,2.3c-.8-.2-1.1-.3-1.6-.3-.9,0-1.6.3-2.1.9-.4.5-.6.9-.7,1.8v3.3c0,1,0,1.5.1,2.3h-2.6c0-.9.1-1.4.1-2.3v-5.7c0-1.1,0-1.6-.1-2.3h2.4v1.7c.6-1.3,1.8-1.9,3.4-1.9s.9,0,1.7.2ZM113,193.3l2.5-.3c.3,1.2,1,1.7,2.4,1.7s2.2-.5,2.2-1.4-.2-.7-.5-.9c-.3-.2-.4-.3-1.9-.6-1.4-.3-2-.5-2.6-.8-1-.5-1.6-1.3-1.6-2.4s.2-1.2.6-1.7c.7-.9,2-1.4,3.6-1.4s2.6.4,3.4,1c.5.4.7.9,1,1.8l-2.4.3c-.2-1-.8-1.4-2-1.4s-1.9.5-1.9,1.3.2.6.6.8c.4.2.8.3,1.8.5,1.8.4,2.6.6,3.2,1.1.7.5,1,1.2,1,2.2s-.3,1.5-.9,2c-.8.8-2.1,1.2-3.7,1.2s-3.2-.6-4-1.6c-.3-.4-.5-.8-.7-1.6ZM129.1,196.6c-3.3,0-5.4-2.1-5.4-5.5s2.1-5.5,5.4-5.5,5.3,2.1,5.3,5.5-2.1,5.5-5.3,5.5ZM129.1,187.4c-1.9,0-3,1.4-3,3.6s1.2,3.6,3,3.6,3-1.3,3-3.5-1.1-3.7-3-3.7ZM138.8,196.2h-2.6c.1-.8.1-1.3.1-2.3v-5.7c0-1,0-1.6-.1-2.3h2.4v1c0,.3,0,.3,0,.8,1.1-1.4,2.1-1.9,3.7-1.9s2.4.5,3.1,1.3c.4.6.6,1.3.6,2.5v4.3c0,1,0,1.7.1,2.3h-2.6c0-.8.1-1.4.1-2.3v-4c0-.8,0-1.2-.3-1.6-.3-.5-.8-.7-1.5-.7-1.3,0-2.4.9-3.1,2.7v3.6c0,.9,0,1.6.1,2.3ZM150.9,196.2h-2.6c.1-.8.1-1.3.1-2.3v-5.7c0-1,0-1.6-.1-2.3h2.4v1c0,.3,0,.3,0,.8,1.1-1.4,2.1-1.9,3.7-1.9s2.4.5,3.1,1.3c.4.6.6,1.3.6,2.5v4.3c0,1,0,1.7.1,2.3h-2.6c0-.8.1-1.4.1-2.3v-4c0-.8,0-1.2-.3-1.6-.3-.5-.8-.7-1.5-.7-1.3,0-2.4.9-3.1,2.7v3.6c0,.9,0,1.6.1,2.3ZM167.2,196.2v-1.2c-.7.7-1.2.9-1.9,1.1-.5.1-1.1.2-1.7.2-2.2,0-3.5-1.1-3.5-3s.8-2.4,2-2.9c1.2-.5,2.5-.7,5.1-.7v-.9c0-1-.7-1.6-2.1-1.6s-1.5.2-1.9.5c-.3.3-.5.5-.7,1.2l-2.3-.4c.4-1,.7-1.5,1.4-2,.9-.6,1.9-.9,3.4-.9s2.8.3,3.5,1.1c.6.6.8,1.3.8,2.5v4.8c0,1,0,1.4.1,2.2h-2.4ZM167.2,192.2v-.9c-3.4,0-4.8.7-4.8,2.1s.6,1.4,1.6,1.4,1.9-.4,2.5-1c.4-.4.6-1,.6-1.6ZM171.8,181.9h2.6c0,.7-.1,1.3-.1,2.4v9.6c0,1,0,1.5.1,2.3h-2.6c0-.8.1-1.3.1-2.3v-9.6c0-1.1,0-1.7-.1-2.3ZM176.7,181.9h2.6v2.3h-2.6v-2.3ZM176.7,185.9h2.6c0,.7-.1,1.3-.1,2.4v5.6c0,1,0,1.6.1,2.4h-2.6c.1-.8.1-1.4.1-2.3v-5.7c0-1,0-1.6-.1-2.3ZM181.1,193.3l2.5-.3c.3,1.2,1,1.7,2.4,1.7s2.2-.5,2.2-1.4-.2-.7-.5-.9c-.3-.2-.5-.3-1.9-.6-1.4-.3-2-.5-2.6-.8-1-.5-1.6-1.3-1.6-2.4s.2-1.2.6-1.7c.7-.9,2-1.4,3.6-1.4s2.6.4,3.4,1c.5.4.7.9,1,1.8l-2.4.3c-.2-1-.8-1.4-2-1.4s-1.9.5-1.9,1.3.2.6.6.8c.4.2.8.3,1.8.5,1.8.4,2.6.6,3.2,1.1.7.5,1,1.2,1,2.2s-.3,1.5-.9,2c-.8.8-2.1,1.2-3.7,1.2s-3.2-.6-4-1.6c-.3-.4-.5-.8-.7-1.6ZM201.9,191.6h-7.8c0,1,.3,1.5.7,2,.5.6,1.3,1,2.2,1s1.6-.3,2.2-.9c.2-.3.3-.5.5-.9l2.1.7c-.4.9-.6,1.2-1.1,1.7-.9.9-2.2,1.4-3.7,1.4-3.2,0-5.2-2.1-5.2-5.5s2-5.5,5.1-5.5,3.8,1,4.5,2.8c.3.9.5,1.5.5,2.7,0,0,0,0,0,.5ZM194.2,189.9h5.4c-.1-.8-.3-1.3-.8-1.7-.5-.5-1.1-.7-1.9-.7-1.4,0-2.4.9-2.7,2.4ZM200.1,182.5l-3.9,2.5-.8-.8,3.1-3.3,1.5,1.6ZM-34.4,212.9v.9c0,.2,0,.4,0,.6,1-1.3,2.1-1.8,3.7-1.8s2.6.4,3.4,1.3c1,1,1.4,2.3,1.4,4.1,0,3.3-1.8,5.3-4.9,5.3s-2.8-.6-3.6-1.7q0,.2,0,.6c0,.1,0,.4,0,.8v1.4c0,1.1,0,1.6.1,2.4h-2.5c0-.8.1-1.5.1-2.4v-9.1c0-1,0-1.6-.1-2.4h2.4ZM-28.2,218c0-2.1-1.1-3.4-2.9-3.4s-3.1,1.5-3.1,3.4,1.3,3.5,3.2,3.5,2.9-1.3,2.9-3.5ZM-19.1,223.6c-3.3,0-5.4-2.1-5.4-5.5s2.1-5.5,5.4-5.5,5.3,2.1,5.3,5.5-2.1,5.5-5.3,5.5ZM-19.1,214.4c-1.9,0-3,1.4-3,3.6s1.2,3.6,3,3.6,3-1.3,3-3.5-1.1-3.7-3-3.7ZM-4.7,212.9h2.6c-.1.8-.1,1.3-.1,2.3v5.7c0,1,0,1.6.1,2.3h-2.4v-1c0-.3,0-.3,0-.8-1,1.4-2,1.9-3.7,1.9s-1.6-.2-2.2-.5c-1-.6-1.5-1.6-1.5-3.1v-4.6c0-1,0-1.7-.1-2.3h2.6c-.1.8-.1,1.4-.1,2.3v4c0,1,.3,1.7.8,2.1.3.1.6.3,1,.3,1.3,0,2.3-.9,3.1-2.7v-3.6c0-.9,0-1.6-.1-2.3ZM7.7,212.9l-.6,2.3c-.8-.2-1.1-.3-1.6-.3-.9,0-1.6.3-2.1.9-.4.5-.6.9-.7,1.8v3.3c0,1,0,1.5.1,2.3H.2c0-.9.1-1.4.1-2.3v-5.7c0-1.1,0-1.6-.1-2.3h2.4v1.7c.6-1.3,1.8-1.9,3.4-1.9s.9,0,1.7.2ZM22.3,212.9h2.6c-.1.8-.1,1.3-.1,2.3v5.7c0,1,0,1.6.1,2.3h-2.4v-1c0-.3,0-.3,0-.8-1,1.4-2,1.9-3.7,1.9s-1.6-.2-2.2-.5c-1-.6-1.5-1.6-1.5-3.1v-4.6c0-1,0-1.7-.1-2.3h2.6c-.1.8-.1,1.4-.1,2.3v4c0,1,.3,1.7.8,2.1.3.1.6.3,1,.3,1.3,0,2.3-.9,3.1-2.7v-3.6c0-.9,0-1.6-.1-2.3ZM29.7,223.2h-2.6c.1-.8.1-1.3.1-2.3v-5.7c0-1,0-1.6-.1-2.3h2.4v1c0,.3,0,.3,0,.8,1.1-1.4,2.1-1.9,3.7-1.9s2.4.5,3.1,1.3c.4.6.6,1.3.6,2.5v4.3c0,1,0,1.7.1,2.3h-2.6c0-.8.1-1.4.1-2.3v-4c0-.8,0-1.2-.3-1.6-.3-.5-.8-.7-1.5-.7-1.3,0-2.4.9-3.2,2.7v3.6c0,.9,0,1.6.1,2.3ZM44.8,220.3l2.5-.3c.3,1.2,1,1.7,2.4,1.7s2.2-.5,2.2-1.4-.2-.7-.5-.9c-.3-.2-.5-.3-1.9-.6-1.4-.3-2-.5-2.6-.8-1-.5-1.6-1.3-1.6-2.4s.2-1.2.6-1.7c.7-.9,2-1.4,3.6-1.4s2.6.4,3.4,1c.5.4.7.9,1,1.8l-2.4.3c-.2-1-.8-1.4-2-1.4s-1.9.5-1.9,1.3.2.6.6.8c.4.2.8.3,1.8.5,1.8.4,2.6.6,3.2,1.1.7.5,1,1.2,1,2.2s-.3,1.5-.9,2c-.8.8-2.1,1.2-3.7,1.2s-3.2-.6-4-1.6c-.3-.4-.5-.8-.7-1.6ZM60.9,223.6c-3.3,0-5.4-2.1-5.4-5.5s2.1-5.5,5.4-5.5,5.3,2.1,5.3,5.5-2.1,5.5-5.3,5.5ZM60.8,214.4c-1.9,0-3,1.4-3,3.6s1.2,3.6,3,3.6,3-1.3,3-3.5-1.1-3.7-3-3.7ZM75.2,212.9h2.6c-.1.8-.1,1.3-.1,2.3v5.7c0,1,0,1.6.1,2.3h-2.4v-1c0-.3,0-.3,0-.8-1,1.4-2,1.9-3.7,1.9s-1.6-.2-2.2-.5c-1-.6-1.5-1.6-1.5-3.1v-4.6c0-1,0-1.7-.1-2.3h2.6c-.1.8-.1,1.4-.1,2.3v4c0,1,.3,1.7.8,2.1.3.1.6.3,1,.3,1.3,0,2.3-.9,3.1-2.7v-3.6c0-.9,0-1.6-.1-2.3ZM81.3,210.1h2.6c0,.6-.1,1.4-.1,2.2v.6h.8c.8,0,1.2,0,1.8-.1v2.1c-.6,0-.9-.1-1.8-.1h-.8v5.6c0,.9.3,1.2,1.2,1.2s.8,0,1.3-.4l.3,1.9c-.8.3-1.3.4-2.2.4-2.1,0-2.9-.7-2.9-2.6v-6h-.7c-.7,0-1,0-1.6.1v-2.1c.5,0,.9.1,1.6.1h.7v-.6c0-.8,0-1.6-.1-2.2ZM87.9,208.9h2.6v2.3h-2.6v-2.3ZM87.9,212.9h2.6c0,.7-.1,1.3-.1,2.4v5.6c0,1,0,1.6.1,2.4h-2.6c.1-.8.1-1.4.1-2.3v-5.7c0-1,0-1.6-.1-2.3ZM102.5,218.6h-7.8c0,1,.3,1.5.7,2,.5.6,1.3,1,2.2,1s1.6-.3,2.2-.9c.2-.3.3-.5.5-.9l2.1.7c-.4.9-.6,1.2-1.1,1.7-.9.9-2.2,1.4-3.7,1.4-3.2,0-5.2-2.1-5.2-5.5s2-5.5,5.1-5.5,3.8,1,4.5,2.8c.3.9.5,1.5.5,2.7,0,0,0,0,0,.5ZM94.7,216.9h5.4c-.1-.8-.3-1.3-.8-1.7s-1.1-.7-1.9-.7c-1.4,0-2.4.9-2.7,2.4ZM106.8,223.2h-2.6c.1-.8.1-1.3.1-2.3v-5.7c0-1,0-1.6-.1-2.3h2.4v1c0,.3,0,.3,0,.8,1.1-1.4,2.1-1.9,3.7-1.9s2.4.5,3.1,1.3c.4.6.6,1.3.6,2.5v4.3c0,1,0,1.7.1,2.3h-2.6c0-.8.1-1.4.1-2.3v-4c0-.8,0-1.2-.3-1.6-.3-.5-.8-.7-1.5-.7-1.3,0-2.4.9-3.2,2.7v3.6c0,.9,0,1.6.1,2.3ZM127.3,223.6c-3.3,0-5.4-2.1-5.4-5.5s2.1-5.5,5.4-5.5,5.3,2.1,5.3,5.5-2.1,5.5-5.3,5.5ZM127.3,214.4c-1.9,0-3,1.4-3,3.6s1.2,3.6,3,3.6,3-1.3,3-3.5-1.1-3.7-3-3.7ZM136.8,212.9v.9c0,.2,0,.4,0,.6,1-1.3,2.1-1.8,3.7-1.8s2.6.4,3.4,1.3c1,1,1.4,2.3,1.4,4.1,0,3.3-1.8,5.3-4.9,5.3s-2.8-.6-3.6-1.7q0,.2,0,.6c0,.1,0,.4,0,.8v1.4c0,1.1,0,1.6.1,2.4h-2.5c0-.8.1-1.5.1-2.4v-9.1c0-1,0-1.6-.1-2.4h2.4ZM142.9,218c0-2.1-1.1-3.4-2.9-3.4s-3.1,1.5-3.1,3.4,1.3,3.5,3.2,3.5,2.9-1.3,2.9-3.5ZM148.3,210.1h2.6c0,.6-.1,1.4-.1,2.2v.6h.8c.8,0,1.2,0,1.8-.1v2.1c-.6,0-.9-.1-1.8-.1h-.8v5.6c0,.9.3,1.2,1.2,1.2s.8,0,1.3-.4l.3,1.9c-.8.3-1.3.4-2.2.4-2.1,0-2.9-.7-2.9-2.6v-6h-.7c-.7,0-1,0-1.6.1v-2.1c.5,0,.9.1,1.6.1h.7v-.6c0-.8,0-1.6-.1-2.2ZM154.9,208.9h2.6v2.3h-2.6v-2.3ZM154.9,212.9h2.6c0,.7-.1,1.3-.1,2.4v5.6c0,1,0,1.6.1,2.4h-2.6c.1-.8.1-1.4.1-2.3v-5.7c0-1,0-1.6-.1-2.3ZM162.4,223.2h-2.5c0-.8.1-1.4.1-2.3v-5.7c0-1.1,0-1.7-.1-2.3h2.4v.9c0,.1,0,.4,0,.7.5-1.1,1.9-1.8,3.3-1.8s1.8.3,2.3.8c.3.3.5.5.7,1.1.6-.8,1-1.1,1.5-1.4.6-.3,1.2-.5,2-.5,1.2,0,2.1.4,2.7,1,.6.6.8,1.5.8,2.7v4.4c0,1,0,1.6.1,2.3h-2.6c.1-.7.1-1.3.1-2.3v-4c0-1.6-.6-2.3-1.8-2.3s-1,.2-1.5.5c-.6.5-.9,1.1-1.1,2.2v3.6c0,1,0,1.6.1,2.3h-2.6c.1-.8.1-1.3.1-2.3v-4c0-1.5-.6-2.3-1.7-2.3s-1.4.3-1.9.9c-.4.5-.6.9-.8,1.8v3.6c0,1,0,1.5.1,2.3ZM184.8,223.2v-1.2c-.7.7-1.2.9-1.9,1.1-.5.1-1.1.2-1.7.2-2.2,0-3.5-1.1-3.5-3s.8-2.4,2-2.9c1.2-.5,2.5-.7,5.1-.7v-.9c0-1-.7-1.6-2.1-1.6s-1.5.2-1.9.5c-.3.3-.5.5-.7,1.2l-2.3-.4c.4-1,.7-1.5,1.4-2,.9-.6,1.9-.9,3.4-.9s2.8.3,3.5,1.1c.6.6.8,1.3.8,2.5v4.8c0,1,0,1.4.1,2.2h-2.4ZM184.8,219.2v-.9c-3.4,0-4.8.7-4.8,2.1s.6,1.4,1.6,1.4,1.9-.4,2.5-1c.4-.4.6-1,.6-1.6ZM189.4,208.9h2.6c0,.7-.1,1.3-.1,2.4v9.6c0,1,0,1.5.1,2.3h-2.6c0-.8.1-1.3.1-2.3v-9.6c0-1.1,0-1.7-.1-2.3Z"/>
</svg>