<svg width="300" height="227" viewBox="0 0 300 227" fill="none" xmlns="http://www.w3.org/2000/svg">
<circle cx="150" cy="77" r="75.5" stroke="#A11881" stroke-width="3"/>
<g clip-path="url(#clip0_2367_5451)">
<path d="M196.692 40H162.405C160.493 40.0164 158.681 40.8624 157.455 42.3067C156.229 43.755 155.707 45.6602 156.027 47.5203H110.206C108.436 47.5203 107 48.9359 107 50.6792V54.7006C106.983 55.5507 107.313 56.3743 107.912 56.9786C108.517 57.587 109.344 57.9291 110.204 57.9291H112.553V98.8228H110.427C108.535 98.8228 107 100.335 107 102.203V105.769C107 106.665 107.359 107.527 108.003 108.16C108.646 108.793 109.521 109.15 110.429 109.15H174.337V117.971C171.354 118.811 169.455 121.693 169.887 124.721C170.319 127.751 172.946 130.002 176.049 130.002C179.152 130.002 181.779 127.751 182.211 124.721C182.643 121.691 180.746 118.811 177.762 117.971V109.082H187.567C188.475 109.082 189.35 108.728 189.992 108.093C190.634 107.46 190.996 106.597 190.996 105.702V102.135C190.996 101.24 190.636 100.378 189.992 99.7446C189.35 99.1116 188.475 98.7552 187.567 98.7552H185.407V71.21H196.688C200.173 71.21 202.998 68.426 202.998 64.9906V46.2195C202.998 44.5724 202.333 42.9868 201.15 41.8212C199.967 40.6555 198.359 40 196.688 40H196.692ZM178.863 123.832C178.863 125.362 177.604 126.603 176.051 126.603C174.499 126.603 173.239 125.362 173.239 123.832C173.239 122.301 174.499 121.06 176.051 121.06C177.604 121.06 178.863 122.301 178.863 123.832ZM110.429 50.9005H156.027V54.551H110.429V50.9005ZM187.571 105.7H110.429V102.133H187.571V105.7ZM182.018 98.7552H115.982V57.9291H156.027V65.0602C156.031 66.738 156.721 68.342 157.939 69.5138C159.161 70.6835 160.807 71.3227 162.507 71.2797C163.189 71.2797 163.742 71.8246 163.742 72.4965V78.378C163.835 79.6788 164.677 80.8076 165.905 81.2849C167.133 81.7622 168.536 81.4959 169.501 80.6089L176.598 73.021C178.025 71.6566 180.018 71.0318 181.98 71.3309L182.016 98.7572L182.018 98.7552ZM199.573 64.9926C199.573 65.7444 199.269 66.4676 198.729 67.0002C198.188 67.5328 197.457 67.8319 196.692 67.8319H180.715C178.225 67.8278 175.845 68.8583 174.166 70.6713L167.308 78.0564V72.4289C167.304 71.1834 166.788 69.987 165.876 69.1205C164.968 68.2539 163.738 67.7889 162.474 67.8319C160.884 67.8319 159.594 66.5598 159.594 64.9926V46.2195C159.594 44.6523 160.884 43.3801 162.474 43.3801H196.761C198.326 43.4191 199.573 44.6769 199.573 46.2195V64.9926Z" fill="#A11881"/>
<path d="M164.669 52.7415H184.281C185.229 52.7415 185.996 51.9856 185.996 51.0514C185.996 50.1173 185.229 49.3613 184.281 49.3613H164.669C163.721 49.3613 162.954 50.1173 162.954 51.0514C162.954 51.9856 163.721 52.7415 164.669 52.7415Z" fill="#A11881"/>
<path d="M194.429 58.4531H164.669C163.721 58.4531 162.954 59.209 162.954 60.1432C162.954 61.0773 163.721 61.8333 164.669 61.8333H194.429C195.377 61.8333 196.144 61.0773 196.144 60.1432C196.144 59.209 195.377 58.4531 194.429 58.4531Z" fill="#A11881"/>
</g>
<path d="M36.0347 181.888H38.7167C38.6087 182.554 38.5727 183.202 38.5727 184.336V190.726C38.5727 194.452 36.3587 196.54 32.4347 196.54C30.4367 196.54 28.7807 195.928 27.7907 194.848C26.8727 193.858 26.4407 192.508 26.4407 190.708V184.354C26.4407 183.238 26.4047 182.536 26.2967 181.888H28.9787C28.8707 182.5 28.8347 183.184 28.8347 184.354V190.708C28.8347 193.138 30.0947 194.416 32.5247 194.416C34.9367 194.416 36.1787 193.138 36.1787 190.69V184.354C36.1787 183.202 36.1427 182.554 36.0347 181.888ZM43.6865 196.216H41.0945C41.2025 195.442 41.2385 194.884 41.2385 193.876V188.224C41.2385 187.234 41.2025 186.622 41.0945 185.884H43.5425V186.838C43.5425 187.108 43.5425 187.162 43.5065 187.612C44.6045 186.208 45.5585 185.704 47.1785 185.704C48.5645 185.704 49.5905 186.154 50.2385 187.036C50.6705 187.63 50.8505 188.35 50.8505 189.556V193.876C50.8505 194.866 50.8865 195.55 50.9945 196.216H48.3845C48.4745 195.406 48.5105 194.794 48.5105 193.876V189.88C48.5105 189.124 48.4205 188.638 48.2045 188.296C47.9165 187.828 47.3765 187.558 46.6925 187.558C45.3965 187.558 44.3345 188.458 43.5425 190.24V193.876C43.5425 194.758 43.5785 195.442 43.6865 196.216ZM68.578 188.818L66.382 189.34C66.184 188.782 66.058 188.53 65.824 188.242C65.392 187.702 64.762 187.414 63.97 187.414C62.206 187.414 61.108 188.8 61.108 191.032C61.108 193.282 62.224 194.668 64.042 194.668C64.942 194.668 65.662 194.308 66.112 193.66C66.274 193.408 66.364 193.21 66.472 192.76L68.704 193.21C68.452 193.93 68.272 194.308 67.948 194.74C67.084 195.928 65.698 196.558 63.988 196.558C60.82 196.558 58.768 194.416 58.768 191.086C58.768 189.394 59.308 187.936 60.298 186.928C61.18 186.028 62.44 185.56 63.916 185.56C65.68 185.56 67.084 186.244 67.948 187.504C68.182 187.864 68.326 188.152 68.578 188.818ZM75.4 196.558C72.106 196.558 70.018 194.434 70.018 191.068C70.018 187.72 72.106 185.578 75.382 185.578C78.64 185.578 80.71 187.702 80.71 191.032C80.71 194.362 78.604 196.558 75.4 196.558ZM75.382 187.45C73.492 187.45 72.34 188.818 72.34 191.068C72.34 193.282 73.492 194.65 75.364 194.65C77.236 194.65 78.388 193.3 78.388 191.104C78.388 188.782 77.29 187.45 75.382 187.45ZM89.3486 196.216V195.046C88.6286 195.73 88.1786 195.982 87.4406 196.18C86.9186 196.324 86.3426 196.396 85.7666 196.396C83.5706 196.396 82.2386 195.262 82.2386 193.372C82.2386 192.112 83.0306 190.978 84.2726 190.456C85.4426 189.97 86.7746 189.79 89.3486 189.736V188.818C89.3486 187.774 88.6466 187.234 87.2786 187.234C86.5586 187.234 85.8206 187.432 85.4066 187.756C85.0646 188.008 84.9026 188.26 84.6866 188.908L82.3826 188.494C82.7966 187.45 83.1206 186.982 83.8046 186.496C84.6866 185.848 85.6946 185.578 87.2426 185.578C88.9706 185.578 90.0146 185.884 90.7886 186.64C91.4006 187.216 91.6346 187.9 91.6346 189.124V193.966C91.6346 194.92 91.6706 195.406 91.7786 196.216H89.3486ZM89.3486 192.202V191.302C85.9106 191.374 84.5606 191.968 84.5606 193.372C84.5606 194.218 85.1906 194.74 86.1986 194.74C87.1526 194.74 88.0886 194.38 88.7006 193.786C89.1326 193.354 89.3486 192.832 89.3486 192.202ZM103.295 188.818L101.099 189.34C100.901 188.782 100.775 188.53 100.541 188.242C100.109 187.702 99.4788 187.414 98.6868 187.414C96.9228 187.414 95.8248 188.8 95.8248 191.032C95.8248 193.282 96.9408 194.668 98.7588 194.668C99.6588 194.668 100.379 194.308 100.829 193.66C100.991 193.408 101.081 193.21 101.189 192.76L103.421 193.21C103.169 193.93 102.989 194.308 102.665 194.74C101.801 195.928 100.415 196.558 98.7048 196.558C95.5368 196.558 93.4848 194.416 93.4848 191.086C93.4848 189.394 94.0248 187.936 95.0148 186.928C95.8968 186.028 97.1568 185.56 98.6328 185.56C100.397 185.56 101.801 186.244 102.665 187.504C102.899 187.864 103.043 188.152 103.295 188.818ZM105.185 181.888H107.741C107.651 182.572 107.615 183.238 107.615 184.264V186.838C107.615 187.072 107.615 187.162 107.579 187.612C108.695 186.208 109.667 185.704 111.305 185.704C113.609 185.704 114.923 187.018 114.923 189.34V193.876C114.923 194.866 114.959 195.55 115.067 196.216H112.457C112.547 195.406 112.583 194.794 112.583 193.876V189.88C112.583 189.052 112.403 188.458 112.061 188.098C111.737 187.756 111.305 187.576 110.819 187.576C109.469 187.576 108.425 188.44 107.615 190.24V193.876C107.615 194.758 107.651 195.442 107.759 196.216H105.167C105.275 195.442 105.311 194.902 105.311 193.876V184.246C105.311 183.166 105.275 182.608 105.185 181.888ZM117.278 181.888H119.924V184.174H117.278V181.888ZM117.278 185.884H119.906C119.816 186.55 119.78 187.144 119.78 188.242V193.858C119.78 194.848 119.816 195.46 119.906 196.216H117.278C117.386 195.406 117.422 194.776 117.422 193.876V188.224C117.422 187.234 117.386 186.622 117.278 185.884ZM124.757 196.216H122.165C122.273 195.442 122.309 194.884 122.309 193.876V188.224C122.309 187.234 122.273 186.622 122.165 185.884H124.613V186.838C124.613 187.108 124.613 187.162 124.577 187.612C125.675 186.208 126.629 185.704 128.249 185.704C129.635 185.704 130.661 186.154 131.309 187.036C131.741 187.63 131.921 188.35 131.921 189.556V193.876C131.921 194.866 131.957 195.55 132.065 196.216H129.455C129.545 195.406 129.581 194.794 129.581 193.876V189.88C129.581 189.124 129.491 188.638 129.275 188.296C128.987 187.828 128.447 187.558 127.763 187.558C126.467 187.558 125.405 188.458 124.613 190.24V193.876C124.613 194.758 124.649 195.442 124.757 196.216ZM134.06 197.872L135.86 196.63C136.562 197.602 137.354 197.998 138.65 197.998C140.036 197.998 141.098 197.512 141.602 196.648C141.908 196.108 142.034 195.478 142.07 194.254C141.17 195.388 140.108 195.892 138.542 195.892C135.68 195.892 133.844 193.93 133.844 190.852C133.844 187.738 135.734 185.722 138.65 185.722C140.252 185.722 141.314 186.208 142.088 187.306C142.052 186.946 142.052 186.91 142.052 186.712V185.884H144.464C144.374 186.658 144.338 187.162 144.338 188.134V194.164C144.338 196.324 143.87 197.71 142.826 198.592C141.926 199.33 140.432 199.744 138.578 199.744C136.472 199.744 135.284 199.258 134.06 197.872ZM136.202 190.906C136.202 191.968 136.49 192.85 137.03 193.39C137.48 193.876 138.254 194.2 138.938 194.2C139.928 194.2 140.936 193.624 141.44 192.778C141.782 192.22 141.944 191.554 141.944 190.726C141.944 189.574 141.584 188.674 140.864 188.062C140.36 187.648 139.766 187.414 139.118 187.414C137.318 187.414 136.202 188.764 136.202 190.906ZM155.127 185.884V186.766C155.127 186.964 155.127 187.162 155.109 187.396C156.099 186.136 157.161 185.632 158.781 185.632C160.221 185.632 161.373 186.064 162.201 186.892C163.155 187.864 163.623 189.214 163.623 191.032C163.623 194.344 161.805 196.342 158.745 196.342C157.161 196.342 155.973 195.784 155.109 194.614C155.109 194.83 155.109 194.83 155.127 195.19C155.145 195.316 155.145 195.64 155.145 195.964V197.332C155.145 198.394 155.181 198.97 155.271 199.726H152.733C152.823 198.88 152.859 198.268 152.859 197.35V188.296C152.859 187.252 152.823 186.658 152.733 185.884H155.127ZM161.283 190.996C161.283 188.872 160.167 187.558 158.349 187.558C156.567 187.558 155.217 189.034 155.217 190.96C155.217 193.012 156.549 194.452 158.421 194.452C160.185 194.452 161.283 193.12 161.283 190.996ZM175.161 191.644H167.331C167.421 192.634 167.583 193.138 167.997 193.66C168.519 194.308 169.329 194.668 170.247 194.668C171.129 194.668 171.885 194.344 172.407 193.768C172.623 193.516 172.749 193.318 172.929 192.832L175.053 193.516C174.639 194.38 174.405 194.722 173.955 195.172C173.019 196.09 171.759 196.558 170.247 196.558C167.061 196.558 165.045 194.434 165.045 191.068C165.045 187.738 167.043 185.56 170.121 185.56C172.227 185.56 173.883 186.604 174.603 188.404C174.945 189.268 175.071 189.916 175.125 191.14C175.125 191.176 175.125 191.23 175.161 191.644ZM167.385 189.862H172.821C172.695 189.07 172.479 188.584 172.029 188.134C171.543 187.648 170.931 187.414 170.085 187.414C168.681 187.414 167.655 188.35 167.385 189.862ZM184.48 185.884L183.85 188.152C183.094 187.936 182.716 187.864 182.248 187.864C181.348 187.864 180.664 188.152 180.16 188.746C179.71 189.268 179.53 189.682 179.422 190.546V193.876C179.422 194.848 179.458 195.37 179.548 196.216H176.974C177.064 195.334 177.1 194.812 177.1 193.876V188.224C177.1 187.126 177.082 186.622 176.974 185.884H179.422V187.576C180.07 186.298 181.186 185.686 182.806 185.686C183.238 185.686 183.67 185.74 184.48 185.884ZM185.348 193.282L187.814 192.976C188.12 194.2 188.786 194.686 190.19 194.686C191.522 194.686 192.35 194.164 192.35 193.318C192.35 192.958 192.17 192.616 191.882 192.418C191.54 192.184 191.432 192.166 189.992 191.842C188.57 191.536 188.012 191.356 187.4 191.068C186.374 190.582 185.816 189.718 185.816 188.674C185.816 188.044 186.014 187.45 186.374 187C187.112 186.064 188.336 185.596 189.974 185.596C191.45 185.596 192.62 185.956 193.358 186.64C193.826 187.09 194.078 187.54 194.33 188.422L191.954 188.728C191.756 187.738 191.144 187.306 189.974 187.306C188.858 187.306 188.102 187.81 188.102 188.566C188.102 188.908 188.3 189.214 188.66 189.412C189.056 189.61 189.434 189.718 190.46 189.952C192.296 190.348 193.034 190.6 193.628 191.05C194.33 191.554 194.672 192.292 194.672 193.282C194.672 194.02 194.33 194.812 193.79 195.316C192.962 196.09 191.702 196.486 190.064 196.486C188.21 196.486 186.824 195.928 186.05 194.884C185.726 194.452 185.564 194.092 185.348 193.282ZM201.418 196.558C198.124 196.558 196.036 194.434 196.036 191.068C196.036 187.72 198.124 185.578 201.4 185.578C204.658 185.578 206.728 187.702 206.728 191.032C206.728 194.362 204.622 196.558 201.418 196.558ZM201.4 187.45C199.51 187.45 198.358 188.818 198.358 191.068C198.358 193.282 199.51 194.65 201.382 194.65C203.254 194.65 204.406 193.3 204.406 191.104C204.406 188.782 203.308 187.45 201.4 187.45ZM211.118 196.216H208.526C208.634 195.442 208.67 194.884 208.67 193.876V188.224C208.67 187.234 208.634 186.622 208.526 185.884H210.974V186.838C210.974 187.108 210.974 187.162 210.938 187.612C212.036 186.208 212.99 185.704 214.61 185.704C215.996 185.704 217.022 186.154 217.67 187.036C218.102 187.63 218.282 188.35 218.282 189.556V193.876C218.282 194.866 218.318 195.55 218.426 196.216H215.816C215.906 195.406 215.942 194.794 215.942 193.876V189.88C215.942 189.124 215.852 188.638 215.636 188.296C215.348 187.828 214.808 187.558 214.124 187.558C212.828 187.558 211.766 188.458 210.974 190.24V193.876C210.974 194.758 211.01 195.442 211.118 196.216ZM223.229 196.216H220.637C220.745 195.442 220.781 194.884 220.781 193.876V188.224C220.781 187.234 220.745 186.622 220.637 185.884H223.085V186.838C223.085 187.108 223.085 187.162 223.049 187.612C224.147 186.208 225.101 185.704 226.721 185.704C228.107 185.704 229.133 186.154 229.781 187.036C230.213 187.63 230.393 188.35 230.393 189.556V193.876C230.393 194.866 230.429 195.55 230.537 196.216H227.927C228.017 195.406 228.053 194.794 228.053 193.876V189.88C228.053 189.124 227.963 188.638 227.747 188.296C227.459 187.828 226.919 187.558 226.235 187.558C224.939 187.558 223.877 188.458 223.085 190.24V193.876C223.085 194.758 223.121 195.442 223.229 196.216ZM239.589 196.216V195.046C238.869 195.73 238.419 195.982 237.681 196.18C237.159 196.324 236.583 196.396 236.007 196.396C233.811 196.396 232.479 195.262 232.479 193.372C232.479 192.112 233.271 190.978 234.513 190.456C235.683 189.97 237.015 189.79 239.589 189.736V188.818C239.589 187.774 238.887 187.234 237.519 187.234C236.799 187.234 236.061 187.432 235.647 187.756C235.305 188.008 235.143 188.26 234.927 188.908L232.623 188.494C233.037 187.45 233.361 186.982 234.045 186.496C234.927 185.848 235.935 185.578 237.483 185.578C239.211 185.578 240.255 185.884 241.029 186.64C241.641 187.216 241.875 187.9 241.875 189.124V193.966C241.875 194.92 241.911 195.406 242.019 196.216H239.589ZM239.589 192.202V191.302C236.151 191.374 234.801 191.968 234.801 193.372C234.801 194.218 235.431 194.74 236.439 194.74C237.393 194.74 238.329 194.38 238.941 193.786C239.373 193.354 239.589 192.832 239.589 192.202ZM244.157 181.888H246.767C246.677 182.59 246.641 183.166 246.641 184.246V193.876C246.641 194.83 246.677 195.424 246.767 196.216H244.157C244.247 195.442 244.283 194.92 244.283 193.876V184.228C244.283 183.148 244.247 182.572 244.157 181.888ZM249.044 181.888H251.69V184.174H249.044V181.888ZM249.044 185.884H251.672C251.582 186.55 251.546 187.144 251.546 188.242V193.858C251.546 194.848 251.582 195.46 251.672 196.216H249.044C249.152 195.406 249.188 194.776 249.188 193.876V188.224C249.188 187.234 249.152 186.622 249.044 185.884ZM253.48 193.282L255.946 192.976C256.252 194.2 256.918 194.686 258.322 194.686C259.654 194.686 260.482 194.164 260.482 193.318C260.482 192.958 260.302 192.616 260.014 192.418C259.672 192.184 259.564 192.166 258.124 191.842C256.702 191.536 256.144 191.356 255.532 191.068C254.506 190.582 253.948 189.718 253.948 188.674C253.948 188.044 254.146 187.45 254.506 187C255.244 186.064 256.468 185.596 258.106 185.596C259.582 185.596 260.752 185.956 261.49 186.64C261.958 187.09 262.21 187.54 262.462 188.422L260.086 188.728C259.888 187.738 259.276 187.306 258.106 187.306C256.99 187.306 256.234 187.81 256.234 188.566C256.234 188.908 256.432 189.214 256.792 189.412C257.188 189.61 257.566 189.718 258.592 189.952C260.428 190.348 261.166 190.6 261.76 191.05C262.462 191.554 262.804 192.292 262.804 193.282C262.804 194.02 262.462 194.812 261.922 195.316C261.094 196.09 259.834 196.486 258.196 196.486C256.342 196.486 254.956 195.928 254.182 194.884C253.858 194.452 253.696 194.092 253.48 193.282ZM274.284 191.644H266.454C266.544 192.634 266.706 193.138 267.12 193.66C267.642 194.308 268.452 194.668 269.37 194.668C270.252 194.668 271.008 194.344 271.53 193.768C271.746 193.516 271.872 193.318 272.052 192.832L274.176 193.516C273.762 194.38 273.528 194.722 273.078 195.172C272.142 196.09 270.882 196.558 269.37 196.558C266.184 196.558 264.168 194.434 264.168 191.068C264.168 187.738 266.166 185.56 269.244 185.56C271.35 185.56 273.006 186.604 273.726 188.404C274.068 189.268 274.194 189.916 274.248 191.14C274.248 191.176 274.248 191.23 274.284 191.644ZM266.508 189.862H271.944C271.818 189.07 271.602 188.584 271.152 188.134C270.666 187.648 270.054 187.414 269.208 187.414C267.804 187.414 266.778 188.35 266.508 189.862ZM272.466 182.5L268.596 184.984L267.822 184.174L270.918 180.862L272.466 182.5ZM37.9866 212.884V213.766C37.9866 213.964 37.9866 214.162 37.9686 214.396C38.9586 213.136 40.0206 212.632 41.6406 212.632C43.0806 212.632 44.2326 213.064 45.0606 213.892C46.0146 214.864 46.4826 216.214 46.4826 218.032C46.4826 221.344 44.6646 223.342 41.6046 223.342C40.0206 223.342 38.8326 222.784 37.9686 221.614C37.9686 221.83 37.9686 221.83 37.9866 222.19C38.0046 222.316 38.0046 222.64 38.0046 222.964V224.332C38.0046 225.394 38.0406 225.97 38.1306 226.726H35.5926C35.6826 225.88 35.7186 225.268 35.7186 224.35V215.296C35.7186 214.252 35.6826 213.658 35.5926 212.884H37.9866ZM44.1426 217.996C44.1426 215.872 43.0266 214.558 41.2086 214.558C39.4266 214.558 38.0766 216.034 38.0766 217.96C38.0766 220.012 39.4086 221.452 41.2806 221.452C43.0446 221.452 44.1426 220.12 44.1426 217.996ZM53.2867 223.558C49.9927 223.558 47.9047 221.434 47.9047 218.068C47.9047 214.72 49.9927 212.578 53.2687 212.578C56.5267 212.578 58.5967 214.702 58.5967 218.032C58.5967 221.362 56.4907 223.558 53.2867 223.558ZM53.2687 214.45C51.3787 214.45 50.2267 215.818 50.2267 218.068C50.2267 220.282 51.3787 221.65 53.2507 221.65C55.1227 221.65 56.2747 220.3 56.2747 218.104C56.2747 215.782 55.1767 214.45 53.2687 214.45ZM67.6673 212.884H70.2593C70.1333 213.658 70.1153 214.216 70.1153 215.224V220.876C70.1153 221.866 70.1513 222.478 70.2593 223.216H67.8113V222.262C67.8113 221.992 67.8113 221.938 67.8293 221.488C66.8393 222.892 65.8493 223.414 64.1393 223.414C63.2213 223.414 62.5733 223.252 61.9793 222.892C60.9893 222.262 60.5213 221.254 60.5213 219.778V215.224C60.5213 214.234 60.4673 213.55 60.3773 212.884H62.9873C62.8793 213.694 62.8613 214.306 62.8613 215.224V219.22C62.8613 220.264 63.1313 220.93 63.6893 221.272C63.9593 221.416 64.3373 221.524 64.6793 221.524C65.9753 221.524 67.0013 220.642 67.8113 218.86V215.224C67.8113 214.342 67.7573 213.658 67.6673 212.884ZM80.0486 212.884L79.4186 215.152C78.6626 214.936 78.2846 214.864 77.8166 214.864C76.9166 214.864 76.2326 215.152 75.7286 215.746C75.2786 216.268 75.0986 216.682 74.9906 217.546V220.876C74.9906 221.848 75.0266 222.37 75.1166 223.216H72.5426C72.6326 222.334 72.6686 221.812 72.6686 220.876V215.224C72.6686 214.126 72.6506 213.622 72.5426 212.884H74.9906V214.576C75.6386 213.298 76.7546 212.686 78.3746 212.686C78.8066 212.686 79.2386 212.74 80.0486 212.884ZM94.6321 212.884H97.2241C97.0981 213.658 97.0801 214.216 97.0801 215.224V220.876C97.0801 221.866 97.1161 222.478 97.2241 223.216H94.7761V222.262C94.7761 221.992 94.7761 221.938 94.7941 221.488C93.8041 222.892 92.8141 223.414 91.1041 223.414C90.1861 223.414 89.5381 223.252 88.9441 222.892C87.9541 222.262 87.4861 221.254 87.4861 219.778V215.224C87.4861 214.234 87.4321 213.55 87.3421 212.884H89.9521C89.8441 213.694 89.8261 214.306 89.8261 215.224V219.22C89.8261 220.264 90.0961 220.93 90.6541 221.272C90.9241 221.416 91.3021 221.524 91.6441 221.524C92.9401 221.524 93.9661 220.642 94.7761 218.86V215.224C94.7761 214.342 94.7221 213.658 94.6321 212.884ZM102.063 223.216H99.4715C99.5795 222.442 99.6155 221.884 99.6155 220.876V215.224C99.6155 214.234 99.5795 213.622 99.4715 212.884H101.919V213.838C101.919 214.108 101.919 214.162 101.883 214.612C102.981 213.208 103.935 212.704 105.555 212.704C106.941 212.704 107.967 213.154 108.615 214.036C109.047 214.63 109.227 215.35 109.227 216.556V220.876C109.227 221.866 109.263 222.55 109.371 223.216H106.761C106.851 222.406 106.887 221.794 106.887 220.876V216.88C106.887 216.124 106.797 215.638 106.581 215.296C106.293 214.828 105.753 214.558 105.069 214.558C103.773 214.558 102.711 215.458 101.919 217.24V220.876C101.919 221.758 101.955 222.442 102.063 223.216ZM117.127 220.282L119.593 219.976C119.899 221.2 120.565 221.686 121.969 221.686C123.301 221.686 124.129 221.164 124.129 220.318C124.129 219.958 123.949 219.616 123.661 219.418C123.319 219.184 123.211 219.166 121.771 218.842C120.349 218.536 119.791 218.356 119.179 218.068C118.153 217.582 117.595 216.718 117.595 215.674C117.595 215.044 117.793 214.45 118.153 214C118.891 213.064 120.115 212.596 121.753 212.596C123.229 212.596 124.399 212.956 125.137 213.64C125.605 214.09 125.857 214.54 126.109 215.422L123.733 215.728C123.535 214.738 122.923 214.306 121.753 214.306C120.637 214.306 119.881 214.81 119.881 215.566C119.881 215.908 120.079 216.214 120.439 216.412C120.835 216.61 121.213 216.718 122.239 216.952C124.075 217.348 124.813 217.6 125.407 218.05C126.109 218.554 126.451 219.292 126.451 220.282C126.451 221.02 126.109 221.812 125.569 222.316C124.741 223.09 123.481 223.486 121.843 223.486C119.989 223.486 118.603 222.928 117.829 221.884C117.505 221.452 117.343 221.092 117.127 220.282ZM133.197 223.558C129.903 223.558 127.815 221.434 127.815 218.068C127.815 214.72 129.903 212.578 133.179 212.578C136.437 212.578 138.507 214.702 138.507 218.032C138.507 221.362 136.401 223.558 133.197 223.558ZM133.179 214.45C131.289 214.45 130.137 215.818 130.137 218.068C130.137 220.282 131.289 221.65 133.161 221.65C135.033 221.65 136.185 220.3 136.185 218.104C136.185 215.782 135.087 214.45 133.179 214.45ZM147.577 212.884H150.169C150.043 213.658 150.025 214.216 150.025 215.224V220.876C150.025 221.866 150.061 222.478 150.169 223.216H147.721V222.262C147.721 221.992 147.721 221.938 147.739 221.488C146.749 222.892 145.759 223.414 144.049 223.414C143.131 223.414 142.483 223.252 141.889 222.892C140.899 222.262 140.431 221.254 140.431 219.778V215.224C140.431 214.234 140.377 213.55 140.287 212.884H142.897C142.789 213.694 142.771 214.306 142.771 215.224V219.22C142.771 220.264 143.041 220.93 143.599 221.272C143.869 221.416 144.247 221.524 144.589 221.524C145.885 221.524 146.911 220.642 147.721 218.86V215.224C147.721 214.342 147.667 213.658 147.577 212.884ZM153.623 210.112H156.197C156.125 210.742 156.071 211.516 156.071 212.326V212.884H156.827C157.673 212.884 158.069 212.866 158.645 212.776V214.9C158.051 214.81 157.709 214.792 156.881 214.792H156.071V220.372C156.071 221.254 156.395 221.578 157.259 221.578C157.727 221.578 158.015 221.488 158.573 221.182L158.897 223.09C158.123 223.378 157.583 223.468 156.647 223.468C154.577 223.468 153.749 222.73 153.749 220.84V214.792H153.065C152.399 214.792 152.057 214.81 151.463 214.9V212.776C151.985 212.866 152.327 212.884 153.083 212.884H153.749V212.326C153.749 211.552 153.695 210.76 153.623 210.112ZM160.221 208.888H162.867V211.174H160.221V208.888ZM160.221 212.884H162.849C162.759 213.55 162.723 214.144 162.723 215.242V220.858C162.723 221.848 162.759 222.46 162.849 223.216H160.221C160.329 222.406 160.365 221.776 160.365 220.876V215.224C160.365 214.234 160.329 213.622 160.221 212.884ZM174.792 218.644H166.962C167.052 219.634 167.214 220.138 167.628 220.66C168.15 221.308 168.96 221.668 169.878 221.668C170.76 221.668 171.516 221.344 172.038 220.768C172.254 220.516 172.38 220.318 172.56 219.832L174.684 220.516C174.27 221.38 174.036 221.722 173.586 222.172C172.65 223.09 171.39 223.558 169.878 223.558C166.692 223.558 164.676 221.434 164.676 218.068C164.676 214.738 166.674 212.56 169.752 212.56C171.858 212.56 173.514 213.604 174.234 215.404C174.576 216.268 174.702 216.916 174.756 218.14C174.756 218.176 174.756 218.23 174.792 218.644ZM167.016 216.862H172.452C172.326 216.07 172.11 215.584 171.66 215.134C171.174 214.648 170.562 214.414 169.716 214.414C168.312 214.414 167.286 215.35 167.016 216.862ZM179.161 223.216H176.569C176.677 222.442 176.713 221.884 176.713 220.876V215.224C176.713 214.234 176.677 213.622 176.569 212.884H179.017V213.838C179.017 214.108 179.017 214.162 178.981 214.612C180.079 213.208 181.033 212.704 182.653 212.704C184.039 212.704 185.065 213.154 185.713 214.036C186.145 214.63 186.325 215.35 186.325 216.556V220.876C186.325 221.866 186.361 222.55 186.469 223.216H183.859C183.949 222.406 183.985 221.794 183.985 220.876V216.88C183.985 216.124 183.895 215.638 183.679 215.296C183.391 214.828 182.851 214.558 182.167 214.558C180.871 214.558 179.809 215.458 179.017 217.24V220.876C179.017 221.758 179.053 222.442 179.161 223.216ZM199.625 223.558C196.331 223.558 194.243 221.434 194.243 218.068C194.243 214.72 196.331 212.578 199.607 212.578C202.865 212.578 204.935 214.702 204.935 218.032C204.935 221.362 202.829 223.558 199.625 223.558ZM199.607 214.45C197.717 214.45 196.565 215.818 196.565 218.068C196.565 220.282 197.717 221.65 199.589 221.65C201.461 221.65 202.613 220.3 202.613 218.104C202.613 215.782 201.515 214.45 199.607 214.45ZM209.127 212.884V213.766C209.127 213.964 209.127 214.162 209.109 214.396C210.099 213.136 211.161 212.632 212.781 212.632C214.221 212.632 215.373 213.064 216.201 213.892C217.155 214.864 217.623 216.214 217.623 218.032C217.623 221.344 215.805 223.342 212.745 223.342C211.161 223.342 209.973 222.784 209.109 221.614C209.109 221.83 209.109 221.83 209.127 222.19C209.145 222.316 209.145 222.64 209.145 222.964V224.332C209.145 225.394 209.181 225.97 209.271 226.726H206.733C206.823 225.88 206.859 225.268 206.859 224.35V215.296C206.859 214.252 206.823 213.658 206.733 212.884H209.127ZM215.283 217.996C215.283 215.872 214.167 214.558 212.349 214.558C210.567 214.558 209.217 216.034 209.217 217.96C209.217 220.012 210.549 221.452 212.421 221.452C214.185 221.452 215.283 220.12 215.283 217.996ZM220.683 210.112H223.257C223.185 210.742 223.131 211.516 223.131 212.326V212.884H223.887C224.733 212.884 225.129 212.866 225.705 212.776V214.9C225.111 214.81 224.769 214.792 223.941 214.792H223.131V220.372C223.131 221.254 223.455 221.578 224.319 221.578C224.787 221.578 225.075 221.488 225.633 221.182L225.957 223.09C225.183 223.378 224.643 223.468 223.707 223.468C221.637 223.468 220.809 222.73 220.809 220.84V214.792H220.125C219.459 214.792 219.117 214.81 218.523 214.9V212.776C219.045 212.866 219.387 212.884 220.143 212.884H220.809V212.326C220.809 211.552 220.755 210.76 220.683 210.112ZM227.282 208.888H229.928V211.174H227.282V208.888ZM227.282 212.884H229.91C229.82 213.55 229.784 214.144 229.784 215.242V220.858C229.784 221.848 229.82 222.46 229.91 223.216H227.282C227.39 222.406 227.426 221.776 227.426 220.876V215.224C227.426 214.234 227.39 213.622 227.282 212.884ZM234.707 223.216H232.169C232.259 222.442 232.295 221.848 232.295 220.876V215.224C232.295 214.09 232.259 213.568 232.169 212.884H234.581V213.802C234.581 213.91 234.581 214.18 234.563 214.468C235.085 213.37 236.417 212.668 237.911 212.668C238.883 212.668 239.675 212.938 240.233 213.478C240.557 213.766 240.701 214 240.917 214.558C241.529 213.748 241.871 213.424 242.429 213.136C243.023 212.812 243.635 212.668 244.445 212.668C245.597 212.668 246.533 213.028 247.145 213.694C247.739 214.342 247.991 215.152 247.991 216.43V220.876C247.991 221.884 248.027 222.478 248.135 223.216H245.507C245.615 222.478 245.651 221.938 245.651 220.876V216.844C245.651 215.26 245.093 214.54 243.887 214.54C243.293 214.54 242.843 214.702 242.411 215.08C241.781 215.62 241.493 216.196 241.277 217.312V220.876C241.277 221.866 241.313 222.478 241.403 223.216H238.811C238.919 222.46 238.955 221.902 238.955 220.876V216.844C238.955 215.332 238.379 214.576 237.209 214.576C236.453 214.576 235.841 214.882 235.355 215.512C234.959 216.034 234.779 216.448 234.581 217.312V220.876C234.581 221.848 234.617 222.388 234.707 223.216ZM257.185 223.216V222.046C256.465 222.73 256.015 222.982 255.277 223.18C254.755 223.324 254.179 223.396 253.603 223.396C251.407 223.396 250.075 222.262 250.075 220.372C250.075 219.112 250.867 217.978 252.109 217.456C253.279 216.97 254.611 216.79 257.185 216.736V215.818C257.185 214.774 256.483 214.234 255.115 214.234C254.395 214.234 253.657 214.432 253.243 214.756C252.901 215.008 252.739 215.26 252.523 215.908L250.219 215.494C250.633 214.45 250.957 213.982 251.641 213.496C252.523 212.848 253.531 212.578 255.079 212.578C256.807 212.578 257.851 212.884 258.625 213.64C259.237 214.216 259.471 214.9 259.471 216.124V220.966C259.471 221.92 259.507 222.406 259.615 223.216H257.185ZM257.185 219.202V218.302C253.747 218.374 252.397 218.968 252.397 220.372C252.397 221.218 253.027 221.74 254.035 221.74C254.989 221.74 255.925 221.38 256.537 220.786C256.969 220.354 257.185 219.832 257.185 219.202ZM261.753 208.888H264.363C264.273 209.59 264.237 210.166 264.237 211.246V220.876C264.237 221.83 264.273 222.424 264.363 223.216H261.753C261.843 222.442 261.879 221.92 261.879 220.876V211.228C261.879 210.148 261.843 209.572 261.753 208.888Z" fill="black"/>
<defs>
<clipPath id="clip0_2367_5451">
<rect width="96" height="90" fill="white" transform="translate(107 40)"/>
</clipPath>
</defs>
</svg>
