<svg width="96" height="90" viewBox="0 0 96 90" fill="none" xmlns="http://www.w3.org/2000/svg">
<g clip-path="url(#clip0_2374_3764)">
<path d="M89.6922 0H55.4054C53.4934 0.0163886 51.6812 0.86245 50.4551 2.30669C49.2289 3.75504 48.7073 5.66021 49.0273 7.52032H3.20634C1.43568 7.52032 -0.000378135 8.93588 -0.000378135 10.6792V14.7006C-0.017004 15.5507 0.313436 16.3743 0.911968 16.9786C1.51673 17.587 2.34387 17.9291 3.20426 17.9291H5.55267V58.8228H3.42663C1.53544 58.8228 -0.000378135 60.3346 -0.000378135 62.2029V65.7695C-0.000378135 66.6647 0.359157 67.5271 1.00341 68.1602C1.64559 68.7932 2.52052 69.1496 3.42871 69.1496H67.3366V77.9708C64.3543 78.8107 62.4548 81.693 62.8871 84.7208C63.3193 87.7507 65.9462 90.0021 69.049 90.0021C72.1518 90.0021 74.7787 87.7507 75.211 84.7208C75.6433 81.691 73.7459 78.8107 70.7615 77.9708V69.082H80.5666C81.4748 69.082 82.3498 68.7276 82.9919 68.0926C83.6341 67.4595 83.9957 66.5971 83.9957 65.7019V62.1353C83.9957 61.2401 83.6362 60.3776 82.9919 59.7446C82.3498 59.1116 81.4748 58.7552 80.5666 58.7552H78.4073V31.21H89.688C93.1732 31.21 95.9975 28.426 95.9975 24.9906V6.21947C95.9975 4.57242 95.3325 2.98682 94.15 1.82118C92.9675 0.655544 91.3589 0 89.688 0H89.6922ZM71.863 83.8317C71.863 85.362 70.6036 86.6035 69.0511 86.6035C67.4987 86.6035 66.2393 85.362 66.2393 83.8317C66.2393 82.3015 67.4987 81.06 69.0511 81.06C70.6036 81.06 71.863 82.3015 71.863 83.8317ZM3.42871 10.9005H49.0273V14.551H3.42871V10.9005ZM80.5708 65.6998H3.42871V62.1333H80.5708V65.6998ZM75.0177 58.7552H8.98176V17.9291H49.0273V25.0602C49.0315 26.738 49.7214 28.342 50.9393 29.5138C52.1613 30.6835 53.8073 31.3227 55.5072 31.2797C56.1889 31.2797 56.7417 31.8246 56.7417 32.4965V38.378C56.8352 39.6788 57.6769 40.8076 58.9052 41.2849C60.1334 41.7622 61.5362 41.4959 62.5005 40.6089L69.5977 33.021C71.0255 31.6566 73.0185 31.0318 74.9803 31.3309L75.0157 58.7572L75.0177 58.7552ZM92.5726 24.9926C92.5726 25.7444 92.2692 26.4676 91.7288 27.0002C91.1885 27.5328 90.457 27.8319 89.6922 27.8319H73.7147C71.225 27.8278 68.8454 28.8583 67.1662 30.6713L60.308 38.0564V32.4289C60.3038 31.1834 59.7884 29.987 58.8761 29.1205C57.9679 28.2539 56.7376 27.7889 55.474 27.8319C53.8841 27.8319 52.5936 26.5598 52.5936 24.9926V6.21947C52.5936 4.65231 53.8841 3.38015 55.474 3.38015H89.7607C91.3257 3.41907 92.5726 4.67689 92.5726 6.21947V24.9926Z" fill="#A11881"/>
<path d="M57.6686 12.7415H77.281C78.2286 12.7415 78.9955 11.9856 78.9955 11.0514C78.9955 10.1173 78.2286 9.36133 77.281 9.36133H57.6686C56.721 9.36133 55.9541 10.1173 55.9541 11.0514C55.9541 11.9856 56.721 12.7415 57.6686 12.7415Z" fill="#A11881"/>
<path d="M87.429 18.4531H57.6686C56.721 18.4531 55.9541 19.209 55.9541 20.1432C55.9541 21.0773 56.721 21.8333 57.6686 21.8333H87.429C88.3767 21.8333 89.1435 21.0773 89.1435 20.1432C89.1435 19.209 88.3767 18.4531 87.429 18.4531Z" fill="#A11881"/>
</g>
<defs>
<clipPath id="clip0_2374_3764">
<rect width="96" height="90" fill="white"/>
</clipPath>
</defs>
</svg>
