<svg width="73" height="67" viewBox="0 0 73 67" fill="none" xmlns="http://www.w3.org/2000/svg">
<g id="Calque_1" clip-path="url(#clip0_2500_3392)">
<path id="Vector" d="M71.8168 40.3646H67.6423V2.38771H71.8251C72.4751 2.38771 73 1.85627 73 1.1983C73 0.540328 72.4751 0.00888811 71.8251 0.00888811H1.17487C0.52494 0.000452559 0 0.531893 0 1.18987C0 1.84784 0.52494 2.37928 1.17487 2.37928H5.35772V40.3562H1.1832C0.533272 40.3562 0.00833238 40.8876 0.00833238 41.5456C0.00833238 42.2035 0.533272 42.735 1.1832 42.735H6.51592C6.51592 42.735 6.53259 42.735 6.54092 42.735C6.54092 42.735 6.55758 42.735 6.56592 42.735H11.0071V47.0962C11.0071 48.8001 12.3819 50.192 14.0651 50.192C14.315 50.192 14.5317 50.1077 14.765 50.0486V61.7066C14.765 64.2541 16.8064 66.3208 19.3228 66.3208C20.6643 66.3208 21.8642 65.7303 22.6974 64.8024C23.5306 65.7387 24.7388 66.3208 26.072 66.3208C28.5884 66.3208 30.6298 64.2541 30.6298 61.7066V50.0486C30.8631 50.1077 31.0881 50.192 31.3298 50.192C33.0129 50.192 34.3877 48.8001 34.3877 47.0962V42.735H66.4424C66.4424 42.735 66.4591 42.735 66.4674 42.735C66.4757 42.735 66.4841 42.735 66.4924 42.735H71.8251C72.4751 42.735 73 42.2035 73 41.5456C73 40.8876 72.4667 40.3562 71.8168 40.3562V40.3646ZM32.038 47.113C32.038 47.5011 31.7214 47.8216 31.3381 47.8216C30.9548 47.8216 30.6382 47.5011 30.6382 47.113V38.9812C30.6382 38.3232 30.1132 37.7917 29.4633 37.7917C28.8134 37.7917 28.2884 38.3232 28.2884 38.9812V61.7319C28.2884 62.955 27.3052 63.9588 26.0887 63.9588C24.8722 63.9588 23.8889 62.9634 23.8889 61.7319V49.0279C23.8889 48.3699 23.364 47.8385 22.7141 47.8385C22.0641 47.8385 21.5392 48.3699 21.5392 49.0279V61.7319C21.5392 62.955 20.556 63.9588 19.3395 63.9588C18.1229 63.9588 17.1397 62.9634 17.1397 61.7319V38.9896C17.1397 38.3316 16.6064 37.8002 15.9565 37.8002C15.3066 37.8002 14.7816 38.3316 14.7816 38.9896V47.1215C14.7816 47.5095 14.465 47.8301 14.0817 47.8301C13.6984 47.8301 13.3818 47.5095 13.3818 47.1215V36.712C13.3818 35.2695 14.54 34.097 15.9648 34.097H29.4716C30.8965 34.097 32.0547 35.2695 32.0547 36.712V47.1215H32.0463L32.038 47.113ZM29.4466 31.7013H15.9398C13.2152 31.7013 10.9987 33.9451 10.9987 36.7036V40.3646H7.70745V2.38771H65.2759V40.3646H34.3877V36.6951C34.3877 33.9367 32.1713 31.6928 29.4466 31.6928V31.7013Z" fill="black"/>
<path id="Vector_2" d="M39.4454 34.0885H43.9199C44.5698 34.0885 45.0947 33.557 45.0947 32.899V17.3945C45.0947 16.7365 44.5698 16.2051 43.9199 16.2051H39.4454C38.7954 16.2051 38.2705 16.7365 38.2705 17.3945V32.899C38.2705 33.557 38.7954 34.0885 39.4454 34.0885ZM40.6202 18.5839H42.7367V31.7012H40.6202V18.5839Z" fill="black"/>
<path id="Vector_3" d="M56.6768 34.0885H61.1513C61.8012 34.0885 62.3262 33.557 62.3262 32.899V17.3945C62.3262 16.7365 61.8012 16.2051 61.1513 16.2051H56.6768C56.0269 16.2051 55.502 16.7365 55.502 17.3945V32.899C55.502 33.557 56.0269 34.0885 56.6768 34.0885ZM57.86 18.5839H59.9764V31.7012H57.86V18.5839Z" fill="black"/>
<path id="Vector_4" d="M48.0616 34.0882H52.5361C53.186 34.0882 53.7109 33.5568 53.7109 32.8988V9.86129C53.7109 9.20331 53.186 8.67188 52.5361 8.67188H48.0616C47.4117 8.67188 46.8867 9.20331 46.8867 9.86129V32.8988C46.8867 33.5568 47.4117 34.0882 48.0616 34.0882ZM49.2365 11.0507H51.3529V31.7009H49.2365V11.0507Z" fill="black"/>
<path id="Vector_5" d="M22.6892 15.9346C18.8313 15.9346 15.6816 19.1148 15.6816 23.0289C15.6816 26.943 18.8229 30.1232 22.6892 30.1232C26.5554 30.1232 29.6967 26.943 29.6967 23.0289C29.6967 19.1148 26.5554 15.9346 22.6892 15.9346ZM22.6892 27.7275C20.1311 27.7275 18.048 25.6186 18.048 23.0289C18.048 20.4392 20.1311 18.3303 22.6892 18.3303C25.2472 18.3303 27.3303 20.4392 27.3303 23.0289C27.3303 25.6186 25.2472 27.7275 22.6892 27.7275Z" fill="black"/>
</g>
<defs>
<clipPath id="clip0_2500_3392">
<rect width="73" height="66.3372" fill="white"/>
</clipPath>
</defs>
</svg>
