<svg width="88" height="88" viewBox="0 0 88 88" fill="none" xmlns="http://www.w3.org/2000/svg">
<g id="Mode_Isolation" clip-path="url(#clip0_2374_3714)">
<path id="Vector" d="M87.9221 80.3478L87.8286 80.0842C87.1858 78.2894 85.2303 72.8255 84.9206 71.0617C84.6012 69.1971 84.5154 67.662 84.4336 66.1773V66.1328C84.3246 64.2333 84.2233 62.4385 83.6993 60.099C83.6974 60.0874 83.6935 60.0758 83.6896 60.0641L79.5097 48.3882C77.9145 43.936 67.1394 40.5441 60.6943 38.8869V37.4526L80.5186 18.9579L81.4886 19.9891L72.3965 28.4301C72.1452 28.6588 72.0011 28.9689 71.9874 29.3081C71.9757 29.6454 72.0965 29.9671 72.3283 30.2133C72.5581 30.4595 72.8698 30.6009 73.2067 30.6126C73.5417 30.6223 73.8651 30.506 74.1105 30.2773L84.1356 20.9718C84.383 20.7469 84.5252 20.4387 84.5388 20.1015C84.5525 19.7604 84.4317 19.4347 84.196 19.1828L82.3593 17.2368L85.464 14.3527C87.4702 12.4164 88.0974 9.61755 87.0982 7.04744C86.1048 4.4909 83.7792 2.84921 81.0309 2.76005C79.2117 2.69997 77.2425 3.44619 76.144 4.6072L60.6962 19.0258V6.06475C60.6962 2.72129 57.9616 0 54.6017 0L15.9561 0.00581472C15.6308 0.00581472 15.3192 0.129862 15.0796 0.356636L0.455777 14.2926C0.16556 14.5368 0 14.8896 0 15.2617V71.0733C0 74.4168 2.73661 77.1381 6.1004 77.1381H54.5997C56.5417 77.1381 58.3589 76.2155 59.5062 74.6591C59.9756 74.8316 60.4391 74.9828 60.891 75.1281C62.5193 75.6553 63.9256 76.1128 64.9346 77.3416C65.1644 77.6227 65.7468 80.0028 66.1714 81.7395C66.4538 82.8947 66.7207 83.9859 66.9349 84.7224C67.6361 87.1413 70.1643 87.9981 72.9029 87.9981C73.8125 87.9981 74.7474 87.9031 75.6453 87.7403C79.3811 87.06 84.718 84.8717 87.6163 81.6736C87.9766 81.3305 88.0974 80.8111 87.926 80.3459L87.9221 80.3478ZM85.2809 80.4564C82.7527 82.8695 78.3177 84.6992 75.1857 85.271C71.2687 85.9745 69.9072 84.9667 69.4417 84.2883C69.2976 83.9529 68.6899 81.4158 68.4581 80.4486V80.4389C74.0151 79.8555 79.4143 78.2836 83.7422 75.9926L85.2829 80.4544L85.2809 80.4564ZM74.8487 9.26285L77.8638 6.44659C80.1291 4.61107 82.5852 5.37862 83.9136 6.86719C85.7153 8.89071 85.092 11.1972 83.748 12.4881C82.7683 13.3021 81.7282 14.1879 80.4972 15.2617L74.8506 9.26091L74.8487 9.26285ZM78.5046 17.0236C78.0352 17.448 77.5619 17.8745 77.0906 18.3028L71.5083 12.3795L73.0042 10.9859L78.6079 16.9305L78.5046 17.0236ZM64.3873 30.3412C61.3974 33.2311 58.5712 35.9641 55.7918 38.569L50.0127 32.4326L69.6618 14.0968L75.2285 20.0065C71.6154 23.35 67.94 26.9028 64.3853 30.3412H64.3873ZM48.1215 39.9665L49.0174 35.057L53.1 39.3889L48.1215 39.9646V39.9665ZM60.6923 56.3485V50.9021L61.5669 51.437L62.9225 56.5191C62.1317 56.49 61.3955 56.4358 60.6923 56.3505V56.3485ZM58.1602 21.3827L52.2429 26.9047C52.3364 26.7186 52.3851 26.5093 52.3851 26.3C52.3851 25.6739 51.9547 25.0401 51.1308 25.0401H10.8354C10.0115 25.0401 9.57911 25.6739 9.57911 26.3C9.57911 26.926 10.0115 27.5618 10.8354 27.5618H51.1308C51.3216 27.5618 51.4911 27.5269 51.6391 27.4668L47.3599 31.4596C47.1456 31.6573 47.0073 31.9267 46.9742 32.2019L45.3342 41.1857C45.2621 41.583 45.379 41.9765 45.6537 42.2691C45.9283 42.5618 46.3159 42.7033 46.7152 42.6587L55.8736 41.5985C56.1579 41.5733 56.4306 41.4415 56.6371 41.2361L58.1622 39.8153V55.8678C57.646 55.7302 57.1474 55.5694 56.6741 55.3891L50.7276 50.3458H51.1327C51.9547 50.3458 52.3871 49.712 52.3871 49.0859C52.3871 48.4599 51.9566 47.8261 51.1327 47.8261H10.8374C10.0135 47.8261 9.58105 48.4599 9.58105 49.0859C9.58105 49.712 10.0135 50.3458 10.8374 50.3458H41.8614C40.5544 52.1309 40.5856 54.4374 41.9996 56.2613L53.0201 70.4686C54.3076 72.1277 55.0321 72.5794 57.087 73.5989C56.4228 74.2482 55.5366 74.6145 54.5997 74.6145H6.1004C4.13316 74.6145 2.53404 73.0232 2.53404 71.0695V16.5235H11.1315C14.4914 16.5235 17.226 13.8003 17.226 10.4529V2.51777H54.5978C56.5611 2.51777 58.1602 4.10713 58.1602 6.06282V21.3827ZM44.2474 51.4351C45.157 50.5726 46.7386 50.2663 48.2208 51.5262L55.1977 57.4475C55.3905 57.6142 55.6301 57.6975 55.8405 57.7712L55.9106 57.7964C58.3609 58.7016 61.115 59.097 64.584 59.0388C64.882 59.0369 65.1683 58.876 65.3904 58.5872C65.6845 58.2054 65.8325 57.6375 65.7351 57.2673L63.8808 50.307C63.799 49.995 63.6004 49.7275 63.3199 49.555L60.8735 48.0587V41.5365C63.9996 42.3641 68.3256 43.6666 71.8861 45.3277C74.726 46.6515 76.5121 47.9346 77.0516 49.0394L81.2354 60.6669C81.7146 62.8223 81.8139 64.5977 81.9093 66.315C81.9873 67.7841 82.0768 69.451 82.4274 71.4823C82.5092 71.9494 82.6884 72.6453 82.9592 73.5562C78.7403 75.8744 73.3801 77.4385 67.8114 77.9774C67.4745 76.8183 67.1823 76.1089 66.8921 75.7561C65.4468 73.9885 63.9256 73.4865 62.0012 72.8488L61.9545 72.8333C60.3008 72.2925 58.246 71.6219 55.6418 69.7612L43.9844 54.7243C43.0436 53.5109 43.4371 52.1968 44.2435 51.4331L44.2474 51.4351ZM4.41363 14.0038L14.692 4.20598V10.4549C14.692 12.4125 13.0929 14.0038 11.1295 14.0038H4.41363Z" fill="#EA5B0B"/>
<path id="Vector_2" d="M43.0651 40.2324H10.8354C10.0115 40.2324 9.5791 40.8643 9.5791 41.4903C9.5791 42.1164 10.0115 42.7483 10.8354 42.7483H43.0651C43.5501 42.7483 43.8461 42.5312 44.0078 42.347C44.2104 42.1183 44.3214 41.814 44.3214 41.4903C44.3214 40.8643 43.889 40.2324 43.0651 40.2324Z" fill="#EA5B0B"/>
<path id="Vector_3" d="M38.4103 64.8965H10.6333C9.80936 64.8965 9.37695 65.5303 9.37695 66.1563C9.37695 66.7824 9.80936 67.4181 10.6333 67.4181H38.4103C39.2342 67.4181 39.6666 66.7843 39.6666 66.1563C39.6666 65.5284 39.2342 64.8965 38.4103 64.8965Z" fill="#EA5B0B"/>
<path id="Vector_4" d="M10.6333 59.9728H38.4103C39.2342 59.9728 39.6666 59.339 39.6666 58.713C39.6666 58.0869 39.2342 57.4531 38.4103 57.4531H10.6333C9.80936 57.4531 9.37695 58.0869 9.37695 58.713C9.37695 59.339 9.80936 59.9728 10.6333 59.9728Z" fill="#EA5B0B"/>
<path id="Vector_5" d="M50.132 9.0293H24.5092C23.808 9.0293 23.2393 9.59333 23.2393 10.2872V16.3481C23.2393 17.042 23.808 17.606 24.5092 17.606H50.132C50.8293 17.606 51.3961 17.042 51.3961 16.3481V10.2872C51.3961 9.59333 50.8293 9.0293 50.132 9.0293ZM48.8699 11.5509V15.0844H25.7733V11.5509H48.8699Z" fill="#EA5B0B"/>
<path id="Vector_6" d="M10.8354 35.1565H43.7663C44.2513 35.1565 44.5454 34.9394 44.707 34.7552C44.9096 34.5265 45.0206 34.2222 45.0206 33.8985C45.0206 33.2744 44.5902 32.6406 43.7663 32.6406H10.8354C10.0115 32.6406 9.5791 33.2744 9.5791 33.8985C9.5791 34.5227 10.0115 35.1565 10.8354 35.1565Z" fill="#EA5B0B"/>
</g>
<defs>
<clipPath id="clip0_2374_3714">
<rect width="88" height="88" fill="white"/>
</clipPath>
</defs>
</svg>
