<svg width="65" height="62" viewBox="0 0 65 62" fill="none" xmlns="http://www.w3.org/2000/svg">
<g clip-path="url(#clip0_2500_3388)">
<path d="M57.6413 0H7.35116C5.02944 0 3.14355 1.89024 3.14355 4.21734V22.9434C3.14355 23.5314 3.62131 24.0103 4.20803 24.0103C4.79475 24.0103 5.2725 23.5314 5.2725 22.9434V4.21734C5.2725 3.0748 6.20287 2.13388 7.35116 2.13388H57.6413C58.7812 2.13388 59.7116 3.0664 59.7116 4.21734V29.5466C59.7116 30.1347 60.1893 30.6135 60.7844 30.6135C61.3795 30.6135 61.8573 30.1347 61.8573 29.5466V4.21734C61.8573 1.89024 59.9714 0 57.6413 0Z" fill="black"/>
<path d="M40.7017 31.2012L45.077 27.6812C46.066 26.8915 46.6611 25.6565 46.6611 24.3795C46.6611 23.2202 46.2001 22.1364 45.3619 21.3383C43.8448 19.8765 41.389 19.8261 39.6624 21.2123L34.3149 25.5137L30.2917 22.3633C28.7327 21.1367 26.7797 20.4646 24.7933 20.4646H23.0834L24.2987 19.5573C26.2014 18.1375 27.291 15.9868 27.291 13.6597C27.291 9.59362 23.9886 6.29199 19.9403 6.29199C15.8919 6.29199 12.5895 9.60202 12.5895 13.6597C12.5895 16.0372 13.7546 18.2803 15.7159 19.6665L16.7385 20.3974L15.498 20.5822C11.743 21.1367 8.74233 24.0015 8.03827 27.7148C7.92931 28.2944 8.30648 28.8573 8.88482 28.9665C9.45478 29.0757 10.0247 28.6893 10.1337 28.118C10.7456 24.9256 13.545 22.6153 16.7971 22.6153H24.7933C26.3271 22.6153 27.7688 23.111 28.9757 24.0603L33.6779 27.7316C34.0718 28.0424 34.6166 28.034 35.0022 27.7232L41.0035 22.8925C41.8919 22.1868 43.1576 22.1868 43.8951 22.8925C44.3142 23.2874 44.5322 23.8083 44.5322 24.3879C44.5322 25.0096 44.2388 25.6145 43.7527 26.0093L40.4838 28.6389L39.369 29.5378C39.1427 29.7142 39.0086 29.9746 38.9751 30.2519C38.9416 30.5375 39.0254 30.8148 39.2098 31.0416C39.5618 31.4868 40.2575 31.5709 40.7185 31.2012H40.7017ZM14.7101 13.6681C14.7101 10.7866 17.0486 8.43427 19.9319 8.43427C22.8152 8.43427 25.1537 10.7782 25.1537 13.6681C25.1537 16.5581 22.8152 18.902 19.9319 18.902C17.0486 18.902 14.7101 16.5581 14.7101 13.6681Z" fill="black"/>
<path d="M48.2198 62.0001H60.7923C63.114 62.0001 65.0083 60.1099 65.0083 57.7744V56.195C65.0083 52.2213 62.3345 48.6844 58.5125 47.5923L57.4229 47.2814L58.3868 46.6766C60.566 45.3156 61.8736 42.9801 61.8736 40.4429C61.8736 36.3768 58.5712 33.0752 54.5144 33.0752C50.4577 33.0752 47.1553 36.3852 47.1553 40.4429C47.1553 42.9801 48.4545 45.3156 50.6421 46.6766L51.606 47.2814L50.5164 47.5923C46.6943 48.6844 44.0206 52.2213 44.0206 56.195H43.0148C43.0148 52.2213 40.341 48.6844 36.5189 47.5923L35.4293 47.2814L36.3932 46.6766C38.5725 45.3156 39.88 42.9801 39.88 40.4429C39.88 36.3768 36.5776 33.0752 32.5209 33.0752C28.4641 33.0752 25.1701 36.3852 25.1701 40.4429C25.1701 42.9801 26.4693 45.3156 28.6569 46.6766L29.6208 47.2814L28.5312 47.5923C24.7091 48.6844 22.0354 52.2213 22.0354 56.195H21.0296C21.0296 52.2213 18.3558 48.6844 14.5338 47.5923L13.4442 47.2814L14.408 46.6766C16.5873 45.3156 17.8948 42.9801 17.8948 40.4429C17.8948 36.3768 14.5924 33.0752 10.5441 33.0752C6.49573 33.0752 3.19335 36.3852 3.19335 40.4429C3.19335 42.9801 4.49251 45.3156 6.68013 46.6766L7.64402 47.2814L6.5544 47.5923C2.73235 48.6844 0.0585938 52.2213 0.0585938 56.195V57.7744C0.0585938 60.1015 1.94447 62.0001 4.2662 62.0001H16.8387C19.1605 62.0001 21.0463 60.1099 21.0463 57.7744H22.0521C22.0521 60.1015 23.938 62.0001 26.2598 62.0001H38.8323C41.154 62.0001 43.0483 60.1099 43.0483 57.7744H44.0541C44.0541 60.1015 45.94 62.0001 48.2701 62.0001H48.2198ZM49.2843 40.4513C49.2843 37.5698 51.6227 35.2175 54.4977 35.2175C57.3726 35.2175 59.7111 37.5614 59.7111 40.4513C59.7111 43.3413 57.3726 45.6768 54.4977 45.6768C51.6227 45.6768 49.2843 43.3329 49.2843 40.4513ZM46.1411 56.2034C46.1411 52.4481 49.1837 49.3985 52.9303 49.3985H56.0734C59.82 49.3985 62.8626 52.4481 62.8626 56.2034V57.7828C62.8626 58.9253 61.9322 59.8578 60.7923 59.8578H48.2198C47.0799 59.8578 46.1495 58.9253 46.1495 57.7828V56.2034H46.1411ZM5.28039 40.4513C5.28039 37.5698 7.61888 35.2175 10.5022 35.2175C13.3855 35.2175 15.724 37.5614 15.724 40.4513C15.724 43.3413 13.3855 45.6768 10.5022 45.6768C7.61888 45.6768 5.28039 43.3329 5.28039 40.4513ZM18.8587 57.7744C18.8587 58.9169 17.9284 59.8494 16.7801 59.8494H4.20753C3.06762 59.8494 2.12887 58.9169 2.12887 57.7744V56.195C2.12887 52.4397 5.17142 49.3901 8.91804 49.3901H12.0612C15.8078 49.3901 18.8503 52.4397 18.8503 56.195V57.7744H18.8587ZM27.2823 40.4513C27.2823 37.5698 29.6208 35.2175 32.5041 35.2175C35.3874 35.2175 37.7175 37.5614 37.7175 40.4513C37.7175 43.3413 35.379 45.6768 32.5041 45.6768C29.6292 45.6768 27.2823 43.3329 27.2823 40.4513ZM40.8607 57.7744C40.8607 58.9169 39.9303 59.8494 38.7904 59.8494H26.2178C25.0779 59.8494 24.1392 58.9169 24.1392 57.7744V56.195C24.1392 52.4397 27.1817 49.3901 30.9284 49.3901H34.0715C37.8181 49.3901 40.8607 52.4397 40.8607 56.195V57.7744Z" fill="black"/>
</g>
<defs>
<clipPath id="clip0_2500_3388">
<rect width="65" height="62" fill="white"/>
</clipPath>
</defs>
</svg>
