<svg width="72" height="56" viewBox="0 0 72 56" fill="none" xmlns="http://www.w3.org/2000/svg">
<g id="Calque_1" clip-path="url(#clip0_2500_3450)">
<path id="Vector" d="M70.7396 46.5858C71.4355 46.5858 71.9923 46.0234 71.9923 45.3377V1.24804C71.9923 0.554684 71.4278 0 70.7396 0H1.25271C0.564494 0 0 0.562388 0 1.24804V45.33C0 46.0234 0.564494 46.5781 1.25271 46.5781H22.8272V53.4885H16.2775C15.5816 53.4885 15.0248 54.0509 15.0248 54.7366C15.0248 55.4222 15.5893 55.9846 16.2775 55.9846H54.7559C55.4518 55.9846 56.0086 55.4222 56.0086 54.7366C56.0086 54.0509 55.4441 53.4885 54.7559 53.4885H48.2062V46.5781H70.7473L70.7396 46.5858ZM2.51316 2.50378H69.4868V36.6477H2.51316V2.50378ZM45.6853 53.4962H25.3403V46.5858H45.6853V53.4962ZM2.51316 44.082V39.1515H69.4868V44.082H2.51316Z" fill="black"/>
<path id="Vector_2" d="M20.9632 8.75195H13.6248C12.9288 8.75195 12.3721 9.31434 12.3721 9.99999V17.311C12.3721 18.0044 12.9366 18.5591 13.6248 18.5591H20.9632C21.6592 18.5591 22.2159 17.9967 22.2159 17.311V9.99999C22.2159 9.30664 21.6514 8.75195 20.9632 8.75195ZM19.7105 16.063H14.8852V11.2557H19.7105V16.063Z" fill="black"/>
<path id="Vector_3" d="M14.8857 16.0631H19.711V11.2559H14.8857V16.0631ZM15.4657 11.8337H19.131V15.4853H15.4657V11.8337Z" fill="white"/>
<path id="Vector_4" d="M30.9779 10.2695H25.4412C24.7452 10.2695 24.1885 10.8319 24.1885 11.5176C24.1885 12.2032 24.753 12.7656 25.4412 12.7656H30.9779C31.6738 12.7656 32.2306 12.2032 32.2306 11.5176C32.2306 10.8319 31.6661 10.2695 30.9779 10.2695Z" fill="black"/>
<path id="Vector_5" d="M28.225 14.5684H25.4412C24.7452 14.5684 24.1885 15.1307 24.1885 15.8164C24.1885 16.5021 24.753 17.0644 25.4412 17.0644H28.225C28.9209 17.0644 29.4777 16.5021 29.4777 15.8164C29.4777 15.1307 28.9132 14.5684 28.225 14.5684Z" fill="black"/>
<path id="Vector_6" d="M46.7366 8.75195H39.3904C38.6945 8.75195 38.1377 9.31434 38.1377 9.99999V17.311C38.1377 18.0044 38.7022 18.5591 39.3904 18.5591H46.7366C47.4325 18.5591 47.9893 17.9967 47.9893 17.311V9.99999C47.9893 9.30664 47.4248 8.75195 46.7366 8.75195ZM45.4838 16.063H40.6509V11.2557H45.4838V16.063Z" fill="black"/>
<path id="Vector_7" d="M40.6514 16.0631H45.4844V11.2559H40.6514V16.0631ZM41.2313 11.8337H44.9044V15.4853H41.2313V11.8337Z" fill="white"/>
<path id="Vector_8" d="M56.7436 10.2695H51.2146C50.5187 10.2695 49.9619 10.8319 49.9619 11.5176C49.9619 12.2032 50.5264 12.7656 51.2146 12.7656H56.7436C57.4395 12.7656 57.9963 12.2032 57.9963 11.5176C57.9963 10.8319 57.4318 10.2695 56.7436 10.2695Z" fill="black"/>
<path id="Vector_9" d="M53.983 14.5684H51.2146C50.5187 14.5684 49.9619 15.1307 49.9619 15.8164C49.9619 16.5021 50.5264 17.0644 51.2146 17.0644H53.983C54.6789 17.0644 55.2357 16.5021 55.2357 15.8164C55.2357 15.1307 54.6712 14.5684 53.983 14.5684Z" fill="black"/>
<path id="Vector_10" d="M20.9632 23.0889H13.6248C12.9288 23.0889 12.3721 23.6513 12.3721 24.3369V31.648C12.3721 32.3413 12.9366 32.896 13.6248 32.896H20.9632C21.6592 32.896 22.2159 32.3336 22.2159 31.648V24.3369C22.2159 23.6436 21.6514 23.0889 20.9632 23.0889ZM19.7105 30.3999H14.8852V25.5927H19.7105V30.3999Z" fill="black"/>
<path id="Vector_11" d="M14.8857 30.4H19.711V25.5928H14.8857V30.4ZM15.4657 26.1706H19.131V29.8222H15.4657V26.1706Z" fill="white"/>
<path id="Vector_12" d="M30.9779 24.583H25.4412C24.7452 24.583 24.1885 25.1454 24.1885 25.831C24.1885 26.5167 24.753 27.0791 25.4412 27.0791H30.9779C31.6738 27.0791 32.2306 26.5167 32.2306 25.831C32.2306 25.1454 31.6661 24.583 30.9779 24.583Z" fill="black"/>
<path id="Vector_13" d="M28.225 28.8818H25.4412C24.7452 28.8818 24.1885 29.4442 24.1885 30.1299C24.1885 30.8155 24.753 31.3779 25.4412 31.3779H28.225C28.9209 31.3779 29.4777 30.8155 29.4777 30.1299C29.4777 29.4442 28.9132 28.8818 28.225 28.8818Z" fill="black"/>
<path id="Vector_14" d="M46.7366 23.0889H39.3904C38.6945 23.0889 38.1377 23.6513 38.1377 24.3369V31.648C38.1377 32.3413 38.7022 32.896 39.3904 32.896H46.7366C47.4325 32.896 47.9893 32.3336 47.9893 31.648V24.3369C47.9893 23.6436 47.4248 23.0889 46.7366 23.0889ZM45.4838 30.3999H40.6509V25.5927H45.4838V30.3999Z" fill="black"/>
<path id="Vector_15" d="M56.7436 24.583H51.2146C50.5187 24.583 49.9619 25.1454 49.9619 25.831C49.9619 26.5167 50.5264 27.0791 51.2146 27.0791H56.7436C57.4395 27.0791 57.9963 26.5167 57.9963 25.831C57.9963 25.1454 57.4318 24.583 56.7436 24.583Z" fill="black"/>
<path id="Vector_16" d="M53.983 28.8818H51.2146C50.5187 28.8818 49.9619 29.4442 49.9619 30.1299C49.9619 30.8155 50.5264 31.3779 51.2146 31.3779H53.983C54.6789 31.3779 55.2357 30.8155 55.2357 30.1299C55.2357 29.4442 54.6712 28.8818 53.983 28.8818Z" fill="black"/>
<path id="Vector_17" d="M64.6852 5.10742H61.9246C61.2286 5.10742 60.6719 5.66981 60.6719 6.35546C60.6719 7.04111 61.2364 7.6035 61.9246 7.6035H64.6852C65.3811 7.6035 65.9379 7.04111 65.9379 6.35546C65.9379 5.66981 65.3734 5.10742 64.6852 5.10742Z" fill="black"/>
</g>
<defs>
<clipPath id="clip0_2500_3450">
<rect width="72" height="56" fill="white"/>
</clipPath>
</defs>
</svg>
