<svg width="201" height="202" viewBox="0 0 201 202" fill="none" xmlns="http://www.w3.org/2000/svg">
<circle cx="101" cy="102" r="94.5" stroke="url(#paint0_linear_2272_8431)" stroke-width="11"/>
<path d="M7 102C7 49.533 49.0852 7 101 7" stroke="#D9D9D9" stroke-width="13" stroke-linecap="round"/>
<path d="M64.34 103H59.14V84.64H53.7V81.04C58.26 81.04 59.78 79.52 60.1 76.44H64.34V103ZM85.8244 103H80.6244V84.64H75.1844V81.04C79.7444 81.04 81.2644 79.52 81.5844 76.44H85.8244V103ZM96.7003 99.72C99.1003 99.72 100.42 97.52 100.42 94.68C100.42 91.64 98.9003 89.72 96.6203 89.72C94.3003 89.72 92.6603 91.68 92.6603 94.6C92.6603 97.64 94.1403 99.72 96.7003 99.72ZM105.06 82.2H99.9003C99.7803 80.56 98.8203 79.72 97.1003 79.72C94.2603 79.72 92.9003 82.44 92.5803 88.12C93.8203 86.68 95.3803 85.64 98.0203 85.64C102.22 85.64 105.54 88.92 105.54 94.44C105.54 99.88 102.02 103.92 96.7803 103.92C90.5403 103.92 87.4603 99.36 87.4603 90.6C87.4603 79.96 90.7403 75.56 97.3403 75.56C101.62 75.56 104.5 77.92 105.06 82.2ZM116.152 99.64C118.832 99.64 119.992 98 119.992 95.24C119.992 92.8 118.792 91.08 116.152 91.08C113.512 91.08 112.392 92.72 112.392 95.24C112.392 98 113.472 99.64 116.152 99.64ZM116.152 86.96C118.312 86.96 119.392 85.48 119.392 83.4C119.392 81.24 118.312 79.8 116.152 79.8C113.992 79.8 112.912 81.24 112.912 83.4C112.912 85.48 113.992 86.96 116.152 86.96ZM121.392 88.48C123.792 89.56 125.352 92.28 125.352 95.24C125.352 100.28 122.352 103.92 116.192 103.92C110.072 103.92 106.952 100.16 106.952 95.48C106.952 92.4 108.352 90.04 111.112 88.72C108.912 87.6 108.112 85.12 108.112 82.88C108.112 78.68 111.552 75.56 116.192 75.56C121.432 75.56 124.152 78.68 124.152 82.72C124.152 85.04 123.432 87.44 121.392 88.48ZM145.597 96.36L150.237 98.96C148.237 102.04 144.757 103.92 140.597 103.92C135.037 103.92 130.317 100.8 128.837 94.72H126.517L127.237 91.68H128.357C128.317 91.16 128.317 90.6 128.317 90.04C128.317 89.56 128.317 89.12 128.357 88.76H126.517L127.237 85.64H128.717C130.397 79.32 134.237 75.56 140.677 75.56C143.317 75.56 145.517 76.28 147.597 77.56L145.037 82.24C143.957 80.96 142.237 80.36 140.717 80.36C137.717 80.36 135.477 82.32 134.477 85.64H143.237L141.597 88.76H133.917C133.917 89.84 133.957 91.08 134.037 91.68H139.997L138.357 94.72H134.797C135.917 97.48 137.837 99.08 140.397 99.08C142.837 99.08 144.557 98.2 145.597 96.36ZM152.931 99.9438H152.304C151.617 99.1188 151.248 98.0628 151.248 97.0134C151.248 96.0102 151.584 95.007 152.304 94.1952H152.931C152.396 95.0862 152.126 96.0498 152.126 97.0266C152.126 98.01 152.396 99.0066 152.931 99.9438ZM154.938 99H154.08V95.9706H153.183V95.3766C153.935 95.3766 154.186 95.1258 154.239 94.6176H154.938V99ZM155.987 99.9438H155.36C155.895 99.0066 156.165 98.01 156.165 97.0266C156.165 96.0498 155.895 95.0862 155.36 94.1952H155.987C156.706 95.007 157.043 96.0102 157.043 97.0134C157.043 98.0628 156.673 99.1188 155.987 99.9438Z" fill="black"/>
<path d="M64.3404 131.648C66.1644 131.648 67.0284 130.424 67.0284 128C67.0284 125.888 65.9244 124.424 64.3644 124.424C62.8764 124.424 61.7244 125.816 61.7244 127.808C61.7244 130.376 62.6124 131.648 64.3404 131.648ZM61.8444 139.592H58.7724V122.192H61.7724L61.7964 123.632C62.5404 122.432 63.6444 121.88 65.0844 121.88C68.0604 121.88 70.1964 124.232 70.1964 128.216C70.1964 131.792 68.3964 134.312 65.3484 134.312C63.8844 134.312 62.7324 133.712 61.8444 132.464V139.592ZM78.4869 129.512L78.5109 128.216C78.1989 128.528 77.6469 128.696 76.4949 128.912C74.7189 129.248 74.1429 129.752 74.1429 130.76C74.1429 131.648 74.6709 132.08 75.6549 132.08C77.2629 132.08 78.4629 130.904 78.4869 129.512ZM81.6309 134H78.7269C78.6309 133.712 78.5589 133.304 78.5349 132.944C77.7909 133.76 76.5429 134.312 74.9589 134.312C72.2709 134.312 71.0229 132.992 71.0229 131.072C71.0229 127.664 73.3029 127.28 76.4469 126.848C78.0069 126.632 78.4389 126.32 78.4389 125.504C78.4389 124.736 77.6709 124.28 76.4469 124.28C75.0309 124.28 74.4549 124.976 74.3109 126.032H71.4069C71.4549 123.584 72.7989 121.88 76.5909 121.88C80.3349 121.88 81.6309 123.56 81.6309 126.536V134ZM86.1268 134H83.0068V122.192H85.9348V123.608C86.9668 122.024 88.1668 121.88 89.4388 121.88H89.8468V125.072C89.5588 125.024 89.2708 125 88.9828 125C87.0628 125 86.1268 125.96 86.1268 127.856V134ZM113.403 134H110.355V126.848C110.355 125.432 109.611 124.424 108.507 124.424C107.355 124.424 106.515 125.504 106.515 126.944V134H103.395V126.896C103.395 125 102.891 124.52 101.523 124.52C100.275 124.52 99.6268 125.288 99.6268 126.824V134H96.5068V122.192H99.4348V123.92C100.227 122.36 101.331 121.88 102.891 121.88C104.499 121.88 105.267 122.384 106.179 123.752C106.827 122.456 107.883 121.88 109.371 121.88C111.747 121.88 113.403 123.608 113.403 125.816V134ZM120.409 131.696C122.305 131.696 123.265 130.496 123.265 128.096C123.265 125.696 122.305 124.52 120.409 124.52C118.513 124.52 117.553 125.696 117.553 128.096C117.553 130.496 118.513 131.696 120.409 131.696ZM120.409 134.312C116.593 134.312 114.337 131.768 114.337 128.096C114.337 124.352 116.665 121.88 120.409 121.88C124.105 121.88 126.409 124.328 126.409 128.096C126.409 131.84 124.081 134.312 120.409 134.312ZM130.73 134H127.61V122.192H130.73V134ZM130.73 120.776H127.61V117.872H130.73V120.776ZM142.259 125.768H139.259C139.091 124.616 138.467 124.208 137.051 124.208C135.875 124.208 135.203 124.496 135.203 125.192C135.203 125.888 135.851 126.176 137.123 126.536C138.467 126.92 139.739 127.184 140.651 127.544C141.899 128.048 142.595 128.864 142.595 130.4C142.595 132.848 140.795 134.312 137.435 134.312C133.811 134.312 131.795 132.608 131.747 130.208H134.963C134.963 131.312 135.899 131.96 137.411 131.96C138.515 131.96 139.499 131.624 139.499 130.736C139.499 129.896 138.611 129.632 137.603 129.392C135.611 128.912 134.507 128.576 133.667 128.048C132.563 127.352 132.179 126.44 132.179 125.384C132.179 123.392 133.547 121.88 137.147 121.88C140.555 121.88 142.091 123.224 142.259 125.768Z" fill="black"/>
<defs>
<linearGradient id="paint0_linear_2272_8431" x1="144.438" y1="47.074" x2="50.859" y2="167.686" gradientUnits="userSpaceOnUse">
<stop stop-color="#F39200"/>
<stop offset="0.33" stop-color="#EA5B0B"/>
<stop offset="0.635" stop-color="#D60B51"/>
<stop offset="1" stop-color="#A11881"/>
</linearGradient>
</defs>
</svg>
