<?xml version="1.0" standalone="no"?>
<!DOCTYPE svg PUBLIC "-//W3C//DTD SVG 20010904//EN"
 "http://www.w3.org/TR/2001/REC-SVG-20010904/DTD/svg10.dtd">
<svg version="1.0" xmlns="http://www.w3.org/2000/svg"
 width="512.000000pt" height="512.000000pt" viewBox="0 0 512.000000 512.000000"
 preserveAspectRatio="xMidYMid meet">

<g transform="translate(0.000000,512.000000) scale(0.100000,-0.100000)"
fill="#000000" stroke="none">
<path d="M2405 5113 c-127 -15 -205 -29 -303 -54 -652 -168 -1157 -695 -1306
-1360 -46 -207 -47 -272 -44 -1986 3 -1610 3 -1612 24 -1639 11 -15 33 -37 48
-48 l27 -21 1709 0 1709 0 27 21 c15 11 37 33 48 48 21 27 21 29 24 1634 2
1049 -1 1651 -7 1735 -47 575 -340 1071 -821 1387 -288 189 -648 293 -997 289
-59 -1 -121 -4 -138 -6z m1665 -2328 l0 -225 -490 0 -490 0 0 173 c0 192 7
217 72 257 32 19 52 20 471 20 l437 0 0 -225z m0 -750 l0 -225 -830 0 -830 0
0 166 c0 152 2 170 22 205 13 24 37 46 62 59 40 20 59 20 809 20 l767 0 0
-225z m-5 -755 l0 -225 -1165 0 -1165 0 -3 155 c-3 168 4 214 42 249 55 52 20
50 1196 48 l1095 -2 0 -225z m5 -755 l0 -225 -1511 0 -1511 0 4 174 c3 193 7
205 78 254 l33 22 1453 0 1454 0 0 -225z"/>
</g>
</svg>
