<svg width="15" height="18" viewBox="0 0 15 18" fill="none" xmlns="http://www.w3.org/2000/svg">
<path d="M10.5382 17.24C9.37019 17.24 8.29019 17.032 7.29819 16.616C6.30619 16.2 5.45019 15.616 4.73019 14.864C4.01019 14.096 3.45019 13.184 3.05019 12.128C2.65019 11.072 2.45019 9.896 2.45019 8.6C2.45019 7.368 2.65019 6.24 3.05019 5.216C3.45019 4.176 4.01819 3.272 4.75419 2.504C5.49019 1.72 6.34619 1.12 7.32219 0.704C8.31419 0.271999 9.38619 0.0559993 10.5382 0.0559993C11.2262 0.0559993 11.8982 0.151999 12.5542 0.344C13.2262 0.535999 13.8422 0.815999 14.4022 1.184L13.2262 3.176C12.8262 2.904 12.3942 2.704 11.9302 2.576C11.4662 2.432 11.0022 2.36 10.5382 2.36C9.41819 2.36 8.42619 2.632 7.56219 3.176C6.69819 3.704 6.01819 4.44 5.52219 5.384C5.02619 6.312 4.77819 7.384 4.77819 8.6C4.77819 9.88 5.01819 11 5.49819 11.96C5.99419 12.904 6.67419 13.64 7.53819 14.168C8.40219 14.68 9.40219 14.936 10.5382 14.936C11.0342 14.936 11.5062 14.864 11.9542 14.72C12.4022 14.576 12.8262 14.368 13.2262 14.096L14.4262 16.112C13.8342 16.464 13.2022 16.744 12.5302 16.952C11.8582 17.144 11.1942 17.24 10.5382 17.24ZM0.602188 11.672V9.416L10.2502 9.464V11.696L0.602188 11.672ZM0.602188 8.168V5.936L10.2502 5.96V8.192L0.602188 8.168Z" fill="#FBF7F6"/>
</svg>
