<svg width="40" height="40" viewBox="0 0 40 40" fill="none" xmlns="http://www.w3.org/2000/svg">
<path d="M40 20.0007C40 30.102 32.5124 38.4529 22.7853 39.808C21.8758 39.9341 20.9452 40 20.0007 40C18.9104 40 17.8398 39.9131 16.7971 39.7449C7.27324 38.2118 0 29.9548 0 20.0007C0 8.95491 8.95491 0 19.9993 0C31.0437 0 40 8.95491 40 20.0007Z" fill="#EA5B0B"/>
<path d="M22.7851 16.0592V20.4162H28.1748L27.3214 26.2852H22.7851V39.8073C21.8756 39.9334 20.945 39.9993 20.0005 39.9993C18.9102 39.9993 17.8396 39.9124 16.7969 39.7442V26.2852H11.8262V20.4162H16.7969V15.0853C16.7969 11.778 19.4778 9.0957 22.7865 9.0957V9.09851C22.7963 9.09851 22.8047 9.0957 22.8145 9.0957H28.1762V14.1716H24.6728C23.6315 14.1716 22.7865 15.0166 22.7865 16.0578L22.7851 16.0592Z" fill="white"/>
</svg>
