<?xml version="1.0" standalone="no"?>
<!DOCTYPE svg PUBLIC "-//W3C//DTD SVG 20010904//EN"
 "http://www.w3.org/TR/2001/REC-SVG-20010904/DTD/svg10.dtd">
<svg version="1.0" xmlns="http://www.w3.org/2000/svg"
 width="365.000000pt" height="368.000000pt" viewBox="0 0 365.000000 368.000000"
 preserveAspectRatio="xMidYMid meet">

<g transform="translate(0.000000,368.000000) scale(0.100000,-0.100000)"
fill="#000000" stroke="none">
<path d="M1682 3639 c-1003 -86 -1744 -980 -1641 -1980 62 -608 437 -1154 979
-1424 290 -145 551 -202 870 -192 289 10 507 65 757 191 217 108 409 259 560
440 598 713 570 1738 -66 2408 -379 399 -916 604 -1459 557z m437 -84 c997
-167 1640 -1145 1400 -2128 -159 -649 -682 -1151 -1344 -1288 -144 -30 -431
-37 -583 -15 -399 59 -726 227 -1008 518 -230 237 -383 529 -455 868 -20 90
-23 136 -23 325 -1 191 2 235 22 333 152 753 750 1307 1512 1401 102 13 365 5
479 -14z"/>
<path d="M1755 2832 c-93 -35 -1030 -464 -1049 -480 -26 -24 -48 -79 -41 -105
16 -58 31 -71 132 -119 l102 -48 3 -347 c4 -503 -24 -464 508 -718 l355 -170
80 0 80 0 362 174 c400 192 417 203 471 319 l27 57 3 343 3 342 66 30 c36 16
69 27 74 24 5 -3 9 -180 9 -398 0 -291 3 -395 12 -404 19 -19 56 -14 68 8 7
13 10 173 8 495 l-3 475 -30 29 c-20 20 -201 107 -553 266 -578 262 -586 265
-687 227z m664 -312 c282 -129 516 -240 518 -248 3 -7 -1 -19 -8 -27 -8 -7
-244 -117 -525 -244 -446 -202 -517 -231 -560 -231 -42 0 -118 32 -564 234
-283 128 -519 241 -525 250 -6 10 -6 19 0 25 6 5 244 116 530 246 492 223 523
236 570 232 39 -3 161 -54 564 -237z m-1031 -662 l377 -172 80 -1 80 0 378
173 c209 94 383 169 388 166 5 -3 9 -132 9 -293 0 -227 -3 -298 -15 -338 -28
-93 -53 -110 -444 -297 -307 -147 -360 -170 -400 -169 -38 1 -107 30 -386 163
-187 89 -356 174 -375 189 -19 15 -47 51 -62 81 l-28 54 0 308 c0 209 3 308
11 308 5 0 180 -78 387 -172z"/>
</g>
</svg>
