<svg width="61" height="60" viewBox="0 0 61 60" fill="none" xmlns="http://www.w3.org/2000/svg">
<circle cx="30.5" cy="30" r="30" fill="white"/>
<g clip-path="url(#clip0_2270_4513)">
<path d="M30.5002 16.5703C29.719 16.5703 29.0557 15.8883 29.0557 15.0797V13.5687C29.0557 12.7601 29.719 12.0781 30.5002 12.0781C31.2815 12.0781 31.9448 12.7601 31.9448 13.5687V15.0797C31.9448 15.8883 31.2856 16.5703 30.5002 16.5703ZM30.5002 13.1808C30.3619 13.1808 30.1544 13.3359 30.1544 13.5687V15.0797C30.1544 15.2758 30.3253 15.4677 30.5002 15.4677C30.6386 15.4677 30.8461 15.3125 30.8461 15.0797V13.5687C30.8461 13.3727 30.6752 13.1808 30.5002 13.1808Z" fill="#EA5B0B"/>
<path d="M27.4076 17.3467C26.842 17.3467 26.3985 17.0853 26.1543 16.6116L25.3893 15.3211C25.198 15.0026 25.1451 14.5983 25.2509 14.2226C25.3527 13.855 25.5887 13.5324 25.9061 13.3445C26.5694 12.9443 27.4728 13.1812 27.8797 13.8591L28.6528 15.17C29.0516 15.8357 28.8156 16.7423 28.136 17.1507C27.9489 17.2773 27.6844 17.3508 27.4076 17.3508V17.3467ZM26.6101 14.2511C26.5572 14.2511 26.5083 14.2634 26.4676 14.2879C26.3944 14.3328 26.3334 14.4145 26.3089 14.5125C26.2845 14.6024 26.2927 14.6922 26.3334 14.7575L27.1269 16.1011C27.1635 16.1787 27.2164 16.2441 27.4076 16.2441C27.489 16.2441 27.5379 16.2236 27.5501 16.2155C27.6477 16.1583 27.7047 16.0725 27.7332 15.9786C27.7576 15.8888 27.7495 15.7989 27.7088 15.7336L26.9356 14.4227C26.8705 14.3165 26.7362 14.2511 26.6141 14.2511H26.6101Z" fill="#EA5B0B"/>
<path d="M33.5925 17.3461C33.3768 17.3461 33.1327 17.2808 32.9007 17.1664L32.8641 17.146C32.5467 16.9541 32.3107 16.6355 32.2089 16.268C32.1072 15.8882 32.156 15.488 32.3514 15.1653L33.0757 13.8708C33.271 13.5114 33.6128 13.25 34.0075 13.1561C34.3738 13.0703 34.7563 13.1398 35.0655 13.344C35.3911 13.5318 35.623 13.834 35.7248 14.2016C35.8265 14.5814 35.7736 14.9897 35.5742 15.3205L34.8499 16.6151C34.5894 17.0725 34.1215 17.3461 33.5966 17.3461H33.5925ZM33.4134 16.1904C33.507 16.2353 33.5762 16.2435 33.5925 16.2435C33.7227 16.2435 33.8244 16.1822 33.8895 16.072L34.6179 14.7692C34.6708 14.6794 34.683 14.5814 34.6586 14.4915C34.6423 14.4303 34.6017 14.3486 34.5081 14.2955L34.4552 14.2628C34.3819 14.2097 34.3046 14.2138 34.2558 14.2261C34.1622 14.2465 34.0808 14.3118 34.032 14.4017L33.2954 15.7167C33.2466 15.7943 33.2425 15.8841 33.2669 15.9739C33.2914 16.0638 33.3443 16.1414 33.4094 16.1863L33.4134 16.1904Z" fill="#EA5B0B"/>
<path d="M22.0762 47.7706C20.8962 47.7706 19.8992 46.7497 19.8992 45.545V37.5039L17.3559 46.1902C17.0833 47.1213 16.2125 47.7706 15.244 47.7706C14.9713 47.7706 14.6987 47.7176 14.4301 47.6073C13.3558 47.2316 12.7943 46.0269 13.1768 44.8793L15.9805 35.3027C16.0416 35.0822 16.0822 34.8086 16.0822 34.5595V31.7743L14.3284 34.5676C13.9255 35.1475 13.2989 35.4783 12.6437 35.4783C12.2572 35.4783 11.9031 35.3681 11.5654 35.1394C11.1218 34.8617 10.7963 34.4084 10.6824 33.902C10.5725 33.4037 10.6661 32.8933 10.955 32.4277L14.4139 26.9145C15.2562 25.5506 16.7252 24.7379 18.3366 24.7379H21.7141C22.2309 24.7379 22.7721 24.6399 23.3703 24.4397C24.4527 24.0436 25.2787 23.1738 25.6246 22.063L26.4385 19.5269C26.6541 18.7101 27.4232 18.1221 28.3022 18.1221C28.4975 18.1221 28.705 18.1588 28.9207 18.2323C29.9299 18.5713 30.5281 19.6903 30.2554 20.7316L29.4334 23.2922C28.6969 25.5587 26.9878 27.3352 24.7497 28.1724C24.6317 28.2132 24.4771 28.254 24.3347 28.2908L24.294 45.5817C24.294 46.7864 23.3011 47.7666 22.0762 47.7666V47.7706ZM20.3305 35.5437C20.7171 35.658 20.9938 36.0296 20.9938 36.438V45.545C20.9938 46.1535 21.4862 46.668 22.0722 46.668C22.6988 46.668 23.1912 46.1943 23.1912 45.5858L23.2319 27.425L23.6551 27.327C23.7935 27.2943 24.2004 27.1963 24.3794 27.1351C26.2838 26.4204 27.7528 24.8971 28.3836 22.9532L29.1974 20.4213C29.3154 19.968 29.0306 19.4289 28.5708 19.2778C28.469 19.2451 28.3714 19.2247 28.2981 19.2247C27.9237 19.2247 27.5819 19.482 27.4843 19.8373L26.6623 22.3978C26.2147 23.8353 25.1445 24.9584 23.7243 25.4811C22.9959 25.7262 22.3407 25.8405 21.7059 25.8405H18.3285C17.0955 25.8405 15.9805 26.4612 15.3376 27.4985L11.8787 33.0158C11.7444 33.2322 11.6997 33.4487 11.7485 33.6651C11.7973 33.8816 11.9479 34.0857 12.1554 34.2164C12.3304 34.3308 12.4688 34.3798 12.6356 34.3798C12.9408 34.3798 13.2216 34.2287 13.4047 33.9632L17.1728 27.96V34.5676C17.1728 34.9188 17.124 35.2946 17.0304 35.6172L14.2226 45.2183C14.0273 45.8104 14.2877 46.3985 14.8126 46.5863C14.9754 46.6517 15.1056 46.6762 15.2399 46.6762C15.7282 46.6762 16.1636 46.3536 16.2979 45.888L19.1423 36.1848C19.1993 35.9439 19.358 35.7356 19.5859 35.6131C19.8178 35.4865 20.0864 35.4661 20.3346 35.5518L20.3305 35.5437Z" fill="#EA5B0B"/>
<path d="M20.1234 24.8196C17.9138 24.8196 16.1152 23.0145 16.1152 20.797C16.1152 18.5795 17.9138 16.7744 20.1234 16.7744C22.333 16.7744 24.1316 18.5795 24.1316 20.797C24.1316 23.0145 22.333 24.8196 20.1234 24.8196ZM20.1234 17.877C18.5202 17.877 17.2139 19.188 17.2139 20.797C17.2139 22.406 18.5202 23.7169 20.1234 23.7169C21.7267 23.7169 23.033 22.406 23.033 20.797C23.033 19.188 21.7267 17.877 20.1234 17.877Z" fill="#EA5B0B"/>
<path d="M45.7601 47.7706C44.7876 47.7706 43.9167 47.1213 43.6441 46.1902L41.1008 37.508V45.545C41.1008 46.7497 40.1039 47.7706 38.9238 47.7706C37.7437 47.7706 36.706 46.7905 36.706 45.5858L36.6654 28.2949C36.5229 28.2581 36.3764 28.2173 36.2666 28.1805C34.0081 27.3352 32.2991 25.5587 31.5625 23.2963L30.7853 20.7112C30.4557 19.7188 31.0417 18.5754 32.0752 18.2323C32.295 18.1588 32.5025 18.1221 32.6978 18.1221C33.5768 18.1221 34.3459 18.7101 34.5697 19.5514L35.3754 22.0548C35.7213 23.1697 36.5514 24.0395 37.646 24.4438C38.232 24.6399 38.7732 24.7379 39.29 24.7379H42.6675C44.2789 24.7379 45.7479 25.5546 46.5943 26.9186L50.0491 32.346C50.3421 32.8157 50.4357 33.3261 50.3258 33.8244C50.2119 34.3308 49.8863 34.7841 49.4306 35.0699C49.105 35.2905 48.751 35.4007 48.3644 35.4007C47.7052 35.4007 47.0826 35.0699 46.692 34.5105L44.9259 31.6926V34.4778C44.9259 34.7269 44.9625 35.0005 45.0277 35.2251L47.8761 44.818C48.2017 46.0677 47.6442 47.2357 46.5536 47.6195C46.3095 47.7175 46.0328 47.7747 45.7601 47.7747V47.7706ZM41.8577 36.1767L44.7021 45.8798C44.8771 46.472 45.5241 46.8436 46.167 46.5863C46.7245 46.3903 46.989 45.7736 46.8181 45.1121L43.9737 35.5314C43.8801 35.2006 43.8272 34.829 43.8272 34.4737V27.8661L47.6076 33.8938C47.7785 34.1388 48.0592 34.2899 48.3644 34.2899C48.5313 34.2899 48.6737 34.245 48.8324 34.1388C49.0521 34 49.2068 33.7958 49.2515 33.5793C49.3004 33.367 49.2515 33.1465 49.1172 32.93L45.6625 27.5026C45.0154 26.4572 43.8964 25.8364 42.6675 25.8364H39.29C38.6552 25.8364 38.0001 25.7221 37.2839 25.4811C35.8474 24.9543 34.7772 23.8272 34.3296 22.3856L33.5158 19.8577C33.414 19.4779 33.0722 19.2206 32.6978 19.2206C32.6246 19.2206 32.5269 19.241 32.4252 19.2737C31.9694 19.4289 31.6927 19.9394 31.8392 20.3723L32.6165 22.9614C33.2431 24.8931 34.7121 26.4163 36.6369 27.1351C36.7996 27.1882 37.2025 27.2862 37.3408 27.3188L37.764 27.4169L37.8047 45.5776C37.8047 46.1861 38.2971 46.6598 38.9238 46.6598C39.5098 46.6598 40.0021 46.1453 40.0021 45.5368V36.4299C40.0021 36.0215 40.2788 35.6539 40.6654 35.5355C40.9096 35.4497 41.1781 35.4702 41.4142 35.5968C41.638 35.7193 41.8007 35.9275 41.8577 36.1685V36.1767Z" fill="#EA5B0B"/>
<path d="M40.8764 24.8196C38.6668 24.8196 36.8682 23.0145 36.8682 20.797C36.8682 18.5795 38.6668 16.7744 40.8764 16.7744C43.086 16.7744 44.8846 18.5795 44.8846 20.797C44.8846 23.0145 43.086 24.8196 40.8764 24.8196ZM40.8764 17.877C39.2731 17.877 37.9669 19.188 37.9669 20.797C37.9669 22.406 39.2731 23.7169 40.8764 23.7169C42.4797 23.7169 43.7859 22.406 43.7859 20.797C43.7859 19.188 42.4797 17.877 40.8764 17.877Z" fill="#EA5B0B"/>
</g>
<defs>
<clipPath id="clip0_2270_4513">
<rect width="39.7403" height="35.6926" fill="white" transform="translate(10.6299 12.0781)"/>
</clipPath>
</defs>
</svg>
