<svg width="40" height="40" viewBox="0 0 40 40" fill="none" xmlns="http://www.w3.org/2000/svg">
<circle cx="20" cy="20" r="19.5" stroke="url(#paint0_linear_2039_9677)"/>
<path d="M14.8407 30.4531L14.7585 30.3962L14.8408 30.4531L14.8409 30.4528L14.8416 30.4519L14.8445 30.4477L14.8563 30.431C14.8669 30.416 14.8829 30.3937 14.9043 30.3646C14.9469 30.3062 15.0109 30.2202 15.0958 30.1107C15.2655 29.8916 15.5187 29.5781 15.8517 29.2017C16.5179 28.4486 17.5028 27.4444 18.7773 26.4402C21.3269 24.4314 25.0298 22.4272 29.6551 22.4272C29.9108 22.4272 30.0999 22.2104 30.0999 21.9536C30.0999 21.6969 29.9108 21.4801 29.6551 21.4801C24.801 21.4801 20.9177 23.5851 18.251 25.6854C16.9173 26.7359 15.8865 27.7862 15.1889 28.5741C14.8401 28.9682 14.5745 29.2967 14.3958 29.5271C14.3065 29.6422 14.2389 29.7329 14.1936 29.7949C14.1709 29.8259 14.1538 29.8497 14.1423 29.8659L14.1292 29.8844L14.1258 29.8892L14.1254 29.8898C14.1253 29.89 14.1251 29.8902 14.125 29.8903C13.9769 30.0985 14.0212 30.3882 14.2116 30.5476C14.4128 30.716 14.6926 30.6608 14.8399 30.4542L14.8399 30.4542L14.8407 30.4531Z" fill="url(#paint1_linear_2039_9677)" stroke="url(#paint2_linear_2039_9677)" stroke-width="0.2" stroke-linejoin="round"/>
<path d="M30.0994 25.7445C30.1237 25.4983 29.9686 25.2736 29.7387 25.2292C29.7272 25.2227 29.7145 25.2185 29.7012 25.2169C26.7146 24.8662 24.3483 25.7698 22.6623 26.8754C20.9788 27.9792 19.97 29.2866 19.6932 29.7554C19.617 29.8829 19.5744 29.9849 19.5636 30.0497C19.5394 30.1657 19.5557 30.257 19.5732 30.314C19.6156 30.4519 19.6954 30.5398 19.8005 30.5967L19.8005 30.5967L19.802 30.5975C20.0274 30.7147 20.2954 30.615 20.401 30.3863C20.4176 30.3503 20.4265 30.315 20.4329 30.2875C20.4343 30.2844 20.4355 30.282 20.4366 30.2799C20.4366 30.2798 20.4367 30.2798 20.4367 30.2797C20.4395 30.2762 20.4421 30.2725 20.4444 30.2686C20.6883 29.8596 21.6137 28.6716 23.1637 27.6667C24.7113 26.6634 26.878 25.8447 29.609 26.1627L29.609 26.1627C29.8656 26.1925 30.0738 25.9936 30.0993 25.7448L30.0994 25.7445Z" fill="url(#paint3_linear_2039_9677)" stroke="url(#paint4_linear_2039_9677)" stroke-width="0.2" stroke-linejoin="round"/>
<mask id="path-4-outside-1_2039_9677" maskUnits="userSpaceOnUse" x="9" y="9" width="22" height="22" fill="black">
<rect fill="white" x="9" y="9" width="22" height="22"/>
<path d="M29.9793 19.5931C29.9586 19.5333 29.931 19.481 29.8897 19.4437C29.8483 19.3989 29.8 19.369 29.7448 19.354C29.7448 19.354 29.6828 19.3391 29.6552 19.3391H20.3448V16.3207C20.4552 16.3356 20.5724 16.3506 20.6897 16.3506C22.0207 16.3506 23.1034 15.1776 23.1034 13.7356C23.1034 12.9586 22.7862 12.2563 22.2828 11.7782C21.9586 10.7471 21.0552 10 20 10C18.9448 10 18.0345 10.7397 17.7103 11.7782C17.2069 12.2563 16.8966 12.9586 16.8966 13.7356C16.8966 15.1776 17.9793 16.3506 19.3103 16.3506C19.4276 16.3506 19.5448 16.3431 19.6552 16.3207V19.3391H13.4483V16.3207C13.5586 16.3356 13.6759 16.3506 13.7931 16.3506C15.1241 16.3506 16.2069 15.1776 16.2069 13.7356C16.2069 12.9586 15.8897 12.2563 15.3862 11.7782C15.0621 10.7471 14.1586 10 13.1034 10C12.0483 10 11.1379 10.7397 10.8138 11.7782C10.3103 12.2563 10 12.9586 10 13.7356C10 15.1776 11.0828 16.3506 12.4138 16.3506C12.531 16.3506 12.6483 16.3431 12.7586 16.3207V19.3391H10.3448C10.1517 19.3391 10 19.5034 10 19.7126C10 19.9218 10.1517 20.0862 10.3448 20.0862H25.3655C24.3379 20.3402 23.3241 20.6316 22.3241 20.9753C21.5034 21.2592 20.6897 21.573 19.8897 21.9241C19.6 22.0512 19.3103 22.1856 19.0276 22.3201H19.0069L10.3517 22.3276C10.1586 22.3276 10.0069 22.492 10.0069 22.7011C10.0069 22.9103 10.1586 23.0747 10.3517 23.0747H17.5586H17.5448C17.0552 23.3511 16.5724 23.6425 16.1034 23.9489C15.4552 24.3672 14.8276 24.823 14.2207 25.3086H14.2138H10.3517C10.1586 25.3086 10.0069 25.473 10.0069 25.6822C10.0069 25.8914 10.1586 26.0557 10.3517 26.0557H13.3448H13.3379C12.8897 26.4667 12.4621 26.8925 12.0552 27.3408C11.5103 27.931 11.0069 28.5661 10.5448 29.231C10.4759 29.3282 10.4069 29.4328 10.3448 29.5299C10.2759 29.6345 10.2069 29.7391 10.1379 29.8437C10.1241 29.8661 10.1103 29.8885 10.0966 29.9109C10.0966 29.9184 10.0828 29.9333 10.0828 29.9408C10.0759 29.9557 10.069 29.9632 10.0621 29.9782C10.0483 30.008 10.0345 30.0454 10.0276 30.0753C10.0138 30.1276 10.0138 30.1799 10.0276 30.2322C10.0345 30.2845 10.0552 30.3368 10.0828 30.3741C10.1034 30.404 10.1241 30.4339 10.1517 30.4563C10.1793 30.4787 10.2138 30.5011 10.2483 30.5161C10.2828 30.531 10.3241 30.5385 10.3586 30.5385C10.4 30.5385 10.4414 30.531 10.4828 30.5161C10.5379 30.4937 10.5862 30.4563 10.6276 30.404C10.6414 30.3891 10.6552 30.3667 10.669 30.3443C10.6828 30.3218 10.6966 30.2994 10.7103 30.277C10.7655 30.1874 10.8276 30.0977 10.8828 30.008C11.1172 29.6494 11.3724 29.2908 11.6345 28.9546C12.1241 28.3195 12.6552 27.7218 13.2138 27.169C13.6207 26.7655 14.0483 26.3845 14.4828 26.0184H14.4966C14.4966 26.0184 14.5586 25.9661 14.5793 25.9362C14.8345 25.7195 15.0966 25.5178 15.3655 25.3236C16 24.8529 16.6552 24.427 17.3241 24.0236C17.9103 23.6799 18.5034 23.3586 19.1103 23.0672H19.131C19.1793 23.0448 19.2276 23.0224 19.269 22.9925C24.4828 20.4897 29.5586 20.0862 29.6828 20.0787C29.7103 20.0787 29.7448 20.0713 29.7724 20.0563C29.8276 20.0339 29.8759 20.004 29.9103 19.9592C29.9448 19.9144 29.9724 19.8621 29.9931 19.8023C29.9931 19.8023 30.0069 19.7276 30.0069 19.6902C30.0069 19.6529 30 19.6155 29.9862 19.5782L29.9793 19.5931ZM12.9862 15.4989C12.8069 15.5661 12.6138 15.6034 12.4138 15.6034C11.4621 15.6034 10.6897 14.7667 10.6897 13.7356C10.6897 13.1454 10.9379 12.6224 11.331 12.2787C11.3862 12.2339 11.4276 12.1667 11.4483 12.092C11.6552 11.3149 12.3172 10.7471 13.1034 10.7471C13.8897 10.7471 14.5517 11.3149 14.7586 12.092C14.7793 12.1667 14.8207 12.2339 14.8759 12.2787C15.269 12.6224 15.5172 13.1454 15.5172 13.7356C15.5172 14.7667 14.7448 15.6034 13.7931 15.6034C13.5931 15.6034 13.4 15.5661 13.2207 15.4989C13.1448 15.469 13.0621 15.469 12.9931 15.4989H12.9862ZM19.8828 15.4989C19.7034 15.5661 19.5103 15.6034 19.3103 15.6034C18.3586 15.6034 17.5862 14.7667 17.5862 13.7356C17.5862 13.1454 17.8345 12.6224 18.2276 12.2787C18.2828 12.2339 18.3241 12.1667 18.3448 12.092C18.5517 11.3149 19.2138 10.7471 20 10.7471C20.7862 10.7471 21.4483 11.3149 21.6552 12.092C21.6759 12.1667 21.7172 12.2339 21.7724 12.2787C22.1655 12.6224 22.4138 13.1454 22.4138 13.7356C22.4138 14.7667 21.6414 15.6034 20.6897 15.6034C20.4897 15.6034 20.2965 15.5661 20.1172 15.4989C20.0414 15.469 19.9586 15.469 19.8897 15.4989H19.8828Z"/>
</mask>
<path d="M29.9793 19.5931C29.9586 19.5333 29.931 19.481 29.8897 19.4437C29.8483 19.3989 29.8 19.369 29.7448 19.354C29.7448 19.354 29.6828 19.3391 29.6552 19.3391H20.3448V16.3207C20.4552 16.3356 20.5724 16.3506 20.6897 16.3506C22.0207 16.3506 23.1034 15.1776 23.1034 13.7356C23.1034 12.9586 22.7862 12.2563 22.2828 11.7782C21.9586 10.7471 21.0552 10 20 10C18.9448 10 18.0345 10.7397 17.7103 11.7782C17.2069 12.2563 16.8966 12.9586 16.8966 13.7356C16.8966 15.1776 17.9793 16.3506 19.3103 16.3506C19.4276 16.3506 19.5448 16.3431 19.6552 16.3207V19.3391H13.4483V16.3207C13.5586 16.3356 13.6759 16.3506 13.7931 16.3506C15.1241 16.3506 16.2069 15.1776 16.2069 13.7356C16.2069 12.9586 15.8897 12.2563 15.3862 11.7782C15.0621 10.7471 14.1586 10 13.1034 10C12.0483 10 11.1379 10.7397 10.8138 11.7782C10.3103 12.2563 10 12.9586 10 13.7356C10 15.1776 11.0828 16.3506 12.4138 16.3506C12.531 16.3506 12.6483 16.3431 12.7586 16.3207V19.3391H10.3448C10.1517 19.3391 10 19.5034 10 19.7126C10 19.9218 10.1517 20.0862 10.3448 20.0862H25.3655C24.3379 20.3402 23.3241 20.6316 22.3241 20.9753C21.5034 21.2592 20.6897 21.573 19.8897 21.9241C19.6 22.0512 19.3103 22.1856 19.0276 22.3201H19.0069L10.3517 22.3276C10.1586 22.3276 10.0069 22.492 10.0069 22.7011C10.0069 22.9103 10.1586 23.0747 10.3517 23.0747H17.5586H17.5448C17.0552 23.3511 16.5724 23.6425 16.1034 23.9489C15.4552 24.3672 14.8276 24.823 14.2207 25.3086H14.2138H10.3517C10.1586 25.3086 10.0069 25.473 10.0069 25.6822C10.0069 25.8914 10.1586 26.0557 10.3517 26.0557H13.3448H13.3379C12.8897 26.4667 12.4621 26.8925 12.0552 27.3408C11.5103 27.931 11.0069 28.5661 10.5448 29.231C10.4759 29.3282 10.4069 29.4328 10.3448 29.5299C10.2759 29.6345 10.2069 29.7391 10.1379 29.8437C10.1241 29.8661 10.1103 29.8885 10.0966 29.9109C10.0966 29.9184 10.0828 29.9333 10.0828 29.9408C10.0759 29.9557 10.069 29.9632 10.0621 29.9782C10.0483 30.008 10.0345 30.0454 10.0276 30.0753C10.0138 30.1276 10.0138 30.1799 10.0276 30.2322C10.0345 30.2845 10.0552 30.3368 10.0828 30.3741C10.1034 30.404 10.1241 30.4339 10.1517 30.4563C10.1793 30.4787 10.2138 30.5011 10.2483 30.5161C10.2828 30.531 10.3241 30.5385 10.3586 30.5385C10.4 30.5385 10.4414 30.531 10.4828 30.5161C10.5379 30.4937 10.5862 30.4563 10.6276 30.404C10.6414 30.3891 10.6552 30.3667 10.669 30.3443C10.6828 30.3218 10.6966 30.2994 10.7103 30.277C10.7655 30.1874 10.8276 30.0977 10.8828 30.008C11.1172 29.6494 11.3724 29.2908 11.6345 28.9546C12.1241 28.3195 12.6552 27.7218 13.2138 27.169C13.6207 26.7655 14.0483 26.3845 14.4828 26.0184H14.4966C14.4966 26.0184 14.5586 25.9661 14.5793 25.9362C14.8345 25.7195 15.0966 25.5178 15.3655 25.3236C16 24.8529 16.6552 24.427 17.3241 24.0236C17.9103 23.6799 18.5034 23.3586 19.1103 23.0672H19.131C19.1793 23.0448 19.2276 23.0224 19.269 22.9925C24.4828 20.4897 29.5586 20.0862 29.6828 20.0787C29.7103 20.0787 29.7448 20.0713 29.7724 20.0563C29.8276 20.0339 29.8759 20.004 29.9103 19.9592C29.9448 19.9144 29.9724 19.8621 29.9931 19.8023C29.9931 19.8023 30.0069 19.7276 30.0069 19.6902C30.0069 19.6529 30 19.6155 29.9862 19.5782L29.9793 19.5931ZM12.9862 15.4989C12.8069 15.5661 12.6138 15.6034 12.4138 15.6034C11.4621 15.6034 10.6897 14.7667 10.6897 13.7356C10.6897 13.1454 10.9379 12.6224 11.331 12.2787C11.3862 12.2339 11.4276 12.1667 11.4483 12.092C11.6552 11.3149 12.3172 10.7471 13.1034 10.7471C13.8897 10.7471 14.5517 11.3149 14.7586 12.092C14.7793 12.1667 14.8207 12.2339 14.8759 12.2787C15.269 12.6224 15.5172 13.1454 15.5172 13.7356C15.5172 14.7667 14.7448 15.6034 13.7931 15.6034C13.5931 15.6034 13.4 15.5661 13.2207 15.4989C13.1448 15.469 13.0621 15.469 12.9931 15.4989H12.9862ZM19.8828 15.4989C19.7034 15.5661 19.5103 15.6034 19.3103 15.6034C18.3586 15.6034 17.5862 14.7667 17.5862 13.7356C17.5862 13.1454 17.8345 12.6224 18.2276 12.2787C18.2828 12.2339 18.3241 12.1667 18.3448 12.092C18.5517 11.3149 19.2138 10.7471 20 10.7471C20.7862 10.7471 21.4483 11.3149 21.6552 12.092C21.6759 12.1667 21.7172 12.2339 21.7724 12.2787C22.1655 12.6224 22.4138 13.1454 22.4138 13.7356C22.4138 14.7667 21.6414 15.6034 20.6897 15.6034C20.4897 15.6034 20.2965 15.5661 20.1172 15.4989C20.0414 15.469 19.9586 15.469 19.8897 15.4989H19.8828Z" fill="url(#paint5_linear_2039_9677)"/>
<path d="M29.9793 19.5931C29.9586 19.5333 29.931 19.481 29.8897 19.4437C29.8483 19.3989 29.8 19.369 29.7448 19.354C29.7448 19.354 29.6828 19.3391 29.6552 19.3391H20.3448V16.3207C20.4552 16.3356 20.5724 16.3506 20.6897 16.3506C22.0207 16.3506 23.1034 15.1776 23.1034 13.7356C23.1034 12.9586 22.7862 12.2563 22.2828 11.7782C21.9586 10.7471 21.0552 10 20 10C18.9448 10 18.0345 10.7397 17.7103 11.7782C17.2069 12.2563 16.8966 12.9586 16.8966 13.7356C16.8966 15.1776 17.9793 16.3506 19.3103 16.3506C19.4276 16.3506 19.5448 16.3431 19.6552 16.3207V19.3391H13.4483V16.3207C13.5586 16.3356 13.6759 16.3506 13.7931 16.3506C15.1241 16.3506 16.2069 15.1776 16.2069 13.7356C16.2069 12.9586 15.8897 12.2563 15.3862 11.7782C15.0621 10.7471 14.1586 10 13.1034 10C12.0483 10 11.1379 10.7397 10.8138 11.7782C10.3103 12.2563 10 12.9586 10 13.7356C10 15.1776 11.0828 16.3506 12.4138 16.3506C12.531 16.3506 12.6483 16.3431 12.7586 16.3207V19.3391H10.3448C10.1517 19.3391 10 19.5034 10 19.7126C10 19.9218 10.1517 20.0862 10.3448 20.0862H25.3655C24.3379 20.3402 23.3241 20.6316 22.3241 20.9753C21.5034 21.2592 20.6897 21.573 19.8897 21.9241C19.6 22.0512 19.3103 22.1856 19.0276 22.3201H19.0069L10.3517 22.3276C10.1586 22.3276 10.0069 22.492 10.0069 22.7011C10.0069 22.9103 10.1586 23.0747 10.3517 23.0747H17.5586H17.5448C17.0552 23.3511 16.5724 23.6425 16.1034 23.9489C15.4552 24.3672 14.8276 24.823 14.2207 25.3086H14.2138H10.3517C10.1586 25.3086 10.0069 25.473 10.0069 25.6822C10.0069 25.8914 10.1586 26.0557 10.3517 26.0557H13.3448H13.3379C12.8897 26.4667 12.4621 26.8925 12.0552 27.3408C11.5103 27.931 11.0069 28.5661 10.5448 29.231C10.4759 29.3282 10.4069 29.4328 10.3448 29.5299C10.2759 29.6345 10.2069 29.7391 10.1379 29.8437C10.1241 29.8661 10.1103 29.8885 10.0966 29.9109C10.0966 29.9184 10.0828 29.9333 10.0828 29.9408C10.0759 29.9557 10.069 29.9632 10.0621 29.9782C10.0483 30.008 10.0345 30.0454 10.0276 30.0753C10.0138 30.1276 10.0138 30.1799 10.0276 30.2322C10.0345 30.2845 10.0552 30.3368 10.0828 30.3741C10.1034 30.404 10.1241 30.4339 10.1517 30.4563C10.1793 30.4787 10.2138 30.5011 10.2483 30.5161C10.2828 30.531 10.3241 30.5385 10.3586 30.5385C10.4 30.5385 10.4414 30.531 10.4828 30.5161C10.5379 30.4937 10.5862 30.4563 10.6276 30.404C10.6414 30.3891 10.6552 30.3667 10.669 30.3443C10.6828 30.3218 10.6966 30.2994 10.7103 30.277C10.7655 30.1874 10.8276 30.0977 10.8828 30.008C11.1172 29.6494 11.3724 29.2908 11.6345 28.9546C12.1241 28.3195 12.6552 27.7218 13.2138 27.169C13.6207 26.7655 14.0483 26.3845 14.4828 26.0184H14.4966C14.4966 26.0184 14.5586 25.9661 14.5793 25.9362C14.8345 25.7195 15.0966 25.5178 15.3655 25.3236C16 24.8529 16.6552 24.427 17.3241 24.0236C17.9103 23.6799 18.5034 23.3586 19.1103 23.0672H19.131C19.1793 23.0448 19.2276 23.0224 19.269 22.9925C24.4828 20.4897 29.5586 20.0862 29.6828 20.0787C29.7103 20.0787 29.7448 20.0713 29.7724 20.0563C29.8276 20.0339 29.8759 20.004 29.9103 19.9592C29.9448 19.9144 29.9724 19.8621 29.9931 19.8023C29.9931 19.8023 30.0069 19.7276 30.0069 19.6902C30.0069 19.6529 30 19.6155 29.9862 19.5782L29.9793 19.5931ZM12.9862 15.4989C12.8069 15.5661 12.6138 15.6034 12.4138 15.6034C11.4621 15.6034 10.6897 14.7667 10.6897 13.7356C10.6897 13.1454 10.9379 12.6224 11.331 12.2787C11.3862 12.2339 11.4276 12.1667 11.4483 12.092C11.6552 11.3149 12.3172 10.7471 13.1034 10.7471C13.8897 10.7471 14.5517 11.3149 14.7586 12.092C14.7793 12.1667 14.8207 12.2339 14.8759 12.2787C15.269 12.6224 15.5172 13.1454 15.5172 13.7356C15.5172 14.7667 14.7448 15.6034 13.7931 15.6034C13.5931 15.6034 13.4 15.5661 13.2207 15.4989C13.1448 15.469 13.0621 15.469 12.9931 15.4989H12.9862ZM19.8828 15.4989C19.7034 15.5661 19.5103 15.6034 19.3103 15.6034C18.3586 15.6034 17.5862 14.7667 17.5862 13.7356C17.5862 13.1454 17.8345 12.6224 18.2276 12.2787C18.2828 12.2339 18.3241 12.1667 18.3448 12.092C18.5517 11.3149 19.2138 10.7471 20 10.7471C20.7862 10.7471 21.4483 11.3149 21.6552 12.092C21.6759 12.1667 21.7172 12.2339 21.7724 12.2787C22.1655 12.6224 22.4138 13.1454 22.4138 13.7356C22.4138 14.7667 21.6414 15.6034 20.6897 15.6034C20.4897 15.6034 20.2965 15.5661 20.1172 15.4989C20.0414 15.469 19.9586 15.469 19.8897 15.4989H19.8828Z" stroke="url(#paint6_linear_2039_9677)" stroke-width="0.4" stroke-linejoin="round" mask="url(#path-4-outside-1_2039_9677)"/>
<defs>
<linearGradient id="paint0_linear_2039_9677" x1="28.6877" y1="9.0148" x2="9.9718" y2="33.1372" gradientUnits="userSpaceOnUse">
<stop stop-color="#F39200"/>
<stop offset="0.33" stop-color="#EA5B0B"/>
<stop offset="0.635" stop-color="#D60B51"/>
<stop offset="1" stop-color="#A11881"/>
</linearGradient>
<linearGradient id="paint1_linear_2039_9677" x1="25.5137" y1="23.6009" x2="22.3274" y2="30.8662" gradientUnits="userSpaceOnUse">
<stop stop-color="#F39200"/>
<stop offset="0.33" stop-color="#EA5B0B"/>
<stop offset="0.635" stop-color="#D60B51"/>
<stop offset="1" stop-color="#A11881"/>
</linearGradient>
<linearGradient id="paint2_linear_2039_9677" x1="25.5137" y1="23.6009" x2="22.3274" y2="30.8662" gradientUnits="userSpaceOnUse">
<stop stop-color="#F39200"/>
<stop offset="0.33" stop-color="#EA5B0B"/>
<stop offset="0.635" stop-color="#D60B51"/>
<stop offset="1" stop-color="#A11881"/>
</linearGradient>
<linearGradient id="paint3_linear_2039_9677" x1="27.0747" y1="26.4362" x2="25.314" y2="30.8624" gradientUnits="userSpaceOnUse">
<stop stop-color="#F39200"/>
<stop offset="0.33" stop-color="#EA5B0B"/>
<stop offset="0.635" stop-color="#D60B51"/>
<stop offset="1" stop-color="#A11881"/>
</linearGradient>
<linearGradient id="paint4_linear_2039_9677" x1="27.0747" y1="26.4362" x2="25.314" y2="30.8624" gradientUnits="userSpaceOnUse">
<stop stop-color="#F39200"/>
<stop offset="0.33" stop-color="#EA5B0B"/>
<stop offset="0.635" stop-color="#D60B51"/>
<stop offset="1" stop-color="#A11881"/>
</linearGradient>
<linearGradient id="paint5_linear_2039_9677" x1="24.3488" y1="14.6288" x2="14.6792" y2="26.769" gradientUnits="userSpaceOnUse">
<stop stop-color="#F39200"/>
<stop offset="0.33" stop-color="#EA5B0B"/>
<stop offset="0.635" stop-color="#D60B51"/>
<stop offset="1" stop-color="#A11881"/>
</linearGradient>
<linearGradient id="paint6_linear_2039_9677" x1="24.3488" y1="14.6288" x2="14.6792" y2="26.769" gradientUnits="userSpaceOnUse">
<stop stop-color="#F39200"/>
<stop offset="0.33" stop-color="#EA5B0B"/>
<stop offset="0.635" stop-color="#D60B51"/>
<stop offset="1" stop-color="#A11881"/>
</linearGradient>
</defs>
</svg>
