<svg width="10" height="10" viewBox="0 0 10 10" fill="none" xmlns="http://www.w3.org/2000/svg">
<path d="M9.64022 1.11069V7.47465C9.64022 7.67391 9.56107 7.865 9.42017 8.0059C9.27928 8.1468 9.08818 8.22595 8.88892 8.22595C8.68967 8.22595 8.49857 8.1468 8.35767 8.0059C8.21678 7.865 8.13762 7.67391 8.13762 7.47465L8.13851 2.92265L1.64196 9.41919C1.50131 9.55984 1.31054 9.63886 1.11163 9.63886C0.912719 9.63886 0.721954 9.55984 0.581302 9.41919C0.44065 9.27854 0.361632 9.08777 0.361632 8.88886C0.361632 8.68995 0.44065 8.49918 0.581302 8.35853L7.07785 1.86199L2.5254 1.86066C2.32615 1.86066 2.13505 1.78151 1.99415 1.64061C1.85326 1.49972 1.7741 1.30862 1.7741 1.10936C1.7741 0.910105 1.85326 0.719009 1.99415 0.578112C2.13505 0.437216 2.32615 0.358061 2.5254 0.358061H8.88936C8.98815 0.357948 9.08598 0.37735 9.17725 0.415154C9.26851 0.452959 9.35141 0.508421 9.42118 0.578354C9.49095 0.648288 9.54622 0.731316 9.58381 0.82267C9.6214 0.914024 9.64057 1.0119 9.64022 1.11069Z" fill="url(#paint0_linear_1982_258)"/>
<defs>
<linearGradient id="paint0_linear_1982_258" x1="4.88122" y1="1.03865" x2="6.63451" y2="9.35651" gradientUnits="userSpaceOnUse">
<stop stop-color="#F39200"/>
<stop offset="0.33" stop-color="#EA5B0B"/>
<stop offset="0.635" stop-color="#D60B51"/>
<stop offset="1" stop-color="#A11881"/>
</linearGradient>
</defs>
</svg>
