<svg width="48" height="49" viewBox="0 0 48 49" fill="none" xmlns="http://www.w3.org/2000/svg">
<path id="Vector" d="M37.788 48.9615C37.4803 48.9615 37.1725 48.8726 36.9003 48.6949L25.7646 41.4117C25.2418 41.0748 24.6322 40.8929 24.0089 40.8929C23.3855 40.8929 22.772 41.0748 22.2197 41.42L11.0977 48.6949C10.5178 49.0731 9.778 49.0462 9.22565 48.6267C8.6733 48.2071 8.41883 47.4776 8.58256 46.7831L11.7467 33.4155C12.0624 32.132 11.6382 30.7597 10.6696 29.9041L0.597168 21.0295C0.074409 20.5686 -0.128777 19.8225 0.0822996 19.1405C0.293376 18.4585 0.87926 17.9811 1.55983 17.9315L14.6722 16.9725C15.9406 16.8857 17.0552 16.0425 17.5207 14.8231L22.4564 2.05892C22.7128 1.3955 23.3283 0.961487 24.0109 0.961487C24.6934 0.961487 25.3089 1.39757 25.5653 2.06099L30.4773 14.819C30.9566 16.0363 32.0732 16.8857 33.3199 16.9725L46.4402 17.9315C47.1227 17.9811 47.7066 18.4585 47.9177 19.1405C48.1288 19.8225 47.9256 20.5686 47.4028 21.0295L37.3284 29.9041C36.3716 30.7494 35.9495 32.1279 36.2533 33.4155L39.4174 46.7811C39.5812 47.4755 39.3267 48.2051 38.7744 48.6246C38.4824 48.8478 38.1352 48.9594 37.79 48.9594L37.788 48.9615ZM5.92536 21.1329L12.8278 27.2132C14.7787 28.9348 15.629 31.7063 14.9957 34.2752L12.8317 43.4164L20.4561 38.4294C20.4561 38.4294 20.4738 38.4191 20.4817 38.4129C21.5588 37.735 22.7799 37.3774 24.0089 37.3774C25.2379 37.3774 26.4708 37.7391 27.5321 38.4232L35.1644 43.4164L32.9964 34.2587C32.3888 31.6815 33.241 28.9162 35.1663 27.2153L42.0707 21.1329L33.0911 20.4756C30.5838 20.302 28.3369 18.6011 27.3703 16.1437L24.0049 7.40558L20.6297 16.1355C19.6907 18.597 17.4379 20.3041 14.8971 20.4777L5.92536 21.1349V21.1329Z" fill="url(#paint0_linear_2255_2996)"/>
<defs>
<linearGradient id="paint0_linear_2255_2996" x1="34.4252" y1="11.7792" x2="11.9662" y2="40.7261" gradientUnits="userSpaceOnUse">
<stop stop-color="#F39200"/>
<stop offset="0.33" stop-color="#EA5B0B"/>
<stop offset="0.635" stop-color="#D60B51"/>
<stop offset="1" stop-color="#A11881"/>
</linearGradient>
</defs>
</svg>
