<svg width="14" height="14" viewBox="0 0 14 14" fill="none" xmlns="http://www.w3.org/2000/svg">
<path d="M2 1H1V2V12V13H2H12H13V12V2V1H12H2ZM10 10H4V4H10V10Z" fill="url(#paint0_linear_1982_266)" stroke="url(#paint1_linear_1982_266)" stroke-width="2"/>
<rect x="2" y="1" width="11" height="11" fill="url(#paint2_linear_1982_266)"/>
<rect x="2" y="1" width="11" height="11" stroke="url(#paint3_linear_1982_266)" stroke-width="2"/>
<path fill-rule="evenodd" clip-rule="evenodd" d="M11.1179 3.86941L6.35356 9.49441L5.90879 9.47428L4.02441 6.79115L4.48473 6.46787L6.15976 8.85291L10.6887 3.50586L11.1179 3.86941Z" fill="white" stroke="white" stroke-linejoin="round"/>
<defs>
<linearGradient id="paint0_linear_1982_266" x1="9.17192" y1="4.2537" x2="4.49295" y2="10.2843" gradientUnits="userSpaceOnUse">
<stop stop-color="#F39200"/>
<stop offset="0.33" stop-color="#EA5B0B"/>
<stop offset="0.635" stop-color="#D60B51"/>
<stop offset="1" stop-color="#A11881"/>
</linearGradient>
<linearGradient id="paint1_linear_1982_266" x1="9.17192" y1="4.2537" x2="4.49295" y2="10.2843" gradientUnits="userSpaceOnUse">
<stop stop-color="#F39200"/>
<stop offset="0.33" stop-color="#EA5B0B"/>
<stop offset="0.635" stop-color="#D60B51"/>
<stop offset="1" stop-color="#A11881"/>
</linearGradient>
<linearGradient id="paint2_linear_1982_266" x1="9.45472" y1="4.02833" x2="5.24366" y2="9.45587" gradientUnits="userSpaceOnUse">
<stop stop-color="#F39200"/>
<stop offset="0.33" stop-color="#EA5B0B"/>
<stop offset="0.635" stop-color="#D60B51"/>
<stop offset="1" stop-color="#A11881"/>
</linearGradient>
<linearGradient id="paint3_linear_1982_266" x1="9.45472" y1="4.02833" x2="5.24366" y2="9.45587" gradientUnits="userSpaceOnUse">
<stop stop-color="#F39200"/>
<stop offset="0.33" stop-color="#EA5B0B"/>
<stop offset="0.635" stop-color="#D60B51"/>
<stop offset="1" stop-color="#A11881"/>
</linearGradient>
</defs>
</svg>
