<svg width="60" height="55" viewBox="0 0 60 55" fill="none" xmlns="http://www.w3.org/2000/svg">
<g id="Mode_Isolation" clip-path="url(#clip0_2260_4999)">
<path id="Vector" d="M2.19589 55.0001H9.29736C10.515 55.0001 11.4933 54.0221 11.4933 52.8205V45.7717C11.4933 44.5632 10.5079 43.5921 9.29736 43.5921H2.19589C0.978299 43.5921 0 44.5702 0 45.7717V52.8205C0 54.0291 0.985337 55.0001 2.19589 55.0001ZM2.9349 46.4983H8.57243V52.094H2.9349V46.4983ZM18.3625 35.0693C17.1449 35.0693 16.1666 36.0474 16.1666 37.2489V52.8135C16.1666 54.0221 17.1519 54.9931 18.3625 54.9931H25.4639C26.6815 54.9931 27.6598 54.0151 27.6598 52.8135V37.2489C27.6598 36.0404 26.6745 35.0693 25.4639 35.0693H18.3625ZM24.732 52.094H19.0944V37.9894H24.732V52.094ZM34.529 24.9328C33.3114 24.9328 32.3331 25.9108 32.3331 27.1124V52.8135C32.3331 54.0221 33.3185 54.9931 34.529 54.9931H41.6305C42.8481 54.9931 43.8264 54.0151 43.8264 52.8135V27.1124C43.8264 25.9108 42.8411 24.9328 41.6305 24.9328H34.529ZM40.8985 52.094H35.261V27.8459H40.8985V52.094ZM57.8041 9.63367H50.7026C49.485 9.63367 48.5067 10.6117 48.5067 11.8133V52.8205C48.5067 54.0291 49.4921 55.0001 50.7026 55.0001H57.8041C59.0217 55.0001 60 54.0221 60 52.8205V11.8133C60 10.6117 59.0147 9.63367 57.8041 9.63367ZM57.0651 52.094H51.4276V12.5398H57.0651V52.087V52.094ZM5.55308 27.6433C5.7783 27.6084 28.1243 24.2761 40.8563 3.8703L38.59 4.59683C37.8158 4.84134 36.9924 4.4152 36.746 3.64675C36.4997 2.8783 36.929 2.06095 37.7032 1.81644L43.2774 0.0699692C44.0516 -0.174537 44.8751 0.251603 45.1214 1.02005L46.8669 6.5459C46.9865 6.91615 46.9513 7.31435 46.7683 7.65666C46.5924 7.99897 46.2757 8.25745 45.9097 8.36922C45.7689 8.41113 45.6211 8.43209 45.4733 8.43209C44.8328 8.43209 44.2698 8.01992 44.0727 7.41215L43.4041 5.30241C29.9472 26.9936 6.92551 30.4097 5.95425 30.5215H5.75015C4.94076 30.5774 4.23695 29.9696 4.18064 29.1662C4.12434 28.3629 4.73666 27.6713 5.55308 27.6154V27.6433Z" fill="white"/>
</g>
<defs>
<clipPath id="clip0_2260_4999">
<rect width="60" height="55" fill="white"/>
</clipPath>
</defs>
</svg>
