<svg width="64" height="64" viewBox="0 0 64 64" fill="none" xmlns="http://www.w3.org/2000/svg">
<g id="Calque_1" clip-path="url(#clip0_2270_4978)">
<path id="Vector" d="M6.85714 30.8555C9.38286 30.8555 11.4286 28.7983 11.4286 26.284C11.4286 25.7583 11.3257 25.2555 11.1543 24.7869L20.9714 18.2498C21.7829 18.9698 22.8343 19.4269 24 19.4269C25.04 19.4269 25.9886 19.0612 26.7657 18.4783L35.8171 25.5983C35.5657 26.1583 35.4286 26.7755 35.4286 27.4269C35.4286 29.9526 37.4743 31.9983 40 31.9983C42.5257 31.9983 44.5714 29.9412 44.5714 27.4269C44.5714 26.3526 44.1829 25.3698 43.5543 24.5926L55.3943 8.79834C55.9314 9.01548 56.5143 9.15262 57.1314 9.15262C59.6571 9.15262 61.7029 7.09548 61.7029 4.58119C61.7029 2.05548 59.6571 0.00976562 57.1314 0.00976562C54.6057 0.00976562 52.56 2.06691 52.56 4.58119C52.56 5.65548 52.9486 6.63834 53.5771 7.41548L41.7257 23.2098C41.1886 22.9926 40.6057 22.8555 39.9886 22.8555C38.9486 22.8555 38 23.2212 37.2229 23.8041L28.1714 16.684C28.4229 16.1241 28.56 15.5069 28.56 14.8555C28.56 12.3298 26.5029 10.2841 23.9886 10.2841C21.4743 10.2841 19.4171 12.3412 19.4171 14.8555C19.4171 15.3812 19.52 15.8841 19.6914 16.3526L9.87429 22.8898C9.06286 22.1698 8.01143 21.7126 6.84571 21.7126C4.32 21.7126 2.27429 23.7583 2.27429 26.284C2.27429 28.8098 4.33143 30.8555 6.84571 30.8555H6.85714ZM57.1429 2.28405C58.4 2.28405 59.4286 3.31262 59.4286 4.56977C59.4286 5.82691 58.4 6.85548 57.1429 6.85548C55.8857 6.85548 54.8571 5.82691 54.8571 4.56977C54.8571 3.31262 55.8857 2.28405 57.1429 2.28405ZM42.2857 27.4269C42.2857 28.684 41.2571 29.7126 40 29.7126C38.7429 29.7126 37.7143 28.684 37.7143 27.4269C37.7143 26.1698 38.7429 25.1412 40 25.1412C41.2571 25.1412 42.2857 26.1698 42.2857 27.4269ZM24 12.5698C25.2571 12.5698 26.2857 13.5983 26.2857 14.8555C26.2857 16.1126 25.2571 17.1412 24 17.1412C22.7429 17.1412 21.7143 16.1126 21.7143 14.8555C21.7143 13.5983 22.7429 12.5698 24 12.5698ZM6.85714 23.9983C8.11429 23.9983 9.14286 25.0269 9.14286 26.284C9.14286 27.5412 8.11429 28.5698 6.85714 28.5698C5.6 28.5698 4.57143 27.5412 4.57143 26.284C4.57143 25.0269 5.6 23.9983 6.85714 23.9983ZM11.2 41.724H3.42857C1.54286 41.724 0 43.2669 0 45.1526V60.5698C0 62.4555 1.54286 63.9983 3.42857 63.9983H11.2C13.0857 63.9983 14.6286 62.4555 14.6286 60.5698V45.1526C14.6286 43.2669 13.0857 41.724 11.2 41.724ZM12.3429 60.5698C12.3429 61.1983 11.8286 61.7126 11.2 61.7126H3.42857C2.8 61.7126 2.28571 61.1983 2.28571 60.5698V45.1526C2.28571 44.524 2.8 44.0098 3.42857 44.0098H11.2C11.8286 44.0098 12.3429 44.524 12.3429 45.1526V60.5698ZM27.6571 32.844H19.8857C18 32.844 16.4571 34.3869 16.4571 36.2726V60.5698C16.4571 62.4555 18 63.9983 19.8857 63.9983H27.6571C29.5429 63.9983 31.0857 62.4555 31.0857 60.5698V36.2726C31.0857 34.3869 29.5543 32.844 27.6571 32.844ZM28.8 60.5698C28.8 61.1983 28.2857 61.7126 27.6571 61.7126H19.8857C19.2571 61.7126 18.7429 61.1983 18.7429 60.5698V36.2726C18.7429 35.644 19.2571 35.1298 19.8857 35.1298H27.6571C28.2857 35.1298 28.8 35.644 28.8 36.2726V60.5698ZM44.1143 42.8441H36.3429C34.4571 42.8441 32.9143 44.3869 32.9143 46.2726V60.5698C32.9143 62.4555 34.4571 63.9983 36.3429 63.9983H44.1143C46 63.9983 47.5429 62.4555 47.5429 60.5698V46.2726C47.5429 44.3869 46 42.8441 44.1143 42.8441ZM45.2571 60.5698C45.2571 61.1983 44.7429 61.7126 44.1143 61.7126H36.3429C35.7143 61.7126 35.2 61.1983 35.2 60.5698V46.2726C35.2 45.6441 35.7143 45.1298 36.3429 45.1298H44.1143C44.7429 45.1298 45.2571 45.6441 45.2571 46.2726V60.5698ZM60.5714 22.8555H52.8C50.9143 22.8555 49.3714 24.3983 49.3714 26.284V60.5698C49.3714 62.4555 50.9143 63.9983 52.8 63.9983H60.5714C62.4571 63.9983 64 62.4555 64 60.5698V26.284C64 24.3983 62.4571 22.8555 60.5714 22.8555ZM61.7143 60.5698C61.7143 61.1983 61.2 61.7126 60.5714 61.7126H52.8C52.1714 61.7126 51.6571 61.1983 51.6571 60.5698V26.284C51.6571 25.6555 52.1714 25.1412 52.8 25.1412H60.5714C61.2 25.1412 61.7143 25.6555 61.7143 26.284V60.5698Z" fill="white"/>
</g>
<defs>
<clipPath id="clip0_2270_4978">
<rect width="64" height="64" fill="white"/>
</clipPath>
</defs>
</svg>
