<?xml version="1.0" encoding="UTF-8"?>
<svg id="Calque_1" xmlns="http://www.w3.org/2000/svg" version="1.1" xmlns:xlink="http://www.w3.org/1999/xlink" viewBox="0 0 157.9 152.8">
  <!-- Generator: Adobe Illustrator 29.0.1, SVG Export Plug-In . SVG Version: 2.1.0 Build 192)  -->
  <defs>
    <style>
      .st0 {
        stroke: #f3b634;
        stroke-width: 3px;
      }

      .st0, .st1 {
        fill: none;
      }

      .st2 {
        fill: #f3b634;
      }

      .st3 {
        clip-path: url(#clippath);
      }
    </style>
    <clipPath id="clippath">
      <rect class="st1" x="27.7" y="29" width="100" height="99"/>
    </clipPath>
  </defs>
  <circle class="st0" cx="77.7" cy="77" r="75.5"/>
  <g class="st3">
    <g>
      <path class="st2" d="M109.2,103l4-2.8c.1,0,.3-.1.4,0,.1,0,.3.2.3.3.2.6.8,1,1.5,1s.3,0,.4,0l10.7-2.8c.9-.2,1.4-1.1,1.1-1.9-.1-.4-.4-.8-.8-1-.4-.2-.8-.3-1.2-.1l-8.7,2.3c-.3,0-.5,0-.6-.4l-7.9-30c0-.1,0-.3,0-.4,0-.1.2-.2.3-.2l8.7-2.3c.9-.2,1.4-1.1,1.1-1.9-.2-.8-1.1-1.4-2-1.1l-10.7,2.8c-.4.1-.8.4-1,.7-.2.4-.3.8-.2,1.2l.3,1.2c0,.1,0,.3,0,.4,0,.1-.2.2-.4.2l-6.4.2c-1.5,0-3.1-.1-4.8-.5-4.4-1.1-8.5-2-12.2-2.5-.2,0-.4-.2-.4-.4,0-.2,0-.4.3-.5,10.2-4.5,15.3-14.6,15-30.1,0-.6-.4-1.2-.9-1.4-11.6-5.1-23.4-5.1-35,0-.6.3-.9.8-.9,1.4-.3,14.8,4.3,24.7,13.6,29.5.2.1.3.3.3.5,0,.2-.2.4-.5.4-1.6,0-3.3.4-4.9,1,0,0,0,0,0,0,0,0-.2,0-.2,0l-6.9,2.1c-2.2.7-4.5.9-6.9.8l-2.9-.2c-.1,0-.3,0-.4-.2,0-.1-.1-.3,0-.4l.4-1.5c.1-.4,0-.8-.2-1.2-.2-.4-.6-.6-1-.8l-10.7-2.8c-.4-.1-.8,0-1.2.1-.4.2-.6.6-.8,1-.1.4,0,.8.2,1.2.2.4.6.6,1,.7l8.7,2.3c.1,0,.2.1.3.2,0,.1,0,.2,0,.4l-8.1,29.9c0,.3-.3.4-.6.4l-8.7-2.3c-.4-.1-.8,0-1.2.2-.4.2-.6.6-.7,1-.2.9.3,1.7,1.1,2,0,0,0,0,0,0l10.7,2.8c.1,0,.3,0,.4,0,.3,0,.6,0,.8-.2.3-.2.5-.5.7-.8,0-.1.1-.2.3-.3.1,0,.3,0,.4,0h.4c1.4.7,2.5,1.4,3.4,2,.2.1.3.4.2.6-1.1,2.3-.5,5.1,1.3,6.7.7.6,1.5,1,2.4,1.3.3,0,.4.3.4.6-.2.6-.2,1.2-.2,1.7,0,1.5.8,3,1.9,4,1.1,1,2.4,1.5,3.9,1.5h.3c.3,0,.6,0,.9-.1.3,0,.5.1.6.3.3,1,.9,1.9,1.7,2.7,1.1,1,2.4,1.5,3.9,1.5h.3s0,0,.2,0c.2,0,.4.2.5.4.2,1.2.8,2.3,1.7,3.1l.3.3c1,.9,2.3,1.4,3.7,1.4h.3c1.5,0,2.8-.7,3.9-1.8l.8-.8c.1-.2.3-.3.4-.5h0c0-.2.2-.3.4-.3.1,0,.3,0,.4.1l1.9,1.8c1,.9,2.3,1.4,3.6,1.4s2.7-.5,3.7-1.5c.7-.6,1.1-1.4,1.4-2.3,0-.2.3-.4.6-.4,1.8.3,3.6-.3,5-1.6.9-.8,1.5-1.9,1.7-3.1,0-.3.3-.4.6-.4.3,0,.7,0,1.1,0,1.7,0,3.3-.7,4.5-2,.9-1,1.5-2.1,1.7-3.4,0-.1,0-.3.2-.3.1,0,.2-.1.4,0,.5,0,1,.1,1.6,0,1.7-.1,3.3-.9,4.4-2.2,1.1-1.3,1.6-3,1.5-4.7,0-.9-.3-1.7-.7-2.4-.1-.2,0-.5.1-.6h0ZM62.4,35.6c0-.2.1-.4.3-.5,10-4.1,19.8-4.1,29.8,0,.2,0,.3.3.3.5,0,14.5-4.9,23.2-15.1,26.6,0,0-.1,0-.2,0s-.1,0-.2,0c-10.1-3.4-15.1-12.1-15.1-26.6ZM51.3,107.7c-.6,0-1.2-.2-1.7-.7-1.1-.9-1.1-2.6-.2-3.6l.4-.4s0,0,0,0l1-1.1c.5-.5,1.2-.9,1.9-.9s1.3.2,1.8.7c.5.5.8,1.1.9,1.8,0,.7-.2,1.3-.6,1.8l-1.4,1.6c-.5.6-1.3.9-2,.9h0ZM58.8,113.1s0,0,0,0h0s-1.1,1.2-1.1,1.2c-.5.5-1.1.8-1.8.9,0,0-.1,0-.2,0-.6,0-1.2-.2-1.7-.6-.5-.5-.8-1.1-.9-1.8,0-.7.2-1.3.6-1.8l4.1-4.6c.5-.5,1.1-.8,1.8-.9h.1c.7,0,1.3.2,1.7.7.5.5.8,1.1.9,1.8,0,.7-.2,1.3-.6,1.8,0,0,0,0,0,0l-.6.6s0,0-.1.1l-2.3,2.5h0ZM65.1,118.7c-.5.5-1.1.8-1.8.9h0c-.6,0-1.3-.2-1.8-.6-.5-.5-.8-1.1-.9-1.8,0-.7.2-1.3.6-1.8l2.4-2.6c.5-.5,1.1-.8,1.8-.9h.1c.7,0,1.3.2,1.7.7.5.4.8,1.1.9,1.7,0,.7-.2,1.4-.7,1.9l-2.3,2.6h0ZM72.4,123.2l-.8.8c-.4.5-1,.7-1.6.8h-.1c-.6,0-1.2-.2-1.6-.6l-.3-.3c-.5-.4-.7-1-.8-1.6,0-.6.2-1.3.6-1.7l.8-.8c.4-.5,1-.7,1.6-.8h.1c.6,0,1.1.2,1.6.6,0,0,0,0,0,0l.3.3c1,.9,1,2.4.2,3.3h0ZM105.8,108.6c-.6.6-1.3,1-2.2,1.1-.9,0-1.7-.2-2.3-.7l-1.8-1.5s0,0,0,0h0s-11.1-9.5-11.1-9.5c-.7-.6-1.7-.5-2.3.2-.6.7-.5,1.7.2,2.2l11.1,9.5c.7.6,1,1.4,1.1,2.2,0,.9-.3,1.7-.9,2.3-.6.6-1.4,1-2.2,1h0c-.9,0-1.7-.3-2.3-.9l-9.7-9.4c-.3-.3-.7-.5-1.1-.5-.4,0-.8.2-1.1.5-.3.3-.5.7-.5,1.1,0,.4.2.8.5,1.1l8.8,8.5c.5.5.8,1.2.8,1.9s-.3,1.4-.8,1.9c-1,1-2.7,1-3.8,0l-1-.9-7.4-7.2c-.3-.3-.7-.5-1.2-.5-.4,0-.8.2-1.1.5-.6.6-.6,1.6,0,2.2l7.5,7.2c.4.4.6.9.6,1.5s-.2,1.1-.6,1.5c-.4.4-.9.6-1.5.6s-1-.2-1.4-.6l-3.9-3.6c0,0-.1-.1-.1-.2-.3-1.1-.9-2-1.7-2.8l-.3-.3c-.7-.6-1.5-1-2.5-1.2-.3,0-.4-.3-.4-.6.3-2-.4-3.9-1.8-5.3-.9-.8-2-1.3-3.3-1.4-.3,0-.4-.2-.4-.5s0-.2,0-.2c0,0,0-.1,0-.2,0-1.5-.8-2.9-1.9-4-1.3-1.2-3.1-1.7-4.9-1.4-.3,0-.5-.1-.6-.4-.3-1.1-.9-2.1-1.7-2.8-2.3-2.1-5.9-1.9-8,.3-.2.2-.4.2-.6,0-1.6-1.1-2.9-1.8-4.3-2.3l-.8-.3c-.2,0-.4-.3-.3-.6l6.6-24.5c0-.2.3-.4.5-.4l4,.2c.4,0,.8,0,1.2,0,1.2,0,2.4-.1,3.8-.3.2,0,.4,0,.5.2.1.2,0,.4,0,.6-2.1,2.5-3.8,5.3-5.1,8.4-.9,2.1-.4,4.6,1.3,6.1,2.5,2.3,6.3,2.6,9.1.7l7.7-5.2c2.1-1.4,4.9-1.3,6.8.3l26.5,21.6c.7.6,1.1,1.3,1.1,2.1,0,.9-.2,1.7-.8,2.3h0ZM106.8,100.7c0,0-.2,0-.3,0s-.2,0-.3-.1l-25.2-20.5c-3-2.4-7.4-2.6-10.6-.5l-7.7,5.2c-1.6,1.1-3.7.9-5.2-.4-.7-.7-.9-1.7-.5-2.6,2-4.9,5.2-9,9.4-12,0,0,0,0,0,0,1.9-1.4,4.4-2.1,6.9-2.1,5.4,0,11.7,1.1,19.4,3.1,2,.5,3.9.7,5.7.6l7.3-.3c.2,0,.4.1.5.4l6.5,24.6c0,.2,0,.4-.2.5l-5.7,4h0Z"/>
      <path class="st2" d="M72.2,45.3c-.4,0-.8.2-1.1.5-.6.6-.6,1.6,0,2.2l3.8,3.8c.3.3.7.5,1.1.5s.8-.2,1.2-.5l10.6-10.6c.3-.3.5-.7.5-1.1,0-.4-.2-.8-.5-1.1-.6-.6-1.6-.6-2.3,0l-9.2,9.1c-.2.2-.5.2-.7,0l-2.3-2.3c-.3-.3-.7-.5-1.1-.5h0Z"/>
    </g>
  </g>
  <path d="M0,196.2h-2.7c.1-.7.1-1.4.1-2.3v-9.9h-.9c-.7,0-1.2,0-1.9.1v-2.3c.6,0,1,.1,1.8.1h1.7c.9,0,1.2,0,1.8,0-.1,1.1-.1,1.9-.1,3v9.1c0,1,0,1.6.1,2.3ZM11.1,196.5c-1.5,0-2.8-.5-3.8-1.5-.5-.5-1-1.2-1.2-1.8-.5-1.3-.7-2.7-.7-4.1s.4-3.9,1.1-5c1-1.6,2.6-2.5,4.6-2.5s2.8.5,3.8,1.5c.5.5,1,1.2,1.2,1.8.5,1.3.7,2.7.7,4.2,0,2.2-.5,4.2-1.3,5.3-1,1.4-2.5,2.1-4.4,2.1ZM11.2,194.4c.8,0,1.5-.3,1.9-.8.8-.8,1.3-2.5,1.3-4.6s-.5-3.7-1.3-4.6c-.4-.5-1.2-.8-2-.8s-1.5.3-2,.9c-.8.9-1.2,2.4-1.2,4.4s.3,3.5.9,4.3c.6.8,1.3,1.2,2.3,1.2ZM24,196.5c-1.5,0-2.8-.5-3.8-1.5-.5-.5-1-1.2-1.2-1.8-.5-1.3-.7-2.7-.7-4.1s.4-3.9,1.1-5c1-1.6,2.6-2.5,4.6-2.5s2.8.5,3.8,1.5c.5.5,1,1.2,1.2,1.8.5,1.3.7,2.7.7,4.2,0,2.2-.5,4.2-1.3,5.3-1,1.4-2.5,2.1-4.4,2.1ZM24,194.4c.8,0,1.5-.3,1.9-.8.8-.8,1.3-2.5,1.3-4.6s-.5-3.7-1.3-4.6c-.4-.5-1.2-.8-2-.8s-1.5.3-2,.9c-.8.9-1.2,2.4-1.2,4.4s.3,3.5.9,4.3c.6.8,1.3,1.2,2.3,1.2ZM38.7,183.1h2.6c0,.6-.1,1.4-.1,2.2v.6h.8c.8,0,1.2,0,1.8-.1v2.1c-.6,0-.9-.1-1.8-.1h-.8v5.6c0,.9.3,1.2,1.2,1.2s.8,0,1.3-.4l.3,1.9c-.8.3-1.3.4-2.2.4-2.1,0-2.9-.7-2.9-2.6v-6h-.7c-.7,0-1,0-1.6.1v-2.1c.5,0,.9.1,1.6.1h.7v-.6c0-.8,0-1.6-.1-2.2ZM52.8,185.9l-.6,2.3c-.8-.2-1.1-.3-1.6-.3-.9,0-1.6.3-2.1.9-.5.5-.6.9-.7,1.8v3.3c0,1,0,1.5.1,2.3h-2.6c0-.9.1-1.4.1-2.3v-5.7c0-1.1,0-1.6-.1-2.3h2.4v1.7c.6-1.3,1.8-1.9,3.4-1.9s.9,0,1.7.2ZM61,196.2v-1.2c-.7.7-1.2.9-1.9,1.1-.5.1-1.1.2-1.7.2-2.2,0-3.5-1.1-3.5-3s.8-2.4,2-2.9c1.2-.5,2.5-.7,5.1-.7v-.9c0-1-.7-1.6-2.1-1.6s-1.5.2-1.9.5c-.3.3-.5.5-.7,1.2l-2.3-.4c.4-1,.7-1.5,1.4-2,.9-.6,1.9-.9,3.4-.9s2.8.3,3.5,1.1c.6.6.8,1.3.8,2.5v4.8c0,1,0,1.4.1,2.2h-2.4ZM61,192.2v-.9c-3.4,0-4.8.7-4.8,2.1s.6,1.4,1.6,1.4,1.9-.4,2.5-1c.4-.4.6-1,.6-1.6ZM68.2,196.2h-2.6c.1-.8.1-1.3.1-2.3v-5.7c0-1,0-1.6-.1-2.3h2.4v1c0,.3,0,.3,0,.8,1.1-1.4,2.1-1.9,3.7-1.9s2.4.5,3.1,1.3c.4.6.6,1.3.6,2.5v4.3c0,1,0,1.7.1,2.3h-2.6c0-.8.1-1.4.1-2.3v-4c0-.8,0-1.2-.3-1.6-.3-.5-.8-.7-1.5-.7-1.3,0-2.4.9-3.1,2.7v3.6c0,.9,0,1.6.1,2.3ZM77.2,193.3l2.5-.3c.3,1.2,1,1.7,2.4,1.7s2.2-.5,2.2-1.4-.2-.7-.5-.9c-.3-.2-.4-.3-1.9-.6-1.4-.3-2-.5-2.6-.8-1-.5-1.6-1.3-1.6-2.4s.2-1.2.6-1.7c.7-.9,2-1.4,3.6-1.4s2.6.4,3.4,1c.5.4.7.9,1,1.8l-2.4.3c-.2-1-.8-1.4-2-1.4s-1.9.5-1.9,1.3.2.6.6.8c.4.2.8.3,1.8.5,1.8.4,2.6.6,3.2,1.1.7.5,1,1.2,1,2.2s-.3,1.5-.9,2c-.8.8-2.1,1.2-3.7,1.2s-3.2-.6-4-1.6c-.3-.4-.5-.8-.7-1.6ZM95.2,196.2v-1.2c-.7.7-1.2.9-1.9,1.1-.5.1-1.1.2-1.7.2-2.2,0-3.5-1.1-3.5-3s.8-2.4,2-2.9c1.2-.5,2.5-.7,5.1-.7v-.9c0-1-.7-1.6-2.1-1.6s-1.5.2-1.9.5c-.3.3-.5.5-.7,1.2l-2.3-.4c.4-1,.7-1.5,1.4-2,.9-.6,1.9-.9,3.4-.9s2.8.3,3.5,1.1c.6.6.8,1.3.8,2.5v4.8c0,1,0,1.4.1,2.2h-2.4ZM95.2,192.2v-.9c-3.4,0-4.8.7-4.8,2.1s.6,1.4,1.6,1.4,1.9-.4,2.5-1c.4-.4.6-1,.6-1.6ZM109.1,188.8l-2.2.5c-.2-.6-.3-.8-.6-1.1-.4-.5-1.1-.8-1.9-.8-1.8,0-2.9,1.4-2.9,3.6s1.1,3.6,2.9,3.6,1.6-.4,2.1-1c.2-.3.3-.4.4-.9l2.2.5c-.3.7-.4,1.1-.8,1.5-.9,1.2-2.2,1.8-4,1.8-3.2,0-5.2-2.1-5.2-5.5s.5-3.1,1.5-4.2c.9-.9,2.1-1.4,3.6-1.4s3.2.7,4,1.9c.2.4.4.6.6,1.3ZM112.2,183.1h2.6c0,.6-.1,1.4-.1,2.2v.6h.8c.8,0,1.2,0,1.8-.1v2.1c-.6,0-.9-.1-1.8-.1h-.8v5.6c0,.9.3,1.2,1.2,1.2s.8,0,1.3-.4l.3,1.9c-.8.3-1.3.4-2.2.4-2.1,0-2.9-.7-2.9-2.6v-6h-.7c-.7,0-1,0-1.6.1v-2.1c.5,0,.9.1,1.6.1h.7v-.6c0-.8,0-1.6-.1-2.2ZM118.8,181.9h2.6v2.3h-2.6v-2.3ZM118.8,185.9h2.6c0,.7-.1,1.3-.1,2.4v5.6c0,1,0,1.6.1,2.4h-2.6c.1-.8.1-1.4.1-2.3v-5.7c0-1,0-1.6-.1-2.3ZM128.6,196.6c-3.3,0-5.4-2.1-5.4-5.5s2.1-5.5,5.4-5.5,5.3,2.1,5.3,5.5-2.1,5.5-5.3,5.5ZM128.6,187.4c-1.9,0-3,1.4-3,3.6s1.2,3.6,3,3.6,3-1.3,3-3.5-1.1-3.7-3-3.7ZM138.3,196.2h-2.6c.1-.8.1-1.3.1-2.3v-5.7c0-1,0-1.6-.1-2.3h2.4v1c0,.3,0,.3,0,.8,1.1-1.4,2.1-1.9,3.7-1.9s2.4.5,3.1,1.3c.4.6.6,1.3.6,2.5v4.3c0,1,0,1.7.1,2.3h-2.6c0-.8.1-1.4.1-2.3v-4c0-.8,0-1.2-.3-1.6-.3-.5-.8-.7-1.5-.7-1.3,0-2.4.9-3.1,2.7v3.6c0,.9,0,1.6.1,2.3ZM147.4,193.3l2.5-.3c.3,1.2,1,1.7,2.4,1.7s2.2-.5,2.2-1.4-.2-.7-.5-.9c-.3-.2-.4-.3-1.9-.6-1.4-.3-2-.5-2.6-.8-1-.5-1.6-1.3-1.6-2.4s.2-1.2.6-1.7c.7-.9,2-1.4,3.6-1.4s2.6.4,3.4,1c.5.4.7.9,1,1.8l-2.4.3c-.2-1-.8-1.4-2-1.4s-1.9.5-1.9,1.3.2.6.6.8c.4.2.8.3,1.8.5,1.8.4,2.6.6,3.2,1.1.7.5,1,1.2,1,2.2s-.3,1.5-.9,2c-.8.8-2.1,1.2-3.7,1.2s-3.2-.6-4-1.6c-.3-.4-.5-.8-.7-1.6ZM-4.9,218.6h-7.8c0,1,.3,1.5.7,2,.5.6,1.3,1,2.2,1s1.6-.3,2.2-.9c.2-.3.3-.5.5-.9l2.1.7c-.4.9-.6,1.2-1.1,1.7-.9.9-2.2,1.4-3.7,1.4-3.2,0-5.2-2.1-5.2-5.5s2-5.5,5.1-5.5,3.8,1,4.5,2.8c.3.9.5,1.5.5,2.7,0,0,0,0,0,.5ZM-12.7,216.9h5.4c-.1-.8-.3-1.3-.8-1.7-.5-.5-1.1-.7-1.9-.7-1.4,0-2.4.9-2.7,2.4ZM-.5,223.2h-2.6c.1-.8.1-1.3.1-2.3v-5.7c0-1,0-1.6-.1-2.3H-.7v1c0,.3,0,.3,0,.8,1.1-1.4,2.1-1.9,3.7-1.9s2.4.5,3.1,1.3c.4.6.6,1.3.6,2.5v4.3c0,1,0,1.7.1,2.3h-2.6c0-.8.1-1.4.1-2.3v-4c0-.8,0-1.2-.3-1.6-.3-.5-.8-.7-1.5-.7-1.3,0-2.4.9-3.2,2.7v3.6c0,.9,0,1.6.1,2.3ZM17.5,223.2h-2.5c0-.8.1-1.4.1-2.3v-5.7c0-1.1,0-1.7-.1-2.3h2.4v.9c0,.1,0,.4,0,.7.5-1.1,1.9-1.8,3.3-1.8s1.8.3,2.3.8c.3.3.5.5.7,1.1.6-.8,1-1.1,1.5-1.4.6-.3,1.2-.5,2-.5,1.2,0,2.1.4,2.7,1,.6.6.8,1.5.8,2.7v4.4c0,1,0,1.6.1,2.3h-2.6c.1-.7.1-1.3.1-2.3v-4c0-1.6-.6-2.3-1.8-2.3s-1,.2-1.5.5c-.6.5-.9,1.1-1.1,2.2v3.6c0,1,0,1.6.1,2.3h-2.6c.1-.8.1-1.3.1-2.3v-4c0-1.5-.6-2.3-1.7-2.3s-1.4.3-1.9.9c-.4.5-.6.9-.8,1.8v3.6c0,1,0,1.5.1,2.3ZM38.1,223.6c-3.3,0-5.4-2.1-5.4-5.5s2.1-5.5,5.4-5.5,5.3,2.1,5.3,5.5-2.1,5.5-5.3,5.5ZM38.1,214.4c-1.9,0-3,1.4-3,3.6s1.2,3.6,3,3.6,3-1.3,3-3.5-1.1-3.7-3-3.7ZM48.6,222.5l-3.4-7.4c-.8-1.8-.8-1.8-1-2.2h2.7c0,.5.4,1.4.7,2.1l2.2,5.1,2-5.1c.4-1.1.6-1.5.7-2.1h2.7c-.1.2-.4,1-1,2.2l-4.1,9.6c-.6,1.4-1.6,2-3.3,2s-1.1,0-1.9-.2l.4-2.1c.5.2.8.3,1.3.3.6,0,1.2-.3,1.4-.9l.6-1.4ZM66.2,218.6h-7.8c0,1,.3,1.5.7,2,.5.6,1.3,1,2.2,1s1.6-.3,2.2-.9c.2-.3.3-.5.5-.9l2.1.7c-.4.9-.6,1.2-1.1,1.7-.9.9-2.2,1.4-3.7,1.4-3.2,0-5.2-2.1-5.2-5.5s2-5.5,5.1-5.5,3.8,1,4.5,2.8c.3.9.5,1.5.5,2.7,0,0,0,0,0,.5ZM58.4,216.9h5.4c-.1-.8-.3-1.3-.8-1.7s-1.1-.7-1.9-.7c-1.4,0-2.4.9-2.7,2.4ZM70.6,223.2h-2.6c.1-.8.1-1.3.1-2.3v-5.7c0-1,0-1.6-.1-2.3h2.4v1c0,.3,0,.3,0,.8,1.1-1.4,2.1-1.9,3.7-1.9s2.4.5,3.1,1.3c.4.6.6,1.3.6,2.5v4.3c0,1,0,1.7.1,2.3h-2.6c0-.8.1-1.4.1-2.3v-4c0-.8,0-1.2-.3-1.6-.3-.5-.8-.7-1.5-.7-1.3,0-2.4.9-3.2,2.7v3.6c0,.9,0,1.6.1,2.3ZM82.7,223.2h-2.6c.1-.8.1-1.3.1-2.3v-5.7c0-1,0-1.6-.1-2.3h2.4v1c0,.3,0,.3,0,.8,1.1-1.4,2.1-1.9,3.7-1.9s2.4.5,3.1,1.3c.4.6.6,1.3.6,2.5v4.3c0,1,0,1.7.1,2.3h-2.6c0-.8.1-1.4.1-2.3v-4c0-.8,0-1.2-.3-1.6-.3-.5-.8-.7-1.5-.7-1.3,0-2.4.9-3.1,2.7v3.6c0,.9,0,1.6.1,2.3ZM101.9,218.6h-7.8c0,1,.3,1.5.7,2,.5.6,1.3,1,2.2,1s1.6-.3,2.2-.9c.2-.3.3-.5.5-.9l2.1.7c-.4.9-.6,1.2-1.1,1.7-.9.9-2.2,1.4-3.7,1.4-3.2,0-5.2-2.1-5.2-5.5s2-5.5,5.1-5.5,3.8,1,4.5,2.8c.3.9.5,1.5.5,2.7,0,0,0,0,0,.5ZM94.1,216.9h5.4c-.1-.8-.3-1.3-.8-1.7-.5-.5-1.1-.7-1.9-.7-1.4,0-2.4.9-2.7,2.4ZM112,212.9v.9c0,.2,0,.4,0,.6,1-1.3,2.1-1.8,3.7-1.8s2.6.4,3.4,1.3c1,1,1.4,2.3,1.4,4.1,0,3.3-1.8,5.3-4.9,5.3s-2.8-.6-3.6-1.7q0,.2,0,.6c0,.1,0,.4,0,.8v1.4c0,1.1,0,1.6.1,2.4h-2.5c0-.8.1-1.5.1-2.4v-9.1c0-1,0-1.6-.1-2.4h2.4ZM118.2,218c0-2.1-1.1-3.4-2.9-3.4s-3.1,1.5-3.1,3.4,1.3,3.5,3.2,3.5,2.9-1.3,2.9-3.5ZM129.2,223.2v-1.2c-.7.7-1.2.9-1.9,1.1-.5.1-1.1.2-1.7.2-2.2,0-3.5-1.1-3.5-3s.8-2.4,2-2.9c1.2-.5,2.5-.7,5.1-.7v-.9c0-1-.7-1.6-2.1-1.6s-1.5.2-1.9.5c-.3.3-.5.5-.7,1.2l-2.3-.4c.4-1,.7-1.5,1.4-2,.9-.6,1.9-.9,3.4-.9s2.8.3,3.5,1.1c.6.6.8,1.3.8,2.5v4.8c0,1,0,1.4.1,2.2h-2.4ZM129.2,219.2v-.9c-3.4,0-4.8.7-4.8,2.1s.6,1.4,1.6,1.4,1.9-.4,2.5-1c.4-.4.6-1,.6-1.6ZM141.3,212.9l-.6,2.3c-.8-.2-1.1-.3-1.6-.3-.9,0-1.6.3-2.1.9-.4.5-.6.9-.7,1.8v3.3c0,1,0,1.5.1,2.3h-2.6c0-.9.1-1.4.1-2.3v-5.7c0-1.1,0-1.6-.1-2.3h2.4v1.7c.6-1.3,1.8-1.9,3.4-1.9s.9,0,1.7.2ZM155.5,223.2v-1.2c-.7.7-1.2.9-1.9,1.1-.5.1-1.1.2-1.7.2-2.2,0-3.5-1.1-3.5-3s.8-2.4,2-2.9c1.2-.5,2.5-.7,5.1-.7v-.9c0-1-.7-1.6-2.1-1.6s-1.5.2-1.9.5c-.3.3-.5.5-.7,1.2l-2.3-.4c.4-1,.7-1.5,1.4-2,.9-.6,1.9-.9,3.4-.9s2.8.3,3.5,1.1c.6.6.8,1.3.8,2.5v4.8c0,1,0,1.4.1,2.2h-2.4ZM155.5,219.2v-.9c-3.4,0-4.8.7-4.8,2.1s.6,1.4,1.6,1.4,1.9-.4,2.5-1c.4-.4.6-1,.6-1.6ZM162.7,223.2h-2.6c.1-.8.1-1.3.1-2.3v-5.7c0-1,0-1.6-.1-2.3h2.4v1c0,.3,0,.3,0,.8,1.1-1.4,2.1-1.9,3.7-1.9s2.4.5,3.1,1.3c.4.6.6,1.3.6,2.5v4.3c0,1,0,1.7.1,2.3h-2.6c0-.8.1-1.4.1-2.3v-4c0-.8,0-1.2-.3-1.6-.3-.5-.8-.7-1.5-.7-1.3,0-2.4.9-3.1,2.7v3.6c0,.9,0,1.6.1,2.3Z"/>
</svg>