<svg width="85" height="56" viewBox="0 0 85 56" fill="none" xmlns="http://www.w3.org/2000/svg">
<g id="Calque_1" clip-path="url(#clip0_2374_3894)">
<path id="Vector" d="M84.0894 20.5971L72.4916 2.81194C70.9933 0.538737 67.9621 -0.128715 65.6491 1.30486L61.8224 3.70381C60.7141 4.39448 59.9322 5.50497 59.6542 6.78183C59.5866 7.09331 59.548 7.41059 59.5403 7.72787C57.04 8.64296 55.0784 8.37018 51.9853 7.93488C50.5489 7.73368 48.9194 7.50346 46.9462 7.36223C42.1792 7.01979 39.0379 9.62576 36.5241 12.8798C34.8 11.9783 33.128 11.2741 31.5081 10.595C29.6893 9.87726 27.9189 9.03763 26.214 8.07998C26.326 6.29817 25.4533 4.59956 23.9416 3.65158L20.1149 1.25262C17.8019 -0.180951 14.7706 0.486502 13.2724 2.75971L1.67455 20.5507C0.209128 22.7988 0.838544 25.8129 3.08205 27.2813C3.11101 27.3007 3.13804 27.3181 3.167 27.3355L6.99369 29.7345C7.78336 30.2297 8.69659 30.4909 9.62913 30.4909C10.4246 30.4909 11.2104 30.3013 11.919 29.9415C13.8864 31.2377 15.0197 32.0289 16.1144 32.8202L15.234 34.2035C13.842 36.378 14.4733 39.2703 16.6415 40.6652C17.3945 41.1489 18.2691 41.4062 19.165 41.4062C19.2654 41.4062 19.3658 41.4062 19.4662 41.3965C19.2171 43.2015 20.0435 44.9853 21.5784 45.9584C22.3256 46.4304 23.1925 46.68 24.0767 46.68C24.1791 46.68 24.2795 46.68 24.3818 46.6703C23.9705 49.2202 25.6985 51.6211 28.2432 52.0332C29.9693 52.3137 31.705 51.6037 32.7438 50.1952C33.5411 51.7526 35.1398 52.7335 36.8871 52.7335C38.2425 52.7335 39.5322 52.1473 40.4222 51.1219L45.8051 54.5637C46.7415 55.1692 47.8285 55.4923 48.9425 55.4981C49.1877 55.4981 49.431 55.4807 49.6743 55.4478C50.9949 55.2969 52.1803 54.5637 52.9082 53.4454C53.4604 52.5729 53.6844 51.5321 53.5415 50.5087C55.4742 50.9884 57.5014 50.2204 58.6328 48.5779C59.1985 47.6821 59.4206 46.6104 59.2545 45.5618C61.1447 45.9719 63.0928 45.1961 64.1875 43.5981C64.6914 42.8204 64.9502 41.9111 64.9347 40.9844C65.8306 41.263 66.7843 41.3075 67.7034 41.114C70.0646 40.6555 71.6092 38.3649 71.1516 35.9988C71.1362 35.9156 71.1169 35.8325 71.0956 35.7493C70.8504 34.7104 70.3098 33.7663 69.5414 33.0292C70.194 32.5513 70.7539 32.0638 71.3061 31.5878C72.0127 30.9378 72.7773 30.3535 73.5882 29.8428C74.3644 30.2974 75.2486 30.5373 76.1483 30.5373C77.0809 30.5373 77.9941 30.2781 78.7838 29.7828L82.6105 27.3839C84.8829 25.96 85.5741 22.9593 84.1512 20.6823C84.1338 20.6532 84.1164 20.6261 84.0971 20.5991L84.0894 20.5971ZM8.22742 27.7534L4.40073 25.3544C3.22106 24.6154 2.86194 23.058 3.59948 21.874C3.60913 21.8585 3.61879 21.845 3.62844 21.8295L15.2263 4.04431C15.7225 3.28787 16.5681 2.83322 17.4717 2.83516C17.9679 2.83516 18.4564 2.97445 18.8773 3.23757L22.704 5.63652C23.8837 6.37556 24.2447 7.93295 23.5072 9.11501C23.4975 9.13049 23.4879 9.14597 23.4782 9.16145L11.8804 26.9466C11.081 28.1597 9.46309 28.5156 8.22935 27.7514L8.22742 27.7534ZM17.9081 38.6977C16.8211 38.0012 16.5025 36.5541 17.1956 35.4629L20.7211 29.926C21.0532 29.4017 21.5822 29.0341 22.1866 28.9026C22.3565 28.8639 22.5283 28.8465 22.7021 28.8465C23.1442 28.8465 23.5767 28.9741 23.9474 29.2121C25.0344 29.9086 25.3529 31.3557 24.6598 32.4468L21.1324 37.9857C20.4373 39.073 18.9951 39.3941 17.9061 38.6996L17.9081 38.6977ZM22.8198 43.9812C21.7502 43.306 21.4278 41.8879 22.1016 40.8161C22.1074 40.8084 22.1113 40.7987 22.1171 40.7909L27.9459 31.789C28.388 31.11 29.1449 30.6998 29.9539 30.7018C30.3999 30.7018 30.8381 30.8275 31.2165 31.0674C32.1008 31.6246 32.4947 32.708 32.178 33.7043L26.0943 43.2479L26.0885 43.2576C25.3761 44.3507 23.9242 44.6738 22.8179 43.9831L22.8198 43.9812ZM27.7335 49.3808C26.6465 48.6843 26.328 47.2372 27.0211 46.146L28.0637 44.5074L33.8752 35.5287C34.0373 35.2811 34.1744 35.016 34.2845 34.7413L34.3443 34.6484C35.0394 33.5573 36.4874 33.2381 37.5744 33.9365C38.6633 34.633 38.9819 36.084 38.2849 37.1732L36.4797 40.0035L32.9542 45.5405L30.9636 48.6727C30.2666 49.76 28.8225 50.0772 27.7355 49.3827L27.7335 49.3808ZM37.3949 50.3384C36.136 50.617 34.8907 49.8219 34.6127 48.5605C34.4795 47.9569 34.5895 47.3242 34.9216 46.8019L38.4471 41.2649C38.7792 40.7406 39.3082 40.3731 39.9145 40.2415C40.0824 40.2028 40.2562 40.1854 40.428 40.1854C41.7216 40.1951 42.7603 41.2533 42.7507 42.5495C42.7468 42.9868 42.6213 43.4163 42.3877 43.7858L38.8622 49.3227C38.5282 49.8451 37.9992 50.2107 37.3949 50.3403V50.3384ZM68.5703 37.9219C68.2517 38.3959 67.7574 38.7228 67.1975 38.8292C66.3287 38.9975 65.4309 38.8157 64.6953 38.3223L55.0822 32.1257C54.5551 31.7562 53.8273 31.8838 53.4566 32.412C53.0878 32.9402 53.2152 33.6695 53.7423 34.041C53.7674 34.0584 53.7925 34.0739 53.8176 34.0893L61.2239 38.8582L61.2354 38.866C61.8687 39.2355 62.334 39.8372 62.531 40.5433C62.6777 41.1566 62.5638 41.8047 62.2163 42.3309C61.5096 43.4395 59.7333 43.6233 58.3374 42.7295L56.6577 41.6538L56.6461 41.648H56.6423L51.8444 38.5854C51.3019 38.2391 50.5798 38.3978 50.2342 38.9434C49.8886 39.4889 50.0469 40.2106 50.5914 40.5569L55.4047 43.6329C56.0901 44.0586 56.6036 44.7144 56.8546 45.4825C57.067 46.0919 56.9994 46.7651 56.6674 47.3184C55.9607 48.427 54.1844 48.6108 52.7885 47.717L48.4328 44.935C47.898 44.5732 47.174 44.7144 46.8129 45.2503C46.4519 45.7862 46.5928 46.5117 47.1276 46.8735C47.145 46.8851 47.1605 46.8947 47.1778 46.9064L49.6704 48.4966C50.3577 48.9223 50.8732 49.5781 51.1242 50.3481C51.5278 51.4063 51.0007 52.5923 49.9426 52.9985C49.7534 53.0721 49.5526 53.1146 49.3499 53.1301C48.5448 53.2268 47.732 53.0334 47.0562 52.5865L41.7158 49.1718L44.3532 45.0298C45.7414 42.8533 45.1081 39.9629 42.936 38.57C42.2255 38.1153 41.4069 37.8619 40.5632 37.8348C41.6328 35.4861 40.5999 32.7119 38.256 31.6381C37.0358 31.079 35.6321 31.0752 34.408 31.6265C34.0837 30.5702 33.3905 29.6648 32.4561 29.0786C30.7551 28.0165 28.5715 28.1403 27.0018 29.3882C26.0171 27.0008 23.289 25.8652 20.9065 26.8518C20.0203 27.2194 19.2673 27.852 18.7518 28.6627L17.3655 30.8411C16.2824 30.0575 15.2611 29.3456 13.7454 28.3434C13.7744 28.3028 13.8034 28.2622 13.8304 28.2196L25.4302 10.4402C25.4475 10.4132 25.463 10.3841 25.4823 10.3571C27.1447 11.2547 28.8572 12.0557 30.6103 12.756C32.0892 13.377 33.6106 14.0193 35.1514 14.8048C34.6166 15.5961 34.103 16.4009 33.6029 17.1863C32.5082 19.0204 31.2706 20.7616 29.8979 22.3983C29.0078 23.3869 29.2453 24.8901 30.4906 26.1399C31.595 27.4071 33.1627 28.1732 34.8386 28.2661H35.0008C37.7019 28.1732 39.7407 25.8207 41.7158 23.5475C43.2546 21.7753 44.8417 19.9413 46.1874 20.009C47.0774 20.3804 47.8883 20.9202 48.5757 21.5993C49.738 22.6575 51.0683 23.5107 52.5124 24.124L67.2709 34.2093L67.3134 34.2364C68.0625 34.6871 68.6031 35.4184 68.8174 36.2677C68.9622 36.8288 68.8734 37.4266 68.5741 37.9219H68.5703ZM69.7712 29.8176C69.0684 30.4522 68.3231 31.0365 67.5412 31.5666L58.9475 25.6872C60.3029 25.8091 61.6679 25.6524 62.9615 25.2267C63.5639 24.9965 63.8651 24.3213 63.6353 23.7177C63.4056 23.1141 62.7318 22.8123 62.1294 23.0425C60.2411 23.7661 56.6577 23.3559 53.6187 22.052C53.5589 22.0191 53.4971 21.9939 53.4315 21.9727C52.2344 21.4638 51.13 20.7577 50.1647 19.8852C50.1415 19.8639 47.8768 17.7416 46.3032 17.6642C43.8184 17.552 41.849 19.8097 39.9454 22.0036C38.2984 23.8996 36.5955 25.8594 34.9062 25.9193C33.8192 25.8478 32.8133 25.3254 32.1278 24.478C31.9464 24.3058 31.8016 24.0969 31.705 23.8647C33.126 22.1584 34.4158 20.3456 35.5587 18.44C38.5514 13.7427 41.3799 9.30848 46.7743 9.69347C48.6664 9.83083 50.2535 10.0533 51.6533 10.2487C54.7888 10.6898 57.1423 11.0187 60.0538 10.0224C60.1349 10.1829 60.2257 10.3396 60.3222 10.4905L71.8506 28.1674C71.1246 28.6743 70.4315 29.2276 69.775 29.8215L69.7712 29.8176ZM82.4908 23.8009C82.346 24.4645 81.9405 25.0429 81.3632 25.4009L77.5365 27.7998C76.3028 28.564 74.6849 28.208 73.8836 26.995L62.2858 9.21175C61.5231 8.04516 61.8494 6.48003 63.0136 5.71584C63.0291 5.70617 63.0445 5.6965 63.058 5.68682L66.8847 3.28787C67.3056 3.02282 67.7941 2.88353 68.2903 2.88546C69.1939 2.88353 70.0395 3.33623 70.5357 4.09461L82.1355 21.8779C82.5101 22.4447 82.6375 23.1412 82.4908 23.8048V23.8009Z" fill="white"/>
</g>
<defs>
<clipPath id="clip0_2374_3894">
<rect width="84" height="55" fill="white" transform="translate(0.882812 0.5)"/>
</clipPath>
</defs>
</svg>
