<svg width="14" height="15" viewBox="0 0 14 15" fill="none" xmlns="http://www.w3.org/2000/svg">
<path d="M12.5797 3.04308C12.7209 3.32002 12.8276 3.61834 12.8968 3.9293C12.9694 4.25071 13.004 4.58192 12.9996 4.91395C12.9992 5.22621 12.9646 5.53711 12.8968 5.83947C12.8259 6.14668 12.7193 6.44148 12.5797 6.71583C12.4419 7.00231 12.2686 7.26436 12.0654 7.49375L7 13.3131L1.93463 7.49375C1.73134 7.26199 1.55553 7.00041 1.41179 6.71583C1.27868 6.43901 1.17507 6.14476 1.10322 5.83947C1.03537 5.53711 1.00082 5.22621 1.00037 4.91395C0.995962 4.58192 1.03055 4.25071 1.10322 3.9293C1.17316 3.62015 1.27685 3.32237 1.41179 3.04308C1.55331 2.7568 1.72933 2.49488 1.93463 2.26516C2.23206 1.92461 2.58425 1.65379 2.97167 1.46766C3.75149 1.09997 4.62601 1.09997 5.40583 1.46766C5.772 1.64572 6.1084 1.89561 6.40003 2.20615L6.44287 2.26516L7 2.90522L7.55713 2.26516L7.59997 2.20615C7.8916 1.89561 8.228 1.64572 8.59417 1.46766C9.37399 1.09997 10.2485 1.09997 11.0283 1.46766C11.4157 1.65379 11.7679 1.92461 12.0654 2.26516C12.2705 2.49259 12.444 2.755 12.5797 3.04308Z" fill="white" stroke="url(#paint0_linear_1940_1605)" stroke-width="1.5"/>
<defs>
<linearGradient id="paint0_linear_1940_1605" x1="9.6063" y1="3.92365" x2="3.92092" y2="11.1781" gradientUnits="userSpaceOnUse">
<stop stop-color="#F39200"/>
<stop offset="0.33" stop-color="#EA5B0B"/>
<stop offset="0.635" stop-color="#D60B51"/>
<stop offset="1" stop-color="#A11881"/>
</linearGradient>
</defs>
</svg>
