<svg width="40" height="42" viewBox="0 0 40 42" fill="none" xmlns="http://www.w3.org/2000/svg">
<path d="M39.5 21.17C39.5 32.2039 30.7589 41.1291 20 41.1291C9.24108 41.1291 0.5 32.2039 0.5 21.17C0.5 10.1362 9.24108 1.21094 20 1.21094C30.7589 1.21094 39.5 10.1362 39.5 21.17Z" stroke="url(#paint0_linear_2082_3789)"/>
<path d="M21.5113 26.0424V12.9845C21.5113 11.5046 20.3485 10.3066 18.9164 10.3066C17.4844 10.3066 16.3216 11.5067 16.3216 12.9845V26.0424C15.5122 26.7823 15 27.8601 15 29.0643C15 31.2966 16.7534 33.106 18.9164 33.106C21.0795 33.106 22.8329 31.2966 22.8329 29.0643C22.8329 27.8601 22.3207 26.7844 21.5113 26.0424ZM18.9164 32.2749C17.1972 32.2749 15.8034 30.8365 15.8034 29.0623C15.8034 28.4073 15.9942 27.7979 16.3216 27.2901C16.5365 26.9564 16.8096 26.6683 17.1249 26.4382V13.1047C17.1249 12.0187 17.9283 11.1336 18.9164 11.1336C19.9046 11.1336 20.708 12.0187 20.708 13.1047V26.4382C21.0233 26.6683 21.2964 26.9564 21.5113 27.2901C21.8387 27.7979 22.0295 28.4073 22.0295 29.0623C22.0295 30.8365 20.6357 32.2749 18.9164 32.2749Z" fill="url(#paint1_linear_2082_3789)"/>
<path d="M19.9209 26.8451V21.9121H17.9124V26.8451C17.0528 27.1912 16.6069 28.0534 16.6069 29.0628C16.6069 30.379 17.6413 31.4464 18.9166 31.4464C20.192 31.4464 21.2263 30.379 21.2263 29.0628C21.2263 28.0534 20.7805 27.1912 19.9209 26.8451Z" fill="url(#paint2_linear_2082_3789)"/>
<path d="M25.2672 25.4348H22.8571C22.5799 25.4348 22.355 25.2026 22.355 24.9166C22.355 24.6306 22.5799 24.3984 22.8571 24.3984H25.2672C25.5444 24.3984 25.7693 24.6306 25.7693 24.9166C25.7693 25.2026 25.5444 25.4348 25.2672 25.4348Z" fill="url(#paint3_linear_2082_3789)"/>
<path d="M23.8613 23.7766H22.8571C22.5799 23.7766 22.355 23.5444 22.355 23.2584C22.355 22.9724 22.5799 22.7402 22.8571 22.7402H23.8613C24.1385 22.7402 24.3634 22.9724 24.3634 23.2584C24.3634 23.5444 24.1385 23.7766 23.8613 23.7766Z" fill="url(#paint4_linear_2082_3789)"/>
<path d="M25.2672 22.1184H22.8571C22.5799 22.1184 22.355 21.8862 22.355 21.6002C22.355 21.3142 22.5799 21.082 22.8571 21.082H25.2672C25.5444 21.082 25.7693 21.3142 25.7693 21.6002C25.7693 21.8862 25.5444 22.1184 25.2672 22.1184Z" fill="url(#paint5_linear_2082_3789)"/>
<path d="M23.8613 20.4602H22.8571C22.5799 20.4602 22.355 20.228 22.355 19.942C22.355 19.656 22.5799 19.4238 22.8571 19.4238H23.8613C24.1385 19.4238 24.3634 19.656 24.3634 19.942C24.3634 20.228 24.1385 20.4602 23.8613 20.4602Z" fill="url(#paint6_linear_2082_3789)"/>
<path d="M25.2672 18.802H22.8571C22.5799 18.802 22.355 18.5698 22.355 18.2838C22.355 17.9978 22.5799 17.7656 22.8571 17.7656H25.2672C25.5444 17.7656 25.7693 17.9978 25.7693 18.2838C25.7693 18.5698 25.5444 18.802 25.2672 18.802Z" fill="url(#paint7_linear_2082_3789)"/>
<path d="M23.8613 17.1438H22.8571C22.5799 17.1438 22.355 16.9116 22.355 16.6256C22.355 16.3396 22.5799 16.1074 22.8571 16.1074H23.8613C24.1385 16.1074 24.3634 16.3396 24.3634 16.6256C24.3634 16.9116 24.1385 17.1438 23.8613 17.1438Z" fill="url(#paint8_linear_2082_3789)"/>
<path d="M25.2672 15.4856H22.8571C22.5799 15.4856 22.355 15.2534 22.355 14.9674C22.355 14.6814 22.5799 14.4492 22.8571 14.4492H25.2672C25.5444 14.4492 25.7693 14.6814 25.7693 14.9674C25.7693 15.2534 25.5444 15.4856 25.2672 15.4856Z" fill="url(#paint9_linear_2082_3789)"/>
<defs>
<linearGradient id="paint0_linear_2082_3789" x1="28.6877" y1="9.93266" x2="9.4386" y2="34.1856" gradientUnits="userSpaceOnUse">
<stop stop-color="#F39200"/>
<stop offset="0.33" stop-color="#EA5B0B"/>
<stop offset="0.635" stop-color="#D60B51"/>
<stop offset="1" stop-color="#A11881"/>
</linearGradient>
<linearGradient id="paint1_linear_2082_3789" x1="20.6177" y1="15.4449" x2="12.4633" y2="19.0557" gradientUnits="userSpaceOnUse">
<stop stop-color="#F39200"/>
<stop offset="0.33" stop-color="#EA5B0B"/>
<stop offset="0.635" stop-color="#D60B51"/>
<stop offset="1" stop-color="#A11881"/>
</linearGradient>
<linearGradient id="paint2_linear_2082_3789" x1="19.9199" y1="24.0609" x2="15.7817" y2="26.645" gradientUnits="userSpaceOnUse">
<stop stop-color="#F39200"/>
<stop offset="0.33" stop-color="#EA5B0B"/>
<stop offset="0.635" stop-color="#D60B51"/>
<stop offset="1" stop-color="#A11881"/>
</linearGradient>
<linearGradient id="paint3_linear_2082_3789" x1="24.8037" y1="24.632" x2="24.5803" y2="25.5806" gradientUnits="userSpaceOnUse">
<stop stop-color="#F39200"/>
<stop offset="0.33" stop-color="#EA5B0B"/>
<stop offset="0.635" stop-color="#D60B51"/>
<stop offset="1" stop-color="#A11881"/>
</linearGradient>
<linearGradient id="paint4_linear_2082_3789" x1="23.7954" y1="22.9738" x2="23.45" y2="23.8367" gradientUnits="userSpaceOnUse">
<stop stop-color="#F39200"/>
<stop offset="0.33" stop-color="#EA5B0B"/>
<stop offset="0.635" stop-color="#D60B51"/>
<stop offset="1" stop-color="#A11881"/>
</linearGradient>
<linearGradient id="paint5_linear_2082_3789" x1="24.8037" y1="21.3156" x2="24.5803" y2="22.2642" gradientUnits="userSpaceOnUse">
<stop stop-color="#F39200"/>
<stop offset="0.33" stop-color="#EA5B0B"/>
<stop offset="0.635" stop-color="#D60B51"/>
<stop offset="1" stop-color="#A11881"/>
</linearGradient>
<linearGradient id="paint6_linear_2082_3789" x1="23.7954" y1="19.6574" x2="23.45" y2="20.5203" gradientUnits="userSpaceOnUse">
<stop stop-color="#F39200"/>
<stop offset="0.33" stop-color="#EA5B0B"/>
<stop offset="0.635" stop-color="#D60B51"/>
<stop offset="1" stop-color="#A11881"/>
</linearGradient>
<linearGradient id="paint7_linear_2082_3789" x1="24.8037" y1="17.9992" x2="24.5803" y2="18.9478" gradientUnits="userSpaceOnUse">
<stop stop-color="#F39200"/>
<stop offset="0.33" stop-color="#EA5B0B"/>
<stop offset="0.635" stop-color="#D60B51"/>
<stop offset="1" stop-color="#A11881"/>
</linearGradient>
<linearGradient id="paint8_linear_2082_3789" x1="23.7954" y1="16.341" x2="23.45" y2="17.2039" gradientUnits="userSpaceOnUse">
<stop stop-color="#F39200"/>
<stop offset="0.33" stop-color="#EA5B0B"/>
<stop offset="0.635" stop-color="#D60B51"/>
<stop offset="1" stop-color="#A11881"/>
</linearGradient>
<linearGradient id="paint9_linear_2082_3789" x1="24.8037" y1="14.6828" x2="24.5803" y2="15.6314" gradientUnits="userSpaceOnUse">
<stop stop-color="#F39200"/>
<stop offset="0.33" stop-color="#EA5B0B"/>
<stop offset="0.635" stop-color="#D60B51"/>
<stop offset="1" stop-color="#A11881"/>
</linearGradient>
</defs>
</svg>
