<svg width="61" height="60" viewBox="0 0 61 60" fill="none" xmlns="http://www.w3.org/2000/svg">
<circle cx="30.5" cy="30" r="30" fill="white"/>
<g clip-path="url(#clip0_2270_4480)">
<path d="M30.5 46.2764C36.725 46.2883 41.7867 41.314 41.7987 35.1613C41.7987 33.0472 41.1989 30.9806 40.0535 29.1922C40.0895 29.1093 40.1075 29.0205 40.1075 28.9257V14.376C40.1075 13.9674 39.7716 13.6357 39.3578 13.6357C38.944 13.6357 38.6082 13.9674 38.6082 14.376V27.3683C34.3022 22.9447 27.1775 22.8145 22.7036 27.0663C22.5477 27.2143 22.3918 27.3742 22.2418 27.5341V14.376C22.2418 13.9674 21.906 13.6357 21.4922 13.6357C21.0784 13.6357 20.7425 13.9674 20.7425 14.376V29.2988C20.7425 29.358 20.7605 29.4113 20.7785 29.4646C17.606 34.7527 19.3752 41.5864 24.7367 44.719C26.4818 45.7376 28.4729 46.2764 30.506 46.2705L30.5 46.2764ZM30.5 25.4437C35.9094 25.4437 40.2994 29.7784 40.2994 35.1199C40.2994 40.4613 35.9094 44.796 30.5 44.796C25.0905 44.796 20.7006 40.4613 20.7006 35.1199C20.7006 29.7784 25.0905 25.4496 30.5 25.4437Z" fill="#EA5B0B"/>
<path d="M26.7093 20.4754V14.376C26.7093 13.9674 26.3734 13.6357 25.9596 13.6357C25.5458 13.6357 25.21 13.9674 25.21 14.376V20.4754C25.21 20.884 25.5458 21.2156 25.9596 21.2156C26.3734 21.2156 26.7093 20.884 26.7093 20.4754Z" fill="#EA5B0B"/>
<path d="M35.6458 20.4754V14.376C35.6458 13.9674 35.3099 13.6357 34.8961 13.6357C34.4823 13.6357 34.1465 13.9674 34.1465 14.376V20.4754C34.1465 20.884 34.4823 21.2156 34.8961 21.2156C35.3099 21.2156 35.6458 20.884 35.6458 20.4754Z" fill="#EA5B0B"/>
<path d="M31.178 20.4754V14.376C31.178 13.9674 30.8422 13.6357 30.4284 13.6357C30.0146 13.6357 29.6787 13.9674 29.6787 14.376V20.4754C29.6787 20.884 30.0146 21.2156 30.4284 21.2156C30.8422 21.2156 31.178 20.884 31.178 20.4754Z" fill="#EA5B0B"/>
<path d="M25.0125 38.2464C25.1624 38.501 25.4503 38.6432 25.7441 38.6136L28.6408 38.2997L29.8162 40.9349C29.9842 41.308 30.4279 41.4797 30.8058 41.3139C30.9797 41.2369 31.1116 41.1066 31.1896 40.9349L32.365 38.2997L35.2617 38.6136C35.6755 38.655 36.0413 38.3648 36.0893 37.9562C36.1073 37.7727 36.0593 37.5891 35.9514 37.4411L34.2302 35.1197L35.9514 32.7984C36.1972 32.4668 36.1253 32.0049 35.7894 31.7621C35.6395 31.6555 35.4536 31.6022 35.2677 31.6259L32.371 31.9397L31.1956 29.3046C31.0277 28.9315 30.5839 28.7598 30.2061 28.9256C30.0321 29.0026 29.9002 29.1328 29.8222 29.3046L28.6468 31.9397L25.7501 31.6259C25.3363 31.5844 24.9705 31.8746 24.9225 32.2832C24.9045 32.4668 24.9525 32.6504 25.0605 32.7984L26.7817 35.1197L25.0605 37.4411C24.8865 37.6779 24.8686 37.9918 25.0185 38.2464H25.0125ZM28.3109 34.6815L27.2674 33.2781L29.0186 33.4676C29.3425 33.5031 29.6543 33.3254 29.7862 33.0294L30.4999 31.4364L31.2136 33.0294C31.3455 33.3254 31.6574 33.4972 31.9812 33.4676L33.7324 33.2781L32.6889 34.6815C32.497 34.9421 32.497 35.2974 32.6889 35.5579L33.7324 36.9614L31.9812 36.7719C31.6574 36.7364 31.3455 36.914 31.2136 37.2101L30.4999 38.8031L29.7862 37.2101C29.6663 36.9436 29.3964 36.766 29.1026 36.766C29.0726 36.766 29.0486 36.766 29.0186 36.766L27.2674 36.9555L28.3109 35.552C28.5029 35.2915 28.5029 34.9362 28.3109 34.6756V34.6815Z" fill="#EA5B0B"/>
</g>
<defs>
<clipPath id="clip0_2270_4480">
<rect width="22.5974" height="32.6407" fill="white" transform="translate(19.2012 13.6357)"/>
</clipPath>
</defs>
</svg>
