<svg width="48" height="45" viewBox="0 0 48 45" fill="none" xmlns="http://www.w3.org/2000/svg">
<g id="Calque_1" clip-path="url(#clip0_2027_4401)">
<path id="Vector" d="M46.5951 20.6975L41.6031 15.6828V3.21215C41.6031 1.4357 40.1681 -0.000684204 38.4048 -0.000684204H33.6048C31.8363 -0.000684204 30.4064 1.44078 30.4064 3.21215V4.43029L27.4001 1.41032C25.5256 -0.472712 22.489 -0.472712 20.6144 1.41032L1.40939 20.6975C-0.177138 22.2861 -0.455033 24.7732 0.742441 26.6765C1.93991 28.5798 4.29444 29.3919 6.40139 28.6357V41.7865C6.40139 43.5629 7.83634 44.9993 9.5997 44.9993H38.3997C40.1681 44.9993 41.598 43.5579 41.598 41.7865V28.6357C43.71 29.3919 46.0595 28.5748 47.257 26.6714C48.4544 24.7681 48.1765 22.2861 46.59 20.6975H46.5951ZM33.5997 3.21215H38.3997V12.4649L33.5997 7.64312V3.21215ZM27.2031 41.7865H20.8014V35.3557C20.8014 34.4675 21.5189 33.7468 22.4031 33.7468H25.6014C26.4856 33.7468 27.2031 34.4675 27.2031 35.3557V41.7865ZM38.3997 41.7865H30.4014V35.3557C30.4014 32.6911 28.254 30.5339 25.6014 30.5339H22.4031C19.7504 30.5339 17.6031 32.6911 17.6031 35.3557V41.7865H9.60476V26.103L24.0048 11.6376L38.4048 26.103V41.7865H38.3997ZM44.3315 25.2503V25.2401C43.6999 25.8492 42.6995 25.8492 42.0679 25.2401L41.1584 24.3265L41.0877 24.2555L25.1315 8.22681C24.505 7.59744 23.4944 7.59744 22.8679 8.22681L6.9117 24.2656L5.93149 25.2503C5.52728 25.6665 4.93612 25.834 4.37528 25.6868C3.81444 25.5396 3.37991 25.1031 3.23339 24.5397C3.08686 23.9763 3.2536 23.3825 3.66791 22.9764L22.8679 3.69433C23.4944 3.06496 24.505 3.06496 25.1315 3.69433L30.841 9.42972C30.8662 9.4551 30.8864 9.4754 30.9117 9.50078L38.8443 17.4694C38.8443 17.4694 38.8898 17.5151 38.91 17.5354L44.3315 22.9815C44.958 23.6109 44.958 24.626 44.3315 25.2553V25.2503Z" fill="url(#paint0_linear_2027_4401)"/>
</g>
<defs>
<linearGradient id="paint0_linear_2027_4401" x1="34.4239" y1="10.14" x2="13.7421" y2="38.5698" gradientUnits="userSpaceOnUse">
<stop stop-color="#F39200"/>
<stop offset="0.33" stop-color="#EA5B0B"/>
<stop offset="0.635" stop-color="#D60B51"/>
<stop offset="1" stop-color="#A11881"/>
</linearGradient>
<clipPath id="clip0_2027_4401">
<rect width="48" height="45" fill="white"/>
</clipPath>
</defs>
</svg>
