<svg width="40" height="40" viewBox="0 0 40 40" fill="none" xmlns="http://www.w3.org/2000/svg">
<circle cx="20" cy="20" r="19.5" stroke="url(#paint0_linear_2116_3662)"/>
<path d="M29.4156 19.1995L27.3354 16.9708V11.4285C27.3354 10.6389 26.7375 10.0006 26.0027 10.0006H24.0025C23.2656 10.0006 22.6697 10.6412 22.6697 11.4285V11.9698L21.417 10.6277C20.6358 9.79078 19.3705 9.79078 18.5893 10.6277L10.5865 19.1995C9.92537 19.9055 9.80957 21.0109 10.3086 21.8568C10.8076 22.7027 11.7887 23.0636 12.6667 22.7275V28.5721C12.6667 29.3616 13.2646 30 13.9994 30H26.0006C26.7375 30 27.3333 29.3594 27.3333 28.5721V22.7275C28.2134 23.0636 29.1924 22.7004 29.6914 21.8545C30.1904 21.0086 30.0746 19.9055 29.4135 19.1995H29.4156ZM24.0004 11.4285H26.0006V15.5407L24.0004 13.3977V11.4285ZM21.3349 28.5721H18.6672V25.7141C18.6672 25.3193 18.9662 24.999 19.3347 24.999H20.6674C21.0359 24.999 21.3349 25.3193 21.3349 25.7141V28.5721ZM26.0006 28.5721H22.6676V25.7141C22.6676 24.5298 21.7728 23.5711 20.6674 23.5711H19.3347C18.2293 23.5711 17.3345 24.5298 17.3345 25.7141V28.5721H14.0015V21.6019L20.0021 15.173L26.0027 21.6019V28.5721H26.0006ZM28.4724 21.2229V21.2184C28.2092 21.4891 27.7923 21.4891 27.5291 21.2184L27.1501 20.8123L27.1207 20.7808L20.4716 13.6571C20.2105 13.3774 19.7895 13.3774 19.5284 13.6571L12.8793 20.7853L12.4709 21.2229C12.3024 21.4079 12.0561 21.4823 11.8224 21.4169C11.5887 21.3515 11.4076 21.1575 11.3466 20.9071C11.2855 20.6567 11.355 20.3928 11.5276 20.2123L19.5284 11.6427C19.7895 11.363 20.2105 11.363 20.4716 11.6427L22.8508 14.1917C22.8613 14.203 22.8697 14.212 22.8803 14.2233L26.1858 17.7648C26.1858 17.7648 26.2048 17.7851 26.2132 17.7942L28.4724 20.2146C28.7334 20.4943 28.7334 20.9454 28.4724 21.2252V21.2229Z" fill="url(#paint1_linear_2116_3662)"/>
<defs>
<linearGradient id="paint0_linear_2116_3662" x1="28.6877" y1="9.0148" x2="9.9718" y2="33.1372" gradientUnits="userSpaceOnUse">
<stop stop-color="#F39200"/>
<stop offset="0.33" stop-color="#EA5B0B"/>
<stop offset="0.635" stop-color="#D60B51"/>
<stop offset="1" stop-color="#A11881"/>
</linearGradient>
<linearGradient id="paint1_linear_2116_3662" x1="24.3438" y1="14.5074" x2="14.9859" y2="26.5686" gradientUnits="userSpaceOnUse">
<stop stop-color="#F39200"/>
<stop offset="0.33" stop-color="#EA5B0B"/>
<stop offset="0.635" stop-color="#D60B51"/>
<stop offset="1" stop-color="#A11881"/>
</linearGradient>
</defs>
</svg>
