<svg width="40" height="40" viewBox="0 0 40 40" fill="none" xmlns="http://www.w3.org/2000/svg">
<g id="Group">
<path id="Vector" d="M20.0455 0H19.9545C8.93392 0 0 8.93391 0 19.9545V20.0455C0 31.0661 8.93392 40 19.9545 40H20.0455C31.0661 40 40 31.0661 40 20.0455V19.9545C40 8.93391 31.0661 0 20.0455 0Z" fill="#EA5B0B"/>
<g id="Group_2">
<path id="Vector_2" d="M26.1886 8.13818H13.8115C10.3921 8.13818 7.61035 10.92 7.61035 14.3394V25.6626C7.61035 29.082 10.3921 31.8638 13.8115 31.8638H26.1886C29.608 31.8638 32.3898 29.082 32.3898 25.6626V14.3394C32.3898 10.92 29.608 8.13818 26.1886 8.13818ZM9.79793 14.3394C9.79793 12.1266 11.5987 10.3258 13.8115 10.3258H26.1886C28.4014 10.3258 30.2022 12.1266 30.2022 14.3394V25.6626C30.2022 27.8754 28.4014 29.6762 26.1886 29.6762H13.8115C11.5987 29.6762 9.79793 27.8754 9.79793 25.6626V14.3394Z" fill="white"/>
<path id="Vector_3" d="M20.0006 25.7682C23.1803 25.7682 25.7687 23.1812 25.7687 20.0001C25.7687 16.8189 23.1817 14.2319 20.0006 14.2319C16.8194 14.2319 14.2324 16.8189 14.2324 20.0001C14.2324 23.1812 16.8194 25.7682 20.0006 25.7682ZM20.0006 16.4209C21.9751 16.4209 23.5811 18.0269 23.5811 20.0015C23.5811 21.976 21.9751 23.582 20.0006 23.582C18.026 23.582 16.42 21.976 16.42 20.0015C16.42 18.0269 18.026 16.4209 20.0006 16.4209Z" fill="white"/>
<path id="Vector_4" d="M26.3022 15.163C27.1584 15.163 27.8563 14.4665 27.8563 13.6088C27.8563 12.7512 27.1598 12.0547 26.3022 12.0547C25.4445 12.0547 24.748 12.7512 24.748 13.6088C24.748 14.4665 25.4445 15.163 26.3022 15.163Z" fill="white"/>
</g>
</g>
</svg>
