<?xml version="1.0" standalone="no"?>
<!DOCTYPE svg PUBLIC "-//W3C//DTD SVG 20010904//EN"
 "http://www.w3.org/TR/2001/REC-SVG-20010904/DTD/svg10.dtd">
<svg version="1.0" xmlns="http://www.w3.org/2000/svg"
 width="512.000000pt" height="512.000000pt" viewBox="0 0 512.000000 512.000000"
 preserveAspectRatio="xMidYMid meet">

<g transform="translate(0.000000,512.000000) scale(0.100000,-0.100000)"
fill="#000000" stroke="none">
<path d="M3925 5114 c-137 -22 -274 -93 -375 -194 -126 -127 -187 -259 -199
-428 l-6 -93 -59 -24 c-155 -63 -264 -185 -313 -348 -19 -66 -19 -208 0 -275
23 -77 73 -165 122 -215 l44 -44 -6 -114 c-22 -443 288 -795 735 -834 l82 -7
0 -139 0 -139 -47 30 c-26 17 -60 30 -75 30 -56 0 -95 -69 -69 -119 6 -10 51
-44 100 -75 l91 -58 0 -569 c0 -552 -1 -571 -20 -609 -11 -22 -24 -40 -28 -40
-4 0 -36 9 -70 20 -152 48 -329 5 -433 -104 -13 -14 -27 -26 -31 -26 -5 0 -8
126 -8 280 l0 280 124 0 c118 0 127 1 153 24 l28 24 0 241 c0 304 12 285 -175
289 l-130 4 0 181 0 181 -197 199 c-109 109 -210 205 -225 213 -55 29 -63 23
-271 -183 -109 -109 -205 -210 -213 -225 -10 -20 -14 -69 -14 -198 l0 -170
-70 0 -70 0 0 176 c0 160 -2 178 -20 204 -11 16 -110 114 -219 219 -162 155
-205 191 -228 191 -23 0 -65 -37 -240 -213 l-213 -213 0 -182 0 -182 -69 0
-70 0 -3 180 -3 180 -210 210 c-116 116 -220 213 -233 216 -12 4 -36 1 -52 -6
-16 -7 -117 -104 -225 -216 l-195 -203 0 -180 0 -179 -130 -4 c-187 -4 -175
15 -175 -289 l0 -241 28 -24 c26 -23 35 -24 153 -24 l124 0 -2 -567 -3 -568
-120 -3 c-66 -1 -130 -7 -142 -13 -48 -25 -49 -100 -1 -133 20 -15 246 -16
2515 -16 l2492 0 28 24 28 24 3 294 c2 220 -1 299 -10 318 -17 33 -89 67 -160
75 -58 7 -58 7 -69 48 -6 23 -24 67 -41 97 -96 172 -263 270 -459 270 -92 0
-168 -20 -262 -68 -4 -2 -6 114 -5 258 l3 262 140 90 c77 49 150 100 163 114
28 31 28 64 1 98 -36 45 -76 37 -201 -44 l-108 -69 0 388 0 389 53 18 c109 35
201 90 287 169 29 27 68 50 110 65 356 125 593 505 550 880 -13 114 -34 190
-75 277 -61 131 -158 249 -271 329 l-62 44 -4 117 c-8 191 -62 316 -198 453
-81 81 -174 138 -284 172 -60 18 -230 31 -291 22z m208 -169 c144 -30 283
-138 349 -270 52 -103 62 -158 54 -290 l-7 -113 30 -23 c16 -13 55 -40 86 -59
86 -53 188 -167 235 -264 51 -105 71 -195 71 -315 -1 -159 -44 -283 -143 -415
-82 -109 -204 -194 -347 -241 -38 -12 -74 -36 -126 -84 -64 -58 -183 -131
-214 -131 -8 0 -11 173 -11 594 0 585 0 594 -21 620 -16 20 -29 26 -59 26 -30
0 -43 -6 -59 -26 -20 -26 -21 -38 -21 -325 0 -165 -3 -299 -6 -299 -3 0 -69
50 -146 110 -155 121 -179 130 -223 85 -26 -25 -32 -63 -16 -94 5 -9 95 -84
200 -166 l191 -149 0 -209 0 -209 -67 7 c-176 18 -290 70 -408 189 -60 60 -90
101 -118 157 -60 122 -82 275 -56 388 22 96 18 106 -55 176 -95 90 -121 150
-121 275 0 82 4 103 27 152 48 103 155 185 267 203 28 5 55 17 72 34 26 26 26
29 21 123 -8 166 36 286 150 400 130 131 293 181 471 143z m-3204 -2626 l151
-146 0 -1007 0 -1006 -300 0 -300 0 0 1009 0 1009 141 146 c78 81 145 145 149
144 4 -2 76 -69 159 -149z m1063 4 l148 -147 0 -1008 0 -1008 -300 0 -300 0 0
1007 0 1007 143 147 c78 80 146 147 151 148 5 0 76 -65 158 -146z m1060 0
l148 -148 0 -811 0 -811 -26 -12 c-120 -54 -190 -208 -151 -333 l15 -48 -219
0 -219 0 0 1007 0 1008 147 147 c81 82 150 148 153 148 3 0 71 -66 152 -147z
m-2737 -733 l0 -125 -70 0 -70 0 -3 114 c-1 63 0 121 3 128 3 10 22 13 72 11
l68 -3 0 -125z m1065 0 l0 -130 -70 0 -70 0 0 130 0 130 70 0 70 0 0 -130z
m1060 0 l0 -130 -70 0 -70 0 0 130 0 130 70 0 70 0 0 -130z m1060 0 l0 -130
-70 0 -70 0 0 123 c0 68 3 127 7 130 3 4 35 7 70 7 l63 0 0 -130z m-2120 -860
l0 -570 -70 0 -70 0 0 570 0 570 70 0 70 0 0 -570z m1060 0 l0 -570 -70 0 -70
0 0 570 0 570 70 0 70 0 0 -570z m2045 245 c130 -38 219 -143 251 -296 22
-107 46 -128 128 -109 26 6 58 7 72 4 l24 -6 -2 -202 -3 -201 -825 -3 c-454
-1 -839 0 -857 3 -42 7 -91 57 -98 99 -9 45 16 101 57 126 25 15 48 20 92 19
52 -2 62 1 81 23 12 14 25 45 29 68 14 88 67 159 149 200 100 50 202 38 296
-35 24 -19 52 -35 62 -35 40 0 69 23 85 69 34 93 52 128 84 165 95 108 238
150 375 111z"/>
<path d="M695 1772 c-139 -65 -154 -256 -27 -343 25 -17 52 -24 98 -27 55 -4
69 -1 108 22 28 16 56 44 72 72 23 39 26 53 22 109 -4 71 -19 99 -81 149 -48
39 -131 46 -192 18z m103 -151 c8 -4 12 -19 10 -32 -4 -33 -53 -40 -63 -9 -11
36 22 61 53 41z"/>
<path d="M1752 1769 c-133 -68 -147 -243 -27 -335 51 -39 143 -46 202 -15 180
91 126 356 -75 368 -44 3 -67 -1 -100 -18z m117 -156 c21 -38 -31 -72 -58 -39
-9 11 -10 20 -1 35 13 25 45 27 59 4z"/>
<path d="M2823 1774 c-121 -60 -153 -216 -64 -318 43 -49 149 -71 218 -45 66
25 123 110 123 184 0 47 -28 111 -61 142 -56 51 -153 68 -216 37z m107 -159
c20 -24 3 -57 -28 -53 -27 3 -39 26 -28 54 7 18 40 18 56 -1z"/>
<path d="M840 5090 c-28 -28 -32 -54 -28 -194 3 -110 6 -128 23 -145 33 -32
85 -31 115 1 18 20 20 35 20 168 0 140 -1 147 -23 168 -29 28 -80 29 -107 2z"/>
<path d="M294 4870 c-29 -11 -54 -49 -54 -79 0 -29 190 -227 224 -233 52 -10
95 26 96 80 0 28 -13 46 -87 124 -71 73 -135 122 -155 117 -2 0 -13 -4 -24 -9z"/>
<path d="M1435 4870 c-11 -4 -63 -51 -114 -104 -83 -84 -95 -100 -95 -130 0
-62 53 -96 111 -71 15 7 67 53 116 103 76 80 87 96 87 127 0 33 -27 75 -49 75
-5 0 -15 2 -23 4 -7 3 -22 1 -33 -4z"/>
<path d="M820 4649 c-229 -38 -393 -270 -351 -497 55 -303 396 -454 653 -289
71 45 124 106 162 186 29 62 31 73 31 176 0 103 -2 114 -32 177 -84 178 -272
278 -463 247z m180 -180 c261 -118 182 -509 -103 -511 -142 -1 -251 93 -272
234 -15 102 48 220 144 270 68 36 162 38 231 7z"/>
<path d="M54 4296 c-35 -16 -54 -57 -44 -96 10 -44 60 -60 187 -60 116 0 157
9 179 38 22 29 17 76 -12 103 -24 22 -34 24 -152 27 -93 2 -135 -2 -158 -12z"/>
<path d="M1454 4304 c-57 -13 -78 -94 -36 -137 21 -21 31 -22 166 -22 139 0
145 1 170 24 33 31 34 71 2 108 -24 28 -25 28 -153 30 -70 0 -138 -1 -149 -3z"/>
<path d="M1777 3939 c-99 -20 -176 -95 -198 -195 -7 -30 -17 -54 -22 -54 -6 0
-56 45 -113 100 -90 88 -107 100 -137 100 -50 0 -81 -29 -81 -74 0 -29 8 -45
44 -81 30 -31 39 -46 29 -49 -8 -2 -32 -9 -54 -15 -84 -22 -158 -104 -171
-188 -18 -124 35 -226 146 -277 41 -19 67 -21 284 -24 261 -4 297 -1 327 29
27 27 25 80 -4 107 -23 21 -31 22 -258 22 -129 0 -250 5 -270 10 -91 25 -91
145 0 170 20 5 118 10 219 10 101 0 191 4 201 10 32 17 44 60 27 106 -18 51
-11 89 22 114 24 19 41 20 462 20 l437 0 20 -22 c29 -33 35 -57 22 -95 -18
-56 -48 -63 -274 -63 l-196 0 -26 -26 c-20 -20 -24 -31 -19 -57 17 -89 17
-106 6 -126 -17 -32 -70 -51 -144 -51 -80 0 -110 -20 -110 -74 0 -54 30 -79
101 -84 171 -12 297 70 321 209 l8 44 159 5 c178 6 209 16 271 82 98 104 95
261 -8 353 -79 72 -65 70 -543 72 -242 1 -451 -3 -478 -8z"/>
<path d="M343 3787 c-109 -109 -119 -130 -87 -175 24 -34 59 -44 97 -28 18 7
71 54 120 104 74 78 87 96 87 125 0 44 -34 77 -80 77 -30 0 -47 -13 -137 -103z"/>
<path d="M834 3699 c-17 -19 -19 -38 -19 -171 0 -145 1 -150 24 -169 32 -26
82 -25 109 4 21 22 22 33 22 168 0 139 -1 146 -23 167 -31 29 -87 29 -113 1z"/>
<path d="M1814 3000 c-28 -11 -54 -48 -54 -77 0 -12 11 -35 24 -50 l24 -28
265 0 265 0 26 24 c35 33 35 79 0 112 -26 24 -26 24 -277 26 -139 1 -262 -2
-273 -7z"/>
</g>
</svg>
