<svg width="40" height="40" viewBox="0 0 40 40" fill="none" xmlns="http://www.w3.org/2000/svg">
<g id="Group">
<path id="Vector" d="M20.0455 0H19.9545C8.93393 0 0 8.93392 0 19.9545V20.0455C0 31.0661 8.93393 40 19.9545 40H20.0455C31.0661 40 40 31.0661 40 20.0455V19.9545C40 8.93392 31.0661 0 20.0455 0Z" fill="#EA5B0B"/>
<g id="Group_2">
<path id="Vector_2" d="M9.53897 13.2977C9.01204 12.8086 8.75 12.2032 8.75 11.4829C8.75 10.7626 9.01345 10.1306 9.53897 9.64009C10.0659 9.151 10.7442 8.90576 11.5752 8.90576C12.4062 8.90576 13.0579 9.151 13.5834 9.64009C14.1103 10.1292 14.3724 10.7444 14.3724 11.4829C14.3724 12.2215 14.1089 12.8086 13.5834 13.2977C13.0565 13.7868 12.388 14.0321 11.5752 14.0321C10.7624 14.0321 10.0659 13.7868 9.53897 13.2977ZM13.9295 16.1033V31.0982H9.19143V16.1033H13.9295Z" fill="#FEFFFC"/>
<path id="Vector_3" d="M29.7018 17.585C30.7346 18.7061 31.2504 20.2448 31.2504 22.204V30.8338H26.7505V22.8122C26.7505 21.8242 26.494 21.0563 25.9825 20.5097C25.471 19.9632 24.7815 19.6885 23.9183 19.6885C23.055 19.6885 22.3655 19.9618 21.854 20.5097C21.3425 21.0563 21.086 21.8242 21.086 22.8122V30.8338H16.5596V16.0617H21.086V18.0208C21.5443 17.3678 22.1623 16.8521 22.9387 16.4723C23.7151 16.0925 24.5882 15.9033 25.5593 15.9033C27.2886 15.9033 28.6704 16.4639 29.7018 17.585Z" fill="#FEFFFC"/>
</g>
</g>
</svg>
