<svg width="24" height="24" viewBox="0 0 24 24" fill="none" xmlns="http://www.w3.org/2000/svg">
<g id="location">
<path id="Union" fill-rule="evenodd" clip-rule="evenodd" d="M16.2478 4.03139C15.1272 2.91085 13.6137 2.27173 12.0292 2.25H11.9692C10.3846 2.27173 8.8711 2.91085 7.75056 4.03139C6.63001 5.15193 5.9909 6.66546 5.96917 8.25C5.94903 9.37542 6.26556 10.4812 6.87817 11.4255L11.5993 21H12.399L17.1202 11.4255C17.7328 10.4812 18.0493 9.37542 18.0292 8.25C18.0074 6.66546 17.3683 5.15193 16.2478 4.03139ZM11.8852 3.75L12.0082 3.765L12.1192 3.75C13.2975 3.80132 14.4114 4.3021 15.2319 5.14939C16.0525 5.99669 16.5172 7.12611 16.5307 8.3055C16.542 9.14253 16.2977 9.96309 15.8302 10.6575L15.8002 10.7085L15.7747 10.761L11.9992 18.4185L8.22367 10.7685L8.19817 10.71L8.16817 10.659C7.70068 9.96459 7.45629 9.14403 7.46767 8.307C7.48046 7.12625 7.94575 5.99539 8.76765 5.14755C9.58954 4.2997 10.7054 3.79948 11.8852 3.75ZM12.8032 7.00327C12.5565 6.83845 12.2665 6.75047 11.9698 6.75047C11.572 6.75047 11.1905 6.90851 10.9092 7.18981C10.6279 7.47112 10.4698 7.85265 10.4698 8.25047C10.4698 8.54715 10.5578 8.83716 10.7226 9.08383C10.8874 9.3305 11.1217 9.52276 11.3958 9.63629C11.6699 9.74982 11.9715 9.77953 12.2625 9.72165C12.5534 9.66377 12.8207 9.52091 13.0305 9.31113C13.2403 9.10136 13.3831 8.83408 13.441 8.54311C13.4989 8.25214 13.4692 7.95054 13.3556 7.67645C13.2421 7.40236 13.0499 7.16809 12.8032 7.00327ZM10.3031 5.75606C10.7965 5.42642 11.3765 5.25047 11.9698 5.25047C12.7655 5.25047 13.5285 5.56654 14.0911 6.12915C14.6538 6.69176 14.9698 7.45482 14.9698 8.25047C14.9698 8.84382 14.7939 9.42384 14.4642 9.91718C14.1346 10.4105 13.6661 10.795 13.1179 11.0221C12.5697 11.2492 11.9665 11.3086 11.3846 11.1928C10.8026 11.0771 10.2681 10.7914 9.8485 10.3718C9.42894 9.95224 9.14322 9.41769 9.02747 8.83574C8.91171 8.2538 8.97112 7.6506 9.19818 7.10242C9.42525 6.55424 9.80976 6.08571 10.3031 5.75606Z" fill="#EA5B0B"/>
</g>
</svg>
