<svg width="27" height="19" viewBox="0 0 27 19" fill="none" xmlns="http://www.w3.org/2000/svg">
<path d="M0.832469 19V2.2H3.37647L9.49647 12.16L8.27247 12.136L14.4645 2.2H16.8645V19H14.2725V12.112C14.2725 10.672 14.3045 9.376 14.3685 8.224C14.4485 7.072 14.5765 5.928 14.7525 4.792L15.0885 5.68L9.59247 14.176H8.00847L2.68047 5.776L2.94447 4.792C3.12047 5.864 3.24047 6.968 3.30447 8.104C3.38447 9.224 3.42447 10.56 3.42447 12.112V19H0.832469ZM20.7827 8.968L20.5667 7.264L22.9427 4.888C23.0867 4.76 23.2627 4.592 23.4707 4.384C23.6787 4.176 23.8627 3.944 24.0227 3.688C24.1827 3.416 24.2627 3.144 24.2627 2.872C24.2627 2.616 24.1907 2.416 24.0467 2.272C23.9027 2.112 23.6947 2.032 23.4227 2.032C23.1507 2.032 22.8467 2.136 22.5107 2.344C22.1907 2.536 21.8627 2.864 21.5267 3.328L20.2307 2.368C20.5987 1.744 21.0787 1.248 21.6707 0.879999C22.2627 0.495999 22.9027 0.303999 23.5907 0.303999C24.3747 0.303999 25.0067 0.527999 25.4867 0.975999C25.9827 1.424 26.2307 2 26.2307 2.704C26.2307 3.152 26.1107 3.584 25.8707 4C25.6307 4.4 25.3507 4.776 25.0307 5.128C24.7107 5.464 24.4147 5.76 24.1427 6.016L22.5347 7.576L22.6307 7.36H26.3267V8.968H20.7827Z" fill="#FBF7F6"/>
</svg>
