<svg width="32" height="26" viewBox="0 0 32 26" fill="none" xmlns="http://www.w3.org/2000/svg">
<g id="Group">
<path id="Vector" d="M1.85352 4.9998C1.85352 4.15111 2.18129 3.33718 2.76474 2.73706C3.34819 2.13695 4.13951 1.7998 4.96463 1.7998H26.7424C27.5675 1.7998 28.3588 2.13695 28.9423 2.73706C29.5257 3.33718 29.8535 4.15111 29.8535 4.9998V20.9998C29.8535 21.8485 29.5257 22.6624 28.9423 23.2625C28.3588 23.8627 27.5675 24.1998 26.7424 24.1998H4.96463C4.13951 24.1998 3.34819 23.8627 2.76474 23.2625C2.18129 22.6624 1.85352 21.8485 1.85352 20.9998V4.9998Z" stroke="#EA5B0B" stroke-width="2.5" stroke-linecap="round" stroke-linejoin="round"/>
<path id="Vector_2" d="M1.85352 5.00098L15.8535 14.601L29.8535 5.00098" stroke="#EA5B0B" stroke-width="2.5" stroke-linecap="round" stroke-linejoin="round"/>
</g>
</svg>
