<?xml version="1.0" encoding="UTF-8"?>
<svg id="Calque_1" xmlns="http://www.w3.org/2000/svg" version="1.1" xmlns:xlink="http://www.w3.org/1999/xlink" viewBox="0 0 155.2 155.9">
  <!-- Generator: Adobe Illustrator 29.0.1, SVG Export Plug-In . SVG Version: 2.1.0 Build 192)  -->
  <defs>
    <style>
      .st0 {
        fill: #a11881;
      }

      .st1 {
        stroke: #a11881;
        stroke-width: 3px;
      }

      .st1, .st2 {
        fill: none;
      }

      .st3 {
        clip-path: url(#clippath);
      }
    </style>
    <clipPath id="clippath">
      <rect class="st2" x="39.7" y="22" width="79" height="102"/>
    </clipPath>
  </defs>
  <circle class="st1" cx="79.7" cy="77" r="75.5"/>
  <g class="st3">
    <g>
      <path class="st0" d="M49.5,74.9c-5.7,1.1-9.8,6-9.8,11.7v30.6c0,3.8,3.1,6.8,6.9,6.8h10.3c.1,0,.2,0,.4,0l18.5-4,25.6,4c0,0,.2,0,.3,0h10.3c3.8,0,6.9-3,6.9-6.8v-30.6c0-5.7-4.1-10.6-9.8-11.7l-17.7-3.3v-6.9c3.3-3.2,5.2-7.5,5.2-12.1,3.8,0,6.9-3,6.9-6.8s-3.1-6.8-6.9-6.8v-1.7c0-1.3-.2-2.6-.6-3.9.4-.3.6-.8.6-1.2,0-5.6-4.6-10.2-10.3-10.2h-7.2c-.7,0-1.4,0-2.1.2-.2,0-.4,0-.6,0-2.3.5-4.4,1.5-6.2,3.1-3.9-.5-7.5,2.3-8,6.2,0,.3,0,.6,0,.9v6.6c-3.8,0-6.9,3-6.9,6.8s3.1,6.8,6.9,6.8c0,4.6,1.9,8.9,5.2,12.1v6.9l-17.7,3.3h0ZM79.2,69.6c3,0,6-.8,8.6-2.3v4.5l-8.6,2.8-8.6-2.8v-4.5c2.6,1.5,5.6,2.3,8.6,2.3ZM91.3,88.7l1.5,5.9-5.6,6.1-3.3.2,6.9-26,4.4.8,4,9.6-6.5,1.3c-.9.2-1.5,1.1-1.3,2,0,0,0,0,0,0h0ZM107.1,98.5h8.2v5l-16.2-1,8.1-4h0ZM63.5,104.3v-.4c0,0,0-.2,0-.2l4.7.3-.7,9.2-5.2-1.1,1.1-7.8ZM67,87.4c-.3-.4-.7-.7-1.1-.7l-6.5-1.3,4-9.6,4.4-.8,6.9,26-3.3-.2-5.6-6.1,1.5-5.9c.1-.5,0-.9-.2-1.3ZM73.4,83.2l.7-.5v3.2l-.7-2.6h0ZM77.5,98.8v-18.9l1.7-1.4,1.7,1.4v18.9l-.6,2.3h-1.1c0,0-1.1,0-1.1,0l-.6-2.3h0ZM84.4,82.7l.7.5-.7,2.6v-3.2ZM86.6,77.3l-.6,2.3-2.3-1.8-1-.8,4.3-1.4-.4,1.7h0ZM74.7,77.8l-2.3,1.8-.6-2.3-.4-1.7,4.3,1.4-1,.8ZM50.2,78.2l9.1-1.7-3.9,9.4c-.4.9,0,1.9.9,2.2.1,0,.2,0,.3.1l6.8,1.4-1.3,5.1c-.1.5,0,1.1.4,1.5l3.8,4.2-3.8-.2-3.9-1.9v-4.9h-3.4v3.2l-2.7-1.3c-.2-.1-.5-.2-.8-.2h-8.6v-8.5c0-4.1,2.9-7.6,7-8.4h0ZM43.2,98.5h8.2l8.8,4.4v.9c-.1,0-.3,1-.3,1l-1,6.8-8.6-1.2s-.2,0-.2,0h-6.9v-11.9h0ZM56.7,120.6h-10.1c-1.9,0-3.4-1.5-3.4-3.4v-3.4h6.7l10.2,1.4,1.6.2,5.5,1.2v.4c0,.4,0,.8.3,1.2l-10.9,2.3ZM115.3,113.8v3.4c0,1.9-1.5,3.4-3.4,3.4h-10.2l-22.5-3.5-3.2-.5h0l-5.1-.8.9-11.6,5.1.3h2.2c0,.1.1.2.2.2l36.2,2.2v6.9h0ZM115.3,86.6v8.5h-8.6c-.3,0-.5,0-.8.2l-2.7,1.3v-3.2h-3.4v4.9l-3.9,1.9-3.8.2,3.8-4.2c.4-.4.5-1,.4-1.5l-1.3-5.1,6.8-1.4c.9-.2,1.5-1.1,1.3-2,0-.1,0-.2-.1-.3l-3.9-9.4,9.1,1.7c4.1.8,7,4.3,7,8.4h0ZM92.4,33.9c.4,1.1.6,2.2.6,3.4v1.5c-1-1.6-1.9-3.2-2.6-4.9h2,0ZM99.8,45.8c0,1.9-1.5,3.4-3.4,3.4v-6.8c1.9,0,3.4,1.5,3.4,3.4ZM88.5,30.5l2.8-2.7h0s-2,2-2,2l2-2c.7.8,1.2,1.7,1.4,2.7h-4.2ZM88.4,25.8l-4.7,4.7h-4.3l4.1-5.1h2.6c.8,0,1.6.1,2.3.4ZM79.1,25.4l-4.1,5.1h-2.6v-2.7c1.8-1.6,4.2-2.4,6.6-2.4h.2ZM65.5,32.4c0-1.9,1.5-3.6,3.4-3.8v3.2c-1,2.3-2.2,4.6-3.4,6.7v-6.2ZM58.6,45.8c0-1.9,1.5-3.4,3.4-3.4v6.8c-1.9,0-3.4-1.5-3.4-3.4ZM65.5,52.6v-7.9c2.5-3.3,4.6-7,6.3-10.8h14.8c1.6,3.9,3.7,7.5,6.4,10.8v7.9c0,7.5-6.1,13.6-13.7,13.6s-13.7-6.1-13.7-13.6Z"/>
      <path class="st0" d="M71.5,45.8c1.4,0,2.6-1.1,2.6-2.5s-1.1-2.5-2.6-2.5-2.6,1.1-2.6,2.5,1.2,2.5,2.6,2.5Z"/>
      <path class="st0" d="M87,45.8c1.4,0,2.6-1.1,2.6-2.5s-1.2-2.5-2.6-2.5-2.6,1.1-2.6,2.5,1.2,2.5,2.6,2.5Z"/>
      <path class="st0" d="M74.1,56h3.2c2.8,0,5.5-.6,8-1.9l-1.7-2.9c-1.9,1-4.1,1.5-6.3,1.5h-3.2v3.4h0Z"/>
      <path class="st0" d="M79.2,110.4h-3.4v3.4h3.4v-3.4Z"/>
      <path class="st0" d="M86.1,110.4h-3.4v3.4h3.4v-3.4Z"/>
    </g>
  </g>
  <path d="M-53.6,193.9v-9.7c0-1,0-1.5-.1-2.3.7,0,1.2,0,2.3,0h3.3c2.2,0,3.7.5,4.9,1.6,1.3,1.2,2,3.1,2,5.5s-.7,4.4-2.1,5.7c-1.2,1.1-2.6,1.6-4.7,1.6h-3.3c-1.1,0-1.5,0-2.3,0,.1-.7.1-1.3.1-2.4ZM-51.2,194.1h2.9c1.5,0,2.4-.3,3.2-1.2.9-.9,1.3-2.3,1.3-4s-.4-3-1.2-3.9c-.7-.8-1.7-1.1-3.2-1.1h-2.9v10.1ZM-29.7,191.6h-7.8c0,1,.3,1.5.7,2,.5.6,1.3,1,2.2,1s1.6-.3,2.2-.9c.2-.3.3-.5.5-.9l2.1.7c-.4.9-.6,1.2-1.1,1.7-.9.9-2.2,1.4-3.7,1.4-3.2,0-5.2-2.1-5.2-5.5s2-5.5,5.1-5.5,3.8,1,4.5,2.8c.3.9.5,1.5.5,2.7,0,0,0,0,0,.5ZM-37.5,189.9h5.4c-.1-.8-.3-1.3-.8-1.7-.5-.5-1.1-.7-1.9-.7-1.4,0-2.4.9-2.7,2.4ZM-28.4,193.3l2.5-.3c.3,1.2,1,1.7,2.4,1.7s2.2-.5,2.2-1.4-.2-.7-.5-.9c-.3-.2-.5-.3-1.9-.6-1.4-.3-2-.5-2.6-.8-1-.5-1.6-1.3-1.6-2.4s.2-1.2.6-1.7c.7-.9,2-1.4,3.6-1.4s2.6.4,3.4,1c.5.4.7.9,1,1.8l-2.4.3c-.2-1-.8-1.4-2-1.4s-1.9.5-1.9,1.3.2.6.6.8c.4.2.8.3,1.8.5,1.8.4,2.6.6,3.2,1.1.7.5,1,1.2,1,2.2s-.3,1.5-.9,2c-.8.8-2.1,1.2-3.7,1.2s-3.2-.6-4-1.6c-.3-.4-.5-.8-.7-1.6ZM-8.7,196.2h-2.5c0-.8.1-1.4.1-2.3v-5.7c0-1.1,0-1.7-.1-2.3h2.4v.9c0,.1,0,.4,0,.7.5-1.1,1.9-1.8,3.3-1.8s1.8.3,2.3.8c.3.3.5.5.7,1.1.6-.8,1-1.1,1.5-1.4.6-.3,1.2-.5,2-.5,1.2,0,2.1.4,2.7,1,.6.6.8,1.5.8,2.7v4.4c0,1,0,1.6.1,2.3h-2.6c.1-.7.1-1.3.1-2.3v-4c0-1.6-.6-2.3-1.8-2.3s-1,.2-1.5.5c-.6.5-.9,1.1-1.1,2.2v3.6c0,1,0,1.6.1,2.3h-2.6c.1-.8.1-1.3.1-2.3v-4c0-1.5-.6-2.3-1.7-2.3s-1.4.3-1.9.9c-.4.5-.6.9-.8,1.8v3.6c0,1,0,1.5.1,2.3ZM13.7,196.2v-1.2c-.7.7-1.2.9-1.9,1.1-.5.1-1.1.2-1.7.2-2.2,0-3.5-1.1-3.5-3s.8-2.4,2-2.9c1.2-.5,2.5-.7,5.1-.7v-.9c0-1-.7-1.6-2.1-1.6s-1.5.2-1.9.5c-.3.3-.5.5-.7,1.2l-2.3-.4c.4-1,.7-1.5,1.4-2,.9-.6,1.9-.9,3.4-.9s2.8.3,3.5,1.1c.6.6.8,1.3.8,2.5v4.8c0,1,0,1.4.1,2.2h-2.4ZM13.7,192.2v-.9c-3.4,0-4.8.7-4.8,2.1s.6,1.4,1.6,1.4,1.9-.4,2.5-1c.4-.4.6-1,.6-1.6ZM20.9,196.2h-2.6c.1-.8.1-1.3.1-2.3v-5.7c0-1,0-1.6-.1-2.3h2.4v1c0,.3,0,.3,0,.8,1.1-1.4,2.1-1.9,3.7-1.9s2.4.5,3.1,1.3c.4.6.6,1.3.6,2.5v4.3c0,1,0,1.7.1,2.3h-2.6c0-.8.1-1.4.1-2.3v-4c0-.8,0-1.2-.3-1.6-.3-.5-.8-.7-1.5-.7-1.3,0-2.4.9-3.2,2.7v3.6c0,.9,0,1.6.1,2.3ZM37.3,196.2v-1.2c-.7.7-1.2.9-1.9,1.1-.5.1-1.1.2-1.7.2-2.2,0-3.5-1.1-3.5-3s.8-2.4,2-2.9c1.2-.5,2.5-.7,5.1-.7v-.9c0-1-.7-1.6-2.1-1.6s-1.5.2-1.9.5c-.3.3-.5.5-.7,1.2l-2.3-.4c.4-1,.7-1.5,1.4-2,.9-.6,1.9-.9,3.4-.9s2.8.3,3.5,1.1c.6.6.8,1.3.8,2.5v4.8c0,1,0,1.4.1,2.2h-2.4ZM37.3,192.2v-.9c-3.4,0-4.8.7-4.8,2.1s.6,1.4,1.6,1.4,1.9-.4,2.5-1c.4-.4.6-1,.6-1.6ZM41.6,197.9l1.8-1.2c.7,1,1.5,1.4,2.8,1.4s2.4-.5,3-1.4c.3-.5.4-1.2.5-2.4-.9,1.1-2,1.6-3.5,1.6-2.9,0-4.7-2-4.7-5s1.9-5.1,4.8-5.1,2.7.5,3.4,1.6c0-.4,0-.4,0-.6v-.8h2.4c0,.8-.1,1.3-.1,2.2v6c0,2.2-.5,3.5-1.5,4.4-.9.7-2.4,1.2-4.2,1.2s-3.3-.5-4.5-1.9ZM43.8,190.9c0,1.1.3,1.9.8,2.5.4.5,1.2.8,1.9.8,1,0,2-.6,2.5-1.4.3-.6.5-1.2.5-2.1s-.4-2.1-1.1-2.7c-.5-.4-1.1-.6-1.7-.6-1.8,0-2.9,1.4-2.9,3.5ZM64,191.6h-7.8c0,1,.3,1.5.7,2,.5.6,1.3,1,2.2,1s1.6-.3,2.2-.9c.2-.3.3-.5.5-.9l2.1.7c-.4.9-.6,1.2-1.1,1.7-.9.9-2.2,1.4-3.7,1.4-3.2,0-5.2-2.1-5.2-5.5s2-5.5,5.1-5.5,3.8,1,4.5,2.8c.3.9.5,1.5.5,2.7,0,0,0,0,0,.5ZM56.2,189.9h5.4c-.1-.8-.3-1.3-.8-1.7-.5-.5-1.1-.7-1.9-.7-1.4,0-2.4.9-2.7,2.4ZM73.3,185.9l-.6,2.3c-.8-.2-1.1-.3-1.6-.3-.9,0-1.6.3-2.1.9-.4.5-.6.9-.7,1.8v3.3c0,1,0,1.5.1,2.3h-2.6c0-.9.1-1.4.1-2.3v-5.7c0-1.1,0-1.6-.1-2.3h2.4v1.7c.6-1.3,1.8-1.9,3.4-1.9s.9,0,1.7.2ZM74.2,193.3l2.5-.3c.3,1.2,1,1.7,2.4,1.7s2.2-.5,2.2-1.4-.2-.7-.5-.9c-.3-.2-.4-.3-1.9-.6-1.4-.3-2-.5-2.6-.8-1-.5-1.6-1.3-1.6-2.4s.2-1.2.6-1.7c.7-.9,2-1.4,3.6-1.4s2.6.4,3.4,1c.5.4.7.9,1,1.8l-2.4.3c-.2-1-.8-1.4-2-1.4s-1.9.5-1.9,1.3.2.6.6.8c.4.2.8.3,1.8.5,1.8.4,2.6.6,3.2,1.1.7.5,1,1.2,1,2.2s-.3,1.5-.9,2c-.8.8-2.1,1.2-3.7,1.2s-3.2-.6-4-1.6c-.3-.4-.5-.8-.7-1.6ZM98.1,196.2v-1.2c-.7.7-1.2.9-1.9,1.1-.5.1-1.1.2-1.7.2-2.2,0-3.5-1.1-3.5-3s.8-2.4,2-2.9c1.2-.5,2.5-.7,5.1-.7v-.9c0-1-.7-1.6-2.1-1.6s-1.5.2-1.9.5c-.3.3-.5.5-.7,1.2l-2.3-.4c.4-1,.7-1.5,1.4-2,.9-.6,1.9-.9,3.4-.9s2.8.3,3.5,1.1c.6.6.8,1.3.8,2.5v4.8c0,1,0,1.4.1,2.2h-2.4ZM98.1,192.2v-.9c-3.4,0-4.8.7-4.8,2.1s.6,1.4,1.6,1.4,1.9-.4,2.5-1c.4-.4.6-1,.6-1.6ZM93,182.5l1.6-1.6,3.1,3.3-.8.8-3.9-2.5ZM114.4,196.2h-2.6c-.1-.5-.2-.7-.5-1.6l-2.8-6.8c-.2-.5-.5-1.1-.8-1.9h2.8c0,.4.2,1,.4,1.7l1.8,5.2c.1.3.3.8.4,1.2.1-.4.3-.8.4-1.2l1.8-5.2c.3-.8.4-1.2.4-1.7h2.7c-.3.5-.5,1-.8,1.9l-2.8,6.8c-.4.9-.4,1.1-.5,1.6ZM124.8,196.6c-3.3,0-5.4-2.1-5.4-5.5s2.1-5.5,5.4-5.5,5.3,2.1,5.3,5.5-2.1,5.5-5.3,5.5ZM124.8,187.4c-1.9,0-3,1.4-3,3.6s1.2,3.6,3,3.6,3-1.3,3-3.5-1.1-3.7-3-3.7ZM133.1,183.1h2.6c0,.6-.1,1.4-.1,2.2v.6h.8c.8,0,1.2,0,1.8-.1v2.1c-.6,0-.9-.1-1.8-.1h-.8v5.6c0,.9.3,1.2,1.2,1.2s.8,0,1.3-.4l.3,1.9c-.8.3-1.3.4-2.2.4-2.1,0-2.9-.7-2.9-2.6v-6h-.7c-.7,0-1,0-1.6.1v-2.1c.5,0,.9.1,1.6.1h.7v-.6c0-.8,0-1.6-.1-2.2ZM147.3,185.9l-.6,2.3c-.8-.2-1.1-.3-1.6-.3-.9,0-1.6.3-2.1.9-.4.5-.6.9-.7,1.8v3.3c0,1,0,1.5.1,2.3h-2.6c0-.9.1-1.4.1-2.3v-5.7c0-1.1,0-1.6-.1-2.3h2.4v1.7c.6-1.3,1.8-1.9,3.4-1.9s.9,0,1.7.2ZM158.3,191.6h-7.8c0,1,.3,1.5.7,2,.5.6,1.3,1,2.2,1s1.6-.3,2.2-.9c.2-.3.3-.5.5-.9l2.1.7c-.4.9-.6,1.2-1.1,1.7-.9.9-2.2,1.4-3.7,1.4-3.2,0-5.2-2.1-5.2-5.5s2-5.5,5.1-5.5,3.8,1,4.5,2.8c.3.9.5,1.5.5,2.7,0,0,0,0,0,.5ZM150.5,189.9h5.4c-.1-.8-.3-1.3-.8-1.7-.5-.5-1.1-.7-1.9-.7-1.4,0-2.4.9-2.7,2.4ZM175.7,191.6h-7.8c0,1,.3,1.5.7,2,.5.6,1.3,1,2.2,1s1.6-.3,2.2-.9c.2-.3.3-.5.5-.9l2.1.7c-.4.9-.6,1.2-1.1,1.7-.9.9-2.2,1.4-3.7,1.4-3.2,0-5.2-2.1-5.2-5.5s2-5.5,5.1-5.5,3.8,1,4.5,2.8c.3.9.5,1.5.5,2.7,0,0,0,0,0,.5ZM168,189.9h5.4c-.1-.8-.3-1.3-.8-1.7-.5-.5-1.1-.7-1.9-.7-1.4,0-2.4.9-2.7,2.4ZM173.9,182.5l-3.9,2.5-.8-.8,3.1-3.3,1.5,1.6ZM186.9,188.8l-2.2.5c-.2-.6-.3-.8-.6-1.1-.4-.5-1.1-.8-1.9-.8-1.8,0-2.9,1.4-2.9,3.6s1.1,3.6,2.9,3.6,1.6-.4,2.1-1c.2-.3.3-.4.4-.9l2.2.5c-.3.7-.4,1.1-.8,1.5-.9,1.2-2.3,1.8-4,1.8-3.2,0-5.2-2.1-5.2-5.5s.5-3.1,1.5-4.2c.9-.9,2.1-1.4,3.6-1.4s3.2.7,4,1.9c.2.4.4.6.6,1.3ZM193.7,196.6c-3.3,0-5.4-2.1-5.4-5.5s2.1-5.5,5.4-5.5,5.3,2.1,5.3,5.5-2.1,5.5-5.3,5.5ZM193.7,187.4c-1.9,0-3,1.4-3,3.6s1.2,3.6,3,3.6,3-1.3,3-3.5-1.1-3.7-3-3.7ZM208.1,185.9h2.6c-.1.8-.1,1.3-.1,2.3v5.7c0,1,0,1.6.1,2.3h-2.4v-1c0-.3,0-.3,0-.8-1,1.4-2,1.9-3.7,1.9s-1.6-.2-2.2-.5c-1-.6-1.5-1.6-1.5-3.1v-4.6c0-1,0-1.7-.1-2.3h2.6c-.1.8-.1,1.4-.1,2.3v4c0,1,.3,1.7.8,2.1.3.1.6.3,1,.3,1.3,0,2.3-.9,3.1-2.7v-3.6c0-.9,0-1.6-.1-2.3ZM214.1,183.1h2.6c0,.6-.1,1.4-.1,2.2v.6h.8c.8,0,1.2,0,1.8-.1v2.1c-.6,0-.9-.1-1.8-.1h-.8v5.6c0,.9.3,1.2,1.2,1.2s.8,0,1.3-.4l.3,1.9c-.8.3-1.3.4-2.2.4-2.1,0-2.9-.7-2.9-2.6v-6h-.7c-.7,0-1,0-1.6.1v-2.1c.5,0,.9.1,1.6.1h.7v-.6c0-.8,0-1.6-.1-2.2ZM230.4,191.6h-7.8c0,1,.3,1.5.7,2,.5.6,1.3,1,2.2,1s1.6-.3,2.2-.9c.2-.3.3-.5.5-.9l2.1.7c-.4.9-.6,1.2-1.1,1.7-.9.9-2.2,1.4-3.7,1.4-3.2,0-5.2-2.1-5.2-5.5s2-5.5,5.1-5.5,3.8,1,4.5,2.8c.3.9.5,1.5.5,2.7,0,0,0,0,0,.5ZM222.6,189.9h5.4c-.1-.8-.3-1.3-.8-1.7-.5-.5-1.1-.7-1.9-.7-1.4,0-2.4.9-2.7,2.4ZM245,196.2v-1.2c-.7.7-1.2.9-1.9,1.1-.5.1-1.1.2-1.7.2-2.2,0-3.5-1.1-3.5-3s.8-2.4,2-2.9c1.2-.5,2.5-.7,5.1-.7v-.9c0-1-.7-1.6-2.1-1.6s-1.5.2-1.9.5c-.3.3-.5.5-.7,1.2l-2.3-.4c.4-1,.7-1.5,1.4-2,.9-.6,1.9-.9,3.4-.9s2.8.3,3.5,1.1c.6.6.8,1.3.8,2.5v4.8c0,1,0,1.4.1,2.2h-2.4ZM245,192.2v-.9c-3.4,0-4.8.7-4.8,2.1s.6,1.4,1.6,1.4,1.9-.4,2.5-1c.4-.4.6-1,.6-1.6ZM239.9,182.5l1.6-1.6,3.1,3.3-.8.8-3.9-2.5ZM-49.8,215.8l-2.2.5c-.2-.6-.3-.8-.6-1.1-.4-.5-1.1-.8-1.9-.8-1.8,0-2.9,1.4-2.9,3.6s1.1,3.6,2.9,3.6,1.6-.4,2.1-1c.2-.3.3-.4.4-.9l2.2.5c-.3.7-.4,1.1-.8,1.5-.9,1.2-2.2,1.8-4,1.8-3.2,0-5.2-2.1-5.2-5.5s.5-3.1,1.5-4.2c.9-.9,2.1-1.4,3.6-1.4s3.2.7,4,1.9c.2.4.4.6.6,1.3ZM-47.9,208.9h2.6c0,.7-.1,1.4-.1,2.4v2.6c0,.2,0,.3,0,.8,1.1-1.4,2.1-1.9,3.7-1.9s3.6,1.3,3.6,3.6v4.5c0,1,0,1.7.1,2.3h-2.6c0-.8.1-1.4.1-2.3v-4c0-.8-.2-1.4-.5-1.8-.3-.3-.8-.5-1.2-.5-1.4,0-2.4.9-3.2,2.7v3.6c0,.9,0,1.6.1,2.3h-2.6c.1-.8.1-1.3.1-2.3v-9.6c0-1.1,0-1.6-.1-2.4ZM-29,223.2v-1.2c-.7.7-1.2.9-1.9,1.1-.5.1-1.1.2-1.7.2-2.2,0-3.5-1.1-3.5-3s.8-2.4,2-2.9c1.2-.5,2.5-.7,5.1-.7v-.9c0-1-.7-1.6-2.1-1.6s-1.5.2-1.9.5c-.3.3-.5.5-.7,1.2l-2.3-.4c.4-1,.7-1.5,1.4-2,.9-.6,1.9-.9,3.4-.9s2.8.3,3.5,1.1c.6.6.8,1.3.8,2.5v4.8c0,1,0,1.4.1,2.2h-2.4ZM-29,219.2v-.9c-3.4,0-4.8.7-4.8,2.1s.6,1.4,1.6,1.4,1.9-.4,2.5-1c.4-.4.6-1,.6-1.6ZM-16.3,212.9h2.4c0,.8-.1,1.4-.1,2.4v9.1c0,.9,0,1.5.1,2.4h-2.5c0-.8.1-1.3.1-2.4v-1.4c0-.3,0-.7,0-1.4-.9,1.2-2.1,1.7-3.7,1.7s-2.6-.4-3.4-1.3c-.9-.9-1.4-2.3-1.4-4s.8-3.8,2.2-4.7c.7-.4,1.7-.7,2.7-.7,1.5,0,2.8.6,3.6,1.7,0-.3,0-.4,0-.6v-.8ZM-22.5,218c0,2.1,1.1,3.4,2.8,3.4s2.3-.6,2.8-1.6c.3-.5.4-1.2.4-1.9,0-1.9-1.3-3.3-3.1-3.3s-3,1.4-3,3.5ZM-4.4,212.9H-1.8c-.1.8-.1,1.3-.1,2.3v5.7c0,1,0,1.6.1,2.3h-2.4v-1c0-.3,0-.3,0-.8-1,1.4-2,1.9-3.7,1.9s-1.6-.2-2.2-.5c-1-.6-1.5-1.6-1.5-3.1v-4.6c0-1,0-1.7-.1-2.3h2.6c-.1.8-.1,1.4-.1,2.3v4c0,1,.3,1.7.8,2.1.3.1.6.3,1,.3,1.3,0,2.3-.9,3.1-2.7v-3.6c0-.9,0-1.6-.1-2.3ZM10.1,218.6H2.3c0,1,.3,1.5.7,2,.5.6,1.3,1,2.2,1s1.6-.3,2.2-.9c.2-.3.3-.5.5-.9l2.1.7c-.4.9-.6,1.2-1.1,1.7-.9.9-2.2,1.4-3.7,1.4-3.2,0-5.2-2.1-5.2-5.5s2-5.5,5.1-5.5,3.8,1,4.5,2.8c.3.9.5,1.5.5,2.7,0,0,0,0,0,.5ZM2.3,216.9h5.4c-.1-.8-.3-1.3-.8-1.7-.5-.5-1.1-.7-1.9-.7-1.4,0-2.4.9-2.7,2.4ZM27.6,218.6h-7.8c0,1,.3,1.5.7,2,.5.6,1.3,1,2.2,1s1.6-.3,2.2-.9c.2-.3.3-.5.5-.9l2.1.7c-.4.9-.6,1.2-1.1,1.7-.9.9-2.2,1.4-3.7,1.4-3.2,0-5.2-2.1-5.2-5.5s2-5.5,5.1-5.5,3.8,1,4.5,2.8c.3.9.5,1.5.5,2.7,0,0,0,0,0,.5ZM19.8,216.9h5.4c-.1-.8-.3-1.3-.8-1.7-.5-.5-1.1-.7-1.9-.7-1.4,0-2.4.9-2.7,2.4ZM25.8,209.5l-3.9,2.5-.8-.8,3.1-3.3,1.5,1.6ZM30.6,210.1h2.6c0,.6-.1,1.4-.1,2.2v.6h.8c.8,0,1.2,0,1.8-.1v2.1c-.6,0-.9-.1-1.8-.1h-.8v5.6c0,.9.3,1.2,1.2,1.2s.8,0,1.3-.4l.3,1.9c-.8.3-1.3.4-2.2.4-2.1,0-2.9-.7-2.9-2.6v-6h-.7c-.7,0-1,0-1.6.1v-2.1c.5,0,.9.1,1.6.1h.7v-.6c0-.8,0-1.6-.1-2.2ZM44,223.2v-1.2c-.7.7-1.2.9-1.9,1.1-.5.1-1.1.2-1.7.2-2.2,0-3.5-1.1-3.5-3s.8-2.4,2-2.9c1.2-.5,2.5-.7,5.1-.7v-.9c0-1-.7-1.6-2.1-1.6s-1.5.2-1.9.5c-.3.3-.5.5-.7,1.2l-2.3-.4c.4-1,.7-1.5,1.4-2,.9-.6,1.9-.9,3.4-.9s2.8.3,3.5,1.1c.6.6.8,1.3.8,2.5v4.8c0,1,0,1.4.1,2.2h-2.4ZM44,219.2v-.9c-3.4,0-4.8.7-4.8,2.1s.6,1.4,1.6,1.4,1.9-.4,2.5-1c.4-.4.6-1,.6-1.6ZM51,212.9v.9c0,.2,0,.4,0,.6,1-1.3,2.1-1.8,3.7-1.8s2.6.4,3.4,1.3c1,1,1.4,2.3,1.4,4.1,0,3.3-1.8,5.3-4.9,5.3s-2.8-.6-3.6-1.7q0,.2,0,.6c0,.1,0,.4,0,.8v1.4c0,1.1,0,1.6.1,2.4h-2.5c0-.8.1-1.5.1-2.4v-9.1c0-1,0-1.6-.1-2.4h2.4ZM57.1,218c0-2.1-1.1-3.4-2.9-3.4s-3.1,1.5-3.1,3.4,1.3,3.5,3.2,3.5,2.9-1.3,2.9-3.5ZM71,218.6h-7.8c0,1,.3,1.5.7,2,.5.6,1.3,1,2.2,1s1.6-.3,2.2-.9c.2-.3.3-.5.5-.9l2.1.7c-.4.9-.6,1.2-1.1,1.7-.9.9-2.2,1.4-3.7,1.4-3.2,0-5.2-2.1-5.2-5.5s2-5.5,5.1-5.5,3.8,1,4.5,2.8c.3.9.5,1.5.5,2.7,0,0,0,0,0,.5ZM63.2,216.9h5.4c-.1-.8-.3-1.3-.8-1.7s-1.1-.7-1.9-.7c-1.4,0-2.4.9-2.7,2.4ZM86.8,223.2v-.9c0-.2,0-.4,0-.6-.9,1.3-1.9,1.8-3.6,1.8s-2.2-.3-3-.9c-1.2-.9-1.9-2.6-1.9-4.5,0-3.3,1.9-5.4,4.9-5.4s2,.3,2.7.8c.3.3.5.5.9,1q0-.2,0-.6c0-.1,0-.5,0-.8v-1.8c0-1.1,0-1.7-.1-2.4h2.5c0,.9-.1,1.5-.1,2.4v9.5c0,1.1,0,1.6.1,2.4h-2.4ZM80.7,218c0,2.1,1.2,3.5,3,3.5s1.9-.5,2.4-1.2c.5-.6.7-1.5.7-2.4s-.3-1.8-.9-2.4c-.6-.6-1.5-1-2.3-1-1.7,0-2.9,1.4-2.9,3.5ZM101.2,218.6h-7.8c0,1,.3,1.5.7,2,.5.6,1.3,1,2.2,1s1.6-.3,2.2-.9c.2-.3.3-.5.5-.9l2.1.7c-.4.9-.6,1.2-1.1,1.7-.9.9-2.2,1.4-3.7,1.4-3.2,0-5.2-2.1-5.2-5.5s2-5.5,5.1-5.5,3.8,1,4.5,2.8c.3.9.5,1.5.5,2.7,0,0,0,0,0,.5ZM93.4,216.9h5.4c-.1-.8-.3-1.3-.8-1.7-.5-.5-1.1-.7-1.9-.7-1.4,0-2.4.9-2.7,2.4ZM114.7,223.2h-2.6c-.1-.5-.2-.7-.5-1.6l-2.8-6.8c-.2-.5-.5-1.1-.8-1.9h2.8c0,.4.2,1,.4,1.7l1.8,5.2c.1.3.3.8.4,1.2.1-.4.3-.8.4-1.2l1.8-5.2c.3-.8.4-1.2.4-1.7h2.7c-.3.5-.5,1-.8,1.9l-2.8,6.8c-.4.9-.4,1.1-.5,1.6ZM125.1,223.6c-3.3,0-5.4-2.1-5.4-5.5s2.1-5.5,5.4-5.5,5.3,2.1,5.3,5.5-2.1,5.5-5.3,5.5ZM125.1,214.4c-1.9,0-3,1.4-3,3.6s1.2,3.6,3,3.6,3-1.3,3-3.5-1.1-3.7-3-3.7ZM133.4,210.1h2.6c0,.6-.1,1.4-.1,2.2v.6h.8c.8,0,1.2,0,1.8-.1v2.1c-.6,0-.9-.1-1.8-.1h-.8v5.6c0,.9.3,1.2,1.2,1.2s.8,0,1.3-.4l.3,1.9c-.8.3-1.3.4-2.2.4-2.1,0-2.9-.7-2.9-2.6v-6h-.7c-.7,0-1,0-1.6.1v-2.1c.5,0,.9.1,1.6.1h.7v-.6c0-.8,0-1.6-.1-2.2ZM147.5,212.9l-.6,2.3c-.8-.2-1.1-.3-1.6-.3-.9,0-1.6.3-2.1.9-.5.5-.6.9-.7,1.8v3.3c0,1,0,1.5.1,2.3h-2.6c0-.9.1-1.4.1-2.3v-5.7c0-1.1,0-1.6-.1-2.3h2.4v1.7c.6-1.3,1.8-1.9,3.4-1.9s.9,0,1.7.2ZM158.5,218.6h-7.8c0,1,.3,1.5.7,2,.5.6,1.3,1,2.2,1s1.6-.3,2.2-.9c.2-.3.3-.5.5-.9l2.1.7c-.4.9-.6,1.2-1.1,1.7-.9.9-2.2,1.4-3.7,1.4-3.2,0-5.2-2.1-5.2-5.5s2-5.5,5.1-5.5,3.8,1,4.5,2.8c.3.9.5,1.5.5,2.7,0,0,0,0,0,.5ZM150.8,216.9h5.4c-.1-.8-.3-1.3-.8-1.7s-1.1-.7-1.9-.7c-1.4,0-2.4.9-2.7,2.4ZM176,218.6h-7.8c0,1,.3,1.5.7,2,.5.6,1.3,1,2.2,1s1.6-.3,2.2-.9c.2-.3.3-.5.5-.9l2.1.7c-.4.9-.6,1.2-1.1,1.7-.9.9-2.2,1.4-3.7,1.4-3.2,0-5.2-2.1-5.2-5.5s2-5.5,5.1-5.5,3.8,1,4.5,2.8c.3.9.5,1.5.5,2.7,0,0,0,0,0,.5ZM168.2,216.9h5.4c-.1-.8-.3-1.3-.8-1.7s-1.1-.7-1.9-.7c-1.4,0-2.4.9-2.7,2.4ZM174.2,209.5l-3.9,2.5-.8-.8,3.1-3.3,1.5,1.6ZM183.5,223.2h-2.6c-.1-.5-.2-.7-.5-1.6l-2.8-6.8c-.2-.5-.5-1.1-.8-1.9h2.8c0,.4.2,1,.4,1.7l1.8,5.2c.1.3.3.8.4,1.2.1-.4.3-.8.4-1.2l1.8-5.2c.3-.8.4-1.2.4-1.7h2.7c-.3.5-.5,1-.8,1.9l-2.8,6.8c-.4.9-.4,1.1-.5,1.6ZM193.9,223.6c-3.3,0-5.4-2.1-5.4-5.5s2.1-5.5,5.4-5.5,5.3,2.1,5.3,5.5-2.1,5.5-5.3,5.5ZM193.9,214.4c-1.9,0-3,1.4-3,3.6s1.2,3.6,3,3.6,3-1.3,3-3.5-1.1-3.7-3-3.7ZM201,208.9h2.6c0,.7-.1,1.3-.1,2.4v9.6c0,1,0,1.5.1,2.3h-2.6c0-.8.1-1.3.1-2.3v-9.6c0-1.1,0-1.7-.1-2.3ZM213.2,212.9h2.6c-.1.8-.1,1.3-.1,2.3v5.7c0,1,0,1.6.1,2.3h-2.4v-1c0-.3,0-.3,0-.8-1,1.4-2,1.9-3.7,1.9s-1.6-.2-2.2-.5c-1-.6-1.5-1.6-1.5-3.1v-4.6c0-1,0-1.7-.1-2.3h2.6c-.1.8-.1,1.4-.1,2.3v4c0,1,.3,1.7.8,2.1.3.1.6.3,1,.3,1.3,0,2.3-.9,3.1-2.7v-3.6c0-.9,0-1.6-.1-2.3ZM219.2,210.1h2.6c0,.6-.1,1.4-.1,2.2v.6h.8c.8,0,1.2,0,1.8-.1v2.1c-.6,0-.9-.1-1.8-.1h-.8v5.6c0,.9.3,1.2,1.2,1.2s.8,0,1.3-.4l.3,1.9c-.8.3-1.3.4-2.2.4-2.1,0-2.9-.7-2.9-2.6v-6h-.7c-.7,0-1,0-1.6.1v-2.1c.5,0,.9.1,1.6.1h.7v-.6c0-.8,0-1.6-.1-2.2ZM225.8,208.9h2.6v2.3h-2.6v-2.3ZM225.8,212.9h2.6c0,.7-.1,1.3-.1,2.4v5.6c0,1,0,1.6.1,2.4h-2.6c.1-.8.1-1.4.1-2.3v-5.7c0-1,0-1.6-.1-2.3ZM235.6,223.6c-3.3,0-5.4-2.1-5.4-5.5s2.1-5.5,5.4-5.5,5.3,2.1,5.3,5.5-2.1,5.5-5.3,5.5ZM235.6,214.4c-1.9,0-3,1.4-3,3.6s1.2,3.6,3,3.6,3-1.3,3-3.5-1.1-3.7-3-3.7ZM245.3,223.2h-2.6c.1-.8.1-1.3.1-2.3v-5.7c0-1,0-1.6-.1-2.3h2.4v1c0,.3,0,.3,0,.8,1.1-1.4,2.1-1.9,3.7-1.9s2.4.5,3.1,1.3c.4.6.6,1.3.6,2.5v4.3c0,1,0,1.7.1,2.3h-2.6c0-.8.1-1.4.1-2.3v-4c0-.8,0-1.2-.3-1.6-.3-.5-.8-.7-1.5-.7-1.3,0-2.4.9-3.1,2.7v3.6c0,.9,0,1.6.1,2.3Z"/>
</svg>