<?xml version="1.0" encoding="UTF-8"?>
<svg id="Calque_1" xmlns="http://www.w3.org/2000/svg" version="1.1" xmlns:xlink="http://www.w3.org/1999/xlink" viewBox="0 0 160 152.5">
  <!-- Generator: Adobe Illustrator 29.0.1, SVG Export Plug-In . SVG Version: 2.1.0 Build 192)  -->
  <defs>
    <style>
      .st0 {
        stroke: #ea5b0b;
        stroke-width: 3px;
      }

      .st0, .st1 {
        fill: none;
      }

      .st2 {
        fill: #ea5b0b;
      }

      .st3 {
        clip-path: url(#clippath);
      }
    </style>
    <clipPath id="clippath">
      <rect class="st1" x="34" y="29" width="92" height="99"/>
    </clipPath>
  </defs>
  <circle class="st0" cx="80" cy="77" r="75.5"/>
  <g class="st3">
    <g>
      <path class="st2" d="M113.6,53.3c.9.3,2-.2,2.3-1.1.8-2.4.5-5.1-.8-7.3-1.3-2.2-3.5-3.8-6-4.3-.1,0-.3,0-.4,0-.8,0-1.6.6-1.8,1.4,0,.5,0,.9.3,1.3.3.4.7.7,1.1.8,1.5.3,2.8,1.3,3.6,2.6.8,1.3.9,3,.5,4.4-.3.9.2,2,1.1,2.3h0Z"/>
      <path class="st2" d="M122,54.7c.2.4.6.7,1.1.8.5.1.9,0,1.4-.2.4-.2.7-.6.9-1.1,1.4-4.9.7-10-1.8-14.4-2.5-4.4-6.7-7.5-11.6-8.8-.2,0-.3,0-.5,0,0,0,0,0,0,0-.8,0-1.5.6-1.7,1.3-.1.5,0,.9.2,1.4.2.4.6.7,1.1.8,4,1,7.3,3.5,9.4,7.1,2.1,3.6,2.6,7.7,1.5,11.6-.1.5,0,.9.2,1.4h0Z"/>
      <path class="st2" d="M116.8,73.3c.2-.5.2-1.1-.1-1.5l-24.3-41.9c-.3-.5-.7-.8-1.3-.9-.1,0-.3,0-.4,0h0c-.4,0-.7.2-1,.5l-34.9,31.2s0,0-.1,0l-13.2,7.6c-7.4,4.2-9.7,14-5.1,21.8,3.3,5.6,9.4,8.9,15.6,8.3,0,0,0,0,0,0,.2,0,.4.1.5.3l16.5,28.4c.5.9,1.6,1.2,2.5.7l8.4-4.8c.6-.3.9-.9.9-1.6l-1-34.8c0-.3.2-.5.4-.6l35.6-11.6c.5-.2.9-.6,1.1-1.1ZM50.5,94.9c-1.2,0-2.4-.2-3.6-.6-3.1-1-5.8-3.1-7.4-6.1-3.5-6.1-1.8-13.6,3.8-16.9l11.3-6.5c0,0,.1,0,.2,0,.3,0,.6,0,.7.3l12.1,20.9c.2.3,0,.7-.2.9l-11.3,6.5c-1.7,1-3.6,1.5-5.5,1.5h0ZM76.8,120.5l-5.1,2.9c0,0-.2,0-.3,0-.2,0-.4-.1-.5-.3l-14.6-25.2c0-.2-.1-.3,0-.5,0-.2.2-.3.3-.4.4-.2.9-.4,1.2-.6l13.3-7.6s0,0,.1,0l4.1-1.4c.2,0,.4,0,.6,0,.2.1.3.3.3.5l1,31.9c0,.2-.1.4-.3.6h0ZM102.7,74.6c0,.2-.2.3-.4.4l-30.6,10c0,0-.1,0-.2,0-.2,0-.4-.1-.5-.3l-12.6-21.7c-.1-.3,0-.6.1-.8l24-21.4c0,0,.2-.2.4-.2.3,0,.5.1.7.3l19.2,33.1c0,.2.1.4,0,.5ZM112.1,71.5c0,.2-.2.3-.4.4l-4.7,1.5c0,0-.1,0-.2,0-.2,0-.4-.1-.5-.3l-20.3-34.9c-.1-.3,0-.6.1-.8l3.7-3.3c.1-.1.3-.2.5-.2.2,0,.3.1.4.3l21.3,36.7c0,.2.1.4,0,.5h0Z"/>
    </g>
  </g>
</svg>