<svg width="154" height="154" viewBox="0 0 154 154" fill="none" xmlns="http://www.w3.org/2000/svg">
<g clip-path="url(#clip0_2268_2846)">
<path fill-rule="evenodd" clip-rule="evenodd" d="M36.4615 88.3481C36.4049 89.225 35.6473 89.8789 34.7864 89.8244L29.1608 89.4504C28.2925 89.3909 27.6358 88.638 27.6948 87.7636C27.7514 86.8892 28.4967 86.2229 29.3699 86.2873L34.9954 86.6613C35.8637 86.7183 36.5205 87.4738 36.4615 88.3481ZM39.7896 71.7006C39.5092 72.5378 38.6138 72.9737 37.7971 72.6963L32.4545 70.8856C31.6305 70.6082 31.1877 69.7091 31.4656 68.8793C31.7436 68.052 32.6365 67.6062 33.4605 67.8836L38.8032 69.6942C39.6272 69.9716 40.07 70.8708 39.792 71.7006H39.7896ZM121.548 70.8856L116.205 72.6963C115.389 72.9737 114.491 72.5378 114.21 71.7006C113.935 70.8708 114.375 69.9716 115.199 69.6942L120.542 67.8836C121.366 67.6062 122.259 68.0471 122.537 68.8793C122.815 69.7091 122.372 70.6082 121.548 70.8856ZM128 106.549C128 107.426 127.294 108.132 126.423 108.132L120.785 108.122C119.917 108.122 119.214 107.408 119.214 106.536C119.214 105.662 119.92 104.954 120.79 104.954L126.428 104.964C127.297 104.964 128 105.677 128 106.549ZM124.837 89.4504L119.211 89.8244C118.35 89.8789 117.595 89.225 117.539 88.3481C117.482 87.4738 118.139 86.7183 119.005 86.6613L124.63 86.2873C125.498 86.2279 126.246 86.8917 126.305 87.7636C126.362 88.6355 125.705 89.3909 124.839 89.4504H124.837ZM39.2583 49.2421C39.8043 48.5634 40.7956 48.4569 41.4721 49.0067L45.8579 52.5736C47.0115 53.5148 46.34 55.3923 44.869 55.3923C44.5222 55.3923 44.1729 55.2759 43.8802 55.0406L39.4944 51.4738C38.818 50.9239 38.7122 49.9232 39.2583 49.2445V49.2421ZM75.4245 39.2624V33.5852C75.4245 32.7109 76.128 32 76.9988 32C77.8695 32 78.573 32.7109 78.573 33.5852V39.2624C78.573 40.1393 77.8695 40.8477 76.9988 40.8477C76.128 40.8477 75.4245 40.1393 75.4245 39.2624ZM93.9172 43.6565L95.7596 38.2915C96.0424 37.4642 96.9403 37.0257 97.7618 37.3106C98.5834 37.5979 99.0188 38.4995 98.7359 39.3268L96.8935 44.6944C96.6057 45.5316 95.7005 45.9551 94.8913 45.6752C94.0697 45.3904 93.6343 44.4888 93.9172 43.659V43.6565ZM107.906 54.8003C107.36 54.1216 107.466 53.1234 108.142 52.5711L112.528 49.0043C113.204 48.4544 114.196 48.5609 114.742 49.2396C115.288 49.9207 115.182 50.9189 114.506 51.4688L110.12 55.0356C109.446 55.583 108.455 55.484 107.908 54.7979L107.906 54.8003ZM34.7839 106.534C34.7839 107.408 34.0829 108.119 33.2121 108.119L27.5718 108.129C26.706 108.132 26 107.423 26 106.549C26 105.674 26.701 104.964 27.5718 104.964L33.2121 104.954C34.0804 104.954 34.7839 105.662 34.7864 106.536L34.7839 106.534ZM55.2641 39.3243C54.9812 38.497 55.4166 37.5954 56.2382 37.3081C57.0597 37.0233 57.9551 37.4617 58.2404 38.289L60.0828 43.6541C60.4395 44.6944 59.6622 45.757 58.5946 45.757C57.9428 45.757 57.3328 45.3458 57.1065 44.6894L55.2666 39.3219L55.2641 39.3243ZM99.7026 99.8338C100.052 100.805 99.4001 101.85 98.3792 101.954L87.2979 103.069C85.3153 103.272 83.4606 102.239 82.5677 100.443L78.8289 92.9156C78.7255 92.7076 78.5657 92.6085 78.3369 92.6085H75.6557C75.427 92.6085 75.2671 92.7076 75.1638 92.9156L71.4249 100.443C70.5271 102.251 68.6601 103.267 66.6947 103.069L55.6134 101.954C54.595 101.85 53.9407 100.805 54.29 99.8338L58.6315 87.8131C58.9292 86.9908 59.8319 86.5672 60.6486 86.8645C61.4652 87.1642 61.8858 88.0732 61.5882 88.8956L57.9379 99.0015L67.0071 99.918C67.6983 99.9873 68.296 99.6529 68.6084 99.0288L72.3473 91.5013C72.9869 90.2133 74.2217 89.443 75.6533 89.443H78.3344C79.766 89.443 81.0008 90.2133 81.6404 91.5013L85.3793 99.0288C85.6892 99.6554 86.2894 99.9873 86.9806 99.918L96.0474 99.0015L92.397 88.8956C92.0994 88.0707 92.5225 87.1642 93.3391 86.8645C94.1558 86.5672 95.0585 86.9908 95.3562 87.8131L99.6977 99.8338H99.7026ZM108.843 108.075C109.534 107.143 109.716 106.108 109.389 104.993L102.566 81.8065C101.572 78.4304 98.913 76.1021 95.4546 75.5819C88.8426 74.5813 83.5689 73.7094 76.8807 73.7094C70.1925 73.7094 64.84 74.6258 58.5405 75.5819C55.0821 76.1046 52.423 78.4329 51.4293 81.8065L44.6058 104.993C43.9441 107.25 45.5947 109.479 47.9315 109.479H73.282C74.4627 109.479 75.4245 108.511 75.4245 107.322V101.711C75.4245 100.837 76.128 100.126 76.9988 100.126C77.8695 100.126 78.573 100.837 78.573 101.711V107.319C78.573 108.508 79.5348 109.477 80.7155 109.477H106.066C107.22 109.477 108.154 109.006 108.846 108.075H108.843ZM95.9883 117.366C95.9883 118.173 95.3365 118.829 94.5346 118.829H59.4654C58.6635 118.829 58.0117 118.173 58.0117 117.366V112.647H73.2845C74.7308 112.647 76.0444 112.06 76.9988 111.109C77.9556 112.06 79.2667 112.647 80.713 112.647H95.9859V117.366H95.9883ZM66.6332 60.101C66.6332 54.3446 71.2822 49.6607 76.9988 49.6607C82.7153 49.6607 87.3643 54.3446 87.3643 60.101C87.3643 65.8574 82.7153 70.5364 76.9988 70.5364C71.2822 70.5364 66.6332 65.855 66.6332 60.101ZM105.584 80.9049C104.234 76.3176 100.623 73.1545 95.9219 72.4436C92.2667 71.8913 88.6459 71.3216 85.121 70.9674C88.3925 68.483 90.5128 64.5372 90.5128 60.101C90.5128 52.5958 84.4519 46.4926 77.0012 46.4926C69.5505 46.4926 63.4896 52.5958 63.4896 60.101C63.4896 64.5323 65.605 68.4731 68.8692 70.9575C65.364 71.3142 61.7112 71.8938 58.0781 72.4436C53.3799 73.1545 49.7665 76.3151 48.416 80.9049L41.5926 104.092C40.3332 108.374 43.5014 112.647 47.9364 112.647H54.8656V117.366C54.8656 119.919 56.9294 122 59.4654 122H94.5346C97.0706 122 99.1344 119.922 99.1344 117.366V112.647H106.064C110.499 112.647 113.667 108.377 112.407 104.092L105.584 80.9049Z" fill="url(#paint0_linear_2268_2846)"/>
</g>
<circle cx="77" cy="77" r="75.5" stroke="url(#paint1_linear_2268_2846)" stroke-width="3"/>
<defs>
<linearGradient id="paint0_linear_2268_2846" x1="99.1535" y1="52.2833" x2="58.6244" y2="111.485" gradientUnits="userSpaceOnUse">
<stop stop-color="#F39200"/>
<stop offset="0.33" stop-color="#EA5B0B"/>
<stop offset="0.635" stop-color="#D60B51"/>
<stop offset="1" stop-color="#A11881"/>
</linearGradient>
<linearGradient id="paint1_linear_2268_2846" x1="110.447" y1="34.707" x2="38.3914" y2="127.578" gradientUnits="userSpaceOnUse">
<stop stop-color="#F39200"/>
<stop offset="0.33" stop-color="#EA5B0B"/>
<stop offset="0.635" stop-color="#D60B51"/>
<stop offset="1" stop-color="#A11881"/>
</linearGradient>
<clipPath id="clip0_2268_2846">
<rect width="102" height="90" fill="white" transform="translate(26 32)"/>
</clipPath>
</defs>
</svg>
