<svg width="61" height="60" viewBox="0 0 61 60" fill="none" xmlns="http://www.w3.org/2000/svg">
<circle cx="30.5" cy="30" r="30" fill="white"/>
<g clip-path="url(#clip0_2270_4495)">
<path fill-rule="evenodd" clip-rule="evenodd" d="M14.7058 34.4216C14.6837 34.7632 14.3886 35.018 14.0531 34.9968L11.8614 34.851C11.5231 34.8279 11.2672 34.5345 11.2902 34.1938C11.3122 33.8532 11.6026 33.5936 11.9428 33.6187L14.1346 33.7644C14.4729 33.7866 14.7288 34.0809 14.7058 34.4216ZM16.0024 27.9355C15.8932 28.2617 15.5443 28.4316 15.2262 28.3235L13.1446 27.618C12.8236 27.5099 12.6511 27.1596 12.7594 26.8363C12.8677 26.514 13.2155 26.3403 13.5366 26.4484L15.6181 27.1538C15.9392 27.2619 16.1117 27.6122 16.0034 27.9355H16.0024ZM47.8564 27.618L45.7748 28.3235C45.4566 28.4316 45.1068 28.2617 44.9976 27.9355C44.8902 27.6122 45.0618 27.2619 45.3828 27.1538L47.4644 26.4484C47.7854 26.3403 48.1333 26.5121 48.2416 26.8363C48.3499 27.1596 48.1774 27.5099 47.8564 27.618ZM50.3701 41.5128C50.3701 41.8544 50.0951 42.1294 49.7558 42.1294L47.5593 42.1256C47.221 42.1256 46.9469 41.8476 46.9469 41.5079C46.9469 41.1673 47.2219 40.8913 47.5612 40.8913L49.7577 40.8951C50.096 40.8951 50.3701 41.1731 50.3701 41.5128ZM49.1377 34.851L46.9459 34.9968C46.6105 35.018 46.3163 34.7632 46.2942 34.4216C46.2722 34.0809 46.5281 33.7866 46.8654 33.7644L49.0572 33.6187C49.3955 33.5955 49.6868 33.8541 49.7098 34.1938C49.7319 34.5335 49.476 34.8279 49.1386 34.851H49.1377ZM15.7954 19.1855C16.0082 18.921 16.3944 18.8795 16.658 19.0938L18.3667 20.4834C18.8162 20.8502 18.5545 21.5817 17.9815 21.5817C17.8463 21.5817 17.7102 21.5363 17.5962 21.4446L15.8874 20.055C15.6239 19.8407 15.5827 19.4508 15.7954 19.1864V19.1855ZM29.8862 15.2973V13.0854C29.8862 12.7447 30.1603 12.4678 30.4995 12.4678C30.8388 12.4678 31.1129 12.7447 31.1129 13.0854V15.2973C31.1129 15.6389 30.8388 15.9149 30.4995 15.9149C30.1603 15.9149 29.8862 15.6389 29.8862 15.2973ZM37.0911 17.0093L37.8089 14.919C37.9191 14.5967 38.2689 14.4259 38.589 14.5368C38.9091 14.6488 39.0788 15.0001 38.9685 15.3224L38.2507 17.4136C38.1386 17.7398 37.7859 17.9048 37.4706 17.7958C37.1505 17.6848 36.9809 17.3335 37.0911 17.0102V17.0093ZM42.5413 21.351C42.3286 21.0866 42.3698 20.6977 42.6333 20.4825L44.3421 19.0928C44.6056 18.8786 44.9918 18.9201 45.2046 19.1845C45.4173 19.4499 45.3761 19.8388 45.1126 20.053L43.4038 21.4427C43.1412 21.656 42.755 21.6174 42.5423 21.3501L42.5413 21.351ZM14.0522 41.507C14.0522 41.8476 13.779 42.1246 13.4398 42.1246L11.2423 42.1285C10.9049 42.1294 10.6299 41.8534 10.6299 41.5128C10.6299 41.1721 10.903 40.8951 11.2423 40.8951L13.4398 40.8913C13.7781 40.8913 14.0522 41.1673 14.0531 41.5079L14.0522 41.507ZM22.0315 15.3214C21.9213 14.9991 22.0909 14.6478 22.411 14.5359C22.7311 14.4249 23.0799 14.5957 23.1911 14.918L23.9089 17.0083C24.0479 17.4136 23.745 17.8276 23.3291 17.8276C23.0751 17.8276 22.8375 17.6674 22.7493 17.4117L22.0324 15.3204L22.0315 15.3214ZM39.3452 38.8965C39.4813 39.2748 39.2273 39.6821 38.8296 39.7226L34.5122 40.1569C33.7397 40.236 33.0171 39.8336 32.6693 39.1339L31.2126 36.2011C31.1723 36.1201 31.11 36.0815 31.0209 36.0815H29.9763C29.8871 36.0815 29.8248 36.1201 29.7846 36.2011L28.3279 39.1339C27.9781 39.8384 27.2507 40.2341 26.485 40.1569L22.1676 39.7226C21.7708 39.6821 21.5159 39.2748 21.652 38.8965L23.3435 34.2131C23.4594 33.8928 23.8111 33.7277 24.1293 33.8435C24.4475 33.9603 24.6114 34.3145 24.4954 34.6349L23.0732 38.5723L26.6067 38.9293C26.876 38.9563 27.1089 38.8261 27.2306 38.5829L28.6873 35.6501C28.9364 35.1483 29.4175 34.8481 29.9753 34.8481H31.0199C31.5777 34.8481 32.0588 35.1483 32.308 35.6501L33.7647 38.5829C33.8854 38.827 34.1193 38.9563 34.3885 38.9293L37.9211 38.5723L36.4989 34.6349C36.3829 34.3135 36.5477 33.9603 36.8659 33.8435C37.1841 33.7277 37.5358 33.8928 37.6518 34.2131L39.3433 38.8965H39.3452ZM42.9064 42.1072C43.1757 41.7444 43.2467 41.341 43.1192 40.9067L40.4607 31.8729C40.0735 30.5576 39.0375 29.6504 37.6901 29.4478C35.114 29.0579 33.0593 28.7182 30.4535 28.7182C27.8478 28.7182 25.7624 29.0752 23.308 29.4478C21.9606 29.6514 20.9246 30.5585 20.5374 31.8729L17.8789 40.9067C17.6211 41.7859 18.2642 42.6544 19.1746 42.6544H29.0515C29.5115 42.6544 29.8862 42.2771 29.8862 41.8138V39.628C29.8862 39.2874 30.1603 39.0104 30.4995 39.0104C30.8388 39.0104 31.1129 39.2874 31.1129 39.628V41.8129C31.1129 42.2761 31.4876 42.6534 31.9476 42.6534H41.8245C42.2739 42.6534 42.6381 42.4701 42.9074 42.1072H42.9064ZM37.8981 45.7271C37.8981 46.0417 37.6441 46.2974 37.3317 46.2974H23.6684C23.3559 46.2974 23.102 46.0417 23.102 45.7271V43.8887H29.0524C29.6159 43.8887 30.1277 43.66 30.4995 43.2894C30.8723 43.66 31.3831 43.8887 31.9467 43.8887H37.8971V45.7271H37.8981ZM26.461 23.4162C26.461 21.1734 28.2723 19.3485 30.4995 19.3485C32.7268 19.3485 34.5381 21.1734 34.5381 23.4162C34.5381 25.659 32.7268 27.482 30.4995 27.482C28.2723 27.482 26.461 25.658 26.461 23.4162ZM41.6366 31.5216C41.1105 29.7344 39.7036 28.502 37.8722 28.225C36.4481 28.0098 35.0374 27.7879 33.664 27.6499C34.9386 26.6819 35.7648 25.1446 35.7648 23.4162C35.7648 20.4921 33.4034 18.1143 30.5005 18.1143C27.5976 18.1143 25.2362 20.4921 25.2362 23.4162C25.2362 25.1427 26.0604 26.6781 27.3322 27.646C25.9665 27.785 24.5433 28.0108 23.1278 28.225C21.2974 28.502 19.8895 29.7334 19.3634 31.5216L16.7049 40.5554C16.2142 42.224 17.4486 43.8887 19.1765 43.8887H21.8762V45.7271C21.8762 46.7221 22.6803 47.5327 23.6684 47.5327H37.3317C38.3197 47.5327 39.1238 46.723 39.1238 45.7271V43.8887H41.8235C43.5514 43.8887 44.7858 42.225 44.2951 40.5554L41.6366 31.5216Z" fill="#EA5B0B"/>
</g>
<defs>
<clipPath id="clip0_2270_4495">
<rect width="39.7403" height="35.0649" fill="white" transform="translate(10.6299 12.4678)"/>
</clipPath>
</defs>
</svg>
