<?xml version="1.0" encoding="UTF-8"?>
<svg id="Calque_1" xmlns="http://www.w3.org/2000/svg" version="1.1" xmlns:xlink="http://www.w3.org/1999/xlink" viewBox="0 0 152.7 152.5">
  <!-- Generator: Adobe Illustrator 29.0.1, SVG Export Plug-In . SVG Version: 2.1.0 Build 192)  -->
  <defs>
    <style>
      .st0 {
        stroke: #f3b634;
        stroke-width: 3px;
      }

      .st0, .st1 {
        fill: none;
      }

      .st2 {
        fill: #f3b634;
      }

      .st3 {
        clip-path: url(#clippath);
      }
    </style>
    <clipPath id="clippath">
      <rect class="st1" x="27.2" y="45" width="103" height="65"/>
    </clipPath>
  </defs>
  <circle class="st0" cx="77.2" cy="77" r="75.5"/>
  <g class="st3">
    <path class="st2" d="M126.5,49.8h-3.9c-1.7,0-3.2,1.2-3.6,2.8-9.6-.6-16-3.1-22.6-6.7-2.7-1.4-5.9-1.1-8.1,1l-11.6,10.5c-2.3-.6-4.7-1-7.1-1-13,0-24.2,9.3-26.6,21.8-8.7,0-15.7,7-15.7,15.6s7.1,15.6,15.7,15.6,8.1-1.7,10.9-4.4c4.6,3.2,10,5,15.7,5,13.5,0,24.8-9.9,26.8-22.7h13c3.5,0,7-1,10-2.7.6,1.2,1.9,2,3.3,2h3.9c2,0,3.7-1.6,3.7-3.7v-29.5c0-2-1.7-3.7-3.7-3.7h0ZM69.5,59.5c6,0,11.6,2.2,16,6.1l-2.3,1.3c-.6.4-1.2.8-1.6,1.2-3.4-2.7-7.7-4.2-12.1-4.2s-9.9,1.9-13.6,5.5c-3,2.9-4.9,6.6-5.6,10.6-1.3-.7-2.8-1.2-4.3-1.5,2.2-10.9,12-19,23.5-19h0ZM85.7,81.3c0,.6.1,1.3.1,1.9,0,8.9-7.3,16.1-16.3,16.1s-7.9-1.5-10.9-4.2c0-.4,0-.9,0-1.4,0-4.7-2.1-8.9-5.4-11.7.6-8.3,7.7-15,16.3-15s7.5,1.3,10.4,3.7c-.9,2.1-.8,4.6.5,6.8,1.2,2,3.2,3.3,5.3,3.7h0ZM42.9,106.3c-6.9,0-12.6-5.6-12.6-12.5s5.7-12.5,12.6-12.5,12.6,5.6,12.6,12.5-5.6,12.5-12.6,12.5ZM69.5,106.9c-5,0-9.6-1.5-13.6-4.2.9-1.2,1.5-2.6,2-4,3.3,2.5,7.4,3.8,11.6,3.8,10.7,0,19.4-8.6,19.4-19.2s0-1.3,0-1.9c.8-.2,1.6-.4,2.3-.9l2-1.1c.2,1.3.3,2.6.3,3.9,0,13.1-10.7,23.7-23.9,23.7h0ZM96.6,84.2c0-.3,0-.6,0-.9,0-1.9-.2-3.7-.6-5.6l11.9-6.8c.8-.4,1-1.4.6-2.1-.4-.7-1.4-1-2.1-.6l-16.7,9.6c-2.3,1.3-5.2.5-6.5-1.7-1.3-2.2-.5-5.1,1.7-6.4l11.3-6.5c.8-.4,1-1.4.6-2.1-.4-.7-1.4-1-2.1-.6l-6.2,3.5c-2.4-2.3-5.3-4.2-8.3-5.5l10.3-9.4c1.3-1.1,3-1.4,4.5-.5,7,3.8,13.8,6.4,24,7.1v25.4c-2.8,2-6.1,3.1-9.6,3.1h-12.7ZM127.1,82.9c0,.3-.3.6-.6.6h-3.9c-.3,0-.6-.3-.6-.6v-29.5c0-.3.3-.6.6-.6h3.9c.3,0,.6.3.6.6v29.5ZM75.8,87.5c0,2.9-1.9,5.1-4.7,5.7v1.5c0,.9-.7,1.6-1.6,1.6s-1.6-.7-1.6-1.6v-1.6c-2.5-.7-4.3-2.9-4.3-5.6s.7-1.6,1.6-1.6,1.6.7,1.6,1.6c0,1.5,1.2,2.7,2.8,2.7s3.2-.7,3.2-2.7-1.7-2.7-3.2-2.7c-3.7,0-6.3-2.5-6.3-5.8s1.9-5.1,4.7-5.7v-1.5c0-.9.7-1.6,1.6-1.6s1.6.7,1.6,1.6v1.6c2.5.7,4.3,2.9,4.3,5.6s-.7,1.6-1.6,1.6-1.6-.7-1.6-1.6c0-1.5-1.2-2.7-2.8-2.7s-3.2.7-3.2,2.7,1.7,2.7,3.2,2.7c3.7,0,6.3,2.5,6.3,5.8ZM49.4,89.6l-10.7,10.6c-.3.3-.7.5-1.1.5s-.8-.2-1.1-.5c-.6-.6-.6-1.6,0-2.2l10.7-10.6c.6-.6,1.6-.6,2.2,0,.6.6.6,1.6,0,2.2h0ZM42.5,89.1c0-2.4-1.9-4.3-4.3-4.3s-4.3,1.9-4.3,4.3,1.9,4.3,4.3,4.3,4.3-1.9,4.3-4.3ZM37,89.1c0-.7.5-1.2,1.2-1.2s1.2.5,1.2,1.2-.5,1.2-1.2,1.2-1.2-.5-1.2-1.2ZM47.7,94.2c-2.4,0-4.3,1.9-4.3,4.3s1.9,4.3,4.3,4.3,4.3-1.9,4.3-4.3c0-2.4-1.9-4.3-4.3-4.3ZM47.7,99.7c-.7,0-1.2-.5-1.2-1.2s.5-1.2,1.2-1.2,1.2.5,1.2,1.2c0,.7-.5,1.2-1.2,1.2Z"/>
  </g>
  <path d="M19.7,181.9h2.7c-.1.7-.1,1.2-.1,2.3v8.1c0,1.3-.3,2.3-1,3-.8.8-2,1.3-3.5,1.3s-2.8-.4-3.7-1.3c-.4-.4-.6-.8-1-1.7l2.4-.9c.3.8.5,1.2,1,1.5.3.2.9.3,1.3.3s1.2-.2,1.6-.6c.3-.3.4-.8.4-1.6v-8c0-1.1,0-1.6-.1-2.3ZM32.1,185.9h2.6c-.1.8-.1,1.3-.1,2.3v5.7c0,1,0,1.6.1,2.3h-2.4v-1c0-.3,0-.3,0-.8-1,1.4-2,1.9-3.7,1.9s-1.6-.2-2.2-.5c-1-.6-1.5-1.6-1.5-3.1v-4.6c0-1,0-1.7-.1-2.3h2.6c-.1.8-.1,1.4-.1,2.3v4c0,1,.3,1.7.8,2.1.3.1.6.3,1,.3,1.3,0,2.3-.9,3.1-2.7v-3.6c0-.9,0-1.6-.1-2.3ZM36.5,193.3l2.5-.3c.3,1.2,1,1.7,2.4,1.7s2.2-.5,2.2-1.4-.2-.7-.5-.9c-.3-.2-.4-.3-1.9-.6-1.4-.3-2-.5-2.6-.8-1-.5-1.6-1.3-1.6-2.4s.2-1.2.6-1.7c.7-.9,2-1.4,3.6-1.4s2.6.4,3.4,1c.5.4.7.9,1,1.8l-2.4.3c-.2-1-.8-1.4-2-1.4s-1.9.5-1.9,1.3.2.6.6.8c.4.2.8.3,1.8.5,1.8.4,2.6.6,3.2,1.1.7.5,1,1.2,1,2.2s-.3,1.5-.9,2c-.8.8-2.1,1.2-3.7,1.2s-3.2-.6-4-1.6c-.3-.4-.5-.8-.7-1.6ZM55.6,185.9h2.4c0,.8-.1,1.4-.1,2.4v9.1c0,.9,0,1.5.1,2.4h-2.5c0-.8.1-1.3.1-2.4v-1.4c0-.3,0-.7,0-1.4-.9,1.2-2.1,1.7-3.7,1.7s-2.6-.4-3.4-1.3c-.9-.9-1.4-2.3-1.4-4s.8-3.8,2.2-4.7c.7-.4,1.7-.7,2.7-.7,1.5,0,2.8.6,3.6,1.7,0-.3,0-.4,0-.6v-.8ZM49.5,191c0,2.1,1.1,3.4,2.8,3.4s2.3-.6,2.8-1.6c.3-.5.4-1.2.4-1.9,0-1.9-1.3-3.3-3.1-3.3s-3,1.4-3,3.5ZM67.6,185.9h2.6c-.1.8-.1,1.3-.1,2.3v5.7c0,1,0,1.6.1,2.3h-2.4v-1c0-.3,0-.3,0-.8-1,1.4-2,1.9-3.7,1.9s-1.6-.2-2.2-.5c-1-.6-1.5-1.6-1.5-3.1v-4.6c0-1,0-1.7-.1-2.3h2.6c-.1.8-.1,1.4-.1,2.3v4c0,1,.3,1.7.8,2.1.3.1.6.3,1,.3,1.3,0,2.3-.9,3.1-2.7v-3.6c0-.9,0-1.6-.1-2.3ZM72.3,181.9h2.2l-.4,4.8h-1.5l-.4-4.8ZM83.5,196.2v-1.2c-.7.7-1.2.9-1.9,1.1-.5.1-1.1.2-1.7.2-2.2,0-3.5-1.1-3.5-3s.8-2.4,2-2.9c1.2-.5,2.5-.7,5.1-.7v-.9c0-1-.7-1.6-2.1-1.6s-1.5.2-1.9.5c-.3.3-.5.5-.7,1.2l-2.3-.4c.4-1,.7-1.5,1.4-2,.9-.6,1.9-.9,3.4-.9s2.8.3,3.5,1.1c.6.6.8,1.3.8,2.5v4.8c0,1,0,1.4.1,2.2h-2.4ZM83.5,192.2v-.9c-3.4,0-4.8.7-4.8,2.1s.6,1.4,1.6,1.4,1.9-.4,2.5-1c.4-.4.6-1,.6-1.6ZM78.3,182.5l1.6-1.6,3.1,3.3-.8.8-3.9-2.5ZM94,193.4l2.5-.6c.2.5.3.8.6,1,.5.5,1.2.7,2.1.7s1.5-.2,2-.7c.9-.9,1.3-2.2,1.4-4.3-.3.5-.5.7-1,1-.8.6-1.7.8-2.9.8-3,0-4.9-1.8-4.9-4.7s.8-3.3,2.3-4.2c.8-.5,1.9-.8,3.2-.8,2.3,0,4.2,1.3,4.9,3.5.3,1,.5,2.2.5,3.7,0,2.7-.7,5.1-1.9,6.2-1,1-2.1,1.4-3.8,1.4s-2.6-.3-3.5-1c-.6-.5-1-1-1.5-2ZM99,189.4c1.8,0,3.1-1.3,3.1-2.9s-1.2-2.9-3-2.9-2.9,1.2-2.9,3,1.1,2.9,2.9,2.9ZM112.1,196.5c-1.5,0-2.8-.5-3.8-1.5-.5-.5-1-1.2-1.2-1.8-.5-1.3-.7-2.7-.7-4.1s.4-3.9,1.1-5c1-1.6,2.6-2.5,4.6-2.5s2.8.5,3.8,1.5c.5.5,1,1.2,1.2,1.8.5,1.3.7,2.7.7,4.2,0,2.2-.5,4.2-1.3,5.3-1,1.4-2.5,2.1-4.4,2.1ZM112.1,194.4c.8,0,1.5-.3,1.9-.8.8-.8,1.3-2.5,1.3-4.6s-.4-3.7-1.3-4.6c-.4-.5-1.2-.8-2-.8s-1.5.3-2,.9c-.8.9-1.2,2.4-1.2,4.4s.3,3.5.9,4.3c.6.8,1.3,1.2,2.3,1.2ZM120.8,195.9l11.3-14.5.9.7-11.3,14.5-.9-.7ZM131.2,196.5c-1,0-1.8-.3-2.4-.9-.7-.7-1-1.7-1-3.1s.4-2.4,1-3.1c.6-.6,1.5-.9,2.4-.9s1.8.3,2.4.9c.7.7,1,1.7,1,3.1s-.4,2.4-1,3.1c-.6.6-1.4.9-2.4.9ZM131.2,190c-.5,0-.9.2-1.2.6-.3.5-.5,1.1-.5,1.9,0,1.7.6,2.6,1.6,2.6s1.6-.9,1.6-2.6-.2-1.4-.5-1.8c-.3-.4-.6-.6-1.2-.6ZM122.7,189.7c-1,0-1.8-.3-2.4-.9-.7-.7-1-1.8-1-3.1,0-2.5,1.3-4,3.5-4s1.8.3,2.4.9c.7.7,1,1.7,1,3.1s-.4,2.4-1,3.1c-.6.6-1.4.9-2.4.9ZM122.7,183.1c-1,0-1.6.9-1.6,2.4s.6,2.6,1.6,2.6,1.6-.9,1.6-2.5-.1-1.3-.3-1.7c-.3-.6-.7-.8-1.3-.8ZM8.5,223.2v-.9c0-.2,0-.4,0-.6-.9,1.3-1.9,1.8-3.6,1.8s-2.2-.3-3-.9c-1.2-.9-1.9-2.6-1.9-4.5,0-3.3,1.9-5.4,4.9-5.4s2,.3,2.7.8c.3.3.5.5.9,1q0-.2,0-.6c0-.1,0-.5,0-.8v-1.8c0-1.1,0-1.7-.1-2.4h2.5c0,.9-.1,1.5-.1,2.4v9.5c0,1.1,0,1.6.1,2.4h-2.4ZM2.3,218c0,2.1,1.2,3.5,3,3.5s1.9-.5,2.4-1.2c.5-.6.7-1.5.7-2.4s-.3-1.8-.9-2.4c-.6-.6-1.5-1-2.3-1-1.7,0-2.9,1.4-2.9,3.5ZM22.8,218.6h-7.8c0,1,.3,1.5.7,2,.5.6,1.3,1,2.2,1s1.6-.3,2.2-.9c.2-.3.3-.5.5-.9l2.1.7c-.4.9-.6,1.2-1.1,1.7-.9.9-2.2,1.4-3.7,1.4-3.2,0-5.2-2.1-5.2-5.5s2-5.5,5.1-5.5,3.8,1,4.5,2.8c.3.9.5,1.5.5,2.7,0,0,0,0,0,.5ZM15,216.9h5.4c-.1-.8-.3-1.3-.8-1.7-.5-.5-1.1-.7-1.9-.7-1.4,0-2.4.9-2.7,2.4ZM40,215.8l-2.2.5c-.2-.6-.3-.8-.6-1.1-.4-.5-1.1-.8-1.9-.8-1.8,0-2.9,1.4-2.9,3.6s1.1,3.6,2.9,3.6,1.6-.4,2.1-1c.2-.3.3-.4.4-.9l2.2.5c-.3.7-.4,1.1-.8,1.5-.9,1.2-2.2,1.8-4,1.8-3.2,0-5.2-2.1-5.2-5.5s.5-3.1,1.5-4.2c.9-.9,2.1-1.4,3.6-1.4s3.2.7,4,1.9c.2.4.4.6.6,1.3ZM46.8,223.6c-3.3,0-5.4-2.1-5.4-5.5s2.1-5.5,5.4-5.5,5.3,2.1,5.3,5.5-2.1,5.5-5.3,5.5ZM46.8,214.4c-1.9,0-3,1.4-3,3.6s1.2,3.6,3,3.6,3-1.3,3-3.5-1.1-3.7-3-3.7ZM56.4,223.2h-2.5c0-.8.1-1.4.1-2.3v-5.7c0-1.1,0-1.7-.1-2.3h2.4v.9c0,.1,0,.4,0,.7.5-1.1,1.9-1.8,3.3-1.8s1.8.3,2.3.8c.3.3.5.5.7,1.1.6-.8,1-1.1,1.5-1.4.6-.3,1.2-.5,2-.5,1.2,0,2.1.4,2.7,1,.6.6.8,1.5.8,2.7v4.4c0,1,0,1.6.1,2.3h-2.6c.1-.7.1-1.3.1-2.3v-4c0-1.6-.6-2.3-1.8-2.3s-1,.2-1.5.5c-.6.5-.9,1.1-1.1,2.2v3.6c0,1,0,1.6.1,2.3h-2.6c.1-.8.1-1.3.1-2.3v-4c0-1.5-.6-2.3-1.7-2.3s-1.4.3-1.9.9c-.4.5-.6.9-.8,1.8v3.6c0,1,0,1.5.1,2.3ZM74.6,223.2h-2.5c0-.8.1-1.4.1-2.3v-5.7c0-1.1,0-1.7-.1-2.3h2.4v.9c0,.1,0,.4,0,.7.5-1.1,1.9-1.8,3.3-1.8s1.8.3,2.3.8c.3.3.5.5.7,1.1.6-.8,1-1.1,1.5-1.4.6-.3,1.2-.5,2-.5,1.2,0,2.1.4,2.7,1,.6.6.8,1.5.8,2.7v4.4c0,1,0,1.6.1,2.3h-2.6c.1-.7.1-1.3.1-2.3v-4c0-1.6-.6-2.3-1.8-2.3s-1,.2-1.5.5c-.6.5-.9,1.1-1.1,2.2v3.6c0,1,0,1.6.1,2.3h-2.6c.1-.8.1-1.3.1-2.3v-4c0-1.5-.6-2.3-1.7-2.3s-1.4.3-1.9.9c-.4.5-.6.9-.8,1.8v3.6c0,1,0,1.5.1,2.3ZM90.3,208.9h2.6v2.3h-2.6v-2.3ZM90.3,212.9h2.6c0,.7-.1,1.3-.1,2.4v5.6c0,1,0,1.6.1,2.4h-2.6c.1-.8.1-1.4.1-2.3v-5.7c0-1,0-1.6-.1-2.3ZM94.7,220.3l2.5-.3c.3,1.2,1,1.7,2.4,1.7s2.2-.5,2.2-1.4-.2-.7-.5-.9c-.3-.2-.5-.3-1.9-.6-1.4-.3-2-.5-2.6-.8-1-.5-1.6-1.3-1.6-2.4s.2-1.2.6-1.7c.7-.9,2-1.4,3.6-1.4s2.6.4,3.4,1c.5.4.7.9,1,1.8l-2.4.3c-.2-1-.8-1.4-2-1.4s-1.9.5-1.9,1.3.2.6.6.8c.4.2.8.3,1.8.5,1.8.4,2.6.6,3.2,1.1.7.5,1,1.2,1,2.2s-.3,1.5-.9,2c-.8.8-2.1,1.2-3.7,1.2s-3.2-.6-4-1.6c-.3-.4-.5-.8-.7-1.6ZM105.4,220.3l2.5-.3c.3,1.2,1,1.7,2.4,1.7s2.2-.5,2.2-1.4-.2-.7-.5-.9c-.3-.2-.4-.3-1.9-.6-1.4-.3-2-.5-2.6-.8-1-.5-1.6-1.3-1.6-2.4s.2-1.2.6-1.7c.7-.9,2-1.4,3.6-1.4s2.6.4,3.4,1c.5.4.7.9,1,1.8l-2.4.3c-.2-1-.8-1.4-2-1.4s-1.9.5-1.9,1.3.2.6.6.8c.4.2.8.3,1.8.5,1.8.4,2.6.6,3.2,1.1.7.5,1,1.2,1,2.2s-.3,1.5-.9,2c-.8.8-2.1,1.2-3.7,1.2s-3.2-.6-4-1.6c-.3-.4-.5-.8-.7-1.6ZM116.5,208.9h2.6v2.3h-2.6v-2.3ZM116.5,212.9h2.6c0,.7-.1,1.3-.1,2.4v5.6c0,1,0,1.6.1,2.4h-2.6c.1-.8.1-1.4.1-2.3v-5.7c0-1,0-1.6-.1-2.3ZM126.3,223.6c-3.3,0-5.4-2.1-5.4-5.5s2.1-5.5,5.4-5.5,5.3,2.1,5.3,5.5-2.1,5.5-5.3,5.5ZM126.3,214.4c-1.9,0-3,1.4-3,3.6s1.2,3.6,3,3.6,3-1.3,3-3.5-1.1-3.7-3-3.7ZM136,223.2h-2.6c.1-.8.1-1.3.1-2.3v-5.7c0-1,0-1.6-.1-2.3h2.4v1c0,.3,0,.3,0,.8,1.1-1.4,2.1-1.9,3.7-1.9s2.4.5,3.1,1.3c.4.6.6,1.3.6,2.5v4.3c0,1,0,1.7.1,2.3h-2.6c0-.8.1-1.4.1-2.3v-4c0-.8,0-1.2-.3-1.6-.3-.5-.8-.7-1.5-.7-1.3,0-2.4.9-3.2,2.7v3.6c0,.9,0,1.6.1,2.3ZM145.1,220.3l2.5-.3c.3,1.2,1,1.7,2.4,1.7s2.2-.5,2.2-1.4-.2-.7-.5-.9c-.3-.2-.4-.3-1.9-.6-1.4-.3-2-.5-2.6-.8-1-.5-1.6-1.3-1.6-2.4s.2-1.2.6-1.7c.7-.9,2-1.4,3.6-1.4s2.6.4,3.4,1c.5.4.7.9,1,1.8l-2.4.3c-.2-1-.8-1.4-2-1.4s-1.9.5-1.9,1.3.2.6.6.8c.4.2.8.3,1.8.5,1.8.4,2.6.6,3.2,1.1.7.5,1,1.2,1,2.2s-.3,1.5-.9,2c-.8.8-2.1,1.2-3.7,1.2s-3.2-.6-4-1.6c-.3-.4-.5-.8-.7-1.6Z"/>
</svg>