<svg width="31" height="30" viewBox="0 0 31 30" fill="none" xmlns="http://www.w3.org/2000/svg">
<rect width="31" height="30" fill="#5C5C5C"/>
<g id="MAQ_page vente immo 1440px" clip-path="url(#clip0_0_1)">
<rect width="1440" height="4262" transform="translate(-1044 -1532)" fill="white"/>
<g id="Group 220">
<path id="Rectangle 108" d="M-64 -492H276V281C276 314.137 249.137 341 216 341H-64V-492Z" fill="url(#paint0_linear_0_1)" fill-opacity="0.06"/>
</g>
<g id="Frame 393">
<g id="Group 391">
<g id="ph:phone-fill">
<path id="Vector" d="M22.4447 28.3502H22.4417C11.4428 28.3502 2.49132 19.3988 2.49132 8.39984L2.49132 8.39688C2.48836 6.74761 3.08587 5.15366 4.17223 3.91274C5.25653 2.67417 6.75382 1.87183 8.38536 1.65483C8.54406 1.63673 8.70445 1.66977 8.84314 1.74921C8.98355 1.82964 9.09419 1.95333 9.15854 2.10181L9.16254 2.11105L9.16666 2.12023L12.1905 8.87101V8.87854L12.3266 9.19252C12.3759 9.30618 12.3962 9.43026 12.3859 9.5537C12.3762 9.6688 12.34 9.77998 12.2804 9.87865L9.18031 13.5535L8.48472 14.3781L8.96104 15.346C10.2486 17.9624 12.9056 20.5927 15.5436 21.8775L16.5136 22.3499L17.3353 21.6507L20.9603 18.5664C21.0604 18.503 21.1743 18.4642 21.2925 18.4533C21.411 18.4424 21.5305 18.4598 21.6408 18.5041L21.6415 18.5044L21.65 18.5082L28.7166 21.6748L28.7273 21.6796L28.7382 21.6843C28.8869 21.7484 29.0109 21.8589 29.0916 21.9994C29.1712 22.138 29.2045 22.2983 29.1866 22.4571C28.9694 24.0883 28.1671 25.5852 26.9288 26.6693C25.6879 27.7557 24.0939 28.3532 22.4447 28.3502Z" stroke="#EA5B0B" stroke-width="3.3"/>
</g>
</g>
</g>
</g>
<defs>
<linearGradient id="paint0_linear_0_1" x1="179.845" y1="-304.267" x2="-151.743" y2="-129.828" gradientUnits="userSpaceOnUse">
<stop stop-color="#F39200"/>
<stop offset="0.33" stop-color="#EA5B0B"/>
<stop offset="0.635" stop-color="#D60B51"/>
<stop offset="1" stop-color="#A11881"/>
</linearGradient>
<clipPath id="clip0_0_1">
<rect width="1440" height="4262" fill="white" transform="translate(-1044 -1532)"/>
</clipPath>
</defs>
</svg>
