<svg width="81" height="87" viewBox="0 0 81 87" fill="none" xmlns="http://www.w3.org/2000/svg">
<g id="Calque_1" clip-path="url(#clip0_2374_3876)">
<path id="Vector" fill-rule="evenodd" clip-rule="evenodd" d="M39.8565 8.86127H37.4966V11.2309C37.4966 12.6574 35.3049 12.6574 35.3049 11.2309V8.86127H32.9239C31.4681 8.86127 31.4681 6.6837 32.9239 6.6837H35.3049L35.3086 4.31402C35.3086 2.88751 37.5004 2.88751 37.5004 4.31402V6.6837H39.8602C41.3085 6.67998 41.3085 8.86127 39.8565 8.86127Z" fill="white"/>
<path id="Vector_2" fill-rule="evenodd" clip-rule="evenodd" d="M22.966 36.2749H20.585V38.6198C20.585 40.0686 18.3932 40.0686 18.3932 38.6198V36.2749H16.0334C14.5813 36.2749 14.5813 34.075 16.0334 34.075H18.3932V31.7264C18.3932 30.2813 20.585 30.2813 20.585 31.7264V34.075H22.9635C24.4193 34.075 24.4193 36.2749 22.9673 36.2749H22.966Z" fill="white"/>
<path id="Vector_3" fill-rule="evenodd" clip-rule="evenodd" d="M59.7991 49.334H57.418V51.7012C57.418 53.124 55.23 53.124 55.23 51.7012V49.334H52.8701C51.4144 49.334 51.4144 47.1527 52.8701 47.1527H55.23V44.783C55.23 43.3379 57.418 43.3379 57.418 44.783V47.1527H59.7991C61.2548 47.1527 61.2548 49.334 59.7991 49.334Z" fill="white"/>
<path id="Vector_4" fill-rule="evenodd" clip-rule="evenodd" d="M71.2559 23.1352H68.8749V25.5024C68.8749 26.9512 66.6831 26.9512 66.6831 25.5024V23.1352H64.3233C62.8675 23.1352 62.8675 20.9539 64.3233 20.9539H66.6831V18.6053C66.6831 17.1602 68.8749 17.1602 68.8749 18.6053V20.9539H71.2559C72.7079 20.9576 72.7079 23.1352 71.2559 23.1352Z" fill="white"/>
<path id="Vector_5" fill-rule="evenodd" clip-rule="evenodd" d="M9.15075 58.6598H6.79462V61.0047C6.79462 62.4535 4.60287 62.4535 4.60287 61.0047V58.6598H2.22184C0.769804 58.6598 0.769804 56.46 2.22184 56.46H4.60287V54.1151C4.60287 52.67 6.79462 52.67 6.79462 54.1151V56.46H9.15075C10.6065 56.46 10.6065 58.6598 9.15075 58.6598Z" fill="white"/>
<path id="Vector_6" fill-rule="evenodd" clip-rule="evenodd" d="M73.7601 62.18H71.3791V64.5286C71.3791 65.9774 69.1873 65.9774 69.1873 64.5286V62.18H66.8312C65.3792 62.18 65.3792 59.9987 66.8312 59.9987H69.1873V57.6315C69.1873 56.1827 71.3791 56.1827 71.3791 57.6315V59.9987H73.7601C75.2159 59.9987 75.2159 62.18 73.7601 62.18Z" fill="white"/>
<path id="Vector_7" fill-rule="evenodd" clip-rule="evenodd" d="M16.31 69.5781C15.4059 69.5781 14.6475 70.3156 14.6475 71.2327C14.6475 72.1498 15.4059 72.891 16.31 72.891C17.214 72.891 17.9949 72.1573 17.9949 71.2327C17.9949 70.3081 17.2365 69.5781 16.31 69.5781Z" fill="white"/>
<path id="Vector_8" fill-rule="evenodd" clip-rule="evenodd" d="M16.2269 46.2754C15.3004 46.2754 14.5645 47.0302 14.5645 47.9523C14.5645 48.8743 15.3017 49.6068 16.2269 49.6068C17.1522 49.6068 17.9118 48.8731 17.9118 47.9523C17.9118 47.0314 17.1535 46.2754 16.2269 46.2754Z" fill="white"/>
<path id="Vector_9" fill-rule="evenodd" clip-rule="evenodd" d="M53.2884 8.75781C52.3619 8.75781 51.6035 9.51259 51.6035 10.4124C51.6035 11.3122 52.3619 12.0892 53.2884 12.0892C54.2149 12.0892 54.9509 11.3345 54.9509 10.4124C54.9546 9.51259 54.1963 8.75781 53.2884 8.75781Z" fill="white"/>
<path id="Vector_10" fill-rule="evenodd" clip-rule="evenodd" d="M71.9466 38.3301C71.0238 38.3301 70.2617 39.0849 70.2617 40.0069C70.2617 40.929 71.0201 41.6615 71.9466 41.6615C72.8731 41.6615 73.6128 40.9067 73.6128 40.0069C73.6128 39.1072 72.8719 38.3301 71.9466 38.3301Z" fill="white"/>
<path id="Vector_11" fill-rule="evenodd" clip-rule="evenodd" d="M53.4603 58.6602C52.5338 58.6602 51.7979 59.4149 51.7979 60.337C51.7979 61.2591 52.5351 61.9916 53.4603 61.9916C54.3856 61.9916 55.1452 61.2579 55.1452 60.337C55.1452 59.4162 54.3831 58.6602 53.4603 58.6602Z" fill="white"/>
<path id="Vector_12" fill-rule="evenodd" clip-rule="evenodd" d="M26.4408 60.9238C25.5143 60.9238 24.7783 61.6786 24.7783 62.6007C24.7783 63.5228 25.5155 64.2552 26.4408 64.2552C27.3661 64.2552 28.1257 63.5215 28.1257 62.6007C28.122 61.6749 27.3673 60.9238 26.4408 60.9238Z" fill="white"/>
<path id="Vector_13" d="M40.1083 15.168C36.1058 15.168 32.8506 18.4176 32.8506 22.4108C32.8481 24.3455 33.604 26.1636 34.9763 27.5331C36.3487 28.9014 38.1706 29.6549 40.1083 29.6549C44.1219 29.6549 47.3859 26.4053 47.3859 22.4121C47.3859 18.4188 44.1207 15.1692 40.1083 15.1692V15.168ZM40.1083 27.6707C38.7036 27.6707 37.3823 27.1242 36.386 26.1314C35.3898 25.1374 34.8406 23.8163 34.8431 22.4108C34.8431 19.5107 37.2054 17.151 40.1083 17.151C43.0111 17.151 45.3934 19.5107 45.3934 22.4108C45.3934 25.311 43.0223 27.6707 40.1083 27.6707Z" fill="white"/>
<path id="Vector_14" fill-rule="evenodd" clip-rule="evenodd" d="M20.0376 23.2816C20.0812 23.1986 20.1211 23.1143 20.1659 23.0312H19.0277C18.9841 23.1143 18.9442 23.1986 18.8994 23.2816H20.0376Z" fill="white"/>
<path id="Vector_15" fill-rule="evenodd" clip-rule="evenodd" d="M79.0014 79.0349H58.7016V72.1998C58.7016 71.5938 58.2159 71.0893 57.607 71.0893H48.7839V40.8897L59.6269 27.5937C63.0988 23.3179 56.6356 18.1014 53.16 22.3562L45.8114 31.3874H34.418L27.0694 22.3562C26.6934 21.8951 26.2301 21.5394 25.7233 21.2891C24.5851 18.5017 25.133 16.3229 26.2301 13.7029C26.7992 12.2801 27.3895 10.8536 27.915 9.40849C28.7793 6.97685 28.1703 4.27627 26.336 2.45068C23.7245 -0.125966 19.5341 -0.148275 16.9015 2.38871C15.0049 4.23289 14.3735 7.04254 15.3 9.51384C15.8255 10.918 16.3946 12.3012 16.9625 13.7066C18.5204 17.4991 18.6038 19.932 16.2253 23.536C15.6562 24.3962 15.9115 25.4459 16.9837 25.4459H19.7009C19.7806 26.197 20.0808 26.9517 20.605 27.6024L31.4517 40.8909V71.0906H22.6287C22.016 71.0906 21.5091 71.595 21.5091 72.2011V79.0362H1.23299C0.624029 79.0362 0.117188 79.5158 0.117188 80.1467V84.5898C0.117188 86.0126 2.30893 86.0126 2.30893 84.5898V81.2137H21.5104L21.5141 84.5898C21.5141 86.0386 23.7245 86.0386 23.7245 84.5898V73.2719H56.5123V84.5898C56.5123 86.0386 58.7003 86.0386 58.7003 84.5898V81.2137H77.9242V84.5898C77.9242 86.0126 80.116 86.0126 80.116 84.5898V80.1467C80.116 79.5183 79.6128 79.0362 79.0002 79.0362L79.0014 79.0349ZM17.0684 7.16895C17.0684 4.67534 19.0895 2.66385 21.5951 2.66385C24.1006 2.66385 26.1255 4.67534 26.1255 7.16895C26.1255 9.66256 24.0795 11.6741 21.5951 11.6741C19.1107 11.6741 17.0684 9.66008 17.0684 7.16895ZM19.1543 13.3906C19.6798 13.6013 20.2078 13.724 20.752 13.7897C20.5627 14.418 20.3111 15.0241 20.0596 15.6115C20.016 15.6772 19.9973 15.7603 19.9537 15.8433C19.7645 15.0042 19.4718 14.185 19.1555 13.3893L19.1543 13.3906ZM19.8691 20.8751C19.9089 20.7698 19.9313 20.6644 19.9525 20.5814C21.1567 18.4212 22.4182 16.0726 23.0483 13.6843C23.3659 13.6223 23.7009 13.517 24.0147 13.3943C23.0259 15.9065 22.5627 18.1708 23.2999 20.8751H19.8678H19.8691ZM46.5922 40.5129V71.0893H41.2012V54.6975C41.2012 53.2524 39.0095 53.2524 39.0095 54.6975V71.0819H33.641V40.5055C33.641 40.2365 33.5351 39.9825 33.367 39.7941L22.3124 26.2156C20.6673 24.2264 23.742 21.7514 25.3646 23.7443L32.9249 33.011C33.2425 33.4101 33.4317 33.5774 33.9784 33.5774L46.2921 33.5811C46.8213 33.5811 46.9882 33.4138 47.2622 33.0804L54.866 23.7517C56.4849 21.7588 59.5596 24.2313 57.9183 26.223L46.8637 39.8015C46.6918 40.0122 46.5897 40.2402 46.5897 40.5129H46.5922Z" fill="white"/>
</g>
<defs>
<clipPath id="clip0_2374_3876">
<rect width="80" height="86" fill="white" transform="translate(0.117188 0.5)"/>
</clipPath>
</defs>
</svg>
