<svg width="61" height="60" viewBox="0 0 61 60" fill="none" xmlns="http://www.w3.org/2000/svg">
<circle cx="30.5" cy="30" r="30" fill="white"/>
<g clip-path="url(#clip0_2270_4446)">
<mask id="path-2-outside-1_2270_4446" maskUnits="userSpaceOnUse" x="10.4551" y="10.4258" width="40" height="39" fill="black">
<rect fill="white" x="10.4551" y="10.4258" width="40" height="39"/>
<path d="M36.6561 43.4029L48.1851 43.4527L48.2347 42.4073C48.2347 42.0921 47.9203 41.727 47.5562 41.7823L37.2795 41.6773C36.965 41.6773 36.6561 41.9925 36.6561 42.3023V43.4029ZM40.3575 22.0147L36.8106 16.102C36.2865 16.2569 35.9225 16.6773 36.0273 17.2525C36.0273 17.4627 36.1321 17.6728 36.2865 17.9328L39.0502 22.5899C39.4198 22.2746 39.8886 22.1197 40.3575 22.0147ZM46.3592 40.8421L48.1851 34.4593C48.8636 31.9483 48.7091 31.4781 47.7659 29.0722C46.7729 26.3012 45.6807 23.5301 44.3734 20.8587L38.6365 12.966C37.6987 11.7105 35.768 12.6009 36.7609 14.2713L41.5049 22.1142C42.2882 22.3742 42.9115 23.0545 43.1212 24.2602C43.4356 26.2458 43.7445 28.237 44.0589 30.2226C44.7374 31.2182 45.3111 32.2635 45.6752 33.4638C45.8296 34.039 44.947 34.2989 44.7871 33.7237C44.6823 33.3587 44.0038 31.6828 43.2756 30.6928C43.226 30.643 43.1708 30.5877 43.1708 30.4826C42.8564 28.4416 42.5475 26.456 42.233 24.4151C41.869 22.164 39.2101 22.7392 39.155 24.2602L39.0502 31.6883C39.0502 32.2635 38.8406 32.7337 38.6309 33.3089C38.1069 34.5091 37.3787 36.185 38.4765 40.7868L46.3592 40.8421ZM24.3438 43.4029V42.3023C24.3438 41.987 24.0294 41.6773 23.7205 41.6773L13.4437 41.7823C13.0797 41.7326 12.7652 42.0976 12.7652 42.4073L12.8149 43.4527L24.3438 43.4029ZM20.6424 22.0147C21.1113 22.1197 21.5802 22.2746 21.9443 22.5899L24.7079 17.9328C24.8624 17.6728 24.9672 17.4627 24.9672 17.2525C25.072 16.6773 24.7079 16.2569 24.239 16.102L20.6424 22.0147ZM14.6408 40.8421L22.518 40.7923C23.6157 36.1905 22.882 34.5147 22.3635 33.3144C22.1539 32.7392 21.9443 32.2691 21.9443 31.6939L21.8395 24.2602C21.7898 22.7447 19.1255 22.1695 18.7614 24.4151C18.447 26.456 18.1381 28.4416 17.8236 30.4826C17.8236 30.5877 17.774 30.6374 17.7188 30.6928C16.9907 31.6883 16.3122 33.3587 16.2074 33.7237C16.0529 34.3045 15.1648 34.0445 15.3193 33.4693C15.6833 32.2691 16.257 31.2182 16.9355 30.2281C17.2499 28.2425 17.5589 26.2514 17.8733 24.2658C18.0829 23.0655 18.7614 22.3852 19.4895 22.1197L24.2335 14.2768C25.2264 12.6009 23.2958 11.716 22.358 12.9715L16.6211 20.8697C15.3193 23.5301 14.2767 26.3012 13.2341 29.0722C12.2963 31.4781 12.1364 31.9483 12.8149 34.4593L14.6408 40.8421ZM12.8149 44.3432C12.8149 45.0733 13.2341 45.3885 13.9126 45.5987L22.9868 47.9549C23.7702 48.1651 24.2887 47.5899 24.2887 46.8543L24.3383 44.2934L12.8149 44.3432ZM22.6228 23.6352C23.1468 22.8001 23.875 22.1197 24.9727 21.6994L25.4967 20.8642C25.7064 20.4439 25.8608 20.029 25.6512 19.6087C25.5464 19.3487 25.3368 19.1883 25.0775 19.0832L22.5235 23.3697C22.5731 23.4804 22.6228 23.5301 22.6228 23.6352ZM36.0273 21.6994C37.125 22.1197 37.8531 22.8001 38.3772 23.6352C38.3772 23.5301 38.4268 23.4804 38.482 23.3753L35.928 19.0888C35.6687 19.1939 35.4591 19.3487 35.3543 19.6142C35.1447 20.0346 35.3046 20.4494 35.5087 20.8697L36.0273 21.6994ZM26.2249 21.3841C27.6867 21.2293 29.303 21.7492 30.5 23.1596C31.697 21.7492 33.3188 21.2237 34.7751 21.3841L34.7254 21.3343C34.3614 20.654 34.2014 19.8686 34.571 19.1883C34.7254 18.768 35.0399 18.508 35.4039 18.2978C35.2495 17.9826 35.1447 17.6728 35.0895 17.3576C34.9847 16.4671 35.5087 15.6319 36.2865 15.2669L35.9776 14.7414C34.3614 12.0755 37.8035 10.195 39.3701 12.3908L45.107 20.3388C45.1401 20.372 45.1567 20.407 45.1567 20.4439C46.5137 23.1098 47.5562 25.9361 48.654 28.7569C49.6469 31.3731 49.851 31.893 49.0732 34.6695L47.297 40.8421C48.2899 40.8421 49.1228 41.3122 49.1228 42.4129L49.0732 44.7138C49.0236 45.654 48.1851 46.2292 47.297 46.4892L38.2227 48.8454C36.8657 49.2104 35.8232 48.2204 35.7735 46.8598L35.7239 42.3631C35.8287 41.2127 36.5072 40.7923 37.5498 40.7923C36.452 36.0854 37.2353 34.2547 37.809 32.9494C37.9635 32.529 38.1731 32.0589 38.1731 31.6441V29.4981C38.0683 29.7082 37.9635 29.9184 37.809 30.1231C36.1928 32.6341 33.2691 34.7248 30.7648 36.2956C30.6103 36.4007 30.4007 36.4505 30.2407 36.3454C27.7915 34.7248 24.8182 32.6341 23.1965 30.1231C23.042 29.9129 22.9372 29.7027 22.8324 29.4981V31.6441C22.8324 32.0644 23.042 32.5346 23.1965 32.9494C23.7702 34.2547 24.5535 36.0854 23.4557 40.7923C24.4983 40.7923 25.1768 41.2127 25.2816 42.3631L25.232 46.8598C25.1823 48.2204 24.1342 49.216 22.7827 48.8454L13.703 46.4892C12.8149 46.2292 11.9819 45.654 11.9268 44.7138L11.8771 42.4129C11.8771 41.3122 12.7101 40.8421 13.703 40.8421L11.9323 34.6695C11.149 31.8985 11.3586 31.3731 12.3515 28.7569C13.4492 25.9306 14.4918 23.1098 15.8488 20.4439C15.8488 20.4107 15.8654 20.3756 15.8985 20.3388L21.6354 12.3908C23.2516 10.195 26.6386 12.0755 25.0223 14.7414L24.7079 15.2669C25.4912 15.6319 26.0098 16.4671 25.9049 17.3576C25.8553 17.6728 25.7505 17.9826 25.5905 18.2978C25.9546 18.508 26.269 18.768 26.4786 19.1883C26.7931 19.8686 26.6331 20.654 26.269 21.3343L26.2249 21.3841ZM36.292 28.0821C36.0328 28.6076 35.1943 28.237 35.4591 27.6618C36.0328 26.5113 35.9831 24.6806 34.3117 24.6308C33.738 24.6308 33.738 23.7403 34.3614 23.7403C36.7058 23.7403 37.1746 26.2514 36.292 28.0821ZM34.3614 30.5932C33.9421 31.0135 33.3188 30.383 33.738 29.9682C33.9973 29.7082 34.2621 29.393 34.5213 29.133C34.8854 28.6629 35.5639 29.2381 35.1998 29.7082C34.935 30.018 34.6703 30.3277 34.3614 30.5932ZM30.0311 40.2116C29.9263 40.3664 29.8215 40.5268 29.8215 40.6817V44.0279C29.8215 44.1828 29.9263 44.393 30.0311 44.4981C30.4503 44.9184 31.1785 44.6031 31.1785 44.0279V40.6817C31.1785 40.112 30.4503 39.7967 30.0311 40.2116ZM31.6474 39.5865C31.9066 39.8465 32.1162 40.2669 32.1162 40.6872V44.0335C32.1162 44.4538 31.9066 44.8686 31.6474 45.1341C31.024 45.7591 29.9759 45.7591 29.4022 45.1341C29.0878 44.8742 28.9334 44.4538 28.9334 44.0335V40.6872C28.9334 40.2669 29.0878 39.852 29.4022 39.5865C29.9759 38.9615 31.024 38.9615 31.6474 39.5865ZM33.578 36.9206C33.214 36.9206 32.8996 37.1806 32.8996 37.6009C32.8996 37.7558 32.9492 37.9162 33.054 38.0213L34.5655 39.6419C34.7199 39.7469 34.8799 39.852 35.0343 39.852C35.3984 39.852 35.7128 39.5368 35.7128 39.1717C35.7128 39.0169 35.6632 38.8565 35.5584 38.7016L34.0469 37.1308C33.8925 36.9704 33.7325 36.9206 33.578 36.9206ZM33.578 35.9804C33.9973 35.9804 34.411 36.1905 34.7254 36.5058L36.1872 38.0766C36.5017 38.3919 36.6561 38.8067 36.6561 39.227C36.6065 40.1175 35.8728 40.7978 35.0399 40.7425C34.6206 40.7425 34.2069 40.5877 33.9421 40.2724L32.3755 38.7016C32.1162 38.3366 31.9563 37.9715 31.9563 37.5512C32.0114 36.6551 32.6899 35.9804 33.578 35.9804ZM27.4219 36.9206C27.786 36.9206 28.1004 37.1806 28.1004 37.6009C28.1004 37.7558 28.0508 37.9162 27.946 38.0213L26.4345 39.6419C26.28 39.7469 26.1201 39.852 25.9656 39.852C25.6015 39.852 25.2871 39.5368 25.2871 39.1717C25.2871 39.0169 25.3368 38.8565 25.4416 38.7016L26.953 37.1308C27.1075 36.9704 27.2675 36.9206 27.4219 36.9206ZM27.4219 35.9804C27.0027 35.9804 26.589 36.1905 26.2745 36.5058L24.8127 38.0766C24.4983 38.3919 24.3438 38.8067 24.3438 39.227C24.3935 40.1175 25.1272 40.7978 25.9601 40.7425C26.3793 40.7425 26.7931 40.5877 27.0578 40.2724L28.6245 38.7016C28.8837 38.3366 29.0437 37.9715 29.0437 37.5512C28.9885 36.6551 28.31 35.9804 27.4219 35.9804ZM30.1359 24.1607C29.0382 22.5899 27.4771 22.1197 26.1201 22.3299C25.8608 22.3797 25.6512 22.435 25.4416 22.5401C25.232 22.6452 25.0223 22.7503 24.8182 22.7503C22.4683 24.0058 22.369 27.1972 23.9301 29.6031C25.4416 31.904 28.2052 33.8897 30.5 35.4107C32.7947 33.8952 35.5584 31.904 37.0698 29.6031C38.6365 27.247 38.5813 24.0058 36.1817 22.8056C36.0273 22.7558 35.7625 22.6507 35.5584 22.5456C35.3488 22.4405 35.1392 22.3908 34.8799 22.3355C33.5229 22.1253 31.9563 22.5954 30.8641 24.1662C30.7096 24.4206 30.2904 24.4206 30.1359 24.1662V24.1607ZM48.1851 44.3432L36.6561 44.2934L36.7058 46.8543C36.7058 47.5843 37.2298 48.1596 38.0076 47.9549L47.0818 45.5987C47.7658 45.3941 48.1851 45.0788 48.1851 44.3432Z"/>
</mask>
<path d="M36.6561 43.4029L48.1851 43.4527L48.2347 42.4073C48.2347 42.0921 47.9203 41.727 47.5562 41.7823L37.2795 41.6773C36.965 41.6773 36.6561 41.9925 36.6561 42.3023V43.4029ZM40.3575 22.0147L36.8106 16.102C36.2865 16.2569 35.9225 16.6773 36.0273 17.2525C36.0273 17.4627 36.1321 17.6728 36.2865 17.9328L39.0502 22.5899C39.4198 22.2746 39.8886 22.1197 40.3575 22.0147ZM46.3592 40.8421L48.1851 34.4593C48.8636 31.9483 48.7091 31.4781 47.7659 29.0722C46.7729 26.3012 45.6807 23.5301 44.3734 20.8587L38.6365 12.966C37.6987 11.7105 35.768 12.6009 36.7609 14.2713L41.5049 22.1142C42.2882 22.3742 42.9115 23.0545 43.1212 24.2602C43.4356 26.2458 43.7445 28.237 44.0589 30.2226C44.7374 31.2182 45.3111 32.2635 45.6752 33.4638C45.8296 34.039 44.947 34.2989 44.7871 33.7237C44.6823 33.3587 44.0038 31.6828 43.2756 30.6928C43.226 30.643 43.1708 30.5877 43.1708 30.4826C42.8564 28.4416 42.5475 26.456 42.233 24.4151C41.869 22.164 39.2101 22.7392 39.155 24.2602L39.0502 31.6883C39.0502 32.2635 38.8406 32.7337 38.6309 33.3089C38.1069 34.5091 37.3787 36.185 38.4765 40.7868L46.3592 40.8421ZM24.3438 43.4029V42.3023C24.3438 41.987 24.0294 41.6773 23.7205 41.6773L13.4437 41.7823C13.0797 41.7326 12.7652 42.0976 12.7652 42.4073L12.8149 43.4527L24.3438 43.4029ZM20.6424 22.0147C21.1113 22.1197 21.5802 22.2746 21.9443 22.5899L24.7079 17.9328C24.8624 17.6728 24.9672 17.4627 24.9672 17.2525C25.072 16.6773 24.7079 16.2569 24.239 16.102L20.6424 22.0147ZM14.6408 40.8421L22.518 40.7923C23.6157 36.1905 22.882 34.5147 22.3635 33.3144C22.1539 32.7392 21.9443 32.2691 21.9443 31.6939L21.8395 24.2602C21.7898 22.7447 19.1255 22.1695 18.7614 24.4151C18.447 26.456 18.1381 28.4416 17.8236 30.4826C17.8236 30.5877 17.774 30.6374 17.7188 30.6928C16.9907 31.6883 16.3122 33.3587 16.2074 33.7237C16.0529 34.3045 15.1648 34.0445 15.3193 33.4693C15.6833 32.2691 16.257 31.2182 16.9355 30.2281C17.2499 28.2425 17.5589 26.2514 17.8733 24.2658C18.0829 23.0655 18.7614 22.3852 19.4895 22.1197L24.2335 14.2768C25.2264 12.6009 23.2958 11.716 22.358 12.9715L16.6211 20.8697C15.3193 23.5301 14.2767 26.3012 13.2341 29.0722C12.2963 31.4781 12.1364 31.9483 12.8149 34.4593L14.6408 40.8421ZM12.8149 44.3432C12.8149 45.0733 13.2341 45.3885 13.9126 45.5987L22.9868 47.9549C23.7702 48.1651 24.2887 47.5899 24.2887 46.8543L24.3383 44.2934L12.8149 44.3432ZM22.6228 23.6352C23.1468 22.8001 23.875 22.1197 24.9727 21.6994L25.4967 20.8642C25.7064 20.4439 25.8608 20.029 25.6512 19.6087C25.5464 19.3487 25.3368 19.1883 25.0775 19.0832L22.5235 23.3697C22.5731 23.4804 22.6228 23.5301 22.6228 23.6352ZM36.0273 21.6994C37.125 22.1197 37.8531 22.8001 38.3772 23.6352C38.3772 23.5301 38.4268 23.4804 38.482 23.3753L35.928 19.0888C35.6687 19.1939 35.4591 19.3487 35.3543 19.6142C35.1447 20.0346 35.3046 20.4494 35.5087 20.8697L36.0273 21.6994ZM26.2249 21.3841C27.6867 21.2293 29.303 21.7492 30.5 23.1596C31.697 21.7492 33.3188 21.2237 34.7751 21.3841L34.7254 21.3343C34.3614 20.654 34.2014 19.8686 34.571 19.1883C34.7254 18.768 35.0399 18.508 35.4039 18.2978C35.2495 17.9826 35.1447 17.6728 35.0895 17.3576C34.9847 16.4671 35.5087 15.6319 36.2865 15.2669L35.9776 14.7414C34.3614 12.0755 37.8035 10.195 39.3701 12.3908L45.107 20.3388C45.1401 20.372 45.1567 20.407 45.1567 20.4439C46.5137 23.1098 47.5562 25.9361 48.654 28.7569C49.6469 31.3731 49.851 31.893 49.0732 34.6695L47.297 40.8421C48.2899 40.8421 49.1228 41.3122 49.1228 42.4129L49.0732 44.7138C49.0236 45.654 48.1851 46.2292 47.297 46.4892L38.2227 48.8454C36.8657 49.2104 35.8232 48.2204 35.7735 46.8598L35.7239 42.3631C35.8287 41.2127 36.5072 40.7923 37.5498 40.7923C36.452 36.0854 37.2353 34.2547 37.809 32.9494C37.9635 32.529 38.1731 32.0589 38.1731 31.6441V29.4981C38.0683 29.7082 37.9635 29.9184 37.809 30.1231C36.1928 32.6341 33.2691 34.7248 30.7648 36.2956C30.6103 36.4007 30.4007 36.4505 30.2407 36.3454C27.7915 34.7248 24.8182 32.6341 23.1965 30.1231C23.042 29.9129 22.9372 29.7027 22.8324 29.4981V31.6441C22.8324 32.0644 23.042 32.5346 23.1965 32.9494C23.7702 34.2547 24.5535 36.0854 23.4557 40.7923C24.4983 40.7923 25.1768 41.2127 25.2816 42.3631L25.232 46.8598C25.1823 48.2204 24.1342 49.216 22.7827 48.8454L13.703 46.4892C12.8149 46.2292 11.9819 45.654 11.9268 44.7138L11.8771 42.4129C11.8771 41.3122 12.7101 40.8421 13.703 40.8421L11.9323 34.6695C11.149 31.8985 11.3586 31.3731 12.3515 28.7569C13.4492 25.9306 14.4918 23.1098 15.8488 20.4439C15.8488 20.4107 15.8654 20.3756 15.8985 20.3388L21.6354 12.3908C23.2516 10.195 26.6386 12.0755 25.0223 14.7414L24.7079 15.2669C25.4912 15.6319 26.0098 16.4671 25.9049 17.3576C25.8553 17.6728 25.7505 17.9826 25.5905 18.2978C25.9546 18.508 26.269 18.768 26.4786 19.1883C26.7931 19.8686 26.6331 20.654 26.269 21.3343L26.2249 21.3841ZM36.292 28.0821C36.0328 28.6076 35.1943 28.237 35.4591 27.6618C36.0328 26.5113 35.9831 24.6806 34.3117 24.6308C33.738 24.6308 33.738 23.7403 34.3614 23.7403C36.7058 23.7403 37.1746 26.2514 36.292 28.0821ZM34.3614 30.5932C33.9421 31.0135 33.3188 30.383 33.738 29.9682C33.9973 29.7082 34.2621 29.393 34.5213 29.133C34.8854 28.6629 35.5639 29.2381 35.1998 29.7082C34.935 30.018 34.6703 30.3277 34.3614 30.5932ZM30.0311 40.2116C29.9263 40.3664 29.8215 40.5268 29.8215 40.6817V44.0279C29.8215 44.1828 29.9263 44.393 30.0311 44.4981C30.4503 44.9184 31.1785 44.6031 31.1785 44.0279V40.6817C31.1785 40.112 30.4503 39.7967 30.0311 40.2116ZM31.6474 39.5865C31.9066 39.8465 32.1162 40.2669 32.1162 40.6872V44.0335C32.1162 44.4538 31.9066 44.8686 31.6474 45.1341C31.024 45.7591 29.9759 45.7591 29.4022 45.1341C29.0878 44.8742 28.9334 44.4538 28.9334 44.0335V40.6872C28.9334 40.2669 29.0878 39.852 29.4022 39.5865C29.9759 38.9615 31.024 38.9615 31.6474 39.5865ZM33.578 36.9206C33.214 36.9206 32.8996 37.1806 32.8996 37.6009C32.8996 37.7558 32.9492 37.9162 33.054 38.0213L34.5655 39.6419C34.7199 39.7469 34.8799 39.852 35.0343 39.852C35.3984 39.852 35.7128 39.5368 35.7128 39.1717C35.7128 39.0169 35.6632 38.8565 35.5584 38.7016L34.0469 37.1308C33.8925 36.9704 33.7325 36.9206 33.578 36.9206ZM33.578 35.9804C33.9973 35.9804 34.411 36.1905 34.7254 36.5058L36.1872 38.0766C36.5017 38.3919 36.6561 38.8067 36.6561 39.227C36.6065 40.1175 35.8728 40.7978 35.0399 40.7425C34.6206 40.7425 34.2069 40.5877 33.9421 40.2724L32.3755 38.7016C32.1162 38.3366 31.9563 37.9715 31.9563 37.5512C32.0114 36.6551 32.6899 35.9804 33.578 35.9804ZM27.4219 36.9206C27.786 36.9206 28.1004 37.1806 28.1004 37.6009C28.1004 37.7558 28.0508 37.9162 27.946 38.0213L26.4345 39.6419C26.28 39.7469 26.1201 39.852 25.9656 39.852C25.6015 39.852 25.2871 39.5368 25.2871 39.1717C25.2871 39.0169 25.3368 38.8565 25.4416 38.7016L26.953 37.1308C27.1075 36.9704 27.2675 36.9206 27.4219 36.9206ZM27.4219 35.9804C27.0027 35.9804 26.589 36.1905 26.2745 36.5058L24.8127 38.0766C24.4983 38.3919 24.3438 38.8067 24.3438 39.227C24.3935 40.1175 25.1272 40.7978 25.9601 40.7425C26.3793 40.7425 26.7931 40.5877 27.0578 40.2724L28.6245 38.7016C28.8837 38.3366 29.0437 37.9715 29.0437 37.5512C28.9885 36.6551 28.31 35.9804 27.4219 35.9804ZM30.1359 24.1607C29.0382 22.5899 27.4771 22.1197 26.1201 22.3299C25.8608 22.3797 25.6512 22.435 25.4416 22.5401C25.232 22.6452 25.0223 22.7503 24.8182 22.7503C22.4683 24.0058 22.369 27.1972 23.9301 29.6031C25.4416 31.904 28.2052 33.8897 30.5 35.4107C32.7947 33.8952 35.5584 31.904 37.0698 29.6031C38.6365 27.247 38.5813 24.0058 36.1817 22.8056C36.0273 22.7558 35.7625 22.6507 35.5584 22.5456C35.3488 22.4405 35.1392 22.3908 34.8799 22.3355C33.5229 22.1253 31.9563 22.5954 30.8641 24.1662C30.7096 24.4206 30.2904 24.4206 30.1359 24.1662V24.1607ZM48.1851 44.3432L36.6561 44.2934L36.7058 46.8543C36.7058 47.5843 37.2298 48.1596 38.0076 47.9549L47.0818 45.5987C47.7658 45.3941 48.1851 45.0788 48.1851 44.3432Z" fill="#EA5B0B"/>
<path d="M36.6561 43.4029L48.1851 43.4527L48.2347 42.4073C48.2347 42.0921 47.9203 41.727 47.5562 41.7823L37.2795 41.6773C36.965 41.6773 36.6561 41.9925 36.6561 42.3023V43.4029ZM40.3575 22.0147L36.8106 16.102C36.2865 16.2569 35.9225 16.6773 36.0273 17.2525C36.0273 17.4627 36.1321 17.6728 36.2865 17.9328L39.0502 22.5899C39.4198 22.2746 39.8886 22.1197 40.3575 22.0147ZM46.3592 40.8421L48.1851 34.4593C48.8636 31.9483 48.7091 31.4781 47.7659 29.0722C46.7729 26.3012 45.6807 23.5301 44.3734 20.8587L38.6365 12.966C37.6987 11.7105 35.768 12.6009 36.7609 14.2713L41.5049 22.1142C42.2882 22.3742 42.9115 23.0545 43.1212 24.2602C43.4356 26.2458 43.7445 28.237 44.0589 30.2226C44.7374 31.2182 45.3111 32.2635 45.6752 33.4638C45.8296 34.039 44.947 34.2989 44.7871 33.7237C44.6823 33.3587 44.0038 31.6828 43.2756 30.6928C43.226 30.643 43.1708 30.5877 43.1708 30.4826C42.8564 28.4416 42.5475 26.456 42.233 24.4151C41.869 22.164 39.2101 22.7392 39.155 24.2602L39.0502 31.6883C39.0502 32.2635 38.8406 32.7337 38.6309 33.3089C38.1069 34.5091 37.3787 36.185 38.4765 40.7868L46.3592 40.8421ZM24.3438 43.4029V42.3023C24.3438 41.987 24.0294 41.6773 23.7205 41.6773L13.4437 41.7823C13.0797 41.7326 12.7652 42.0976 12.7652 42.4073L12.8149 43.4527L24.3438 43.4029ZM20.6424 22.0147C21.1113 22.1197 21.5802 22.2746 21.9443 22.5899L24.7079 17.9328C24.8624 17.6728 24.9672 17.4627 24.9672 17.2525C25.072 16.6773 24.7079 16.2569 24.239 16.102L20.6424 22.0147ZM14.6408 40.8421L22.518 40.7923C23.6157 36.1905 22.882 34.5147 22.3635 33.3144C22.1539 32.7392 21.9443 32.2691 21.9443 31.6939L21.8395 24.2602C21.7898 22.7447 19.1255 22.1695 18.7614 24.4151C18.447 26.456 18.1381 28.4416 17.8236 30.4826C17.8236 30.5877 17.774 30.6374 17.7188 30.6928C16.9907 31.6883 16.3122 33.3587 16.2074 33.7237C16.0529 34.3045 15.1648 34.0445 15.3193 33.4693C15.6833 32.2691 16.257 31.2182 16.9355 30.2281C17.2499 28.2425 17.5589 26.2514 17.8733 24.2658C18.0829 23.0655 18.7614 22.3852 19.4895 22.1197L24.2335 14.2768C25.2264 12.6009 23.2958 11.716 22.358 12.9715L16.6211 20.8697C15.3193 23.5301 14.2767 26.3012 13.2341 29.0722C12.2963 31.4781 12.1364 31.9483 12.8149 34.4593L14.6408 40.8421ZM12.8149 44.3432C12.8149 45.0733 13.2341 45.3885 13.9126 45.5987L22.9868 47.9549C23.7702 48.1651 24.2887 47.5899 24.2887 46.8543L24.3383 44.2934L12.8149 44.3432ZM22.6228 23.6352C23.1468 22.8001 23.875 22.1197 24.9727 21.6994L25.4967 20.8642C25.7064 20.4439 25.8608 20.029 25.6512 19.6087C25.5464 19.3487 25.3368 19.1883 25.0775 19.0832L22.5235 23.3697C22.5731 23.4804 22.6228 23.5301 22.6228 23.6352ZM36.0273 21.6994C37.125 22.1197 37.8531 22.8001 38.3772 23.6352C38.3772 23.5301 38.4268 23.4804 38.482 23.3753L35.928 19.0888C35.6687 19.1939 35.4591 19.3487 35.3543 19.6142C35.1447 20.0346 35.3046 20.4494 35.5087 20.8697L36.0273 21.6994ZM26.2249 21.3841C27.6867 21.2293 29.303 21.7492 30.5 23.1596C31.697 21.7492 33.3188 21.2237 34.7751 21.3841L34.7254 21.3343C34.3614 20.654 34.2014 19.8686 34.571 19.1883C34.7254 18.768 35.0399 18.508 35.4039 18.2978C35.2495 17.9826 35.1447 17.6728 35.0895 17.3576C34.9847 16.4671 35.5087 15.6319 36.2865 15.2669L35.9776 14.7414C34.3614 12.0755 37.8035 10.195 39.3701 12.3908L45.107 20.3388C45.1401 20.372 45.1567 20.407 45.1567 20.4439C46.5137 23.1098 47.5562 25.9361 48.654 28.7569C49.6469 31.3731 49.851 31.893 49.0732 34.6695L47.297 40.8421C48.2899 40.8421 49.1228 41.3122 49.1228 42.4129L49.0732 44.7138C49.0236 45.654 48.1851 46.2292 47.297 46.4892L38.2227 48.8454C36.8657 49.2104 35.8232 48.2204 35.7735 46.8598L35.7239 42.3631C35.8287 41.2127 36.5072 40.7923 37.5498 40.7923C36.452 36.0854 37.2353 34.2547 37.809 32.9494C37.9635 32.529 38.1731 32.0589 38.1731 31.6441V29.4981C38.0683 29.7082 37.9635 29.9184 37.809 30.1231C36.1928 32.6341 33.2691 34.7248 30.7648 36.2956C30.6103 36.4007 30.4007 36.4505 30.2407 36.3454C27.7915 34.7248 24.8182 32.6341 23.1965 30.1231C23.042 29.9129 22.9372 29.7027 22.8324 29.4981V31.6441C22.8324 32.0644 23.042 32.5346 23.1965 32.9494C23.7702 34.2547 24.5535 36.0854 23.4557 40.7923C24.4983 40.7923 25.1768 41.2127 25.2816 42.3631L25.232 46.8598C25.1823 48.2204 24.1342 49.216 22.7827 48.8454L13.703 46.4892C12.8149 46.2292 11.9819 45.654 11.9268 44.7138L11.8771 42.4129C11.8771 41.3122 12.7101 40.8421 13.703 40.8421L11.9323 34.6695C11.149 31.8985 11.3586 31.3731 12.3515 28.7569C13.4492 25.9306 14.4918 23.1098 15.8488 20.4439C15.8488 20.4107 15.8654 20.3756 15.8985 20.3388L21.6354 12.3908C23.2516 10.195 26.6386 12.0755 25.0223 14.7414L24.7079 15.2669C25.4912 15.6319 26.0098 16.4671 25.9049 17.3576C25.8553 17.6728 25.7505 17.9826 25.5905 18.2978C25.9546 18.508 26.269 18.768 26.4786 19.1883C26.7931 19.8686 26.6331 20.654 26.269 21.3343L26.2249 21.3841ZM36.292 28.0821C36.0328 28.6076 35.1943 28.237 35.4591 27.6618C36.0328 26.5113 35.9831 24.6806 34.3117 24.6308C33.738 24.6308 33.738 23.7403 34.3614 23.7403C36.7058 23.7403 37.1746 26.2514 36.292 28.0821ZM34.3614 30.5932C33.9421 31.0135 33.3188 30.383 33.738 29.9682C33.9973 29.7082 34.2621 29.393 34.5213 29.133C34.8854 28.6629 35.5639 29.2381 35.1998 29.7082C34.935 30.018 34.6703 30.3277 34.3614 30.5932ZM30.0311 40.2116C29.9263 40.3664 29.8215 40.5268 29.8215 40.6817V44.0279C29.8215 44.1828 29.9263 44.393 30.0311 44.4981C30.4503 44.9184 31.1785 44.6031 31.1785 44.0279V40.6817C31.1785 40.112 30.4503 39.7967 30.0311 40.2116ZM31.6474 39.5865C31.9066 39.8465 32.1162 40.2669 32.1162 40.6872V44.0335C32.1162 44.4538 31.9066 44.8686 31.6474 45.1341C31.024 45.7591 29.9759 45.7591 29.4022 45.1341C29.0878 44.8742 28.9334 44.4538 28.9334 44.0335V40.6872C28.9334 40.2669 29.0878 39.852 29.4022 39.5865C29.9759 38.9615 31.024 38.9615 31.6474 39.5865ZM33.578 36.9206C33.214 36.9206 32.8996 37.1806 32.8996 37.6009C32.8996 37.7558 32.9492 37.9162 33.054 38.0213L34.5655 39.6419C34.7199 39.7469 34.8799 39.852 35.0343 39.852C35.3984 39.852 35.7128 39.5368 35.7128 39.1717C35.7128 39.0169 35.6632 38.8565 35.5584 38.7016L34.0469 37.1308C33.8925 36.9704 33.7325 36.9206 33.578 36.9206ZM33.578 35.9804C33.9973 35.9804 34.411 36.1905 34.7254 36.5058L36.1872 38.0766C36.5017 38.3919 36.6561 38.8067 36.6561 39.227C36.6065 40.1175 35.8728 40.7978 35.0399 40.7425C34.6206 40.7425 34.2069 40.5877 33.9421 40.2724L32.3755 38.7016C32.1162 38.3366 31.9563 37.9715 31.9563 37.5512C32.0114 36.6551 32.6899 35.9804 33.578 35.9804ZM27.4219 36.9206C27.786 36.9206 28.1004 37.1806 28.1004 37.6009C28.1004 37.7558 28.0508 37.9162 27.946 38.0213L26.4345 39.6419C26.28 39.7469 26.1201 39.852 25.9656 39.852C25.6015 39.852 25.2871 39.5368 25.2871 39.1717C25.2871 39.0169 25.3368 38.8565 25.4416 38.7016L26.953 37.1308C27.1075 36.9704 27.2675 36.9206 27.4219 36.9206ZM27.4219 35.9804C27.0027 35.9804 26.589 36.1905 26.2745 36.5058L24.8127 38.0766C24.4983 38.3919 24.3438 38.8067 24.3438 39.227C24.3935 40.1175 25.1272 40.7978 25.9601 40.7425C26.3793 40.7425 26.7931 40.5877 27.0578 40.2724L28.6245 38.7016C28.8837 38.3366 29.0437 37.9715 29.0437 37.5512C28.9885 36.6551 28.31 35.9804 27.4219 35.9804ZM30.1359 24.1607C29.0382 22.5899 27.4771 22.1197 26.1201 22.3299C25.8608 22.3797 25.6512 22.435 25.4416 22.5401C25.232 22.6452 25.0223 22.7503 24.8182 22.7503C22.4683 24.0058 22.369 27.1972 23.9301 29.6031C25.4416 31.904 28.2052 33.8897 30.5 35.4107C32.7947 33.8952 35.5584 31.904 37.0698 29.6031C38.6365 27.247 38.5813 24.0058 36.1817 22.8056C36.0273 22.7558 35.7625 22.6507 35.5584 22.5456C35.3488 22.4405 35.1392 22.3908 34.8799 22.3355C33.5229 22.1253 31.9563 22.5954 30.8641 24.1662C30.7096 24.4206 30.2904 24.4206 30.1359 24.1662V24.1607ZM48.1851 44.3432L36.6561 44.2934L36.7058 46.8543C36.7058 47.5843 37.2298 48.1596 38.0076 47.9549L47.0818 45.5987C47.7658 45.3941 48.1851 45.0788 48.1851 44.3432Z" stroke="#EA5B0B" stroke-width="0.4" mask="url(#path-2-outside-1_2270_4446)"/>
</g>
<defs>
<clipPath id="clip0_2270_4446">
<rect width="38.0952" height="37.5" fill="white" transform="translate(11.4521 11.4287)"/>
</clipPath>
</defs>
</svg>
