<svg width="154" height="154" viewBox="0 0 154 154" fill="none" xmlns="http://www.w3.org/2000/svg">
<g clip-path="url(#clip0_2268_2849)">
<mask id="path-1-outside-1_2268_2849" maskUnits="userSpaceOnUse" x="33.0039" y="30" width="88" height="94" fill="black">
<rect fill="white" x="33.0039" y="30" width="88" height="94"/>
<path d="M119.749 74.5021L114.381 52.8477C113.812 50.5479 112.377 48.6057 110.334 47.3689C109.649 46.9534 108.936 46.6442 108.194 46.4316C110.141 44.8372 111.374 42.4118 111.374 39.7062C111.374 34.9038 107.481 31 102.691 31C97.9019 31 94.0086 34.9038 94.0086 39.7062C94.0086 43.6004 96.572 46.905 100.099 48.0163C99.1933 48.7217 98.4801 49.601 98.0465 50.5866L90.9055 66.6559L78.5895 73.7291C77.9438 74.0963 77.4042 74.5601 76.9898 75.0916C76.5754 74.5601 76.0453 74.0866 75.3997 73.7194L63.0837 66.6462L55.9427 50.5769C55.4994 49.5913 54.7959 48.7217 53.89 48.0066C57.4171 46.905 59.9806 43.5907 59.9806 39.6966C59.9902 34.9038 56.0969 31 51.3073 31C46.5178 31 42.6244 34.9038 42.6244 39.7062C42.6244 42.4118 43.8676 44.8372 45.8046 46.4316C45.0626 46.6442 44.3398 46.963 43.6652 47.3689C41.6222 48.596 40.1863 50.5479 39.6177 52.8477L34.2596 74.5021C33.5561 77.3527 34.327 80.4158 36.293 82.6093V116.584C36.293 120.12 39.1551 122.99 42.6823 122.99C46.2094 122.99 49.0716 120.12 49.0716 116.584V83.0344C50.2762 81.8749 51.1146 80.4158 51.5193 78.7828L53.5816 70.4631L54.6995 72.6469C55.191 73.5938 55.9523 74.3572 56.9064 74.85L70.3499 82.5706C71.9882 83.5079 73.8096 83.5466 75.3226 82.6576C75.9972 82.2614 76.5657 81.7203 77.009 81.0922C77.4523 81.7299 78.0209 82.2711 78.6955 82.6576C80.2181 83.5466 82.0299 83.5176 83.6682 82.5706L97.1117 74.85C98.0657 74.3572 98.8271 73.5938 99.3185 72.6469L100.436 70.4631L102.499 78.7828C102.903 80.4158 103.742 81.8749 104.947 83.0344V116.574C104.947 120.111 107.809 122.981 111.336 122.981C114.863 122.981 117.725 120.111 117.725 116.574V82.5996C119.691 80.4061 120.462 77.3334 119.758 74.4925L119.749 74.5021ZM96.0131 39.6966C96.0131 36.0054 99.0102 32.9905 102.701 32.9905C106.392 32.9905 109.389 35.9957 109.389 39.6966C109.389 42.8273 107.23 45.4653 104.33 46.1997C104.118 46.2383 103.906 46.277 103.694 46.3253C103.366 46.3736 103.038 46.4026 102.701 46.4026C99.0198 46.4026 96.0131 43.3974 96.0131 39.6966ZM44.6193 39.6966C44.6193 36.0054 47.6164 32.9905 51.3073 32.9905C54.9983 32.9905 57.9954 35.9957 57.9954 39.6966C57.9954 43.3974 54.9983 46.4026 51.3073 46.4026C50.97 46.4026 50.6424 46.3736 50.3147 46.3253C50.1027 46.277 49.8907 46.2383 49.6787 46.1997C46.778 45.4749 44.6193 42.837 44.6193 39.6966ZM74.3107 80.9473C73.6747 81.3241 72.6339 81.6043 71.3329 80.8603L57.8604 73.13L57.8123 73.1107C57.2244 72.8111 56.7618 72.3473 56.4631 71.7676L54.1309 67.2164L50.2087 59.5634C49.9581 59.0706 49.351 58.8773 48.8692 59.1285C48.3777 59.3798 48.185 59.9885 48.4355 60.4717L52.1843 67.7865L49.5727 78.3286C49.2257 79.7104 48.4837 80.9279 47.4044 81.8652C47.1827 82.0585 47.0574 82.329 47.0574 82.6189V116.603C47.0574 119.038 45.0819 121.009 42.663 121.009C40.2441 121.009 38.2685 119.029 38.2685 116.603V82.2324C38.2685 81.9715 38.1625 81.7203 37.9794 81.527C36.293 79.8167 35.6087 77.314 36.1773 74.9949L41.5451 53.3405C41.9884 51.5529 43.1063 50.0455 44.6867 49.0985C45.7854 48.4414 46.9996 48.0936 48.2428 48.0936C48.5993 48.0936 48.9463 48.1226 49.3028 48.1805C49.5052 48.2289 49.7172 48.2675 49.9196 48.3062C51.9048 48.8086 53.4756 49.9585 54.1117 51.3983L61.3876 67.7671C61.4743 67.9604 61.6188 68.1247 61.8019 68.2309L74.3974 75.4684C75.708 76.2221 75.9779 77.2657 75.9875 78.0001C75.9875 79.179 75.3129 80.3675 74.3011 80.9569L74.3107 80.9473ZM116.01 81.5174C115.827 81.7106 115.721 81.9522 115.721 82.2228V116.594C115.721 119.029 113.745 121 111.326 121C108.907 121 106.932 119.019 106.932 116.594V82.6093C106.932 82.3194 106.806 82.0392 106.585 81.8556C105.515 80.9183 104.763 79.7008 104.416 78.319L101.805 67.7768L105.554 60.462C105.804 59.9692 105.611 59.3701 105.12 59.1189C104.629 58.8677 104.031 59.0609 103.78 59.5537L99.8582 67.2067L97.5261 71.7579C97.2273 72.3473 96.7551 72.8111 96.1769 73.101L96.1287 73.1204L82.6563 80.8506C81.3457 81.6043 80.3145 81.3144 79.6785 80.9376C78.6666 80.3482 77.9824 79.1596 77.992 77.9808C77.992 77.2367 78.2715 76.2028 79.5821 75.4491L92.1776 68.2116C92.3607 68.1053 92.5052 67.9411 92.592 67.7478L99.8678 51.3789C100.504 49.9392 102.075 48.7893 104.06 48.2868C104.282 48.2482 104.494 48.2095 104.706 48.1516C106.286 47.91 107.895 48.2289 109.293 49.0695C110.873 50.0261 111.991 51.5336 112.434 53.3115L117.802 74.966C118.38 77.285 117.687 79.7877 116 81.498L116.01 81.5174ZM76.2959 64.9069C76.4886 65.1002 76.7392 65.1968 76.9994 65.1968C77.2596 65.1968 77.5198 65.0905 77.7029 64.9069L86.4629 56.1137C89.2672 53.3019 89.2672 48.7217 86.4629 45.9098C83.8802 43.3201 79.8134 43.1172 76.9898 45.2914C74.1661 43.1172 70.0993 43.3201 67.5167 45.9098C64.7123 48.7217 64.7123 53.3019 67.5167 56.1137L76.2863 64.9069H76.2959ZM68.9429 47.3302C69.9548 46.3156 71.2847 45.8035 72.6242 45.8035C73.9638 45.8035 75.2937 46.3156 76.3055 47.3302C76.691 47.7167 77.3271 47.7167 77.7125 47.3302C79.7459 45.2914 83.0418 45.2914 85.0655 47.3302C86.0485 48.3158 86.5882 49.63 86.5882 51.0214C86.5882 52.4129 86.0485 53.727 85.0655 54.7126L77.009 62.7908L68.9526 54.7126C67.9696 53.727 67.4299 52.4129 67.4299 51.0214C67.4299 49.63 67.9696 48.3158 68.9526 47.3302H68.9429Z"/>
</mask>
<path d="M119.749 74.5021L114.381 52.8477C113.812 50.5479 112.377 48.6057 110.334 47.3689C109.649 46.9534 108.936 46.6442 108.194 46.4316C110.141 44.8372 111.374 42.4118 111.374 39.7062C111.374 34.9038 107.481 31 102.691 31C97.9019 31 94.0086 34.9038 94.0086 39.7062C94.0086 43.6004 96.572 46.905 100.099 48.0163C99.1933 48.7217 98.4801 49.601 98.0465 50.5866L90.9055 66.6559L78.5895 73.7291C77.9438 74.0963 77.4042 74.5601 76.9898 75.0916C76.5754 74.5601 76.0453 74.0866 75.3997 73.7194L63.0837 66.6462L55.9427 50.5769C55.4994 49.5913 54.7959 48.7217 53.89 48.0066C57.4171 46.905 59.9806 43.5907 59.9806 39.6966C59.9902 34.9038 56.0969 31 51.3073 31C46.5178 31 42.6244 34.9038 42.6244 39.7062C42.6244 42.4118 43.8676 44.8372 45.8046 46.4316C45.0626 46.6442 44.3398 46.963 43.6652 47.3689C41.6222 48.596 40.1863 50.5479 39.6177 52.8477L34.2596 74.5021C33.5561 77.3527 34.327 80.4158 36.293 82.6093V116.584C36.293 120.12 39.1551 122.99 42.6823 122.99C46.2094 122.99 49.0716 120.12 49.0716 116.584V83.0344C50.2762 81.8749 51.1146 80.4158 51.5193 78.7828L53.5816 70.4631L54.6995 72.6469C55.191 73.5938 55.9523 74.3572 56.9064 74.85L70.3499 82.5706C71.9882 83.5079 73.8096 83.5466 75.3226 82.6576C75.9972 82.2614 76.5657 81.7203 77.009 81.0922C77.4523 81.7299 78.0209 82.2711 78.6955 82.6576C80.2181 83.5466 82.0299 83.5176 83.6682 82.5706L97.1117 74.85C98.0657 74.3572 98.8271 73.5938 99.3185 72.6469L100.436 70.4631L102.499 78.7828C102.903 80.4158 103.742 81.8749 104.947 83.0344V116.574C104.947 120.111 107.809 122.981 111.336 122.981C114.863 122.981 117.725 120.111 117.725 116.574V82.5996C119.691 80.4061 120.462 77.3334 119.758 74.4925L119.749 74.5021ZM96.0131 39.6966C96.0131 36.0054 99.0102 32.9905 102.701 32.9905C106.392 32.9905 109.389 35.9957 109.389 39.6966C109.389 42.8273 107.23 45.4653 104.33 46.1997C104.118 46.2383 103.906 46.277 103.694 46.3253C103.366 46.3736 103.038 46.4026 102.701 46.4026C99.0198 46.4026 96.0131 43.3974 96.0131 39.6966ZM44.6193 39.6966C44.6193 36.0054 47.6164 32.9905 51.3073 32.9905C54.9983 32.9905 57.9954 35.9957 57.9954 39.6966C57.9954 43.3974 54.9983 46.4026 51.3073 46.4026C50.97 46.4026 50.6424 46.3736 50.3147 46.3253C50.1027 46.277 49.8907 46.2383 49.6787 46.1997C46.778 45.4749 44.6193 42.837 44.6193 39.6966ZM74.3107 80.9473C73.6747 81.3241 72.6339 81.6043 71.3329 80.8603L57.8604 73.13L57.8123 73.1107C57.2244 72.8111 56.7618 72.3473 56.4631 71.7676L54.1309 67.2164L50.2087 59.5634C49.9581 59.0706 49.351 58.8773 48.8692 59.1285C48.3777 59.3798 48.185 59.9885 48.4355 60.4717L52.1843 67.7865L49.5727 78.3286C49.2257 79.7104 48.4837 80.9279 47.4044 81.8652C47.1827 82.0585 47.0574 82.329 47.0574 82.6189V116.603C47.0574 119.038 45.0819 121.009 42.663 121.009C40.2441 121.009 38.2685 119.029 38.2685 116.603V82.2324C38.2685 81.9715 38.1625 81.7203 37.9794 81.527C36.293 79.8167 35.6087 77.314 36.1773 74.9949L41.5451 53.3405C41.9884 51.5529 43.1063 50.0455 44.6867 49.0985C45.7854 48.4414 46.9996 48.0936 48.2428 48.0936C48.5993 48.0936 48.9463 48.1226 49.3028 48.1805C49.5052 48.2289 49.7172 48.2675 49.9196 48.3062C51.9048 48.8086 53.4756 49.9585 54.1117 51.3983L61.3876 67.7671C61.4743 67.9604 61.6188 68.1247 61.8019 68.2309L74.3974 75.4684C75.708 76.2221 75.9779 77.2657 75.9875 78.0001C75.9875 79.179 75.3129 80.3675 74.3011 80.9569L74.3107 80.9473ZM116.01 81.5174C115.827 81.7106 115.721 81.9522 115.721 82.2228V116.594C115.721 119.029 113.745 121 111.326 121C108.907 121 106.932 119.019 106.932 116.594V82.6093C106.932 82.3194 106.806 82.0392 106.585 81.8556C105.515 80.9183 104.763 79.7008 104.416 78.319L101.805 67.7768L105.554 60.462C105.804 59.9692 105.611 59.3701 105.12 59.1189C104.629 58.8677 104.031 59.0609 103.78 59.5537L99.8582 67.2067L97.5261 71.7579C97.2273 72.3473 96.7551 72.8111 96.1769 73.101L96.1287 73.1204L82.6563 80.8506C81.3457 81.6043 80.3145 81.3144 79.6785 80.9376C78.6666 80.3482 77.9824 79.1596 77.992 77.9808C77.992 77.2367 78.2715 76.2028 79.5821 75.4491L92.1776 68.2116C92.3607 68.1053 92.5052 67.9411 92.592 67.7478L99.8678 51.3789C100.504 49.9392 102.075 48.7893 104.06 48.2868C104.282 48.2482 104.494 48.2095 104.706 48.1516C106.286 47.91 107.895 48.2289 109.293 49.0695C110.873 50.0261 111.991 51.5336 112.434 53.3115L117.802 74.966C118.38 77.285 117.687 79.7877 116 81.498L116.01 81.5174ZM76.2959 64.9069C76.4886 65.1002 76.7392 65.1968 76.9994 65.1968C77.2596 65.1968 77.5198 65.0905 77.7029 64.9069L86.4629 56.1137C89.2672 53.3019 89.2672 48.7217 86.4629 45.9098C83.8802 43.3201 79.8134 43.1172 76.9898 45.2914C74.1661 43.1172 70.0993 43.3201 67.5167 45.9098C64.7123 48.7217 64.7123 53.3019 67.5167 56.1137L76.2863 64.9069H76.2959ZM68.9429 47.3302C69.9548 46.3156 71.2847 45.8035 72.6242 45.8035C73.9638 45.8035 75.2937 46.3156 76.3055 47.3302C76.691 47.7167 77.3271 47.7167 77.7125 47.3302C79.7459 45.2914 83.0418 45.2914 85.0655 47.3302C86.0485 48.3158 86.5882 49.63 86.5882 51.0214C86.5882 52.4129 86.0485 53.727 85.0655 54.7126L77.009 62.7908L68.9526 54.7126C67.9696 53.727 67.4299 52.4129 67.4299 51.0214C67.4299 49.63 67.9696 48.3158 68.9526 47.3302H68.9429Z" fill="url(#paint0_linear_2268_2849)"/>
<path d="M119.749 74.5021L114.381 52.8477C113.812 50.5479 112.377 48.6057 110.334 47.3689C109.649 46.9534 108.936 46.6442 108.194 46.4316C110.141 44.8372 111.374 42.4118 111.374 39.7062C111.374 34.9038 107.481 31 102.691 31C97.9019 31 94.0086 34.9038 94.0086 39.7062C94.0086 43.6004 96.572 46.905 100.099 48.0163C99.1933 48.7217 98.4801 49.601 98.0465 50.5866L90.9055 66.6559L78.5895 73.7291C77.9438 74.0963 77.4042 74.5601 76.9898 75.0916C76.5754 74.5601 76.0453 74.0866 75.3997 73.7194L63.0837 66.6462L55.9427 50.5769C55.4994 49.5913 54.7959 48.7217 53.89 48.0066C57.4171 46.905 59.9806 43.5907 59.9806 39.6966C59.9902 34.9038 56.0969 31 51.3073 31C46.5178 31 42.6244 34.9038 42.6244 39.7062C42.6244 42.4118 43.8676 44.8372 45.8046 46.4316C45.0626 46.6442 44.3398 46.963 43.6652 47.3689C41.6222 48.596 40.1863 50.5479 39.6177 52.8477L34.2596 74.5021C33.5561 77.3527 34.327 80.4158 36.293 82.6093V116.584C36.293 120.12 39.1551 122.99 42.6823 122.99C46.2094 122.99 49.0716 120.12 49.0716 116.584V83.0344C50.2762 81.8749 51.1146 80.4158 51.5193 78.7828L53.5816 70.4631L54.6995 72.6469C55.191 73.5938 55.9523 74.3572 56.9064 74.85L70.3499 82.5706C71.9882 83.5079 73.8096 83.5466 75.3226 82.6576C75.9972 82.2614 76.5657 81.7203 77.009 81.0922C77.4523 81.7299 78.0209 82.2711 78.6955 82.6576C80.2181 83.5466 82.0299 83.5176 83.6682 82.5706L97.1117 74.85C98.0657 74.3572 98.8271 73.5938 99.3185 72.6469L100.436 70.4631L102.499 78.7828C102.903 80.4158 103.742 81.8749 104.947 83.0344V116.574C104.947 120.111 107.809 122.981 111.336 122.981C114.863 122.981 117.725 120.111 117.725 116.574V82.5996C119.691 80.4061 120.462 77.3334 119.758 74.4925L119.749 74.5021ZM96.0131 39.6966C96.0131 36.0054 99.0102 32.9905 102.701 32.9905C106.392 32.9905 109.389 35.9957 109.389 39.6966C109.389 42.8273 107.23 45.4653 104.33 46.1997C104.118 46.2383 103.906 46.277 103.694 46.3253C103.366 46.3736 103.038 46.4026 102.701 46.4026C99.0198 46.4026 96.0131 43.3974 96.0131 39.6966ZM44.6193 39.6966C44.6193 36.0054 47.6164 32.9905 51.3073 32.9905C54.9983 32.9905 57.9954 35.9957 57.9954 39.6966C57.9954 43.3974 54.9983 46.4026 51.3073 46.4026C50.97 46.4026 50.6424 46.3736 50.3147 46.3253C50.1027 46.277 49.8907 46.2383 49.6787 46.1997C46.778 45.4749 44.6193 42.837 44.6193 39.6966ZM74.3107 80.9473C73.6747 81.3241 72.6339 81.6043 71.3329 80.8603L57.8604 73.13L57.8123 73.1107C57.2244 72.8111 56.7618 72.3473 56.4631 71.7676L54.1309 67.2164L50.2087 59.5634C49.9581 59.0706 49.351 58.8773 48.8692 59.1285C48.3777 59.3798 48.185 59.9885 48.4355 60.4717L52.1843 67.7865L49.5727 78.3286C49.2257 79.7104 48.4837 80.9279 47.4044 81.8652C47.1827 82.0585 47.0574 82.329 47.0574 82.6189V116.603C47.0574 119.038 45.0819 121.009 42.663 121.009C40.2441 121.009 38.2685 119.029 38.2685 116.603V82.2324C38.2685 81.9715 38.1625 81.7203 37.9794 81.527C36.293 79.8167 35.6087 77.314 36.1773 74.9949L41.5451 53.3405C41.9884 51.5529 43.1063 50.0455 44.6867 49.0985C45.7854 48.4414 46.9996 48.0936 48.2428 48.0936C48.5993 48.0936 48.9463 48.1226 49.3028 48.1805C49.5052 48.2289 49.7172 48.2675 49.9196 48.3062C51.9048 48.8086 53.4756 49.9585 54.1117 51.3983L61.3876 67.7671C61.4743 67.9604 61.6188 68.1247 61.8019 68.2309L74.3974 75.4684C75.708 76.2221 75.9779 77.2657 75.9875 78.0001C75.9875 79.179 75.3129 80.3675 74.3011 80.9569L74.3107 80.9473ZM116.01 81.5174C115.827 81.7106 115.721 81.9522 115.721 82.2228V116.594C115.721 119.029 113.745 121 111.326 121C108.907 121 106.932 119.019 106.932 116.594V82.6093C106.932 82.3194 106.806 82.0392 106.585 81.8556C105.515 80.9183 104.763 79.7008 104.416 78.319L101.805 67.7768L105.554 60.462C105.804 59.9692 105.611 59.3701 105.12 59.1189C104.629 58.8677 104.031 59.0609 103.78 59.5537L99.8582 67.2067L97.5261 71.7579C97.2273 72.3473 96.7551 72.8111 96.1769 73.101L96.1287 73.1204L82.6563 80.8506C81.3457 81.6043 80.3145 81.3144 79.6785 80.9376C78.6666 80.3482 77.9824 79.1596 77.992 77.9808C77.992 77.2367 78.2715 76.2028 79.5821 75.4491L92.1776 68.2116C92.3607 68.1053 92.5052 67.9411 92.592 67.7478L99.8678 51.3789C100.504 49.9392 102.075 48.7893 104.06 48.2868C104.282 48.2482 104.494 48.2095 104.706 48.1516C106.286 47.91 107.895 48.2289 109.293 49.0695C110.873 50.0261 111.991 51.5336 112.434 53.3115L117.802 74.966C118.38 77.285 117.687 79.7877 116 81.498L116.01 81.5174ZM76.2959 64.9069C76.4886 65.1002 76.7392 65.1968 76.9994 65.1968C77.2596 65.1968 77.5198 65.0905 77.7029 64.9069L86.4629 56.1137C89.2672 53.3019 89.2672 48.7217 86.4629 45.9098C83.8802 43.3201 79.8134 43.1172 76.9898 45.2914C74.1661 43.1172 70.0993 43.3201 67.5167 45.9098C64.7123 48.7217 64.7123 53.3019 67.5167 56.1137L76.2863 64.9069H76.2959ZM68.9429 47.3302C69.9548 46.3156 71.2847 45.8035 72.6242 45.8035C73.9638 45.8035 75.2937 46.3156 76.3055 47.3302C76.691 47.7167 77.3271 47.7167 77.7125 47.3302C79.7459 45.2914 83.0418 45.2914 85.0655 47.3302C86.0485 48.3158 86.5882 49.63 86.5882 51.0214C86.5882 52.4129 86.0485 53.727 85.0655 54.7126L77.009 62.7908L68.9526 54.7126C67.9696 53.727 67.4299 52.4129 67.4299 51.0214C67.4299 49.63 67.9696 48.3158 68.9526 47.3302H68.9429Z" stroke="url(#paint1_linear_2268_2849)" stroke-width="0.8" mask="url(#path-1-outside-1_2268_2849)"/>
</g>
<circle cx="77" cy="77" r="75.5" stroke="url(#paint2_linear_2268_2849)" stroke-width="3"/>
<defs>
<linearGradient id="paint0_linear_2268_2849" x1="95.6897" y1="51.7319" x2="52.0166" y2="104.362" gradientUnits="userSpaceOnUse">
<stop stop-color="#F39200"/>
<stop offset="0.33" stop-color="#EA5B0B"/>
<stop offset="0.635" stop-color="#D60B51"/>
<stop offset="1" stop-color="#A11881"/>
</linearGradient>
<linearGradient id="paint1_linear_2268_2849" x1="95.6897" y1="51.7319" x2="52.0166" y2="104.362" gradientUnits="userSpaceOnUse">
<stop stop-color="#F39200"/>
<stop offset="0.33" stop-color="#EA5B0B"/>
<stop offset="0.635" stop-color="#D60B51"/>
<stop offset="1" stop-color="#A11881"/>
</linearGradient>
<linearGradient id="paint2_linear_2268_2849" x1="110.447" y1="34.707" x2="38.3914" y2="127.578" gradientUnits="userSpaceOnUse">
<stop stop-color="#F39200"/>
<stop offset="0.33" stop-color="#EA5B0B"/>
<stop offset="0.635" stop-color="#D60B51"/>
<stop offset="1" stop-color="#A11881"/>
</linearGradient>
<clipPath id="clip0_2268_2849">
<rect width="86" height="92" fill="white" transform="translate(34 31)"/>
</clipPath>
</defs>
</svg>
