<svg width="61" height="60" viewBox="0 0 61 60" fill="none" xmlns="http://www.w3.org/2000/svg">
<circle cx="30.5" cy="30" r="30" fill="white"/>
<g clip-path="url(#clip0_2270_4501)">
<mask id="path-2-outside-1_2270_4501" maskUnits="userSpaceOnUse" x="12.749" y="11.0781" width="35" height="38" fill="black">
<rect fill="white" x="12.749" y="11.0781" width="35" height="38"/>
<path d="M47.1561 29.027L45.0648 20.5902C44.8433 19.6942 44.2838 18.9375 43.4878 18.4556C43.2213 18.2937 42.9434 18.1732 42.6543 18.0904C43.4128 17.4692 43.8934 16.5243 43.8934 15.4702C43.8934 13.5991 42.3765 12.0781 40.5104 12.0781C38.6443 12.0781 37.1275 13.5991 37.1275 15.4702C37.1275 16.9874 38.1262 18.2749 39.5004 18.7078C39.1475 18.9827 38.8696 19.3253 38.7007 19.7093L35.9185 25.97L31.12 28.7258C30.8685 28.8689 30.6582 29.0496 30.4968 29.2567C30.3353 29.0496 30.1288 28.8651 29.8772 28.7221L25.0788 25.9663L22.2966 19.7055C22.1239 19.3215 21.8498 18.9827 21.4969 18.7041C22.8711 18.2749 23.8698 16.9836 23.8698 15.4664C23.8736 13.5991 22.3567 12.0781 20.4906 12.0781C18.6246 12.0781 17.1077 13.5991 17.1077 15.4702C17.1077 16.5243 17.592 17.4692 18.3467 18.0904C18.0576 18.1732 17.776 18.2975 17.5132 18.4556C16.7172 18.9337 16.1577 19.6942 15.9362 20.5902L13.8486 29.027C13.5745 30.1376 13.8749 31.331 14.6409 32.1856V45.4225C14.6409 46.8004 15.756 47.9185 17.1302 47.9185C18.5044 47.9185 19.6195 46.8004 19.6195 45.4225V32.3513C20.0889 31.8995 20.4155 31.331 20.5732 30.6948L21.3767 27.4533L21.8122 28.3042C22.0037 28.6731 22.3004 28.9705 22.6721 29.1625L27.9098 32.1706C28.5481 32.5358 29.2577 32.5508 29.8472 32.2045C30.11 32.0501 30.3316 31.8393 30.5043 31.5946C30.677 31.843 30.8985 32.0539 31.1613 32.2045C31.7546 32.5508 32.4604 32.5395 33.0987 32.1706L38.3365 29.1625C38.7082 28.9705 39.0048 28.6731 39.1963 28.3042L39.6318 27.4533L40.4353 30.6948C40.593 31.331 40.9197 31.8995 41.389 32.3513V45.4187C41.389 46.7966 42.5041 47.9147 43.8783 47.9147C45.2525 47.9147 46.3677 46.7966 46.3677 45.4187V32.1819C47.1336 31.3273 47.434 30.1301 47.1599 29.0232L47.1561 29.027ZM37.9084 15.4664C37.9084 14.0283 39.0761 12.8537 40.5142 12.8537C41.9522 12.8537 43.1199 14.0245 43.1199 15.4664C43.1199 16.6862 42.2789 17.7139 41.1487 18.0001C41.0661 18.0151 40.9835 18.0302 40.9009 18.049C40.7732 18.0678 40.6456 18.0791 40.5142 18.0791C39.0799 18.0791 37.9084 16.9083 37.9084 15.4664ZM17.8849 15.4664C17.8849 14.0283 19.0526 12.8537 20.4906 12.8537C21.9286 12.8537 23.0963 14.0245 23.0963 15.4664C23.0963 16.9083 21.9286 18.0791 20.4906 18.0791C20.3592 18.0791 20.2315 18.0678 20.1039 18.049C20.0213 18.0302 19.9387 18.0151 19.8561 18.0001C18.7259 17.7177 17.8849 16.6899 17.8849 15.4664ZM29.453 31.5381C29.2052 31.6849 28.7997 31.7941 28.2928 31.5042L23.0438 28.4924L23.025 28.4849C22.796 28.3682 22.6157 28.1875 22.4994 27.9616L21.5907 26.1884L20.0626 23.2067C19.965 23.0147 19.7284 22.9394 19.5407 23.0373C19.3492 23.1352 19.2741 23.3724 19.3717 23.5606L20.8323 26.4105L19.8148 30.5178C19.6796 31.0562 19.3905 31.5306 18.97 31.8957C18.8836 31.971 18.8348 32.0765 18.8348 32.1894V45.43C18.8348 46.3787 18.0651 47.1467 17.1227 47.1467C16.1803 47.1467 15.4106 46.375 15.4106 45.43V32.0388C15.4106 31.9372 15.3693 31.8393 15.2979 31.764C14.6409 31.0976 14.3743 30.1226 14.5958 29.219L16.6872 20.7822C16.8599 20.0857 17.2954 19.4984 17.9112 19.1295C18.3392 18.8735 18.8123 18.738 19.2966 18.738C19.4356 18.738 19.5707 18.7493 19.7096 18.7718C19.7885 18.7907 19.8711 18.8057 19.9499 18.8208C20.7234 19.0166 21.3354 19.4646 21.5832 20.0255L24.418 26.403C24.4518 26.4783 24.5081 26.5423 24.5794 26.5837L29.4868 29.4035C29.9974 29.6971 30.1025 30.1037 30.1063 30.3898C30.1063 30.8491 29.8434 31.3122 29.4492 31.5419L29.453 31.5381ZM45.6993 31.7602C45.628 31.8355 45.5867 31.9296 45.5867 32.035V45.4262C45.5867 46.375 44.817 47.143 43.8746 47.143C42.9322 47.143 42.1625 46.3712 42.1625 45.4262V32.1856C42.1625 32.0727 42.1136 31.9635 42.0273 31.892C41.6105 31.5268 41.3177 31.0524 41.1825 30.5141L40.165 26.4067L41.6255 23.5568C41.7232 23.3648 41.6481 23.1314 41.4566 23.0335C41.2651 22.9357 41.0323 23.0109 40.9347 23.2029L39.4065 26.1846L38.4979 27.9578C38.3815 28.1875 38.1975 28.3682 37.9723 28.4811L37.9535 28.4887L32.7045 31.5004C32.1939 31.7941 31.7921 31.6812 31.5443 31.5343C31.1501 31.3047 30.8835 30.8416 30.8872 30.3823C30.8872 30.0924 30.9961 29.6896 31.5068 29.396L36.4141 26.5762C36.4854 26.5347 36.5417 26.4707 36.5755 26.3955L39.4103 20.018C39.6581 19.457 40.2701 19.009 41.0436 18.8133C41.1299 18.7982 41.2125 18.7831 41.2951 18.7605C41.9109 18.6664 42.5379 18.7907 43.0823 19.1182C43.6981 19.4909 44.1336 20.0782 44.3064 20.7709L46.3977 29.2077C46.623 30.1113 46.3526 31.0863 45.6956 31.7527L45.6993 31.7602ZM30.2264 25.2886C30.3015 25.3639 30.3991 25.4016 30.5005 25.4016C30.6019 25.4016 30.7033 25.3601 30.7746 25.2886L34.1876 21.8627C35.2802 20.7672 35.2802 18.9827 34.1876 17.8871C33.1813 16.8782 31.5969 16.7991 30.4968 17.6462C29.3966 16.7991 27.8122 16.8782 26.8059 17.8871C25.7133 18.9827 25.7133 20.7672 26.8059 21.8627L30.2227 25.2886H30.2264ZM27.3616 18.4405C27.7559 18.0452 28.274 17.8457 28.7959 17.8457C29.3178 17.8457 29.8359 18.0452 30.2302 18.4405C30.3804 18.5911 30.6282 18.5911 30.7784 18.4405C31.5706 17.6462 32.8547 17.6462 33.6432 18.4405C34.0261 18.8245 34.2364 19.3366 34.2364 19.8787C34.2364 20.4208 34.0261 20.9328 33.6432 21.3168L30.5043 24.4641L27.3654 21.3168C26.9824 20.9328 26.7721 20.4208 26.7721 19.8787C26.7721 19.3366 26.9824 18.8245 27.3654 18.4405H27.3616Z"/>
</mask>
<path d="M47.1561 29.027L45.0648 20.5902C44.8433 19.6942 44.2838 18.9375 43.4878 18.4556C43.2213 18.2937 42.9434 18.1732 42.6543 18.0904C43.4128 17.4692 43.8934 16.5243 43.8934 15.4702C43.8934 13.5991 42.3765 12.0781 40.5104 12.0781C38.6443 12.0781 37.1275 13.5991 37.1275 15.4702C37.1275 16.9874 38.1262 18.2749 39.5004 18.7078C39.1475 18.9827 38.8696 19.3253 38.7007 19.7093L35.9185 25.97L31.12 28.7258C30.8685 28.8689 30.6582 29.0496 30.4968 29.2567C30.3353 29.0496 30.1288 28.8651 29.8772 28.7221L25.0788 25.9663L22.2966 19.7055C22.1239 19.3215 21.8498 18.9827 21.4969 18.7041C22.8711 18.2749 23.8698 16.9836 23.8698 15.4664C23.8736 13.5991 22.3567 12.0781 20.4906 12.0781C18.6246 12.0781 17.1077 13.5991 17.1077 15.4702C17.1077 16.5243 17.592 17.4692 18.3467 18.0904C18.0576 18.1732 17.776 18.2975 17.5132 18.4556C16.7172 18.9337 16.1577 19.6942 15.9362 20.5902L13.8486 29.027C13.5745 30.1376 13.8749 31.331 14.6409 32.1856V45.4225C14.6409 46.8004 15.756 47.9185 17.1302 47.9185C18.5044 47.9185 19.6195 46.8004 19.6195 45.4225V32.3513C20.0889 31.8995 20.4155 31.331 20.5732 30.6948L21.3767 27.4533L21.8122 28.3042C22.0037 28.6731 22.3004 28.9705 22.6721 29.1625L27.9098 32.1706C28.5481 32.5358 29.2577 32.5508 29.8472 32.2045C30.11 32.0501 30.3316 31.8393 30.5043 31.5946C30.677 31.843 30.8985 32.0539 31.1613 32.2045C31.7546 32.5508 32.4604 32.5395 33.0987 32.1706L38.3365 29.1625C38.7082 28.9705 39.0048 28.6731 39.1963 28.3042L39.6318 27.4533L40.4353 30.6948C40.593 31.331 40.9197 31.8995 41.389 32.3513V45.4187C41.389 46.7966 42.5041 47.9147 43.8783 47.9147C45.2525 47.9147 46.3677 46.7966 46.3677 45.4187V32.1819C47.1336 31.3273 47.434 30.1301 47.1599 29.0232L47.1561 29.027ZM37.9084 15.4664C37.9084 14.0283 39.0761 12.8537 40.5142 12.8537C41.9522 12.8537 43.1199 14.0245 43.1199 15.4664C43.1199 16.6862 42.2789 17.7139 41.1487 18.0001C41.0661 18.0151 40.9835 18.0302 40.9009 18.049C40.7732 18.0678 40.6456 18.0791 40.5142 18.0791C39.0799 18.0791 37.9084 16.9083 37.9084 15.4664ZM17.8849 15.4664C17.8849 14.0283 19.0526 12.8537 20.4906 12.8537C21.9286 12.8537 23.0963 14.0245 23.0963 15.4664C23.0963 16.9083 21.9286 18.0791 20.4906 18.0791C20.3592 18.0791 20.2315 18.0678 20.1039 18.049C20.0213 18.0302 19.9387 18.0151 19.8561 18.0001C18.7259 17.7177 17.8849 16.6899 17.8849 15.4664ZM29.453 31.5381C29.2052 31.6849 28.7997 31.7941 28.2928 31.5042L23.0438 28.4924L23.025 28.4849C22.796 28.3682 22.6157 28.1875 22.4994 27.9616L21.5907 26.1884L20.0626 23.2067C19.965 23.0147 19.7284 22.9394 19.5407 23.0373C19.3492 23.1352 19.2741 23.3724 19.3717 23.5606L20.8323 26.4105L19.8148 30.5178C19.6796 31.0562 19.3905 31.5306 18.97 31.8957C18.8836 31.971 18.8348 32.0765 18.8348 32.1894V45.43C18.8348 46.3787 18.0651 47.1467 17.1227 47.1467C16.1803 47.1467 15.4106 46.375 15.4106 45.43V32.0388C15.4106 31.9372 15.3693 31.8393 15.2979 31.764C14.6409 31.0976 14.3743 30.1226 14.5958 29.219L16.6872 20.7822C16.8599 20.0857 17.2954 19.4984 17.9112 19.1295C18.3392 18.8735 18.8123 18.738 19.2966 18.738C19.4356 18.738 19.5707 18.7493 19.7096 18.7718C19.7885 18.7907 19.8711 18.8057 19.9499 18.8208C20.7234 19.0166 21.3354 19.4646 21.5832 20.0255L24.418 26.403C24.4518 26.4783 24.5081 26.5423 24.5794 26.5837L29.4868 29.4035C29.9974 29.6971 30.1025 30.1037 30.1063 30.3898C30.1063 30.8491 29.8434 31.3122 29.4492 31.5419L29.453 31.5381ZM45.6993 31.7602C45.628 31.8355 45.5867 31.9296 45.5867 32.035V45.4262C45.5867 46.375 44.817 47.143 43.8746 47.143C42.9322 47.143 42.1625 46.3712 42.1625 45.4262V32.1856C42.1625 32.0727 42.1136 31.9635 42.0273 31.892C41.6105 31.5268 41.3177 31.0524 41.1825 30.5141L40.165 26.4067L41.6255 23.5568C41.7232 23.3648 41.6481 23.1314 41.4566 23.0335C41.2651 22.9357 41.0323 23.0109 40.9347 23.2029L39.4065 26.1846L38.4979 27.9578C38.3815 28.1875 38.1975 28.3682 37.9723 28.4811L37.9535 28.4887L32.7045 31.5004C32.1939 31.7941 31.7921 31.6812 31.5443 31.5343C31.1501 31.3047 30.8835 30.8416 30.8872 30.3823C30.8872 30.0924 30.9961 29.6896 31.5068 29.396L36.4141 26.5762C36.4854 26.5347 36.5417 26.4707 36.5755 26.3955L39.4103 20.018C39.6581 19.457 40.2701 19.009 41.0436 18.8133C41.1299 18.7982 41.2125 18.7831 41.2951 18.7605C41.9109 18.6664 42.5379 18.7907 43.0823 19.1182C43.6981 19.4909 44.1336 20.0782 44.3064 20.7709L46.3977 29.2077C46.623 30.1113 46.3526 31.0863 45.6956 31.7527L45.6993 31.7602ZM30.2264 25.2886C30.3015 25.3639 30.3991 25.4016 30.5005 25.4016C30.6019 25.4016 30.7033 25.3601 30.7746 25.2886L34.1876 21.8627C35.2802 20.7672 35.2802 18.9827 34.1876 17.8871C33.1813 16.8782 31.5969 16.7991 30.4968 17.6462C29.3966 16.7991 27.8122 16.8782 26.8059 17.8871C25.7133 18.9827 25.7133 20.7672 26.8059 21.8627L30.2227 25.2886H30.2264ZM27.3616 18.4405C27.7559 18.0452 28.274 17.8457 28.7959 17.8457C29.3178 17.8457 29.8359 18.0452 30.2302 18.4405C30.3804 18.5911 30.6282 18.5911 30.7784 18.4405C31.5706 17.6462 32.8547 17.6462 33.6432 18.4405C34.0261 18.8245 34.2364 19.3366 34.2364 19.8787C34.2364 20.4208 34.0261 20.9328 33.6432 21.3168L30.5043 24.4641L27.3654 21.3168C26.9824 20.9328 26.7721 20.4208 26.7721 19.8787C26.7721 19.3366 26.9824 18.8245 27.3654 18.4405H27.3616Z" fill="#EA5B0B"/>
<path d="M47.1561 29.027L45.0648 20.5902C44.8433 19.6942 44.2838 18.9375 43.4878 18.4556C43.2213 18.2937 42.9434 18.1732 42.6543 18.0904C43.4128 17.4692 43.8934 16.5243 43.8934 15.4702C43.8934 13.5991 42.3765 12.0781 40.5104 12.0781C38.6443 12.0781 37.1275 13.5991 37.1275 15.4702C37.1275 16.9874 38.1262 18.2749 39.5004 18.7078C39.1475 18.9827 38.8696 19.3253 38.7007 19.7093L35.9185 25.97L31.12 28.7258C30.8685 28.8689 30.6582 29.0496 30.4968 29.2567C30.3353 29.0496 30.1288 28.8651 29.8772 28.7221L25.0788 25.9663L22.2966 19.7055C22.1239 19.3215 21.8498 18.9827 21.4969 18.7041C22.8711 18.2749 23.8698 16.9836 23.8698 15.4664C23.8736 13.5991 22.3567 12.0781 20.4906 12.0781C18.6246 12.0781 17.1077 13.5991 17.1077 15.4702C17.1077 16.5243 17.592 17.4692 18.3467 18.0904C18.0576 18.1732 17.776 18.2975 17.5132 18.4556C16.7172 18.9337 16.1577 19.6942 15.9362 20.5902L13.8486 29.027C13.5745 30.1376 13.8749 31.331 14.6409 32.1856V45.4225C14.6409 46.8004 15.756 47.9185 17.1302 47.9185C18.5044 47.9185 19.6195 46.8004 19.6195 45.4225V32.3513C20.0889 31.8995 20.4155 31.331 20.5732 30.6948L21.3767 27.4533L21.8122 28.3042C22.0037 28.6731 22.3004 28.9705 22.6721 29.1625L27.9098 32.1706C28.5481 32.5358 29.2577 32.5508 29.8472 32.2045C30.11 32.0501 30.3316 31.8393 30.5043 31.5946C30.677 31.843 30.8985 32.0539 31.1613 32.2045C31.7546 32.5508 32.4604 32.5395 33.0987 32.1706L38.3365 29.1625C38.7082 28.9705 39.0048 28.6731 39.1963 28.3042L39.6318 27.4533L40.4353 30.6948C40.593 31.331 40.9197 31.8995 41.389 32.3513V45.4187C41.389 46.7966 42.5041 47.9147 43.8783 47.9147C45.2525 47.9147 46.3677 46.7966 46.3677 45.4187V32.1819C47.1336 31.3273 47.434 30.1301 47.1599 29.0232L47.1561 29.027ZM37.9084 15.4664C37.9084 14.0283 39.0761 12.8537 40.5142 12.8537C41.9522 12.8537 43.1199 14.0245 43.1199 15.4664C43.1199 16.6862 42.2789 17.7139 41.1487 18.0001C41.0661 18.0151 40.9835 18.0302 40.9009 18.049C40.7732 18.0678 40.6456 18.0791 40.5142 18.0791C39.0799 18.0791 37.9084 16.9083 37.9084 15.4664ZM17.8849 15.4664C17.8849 14.0283 19.0526 12.8537 20.4906 12.8537C21.9286 12.8537 23.0963 14.0245 23.0963 15.4664C23.0963 16.9083 21.9286 18.0791 20.4906 18.0791C20.3592 18.0791 20.2315 18.0678 20.1039 18.049C20.0213 18.0302 19.9387 18.0151 19.8561 18.0001C18.7259 17.7177 17.8849 16.6899 17.8849 15.4664ZM29.453 31.5381C29.2052 31.6849 28.7997 31.7941 28.2928 31.5042L23.0438 28.4924L23.025 28.4849C22.796 28.3682 22.6157 28.1875 22.4994 27.9616L21.5907 26.1884L20.0626 23.2067C19.965 23.0147 19.7284 22.9394 19.5407 23.0373C19.3492 23.1352 19.2741 23.3724 19.3717 23.5606L20.8323 26.4105L19.8148 30.5178C19.6796 31.0562 19.3905 31.5306 18.97 31.8957C18.8836 31.971 18.8348 32.0765 18.8348 32.1894V45.43C18.8348 46.3787 18.0651 47.1467 17.1227 47.1467C16.1803 47.1467 15.4106 46.375 15.4106 45.43V32.0388C15.4106 31.9372 15.3693 31.8393 15.2979 31.764C14.6409 31.0976 14.3743 30.1226 14.5958 29.219L16.6872 20.7822C16.8599 20.0857 17.2954 19.4984 17.9112 19.1295C18.3392 18.8735 18.8123 18.738 19.2966 18.738C19.4356 18.738 19.5707 18.7493 19.7096 18.7718C19.7885 18.7907 19.8711 18.8057 19.9499 18.8208C20.7234 19.0166 21.3354 19.4646 21.5832 20.0255L24.418 26.403C24.4518 26.4783 24.5081 26.5423 24.5794 26.5837L29.4868 29.4035C29.9974 29.6971 30.1025 30.1037 30.1063 30.3898C30.1063 30.8491 29.8434 31.3122 29.4492 31.5419L29.453 31.5381ZM45.6993 31.7602C45.628 31.8355 45.5867 31.9296 45.5867 32.035V45.4262C45.5867 46.375 44.817 47.143 43.8746 47.143C42.9322 47.143 42.1625 46.3712 42.1625 45.4262V32.1856C42.1625 32.0727 42.1136 31.9635 42.0273 31.892C41.6105 31.5268 41.3177 31.0524 41.1825 30.5141L40.165 26.4067L41.6255 23.5568C41.7232 23.3648 41.6481 23.1314 41.4566 23.0335C41.2651 22.9357 41.0323 23.0109 40.9347 23.2029L39.4065 26.1846L38.4979 27.9578C38.3815 28.1875 38.1975 28.3682 37.9723 28.4811L37.9535 28.4887L32.7045 31.5004C32.1939 31.7941 31.7921 31.6812 31.5443 31.5343C31.1501 31.3047 30.8835 30.8416 30.8872 30.3823C30.8872 30.0924 30.9961 29.6896 31.5068 29.396L36.4141 26.5762C36.4854 26.5347 36.5417 26.4707 36.5755 26.3955L39.4103 20.018C39.6581 19.457 40.2701 19.009 41.0436 18.8133C41.1299 18.7982 41.2125 18.7831 41.2951 18.7605C41.9109 18.6664 42.5379 18.7907 43.0823 19.1182C43.6981 19.4909 44.1336 20.0782 44.3064 20.7709L46.3977 29.2077C46.623 30.1113 46.3526 31.0863 45.6956 31.7527L45.6993 31.7602ZM30.2264 25.2886C30.3015 25.3639 30.3991 25.4016 30.5005 25.4016C30.6019 25.4016 30.7033 25.3601 30.7746 25.2886L34.1876 21.8627C35.2802 20.7672 35.2802 18.9827 34.1876 17.8871C33.1813 16.8782 31.5969 16.7991 30.4968 17.6462C29.3966 16.7991 27.8122 16.8782 26.8059 17.8871C25.7133 18.9827 25.7133 20.7672 26.8059 21.8627L30.2227 25.2886H30.2264ZM27.3616 18.4405C27.7559 18.0452 28.274 17.8457 28.7959 17.8457C29.3178 17.8457 29.8359 18.0452 30.2302 18.4405C30.3804 18.5911 30.6282 18.5911 30.7784 18.4405C31.5706 17.6462 32.8547 17.6462 33.6432 18.4405C34.0261 18.8245 34.2364 19.3366 34.2364 19.8787C34.2364 20.4208 34.0261 20.9328 33.6432 21.3168L30.5043 24.4641L27.3654 21.3168C26.9824 20.9328 26.7721 20.4208 26.7721 19.8787C26.7721 19.3366 26.9824 18.8245 27.3654 18.4405H27.3616Z" stroke="#EA5B0B" stroke-width="0.8" mask="url(#path-2-outside-1_2270_4501)"/>
</g>
<defs>
<clipPath id="clip0_2270_4501">
<rect width="33.5065" height="35.8442" fill="white" transform="translate(13.7471 12.0781)"/>
</clipPath>
</defs>
</svg>
