<svg width="124" height="124" viewBox="0 0 124 124" fill="none" xmlns="http://www.w3.org/2000/svg">
<path d="M0 60C0 26.8629 26.8629 0 60 0H124V64C124 97.1371 97.1371 124 64 124H0V60Z" fill="url(#paint0_linear_1941_486)"/>
<g clip-path="url(#clip0_1941_486)">
<path d="M70.9942 74.5356C70.7778 74.5356 70.5615 74.4757 70.3701 74.3558L62.5412 69.4418C62.1737 69.2146 61.7451 69.0919 61.3069 69.0919C60.8686 69.0919 60.4373 69.2146 60.049 69.4474L52.2299 74.3558C51.8221 74.6109 51.302 74.5928 50.9137 74.3097C50.5254 74.0267 50.3465 73.5345 50.4616 73.0659L52.6861 64.0469C52.908 63.1809 52.6099 62.255 51.9289 61.6778L44.8476 55.6901C44.48 55.3792 44.3372 54.8758 44.4856 54.4157C44.634 53.9555 45.0459 53.6334 45.5244 53.5999L54.7429 52.9529C55.6346 52.8943 56.4182 52.3254 56.7455 51.5027L60.2154 42.8908C60.3957 42.4432 60.8284 42.1504 61.3083 42.1504C61.7881 42.1504 62.2208 42.4446 62.4011 42.8922L65.8544 51.4999C66.1914 52.3212 66.9764 52.8943 67.8529 52.9529L77.077 53.5999C77.5568 53.6334 77.9673 53.9555 78.1157 54.4157C78.2641 54.8758 78.1213 55.3792 77.7537 55.6901L70.671 61.6778C69.9984 62.2481 69.7016 63.1781 69.9152 64.0469L72.1397 73.0645C72.2548 73.5331 72.0759 74.0253 71.6876 74.3083C71.4823 74.4589 71.2382 74.5342 70.9955 74.5342L70.9942 74.5356ZM48.5935 55.7599L53.4461 59.8622C54.8177 61.0238 55.4155 62.8937 54.9703 64.6269L53.4489 70.7944L58.8091 67.4297C58.8091 67.4297 58.8216 67.4227 58.8272 67.4186C59.5844 66.9612 60.4429 66.72 61.3069 66.72C62.1709 66.72 63.0377 66.964 63.7838 67.4255L69.1496 70.7944L67.6255 64.6158C67.1983 62.8769 67.7974 61.0112 69.151 59.8636L74.005 55.7599L67.692 55.3164C65.9293 55.1993 64.3497 54.0517 63.6701 52.3938L61.3041 46.4982L58.9312 52.3882C58.271 54.0489 56.6872 55.2007 54.901 55.3178L48.5935 55.7613V55.7599Z" fill="white"/>
<path d="M61.9313 95L52.3828 84.0288H38.3102C34.8306 84.0288 32 81.1828 32 77.6842V40.3446C32 36.846 34.8306 34 38.3102 34H85.6884C89.168 34 91.9986 36.846 91.9986 40.3446V77.6828C91.9986 81.1814 89.168 84.0274 85.6884 84.0274H72.0624L61.93 94.9986L61.9313 95ZM38.3102 36.3705C36.1301 36.3705 34.3577 38.154 34.3577 40.3446V77.6828C34.3577 79.8748 36.1315 81.6569 38.3102 81.6569H53.452L61.9827 91.4596L71.0347 81.6569H85.6884C87.8685 81.6569 89.6409 79.8734 89.6409 77.6828V40.3446C89.6409 38.1526 87.8671 36.3705 85.6884 36.3705H38.3102Z" fill="white"/>
</g>
<defs>
<linearGradient id="paint0_linear_1941_486" x1="88.9317" y1="27.9459" x2="30.9126" y2="102.725" gradientUnits="userSpaceOnUse">
<stop stop-color="#F39200"/>
<stop offset="0.33" stop-color="#EA5B0B"/>
<stop offset="0.635" stop-color="#D60B51"/>
<stop offset="1" stop-color="#A11881"/>
</linearGradient>
<clipPath id="clip0_1941_486">
<rect width="60" height="61" fill="white" transform="translate(32 34)"/>
</clipPath>
</defs>
</svg>
