<svg width="61" height="60" viewBox="0 0 61 60" fill="none" xmlns="http://www.w3.org/2000/svg">
<circle cx="30.5" cy="30" r="30" fill="white"/>
<mask id="path-2-outside-1_2270_4507" maskUnits="userSpaceOnUse" x="15.4736" y="9.90918" width="30" height="40" fill="black">
<rect fill="white" x="15.4736" y="9.90918" width="30" height="40"/>
<path d="M44.5247 33.534C44.5247 32.9795 44.2822 32.484 43.9023 32.1508C44.2822 31.8176 44.5247 31.3221 44.5247 30.7685C44.5247 29.7671 43.7339 28.9523 42.7619 28.9523H41.2518V26.4922C42.5547 25.8188 43.3153 23.9636 43.514 20.9716C43.6589 18.7918 43.4526 16.7795 43.4248 16.5226V14.1008C43.4248 12.9926 42.5497 12.0911 41.4741 12.0911C41.042 12.0911 40.6428 12.2368 40.3194 12.4824C40.1257 11.5834 39.3457 10.9092 38.4159 10.9092C37.7969 10.9092 37.2443 11.2086 36.8872 11.6737C36.5301 11.2086 35.9776 10.9092 35.3577 10.9092C34.7378 10.9092 34.1861 11.2086 33.8282 11.6737C33.4711 11.2086 32.9185 10.9092 32.2987 10.9092C31.2231 10.9092 30.3488 11.8108 30.3488 12.9189V13.8118C29.7188 13.876 28.5397 14.1329 27.689 15.1308C26.8215 16.1486 26.5402 17.6403 26.8527 19.5572C26.8763 19.7168 27.4801 23.4525 31.9584 26.8836V28.9523H31.432C31.4269 28.9523 31.4227 28.9523 31.4177 28.9523C29.9841 29.0026 29.659 29.9918 29.4215 30.7138C29.2 31.3872 29.0779 31.6848 28.4908 31.6848H22.6557C19.2472 31.6848 16.4736 34.5423 16.4736 38.0541V46.3394C16.4736 46.5789 16.6623 46.7732 16.8948 46.7732H22.1757C22.4081 46.7732 22.5968 46.5789 22.5968 46.3394V39.144C22.5968 38.5652 23.0541 38.094 23.6159 38.094H31.9584V48.6571C31.9584 48.8966 32.147 49.091 32.3795 49.091C32.612 49.091 32.8006 48.8966 32.8006 48.6571V37.6619C32.8006 37.6619 32.8006 37.661 32.8006 37.6601C32.8006 37.6593 32.8006 37.6593 32.8006 37.6584V29.387C32.8006 29.387 32.8006 29.3862 32.8006 29.3853C32.8006 29.3844 32.8006 29.3844 32.8006 29.3836V26.6632C32.8006 26.5243 32.7358 26.3933 32.6271 26.3117C28.2946 23.0733 27.6907 19.4591 27.6848 19.4183C27.4161 17.7696 27.6292 16.5218 28.3173 15.7087C28.9414 14.972 29.8351 14.7516 30.3488 14.6865V19.7003C30.3488 19.9398 30.5375 20.1342 30.77 20.1342C31.0024 20.1342 31.1911 19.9398 31.1911 19.7003V12.9189C31.1911 12.2898 31.688 11.7769 32.2987 11.7769C32.9093 11.7769 33.407 12.2889 33.407 12.9189V16.5469C33.407 16.7864 33.5957 16.9808 33.8282 16.9808C34.0606 16.9808 34.2493 16.7864 34.2493 16.5469V12.9189C34.2493 12.2898 34.7462 11.7769 35.3569 11.7769C35.9675 11.7769 36.4653 12.2889 36.4653 12.9189V16.5469C36.4653 16.7864 36.6539 16.9808 36.8864 16.9808C36.9352 16.9808 36.9816 16.9704 37.0254 16.9548C37.0338 16.9522 37.0422 16.9504 37.0506 16.947C37.0523 16.9461 37.0548 16.9444 37.0565 16.9435C37.2039 16.8758 37.3075 16.724 37.3075 16.5469V12.9189C37.3075 12.2898 37.8044 11.7769 38.4159 11.7769C39.0274 11.7769 39.5235 12.2889 39.5235 12.9189V16.5469C39.5235 16.7864 39.7121 16.9808 39.9446 16.9808C40.177 16.9808 40.3657 16.7864 40.3657 16.5469V14.1008C40.3657 13.4716 40.8626 12.9588 41.4741 12.9588C42.0856 12.9588 42.5825 13.4708 42.5825 14.1008V16.5469C42.5825 16.5556 42.5842 16.5634 42.585 16.5721C42.585 16.5808 42.585 16.5886 42.585 16.5973C42.8419 18.8664 43.0028 24.9424 40.6883 25.7989C40.5207 25.8605 40.4095 26.0245 40.4095 26.2076V28.9523H38.6408C38.1708 28.9523 37.7286 29.1415 37.3951 29.4851C37.0616 29.8287 36.878 30.2851 36.878 30.7685C36.878 31.5555 37.3673 32.2254 38.0487 32.4771C37.8297 32.7903 37.7118 33.1635 37.716 33.5557C37.7253 34.3245 38.2146 34.9797 38.8926 35.2348C38.6745 35.5437 38.5549 35.9125 38.5549 36.2995C38.5549 37.0866 39.0442 37.7565 39.7256 38.0081C39.5108 38.3144 39.3938 38.6806 39.3938 39.065C39.3938 39.7913 39.8107 40.4178 40.4104 40.7085V48.6571C40.4104 48.8966 40.599 49.091 40.8315 49.091C41.0639 49.091 41.2526 48.8966 41.2526 48.6571V40.8821H42.7628C43.7347 40.8821 44.5256 40.0673 44.5256 39.0659C44.5256 38.5114 44.283 38.0159 43.9032 37.6827C44.283 37.3495 44.5256 36.854 44.5256 36.3004C44.5256 35.7459 44.283 35.2504 43.9032 34.9172C44.283 34.584 44.5256 34.0885 44.5256 33.5349L44.5247 33.534ZM21.7554 45.9046H17.3167V44.6099H21.7554V45.9046ZM23.6167 37.2254C22.59 37.2254 21.7554 38.0853 21.7554 39.1431V43.7413H17.3167V38.0532C17.3167 35.0196 19.7121 32.5517 22.6566 32.5517H28.4917C29.707 32.5517 30.0035 31.6492 30.22 30.9906C30.4659 30.2418 30.6327 29.8495 31.4404 29.8183H31.9592V37.2254H23.6167ZM37.7202 30.7685C37.7202 30.516 37.8162 30.2782 37.9906 30.0986C38.1649 29.919 38.3965 29.82 38.6408 29.82H42.7619C43.2698 29.82 43.6825 30.2452 43.6825 30.7685C43.6825 31.2917 43.2698 31.7169 42.7628 31.7169H39.4805H39.4788H38.6416C38.1338 31.7169 37.7202 31.2917 37.7202 30.7685ZM38.5582 33.5444C38.5549 33.2884 38.6517 33.0463 38.8286 32.8632C39.003 32.6836 39.2346 32.5847 39.4788 32.5847H42.7611C43.2681 32.5847 43.6808 33.0107 43.6808 33.5331C43.6808 34.0572 43.2681 34.4824 42.7602 34.4824H39.5142C38.992 34.4824 38.5633 34.0616 38.5566 33.5453L38.5582 33.5444ZM43.6825 39.065C43.6825 39.5883 43.2698 40.0135 42.7619 40.0135H41.1557C40.6479 40.0135 40.2343 39.5874 40.2343 39.0642C40.2343 38.8116 40.3303 38.5739 40.5047 38.3943C40.679 38.2146 40.9106 38.1157 41.1549 38.1157H42.7611C43.2689 38.1157 43.6816 38.5409 43.6816 39.0642L43.6825 39.065ZM43.6825 36.2986C43.6825 36.8219 43.2706 37.2471 42.7636 37.248H42.7619H41.1557H41.1524H40.3177C39.8098 37.248 39.3963 36.8219 39.3963 36.2986C39.3963 36.047 39.4923 35.8084 39.6666 35.6287C39.841 35.4491 40.0726 35.3502 40.3169 35.3502H42.7611C43.2689 35.3502 43.6816 35.7754 43.6816 36.2986H43.6825Z"/>
</mask>
<path d="M44.5247 33.534C44.5247 32.9795 44.2822 32.484 43.9023 32.1508C44.2822 31.8176 44.5247 31.3221 44.5247 30.7685C44.5247 29.7671 43.7339 28.9523 42.7619 28.9523H41.2518V26.4922C42.5547 25.8188 43.3153 23.9636 43.514 20.9716C43.6589 18.7918 43.4526 16.7795 43.4248 16.5226V14.1008C43.4248 12.9926 42.5497 12.0911 41.4741 12.0911C41.042 12.0911 40.6428 12.2368 40.3194 12.4824C40.1257 11.5834 39.3457 10.9092 38.4159 10.9092C37.7969 10.9092 37.2443 11.2086 36.8872 11.6737C36.5301 11.2086 35.9776 10.9092 35.3577 10.9092C34.7378 10.9092 34.1861 11.2086 33.8282 11.6737C33.4711 11.2086 32.9185 10.9092 32.2987 10.9092C31.2231 10.9092 30.3488 11.8108 30.3488 12.9189V13.8118C29.7188 13.876 28.5397 14.1329 27.689 15.1308C26.8215 16.1486 26.5402 17.6403 26.8527 19.5572C26.8763 19.7168 27.4801 23.4525 31.9584 26.8836V28.9523H31.432C31.4269 28.9523 31.4227 28.9523 31.4177 28.9523C29.9841 29.0026 29.659 29.9918 29.4215 30.7138C29.2 31.3872 29.0779 31.6848 28.4908 31.6848H22.6557C19.2472 31.6848 16.4736 34.5423 16.4736 38.0541V46.3394C16.4736 46.5789 16.6623 46.7732 16.8948 46.7732H22.1757C22.4081 46.7732 22.5968 46.5789 22.5968 46.3394V39.144C22.5968 38.5652 23.0541 38.094 23.6159 38.094H31.9584V48.6571C31.9584 48.8966 32.147 49.091 32.3795 49.091C32.612 49.091 32.8006 48.8966 32.8006 48.6571V37.6619C32.8006 37.6619 32.8006 37.661 32.8006 37.6601C32.8006 37.6593 32.8006 37.6593 32.8006 37.6584V29.387C32.8006 29.387 32.8006 29.3862 32.8006 29.3853C32.8006 29.3844 32.8006 29.3844 32.8006 29.3836V26.6632C32.8006 26.5243 32.7358 26.3933 32.6271 26.3117C28.2946 23.0733 27.6907 19.4591 27.6848 19.4183C27.4161 17.7696 27.6292 16.5218 28.3173 15.7087C28.9414 14.972 29.8351 14.7516 30.3488 14.6865V19.7003C30.3488 19.9398 30.5375 20.1342 30.77 20.1342C31.0024 20.1342 31.1911 19.9398 31.1911 19.7003V12.9189C31.1911 12.2898 31.688 11.7769 32.2987 11.7769C32.9093 11.7769 33.407 12.2889 33.407 12.9189V16.5469C33.407 16.7864 33.5957 16.9808 33.8282 16.9808C34.0606 16.9808 34.2493 16.7864 34.2493 16.5469V12.9189C34.2493 12.2898 34.7462 11.7769 35.3569 11.7769C35.9675 11.7769 36.4653 12.2889 36.4653 12.9189V16.5469C36.4653 16.7864 36.6539 16.9808 36.8864 16.9808C36.9352 16.9808 36.9816 16.9704 37.0254 16.9548C37.0338 16.9522 37.0422 16.9504 37.0506 16.947C37.0523 16.9461 37.0548 16.9444 37.0565 16.9435C37.2039 16.8758 37.3075 16.724 37.3075 16.5469V12.9189C37.3075 12.2898 37.8044 11.7769 38.4159 11.7769C39.0274 11.7769 39.5235 12.2889 39.5235 12.9189V16.5469C39.5235 16.7864 39.7121 16.9808 39.9446 16.9808C40.177 16.9808 40.3657 16.7864 40.3657 16.5469V14.1008C40.3657 13.4716 40.8626 12.9588 41.4741 12.9588C42.0856 12.9588 42.5825 13.4708 42.5825 14.1008V16.5469C42.5825 16.5556 42.5842 16.5634 42.585 16.5721C42.585 16.5808 42.585 16.5886 42.585 16.5973C42.8419 18.8664 43.0028 24.9424 40.6883 25.7989C40.5207 25.8605 40.4095 26.0245 40.4095 26.2076V28.9523H38.6408C38.1708 28.9523 37.7286 29.1415 37.3951 29.4851C37.0616 29.8287 36.878 30.2851 36.878 30.7685C36.878 31.5555 37.3673 32.2254 38.0487 32.4771C37.8297 32.7903 37.7118 33.1635 37.716 33.5557C37.7253 34.3245 38.2146 34.9797 38.8926 35.2348C38.6745 35.5437 38.5549 35.9125 38.5549 36.2995C38.5549 37.0866 39.0442 37.7565 39.7256 38.0081C39.5108 38.3144 39.3938 38.6806 39.3938 39.065C39.3938 39.7913 39.8107 40.4178 40.4104 40.7085V48.6571C40.4104 48.8966 40.599 49.091 40.8315 49.091C41.0639 49.091 41.2526 48.8966 41.2526 48.6571V40.8821H42.7628C43.7347 40.8821 44.5256 40.0673 44.5256 39.0659C44.5256 38.5114 44.283 38.0159 43.9032 37.6827C44.283 37.3495 44.5256 36.854 44.5256 36.3004C44.5256 35.7459 44.283 35.2504 43.9032 34.9172C44.283 34.584 44.5256 34.0885 44.5256 33.5349L44.5247 33.534ZM21.7554 45.9046H17.3167V44.6099H21.7554V45.9046ZM23.6167 37.2254C22.59 37.2254 21.7554 38.0853 21.7554 39.1431V43.7413H17.3167V38.0532C17.3167 35.0196 19.7121 32.5517 22.6566 32.5517H28.4917C29.707 32.5517 30.0035 31.6492 30.22 30.9906C30.4659 30.2418 30.6327 29.8495 31.4404 29.8183H31.9592V37.2254H23.6167ZM37.7202 30.7685C37.7202 30.516 37.8162 30.2782 37.9906 30.0986C38.1649 29.919 38.3965 29.82 38.6408 29.82H42.7619C43.2698 29.82 43.6825 30.2452 43.6825 30.7685C43.6825 31.2917 43.2698 31.7169 42.7628 31.7169H39.4805H39.4788H38.6416C38.1338 31.7169 37.7202 31.2917 37.7202 30.7685ZM38.5582 33.5444C38.5549 33.2884 38.6517 33.0463 38.8286 32.8632C39.003 32.6836 39.2346 32.5847 39.4788 32.5847H42.7611C43.2681 32.5847 43.6808 33.0107 43.6808 33.5331C43.6808 34.0572 43.2681 34.4824 42.7602 34.4824H39.5142C38.992 34.4824 38.5633 34.0616 38.5566 33.5453L38.5582 33.5444ZM43.6825 39.065C43.6825 39.5883 43.2698 40.0135 42.7619 40.0135H41.1557C40.6479 40.0135 40.2343 39.5874 40.2343 39.0642C40.2343 38.8116 40.3303 38.5739 40.5047 38.3943C40.679 38.2146 40.9106 38.1157 41.1549 38.1157H42.7611C43.2689 38.1157 43.6816 38.5409 43.6816 39.0642L43.6825 39.065ZM43.6825 36.2986C43.6825 36.8219 43.2706 37.2471 42.7636 37.248H42.7619H41.1557H41.1524H40.3177C39.8098 37.248 39.3963 36.8219 39.3963 36.2986C39.3963 36.047 39.4923 35.8084 39.6666 35.6287C39.841 35.4491 40.0726 35.3502 40.3169 35.3502H42.7611C43.2689 35.3502 43.6816 35.7754 43.6816 36.2986H43.6825Z" fill="#EA5B0B"/>
<path d="M44.5247 33.534C44.5247 32.9795 44.2822 32.484 43.9023 32.1508C44.2822 31.8176 44.5247 31.3221 44.5247 30.7685C44.5247 29.7671 43.7339 28.9523 42.7619 28.9523H41.2518V26.4922C42.5547 25.8188 43.3153 23.9636 43.514 20.9716C43.6589 18.7918 43.4526 16.7795 43.4248 16.5226V14.1008C43.4248 12.9926 42.5497 12.0911 41.4741 12.0911C41.042 12.0911 40.6428 12.2368 40.3194 12.4824C40.1257 11.5834 39.3457 10.9092 38.4159 10.9092C37.7969 10.9092 37.2443 11.2086 36.8872 11.6737C36.5301 11.2086 35.9776 10.9092 35.3577 10.9092C34.7378 10.9092 34.1861 11.2086 33.8282 11.6737C33.4711 11.2086 32.9185 10.9092 32.2987 10.9092C31.2231 10.9092 30.3488 11.8108 30.3488 12.9189V13.8118C29.7188 13.876 28.5397 14.1329 27.689 15.1308C26.8215 16.1486 26.5402 17.6403 26.8527 19.5572C26.8763 19.7168 27.4801 23.4525 31.9584 26.8836V28.9523H31.432C31.4269 28.9523 31.4227 28.9523 31.4177 28.9523C29.9841 29.0026 29.659 29.9918 29.4215 30.7138C29.2 31.3872 29.0779 31.6848 28.4908 31.6848H22.6557C19.2472 31.6848 16.4736 34.5423 16.4736 38.0541V46.3394C16.4736 46.5789 16.6623 46.7732 16.8948 46.7732H22.1757C22.4081 46.7732 22.5968 46.5789 22.5968 46.3394V39.144C22.5968 38.5652 23.0541 38.094 23.6159 38.094H31.9584V48.6571C31.9584 48.8966 32.147 49.091 32.3795 49.091C32.612 49.091 32.8006 48.8966 32.8006 48.6571V37.6619C32.8006 37.6619 32.8006 37.661 32.8006 37.6601C32.8006 37.6593 32.8006 37.6593 32.8006 37.6584V29.387C32.8006 29.387 32.8006 29.3862 32.8006 29.3853C32.8006 29.3844 32.8006 29.3844 32.8006 29.3836V26.6632C32.8006 26.5243 32.7358 26.3933 32.6271 26.3117C28.2946 23.0733 27.6907 19.4591 27.6848 19.4183C27.4161 17.7696 27.6292 16.5218 28.3173 15.7087C28.9414 14.972 29.8351 14.7516 30.3488 14.6865V19.7003C30.3488 19.9398 30.5375 20.1342 30.77 20.1342C31.0024 20.1342 31.1911 19.9398 31.1911 19.7003V12.9189C31.1911 12.2898 31.688 11.7769 32.2987 11.7769C32.9093 11.7769 33.407 12.2889 33.407 12.9189V16.5469C33.407 16.7864 33.5957 16.9808 33.8282 16.9808C34.0606 16.9808 34.2493 16.7864 34.2493 16.5469V12.9189C34.2493 12.2898 34.7462 11.7769 35.3569 11.7769C35.9675 11.7769 36.4653 12.2889 36.4653 12.9189V16.5469C36.4653 16.7864 36.6539 16.9808 36.8864 16.9808C36.9352 16.9808 36.9816 16.9704 37.0254 16.9548C37.0338 16.9522 37.0422 16.9504 37.0506 16.947C37.0523 16.9461 37.0548 16.9444 37.0565 16.9435C37.2039 16.8758 37.3075 16.724 37.3075 16.5469V12.9189C37.3075 12.2898 37.8044 11.7769 38.4159 11.7769C39.0274 11.7769 39.5235 12.2889 39.5235 12.9189V16.5469C39.5235 16.7864 39.7121 16.9808 39.9446 16.9808C40.177 16.9808 40.3657 16.7864 40.3657 16.5469V14.1008C40.3657 13.4716 40.8626 12.9588 41.4741 12.9588C42.0856 12.9588 42.5825 13.4708 42.5825 14.1008V16.5469C42.5825 16.5556 42.5842 16.5634 42.585 16.5721C42.585 16.5808 42.585 16.5886 42.585 16.5973C42.8419 18.8664 43.0028 24.9424 40.6883 25.7989C40.5207 25.8605 40.4095 26.0245 40.4095 26.2076V28.9523H38.6408C38.1708 28.9523 37.7286 29.1415 37.3951 29.4851C37.0616 29.8287 36.878 30.2851 36.878 30.7685C36.878 31.5555 37.3673 32.2254 38.0487 32.4771C37.8297 32.7903 37.7118 33.1635 37.716 33.5557C37.7253 34.3245 38.2146 34.9797 38.8926 35.2348C38.6745 35.5437 38.5549 35.9125 38.5549 36.2995C38.5549 37.0866 39.0442 37.7565 39.7256 38.0081C39.5108 38.3144 39.3938 38.6806 39.3938 39.065C39.3938 39.7913 39.8107 40.4178 40.4104 40.7085V48.6571C40.4104 48.8966 40.599 49.091 40.8315 49.091C41.0639 49.091 41.2526 48.8966 41.2526 48.6571V40.8821H42.7628C43.7347 40.8821 44.5256 40.0673 44.5256 39.0659C44.5256 38.5114 44.283 38.0159 43.9032 37.6827C44.283 37.3495 44.5256 36.854 44.5256 36.3004C44.5256 35.7459 44.283 35.2504 43.9032 34.9172C44.283 34.584 44.5256 34.0885 44.5256 33.5349L44.5247 33.534ZM21.7554 45.9046H17.3167V44.6099H21.7554V45.9046ZM23.6167 37.2254C22.59 37.2254 21.7554 38.0853 21.7554 39.1431V43.7413H17.3167V38.0532C17.3167 35.0196 19.7121 32.5517 22.6566 32.5517H28.4917C29.707 32.5517 30.0035 31.6492 30.22 30.9906C30.4659 30.2418 30.6327 29.8495 31.4404 29.8183H31.9592V37.2254H23.6167ZM37.7202 30.7685C37.7202 30.516 37.8162 30.2782 37.9906 30.0986C38.1649 29.919 38.3965 29.82 38.6408 29.82H42.7619C43.2698 29.82 43.6825 30.2452 43.6825 30.7685C43.6825 31.2917 43.2698 31.7169 42.7628 31.7169H39.4805H39.4788H38.6416C38.1338 31.7169 37.7202 31.2917 37.7202 30.7685ZM38.5582 33.5444C38.5549 33.2884 38.6517 33.0463 38.8286 32.8632C39.003 32.6836 39.2346 32.5847 39.4788 32.5847H42.7611C43.2681 32.5847 43.6808 33.0107 43.6808 33.5331C43.6808 34.0572 43.2681 34.4824 42.7602 34.4824H39.5142C38.992 34.4824 38.5633 34.0616 38.5566 33.5453L38.5582 33.5444ZM43.6825 39.065C43.6825 39.5883 43.2698 40.0135 42.7619 40.0135H41.1557C40.6479 40.0135 40.2343 39.5874 40.2343 39.0642C40.2343 38.8116 40.3303 38.5739 40.5047 38.3943C40.679 38.2146 40.9106 38.1157 41.1549 38.1157H42.7611C43.2689 38.1157 43.6816 38.5409 43.6816 39.0642L43.6825 39.065ZM43.6825 36.2986C43.6825 36.8219 43.2706 37.2471 42.7636 37.248H42.7619H41.1557H41.1524H40.3177C39.8098 37.248 39.3963 36.8219 39.3963 36.2986C39.3963 36.047 39.4923 35.8084 39.6666 35.6287C39.841 35.4491 40.0726 35.3502 40.3169 35.3502H42.7611C43.2689 35.3502 43.6816 35.7754 43.6816 36.2986H43.6825Z" stroke="#EA5B0B" stroke-width="0.8" mask="url(#path-2-outside-1_2270_4507)"/>
</svg>
