<svg width="25" height="18" viewBox="0 0 25 18" fill="none" xmlns="http://www.w3.org/2000/svg">
<path fill-rule="evenodd" clip-rule="evenodd" d="M20.8333 1C20.8333 0.447715 20.2115 0 19.4444 0C18.6774 0 18.0556 0.447715 18.0556 1V2H1.38889C0.621827 2 0 2.44772 0 3C0 3.55228 0.621827 4 1.38889 4H18.0556V5C18.0556 5.55228 18.6774 6 19.4444 6C20.2115 6 20.8333 5.55228 20.8333 5V4H23.6111C24.3782 4 25 3.55228 25 3C25 2.44772 24.3782 2 23.6111 2H20.8333V1ZM1.38889 8C0.621827 8 0 8.44771 0 9C0 9.55229 0.621827 10 1.38889 10H4.16667V11C4.16667 11.5523 4.78849 12 5.55556 12C6.32262 12 6.94444 11.5523 6.94444 11V10H23.6111C24.3782 10 25 9.55229 25 9C25 8.44771 24.3782 8 23.6111 8H6.94444V7C6.94444 6.44772 6.32262 6 5.55556 6C4.78849 6 4.16667 6.44772 4.16667 7V8H1.38889ZM0 15C0 14.4477 0.621827 14 1.38889 14H18.0556V13C18.0556 12.4477 18.6774 12 19.4444 12C20.2115 12 20.8333 12.4477 20.8333 13V14H23.6111C24.3782 14 25 14.4477 25 15C25 15.5523 24.3782 16 23.6111 16H20.8333V17C20.8333 17.5523 20.2115 18 19.4444 18C18.6774 18 18.0556 17.5523 18.0556 17V16H1.38889C0.621827 16 0 15.5523 0 15Z" fill="#08110C"/>
</svg>
