<?xml version="1.0" standalone="no"?>
<!DOCTYPE svg PUBLIC "-//W3C//DTD SVG 20010904//EN"
 "http://www.w3.org/TR/2001/REC-SVG-20010904/DTD/svg10.dtd">
<svg version="1.0" xmlns="http://www.w3.org/2000/svg"
 width="274.000000pt" height="274.000000pt" viewBox="0 0 274.000000 274.000000"
 preserveAspectRatio="xMidYMid meet">

<g transform="translate(0.000000,274.000000) scale(0.100000,-0.100000)"
fill="#000000" stroke="none">
<path d="M730 2444 c-7 -7 -16 -12 -20 -9 -4 2 -15 -4 -25 -15 -10 -11 -22
-20 -28 -20 -18 0 -136 -101 -215 -184 -165 -175 -274 -387 -328 -636 -22
-105 -25 -368 -5 -480 31 -172 107 -360 208 -514 62 -93 259 -290 351 -350
220 -145 435 -214 692 -223 440 -16 846 180 1108 535 61 83 152 255 170 325
10 36 10 38 -11 33 -12 -3 -16 -3 -9 0 6 3 12 10 12 15 0 6 -4 7 -10 4 -6 -4
-7 1 -3 12 6 16 5 16 -10 4 -19 -15 -23 -1 -5 17 9 9 9 15 0 24 -7 7 -13 9
-13 5 -3 -13 -6 -22 -16 -47 -6 -14 -26 -61 -45 -105 -94 -221 -308 -454 -529
-577 -353 -196 -788 -202 -1149 -17 -408 209 -660 620 -660 1077 0 264 67 485
213 701 60 89 188 225 272 288 33 25 59 49 58 53 -1 4 5 7 15 6 10 0 16 5 13
14 -2 8 -4 22 -4 30 0 8 -4 21 -10 28 -12 15 5 16 19 2 7 -7 11 -7 11 3 0 18
-33 19 -47 1z m8 -38 c-10 -7 -14 -17 -10 -21 4 -5 1 -5 -5 -1 -7 4 -13 2 -13
-3 0 -6 -4 -11 -9 -11 -6 0 -4 10 2 23 25 46 29 49 41 37 8 -8 7 -15 -6 -24z
m-38 0 c0 -2 -8 -10 -17 -17 -16 -13 -17 -12 -4 4 13 16 21 21 21 13z"/>
<path d="M905 1496 c-101 -47 -162 -148 -152 -254 18 -209 255 -315 419 -188
l43 33 165 -83 166 -82 -4 -40 c-5 -56 21 -140 59 -185 17 -21 53 -49 80 -63
110 -55 219 -38 304 49 104 107 102 260 -5 367 -22 22 -45 38 -50 35 -6 -4
-10 -2 -10 4 0 15 -67 31 -128 31 -59 0 -105 -16 -158 -56 l-36 -28 -164 82
-164 82 0 59 0 59 93 48 c50 26 94 51 95 55 2 5 8 7 13 3 5 -3 9 3 9 13 0 15
2 16 10 3 7 -11 10 -11 10 -2 0 7 6 10 13 7 6 -4 3 1 -7 9 -11 9 -25 16 -32
16 -6 0 -17 7 -24 15 -7 9 -21 13 -31 10 -9 -3 -20 -1 -24 5 -3 5 -11 10 -16
10 -6 0 -7 -4 -4 -10 3 -5 0 -8 -7 -5 -7 3 -44 -10 -82 -28 l-70 -33 -48 33
c-88 59 -179 69 -263 29z m175 -122 c38 -23 62 -68 62 -115 -2 -139 -184 -181
-248 -56 -32 61 -1 152 61 177 33 14 95 11 125 -6z m791 -397 c89 -59 86 -172
-4 -227 -110 -67 -242 59 -182 174 38 72 122 96 186 53z"/>
<path d="M2590 1006 c0 -2 7 -7 16 -10 8 -3 12 -2 9 4 -6 10 -25 14 -25 6z"/>
<path d="M2620 972 c0 -21 19 -52 33 -52 7 0 6 4 -3 10 -10 6 -11 10 -2 10 6
0 12 5 12 11 0 5 -4 8 -9 4 -6 -3 -14 3 -20 12 -6 11 -11 13 -11 5z"/>
</g>
</svg>
