<?xml version="1.0" standalone="no"?>
<!DOCTYPE svg PUBLIC "-//W3C//DTD SVG 20010904//EN"
 "http://www.w3.org/TR/2001/REC-SVG-20010904/DTD/svg10.dtd">
<svg version="1.0" xmlns="http://www.w3.org/2000/svg"
 width="366.000000pt" height="370.000000pt" viewBox="0 0 366.000000 370.000000"
 preserveAspectRatio="xMidYMid meet">

<g transform="translate(0.000000,370.000000) scale(0.100000,-0.100000)"
fill="#000000" stroke="none">
<path d="M1575 3605 c-319 -51 -606 -174 -842 -362 -357 -283 -578 -649 -670
-1108 -22 -114 -25 -479 -5 -595 97 -542 400 -988 856 -1261 47 -28 89 -48 95
-45 5 4 13 1 17 -5 5 -8 3 -9 -7 -4 -9 5 -11 5 -4 -2 6 -5 53 -28 105 -50 567
-243 1187 -191 1700 141 112 73 364 286 338 286 -2 0 19 24 47 53 98 101 295
426 281 464 -3 8 -2 12 3 9 10 -7 13 -2 57 127 122 360 123 767 3 1137 -17 52
-57 149 -89 215 -58 121 -173 305 -191 305 -5 0 -9 7 -9 15 0 7 -6 18 -13 22
-6 4 -24 24 -38 43 -45 61 -180 189 -274 260 -228 173 -474 285 -751 341 -141
28 -470 36 -609 14z m504 -60 c583 -85 1070 -440 1326 -969 94 -195 145 -384
167 -624 28 -318 -57 -709 -211 -970 -17 -29 -28 -59 -25 -65 4 -7 4 -9 -1 -5
-4 4 -30 -25 -57 -65 -119 -172 -266 -323 -433 -442 -116 -83 -339 -194 -483
-240 -180 -57 -318 -77 -522 -77 -320 0 -595 71 -863 224 -345 196 -633 534
-765 898 -82 223 -107 373 -106 625 0 176 4 215 27 326 99 471 358 854 752
1114 129 85 265 151 402 195 54 18 105 35 113 38 8 2 22 6 30 7 8 1 53 10 100
18 115 22 134 24 299 25 86 1 186 -4 250 -13z"/>
<path d="M1185 2773 c-33 -32 -115 -110 -182 -175 l-123 -119 0 -665 c0 -727
-2 -706 59 -757 l33 -27 618 0 618 0 32 26 c29 25 33 26 76 14 75 -21 89 -39
114 -142 34 -141 82 -174 219 -149 82 15 215 78 258 123 l32 33 -39 115 c-31
91 -41 140 -49 235 -9 106 -16 138 -64 273 -38 106 -64 163 -83 184 -40 41
-185 110 -305 145 -142 40 -149 24 106 263 50 46 128 120 173 163 77 73 85 78
100 63 14 -14 9 -22 -64 -89 -43 -40 -94 -87 -113 -104 -34 -30 -38 -63 -9
-63 21 0 258 221 258 240 0 9 -9 25 -20 35 -11 10 -20 23 -20 29 0 6 22 33 50
60 58 57 76 105 61 164 -11 38 -47 80 -88 101 -28 14 -98 14 -126 -1 -20 -10
-124 -104 -331 -300 l-71 -66 -5 176 c-5 167 -6 179 -29 209 -47 62 -52 63
-564 63 l-462 0 -60 -57z m1022 -3 c7 -2 19 -21 28 -42 11 -30 15 -79 15 -217
l0 -179 -72 -67 c-67 -63 -72 -66 -79 -46 l-8 21 -488 -2 c-480 -3 -488 -3
-488 -23 0 -20 8 -20 490 -23 l489 -2 -54 -55 c-53 -54 -54 -55 -75 -162 -12
-59 -20 -114 -17 -120 9 -27 234 -3 268 28 11 10 23 19 27 19 4 0 7 -85 7
-190 0 -177 -1 -190 -18 -190 -10 0 -27 8 -38 18 -10 9 -43 37 -71 60 -54 45
-65 62 -38 62 24 0 18 39 -7 45 -13 3 -234 4 -493 3 l-470 -3 -3 -22 -3 -23
376 0 c355 0 377 -1 370 -17 -4 -10 -9 -34 -12 -53 -4 -31 2 -45 55 -115 199
-265 254 -331 295 -351 29 -16 30 -17 12 -30 -26 -19 -1211 -20 -1236 -1 -39
30 -39 38 -39 706 l0 649 134 4 c127 3 136 4 162 28 43 40 54 79 54 195 l0
106 458 -4 c251 -3 462 -6 469 -7z m-980 -131 c-2 -86 -4 -92 -30 -115 -26
-22 -37 -24 -125 -24 l-97 1 119 114 c66 63 123 115 127 115 5 0 8 -41 6 -91z
m1587 59 c35 -16 58 -54 58 -97 0 -31 -8 -43 -53 -84 l-52 -49 -71 71 -70 70
29 32 c61 64 108 81 159 57z m-94 -265 c0 -11 -39 -40 -43 -31 -1 2 -31 34
-66 70 -64 67 -65 68 -46 88 l19 21 68 -68 c37 -37 68 -73 68 -80z m-142 3
c34 -35 62 -68 62 -72 0 -6 -214 -215 -396 -387 l-61 -57 -68 76 -68 76 39 38
c90 88 418 390 424 390 4 0 35 -29 68 -64z m-498 -477 c23 -27 41 -52 39 -53
-2 -2 -30 -7 -62 -11 -54 -6 -58 -5 -54 12 3 10 9 37 12 61 4 23 10 42 14 42
4 0 27 -23 51 -51z m345 -131 c86 -28 216 -92 241 -120 12 -12 45 -88 73 -168
45 -124 53 -161 62 -260 5 -63 14 -127 19 -143 8 -23 6 -29 -13 -42 -37 -24
-149 -62 -230 -79 -97 -20 -117 -20 -117 0 0 30 -63 80 -130 103 -116 38 -135
54 -282 241 -76 96 -143 186 -149 200 -21 50 30 101 81 82 14 -6 65 -44 114
-85 98 -84 138 -100 245 -101 61 -1 66 1 69 21 2 12 -6 58 -18 102 -19 70 -26
83 -56 102 l-34 21 0 80 0 80 32 -8 c18 -3 60 -15 93 -26z m-86 -253 c16 -65
15 -77 -11 -73 -21 3 -23 9 -26 72 -3 59 -1 68 11 57 8 -6 20 -31 26 -56z
m525 -577 c15 -48 15 -52 -1 -70 -29 -32 -155 -87 -228 -99 -106 -17 -130 -3
-149 87 l-7 32 53 7 c70 10 210 51 256 75 21 10 42 19 48 20 6 0 18 -23 28
-52z"/>
<path d="M1442 2612 c-9 -6 -12 -33 -10 -98 l3 -89 309 -3 c219 -2 313 1 322
9 10 8 14 36 14 90 0 67 -3 80 -19 89 -24 12 -600 14 -619 2z m588 -97 l0 -45
-275 0 -275 0 0 45 0 45 275 0 275 0 0 -45z"/>
<path d="M1113 2044 c-3 -8 -1 -20 4 -25 5 -5 168 -8 409 -7 391 3 399 3 399
23 0 20 -8 20 -403 23 -359 2 -403 1 -409 -14z"/>
<path d="M1112 1858 l3 -23 375 -3 c206 -1 385 0 398 3 13 3 22 13 22 25 0 20
-8 20 -401 20 l-400 0 3 -22z"/>
<path d="M1103 1464 c-3 -8 -1 -20 4 -25 5 -5 145 -8 349 -7 331 3 339 3 339
23 0 20 -8 20 -343 23 -305 2 -343 1 -349 -14z"/>
<path d="M1110 1295 c-10 -12 -10 -18 0 -30 11 -13 61 -15 335 -15 178 0 330
3 339 6 21 8 21 40 0 48 -9 3 -161 6 -339 6 -274 0 -324 -2 -335 -15z"/>
</g>
</svg>
