<svg width="61" height="60" viewBox="0 0 61 60" fill="none" xmlns="http://www.w3.org/2000/svg">
<circle cx="30.5" cy="30" r="30" fill="white"/>
<g clip-path="url(#clip0_2270_4466)">
<path d="M45.5069 48.5233C45.8804 48.5233 46.1841 48.2221 46.1841 47.8494C46.1841 47.4766 45.8804 47.1754 45.5069 47.1754C45.1334 47.1754 44.8297 47.4766 44.8297 47.8494C44.8297 48.2221 45.1334 48.5233 45.5069 48.5233Z" fill="#EA5B0B" stroke="#EA5B0B" stroke-width="0.2"/>
<path d="M40.9725 33.1441C41.1438 32.9162 41.244 32.6417 41.263 32.3581L41.263 32.3574C41.2878 31.9513 41.1454 31.5544 40.8702 31.2561L40.8701 31.256C40.3027 30.6428 39.3502 30.5845 38.7119 31.1242L38.7119 31.1242L38.7104 31.1255L38.4775 31.3304C38.4288 31.2504 38.3732 31.1751 38.3118 31.1056L38.3118 31.1056L38.3102 31.1039C37.7431 30.4909 36.7906 30.4293 36.1521 30.9692L36.1516 30.9696L33.2074 33.4928L33.4275 32.5339C33.4276 32.5335 33.4277 32.5331 33.4278 32.5327C33.5356 32.1088 33.4492 31.6575 33.1933 31.304C32.9025 30.8727 32.4352 30.5908 31.9166 30.5301L31.9166 30.5301L31.9142 30.5299C31.1428 30.4577 30.6634 30.8685 30.3695 31.3543C30.0785 31.8354 29.9612 32.4009 29.9051 32.6727L29.9051 32.6729C29.7587 33.3896 29.418 34.0533 28.9194 34.5938L28.9193 34.5937L28.9159 34.5979L28.914 34.6002C28.3166 35.3234 27.1835 36.6951 27.4293 38.7648C27.4292 38.7656 27.4291 38.7665 27.4289 38.7675C27.4285 38.7699 27.4276 38.7754 27.4267 38.7812L16.1694 46.559V36.5213C16.1694 32.061 19.7565 28.4335 24.1502 28.4335H25.9453L25.9932 28.2457C25.4049 27.9248 24.8536 27.5442 24.3451 27.1095L24.317 27.0855H24.2801H24.1502C19.0089 27.0855 14.815 31.3214 14.815 36.5213V47.8517C14.815 48.2244 15.1243 48.5228 15.4951 48.5228C15.6316 48.5228 15.7667 48.4789 15.8781 48.4018L40.9725 33.1441ZM40.9725 33.1441C41.0416 33.1915 41.1074 33.2447 41.169 33.3038L41.1703 33.305L41.1712 33.306C41.1821 33.3168 41.1965 33.3311 41.2112 33.3492C41.7515 33.9798 41.6736 34.9231 41.0437 35.4607C41.0436 35.4608 41.0435 35.4609 41.0434 35.4609L40.4989 35.9286C40.5289 35.9555 40.5579 35.9835 40.5853 36.0123L40.5854 36.0123C40.5963 36.0231 40.6107 36.0375 40.6254 36.0555C41.1656 36.6861 41.0878 37.6294 40.4579 38.167C40.4578 38.1671 40.4577 38.1671 40.4576 38.1672L38.0167 40.2903L38.0161 40.2909C37.7927 40.4817 37.572 40.6812 37.3502 40.8817C36.6346 41.5844 35.8289 42.1974 34.9594 42.7007L34.954 42.7038L34.9539 42.7036C34.0316 43.1636 33.0072 43.3853 31.974 43.3514C31.8907 43.3591 31.8137 43.3839 31.7459 43.427L26.9164 48.2439L26.9163 48.244C26.9133 48.2469 26.911 48.2494 26.9084 48.2522C26.9056 48.2551 26.9025 48.2585 26.898 48.2633C26.8911 48.2704 26.8818 48.2799 26.8705 48.2892C26.5932 48.5393 26.1651 48.519 25.9148 48.2434C25.6617 47.9679 25.681 47.5411 25.9573 47.2912L30.8069 42.4572L30.8121 42.4521L30.8122 42.4523C31.1326 42.1761 31.5387 42.0182 31.9634 42.009L31.9655 42.009L32.0204 42.009H32.0232V42.0091C32.817 42.0315 33.6048 41.8633 34.3164 41.5129C35.0872 41.0612 35.7981 40.5159 36.432 39.8884L36.4348 39.8856L36.4349 39.8856C36.6476 39.6912 36.8609 39.4992 37.0772 39.3127L37.1521 39.2355L37.1583 39.229L37.1586 39.2294L39.5713 37.1515L39.5727 37.1503L39.5727 37.1503C39.6052 37.1234 39.6245 37.0858 39.6261 37.0481C39.628 37.0033 39.6128 36.963 39.5862 36.9366L39.5835 36.9339L39.5836 36.9339C39.5103 36.8553 39.3891 36.8473 39.3057 36.9163C39.3055 36.9164 39.3053 36.9166 39.3051 36.9167L36.5933 39.2438C36.5633 39.2735 36.5274 39.306 36.4864 39.3333M40.9725 33.1441L40.2122 34.352C40.2085 34.3956 40.1887 34.4334 40.1586 34.4584L40.1577 34.4591L35.7112 38.2299C35.4066 38.443 35.3333 38.8618 35.5458 39.1642C35.7591 39.4706 36.1816 39.5447 36.4864 39.3333M31.2294 32.9457C31.0412 33.8778 30.6065 34.7456 29.9721 35.4558C29.2995 36.2706 28.6186 37.2259 28.7863 38.6159L28.7864 38.6168C28.8394 39.0939 28.6369 39.5647 28.2508 39.8556L28.2475 39.8581L28.2475 39.8581L15.8782 48.4017L32.8689 35.4222M31.2294 32.9457C31.2294 32.9457 31.2294 32.9458 31.2294 32.9459L31.1315 32.9253L31.2295 32.9451C31.2295 32.9453 31.2294 32.9455 31.2294 32.9457ZM31.2294 32.9457C31.3529 32.3573 31.4796 32.0915 31.5802 31.9725C31.6281 31.9158 31.6679 31.8951 31.6972 31.8861C31.7265 31.8772 31.7515 31.8773 31.7861 31.8774C31.7877 31.8774 31.7894 31.8774 31.7911 31.8774C31.9113 31.8952 32.017 31.9602 32.0863 32.0567L32.0863 32.0567L32.0886 32.0597C32.119 32.0989 32.1292 32.1474 32.1169 32.1941L32.1164 32.1966L31.5409 34.6573C31.3754 35.0771 31.5793 35.5527 32.0004 35.7216C32.0004 35.7216 32.0005 35.7216 32.0005 35.7216L32.0377 35.6288M32.0377 35.6288C32.3292 35.7465 32.6668 35.6632 32.8689 35.4222M32.0377 35.6288C31.6654 35.4796 31.4865 35.0577 31.6365 34.6875L32.0377 35.6288ZM32.8689 35.4222L32.934 35.498L32.94 35.4929M32.8689 35.4222L32.9455 35.4864C32.9437 35.4886 32.9419 35.4907 32.94 35.4929M32.94 35.4929L37.0309 31.9806C37.1141 31.9141 37.2348 31.9219 37.3081 31.9992M32.94 35.4929L37.3081 31.9992M37.3081 31.9992C37.3596 32.0597 37.3851 32.137 37.3808 32.2138L37.3807 32.2138V32.2193C37.3807 32.2383 37.3734 32.2593 37.3558 32.2797L33.3877 35.6845C33.0833 35.8977 33.0101 36.3163 33.2226 36.6186C33.4359 36.925 33.8584 36.9991 34.1632 36.7877C34.2041 36.7604 34.24 36.7279 34.27 36.6982L39.5919 32.1403L39.5919 32.1403L39.5937 32.1388C39.6706 32.0698 39.7849 32.0733 39.854 32.1427C39.8552 32.1444 39.8564 32.1459 39.8573 32.147C39.8633 32.1544 39.8694 32.1597 39.8728 32.1625C39.9 32.1955 39.9134 32.2343 39.9118 32.2726C39.9102 32.3103 39.8909 32.3479 39.8584 32.3748L39.8584 32.3748L39.8571 32.3759L34.5324 36.9477L34.532 36.9472L34.5244 36.9554C34.2701 37.2286 34.2871 37.6566 34.5616 37.9093C34.7953 38.1248 35.1474 38.1483 35.408 37.9665L35.4083 37.967L35.4159 37.9604L39.8471 34.1606C39.9603 34.1211 40.0862 34.1518 40.1706 34.2374L37.3081 31.9992ZM36.4864 39.3333C36.4861 39.3335 36.4858 39.3337 36.4854 39.3339L36.4302 39.2506L36.4873 39.3327C36.487 39.3329 36.4867 39.3331 36.4864 39.3333ZM39.8795 32.1678L39.8783 32.1668C39.8795 32.1678 39.8804 32.1684 39.8795 32.1678ZM31.7982 31.7774C31.9482 31.7975 32.081 31.8778 32.1676 31.9984C32.2166 32.0615 32.2339 32.1419 32.2137 32.2193L31.7982 31.7774Z" fill="#EA5B0B" stroke="#EA5B0B" stroke-width="0.2"/>
<path d="M36.7043 27.0855H36.6674L36.6393 27.1095C36.1308 27.5442 35.5796 27.9248 34.9912 28.2457L35.0391 28.4335H36.8486C41.2538 28.4335 44.8294 32.0609 44.8294 36.5213V45.5529C44.8294 45.9243 45.1344 46.2269 45.5066 46.2269C45.8788 46.2269 46.1838 45.9243 46.1838 45.5529V36.5213C46.1838 31.3214 41.9928 27.0855 36.8486 27.0855H36.7043Z" fill="#EA5B0B" stroke="#EA5B0B" stroke-width="0.2"/>
<path d="M30.4993 28.4339C35.1774 28.4339 38.9687 24.6645 38.9687 20.0112C38.9687 15.3578 35.1774 11.5885 30.4993 11.5885C25.8212 11.5885 22.0299 15.3578 22.0299 20.0112C22.0299 24.6645 25.8212 28.4339 30.4993 28.4339ZM30.4993 12.9364C34.4302 12.9364 37.6143 16.1036 37.6143 20.0112C37.6143 23.9188 34.4302 27.0859 30.4993 27.0859C26.5684 27.0859 23.3843 23.9188 23.3843 20.0112C23.3843 16.1036 26.5684 12.9364 30.4993 12.9364Z" fill="#EA5B0B" stroke="#EA5B0B" stroke-width="0.2"/>
</g>
<defs>
<clipPath id="clip0_2270_4466">
<rect width="31.1688" height="36.7347" fill="white" transform="translate(14.915 11.6885)"/>
</clipPath>
</defs>
</svg>
