<svg width="154" height="154" viewBox="0 0 154 154" fill="none" xmlns="http://www.w3.org/2000/svg">
<g clip-path="url(#clip0_2268_2800)">
<path d="M115.519 124.385C116.391 124.385 117.1 123.681 117.1 122.812C117.1 121.943 116.391 121.239 115.519 121.239C114.646 121.239 113.937 121.943 113.937 122.812C113.937 123.681 114.646 124.385 115.519 124.385Z" fill="url(#paint0_linear_2268_2800)" stroke="url(#paint1_linear_2268_2800)" stroke-width="0.2"/>
<path d="M69.2614 99.6268C69.2617 99.6114 69.2633 99.5971 69.2647 99.586C69.2665 99.5725 69.269 99.5567 69.2712 99.5431C69.2722 99.5373 69.273 99.5319 69.2737 99.5273C69.276 99.5125 69.2772 99.5025 69.2776 99.4958C68.6462 94.2401 71.5221 90.7585 73.0554 88.9023L73.0562 88.9013L73.0597 88.8971L73.0598 88.8972C74.3587 87.4888 75.2464 85.7596 75.6279 83.8918L75.628 83.8916C75.7723 83.1927 76.0693 81.7662 76.8005 80.5573C77.5347 79.3437 78.7149 78.3383 80.6167 78.5161L80.619 78.5163C81.9063 78.6669 83.0654 79.367 83.7857 80.4367C84.4169 81.3073 84.6298 82.4195 84.3639 83.4639C84.3638 83.4643 84.3637 83.4647 84.3636 83.4651L83.6913 86.3933L91.609 79.6078L91.6095 79.6074C93.1839 78.2762 95.5336 78.4277 96.9327 79.9399L96.9342 79.9416C97.1266 80.1594 97.2959 80.4001 97.4369 80.6589L98.1784 80.0064L98.1799 80.0051C99.754 78.6742 102.104 78.8178 103.503 80.3303L103.503 80.3304C104.181 81.0649 104.531 82.0417 104.47 83.0414L104.47 83.042C104.42 83.796 104.136 84.5232 103.652 85.1072C103.874 85.2459 104.084 85.4078 104.277 85.5928L104.278 85.5941L104.279 85.5952C104.308 85.6238 104.34 85.6562 104.373 85.6968C105.705 87.2491 105.514 89.5728 103.961 90.8972C103.961 90.8972 103.961 90.8973 103.961 90.8973L102.424 92.2173C102.548 92.318 102.666 92.4272 102.775 92.5412L102.775 92.5415C102.804 92.5701 102.837 92.6025 102.869 92.643C104.201 94.1953 104.01 96.519 102.458 97.8434C102.458 97.8434 102.458 97.8435 102.457 97.8435L96.1916 103.294L96.1909 103.294C95.6149 103.786 95.046 104.301 94.476 104.816C92.6481 106.611 90.5901 108.177 88.3686 109.463L88.3632 109.466L88.3632 109.466C86.0166 110.636 83.4096 111.2 80.7803 111.112C80.5343 111.133 80.3038 111.207 80.1005 111.34L67.6928 123.715L67.6927 123.715C67.6813 123.727 67.6716 123.737 67.6608 123.749C67.6552 123.755 67.6493 123.761 67.6428 123.768C67.6259 123.786 67.6063 123.805 67.5835 123.824C66.9355 124.411 65.9333 124.363 65.3484 123.719C64.7561 123.075 64.8027 122.077 65.4497 121.495L77.8998 109.085L77.9049 109.079L77.9051 109.08C78.7002 108.394 79.7077 108.003 80.7608 107.98L80.763 107.98L80.9037 107.98H80.9065V107.98C82.9708 108.038 85.0202 107.6 86.8711 106.688C88.8627 105.521 90.6995 104.113 92.3371 102.492L92.3399 102.489L92.34 102.489C92.8873 101.989 93.4351 101.495 93.9906 101.017L94.1875 100.814L94.1937 100.807L94.194 100.808L100.387 95.4745L100.388 95.4732C100.502 95.3789 100.575 95.2424 100.582 95.0967C100.588 94.9441 100.537 94.7959 100.433 94.693L100.431 94.6904L100.431 94.6903C100.185 94.4274 99.7793 94.4014 99.5015 94.6323C99.5013 94.6324 99.5012 94.6326 99.501 94.6327L92.5345 100.611C92.4594 100.685 92.3738 100.763 92.2784 100.826M69.2614 99.6268L102.086 88.1835C102.073 88.3349 102.003 88.4715 101.892 88.5639L101.891 88.5646L90.4724 98.2478C89.7563 98.7442 89.5835 99.7251 90.0809 100.432C90.579 101.148 91.5667 101.321 92.2784 100.826M69.2614 99.6268L40.063 119.8V93.7382C40.063 82.2054 49.3379 72.8228 60.7037 72.8228H65.3111L65.359 72.635C63.8392 71.806 62.4153 70.8229 61.102 69.7004L61.074 69.6764H61.037H60.7037C47.5956 69.6764 36.9 80.4766 36.9 93.7382V122.819C36.9 123.687 37.6207 124.385 38.4889 124.385C38.8062 124.385 39.1223 124.283 39.3828 124.102L39.3828 124.102L39.3259 124.02L39.3829 124.102L69.2614 99.6268ZM92.2784 100.826C92.2781 100.826 92.2778 100.826 92.2775 100.827L92.2222 100.743L92.2794 100.825C92.279 100.826 92.2787 100.826 92.2784 100.826ZM75.5278 90.9011C77.1388 89.0982 78.2428 86.8949 78.7202 84.5284C79.0382 83.0141 79.3694 82.2988 79.6542 81.9618C79.7942 81.796 79.921 81.7242 80.0285 81.6913C80.1274 81.6611 80.215 81.6615 80.3021 81.662C80.3103 81.662 80.3184 81.6621 80.3265 81.6621C80.6817 81.7114 80.9953 81.9023 81.2003 82.1876L81.2002 82.1876L81.2025 82.1906C81.3098 82.3287 81.3471 82.5031 81.3032 82.6712L81.3026 82.6737L79.8229 89.001C79.4222 90.0008 79.9065 91.1375 80.9109 91.5402C81.6964 91.8571 82.6057 91.6348 83.1528 90.9876L93.6629 81.9639C93.6633 81.9636 93.6636 81.9634 93.664 81.9631C93.9416 81.7393 94.3471 81.7651 94.5922 82.0267C94.7522 82.2131 94.832 82.4522 94.8187 82.6909L94.8185 82.6909V82.6965C94.8185 82.7914 94.78 82.8842 94.7081 82.9633L84.5092 91.7143C83.7933 92.2107 83.6206 93.1914 84.1179 93.8985C84.6161 94.614 85.6038 94.787 86.3155 94.2923C86.4108 94.229 86.4964 94.1515 86.5715 94.0769L100.235 82.3746L100.237 82.3731C100.498 82.1389 100.895 82.1502 101.131 82.4C101.135 82.4051 101.138 82.409 101.14 82.4117C101.148 82.422 101.157 82.4292 101.161 82.4322L101.167 82.4367L101.167 82.4372C101.267 82.5513 101.321 82.6936 101.315 82.8396C101.309 82.9852 101.235 83.1218 101.121 83.2161L101.12 83.2172L87.4534 94.9514L87.453 94.9509L87.4453 94.9591C86.8519 95.5965 86.8916 96.5955 87.5323 97.1854C88.078 97.6887 88.9003 97.7436 89.509 97.3191L89.5093 97.3195L89.5169 97.313L100.912 87.5418C101.269 87.4039 101.67 87.4976 101.935 87.7674C102.042 87.8803 102.098 88.0292 102.086 88.1832L75.5278 90.9011ZM75.5278 90.9011C75.5282 90.9006 75.5286 90.9001 75.529 90.8996L75.4519 90.836L75.5264 90.9026C75.5269 90.9021 75.5273 90.9016 75.5278 90.9011ZM100.504 94.6221C100.63 94.7474 100.689 94.9241 100.681 95.1009C100.674 95.2777 100.585 95.4398 100.452 95.5502L94.2593 100.883L94.0593 101.09L100.504 94.6221ZM80.9037 108.08H80.763C79.7333 108.102 78.7481 108.485 77.9704 109.155L65.5185 121.567L80.9037 108.08Z" fill="url(#paint2_linear_2268_2800)" stroke="url(#paint3_linear_2268_2800)" stroke-width="0.2"/>
<path d="M92.9264 69.6764H92.8895L92.8614 69.7004C91.5482 70.8229 90.1242 71.806 88.6045 72.635L88.6523 72.8228H93.2968C104.692 72.8228 113.938 82.2053 113.938 93.7382V116.919C113.938 117.785 114.649 118.492 115.519 118.492C116.389 118.492 117.1 117.785 117.1 116.919V93.7382C117.1 80.4766 106.412 69.6764 93.2968 69.6764H92.9264Z" fill="url(#paint4_linear_2268_2800)" stroke="url(#paint5_linear_2268_2800)" stroke-width="0.2"/>
<path d="M77 72.8232C88.9214 72.8232 98.5815 63.2178 98.5815 51.3616C98.5815 39.5054 88.9214 29.9 77 29.9C65.0787 29.9 55.4186 39.5054 55.4186 51.3616C55.4186 63.2178 65.0787 72.8232 77 72.8232ZM77 33.0464C87.175 33.0464 95.4186 41.2448 95.4186 51.3616C95.4186 61.4784 87.175 69.6768 77 69.6768C66.8251 69.6768 58.5815 61.4784 58.5815 51.3616C58.5815 41.2448 66.8251 33.0464 77 33.0464Z" fill="url(#paint6_linear_2268_2800)" stroke="url(#paint7_linear_2268_2800)" stroke-width="0.2"/>
</g>
<circle cx="77" cy="77" r="75.5" stroke="url(#paint8_linear_2268_2800)" stroke-width="3"/>
<defs>
<linearGradient id="paint0_linear_2268_2800" x1="116.162" y1="122.003" x2="114.785" y2="123.787" gradientUnits="userSpaceOnUse">
<stop stop-color="#F39200"/>
<stop offset="0.33" stop-color="#EA5B0B"/>
<stop offset="0.635" stop-color="#D60B51"/>
<stop offset="1" stop-color="#A11881"/>
</linearGradient>
<linearGradient id="paint1_linear_2268_2800" x1="116.162" y1="122.003" x2="114.785" y2="123.787" gradientUnits="userSpaceOnUse">
<stop stop-color="#F39200"/>
<stop offset="0.33" stop-color="#EA5B0B"/>
<stop offset="0.635" stop-color="#D60B51"/>
<stop offset="1" stop-color="#A11881"/>
</linearGradient>
<linearGradient id="paint2_linear_2268_2800" x1="85.8841" y1="82.061" x2="62.2923" y2="120.083" gradientUnits="userSpaceOnUse">
<stop stop-color="#F39200"/>
<stop offset="0.33" stop-color="#EA5B0B"/>
<stop offset="0.635" stop-color="#D60B51"/>
<stop offset="1" stop-color="#A11881"/>
</linearGradient>
<linearGradient id="paint3_linear_2268_2800" x1="85.8841" y1="82.061" x2="62.2923" y2="120.083" gradientUnits="userSpaceOnUse">
<stop stop-color="#F39200"/>
<stop offset="0.33" stop-color="#EA5B0B"/>
<stop offset="0.635" stop-color="#D60B51"/>
<stop offset="1" stop-color="#A11881"/>
</linearGradient>
<linearGradient id="paint4_linear_2268_2800" x1="108.983" y1="80.733" x2="86.4261" y2="97.6858" gradientUnits="userSpaceOnUse">
<stop stop-color="#F39200"/>
<stop offset="0.33" stop-color="#EA5B0B"/>
<stop offset="0.635" stop-color="#D60B51"/>
<stop offset="1" stop-color="#A11881"/>
</linearGradient>
<linearGradient id="paint5_linear_2268_2800" x1="108.983" y1="80.733" x2="86.4261" y2="97.6858" gradientUnits="userSpaceOnUse">
<stop stop-color="#F39200"/>
<stop offset="0.33" stop-color="#EA5B0B"/>
<stop offset="0.635" stop-color="#D60B51"/>
<stop offset="1" stop-color="#A11881"/>
</linearGradient>
<linearGradient id="paint6_linear_2268_2800" x1="86.3312" y1="39.6285" x2="66.3692" y2="65.5014" gradientUnits="userSpaceOnUse">
<stop stop-color="#F39200"/>
<stop offset="0.33" stop-color="#EA5B0B"/>
<stop offset="0.635" stop-color="#D60B51"/>
<stop offset="1" stop-color="#A11881"/>
</linearGradient>
<linearGradient id="paint7_linear_2268_2800" x1="86.3312" y1="39.6285" x2="66.3692" y2="65.5014" gradientUnits="userSpaceOnUse">
<stop stop-color="#F39200"/>
<stop offset="0.33" stop-color="#EA5B0B"/>
<stop offset="0.635" stop-color="#D60B51"/>
<stop offset="1" stop-color="#A11881"/>
</linearGradient>
<linearGradient id="paint8_linear_2268_2800" x1="110.447" y1="34.707" x2="38.3914" y2="127.578" gradientUnits="userSpaceOnUse">
<stop stop-color="#F39200"/>
<stop offset="0.33" stop-color="#EA5B0B"/>
<stop offset="0.635" stop-color="#D60B51"/>
<stop offset="1" stop-color="#A11881"/>
</linearGradient>
<clipPath id="clip0_2268_2800">
<rect width="80" height="94.2857" fill="white" transform="translate(37 30)"/>
</clipPath>
</defs>
</svg>
