<svg width="74" height="62" viewBox="0 0 74 62" fill="none" xmlns="http://www.w3.org/2000/svg">
<g clip-path="url(#clip0_2500_3384)">
<path d="M5.30293 0C2.41042 0 0 2.43808 0 5.41254V55.9296C0 58.904 2.41042 61.3421 5.30293 61.3421H68.6488C71.5896 61.3421 73.9518 58.904 73.9518 55.9296V5.41254C73.9518 2.43808 71.5414 0 68.6488 0H5.30293ZM5.30293 2.58436H68.6488C70.1915 2.58436 71.3967 3.80341 71.3967 5.41254V13.8971H2.55505V5.41254C2.55505 3.80341 3.76026 2.58436 5.30293 2.58436ZM9.15961 6.7291C8.43648 6.7291 7.90619 7.31424 7.90619 7.9969C7.90619 8.72833 8.48469 9.2647 9.15961 9.2647H12.6306C13.3537 9.2647 13.884 8.67957 13.884 7.9969C13.884 7.26548 13.3055 6.7291 12.6306 6.7291H9.15961ZM19.187 6.7291C18.4638 6.7291 17.9335 7.31424 17.9335 7.9969C17.9335 8.72833 18.512 9.2647 19.187 9.2647H22.658C23.3811 9.2647 23.9114 8.67957 23.9114 7.9969C23.9114 7.26548 23.3329 6.7291 22.658 6.7291H19.187ZM2.55505 16.4814H71.4449V55.9296C71.4449 57.5387 70.2397 58.7577 68.6971 58.7577H5.30293C3.76026 58.7577 2.55505 57.5387 2.55505 55.9296V16.4814ZM33.071 22.4303C32.3479 22.4303 31.8176 23.0155 31.8176 23.6981V27.8916C30.2267 28.3305 28.684 29.0132 27.2378 29.8421L24.3453 26.8676C23.8632 26.38 23.0436 26.38 22.5616 26.8676L16.9694 32.524C16.4873 33.0116 16.4873 33.8406 16.9694 34.3282L19.8619 37.3026C19.0423 38.7655 18.4156 40.3258 17.9335 41.9837H13.8358C13.1127 41.9837 12.5824 42.5689 12.5824 43.2515V51.2484C12.5824 51.9799 13.1609 52.5163 13.8358 52.5163H17.9335C18.0782 53.0526 18.2228 53.5402 18.4156 54.0279C18.6567 54.7105 19.3798 55.0519 20.0547 54.808C20.7296 54.5642 21.0671 53.8328 20.8261 53.1502C20.585 52.4187 20.344 51.6873 20.1993 50.9559C20.0547 50.3707 19.5726 49.9319 18.9459 49.9319H15.1375V44.4706H18.9459C19.5244 44.4706 20.0547 44.0317 20.1993 43.4466C20.6332 41.3986 21.4528 39.4481 22.5616 37.6927C22.899 37.2051 22.8026 36.5224 22.4169 36.0836L19.7173 33.3042L23.4775 29.452L26.1772 32.1827C26.6111 32.6215 27.286 32.6703 27.7681 32.3777C29.5036 31.2562 31.4319 30.4272 33.4085 29.9884C33.987 29.8421 34.4208 29.3545 34.4208 28.7206V24.8197H39.772V28.7206C39.772 29.3057 40.2059 29.8421 40.7844 29.9884C42.8091 30.4272 44.6892 31.2562 46.4247 32.3777C46.955 32.719 47.5818 32.6215 48.0156 32.1827L50.7153 29.452L54.4756 33.3042L51.7759 36.0836C51.342 36.5224 51.2938 37.1563 51.6313 37.6927C52.7401 39.4481 53.5596 41.3986 53.9935 43.4466C54.1381 44.0317 54.6202 44.4706 55.2469 44.4706H59.0554V49.9319H55.2469C54.6684 49.9319 54.1381 50.3707 53.9935 50.9559C53.8489 51.6873 53.6078 52.4675 53.3668 53.1502C53.1257 53.8328 53.4632 54.5642 54.1381 54.808C54.813 55.0519 55.5361 54.7105 55.7772 54.0279C55.97 53.5402 56.1146 53.0039 56.2593 52.5163H60.357C61.0801 52.5163 61.6104 51.9311 61.6104 51.2484V43.2515C61.6104 42.5201 61.0319 41.9837 60.357 41.9837H56.2593C55.8254 40.3258 55.1987 38.7655 54.3309 37.3026L57.2234 34.3282C57.7055 33.8406 57.7055 33.0116 57.2234 32.524L51.6313 26.8676C51.1492 26.38 50.3296 26.38 49.8475 26.8676L46.955 29.7933C45.5088 28.9644 43.9661 28.2817 42.3752 27.8429V23.6494C42.3752 22.918 41.7967 22.3816 41.1218 22.3816H33.2156L33.071 22.4303ZM36.9759 39.1068C32.5407 39.1068 28.8769 42.8127 28.8769 47.3475C28.8769 51.8824 32.4925 55.5882 36.9759 55.5882C41.4593 55.5882 45.0749 51.8824 45.0749 47.3475C45.0749 42.8127 41.4593 39.1068 36.9759 39.1068ZM36.9759 41.6912C40.0612 41.6912 42.5199 44.178 42.5199 47.3475C42.5199 50.517 40.0612 53.0039 36.9759 53.0039C33.8905 53.0039 31.4319 50.517 31.4319 47.3475C31.4319 44.178 33.8905 41.6912 36.9759 41.6912Z" fill="black"/>
</g>
<defs>
<clipPath id="clip0_2500_3384">
<rect width="74" height="61.3421" fill="white"/>
</clipPath>
</defs>
</svg>
