<svg width="18" height="16" viewBox="0 0 18 16" fill="none" xmlns="http://www.w3.org/2000/svg">
<path d="M8.6212 1.03524C8.77612 0.721327 9.22374 0.721327 9.37867 1.03524L11.3842 5.09883C11.4457 5.22348 11.5646 5.30988 11.7022 5.32987L16.1866 5.9815C16.533 6.03184 16.6714 6.45755 16.4207 6.7019L13.1757 9.86496C13.0762 9.96199 13.0308 10.1018 13.0542 10.2388L13.8203 14.7051C13.8795 15.0501 13.5173 15.3132 13.2075 15.1504L9.19647 13.0416C9.07343 12.977 8.92644 12.977 8.8034 13.0416L4.79239 15.1504C4.48254 15.3132 4.12041 15.0501 4.17958 14.7051L4.94562 10.2388C4.96912 10.1018 4.92369 9.96199 4.82415 9.86496L1.57918 6.7019C1.32851 6.45755 1.46683 6.03184 1.81325 5.9815L6.29769 5.32987C6.43525 5.30988 6.55417 5.22348 6.61569 5.09883L8.6212 1.03524Z" fill="url(#paint0_linear_2687_4487)" stroke="url(#paint1_linear_2687_4487)" stroke-width="1.5" stroke-linejoin="round"/>
<defs>
<linearGradient id="paint0_linear_2687_4487" x1="12.279" y1="4.04513" x2="5.62693" y2="13.0341" gradientUnits="userSpaceOnUse">
<stop stop-color="#F39200"/>
<stop offset="0.49" stop-color="#EA5B0B"/>
<stop offset="1" stop-color="#D60B51"/>
</linearGradient>
<linearGradient id="paint1_linear_2687_4487" x1="12.279" y1="4.04513" x2="5.62693" y2="13.0341" gradientUnits="userSpaceOnUse">
<stop stop-color="#F39200"/>
<stop offset="0.49" stop-color="#EA5B0B"/>
<stop offset="1" stop-color="#D60B51"/>
</linearGradient>
</defs>
</svg>
