<svg width="60" height="61" viewBox="0 0 60 61" fill="none" xmlns="http://www.w3.org/2000/svg">
<g clip-path="url(#clip0_1941_1128)">
<path d="M38.9942 40.5356C38.7778 40.5356 38.5615 40.4757 38.3701 40.3558L30.5412 35.4418C30.1737 35.2146 29.7451 35.0919 29.3069 35.0919C28.8686 35.0919 28.4373 35.2146 28.049 35.4474L20.2299 40.3558C19.8221 40.6109 19.302 40.5928 18.9137 40.3097C18.5254 40.0267 18.3465 39.5345 18.4616 39.0659L20.6861 30.0469C20.908 29.1809 20.6099 28.255 19.9289 27.6778L12.8476 21.6901C12.48 21.3792 12.3372 20.8758 12.4856 20.4157C12.634 19.9555 13.0459 19.6334 13.5244 19.5999L22.7429 18.9529C23.6346 18.8943 24.4182 18.3254 24.7455 17.5027L28.2154 8.89082C28.3957 8.44322 28.8284 8.15039 29.3083 8.15039C29.7881 8.15039 30.2208 8.44461 30.4011 8.89222L33.8544 17.4999C34.1914 18.3212 34.9764 18.8943 35.8529 18.9529L45.077 19.5999C45.5568 19.6334 45.9673 19.9555 46.1157 20.4157C46.2641 20.8758 46.1213 21.3792 45.7537 21.6901L38.671 27.6778C37.9984 28.2481 37.7016 29.1781 37.9152 30.0469L40.1397 39.0645C40.2548 39.5331 40.0759 40.0253 39.6876 40.3083C39.4823 40.4589 39.2382 40.5342 38.9955 40.5342L38.9942 40.5356ZM16.5935 21.7599L21.4461 25.8622C22.8177 27.0238 23.4155 28.8937 22.9703 30.6269L21.4489 36.7944L26.8091 33.4297C26.8091 33.4297 26.8216 33.4227 26.8272 33.4186C27.5844 32.9612 28.4429 32.72 29.3069 32.72C30.1709 32.72 31.0377 32.964 31.7838 33.4255L37.1496 36.7944L35.6255 30.6158C35.1983 28.8769 35.7974 27.0112 37.151 25.8636L42.005 21.7599L35.692 21.3164C33.9293 21.1993 32.3497 20.0517 31.6701 18.3938L29.3041 12.4982L26.9312 18.3882C26.271 20.0489 24.6872 21.2007 22.901 21.3178L16.5935 21.7613V21.7599Z" fill="white"/>
<path d="M29.9313 61L20.3828 50.0288H6.31024C2.83059 50.0288 0 47.1828 0 43.6842V6.34458C0 2.846 2.83059 0 6.31024 0H53.6884C57.168 0 59.9986 2.846 59.9986 6.34458V43.6828C59.9986 47.1814 57.168 50.0274 53.6884 50.0274H40.0624L29.93 60.9986L29.9313 61ZM6.31024 2.3705C4.13009 2.3705 2.35767 4.15396 2.35767 6.34458V43.6828C2.35767 45.8748 4.13147 47.6569 6.31024 47.6569H21.452L29.9827 57.4596L39.0347 47.6569H53.6884C55.8685 47.6569 57.6409 45.8734 57.6409 43.6828V6.34458C57.6409 4.15256 55.8671 2.3705 53.6884 2.3705H6.31024Z" fill="white"/>
</g>
<defs>
<clipPath id="clip0_1941_1128">
<rect width="60" height="61" fill="white"/>
</clipPath>
</defs>
</svg>
