<svg width="40" height="40" viewBox="0 0 40 40" fill="none" xmlns="http://www.w3.org/2000/svg">
<circle cx="20" cy="20" r="19.5" stroke="url(#paint0_linear_2039_9675)"/>
<g clip-path="url(#clip0_2039_9675)">
<mask id="path-2-outside-1_2039_9675" maskUnits="userSpaceOnUse" x="9" y="9" width="22" height="22" fill="black">
<rect fill="white" x="9" y="9" width="22" height="22"/>
<path d="M29.3333 26H14V10.6667C14 10.3 13.7 10 13.3333 10H10.6667C10.3 10 10 10.3 10 10.6667V29.3333C10 29.7 10.3 30 10.6667 30H29.3333C29.7 30 30 29.7 30 29.3333V26.6667C30 26.3 29.7 26 29.3333 26ZM13.3333 10.6667V11.6667H12C11.8167 11.6667 11.6667 11.8167 11.6667 12C11.6667 12.1833 11.8167 12.3333 12 12.3333H13.3333V13H12.6667C12.4833 13 12.3333 13.15 12.3333 13.3333C12.3333 13.5167 12.4833 13.6667 12.6667 13.6667H13.3333V14.3333H12.6667C12.4833 14.3333 12.3333 14.4833 12.3333 14.6667C12.3333 14.85 12.4833 15 12.6667 15H13.3333V15.6667H12.6667C12.4833 15.6667 12.3333 15.8167 12.3333 16C12.3333 16.1833 12.4833 16.3333 12.6667 16.3333H13.3333V17H12.6667C12.4833 17 12.3333 17.15 12.3333 17.3333C12.3333 17.5167 12.4833 17.6667 12.6667 17.6667H13.3333V18.3333H12C11.8167 18.3333 11.6667 18.4833 11.6667 18.6667C11.6667 18.85 11.8167 19 12 19H13.3333V19.6667H12.6667C12.4833 19.6667 12.3333 19.8167 12.3333 20C12.3333 20.1833 12.4833 20.3333 12.6667 20.3333H13.3333V21H12.6667C12.4833 21 12.3333 21.15 12.3333 21.3333C12.3333 21.5167 12.4833 21.6667 12.6667 21.6667H13.3333V22.3333H12.6667C12.4833 22.3333 12.3333 22.4833 12.3333 22.6667C12.3333 22.85 12.4833 23 12.6667 23H13.3333V23.6667H12.6667C12.4833 23.6667 12.3333 23.8167 12.3333 24C12.3333 24.1833 12.4833 24.3333 12.6667 24.3333H13.3333V25H12C11.8167 25 11.6667 25.15 11.6667 25.3333C11.6667 25.5167 11.8167 25.6667 12 25.6667H13.3333V26C13.3333 26.06 13.3433 26.1167 13.3567 26.17L10.6667 28.86V10.6667H13.3333ZM29.3333 29.3333H11.1367L13.8267 26.6433C13.88 26.6567 13.9367 26.6667 13.9967 26.6667H14.33V28C14.33 28.09 14.3667 28.1733 14.4267 28.2367C14.49 28.3 14.5733 28.3333 14.6633 28.3333C14.7533 28.3333 14.8367 28.2967 14.9 28.2367C14.9633 28.1733 14.9967 28.09 14.9967 28V26.6667H15.6633V27.3333C15.6633 27.4233 15.7 27.5067 15.76 27.57C15.8233 27.6333 15.9067 27.6667 15.9967 27.6667C16.0867 27.6667 16.17 27.63 16.2333 27.57C16.2967 27.5067 16.33 27.4233 16.33 27.3333V26.6667H16.9967V27.3333C16.9967 27.4233 17.0333 27.5067 17.0933 27.57C17.1567 27.6333 17.24 27.6667 17.33 27.6667C17.42 27.6667 17.5033 27.63 17.5667 27.57C17.63 27.5067 17.6633 27.4233 17.6633 27.3333V26.6667H18.33V27.3333C18.33 27.4233 18.3667 27.5067 18.4267 27.57C18.49 27.6333 18.5733 27.6667 18.6633 27.6667C18.7533 27.6667 18.8367 27.63 18.9 27.57C18.9633 27.5067 18.9967 27.4233 18.9967 27.3333V26.6667H19.6633V27.3333C19.6633 27.4233 19.7 27.5067 19.76 27.57C19.8233 27.6333 19.9067 27.6667 19.9967 27.6667C20.0867 27.6667 20.17 27.63 20.2333 27.57C20.2967 27.5067 20.33 27.4233 20.33 27.3333V26.6667H20.9967V28C20.9967 28.09 21.0333 28.1733 21.0933 28.2367C21.1567 28.3 21.24 28.3333 21.33 28.3333C21.42 28.3333 21.5033 28.2967 21.5667 28.2367C21.63 28.1733 21.6633 28.09 21.6633 28V26.6667H22.33V27.3333C22.33 27.4233 22.3667 27.5067 22.4267 27.57C22.49 27.6333 22.5733 27.6667 22.6633 27.6667C22.7533 27.6667 22.8367 27.63 22.9 27.57C22.9633 27.5067 22.9967 27.4233 22.9967 27.3333V26.6667H23.6633V27.3333C23.6633 27.4233 23.7 27.5067 23.76 27.57C23.8233 27.6333 23.9067 27.6667 23.9967 27.6667C24.0867 27.6667 24.17 27.63 24.2333 27.57C24.2967 27.5067 24.33 27.4233 24.33 27.3333V26.6667H24.9967V27.3333C24.9967 27.4233 25.0333 27.5067 25.0933 27.57C25.1567 27.6333 25.24 27.6667 25.33 27.6667C25.42 27.6667 25.5033 27.63 25.5667 27.57C25.63 27.5067 25.6633 27.4233 25.6633 27.3333V26.6667H26.33V27.3333C26.33 27.4233 26.3667 27.5067 26.4267 27.57C26.49 27.6333 26.5733 27.6667 26.6633 27.6667C26.7533 27.6667 26.8367 27.63 26.9 27.57C26.9633 27.5067 26.9967 27.4233 26.9967 27.3333V26.6667H27.6633V28C27.6633 28.09 27.7 28.1733 27.76 28.2367C27.8233 28.3 27.9067 28.3333 27.9967 28.3333C28.0867 28.3333 28.17 28.2967 28.2333 28.2367C28.2967 28.1733 28.33 28.09 28.33 28V26.6667H29.33V29.3333H29.3333Z"/>
</mask>
<path d="M29.3333 26H14V10.6667C14 10.3 13.7 10 13.3333 10H10.6667C10.3 10 10 10.3 10 10.6667V29.3333C10 29.7 10.3 30 10.6667 30H29.3333C29.7 30 30 29.7 30 29.3333V26.6667C30 26.3 29.7 26 29.3333 26ZM13.3333 10.6667V11.6667H12C11.8167 11.6667 11.6667 11.8167 11.6667 12C11.6667 12.1833 11.8167 12.3333 12 12.3333H13.3333V13H12.6667C12.4833 13 12.3333 13.15 12.3333 13.3333C12.3333 13.5167 12.4833 13.6667 12.6667 13.6667H13.3333V14.3333H12.6667C12.4833 14.3333 12.3333 14.4833 12.3333 14.6667C12.3333 14.85 12.4833 15 12.6667 15H13.3333V15.6667H12.6667C12.4833 15.6667 12.3333 15.8167 12.3333 16C12.3333 16.1833 12.4833 16.3333 12.6667 16.3333H13.3333V17H12.6667C12.4833 17 12.3333 17.15 12.3333 17.3333C12.3333 17.5167 12.4833 17.6667 12.6667 17.6667H13.3333V18.3333H12C11.8167 18.3333 11.6667 18.4833 11.6667 18.6667C11.6667 18.85 11.8167 19 12 19H13.3333V19.6667H12.6667C12.4833 19.6667 12.3333 19.8167 12.3333 20C12.3333 20.1833 12.4833 20.3333 12.6667 20.3333H13.3333V21H12.6667C12.4833 21 12.3333 21.15 12.3333 21.3333C12.3333 21.5167 12.4833 21.6667 12.6667 21.6667H13.3333V22.3333H12.6667C12.4833 22.3333 12.3333 22.4833 12.3333 22.6667C12.3333 22.85 12.4833 23 12.6667 23H13.3333V23.6667H12.6667C12.4833 23.6667 12.3333 23.8167 12.3333 24C12.3333 24.1833 12.4833 24.3333 12.6667 24.3333H13.3333V25H12C11.8167 25 11.6667 25.15 11.6667 25.3333C11.6667 25.5167 11.8167 25.6667 12 25.6667H13.3333V26C13.3333 26.06 13.3433 26.1167 13.3567 26.17L10.6667 28.86V10.6667H13.3333ZM29.3333 29.3333H11.1367L13.8267 26.6433C13.88 26.6567 13.9367 26.6667 13.9967 26.6667H14.33V28C14.33 28.09 14.3667 28.1733 14.4267 28.2367C14.49 28.3 14.5733 28.3333 14.6633 28.3333C14.7533 28.3333 14.8367 28.2967 14.9 28.2367C14.9633 28.1733 14.9967 28.09 14.9967 28V26.6667H15.6633V27.3333C15.6633 27.4233 15.7 27.5067 15.76 27.57C15.8233 27.6333 15.9067 27.6667 15.9967 27.6667C16.0867 27.6667 16.17 27.63 16.2333 27.57C16.2967 27.5067 16.33 27.4233 16.33 27.3333V26.6667H16.9967V27.3333C16.9967 27.4233 17.0333 27.5067 17.0933 27.57C17.1567 27.6333 17.24 27.6667 17.33 27.6667C17.42 27.6667 17.5033 27.63 17.5667 27.57C17.63 27.5067 17.6633 27.4233 17.6633 27.3333V26.6667H18.33V27.3333C18.33 27.4233 18.3667 27.5067 18.4267 27.57C18.49 27.6333 18.5733 27.6667 18.6633 27.6667C18.7533 27.6667 18.8367 27.63 18.9 27.57C18.9633 27.5067 18.9967 27.4233 18.9967 27.3333V26.6667H19.6633V27.3333C19.6633 27.4233 19.7 27.5067 19.76 27.57C19.8233 27.6333 19.9067 27.6667 19.9967 27.6667C20.0867 27.6667 20.17 27.63 20.2333 27.57C20.2967 27.5067 20.33 27.4233 20.33 27.3333V26.6667H20.9967V28C20.9967 28.09 21.0333 28.1733 21.0933 28.2367C21.1567 28.3 21.24 28.3333 21.33 28.3333C21.42 28.3333 21.5033 28.2967 21.5667 28.2367C21.63 28.1733 21.6633 28.09 21.6633 28V26.6667H22.33V27.3333C22.33 27.4233 22.3667 27.5067 22.4267 27.57C22.49 27.6333 22.5733 27.6667 22.6633 27.6667C22.7533 27.6667 22.8367 27.63 22.9 27.57C22.9633 27.5067 22.9967 27.4233 22.9967 27.3333V26.6667H23.6633V27.3333C23.6633 27.4233 23.7 27.5067 23.76 27.57C23.8233 27.6333 23.9067 27.6667 23.9967 27.6667C24.0867 27.6667 24.17 27.63 24.2333 27.57C24.2967 27.5067 24.33 27.4233 24.33 27.3333V26.6667H24.9967V27.3333C24.9967 27.4233 25.0333 27.5067 25.0933 27.57C25.1567 27.6333 25.24 27.6667 25.33 27.6667C25.42 27.6667 25.5033 27.63 25.5667 27.57C25.63 27.5067 25.6633 27.4233 25.6633 27.3333V26.6667H26.33V27.3333C26.33 27.4233 26.3667 27.5067 26.4267 27.57C26.49 27.6333 26.5733 27.6667 26.6633 27.6667C26.7533 27.6667 26.8367 27.63 26.9 27.57C26.9633 27.5067 26.9967 27.4233 26.9967 27.3333V26.6667H27.6633V28C27.6633 28.09 27.7 28.1733 27.76 28.2367C27.8233 28.3 27.9067 28.3333 27.9967 28.3333C28.0867 28.3333 28.17 28.2967 28.2333 28.2367C28.2967 28.1733 28.33 28.09 28.33 28V26.6667H29.33V29.3333H29.3333Z" fill="url(#paint1_linear_2039_9675)"/>
<path d="M29.3333 26H14V10.6667C14 10.3 13.7 10 13.3333 10H10.6667C10.3 10 10 10.3 10 10.6667V29.3333C10 29.7 10.3 30 10.6667 30H29.3333C29.7 30 30 29.7 30 29.3333V26.6667C30 26.3 29.7 26 29.3333 26ZM13.3333 10.6667V11.6667H12C11.8167 11.6667 11.6667 11.8167 11.6667 12C11.6667 12.1833 11.8167 12.3333 12 12.3333H13.3333V13H12.6667C12.4833 13 12.3333 13.15 12.3333 13.3333C12.3333 13.5167 12.4833 13.6667 12.6667 13.6667H13.3333V14.3333H12.6667C12.4833 14.3333 12.3333 14.4833 12.3333 14.6667C12.3333 14.85 12.4833 15 12.6667 15H13.3333V15.6667H12.6667C12.4833 15.6667 12.3333 15.8167 12.3333 16C12.3333 16.1833 12.4833 16.3333 12.6667 16.3333H13.3333V17H12.6667C12.4833 17 12.3333 17.15 12.3333 17.3333C12.3333 17.5167 12.4833 17.6667 12.6667 17.6667H13.3333V18.3333H12C11.8167 18.3333 11.6667 18.4833 11.6667 18.6667C11.6667 18.85 11.8167 19 12 19H13.3333V19.6667H12.6667C12.4833 19.6667 12.3333 19.8167 12.3333 20C12.3333 20.1833 12.4833 20.3333 12.6667 20.3333H13.3333V21H12.6667C12.4833 21 12.3333 21.15 12.3333 21.3333C12.3333 21.5167 12.4833 21.6667 12.6667 21.6667H13.3333V22.3333H12.6667C12.4833 22.3333 12.3333 22.4833 12.3333 22.6667C12.3333 22.85 12.4833 23 12.6667 23H13.3333V23.6667H12.6667C12.4833 23.6667 12.3333 23.8167 12.3333 24C12.3333 24.1833 12.4833 24.3333 12.6667 24.3333H13.3333V25H12C11.8167 25 11.6667 25.15 11.6667 25.3333C11.6667 25.5167 11.8167 25.6667 12 25.6667H13.3333V26C13.3333 26.06 13.3433 26.1167 13.3567 26.17L10.6667 28.86V10.6667H13.3333ZM29.3333 29.3333H11.1367L13.8267 26.6433C13.88 26.6567 13.9367 26.6667 13.9967 26.6667H14.33V28C14.33 28.09 14.3667 28.1733 14.4267 28.2367C14.49 28.3 14.5733 28.3333 14.6633 28.3333C14.7533 28.3333 14.8367 28.2967 14.9 28.2367C14.9633 28.1733 14.9967 28.09 14.9967 28V26.6667H15.6633V27.3333C15.6633 27.4233 15.7 27.5067 15.76 27.57C15.8233 27.6333 15.9067 27.6667 15.9967 27.6667C16.0867 27.6667 16.17 27.63 16.2333 27.57C16.2967 27.5067 16.33 27.4233 16.33 27.3333V26.6667H16.9967V27.3333C16.9967 27.4233 17.0333 27.5067 17.0933 27.57C17.1567 27.6333 17.24 27.6667 17.33 27.6667C17.42 27.6667 17.5033 27.63 17.5667 27.57C17.63 27.5067 17.6633 27.4233 17.6633 27.3333V26.6667H18.33V27.3333C18.33 27.4233 18.3667 27.5067 18.4267 27.57C18.49 27.6333 18.5733 27.6667 18.6633 27.6667C18.7533 27.6667 18.8367 27.63 18.9 27.57C18.9633 27.5067 18.9967 27.4233 18.9967 27.3333V26.6667H19.6633V27.3333C19.6633 27.4233 19.7 27.5067 19.76 27.57C19.8233 27.6333 19.9067 27.6667 19.9967 27.6667C20.0867 27.6667 20.17 27.63 20.2333 27.57C20.2967 27.5067 20.33 27.4233 20.33 27.3333V26.6667H20.9967V28C20.9967 28.09 21.0333 28.1733 21.0933 28.2367C21.1567 28.3 21.24 28.3333 21.33 28.3333C21.42 28.3333 21.5033 28.2967 21.5667 28.2367C21.63 28.1733 21.6633 28.09 21.6633 28V26.6667H22.33V27.3333C22.33 27.4233 22.3667 27.5067 22.4267 27.57C22.49 27.6333 22.5733 27.6667 22.6633 27.6667C22.7533 27.6667 22.8367 27.63 22.9 27.57C22.9633 27.5067 22.9967 27.4233 22.9967 27.3333V26.6667H23.6633V27.3333C23.6633 27.4233 23.7 27.5067 23.76 27.57C23.8233 27.6333 23.9067 27.6667 23.9967 27.6667C24.0867 27.6667 24.17 27.63 24.2333 27.57C24.2967 27.5067 24.33 27.4233 24.33 27.3333V26.6667H24.9967V27.3333C24.9967 27.4233 25.0333 27.5067 25.0933 27.57C25.1567 27.6333 25.24 27.6667 25.33 27.6667C25.42 27.6667 25.5033 27.63 25.5667 27.57C25.63 27.5067 25.6633 27.4233 25.6633 27.3333V26.6667H26.33V27.3333C26.33 27.4233 26.3667 27.5067 26.4267 27.57C26.49 27.6333 26.5733 27.6667 26.6633 27.6667C26.7533 27.6667 26.8367 27.63 26.9 27.57C26.9633 27.5067 26.9967 27.4233 26.9967 27.3333V26.6667H27.6633V28C27.6633 28.09 27.7 28.1733 27.76 28.2367C27.8233 28.3 27.9067 28.3333 27.9967 28.3333C28.0867 28.3333 28.17 28.2967 28.2333 28.2367C28.2967 28.1733 28.33 28.09 28.33 28V26.6667H29.33V29.3333H29.3333Z" stroke="url(#paint2_linear_2039_9675)" stroke-width="0.2" stroke-linejoin="round" mask="url(#path-2-outside-1_2039_9675)"/>
<path d="M23.1588 24.0574C23.1588 24.0573 23.1587 24.0573 23.1587 24.0573L23.1561 24.0566L23.1557 24.0565L23.1588 24.0574ZM23.1588 24.0574C23.166 24.0609 23.1763 24.0658 23.1902 24.0705C23.1898 24.0704 23.1895 24.0702 23.1891 24.0701L23.1588 24.0574ZM23.4755 24.0732C23.4806 24.072 23.4848 24.0707 23.4878 24.0696C23.4957 24.0669 23.5022 24.0639 23.5063 24.0618C23.5068 24.0616 23.5073 24.0613 23.5077 24.0611C23.5242 24.0565 23.5357 24.0501 23.5377 24.0491L23.538 24.0489L23.538 24.0489L23.5398 24.0479L29.8724 20.715C29.8725 20.715 29.8726 20.7149 29.8727 20.7148C30.017 20.6404 30.1033 20.4921 30.1033 20.3328V13.6661C30.1033 13.5052 30.0123 13.3582 29.8735 13.2845C29.8682 13.2816 29.8626 13.2793 29.8569 13.2775L23.5365 9.95096L23.5365 9.95096L23.5359 9.95063C23.4104 9.88573 23.2595 9.88573 23.134 9.95063L23.134 9.95063L23.1333 9.95096L16.8008 13.2839C16.8007 13.284 16.8005 13.284 16.8004 13.2841L23.4755 24.0732ZM23.3333 17.0305L17.7199 13.777L23.3333 10.8225L28.9466 13.777L23.3333 17.0305ZM17.4333 20.0724V14.613L22.8999 17.7804V22.9505L17.4333 20.0724ZM29.2333 20.0691L23.7666 22.9471V17.7771L29.2333 14.6096V20.0691Z" fill="url(#paint3_linear_2039_9675)" stroke="url(#paint4_linear_2039_9675)" stroke-width="0.2" stroke-linejoin="round"/>
</g>
<defs>
<linearGradient id="paint0_linear_2039_9675" x1="28.6877" y1="9.0148" x2="9.9718" y2="33.1372" gradientUnits="userSpaceOnUse">
<stop stop-color="#F39200"/>
<stop offset="0.33" stop-color="#EA5B0B"/>
<stop offset="0.635" stop-color="#D60B51"/>
<stop offset="1" stop-color="#A11881"/>
</linearGradient>
<linearGradient id="paint1_linear_2039_9675" x1="24.3438" y1="14.5074" x2="14.9859" y2="26.5686" gradientUnits="userSpaceOnUse">
<stop stop-color="#F39200"/>
<stop offset="0.33" stop-color="#EA5B0B"/>
<stop offset="0.635" stop-color="#D60B51"/>
<stop offset="1" stop-color="#A11881"/>
</linearGradient>
<linearGradient id="paint2_linear_2039_9675" x1="24.3438" y1="14.5074" x2="14.9859" y2="26.5686" gradientUnits="userSpaceOnUse">
<stop stop-color="#F39200"/>
<stop offset="0.33" stop-color="#EA5B0B"/>
<stop offset="0.635" stop-color="#D60B51"/>
<stop offset="1" stop-color="#A11881"/>
</linearGradient>
<linearGradient id="paint3_linear_2039_9675" x1="26.2325" y1="13.1566" x2="19.6109" y2="21.286" gradientUnits="userSpaceOnUse">
<stop stop-color="#F39200"/>
<stop offset="0.33" stop-color="#EA5B0B"/>
<stop offset="0.635" stop-color="#D60B51"/>
<stop offset="1" stop-color="#A11881"/>
</linearGradient>
<linearGradient id="paint4_linear_2039_9675" x1="26.2325" y1="13.1566" x2="19.6109" y2="21.286" gradientUnits="userSpaceOnUse">
<stop stop-color="#F39200"/>
<stop offset="0.33" stop-color="#EA5B0B"/>
<stop offset="0.635" stop-color="#D60B51"/>
<stop offset="1" stop-color="#A11881"/>
</linearGradient>
<clipPath id="clip0_2039_9675">
<rect width="20" height="20" fill="white" transform="translate(10 10)"/>
</clipPath>
</defs>
</svg>
