<?xml version="1.0" standalone="no"?>
<!DOCTYPE svg PUBLIC "-//W3C//DTD SVG 20010904//EN"
 "http://www.w3.org/TR/2001/REC-SVG-20010904/DTD/svg10.dtd">
<svg version="1.0" xmlns="http://www.w3.org/2000/svg"
 width="512.000000pt" height="512.000000pt" viewBox="0 0 512.000000 512.000000"
 preserveAspectRatio="xMidYMid meet">

<g transform="translate(0.000000,512.000000) scale(0.100000,-0.100000)"
fill="#000000" stroke="none">
<path d="M3353 4465 c-182 -40 -355 -200 -408 -379 l-12 -41 -1078 -5 c-1012
-5 -1078 -6 -1089 -22 -8 -13 -8 -23 0 -35 11 -17 75 -18 1083 -21 l1071 -2 0
-44 c0 -25 3 -51 6 -60 5 -14 -13 -16 -169 -16 -127 0 -177 -3 -185 -12 -5 -7
-28 -137 -51 -288 -23 -151 -82 -544 -132 -872 -75 -488 -89 -600 -79 -613 11
-13 144 -15 1150 -15 964 0 1139 2 1149 14 9 11 -18 211 -120 888 -72 480
-136 879 -141 886 -8 9 -55 12 -170 12 l-160 0 6 23 c3 12 6 39 6 59 l0 37
156 3 c137 3 158 5 168 21 8 12 8 22 0 35 -10 15 -32 17 -177 20 l-165 2 -6
35 c-13 66 -77 177 -140 239 -136 136 -326 191 -513 151z m236 -80 c242 -64
398 -305 351 -542 -19 -97 -28 -116 -144 -286 -68 -101 -139 -225 -212 -369
l-109 -217 -110 217 c-99 194 -157 293 -282 472 -183 263 -43 640 268 724 70
19 170 20 238 1z m-619 -682 c13 -31 53 -97 89 -147 91 -126 149 -229 276
-485 110 -222 129 -247 161 -220 9 7 72 125 140 262 122 242 183 348 276 474
25 34 56 87 69 118 l23 55 143 0 c109 0 143 -3 143 -13 0 -7 54 -370 120 -807
66 -437 120 -801 120 -807 0 -10 -221 -13 -1070 -13 -1038 0 -1070 1 -1070 19
0 10 16 121 36 247 60 387 204 1348 204 1361 0 10 36 13 158 13 l157 0 25 -57z"/>
<path d="M3472 4268 c-7 -7 -12 -33 -12 -59 l0 -47 -56 -4 c-46 -4 -61 -10
-87 -37 l-32 -31 0 -110 0 -110 32 -31 c26 -27 41 -33 87 -37 l55 -4 3 -51 c6
-94 70 -93 76 2 l3 51 38 0 c20 0 42 -5 49 -12 17 -17 16 -162 -1 -177 -8 -6
-76 -12 -172 -13 -138 -3 -159 -5 -169 -20 -8 -13 -8 -23 0 -35 9 -14 28 -19
92 -21 l81 -3 3 -51 c6 -94 70 -95 76 -1 l3 51 55 4 c46 4 61 10 87 37 l32 31
0 110 0 110 -32 31 c-26 27 -41 33 -87 37 l-55 4 -3 51 c-6 94 -70 93 -76 -2
l-3 -51 -38 0 c-20 0 -42 5 -49 12 -17 17 -16 162 1 177 8 6 76 12 172 13 138
3 159 5 169 21 8 12 8 22 0 35 -9 13 -28 18 -93 20 l-81 3 0 47 c0 50 -12 72
-40 72 -9 0 -21 -5 -28 -12z"/>
<path d="M3130 2866 c-38 -47 35 -148 136 -186 179 -68 424 -40 525 61 60 60
64 146 6 137 -20 -3 -26 -11 -46 -60 -20 -51 -149 -98 -271 -98 -122 0 -251
47 -271 98 -20 49 -26 57 -46 60 -11 2 -25 -4 -33 -12z"/>
<path d="M532 3868 c-5 -7 -56 -325 -112 -706 -80 -546 -99 -696 -89 -708 14
-17 43 -18 57 -1 5 6 56 324 112 705 80 546 99 696 89 708 -14 17 -43 18 -57
2z"/>
<path d="M772 3828 c-5 -7 -38 -199 -72 -426 -49 -326 -59 -416 -50 -428 18
-20 1641 -21 1659 -1 11 14 131 751 131 809 0 19 -5 39 -12 46 -18 18 -1641
17 -1656 0z m1586 -80 c-3 -7 -29 -169 -59 -360 l-54 -348 -757 0 c-675 0
-758 2 -758 15 0 9 22 165 50 348 27 183 50 338 50 345 0 9 160 12 766 12 609
0 765 -3 762 -12z"/>
<path d="M4530 3825 c-9 -11 8 -129 90 -587 56 -315 107 -579 112 -585 6 -7
18 -13 28 -13 47 0 46 4 -60 602 -56 315 -107 579 -112 586 -14 16 -43 15 -58
-3z"/>
<path d="M622 2828 c-6 -7 -76 -451 -157 -986 -116 -768 -144 -976 -135 -988
11 -12 125 -14 789 -14 l777 0 32 33 32 33 162 951 c135 794 159 954 149 967
-12 14 -100 16 -826 16 -638 0 -815 -3 -823 -12z m1568 -71 c0 -19 -310 -1820
-315 -1827 -4 -6 -98 -10 -251 -10 l-244 0 0 200 0 200 178 0 c125 0 182 4
190 12 17 17 17 639 0 656 -17 17 -999 17 -1016 0 -17 -17 -17 -639 0 -656 8
-8 65 -12 190 -12 l178 0 0 -200 0 -200 -345 0 c-292 0 -345 2 -345 14 0 8 61
418 135 910 74 493 135 901 135 906 0 7 266 10 755 10 415 0 755 -1 755 -3z
m-510 -1097 l0 -260 -440 0 -440 0 0 260 0 260 440 0 440 0 0 -260z m-380
-540 l0 -200 -60 0 -60 0 0 200 0 200 60 0 60 0 0 -200z"/>
<path d="M1032 1788 c-16 -16 -15 -43 2 -57 9 -8 74 -11 211 -9 176 3 199 5
209 21 8 12 8 22 0 35 -10 15 -33 17 -210 20 -147 2 -203 -1 -212 -10z"/>
<path d="M932 1588 c-16 -16 -15 -43 2 -57 9 -8 100 -11 311 -9 271 3 299 5
309 21 8 12 8 22 0 35 -10 15 -38 17 -310 20 -225 2 -303 -1 -312 -10z"/>
<path d="M2281 1906 c-11 -13 -161 -957 -161 -1014 0 -15 5 -33 12 -40 9 -9
318 -12 1329 -12 1134 0 1318 2 1328 14 10 12 -4 124 -65 528 -42 282 -81 519
-87 526 -15 19 -2340 18 -2356 -2z m2362 -518 c37 -249 68 -456 67 -460 0 -5
-565 -8 -1255 -8 l-1256 0 6 33 c8 44 135 875 135 882 0 3 503 5 1118 5 l1118
0 67 -452z"/>
<path d="M3231 1662 c-125 -67 -69 -251 72 -239 130 11 161 193 42 243 -46 19
-73 18 -114 -4z m90 -72 c22 -12 26 -59 7 -78 -19 -19 -66 -15 -78 7 -14 27
-13 47 6 65 18 19 38 20 65 6z"/>
<path d="M3432 1407 c-149 -149 -272 -279 -272 -288 0 -19 20 -39 40 -39 20 0
560 540 560 561 0 19 -20 39 -40 39 -8 0 -138 -123 -288 -273z"/>
<path d="M3575 1330 c-68 -28 -96 -127 -53 -190 85 -126 281 -25 226 118 -25
65 -107 100 -173 72z m99 -103 c8 -23 6 -31 -12 -49 -30 -30 -75 -16 -80 25
-5 38 15 59 52 55 23 -2 33 -10 40 -31z"/>
<path d="M332 708 c-16 -16 -15 -43 2 -57 10 -8 600 -10 2231 -9 2100 3 2218
4 2229 21 8 12 8 22 0 35 -11 16 -129 17 -2231 20 -1717 1 -2222 -1 -2231 -10z"/>
</g>
</svg>
