<svg width="40" height="40" viewBox="0 0 40 40" fill="none" xmlns="http://www.w3.org/2000/svg">
<rect width="40" height="40" fill="#5C5C5C"/>
<g id="MAQ_Estimation" clip-path="url(#clip0_0_1)">
<rect width="1440" height="4113" transform="translate(-770 -2557)" fill="white"/>
<g id="section">
<rect width="1440" height="1054" transform="translate(-770 -884)" fill="url(#paint0_linear_0_1)" fill-opacity="0.06"/>
</g>
<g id="Frame 491">
<g id="Frame 491_2">
<g id="Frame 427319201">
<g id="Frame 393">
<g id="Frame 392">
<g id="carbon:location-filled">
<g id="Group">
<path id="Vector" d="M20.0455 0H19.9545C8.93392 0 0 8.93391 0 19.9545V20.0455C0 31.0661 8.93392 40 19.9545 40H20.0455C31.0661 40 40 31.0661 40 20.0455V19.9545C40 8.93391 31.0661 0 20.0455 0Z" fill="#EA5B0B"/>
<g id="Social Icons">
<path id="Vector_2" d="M8 30.9999L9.687 24.837C8.646 23.033 8.099 20.988 8.1 18.891C8.103 12.335 13.438 7 19.993 7C23.174 7.001 26.16 8.24 28.406 10.488C30.6509 12.736 31.8869 15.724 31.8859 18.902C31.8829 25.459 26.548 30.7939 19.993 30.7939C18.003 30.7929 16.042 30.2939 14.305 29.346L8 30.9999ZM14.597 27.193C16.273 28.188 17.873 28.784 19.989 28.785C25.437 28.785 29.875 24.351 29.878 18.9C29.88 13.438 25.463 9.01 19.997 9.008C14.545 9.008 10.11 13.442 10.108 18.892C10.107 21.117 10.759 22.783 11.854 24.526L10.855 28.174L14.597 27.193ZM25.984 21.729C25.91 21.605 25.712 21.531 25.414 21.382C25.117 21.233 23.656 20.514 23.383 20.415C23.111 20.316 22.913 20.266 22.714 20.564C22.516 20.861 21.946 21.531 21.773 21.729C21.6 21.927 21.426 21.952 21.129 21.803C20.832 21.654 19.874 21.341 18.739 20.328C17.856 19.54 17.259 18.567 17.086 18.269C16.913 17.972 17.068 17.811 17.216 17.663C17.35 17.53 17.513 17.316 17.662 17.142C17.813 16.97 17.862 16.846 17.962 16.647C18.061 16.449 18.012 16.275 17.937 16.126C17.862 15.978 17.268 14.515 17.021 13.92C16.779 13.341 16.534 13.419 16.352 13.41L15.782 13.4C15.584 13.4 15.262 13.474 14.99 13.772C14.718 14.07 13.95 14.788 13.95 16.251C13.95 17.714 15.015 19.127 15.163 19.325C15.312 19.523 17.258 22.525 20.239 23.812C20.948 24.118 21.502 24.301 21.933 24.438C22.645 24.664 23.293 24.632 23.805 24.556C24.376 24.471 25.563 23.837 25.811 23.143C26.059 22.448 26.059 21.853 25.984 21.729Z" fill="white"/>
</g>
</g>
</g>
</g>
</g>
</g>
</g>
</g>
</g>
<g id="Text naming">
</g>
<defs>
<linearGradient id="paint0_linear_0_1" x1="1389" y1="54.289" x2="624.134" y2="1226.34" gradientUnits="userSpaceOnUse">
<stop stop-color="#F39200"/>
<stop offset="0.33" stop-color="#EA5B0B"/>
<stop offset="0.635" stop-color="#D60B51"/>
<stop offset="1" stop-color="#A11881"/>
</linearGradient>
<clipPath id="clip0_0_1">
<rect width="1440" height="4113" fill="white" transform="translate(-770 -2557)"/>
</clipPath>
</defs>
</svg>
