<svg width="124" height="124" viewBox="0 0 124 124" fill="none" xmlns="http://www.w3.org/2000/svg">
<path d="M0 60C0 26.8629 26.8629 0 60 0H124V64C124 97.1371 97.1371 124 64 124H0V60Z" fill="url(#paint0_linear_1941_522)"/>
<g clip-path="url(#clip0_1941_522)">
<path d="M85.1873 40.542H80.4302V36.4138C80.4302 35.6362 79.7969 35 79.0228 35C78.2487 35 77.6154 35.6362 77.6154 36.4138V40.542H63.4004V36.4138C63.4004 35.6362 62.767 35 61.993 35C61.2189 35 60.5855 35.6362 60.5855 36.4138V40.542H46.5113V36.4138C46.5113 35.6362 45.8779 35 45.1039 35C44.3298 35 43.6964 35.6362 43.6964 36.4138V40.542H38.7986C35.6037 40.542 33 43.1293 33 46.3385V85.2035C33 88.4128 35.6037 91.0141 38.7986 91H85.2014C88.3963 91.0141 90.9859 88.4128 91 85.2035V46.3527C90.9859 43.1434 88.3822 40.542 85.1873 40.542ZM88.1711 85.2176C88.1711 86.8576 86.834 88.2007 85.2014 88.1866H38.7986C37.166 88.2007 35.8289 86.8717 35.8149 85.2318V55.2454H88.1711V85.2176ZM88.1711 52.4178H35.8149V46.3527C35.8149 44.6986 37.1519 43.3696 38.7845 43.3696H43.6964V47.5261C43.6964 48.3037 44.3298 48.9399 45.1039 48.9399C45.8779 48.9399 46.5113 48.3037 46.5113 47.5261V43.3696H60.5855V47.5261C60.5855 48.3037 61.2189 48.9399 61.993 48.9399C62.767 48.9399 63.4004 48.3037 63.4004 47.5261V43.3696H77.6154V47.5261C77.6154 48.3037 78.2487 48.9399 79.0228 48.9399C79.7969 48.9399 80.4302 48.3037 80.4302 47.5261V43.3696H85.1873C86.834 43.3555 88.1711 44.6844 88.1711 46.3385V52.4178Z" fill="white"/>
<path d="M58.1926 85.7831H65.7927C66.5668 85.7831 67.2001 85.1469 67.2001 84.3693V71.3625C67.2001 70.5849 66.5668 69.9487 65.7927 69.9487H58.1926C57.4185 69.9487 56.7852 70.5849 56.7852 71.3625V84.3693C56.7852 85.1469 57.4185 85.7831 58.1926 85.7831ZM59.6 72.7763H64.3853V82.9555H59.6V72.7763Z" fill="white"/>
<path d="M58.9108 67.1918C59.7271 68.0542 60.8531 68.549 62.0353 68.549C63.2176 68.549 64.3576 68.0683 65.188 67.2201C65.188 67.2059 65.202 67.2059 65.2161 67.1918C66.9191 65.4104 66.9191 62.5828 65.202 60.8156L63.0627 58.6101C62.5138 58.0446 61.6272 58.0446 61.0783 58.5818L61.0501 58.6101L58.8968 60.8156C57.2079 62.597 57.2079 65.4104 58.9108 67.1918ZM60.9235 62.7808L62.0494 61.6215L63.1753 62.7808C63.8228 63.4594 63.8368 64.5339 63.1894 65.2266C62.8798 65.5377 62.4716 65.7214 62.0353 65.7214C61.599 65.7214 61.219 65.5377 60.9375 65.2408C60.276 64.548 60.276 63.4735 60.9235 62.7808Z" fill="white"/>
</g>
<defs>
<linearGradient id="paint0_linear_1941_522" x1="88.9317" y1="27.9459" x2="30.9126" y2="102.725" gradientUnits="userSpaceOnUse">
<stop stop-color="#F39200"/>
<stop offset="0.33" stop-color="#EA5B0B"/>
<stop offset="0.635" stop-color="#D60B51"/>
<stop offset="1" stop-color="#A11881"/>
</linearGradient>
<clipPath id="clip0_1941_522">
<rect width="58" height="56" fill="white" transform="translate(33 35)"/>
</clipPath>
</defs>
</svg>
