<svg width="26" height="26" viewBox="0 0 26 26" fill="none" xmlns="http://www.w3.org/2000/svg">
<path d="M25.2451 23.2553L19.6799 17.6877C21.3485 15.5133 22.1276 12.7855 21.859 10.0578C21.5904 7.33008 20.2943 4.80665 18.2336 2.99941C16.1729 1.19217 13.502 0.236439 10.7625 0.326095C8.02308 0.41575 5.42031 1.54408 3.48219 3.48219C1.54408 5.4203 0.41575 8.02307 0.326095 10.7625C0.236439 13.502 1.19217 16.1729 2.99941 18.2336C4.80665 20.2943 7.33008 21.5904 10.0578 21.859C12.7855 22.1276 15.5133 21.3485 17.6877 19.6799L23.2576 25.251C23.3884 25.3818 23.5437 25.4856 23.7146 25.5564C23.8856 25.6271 24.0687 25.6636 24.2537 25.6636C24.4387 25.6636 24.6219 25.6271 24.7928 25.5564C24.9637 25.4856 25.119 25.3818 25.2498 25.251C25.3806 25.1202 25.4844 24.9649 25.5552 24.794C25.626 24.6231 25.6624 24.4399 25.6624 24.2549C25.6624 24.0699 25.626 23.8867 25.5552 23.7158C25.4844 23.5449 25.3806 23.3896 25.2498 23.2588L25.2451 23.2553ZM3.15646 11.1252C3.15646 9.54914 3.62382 8.00846 4.49943 6.698C5.37505 5.38755 6.6196 4.36618 8.0757 3.76304C9.5318 3.1599 11.134 3.0021 12.6798 3.30957C14.2256 3.61705 15.6455 4.376 16.76 5.49045C17.8744 6.6049 18.6334 8.02479 18.9408 9.57058C19.2483 11.1164 19.0905 12.7186 18.4874 14.1747C17.8842 15.6308 16.8629 16.8754 15.5524 17.751C14.242 18.6266 12.7013 19.094 11.1252 19.094C9.01243 19.0918 6.98681 18.2515 5.49285 16.7576C3.99889 15.2636 3.15863 13.238 3.15646 11.1252Z" fill="white"/>
</svg>
