<svg width="500" height="361" viewBox="0 0 500 361" fill="none" xmlns="http://www.w3.org/2000/svg">
<g clip-path="url(#clip0_2270_6325)">
<path d="M500 327.4H0V327.65H500V327.4Z" fill="#EBEBEB"/>
<path d="M449.9 343.49H416.78V343.74H449.9V343.49Z" fill="#EBEBEB"/>
<path d="M331.22 346.21H322.53V346.46H331.22V346.21Z" fill="#EBEBEB"/>
<path d="M415.78 334.21H396.59V334.46H415.78V334.21Z" fill="#EBEBEB"/>
<path d="M95.65 335.89H52.46V336.14H95.65V335.89Z" fill="#EBEBEB"/>
<path d="M110.89 335.89H104.56V336.14H110.89V335.89Z" fill="#EBEBEB"/>
<path d="M225.15 340.11H131.47V340.36H225.15V340.11Z" fill="#EBEBEB"/>
<path d="M237 282.8H43.91C40.76 282.8 38.21 280.24 38.21 277.09V5.66C38.24 2.53 40.78 0.01 43.91 0H237C240.15 0 242.71 2.56 242.71 5.71V277.09C242.71 280.24 240.15 282.8 237 282.8ZM43.91 0.2C40.9 0.2 38.46 2.65 38.46 5.66V277.09C38.46 280.1 40.9 282.54 43.91 282.55H237C240.01 282.55 242.45 280.1 242.46 277.09V5.66C242.46 2.65 240.01 0.21 237 0.2H43.91Z" fill="#EBEBEB"/>
<path d="M453.31 282.8H260.21C257.06 282.8 254.51 280.24 254.5 277.09V5.66C254.53 2.53 257.08 0.01 260.21 0H453.31C456.44 0.01 458.97 2.53 459 5.66V277.09C459 280.24 456.46 282.79 453.31 282.8ZM260.21 0.2C257.2 0.2 254.76 2.65 254.75 5.66V277.09C254.75 280.1 257.2 282.54 260.21 282.55H453.31C456.32 282.55 458.76 280.1 458.77 277.09V5.66C458.77 2.65 456.32 0.21 453.31 0.2H260.21Z" fill="#EBEBEB"/>
<path d="M415.33 65.71H245.81V255.63H415.33V65.71Z" fill="#EBEBEB"/>
<path d="M412 68.7695H245.81V252.26H412V68.7695Z" fill="#FAFAFA"/>
<path d="M405.86 166.17V153.28H402.18V144.68H397.27V131.79H396.04V144.68H391.13V153.28H387.45V166.17H380.69V169.85H377.62V183.97H377.01V163.71H375.17V176.6H373.33V145.91H372.1V158.8H367.19V154.5H365.35V136.7H361.66V118.9H360.44V121.35H335.26V113.99H330.97V85.75H329.13V113.99H322.99V121.35H320.53V158.19H307.64V147.14H311.94V145.29H307.64V142.22H295.36V113.99H292.29V109.69H277.56V113.99H275.72V153.28H268.96V171.08H265.28V156.96H262.21V153.28H255.46V140.38H251.77V131.79H247.48V118.9H245.81V252.26H412V166.17H405.86Z" fill="#F0F0F0"/>
<path d="M346.4 123.28H344.66V125.02H346.4V123.28Z" fill="#FAFAFA"/>
<path d="M346.4 126.19H344.66V127.93H346.4V126.19Z" fill="#FAFAFA"/>
<path d="M346.4 137.86H344.66V139.6H346.4V137.86Z" fill="#FAFAFA"/>
<path d="M346.4 140.77H344.66V142.51H346.4V140.77Z" fill="#FAFAFA"/>
<path d="M346.4 143.69H344.66V145.43H346.4V143.69Z" fill="#FAFAFA"/>
<path d="M346.4 152.44H344.66V154.18H346.4V152.44Z" fill="#FAFAFA"/>
<path d="M346.4 155.35H344.66V157.09H346.4V155.35Z" fill="#FAFAFA"/>
<path d="M343.64 134.94H341.9V136.68H343.64V134.94Z" fill="#FAFAFA"/>
<path d="M343.64 137.86H341.9V139.6H343.64V137.86Z" fill="#FAFAFA"/>
<path d="M343.64 140.77H341.9V142.51H343.64V140.77Z" fill="#FAFAFA"/>
<path d="M343.64 143.69H341.9V145.43H343.64V143.69Z" fill="#FAFAFA"/>
<path d="M343.64 146.61H341.9V148.35H343.64V146.61Z" fill="#FAFAFA"/>
<path d="M343.64 152.44H341.9V154.18H343.64V152.44Z" fill="#FAFAFA"/>
<path d="M343.64 155.35H341.9V157.09H343.64V155.35Z" fill="#FAFAFA"/>
<path d="M340.88 123.28H339.14V125.02H340.88V123.28Z" fill="#FAFAFA"/>
<path d="M340.88 126.19H339.14V127.93H340.88V126.19Z" fill="#FAFAFA"/>
<path d="M340.88 129.11H339.14V130.85H340.88V129.11Z" fill="#FAFAFA"/>
<path d="M340.88 132.03H339.14V133.77H340.88V132.03Z" fill="#FAFAFA"/>
<path d="M340.88 134.94H339.14V136.68H340.88V134.94Z" fill="#FAFAFA"/>
<path d="M340.88 137.86H339.14V139.6H340.88V137.86Z" fill="#FAFAFA"/>
<path d="M340.88 140.77H339.14V142.51H340.88V140.77Z" fill="#FAFAFA"/>
<path d="M340.88 143.69H339.14V145.43H340.88V143.69Z" fill="#FAFAFA"/>
<path d="M340.88 146.61H339.14V148.35H340.88V146.61Z" fill="#FAFAFA"/>
<path d="M340.88 149.52H339.14V151.26H340.88V149.52Z" fill="#FAFAFA"/>
<path d="M340.88 155.35H339.14V157.09H340.88V155.35Z" fill="#FAFAFA"/>
<path d="M338.12 123.28H336.38V125.02H338.12V123.28Z" fill="#FAFAFA"/>
<path d="M338.12 126.19H336.38V127.93H338.12V126.19Z" fill="#FAFAFA"/>
<path d="M338.12 129.11H336.38V130.85H338.12V129.11Z" fill="#FAFAFA"/>
<path d="M338.12 132.03H336.38V133.77H338.12V132.03Z" fill="#FAFAFA"/>
<path d="M338.12 134.94H336.38V136.68H338.12V134.94Z" fill="#FAFAFA"/>
<path d="M338.12 137.86H336.38V139.6H338.12V137.86Z" fill="#FAFAFA"/>
<path d="M338.12 140.77H336.38V142.51H338.12V140.77Z" fill="#FAFAFA"/>
<path d="M338.12 167.02H336.38V168.76H338.12V167.02Z" fill="#FAFAFA"/>
<path d="M335.35 123.28H333.61V125.02H335.35V123.28Z" fill="#FAFAFA"/>
<path d="M335.35 126.19H333.61V127.93H335.35V126.19Z" fill="#FAFAFA"/>
<path d="M335.35 129.11H333.61V130.85H335.35V129.11Z" fill="#FAFAFA"/>
<path d="M335.35 132.03H333.61V133.77H335.35V132.03Z" fill="#FAFAFA"/>
<path d="M335.35 134.94H333.61V136.68H335.35V134.94Z" fill="#FAFAFA"/>
<path d="M335.35 137.86H333.61V139.6H335.35V137.86Z" fill="#FAFAFA"/>
<path d="M335.35 140.77H333.61V142.51H335.35V140.77Z" fill="#FAFAFA"/>
<path d="M335.35 143.69H333.61V145.43H335.35V143.69Z" fill="#FAFAFA"/>
<path d="M335.35 161.19H333.61V162.93H335.35V161.19Z" fill="#FAFAFA"/>
<path d="M335.35 164.1H333.61V165.84H335.35V164.1Z" fill="#FAFAFA"/>
<path d="M335.35 167.02H333.61V168.76H335.35V167.02Z" fill="#FAFAFA"/>
<path d="M335.35 169.93H333.61V171.67H335.35V169.93Z" fill="#FAFAFA"/>
<path d="M335.35 181.6H333.61V183.34H335.35V181.6Z" fill="#FAFAFA"/>
<path d="M332.59 123.28H330.85V125.02H332.59V123.28Z" fill="#FAFAFA"/>
<path d="M332.59 126.19H330.85V127.93H332.59V126.19Z" fill="#FAFAFA"/>
<path d="M332.59 129.11H330.85V130.85H332.59V129.11Z" fill="#FAFAFA"/>
<path d="M332.59 132.03H330.85V133.77H332.59V132.03Z" fill="#FAFAFA"/>
<path d="M332.59 134.94H330.85V136.68H332.59V134.94Z" fill="#FAFAFA"/>
<path d="M332.59 137.86H330.85V139.6H332.59V137.86Z" fill="#FAFAFA"/>
<path d="M332.59 140.77H330.85V142.51H332.59V140.77Z" fill="#FAFAFA"/>
<path d="M332.59 143.69H330.85V145.43H332.59V143.69Z" fill="#FAFAFA"/>
<path d="M332.59 146.61H330.85V148.35H332.59V146.61Z" fill="#FAFAFA"/>
<path d="M332.59 149.52H330.85V151.26H332.59V149.52Z" fill="#FAFAFA"/>
<path d="M332.59 158.27H330.85V160.01H332.59V158.27Z" fill="#FAFAFA"/>
<path d="M332.59 161.19H330.85V162.93H332.59V161.19Z" fill="#FAFAFA"/>
<path d="M332.59 164.1H330.85V165.84H332.59V164.1Z" fill="#FAFAFA"/>
<path d="M332.59 167.02H330.85V168.76H332.59V167.02Z" fill="#FAFAFA"/>
<path d="M332.59 169.93H330.85V171.67H332.59V169.93Z" fill="#FAFAFA"/>
<path d="M332.59 181.6H330.85V183.34H332.59V181.6Z" fill="#FAFAFA"/>
<path d="M329.83 123.28H328.09V125.02H329.83V123.28Z" fill="#FAFAFA"/>
<path d="M329.83 126.19H328.09V127.93H329.83V126.19Z" fill="#FAFAFA"/>
<path d="M329.83 129.11H328.09V130.85H329.83V129.11Z" fill="#FAFAFA"/>
<path d="M329.83 132.03H328.09V133.77H329.83V132.03Z" fill="#FAFAFA"/>
<path d="M329.83 134.94H328.09V136.68H329.83V134.94Z" fill="#FAFAFA"/>
<path d="M329.83 137.86H328.09V139.6H329.83V137.86Z" fill="#FAFAFA"/>
<path d="M329.83 140.77H328.09V142.51H329.83V140.77Z" fill="#FAFAFA"/>
<path d="M329.83 143.69H328.09V145.43H329.83V143.69Z" fill="#FAFAFA"/>
<path d="M329.83 146.61H328.09V148.35H329.83V146.61Z" fill="#FAFAFA"/>
<path d="M329.83 149.52H328.09V151.26H329.83V149.52Z" fill="#FAFAFA"/>
<path d="M329.83 152.44H328.09V154.18H329.83V152.44Z" fill="#FAFAFA"/>
<path d="M329.83 155.35H328.09V157.09H329.83V155.35Z" fill="#FAFAFA"/>
<path d="M329.83 158.27H328.09V160.01H329.83V158.27Z" fill="#FAFAFA"/>
<path d="M329.83 161.19H328.09V162.93H329.83V161.19Z" fill="#FAFAFA"/>
<path d="M329.83 164.1H328.09V165.84H329.83V164.1Z" fill="#FAFAFA"/>
<path d="M329.83 167.02H328.09V168.76H329.83V167.02Z" fill="#FAFAFA"/>
<path d="M329.83 169.93H328.09V171.67H329.83V169.93Z" fill="#FAFAFA"/>
<path d="M329.83 172.85H328.09V174.59H329.83V172.85Z" fill="#FAFAFA"/>
<path d="M327.07 123.28H325.33V125.02H327.07V123.28Z" fill="#FAFAFA"/>
<path d="M327.07 126.19H325.33V127.93H327.07V126.19Z" fill="#FAFAFA"/>
<path d="M327.07 129.11H325.33V130.85H327.07V129.11Z" fill="#FAFAFA"/>
<path d="M327.07 132.03H325.33V133.77H327.07V132.03Z" fill="#FAFAFA"/>
<path d="M327.07 134.94H325.33V136.68H327.07V134.94Z" fill="#FAFAFA"/>
<path d="M327.07 137.86H325.33V139.6H327.07V137.86Z" fill="#FAFAFA"/>
<path d="M327.07 140.77H325.33V142.51H327.07V140.77Z" fill="#FAFAFA"/>
<path d="M327.07 143.69H325.33V145.43H327.07V143.69Z" fill="#FAFAFA"/>
<path d="M327.07 146.61H325.33V148.35H327.07V146.61Z" fill="#FAFAFA"/>
<path d="M327.07 149.52H325.33V151.26H327.07V149.52Z" fill="#FAFAFA"/>
<path d="M327.07 158.27H325.33V160.01H327.07V158.27Z" fill="#FAFAFA"/>
<path d="M327.07 161.19H325.33V162.93H327.07V161.19Z" fill="#FAFAFA"/>
<path d="M327.07 164.1H325.33V165.84H327.07V164.1Z" fill="#FAFAFA"/>
<path d="M327.07 167.02H325.33V168.76H327.07V167.02Z" fill="#FAFAFA"/>
<path d="M324.3 123.28H322.56V125.02H324.3V123.28Z" fill="#FAFAFA"/>
<path d="M324.3 126.19H322.56V127.93H324.3V126.19Z" fill="#FAFAFA"/>
<path d="M324.3 129.11H322.56V130.85H324.3V129.11Z" fill="#FAFAFA"/>
<path d="M324.3 132.03H322.56V133.77H324.3V132.03Z" fill="#FAFAFA"/>
<path d="M324.3 134.94H322.56V136.68H324.3V134.94Z" fill="#FAFAFA"/>
<path d="M324.3 137.86H322.56V139.6H324.3V137.86Z" fill="#FAFAFA"/>
<path d="M324.3 140.77H322.56V142.51H324.3V140.77Z" fill="#FAFAFA"/>
<path d="M324.3 143.69H322.56V145.43H324.3V143.69Z" fill="#FAFAFA"/>
<path d="M324.3 146.61H322.56V148.35H324.3V146.61Z" fill="#FAFAFA"/>
<path d="M324.3 149.52H322.56V151.26H324.3V149.52Z" fill="#FAFAFA"/>
<path d="M324.3 158.27H322.56V160.01H324.3V158.27Z" fill="#FAFAFA"/>
<path d="M324.3 161.19H322.56V162.93H324.3V161.19Z" fill="#FAFAFA"/>
<path d="M324.3 164.1H322.56V165.84H324.3V164.1Z" fill="#FAFAFA"/>
<path d="M293.2 115.71H291.46V117.45H293.2V115.71Z" fill="#FAFAFA"/>
<path d="M293.2 118.62H291.46V120.36H293.2V118.62Z" fill="#FAFAFA"/>
<path d="M293.2 121.54H291.46V123.28H293.2V121.54Z" fill="#FAFAFA"/>
<path d="M293.2 124.45H291.46V126.19H293.2V124.45Z" fill="#FAFAFA"/>
<path d="M293.2 127.37H291.46V129.11H293.2V127.37Z" fill="#FAFAFA"/>
<path d="M293.2 130.29H291.46V132.03H293.2V130.29Z" fill="#FAFAFA"/>
<path d="M293.2 133.2H291.46V134.94H293.2V133.2Z" fill="#FAFAFA"/>
<path d="M293.2 136.12H291.46V137.86H293.2V136.12Z" fill="#FAFAFA"/>
<path d="M293.2 144.87H291.46V146.61H293.2V144.87Z" fill="#FAFAFA"/>
<path d="M293.2 147.78H291.46V149.52H293.2V147.78Z" fill="#FAFAFA"/>
<path d="M290.44 115.71H288.7V117.45H290.44V115.71Z" fill="#FAFAFA"/>
<path d="M290.44 118.62H288.7V120.36H290.44V118.62Z" fill="#FAFAFA"/>
<path d="M290.44 121.54H288.7V123.28H290.44V121.54Z" fill="#FAFAFA"/>
<path d="M290.44 124.45H288.7V126.19H290.44V124.45Z" fill="#FAFAFA"/>
<path d="M290.44 127.37H288.7V129.11H290.44V127.37Z" fill="#FAFAFA"/>
<path d="M290.44 130.29H288.7V132.03H290.44V130.29Z" fill="#FAFAFA"/>
<path d="M290.44 133.2H288.7V134.94H290.44V133.2Z" fill="#FAFAFA"/>
<path d="M290.44 136.12H288.7V137.86H290.44V136.12Z" fill="#FAFAFA"/>
<path d="M290.44 147.78H288.7V149.52H290.44V147.78Z" fill="#FAFAFA"/>
<path d="M287.67 115.71H285.93V117.45H287.67V115.71Z" fill="#FAFAFA"/>
<path d="M287.67 118.62H285.93V120.36H287.67V118.62Z" fill="#FAFAFA"/>
<path d="M287.67 121.54H285.93V123.28H287.67V121.54Z" fill="#FAFAFA"/>
<path d="M287.67 124.45H285.93V126.19H287.67V124.45Z" fill="#FAFAFA"/>
<path d="M287.67 127.37H285.93V129.11H287.67V127.37Z" fill="#FAFAFA"/>
<path d="M287.67 130.29H285.93V132.03H287.67V130.29Z" fill="#FAFAFA"/>
<path d="M287.67 133.2H285.93V134.94H287.67V133.2Z" fill="#FAFAFA"/>
<path d="M287.67 136.12H285.93V137.86H287.67V136.12Z" fill="#FAFAFA"/>
<path d="M284.91 115.71H283.17V117.45H284.91V115.71Z" fill="#FAFAFA"/>
<path d="M284.91 118.62H283.17V120.36H284.91V118.62Z" fill="#FAFAFA"/>
<path d="M284.91 121.54H283.17V123.28H284.91V121.54Z" fill="#FAFAFA"/>
<path d="M284.91 124.45H283.17V126.19H284.91V124.45Z" fill="#FAFAFA"/>
<path d="M284.91 127.37H283.17V129.11H284.91V127.37Z" fill="#FAFAFA"/>
<path d="M284.91 130.29H283.17V132.03H284.91V130.29Z" fill="#FAFAFA"/>
<path d="M284.91 136.12H283.17V137.86H284.91V136.12Z" fill="#FAFAFA"/>
<path d="M284.91 139.03H283.17V140.77H284.91V139.03Z" fill="#FAFAFA"/>
<path d="M284.91 147.78H283.17V149.52H284.91V147.78Z" fill="#FAFAFA"/>
<path d="M284.91 150.7H283.17V152.44H284.91V150.7Z" fill="#FAFAFA"/>
<path d="M284.91 153.61H283.17V155.35H284.91V153.61Z" fill="#FAFAFA"/>
<path d="M284.91 156.53H283.17V158.27H284.91V156.53Z" fill="#FAFAFA"/>
<path d="M284.91 159.45H283.17V161.19H284.91V159.45Z" fill="#FAFAFA"/>
<path d="M284.91 162.36H283.17V164.1H284.91V162.36Z" fill="#FAFAFA"/>
<path d="M284.91 165.28H283.17V167.02H284.91V165.28Z" fill="#FAFAFA"/>
<path d="M282.15 115.71H280.41V117.45H282.15V115.71Z" fill="#FAFAFA"/>
<path d="M282.15 118.62H280.41V120.36H282.15V118.62Z" fill="#FAFAFA"/>
<path d="M282.15 121.54H280.41V123.28H282.15V121.54Z" fill="#FAFAFA"/>
<path d="M282.15 124.45H280.41V126.19H282.15V124.45Z" fill="#FAFAFA"/>
<path d="M282.15 127.37H280.41V129.11H282.15V127.37Z" fill="#FAFAFA"/>
<path d="M282.15 130.29H280.41V132.03H282.15V130.29Z" fill="#FAFAFA"/>
<path d="M282.15 139.03H280.41V140.77H282.15V139.03Z" fill="#FAFAFA"/>
<path d="M282.15 141.95H280.41V143.69H282.15V141.95Z" fill="#FAFAFA"/>
<path d="M282.15 144.87H280.41V146.61H282.15V144.87Z" fill="#FAFAFA"/>
<path d="M282.15 147.78H280.41V149.52H282.15V147.78Z" fill="#FAFAFA"/>
<path d="M282.15 150.7H280.41V152.44H282.15V150.7Z" fill="#FAFAFA"/>
<path d="M282.15 153.61H280.41V155.35H282.15V153.61Z" fill="#FAFAFA"/>
<path d="M282.15 156.53H280.41V158.27H282.15V156.53Z" fill="#FAFAFA"/>
<path d="M282.15 159.45H280.41V161.19H282.15V159.45Z" fill="#FAFAFA"/>
<path d="M282.15 162.36H280.41V164.1H282.15V162.36Z" fill="#FAFAFA"/>
<path d="M282.15 165.28H280.41V167.02H282.15V165.28Z" fill="#FAFAFA"/>
<path d="M282.15 168.19H280.41V169.93H282.15V168.19Z" fill="#FAFAFA"/>
<path d="M282.15 174.03H280.41V175.77H282.15V174.03Z" fill="#FAFAFA"/>
<path d="M279.39 115.71H277.65V117.45H279.39V115.71Z" fill="#FAFAFA"/>
<path d="M279.39 118.62H277.65V120.36H279.39V118.62Z" fill="#FAFAFA"/>
<path d="M279.39 121.54H277.65V123.28H279.39V121.54Z" fill="#FAFAFA"/>
<path d="M279.39 124.45H277.65V126.19H279.39V124.45Z" fill="#FAFAFA"/>
<path d="M279.39 127.37H277.65V129.11H279.39V127.37Z" fill="#FAFAFA"/>
<path d="M279.39 130.29H277.65V132.03H279.39V130.29Z" fill="#FAFAFA"/>
<path d="M279.39 139.03H277.65V140.77H279.39V139.03Z" fill="#FAFAFA"/>
<path d="M279.39 141.95H277.65V143.69H279.39V141.95Z" fill="#FAFAFA"/>
<path d="M279.39 144.87H277.65V146.61H279.39V144.87Z" fill="#FAFAFA"/>
<path d="M279.39 147.78H277.65V149.52H279.39V147.78Z" fill="#FAFAFA"/>
<path d="M279.39 156.53H277.65V158.27H279.39V156.53Z" fill="#FAFAFA"/>
<path d="M279.39 159.45H277.65V161.19H279.39V159.45Z" fill="#FAFAFA"/>
<path d="M279.39 162.36H277.65V164.1H279.39V162.36Z" fill="#FAFAFA"/>
<path d="M279.39 165.28H277.65V167.02H279.39V165.28Z" fill="#FAFAFA"/>
<path d="M279.39 168.19H277.65V169.93H279.39V168.19Z" fill="#FAFAFA"/>
<path d="M279.39 174.03H277.65V175.77H279.39V174.03Z" fill="#FAFAFA"/>
<path d="M279.39 176.94H277.65V178.68H279.39V176.94Z" fill="#FAFAFA"/>
<path d="M254.32 142.82H252.58V144.56H254.32V142.82Z" fill="#FAFAFA"/>
<path d="M254.32 145.74H252.58V147.48H254.32V145.74Z" fill="#FAFAFA"/>
<path d="M254.32 148.65H252.58V150.39H254.32V148.65Z" fill="#FAFAFA"/>
<path d="M254.32 151.57H252.58V153.31H254.32V151.57Z" fill="#FAFAFA"/>
<path d="M254.32 154.48H252.58V156.22H254.32V154.48Z" fill="#FAFAFA"/>
<path d="M254.32 157.4H252.58V159.14H254.32V157.4Z" fill="#FAFAFA"/>
<path d="M254.32 160.32H252.58V162.06H254.32V160.32Z" fill="#FAFAFA"/>
<path d="M254.32 169.06H252.58V170.8H254.32V169.06Z" fill="#FAFAFA"/>
<path d="M254.32 171.98H252.58V173.72H254.32V171.98Z" fill="#FAFAFA"/>
<path d="M254.32 174.9H252.58V176.64H254.32V174.9Z" fill="#FAFAFA"/>
<path d="M251.56 142.82H249.82V144.56H251.56V142.82Z" fill="#FAFAFA"/>
<path d="M251.56 145.74H249.82V147.48H251.56V145.74Z" fill="#FAFAFA"/>
<path d="M251.56 148.65H249.82V150.39H251.56V148.65Z" fill="#FAFAFA"/>
<path d="M251.56 151.57H249.82V153.31H251.56V151.57Z" fill="#FAFAFA"/>
<path d="M251.56 154.48H249.82V156.22H251.56V154.48Z" fill="#FAFAFA"/>
<path d="M251.56 157.4H249.82V159.14H251.56V157.4Z" fill="#FAFAFA"/>
<path d="M251.56 160.32H249.82V162.06H251.56V160.32Z" fill="#FAFAFA"/>
<path d="M248.79 142.82H246.29V144.56H248.79V142.82Z" fill="#FAFAFA"/>
<path d="M248.79 145.74H246.29V147.48H248.79V145.74Z" fill="#FAFAFA"/>
<path d="M248.79 148.65H246.29V150.39H248.79V148.65Z" fill="#FAFAFA"/>
<path d="M248.79 151.57H246.29V153.31H248.79V151.57Z" fill="#FAFAFA"/>
<path d="M248.79 154.48H246.29V156.22H248.79V154.48Z" fill="#FAFAFA"/>
<path d="M248.79 157.4H246.29V159.14H248.79V157.4Z" fill="#FAFAFA"/>
<path d="M248.79 160.32H246.29V162.06H248.79V160.32Z" fill="#FAFAFA"/>
<path d="M400.74 146.61H399V148.35H400.74V146.61Z" fill="#FAFAFA"/>
<path d="M400.74 149.52H399V151.26H400.74V149.52Z" fill="#FAFAFA"/>
<path d="M400.74 152.44H399V154.18H400.74V152.44Z" fill="#FAFAFA"/>
<path d="M400.74 155.35H399V157.09H400.74V155.35Z" fill="#FAFAFA"/>
<path d="M400.74 158.27H399V160.01H400.74V158.27Z" fill="#FAFAFA"/>
<path d="M400.74 161.19H399V162.93H400.74V161.19Z" fill="#FAFAFA"/>
<path d="M400.74 164.1H399V165.84H400.74V164.1Z" fill="#FAFAFA"/>
<path d="M400.74 167.02H399V168.76H400.74V167.02Z" fill="#FAFAFA"/>
<path d="M400.74 169.93H399V171.67H400.74V169.93Z" fill="#FAFAFA"/>
<path d="M400.74 172.85H399V174.59H400.74V172.85Z" fill="#FAFAFA"/>
<path d="M400.74 175.77H399V177.51H400.74V175.77Z" fill="#FAFAFA"/>
<path d="M400.74 178.68H399V180.42H400.74V178.68Z" fill="#FAFAFA"/>
<path d="M400.74 181.6H399V183.34H400.74V181.6Z" fill="#FAFAFA"/>
<path d="M400.74 184.51H399V186.25H400.74V184.51Z" fill="#FAFAFA"/>
<path d="M400.74 187.43H399V189.17H400.74V187.43Z" fill="#FAFAFA"/>
<path d="M400.74 190.35H399V192.09H400.74V190.35Z" fill="#FAFAFA"/>
<path d="M400.74 193.26H399V195H400.74V193.26Z" fill="#FAFAFA"/>
<path d="M400.74 196.18H399V197.92H400.74V196.18Z" fill="#FAFAFA"/>
<path d="M400.74 199.09H399V200.83H400.74V199.09Z" fill="#FAFAFA"/>
<path d="M400.74 202.01H399V203.75H400.74V202.01Z" fill="#FAFAFA"/>
<path d="M397.97 146.61H396.23V148.35H397.97V146.61Z" fill="#FAFAFA"/>
<path d="M397.97 149.52H396.23V151.26H397.97V149.52Z" fill="#FAFAFA"/>
<path d="M397.97 152.44H396.23V154.18H397.97V152.44Z" fill="#FAFAFA"/>
<path d="M397.97 155.35H396.23V157.09H397.97V155.35Z" fill="#FAFAFA"/>
<path d="M397.97 158.27H396.23V160.01H397.97V158.27Z" fill="#FAFAFA"/>
<path d="M397.97 161.19H396.23V162.93H397.97V161.19Z" fill="#FAFAFA"/>
<path d="M397.97 164.1H396.23V165.84H397.97V164.1Z" fill="#FAFAFA"/>
<path d="M397.97 167.02H396.23V168.76H397.97V167.02Z" fill="#FAFAFA"/>
<path d="M397.97 169.93H396.23V171.67H397.97V169.93Z" fill="#FAFAFA"/>
<path d="M397.97 172.85H396.23V174.59H397.97V172.85Z" fill="#FAFAFA"/>
<path d="M397.97 175.77H396.23V177.51H397.97V175.77Z" fill="#FAFAFA"/>
<path d="M397.97 178.68H396.23V180.42H397.97V178.68Z" fill="#FAFAFA"/>
<path d="M397.97 181.6H396.23V183.34H397.97V181.6Z" fill="#FAFAFA"/>
<path d="M397.97 184.51H396.23V186.25H397.97V184.51Z" fill="#FAFAFA"/>
<path d="M397.97 187.43H396.23V189.17H397.97V187.43Z" fill="#FAFAFA"/>
<path d="M397.97 190.35H396.23V192.09H397.97V190.35Z" fill="#FAFAFA"/>
<path d="M397.97 193.26H396.23V195H397.97V193.26Z" fill="#FAFAFA"/>
<path d="M397.97 196.18H396.23V197.92H397.97V196.18Z" fill="#FAFAFA"/>
<path d="M395.21 146.61H393.47V148.35H395.21V146.61Z" fill="#FAFAFA"/>
<path d="M395.21 149.52H393.47V151.26H395.21V149.52Z" fill="#FAFAFA"/>
<path d="M395.21 152.44H393.47V154.18H395.21V152.44Z" fill="#FAFAFA"/>
<path d="M395.21 155.35H393.47V157.09H395.21V155.35Z" fill="#FAFAFA"/>
<path d="M395.21 158.27H393.47V160.01H395.21V158.27Z" fill="#FAFAFA"/>
<path d="M395.21 161.19H393.47V162.93H395.21V161.19Z" fill="#FAFAFA"/>
<path d="M395.21 164.1H393.47V165.84H395.21V164.1Z" fill="#FAFAFA"/>
<path d="M395.21 167.02H393.47V168.76H395.21V167.02Z" fill="#FAFAFA"/>
<path d="M395.21 169.93H393.47V171.67H395.21V169.93Z" fill="#FAFAFA"/>
<path d="M395.21 172.85H393.47V174.59H395.21V172.85Z" fill="#FAFAFA"/>
<path d="M395.21 175.77H393.47V177.51H395.21V175.77Z" fill="#FAFAFA"/>
<path d="M395.21 178.68H393.47V180.42H395.21V178.68Z" fill="#FAFAFA"/>
<path d="M395.21 181.6H393.47V183.34H395.21V181.6Z" fill="#FAFAFA"/>
<path d="M395.21 184.51H393.47V186.25H395.21V184.51Z" fill="#FAFAFA"/>
<path d="M395.21 187.43H393.47V189.17H395.21V187.43Z" fill="#FAFAFA"/>
<path d="M395.21 190.35H393.47V192.09H395.21V190.35Z" fill="#FAFAFA"/>
<path d="M395.21 193.26H393.47V195H395.21V193.26Z" fill="#FAFAFA"/>
<path d="M395.21 196.18H393.47V197.92H395.21V196.18Z" fill="#FAFAFA"/>
<path d="M411.07 167.89H409.33V169.63H411.07V167.89Z" fill="#FAFAFA"/>
<path d="M411.07 170.8H409.33V172.54H411.07V170.8Z" fill="#FAFAFA"/>
<path d="M411.07 173.72H409.33V175.46H411.07V173.72Z" fill="#FAFAFA"/>
<path d="M411.07 176.64H409.33V178.38H411.07V176.64Z" fill="#FAFAFA"/>
<path d="M411.07 179.55H409.33V181.29H411.07V179.55Z" fill="#FAFAFA"/>
<path d="M411.07 182.47H409.33V184.21H411.07V182.47Z" fill="#FAFAFA"/>
<path d="M411.07 185.38H409.33V187.12H411.07V185.38Z" fill="#FAFAFA"/>
<path d="M411.07 188.3H409.33V190.04H411.07V188.3Z" fill="#FAFAFA"/>
<path d="M411.07 191.22H409.33V192.96H411.07V191.22Z" fill="#FAFAFA"/>
<path d="M411.07 194.13H409.33V195.87H411.07V194.13Z" fill="#FAFAFA"/>
<path d="M411.07 197.05H409.33V198.79H411.07V197.05Z" fill="#FAFAFA"/>
<path d="M411.07 199.96H409.33V201.7H411.07V199.96Z" fill="#FAFAFA"/>
<path d="M411.07 202.88H409.33V204.62H411.07V202.88Z" fill="#FAFAFA"/>
<path d="M408.31 167.89H406.57V169.63H408.31V167.89Z" fill="#FAFAFA"/>
<path d="M408.31 170.8H406.57V172.54H408.31V170.8Z" fill="#FAFAFA"/>
<path d="M408.31 173.72H406.57V175.46H408.31V173.72Z" fill="#FAFAFA"/>
<path d="M408.31 176.64H406.57V178.38H408.31V176.64Z" fill="#FAFAFA"/>
<path d="M408.31 179.55H406.57V181.29H408.31V179.55Z" fill="#FAFAFA"/>
<path d="M408.31 182.47H406.57V184.21H408.31V182.47Z" fill="#FAFAFA"/>
<path d="M408.31 185.38H406.57V187.12H408.31V185.38Z" fill="#FAFAFA"/>
<path d="M408.31 188.3H406.57V190.04H408.31V188.3Z" fill="#FAFAFA"/>
<path d="M408.31 191.22H406.57V192.96H408.31V191.22Z" fill="#FAFAFA"/>
<path d="M408.31 194.13H406.57V195.87H408.31V194.13Z" fill="#FAFAFA"/>
<path d="M408.31 197.05H406.57V198.79H408.31V197.05Z" fill="#FAFAFA"/>
<path d="M408.31 199.96H406.57V201.7H408.31V199.96Z" fill="#FAFAFA"/>
<path d="M408.31 202.88H406.57V204.62H408.31V202.88Z" fill="#FAFAFA"/>
<path d="M405.54 167.89H403.8V169.63H405.54V167.89Z" fill="#FAFAFA"/>
<path d="M405.54 170.8H403.8V172.54H405.54V170.8Z" fill="#FAFAFA"/>
<path d="M405.54 173.72H403.8V175.46H405.54V173.72Z" fill="#FAFAFA"/>
<path d="M405.54 176.64H403.8V178.38H405.54V176.64Z" fill="#FAFAFA"/>
<path d="M405.54 179.55H403.8V181.29H405.54V179.55Z" fill="#FAFAFA"/>
<path d="M405.54 182.47H403.8V184.21H405.54V182.47Z" fill="#FAFAFA"/>
<path d="M405.54 185.38H403.8V187.12H405.54V185.38Z" fill="#FAFAFA"/>
<path d="M405.54 188.3H403.8V190.04H405.54V188.3Z" fill="#FAFAFA"/>
<path d="M405.54 191.22H403.8V192.96H405.54V191.22Z" fill="#FAFAFA"/>
<path d="M405.54 194.13H403.8V195.87H405.54V194.13Z" fill="#FAFAFA"/>
<path d="M405.54 197.05H403.8V198.79H405.54V197.05Z" fill="#FAFAFA"/>
<path d="M405.54 199.96H403.8V201.7H405.54V199.96Z" fill="#FAFAFA"/>
<path d="M405.54 202.88H403.8V204.62H405.54V202.88Z" fill="#FAFAFA"/>
<path d="M405.54 205.8H403.8V207.54H405.54V205.8Z" fill="#FAFAFA"/>
<path d="M390.2 168.76H388.46V170.5H390.2V168.76Z" fill="#FAFAFA"/>
<path d="M390.2 171.67H388.46V173.41H390.2V171.67Z" fill="#FAFAFA"/>
<path d="M390.2 174.59H388.46V176.33H390.2V174.59Z" fill="#FAFAFA"/>
<path d="M390.2 177.51H388.46V179.25H390.2V177.51Z" fill="#FAFAFA"/>
<path d="M390.2 180.42H388.46V182.16H390.2V180.42Z" fill="#FAFAFA"/>
<path d="M390.2 183.34H388.46V185.08H390.2V183.34Z" fill="#FAFAFA"/>
<path d="M390.2 186.25H388.46V187.99H390.2V186.25Z" fill="#FAFAFA"/>
<path d="M390.2 189.17H388.46V190.91H390.2V189.17Z" fill="#FAFAFA"/>
<path d="M390.2 192.09H388.46V193.83H390.2V192.09Z" fill="#FAFAFA"/>
<path d="M390.2 195H388.46V196.74H390.2V195Z" fill="#FAFAFA"/>
<path d="M390.2 203.75H388.46V205.49H390.2V203.75Z" fill="#FAFAFA"/>
<path d="M387.43 168.76H385.69V170.5H387.43V168.76Z" fill="#FAFAFA"/>
<path d="M387.43 171.67H385.69V173.41H387.43V171.67Z" fill="#FAFAFA"/>
<path d="M387.43 174.59H385.69V176.33H387.43V174.59Z" fill="#FAFAFA"/>
<path d="M387.43 177.51H385.69V179.25H387.43V177.51Z" fill="#FAFAFA"/>
<path d="M387.43 180.42H385.69V182.16H387.43V180.42Z" fill="#FAFAFA"/>
<path d="M387.43 183.34H385.69V185.08H387.43V183.34Z" fill="#FAFAFA"/>
<path d="M387.43 186.25H385.69V187.99H387.43V186.25Z" fill="#FAFAFA"/>
<path d="M387.43 189.17H385.69V190.91H387.43V189.17Z" fill="#FAFAFA"/>
<path d="M387.43 192.09H385.69V193.83H387.43V192.09Z" fill="#FAFAFA"/>
<path d="M387.43 200.83H385.69V202.57H387.43V200.83Z" fill="#FAFAFA"/>
<path d="M387.43 203.75H385.69V205.49H387.43V203.75Z" fill="#FAFAFA"/>
<path d="M384.67 168.76H382.93V170.5H384.67V168.76Z" fill="#FAFAFA"/>
<path d="M384.67 171.67H382.93V173.41H384.67V171.67Z" fill="#FAFAFA"/>
<path d="M384.67 174.59H382.93V176.33H384.67V174.59Z" fill="#FAFAFA"/>
<path d="M384.67 177.51H382.93V179.25H384.67V177.51Z" fill="#FAFAFA"/>
<path d="M384.67 180.42H382.93V182.16H384.67V180.42Z" fill="#FAFAFA"/>
<path d="M384.67 183.34H382.93V185.08H384.67V183.34Z" fill="#FAFAFA"/>
<path d="M384.67 186.25H382.93V187.99H384.67V186.25Z" fill="#FAFAFA"/>
<path d="M384.67 189.17H382.93V190.91H384.67V189.17Z" fill="#FAFAFA"/>
<path d="M384.67 197.92H382.93V199.66H384.67V197.92Z" fill="#FAFAFA"/>
<path d="M384.67 200.83H382.93V202.57H384.67V200.83Z" fill="#FAFAFA"/>
<path d="M384.67 203.75H382.93V205.49H384.67V203.75Z" fill="#FAFAFA"/>
<path d="M358.99 124.45H357.25V126.19H358.99V124.45Z" fill="#FAFAFA"/>
<path d="M358.99 127.37H357.25V129.11H358.99V127.37Z" fill="#FAFAFA"/>
<path d="M358.99 130.29H357.25V132.03H358.99V130.29Z" fill="#FAFAFA"/>
<path d="M358.99 133.2H357.25V134.94H358.99V133.2Z" fill="#FAFAFA"/>
<path d="M358.99 136.12H357.25V137.86H358.99V136.12Z" fill="#FAFAFA"/>
<path d="M358.99 139.03H357.25V140.77H358.99V139.03Z" fill="#FAFAFA"/>
<path d="M358.99 141.95H357.25V143.69H358.99V141.95Z" fill="#FAFAFA"/>
<path d="M358.99 144.87H357.25V146.61H358.99V144.87Z" fill="#FAFAFA"/>
<path d="M358.99 147.78H357.25V149.52H358.99V147.78Z" fill="#FAFAFA"/>
<path d="M358.99 150.7H357.25V152.44H358.99V150.7Z" fill="#FAFAFA"/>
<path d="M358.99 153.61H357.25V155.35H358.99V153.61Z" fill="#FAFAFA"/>
<path d="M358.99 156.53H357.25V158.27H358.99V156.53Z" fill="#FAFAFA"/>
<path d="M358.99 159.45H357.25V161.19H358.99V159.45Z" fill="#FAFAFA"/>
<path d="M358.99 162.36H357.25V164.1H358.99V162.36Z" fill="#FAFAFA"/>
<path d="M358.99 165.28H357.25V167.02H358.99V165.28Z" fill="#FAFAFA"/>
<path d="M358.99 168.19H357.25V169.93H358.99V168.19Z" fill="#FAFAFA"/>
<path d="M358.99 171.11H357.25V172.85H358.99V171.11Z" fill="#FAFAFA"/>
<path d="M358.99 176.94H357.25V178.68H358.99V176.94Z" fill="#FAFAFA"/>
<path d="M358.99 179.86H357.25V181.6H358.99V179.86Z" fill="#FAFAFA"/>
<path d="M358.99 182.77H357.25V184.51H358.99V182.77Z" fill="#FAFAFA"/>
<path d="M358.99 185.69H357.25V187.43H358.99V185.69Z" fill="#FAFAFA"/>
<path d="M358.99 188.61H357.25V190.35H358.99V188.61Z" fill="#FAFAFA"/>
<path d="M356.23 124.45H354.49V126.19H356.23V124.45Z" fill="#FAFAFA"/>
<path d="M356.23 127.37H354.49V129.11H356.23V127.37Z" fill="#FAFAFA"/>
<path d="M356.23 130.29H354.49V132.03H356.23V130.29Z" fill="#FAFAFA"/>
<path d="M356.23 133.2H354.49V134.94H356.23V133.2Z" fill="#FAFAFA"/>
<path d="M356.23 136.12H354.49V137.86H356.23V136.12Z" fill="#FAFAFA"/>
<path d="M356.23 139.03H354.49V140.77H356.23V139.03Z" fill="#FAFAFA"/>
<path d="M356.23 141.95H354.49V143.69H356.23V141.95Z" fill="#FAFAFA"/>
<path d="M356.23 144.87H354.49V146.61H356.23V144.87Z" fill="#FAFAFA"/>
<path d="M356.23 147.78H354.49V149.52H356.23V147.78Z" fill="#FAFAFA"/>
<path d="M356.23 150.7H354.49V152.44H356.23V150.7Z" fill="#FAFAFA"/>
<path d="M356.23 153.61H354.49V155.35H356.23V153.61Z" fill="#FAFAFA"/>
<path d="M356.23 156.53H354.49V158.27H356.23V156.53Z" fill="#FAFAFA"/>
<path d="M356.23 159.45H354.49V161.19H356.23V159.45Z" fill="#FAFAFA"/>
<path d="M356.23 162.36H354.49V164.1H356.23V162.36Z" fill="#FAFAFA"/>
<path d="M356.23 165.28H354.49V167.02H356.23V165.28Z" fill="#FAFAFA"/>
<path d="M356.23 168.19H354.49V169.93H356.23V168.19Z" fill="#FAFAFA"/>
<path d="M356.23 185.69H354.49V187.43H356.23V185.69Z" fill="#FAFAFA"/>
<path d="M356.23 188.61H354.49V190.35H356.23V188.61Z" fill="#FAFAFA"/>
<path d="M353.46 124.45H351.72V126.19H353.46V124.45Z" fill="#FAFAFA"/>
<path d="M353.46 127.37H351.72V129.11H353.46V127.37Z" fill="#FAFAFA"/>
<path d="M353.46 130.29H351.72V132.03H353.46V130.29Z" fill="#FAFAFA"/>
<path d="M353.46 133.2H351.72V134.94H353.46V133.2Z" fill="#FAFAFA"/>
<path d="M353.46 136.12H351.72V137.86H353.46V136.12Z" fill="#FAFAFA"/>
<path d="M353.46 139.03H351.72V140.77H353.46V139.03Z" fill="#FAFAFA"/>
<path d="M353.46 141.95H351.72V143.69H353.46V141.95Z" fill="#FAFAFA"/>
<path d="M353.46 144.87H351.72V146.61H353.46V144.87Z" fill="#FAFAFA"/>
<path d="M353.46 147.78H351.72V149.52H353.46V147.78Z" fill="#FAFAFA"/>
<path d="M353.46 150.7H351.72V152.44H353.46V150.7Z" fill="#FAFAFA"/>
<path d="M353.46 153.61H351.72V155.35H353.46V153.61Z" fill="#FAFAFA"/>
<path d="M353.46 156.53H351.72V158.27H353.46V156.53Z" fill="#FAFAFA"/>
<path d="M353.46 159.45H351.72V161.19H353.46V159.45Z" fill="#FAFAFA"/>
<path d="M353.46 162.36H351.72V164.1H353.46V162.36Z" fill="#FAFAFA"/>
<path d="M353.46 165.28H351.72V167.02H353.46V165.28Z" fill="#FAFAFA"/>
<path d="M353.46 168.19H351.72V169.93H353.46V168.19Z" fill="#FAFAFA"/>
<path d="M353.46 174.03H351.72V175.77H353.46V174.03Z" fill="#FAFAFA"/>
<path d="M353.46 176.94H351.72V178.68H353.46V176.94Z" fill="#FAFAFA"/>
<path d="M353.46 179.86H351.72V181.6H353.46V179.86Z" fill="#FAFAFA"/>
<path d="M353.46 182.77H351.72V184.51H353.46V182.77Z" fill="#FAFAFA"/>
<path d="M353.46 188.61H351.72V190.35H353.46V188.61Z" fill="#FAFAFA"/>
<path d="M369.02 161.19H367.28V162.93H369.02V161.19Z" fill="#FAFAFA"/>
<path d="M369.02 164.1H367.28V165.84H369.02V164.1Z" fill="#FAFAFA"/>
<path d="M369.02 167.02H367.28V168.76H369.02V167.02Z" fill="#FAFAFA"/>
<path d="M369.02 169.93H367.28V171.67H369.02V169.93Z" fill="#FAFAFA"/>
<path d="M369.02 172.85H367.28V174.59H369.02V172.85Z" fill="#FAFAFA"/>
<path d="M369.02 175.77H367.28V177.51H369.02V175.77Z" fill="#FAFAFA"/>
<path d="M369.02 178.68H367.28V180.42H369.02V178.68Z" fill="#FAFAFA"/>
<path d="M369.02 184.51H367.28V186.25H369.02V184.51Z" fill="#FAFAFA"/>
<path d="M369.02 187.43H367.28V189.17H369.02V187.43Z" fill="#FAFAFA"/>
<path d="M369.02 190.35H367.28V192.09H369.02V190.35Z" fill="#FAFAFA"/>
<path d="M369.02 193.26H367.28V195H369.02V193.26Z" fill="#FAFAFA"/>
<path d="M369.02 196.18H367.28V197.92H369.02V196.18Z" fill="#FAFAFA"/>
<path d="M369.02 199.09H367.28V200.83H369.02V199.09Z" fill="#FAFAFA"/>
<path d="M369.02 202.01H367.28V203.75H369.02V202.01Z" fill="#FAFAFA"/>
<path d="M369.02 204.93H367.28V206.67H369.02V204.93Z" fill="#FAFAFA"/>
<path d="M366.25 161.19H364.51V162.93H366.25V161.19Z" fill="#FAFAFA"/>
<path d="M366.25 164.1H364.51V165.84H366.25V164.1Z" fill="#FAFAFA"/>
<path d="M366.25 167.02H364.51V168.76H366.25V167.02Z" fill="#FAFAFA"/>
<path d="M366.25 169.93H364.51V171.67H366.25V169.93Z" fill="#FAFAFA"/>
<path d="M366.25 172.85H364.51V174.59H366.25V172.85Z" fill="#FAFAFA"/>
<path d="M366.25 175.77H364.51V177.51H366.25V175.77Z" fill="#FAFAFA"/>
<path d="M366.25 184.51H364.51V186.25H366.25V184.51Z" fill="#FAFAFA"/>
<path d="M366.25 187.43H364.51V189.17H366.25V187.43Z" fill="#FAFAFA"/>
<path d="M366.25 190.35H364.51V192.09H366.25V190.35Z" fill="#FAFAFA"/>
<path d="M366.25 193.26H364.51V195H366.25V193.26Z" fill="#FAFAFA"/>
<path d="M366.25 196.18H364.51V197.92H366.25V196.18Z" fill="#FAFAFA"/>
<path d="M366.25 199.09H364.51V200.83H366.25V199.09Z" fill="#FAFAFA"/>
<path d="M366.25 202.01H364.51V203.75H366.25V202.01Z" fill="#FAFAFA"/>
<path d="M366.25 204.93H364.51V206.67H366.25V204.93Z" fill="#FAFAFA"/>
<path d="M363.49 161.19H361.75V162.93H363.49V161.19Z" fill="#FAFAFA"/>
<path d="M363.49 164.1H361.75V165.84H363.49V164.1Z" fill="#FAFAFA"/>
<path d="M363.49 167.02H361.75V168.76H363.49V167.02Z" fill="#FAFAFA"/>
<path d="M363.49 169.93H361.75V171.67H363.49V169.93Z" fill="#FAFAFA"/>
<path d="M363.49 172.85H361.75V174.59H363.49V172.85Z" fill="#FAFAFA"/>
<path d="M363.49 175.77H361.75V177.51H363.49V175.77Z" fill="#FAFAFA"/>
<path d="M363.49 181.6H361.75V183.34H363.49V181.6Z" fill="#FAFAFA"/>
<path d="M363.49 184.51H361.75V186.25H363.49V184.51Z" fill="#FAFAFA"/>
<path d="M363.49 187.43H361.75V189.17H363.49V187.43Z" fill="#FAFAFA"/>
<path d="M363.49 190.35H361.75V192.09H363.49V190.35Z" fill="#FAFAFA"/>
<path d="M363.49 193.26H361.75V195H363.49V193.26Z" fill="#FAFAFA"/>
<path d="M363.49 196.18H361.75V197.92H363.49V196.18Z" fill="#FAFAFA"/>
<path d="M363.49 199.09H361.75V200.83H363.49V199.09Z" fill="#FAFAFA"/>
<path d="M363.49 202.01H361.75V203.75H363.49V202.01Z" fill="#FAFAFA"/>
<path d="M363.49 204.93H361.75V206.67H363.49V204.93Z" fill="#FAFAFA"/>
<path d="M305.27 144.87H303.53V146.61H305.27V144.87Z" fill="#FAFAFA"/>
<path d="M305.27 147.78H303.53V149.52H305.27V147.78Z" fill="#FAFAFA"/>
<path d="M305.27 150.7H303.53V152.44H305.27V150.7Z" fill="#FAFAFA"/>
<path d="M305.27 153.61H303.53V155.35H305.27V153.61Z" fill="#FAFAFA"/>
<path d="M305.27 156.53H303.53V158.27H305.27V156.53Z" fill="#FAFAFA"/>
<path d="M305.27 159.45H303.53V161.19H305.27V159.45Z" fill="#FAFAFA"/>
<path d="M305.27 162.36H303.53V164.1H305.27V162.36Z" fill="#FAFAFA"/>
<path d="M305.27 165.28H303.53V167.02H305.27V165.28Z" fill="#FAFAFA"/>
<path d="M305.27 168.19H303.53V169.93H305.27V168.19Z" fill="#FAFAFA"/>
<path d="M305.27 171.11H303.53V172.85H305.27V171.11Z" fill="#FAFAFA"/>
<path d="M305.27 174.03H303.53V175.77H305.27V174.03Z" fill="#FAFAFA"/>
<path d="M305.27 176.94H303.53V178.68H305.27V176.94Z" fill="#FAFAFA"/>
<path d="M305.27 179.86H303.53V181.6H305.27V179.86Z" fill="#FAFAFA"/>
<path d="M305.27 185.69H303.53V187.43H305.27V185.69Z" fill="#FAFAFA"/>
<path d="M305.27 188.61H303.53V190.35H305.27V188.61Z" fill="#FAFAFA"/>
<path d="M305.27 191.52H303.53V193.26H305.27V191.52Z" fill="#FAFAFA"/>
<path d="M305.27 194.44H303.53V196.18H305.27V194.44Z" fill="#FAFAFA"/>
<path d="M305.27 200.27H303.53V202.01H305.27V200.27Z" fill="#FAFAFA"/>
<path d="M305.27 203.19H303.53V204.93H305.27V203.19Z" fill="#FAFAFA"/>
<path d="M305.27 206.1H303.53V207.84H305.27V206.1Z" fill="#FAFAFA"/>
<path d="M302.51 144.87H300.77V146.61H302.51V144.87Z" fill="#FAFAFA"/>
<path d="M302.51 147.78H300.77V149.52H302.51V147.78Z" fill="#FAFAFA"/>
<path d="M302.51 150.7H300.77V152.44H302.51V150.7Z" fill="#FAFAFA"/>
<path d="M302.51 153.61H300.77V155.35H302.51V153.61Z" fill="#FAFAFA"/>
<path d="M302.51 156.53H300.77V158.27H302.51V156.53Z" fill="#FAFAFA"/>
<path d="M302.51 159.45H300.77V161.19H302.51V159.45Z" fill="#FAFAFA"/>
<path d="M302.51 162.36H300.77V164.1H302.51V162.36Z" fill="#FAFAFA"/>
<path d="M302.51 165.28H300.77V167.02H302.51V165.28Z" fill="#FAFAFA"/>
<path d="M302.51 168.19H300.77V169.93H302.51V168.19Z" fill="#FAFAFA"/>
<path d="M302.51 171.11H300.77V172.85H302.51V171.11Z" fill="#FAFAFA"/>
<path d="M302.51 174.03H300.77V175.77H302.51V174.03Z" fill="#FAFAFA"/>
<path d="M302.51 176.94H300.77V178.68H302.51V176.94Z" fill="#FAFAFA"/>
<path d="M302.51 179.86H300.77V181.6H302.51V179.86Z" fill="#FAFAFA"/>
<path d="M302.51 188.61H300.77V190.35H302.51V188.61Z" fill="#FAFAFA"/>
<path d="M302.51 191.52H300.77V193.26H302.51V191.52Z" fill="#FAFAFA"/>
<path d="M302.51 197.36H300.77V199.1H302.51V197.36Z" fill="#FAFAFA"/>
<path d="M302.51 200.27H300.77V202.01H302.51V200.27Z" fill="#FAFAFA"/>
<path d="M302.51 203.19H300.77V204.93H302.51V203.19Z" fill="#FAFAFA"/>
<path d="M302.51 206.1H300.77V207.84H302.51V206.1Z" fill="#FAFAFA"/>
<path d="M299.75 144.87H298.01V146.61H299.75V144.87Z" fill="#FAFAFA"/>
<path d="M299.75 147.78H298.01V149.52H299.75V147.78Z" fill="#FAFAFA"/>
<path d="M299.75 150.7H298.01V152.44H299.75V150.7Z" fill="#FAFAFA"/>
<path d="M299.75 153.61H298.01V155.35H299.75V153.61Z" fill="#FAFAFA"/>
<path d="M299.75 156.53H298.01V158.27H299.75V156.53Z" fill="#FAFAFA"/>
<path d="M299.75 159.45H298.01V161.19H299.75V159.45Z" fill="#FAFAFA"/>
<path d="M299.75 162.36H298.01V164.1H299.75V162.36Z" fill="#FAFAFA"/>
<path d="M299.75 165.28H298.01V167.02H299.75V165.28Z" fill="#FAFAFA"/>
<path d="M299.75 168.19H298.01V169.93H299.75V168.19Z" fill="#FAFAFA"/>
<path d="M299.75 171.11H298.01V172.85H299.75V171.11Z" fill="#FAFAFA"/>
<path d="M299.75 174.03H298.01V175.77H299.75V174.03Z" fill="#FAFAFA"/>
<path d="M299.75 176.94H298.01V178.68H299.75V176.94Z" fill="#FAFAFA"/>
<path d="M299.75 179.86H298.01V181.6H299.75V179.86Z" fill="#FAFAFA"/>
<path d="M299.75 182.77H298.01V184.51H299.75V182.77Z" fill="#FAFAFA"/>
<path d="M299.75 188.61H298.01V190.35H299.75V188.61Z" fill="#FAFAFA"/>
<path d="M299.75 194.44H298.01V196.18H299.75V194.44Z" fill="#FAFAFA"/>
<path d="M299.75 197.36H298.01V199.1H299.75V197.36Z" fill="#FAFAFA"/>
<path d="M299.75 200.27H298.01V202.01H299.75V200.27Z" fill="#FAFAFA"/>
<path d="M299.75 203.19H298.01V204.93H299.75V203.19Z" fill="#FAFAFA"/>
<path d="M299.75 206.1H298.01V207.84H299.75V206.1Z" fill="#FAFAFA"/>
<path d="M316.53 161.49H314.79V163.23H316.53V161.49Z" fill="#FAFAFA"/>
<path d="M316.53 164.41H314.79V166.15H316.53V164.41Z" fill="#FAFAFA"/>
<path d="M316.53 167.32H314.79V169.06H316.53V167.32Z" fill="#FAFAFA"/>
<path d="M316.53 170.24H314.79V171.98H316.53V170.24Z" fill="#FAFAFA"/>
<path d="M316.53 173.16H314.79V174.9H316.53V173.16Z" fill="#FAFAFA"/>
<path d="M316.53 176.07H314.79V177.81H316.53V176.07Z" fill="#FAFAFA"/>
<path d="M316.53 184.82H314.79V186.56H316.53V184.82Z" fill="#FAFAFA"/>
<path d="M316.53 187.74H314.79V189.48H316.53V187.74Z" fill="#FAFAFA"/>
<path d="M316.53 190.65H314.79V192.39H316.53V190.65Z" fill="#FAFAFA"/>
<path d="M316.53 193.57H314.79V195.31H316.53V193.57Z" fill="#FAFAFA"/>
<path d="M316.53 196.49H314.79V198.23H316.53V196.49Z" fill="#FAFAFA"/>
<path d="M316.53 199.4H314.79V201.14H316.53V199.4Z" fill="#FAFAFA"/>
<path d="M316.53 202.32H314.79V204.06H316.53V202.32Z" fill="#FAFAFA"/>
<path d="M313.77 161.49H312.03V163.23H313.77V161.49Z" fill="#FAFAFA"/>
<path d="M313.77 164.41H312.03V166.15H313.77V164.41Z" fill="#FAFAFA"/>
<path d="M313.77 167.32H312.03V169.06H313.77V167.32Z" fill="#FAFAFA"/>
<path d="M313.77 170.24H312.03V171.98H313.77V170.24Z" fill="#FAFAFA"/>
<path d="M313.77 173.16H312.03V174.9H313.77V173.16Z" fill="#FAFAFA"/>
<path d="M313.77 176.07H312.03V177.81H313.77V176.07Z" fill="#FAFAFA"/>
<path d="M313.77 184.82H312.03V186.56H313.77V184.82Z" fill="#FAFAFA"/>
<path d="M313.77 187.74H312.03V189.48H313.77V187.74Z" fill="#FAFAFA"/>
<path d="M313.77 190.65H312.03V192.39H313.77V190.65Z" fill="#FAFAFA"/>
<path d="M313.77 193.57H312.03V195.31H313.77V193.57Z" fill="#FAFAFA"/>
<path d="M313.77 196.49H312.03V198.23H313.77V196.49Z" fill="#FAFAFA"/>
<path d="M313.77 199.4H312.03V201.14H313.77V199.4Z" fill="#FAFAFA"/>
<path d="M313.77 205.23H312.03V206.97H313.77V205.23Z" fill="#FAFAFA"/>
<path d="M249.26 66.1396H245.81V255.63H249.26V66.1396Z" fill="#EBEBEB"/>
<path d="M304.19 66.1396H301.27V255.63H304.19V66.1396Z" fill="#EBEBEB"/>
<path d="M359.11 66.1396H356.19V255.63H359.11V66.1396Z" fill="#EBEBEB"/>
<path d="M141.72 52.2101C149.546 52.2101 155.89 45.866 155.89 38.0401C155.89 30.2142 149.546 23.8701 141.72 23.8701C133.894 23.8701 127.55 30.2142 127.55 38.0401C127.55 45.866 133.894 52.2101 141.72 52.2101Z" fill="#E0E0E0"/>
<path d="M141.72 50.0902C148.375 50.0902 153.77 44.6953 153.77 38.0402C153.77 31.3852 148.375 25.9902 141.72 25.9902C135.065 25.9902 129.67 31.3852 129.67 38.0402C129.67 44.6953 135.065 50.0902 141.72 50.0902Z" fill="#F0F0F0"/>
<path d="M142.29 29.7803V38.2003L147.87 35.0403" fill="#F0F0F0"/>
<path d="M142.29 39.2003C142.11 39.2003 141.93 39.1503 141.78 39.0603C141.48 38.8803 141.29 38.5503 141.29 38.2003V29.7803C141.29 29.2303 141.74 28.7803 142.29 28.7803C142.84 28.7803 143.29 29.2303 143.29 29.7803V36.4803L147.38 34.1703C147.86 33.8903 148.47 34.0603 148.75 34.5403C149.03 35.0203 148.86 35.6303 148.38 35.9103L142.8 39.0703C142.64 39.1603 142.47 39.2003 142.29 39.2003Z" fill="#E0E0E0"/>
<path d="M100.99 138.84H78.4902V327.82H100.99V138.84Z" fill="#E0E0E0"/>
<path d="M161.69 138.84H98.5303V327.82H161.69V138.84Z" fill="#EBEBEB"/>
<path d="M155.26 145.27H104.97V195.56H155.26V145.27Z" fill="#FAFAFA"/>
<path d="M143.72 174.86H116.51C115.75 174.86 115.13 174.25 115.12 173.49C115.12 173.49 115.12 173.49 115.12 173.48C115.12 172.72 115.74 172.1 116.5 172.1C116.5 172.1 116.5 172.1 116.51 172.1H143.72C144.48 172.1 145.1 172.72 145.1 173.48C145.1 174.24 144.48 174.86 143.72 174.86Z" fill="#E0E0E0"/>
<path d="M143.72 180.39H116.51C115.74 180.39 115.12 179.77 115.12 179C115.12 178.24 115.74 177.62 116.5 177.62C116.5 177.62 116.5 177.62 116.51 177.62H143.72C144.48 177.62 145.1 178.24 145.1 179C145.1 179.76 144.49 180.38 143.73 180.39C143.73 180.39 143.73 180.39 143.72 180.39Z" fill="#E0E0E0"/>
<path d="M143.72 185.91H116.51C115.75 185.91 115.13 185.3 115.12 184.54C115.12 184.54 115.12 184.54 115.12 184.53C115.12 183.77 115.74 183.15 116.5 183.15C116.5 183.15 116.5 183.15 116.51 183.15H143.72C144.48 183.15 145.1 183.77 145.1 184.53C145.1 185.29 144.48 185.91 143.72 185.91Z" fill="#E0E0E0"/>
<path d="M135.47 164.66H124.75L121.93 161.83V155.79L124.75 152.96H135.47L138.3 155.79V161.83L135.47 164.66Z" fill="#EBEBEB"/>
<path d="M155.26 200.38H104.97V250.67H155.26V200.38Z" fill="#FAFAFA"/>
<path d="M143.72 230H116.51C115.75 230 115.13 229.39 115.12 228.63C115.12 228.63 115.12 228.63 115.12 228.62C115.12 227.86 115.74 227.24 116.5 227.24C116.5 227.24 116.5 227.24 116.51 227.24H143.72C144.48 227.24 145.1 227.86 145.1 228.62C145.1 229.38 144.48 230 143.72 230Z" fill="#E0E0E0"/>
<path d="M143.72 235.49H116.51C115.75 235.49 115.13 234.88 115.12 234.12C115.12 234.12 115.12 234.12 115.12 234.11C115.12 233.35 115.74 232.73 116.5 232.73C116.5 232.73 116.5 232.73 116.51 232.73H143.72C144.48 232.73 145.1 233.35 145.1 234.11C145.1 234.87 144.48 235.49 143.72 235.49Z" fill="#E0E0E0"/>
<path d="M143.72 241H116.51C115.75 241 115.13 240.39 115.12 239.63C115.12 239.63 115.12 239.63 115.12 239.62C115.12 238.86 115.74 238.24 116.5 238.24C116.5 238.24 116.5 238.24 116.51 238.24H143.72C144.48 238.24 145.1 238.86 145.1 239.62C145.1 240.38 144.48 241 143.72 241Z" fill="#E0E0E0"/>
<path d="M135.47 219.76H124.75L121.93 216.93V210.9L124.75 208.07H135.47L138.3 210.9V216.93L135.47 219.76Z" fill="#EBEBEB"/>
<path d="M155.26 255.48H104.97V305.77H155.26V255.48Z" fill="#FAFAFA"/>
<path d="M143.72 285.07H116.51C115.75 285.07 115.13 284.46 115.12 283.7C115.12 283.7 115.12 283.7 115.12 283.69C115.12 282.93 115.74 282.31 116.5 282.31C116.5 282.31 116.5 282.31 116.51 282.31H143.72C144.48 282.31 145.1 282.93 145.1 283.69C145.1 284.45 144.48 285.07 143.72 285.07Z" fill="#E0E0E0"/>
<path d="M143.72 290.6H116.51C115.75 290.6 115.13 289.99 115.12 289.23C115.12 289.23 115.12 289.23 115.12 289.22C115.12 288.45 115.74 287.83 116.51 287.83H143.72C144.48 287.83 145.1 288.45 145.1 289.21C145.1 289.21 145.1 289.21 145.1 289.22C145.1 289.98 144.48 290.6 143.72 290.6Z" fill="#E0E0E0"/>
<path d="M143.72 296.12H116.51C115.75 296.12 115.13 295.51 115.12 294.75C115.12 294.75 115.12 294.75 115.12 294.74C115.12 293.98 115.74 293.36 116.5 293.36C116.5 293.36 116.5 293.36 116.51 293.36H143.72C144.48 293.36 145.1 293.98 145.1 294.74C145.1 295.5 144.48 296.12 143.72 296.12Z" fill="#E0E0E0"/>
<path d="M135.47 274.87H124.75L121.93 272.04V266L124.75 263.17H135.47L138.3 266V272.04L135.47 274.87Z" fill="#EBEBEB"/>
<path d="M385.08 269.43C385.29 270.9 381.3 271.86 378.08 272.43C378.34 275.1 380.08 277.79 382.57 280.31C385.66 278.57 390.06 276.31 390.87 276.84C391.68 277.37 387.25 280.37 384.43 282.08C386.45 283.84 388.58 285.46 390.82 286.92C392.2 285.63 393.82 284.5 394.82 285.11C395.82 285.72 395.55 287.74 395.05 289.53C398.41 291.53 400.92 292.68 400.92 292.68C401.9 289.56 402.64 286.38 403.16 283.15C402.99 282.81 402.83 282.47 402.67 282.15C402.13 280.9 402.67 280.36 403.55 280.15C403.8 277.87 403.82 275.57 403.61 273.28C399.81 272.49 395.19 271.01 396.92 268.73C397.92 267.36 399.87 267.2 401.86 267.55C401.59 267.1 401.27 266.67 400.92 266.27C394.01 258.65 389.18 266.27 389.18 266.27C385.18 262.92 379.52 263.83 378.3 269.06C380.5 268.47 384.82 267.61 385.08 269.43Z" fill="#EA5B0B"/>
<path d="M393.699 325.41L392.699 325.33C392.699 324.82 396.789 273.81 385.339 269C384.239 268.48 382.949 268.51 381.869 269.08C377.739 271.24 375.749 280.17 375.729 280.26L374.729 280.04C374.809 279.66 376.829 270.57 381.379 268.2C382.719 267.49 384.319 267.45 385.699 268.08C397.849 273.16 393.879 323.28 393.699 325.41Z" fill="#EA5B0B"/>
<path d="M395.15 324.31C394.94 322.01 390.27 268.04 399.01 262.31C401.1 260.94 403.01 260.64 404.56 261.45C408.69 263.53 409.23 272.36 409.25 272.73L408.25 272.79C408.25 272.7 407.72 264.16 404.11 262.34C402.86 261.71 401.33 261.98 399.56 263.15C391.31 268.55 396.09 323.66 396.14 324.22L395.15 324.31Z" fill="#EA5B0B"/>
<path d="M396.46 328.67C396.39 326.91 394.95 285.6 402.91 281.98C404.41 281.28 406.14 281.28 407.64 281.98C413.1 284.38 416.48 294.55 416.64 294.98L415.69 295.29C415.69 295.19 412.31 285.11 407.26 282.89C406.02 282.3 404.59 282.3 403.35 282.89C397.24 285.67 397.04 316.89 397.48 328.63L396.46 328.67Z" fill="#EA5B0B"/>
<path d="M394.43 326.78L393.43 326.67C394.83 314.37 397.51 281.61 393.13 277.67C392.7 277.14 391.99 276.92 391.34 277.11C388.41 278.24 386.62 288.9 386.18 292.91L385.18 292.8C385.35 291.26 386.94 277.73 390.97 276.18C391.97 275.85 393.08 276.14 393.79 276.92C399.47 282 394.64 325 394.43 326.78Z" fill="#EA5B0B"/>
<path d="M377.75 303.47H413.67L410.67 343.71H380.75L377.75 303.47Z" fill="#4A1E05"/>
<path d="M382.639 288.7C382.269 289.7 379.479 288.91 377.289 288.13C376.529 289.87 376.699 292.13 377.349 294.54C379.849 294.54 383.349 294.61 383.659 295.24C383.969 295.87 380.219 296.17 377.889 296.24C378.529 298.02 379.289 299.75 380.169 301.42C381.469 301.1 382.859 300.95 383.239 301.66C383.619 302.37 382.789 303.54 381.869 304.47C383.269 306.82 384.409 308.42 384.409 308.42C386.079 306.83 387.639 305.13 389.059 303.31C389.059 303.05 389.059 302.78 389.109 302.51C389.209 301.51 389.709 301.4 390.329 301.6C391.269 300.28 392.059 298.87 392.709 297.39C390.639 295.59 388.299 293.1 390.149 292.29C391.259 291.8 392.489 292.36 393.599 293.29C393.599 292.92 393.549 292.54 393.459 292.18C391.809 285.11 386.219 288.18 386.219 288.18C384.889 284.73 381.099 283.36 378.559 286.18C380.149 286.54 383.099 287.49 382.639 288.7Z" fill="#EA5B0B"/>
<path opacity="0.3" d="M382.639 288.7C382.269 289.7 379.479 288.91 377.289 288.13C376.529 289.87 376.699 292.13 377.349 294.54C379.849 294.54 383.349 294.61 383.659 295.24C383.969 295.87 380.219 296.17 377.889 296.24C378.529 298.02 379.289 299.75 380.169 301.42C381.469 301.1 382.859 300.95 383.239 301.66C383.619 302.37 382.789 303.54 381.869 304.47C383.269 306.82 384.409 308.42 384.409 308.42C386.079 306.83 387.639 305.13 389.059 303.31C389.059 303.05 389.059 302.78 389.109 302.51C389.209 301.51 389.709 301.4 390.329 301.6C391.269 300.28 392.059 298.87 392.709 297.39C390.639 295.59 388.299 293.1 390.149 292.29C391.259 291.8 392.489 292.36 393.599 293.29C393.599 292.92 393.549 292.54 393.459 292.18C391.809 285.11 386.219 288.18 386.219 288.18C384.889 284.73 381.099 283.36 378.559 286.18C380.149 286.54 383.099 287.49 382.639 288.7Z" fill="white"/>
<path d="M409.319 293.481C408.199 293.581 407.099 293.811 406.029 294.171C405.749 293.411 405.589 292.61 405.549 291.8C405.319 284.55 410.549 287.601 413.249 285.481C414.499 284.371 416.169 283.841 417.839 284.041C417.599 284.441 417.389 284.851 417.209 285.281C416.979 285.871 417.269 286.54 417.869 286.77C417.939 286.8 418.019 286.82 418.089 286.83C418.769 286.96 419.459 286.871 420.089 286.591C420.269 286.481 420.449 286.361 420.609 286.221C421.049 286.981 421.379 287.8 421.609 288.65C421.879 289.66 422.029 290.701 422.069 291.751C421.659 291.841 421.259 291.951 420.859 292.091C420.289 292.341 420.019 293 420.269 293.58C420.309 293.66 420.349 293.741 420.409 293.811C420.839 294.251 421.339 294.6 421.899 294.86C421.709 296.02 421.409 297.161 420.989 298.261L420.619 298.311C420.359 298.361 420.099 298.431 419.839 298.511C419.689 298.551 419.549 298.601 419.409 298.661C419.049 298.821 418.799 299.151 418.729 299.541C418.689 299.931 418.849 300.301 419.159 300.541C419.329 300.671 419.509 300.781 419.699 300.871C418.999 302.071 418.009 303.07 416.819 303.77C415.769 303.29 414.749 302.75 413.769 302.15C413.989 301.86 414.209 301.57 414.409 301.27C414.639 300.94 414.749 300.541 414.709 300.141C414.649 299.751 414.439 299.391 414.129 299.141C413.799 298.901 413.389 298.791 412.989 298.841C412.589 298.891 412.229 299.101 411.989 299.421C411.749 299.781 411.479 300.121 411.219 300.421C409.839 299.401 408.599 298.201 407.539 296.851H407.649C408.299 296.671 408.969 296.561 409.649 296.511C410.499 296.401 411.089 295.631 410.979 294.781C410.869 293.931 410.099 293.341 409.249 293.451L409.309 293.481H409.319Z" fill="#EA5B0B"/>
<path opacity="0.5" d="M409.319 293.481C408.199 293.581 407.099 293.811 406.029 294.171C405.749 293.411 405.589 292.61 405.549 291.8C405.319 284.55 410.549 287.601 413.249 285.481C414.499 284.371 416.169 283.841 417.839 284.041C417.599 284.441 417.389 284.851 417.209 285.281C416.979 285.871 417.269 286.54 417.869 286.77C417.939 286.8 418.019 286.82 418.089 286.83C418.769 286.96 419.459 286.871 420.089 286.591C420.269 286.481 420.449 286.361 420.609 286.221C421.049 286.981 421.379 287.8 421.609 288.65C421.879 289.66 422.029 290.701 422.069 291.751C421.659 291.841 421.259 291.951 420.859 292.091C420.289 292.341 420.019 293 420.269 293.58C420.309 293.66 420.349 293.741 420.409 293.811C420.839 294.251 421.339 294.6 421.899 294.86C421.709 296.02 421.409 297.161 420.989 298.261L420.619 298.311C420.359 298.361 420.099 298.431 419.839 298.511C419.689 298.551 419.549 298.601 419.409 298.661C419.049 298.821 418.799 299.151 418.729 299.541C418.689 299.931 418.849 300.301 419.159 300.541C419.329 300.671 419.509 300.781 419.699 300.871C418.999 302.071 418.009 303.07 416.819 303.77C415.769 303.29 414.749 302.75 413.769 302.15C413.989 301.86 414.209 301.57 414.409 301.27C414.639 300.94 414.749 300.541 414.709 300.141C414.649 299.751 414.439 299.391 414.129 299.141C413.799 298.901 413.389 298.791 412.989 298.841C412.589 298.891 412.229 299.101 411.989 299.421C411.749 299.781 411.479 300.121 411.219 300.421C409.839 299.401 408.599 298.201 407.539 296.851H407.649C408.299 296.671 408.969 296.561 409.649 296.511C410.499 296.401 411.089 295.631 410.979 294.781C410.869 293.931 410.099 293.341 409.249 293.451L409.309 293.481H409.319Z" fill="white"/>
<path d="M411.39 268.5C412.01 268.06 412.68 267.7 413.39 267.42C413.2 266.89 412.94 266.4 412.6 265.96C409.54 262.05 408.16 265.96 405.78 266.02C404.65 266 403.56 266.45 402.78 267.28C403.08 267.39 403.37 267.51 403.65 267.66C404.03 267.85 404.18 268.32 403.98 268.7C403.95 268.76 403.91 268.81 403.87 268.86C403.57 269.23 403.16 269.49 402.7 269.62C402.55 269.63 402.41 269.63 402.26 269.62C402.36 270.21 402.54 270.79 402.8 271.33C403.1 271.98 403.48 272.59 403.92 273.16C404.17 273.03 404.43 272.91 404.7 272.81C405.11 272.69 405.55 272.92 405.67 273.34C405.69 273.4 405.7 273.46 405.7 273.52C405.66 273.94 405.55 274.35 405.37 274.73C405.99 275.25 406.66 275.72 407.37 276.11L407.59 275.98C407.75 275.89 407.92 275.81 408.09 275.74C408.18 275.69 408.28 275.65 408.38 275.63C408.64 275.55 408.92 275.61 409.13 275.79C409.33 275.98 409.42 276.26 409.36 276.53C409.33 276.67 409.28 276.81 409.22 276.94C410.11 277.26 411.07 277.35 412 277.2C412.34 276.49 412.64 275.76 412.9 275.01C412.66 274.96 412.41 274.9 412.18 274.83C411.91 274.76 411.68 274.6 411.52 274.37C411.37 274.13 411.32 273.84 411.38 273.57C411.43 273.3 411.6 273.06 411.84 272.91C412.08 272.76 412.36 272.71 412.63 272.77C412.92 272.85 413.2 272.92 413.49 272.98C413.77 271.84 413.89 270.66 413.86 269.49H413.79C413.36 269.69 412.95 269.93 412.56 270.21C412.07 270.52 411.42 270.38 411.1 269.89C410.79 269.4 410.93 268.75 411.43 268.43L411.39 268.5Z" fill="#EA5B0B"/>
<path opacity="0.3" d="M411.39 268.5C412.01 268.06 412.68 267.7 413.39 267.42C413.2 266.89 412.94 266.4 412.6 265.96C409.54 262.05 408.16 265.96 405.78 266.02C404.65 266 403.56 266.45 402.78 267.28C403.08 267.39 403.37 267.51 403.65 267.66C404.03 267.85 404.18 268.32 403.98 268.7C403.95 268.76 403.91 268.81 403.87 268.86C403.57 269.23 403.16 269.49 402.7 269.62C402.55 269.63 402.41 269.63 402.26 269.62C402.36 270.21 402.54 270.79 402.8 271.33C403.1 271.98 403.48 272.59 403.92 273.16C404.17 273.03 404.43 272.91 404.7 272.81C405.11 272.69 405.55 272.92 405.67 273.34C405.69 273.4 405.7 273.46 405.7 273.52C405.66 273.94 405.55 274.35 405.37 274.73C405.99 275.25 406.66 275.72 407.37 276.11L407.59 275.98C407.75 275.89 407.92 275.81 408.09 275.74C408.18 275.69 408.28 275.65 408.38 275.63C408.64 275.55 408.92 275.61 409.13 275.79C409.33 275.98 409.42 276.26 409.36 276.53C409.33 276.67 409.28 276.81 409.22 276.94C410.11 277.26 411.07 277.35 412 277.2C412.34 276.49 412.64 275.76 412.9 275.01C412.66 274.96 412.41 274.9 412.18 274.83C411.91 274.76 411.68 274.6 411.52 274.37C411.37 274.13 411.32 273.84 411.38 273.57C411.43 273.3 411.6 273.06 411.84 272.91C412.08 272.76 412.36 272.71 412.63 272.77C412.92 272.85 413.2 272.92 413.49 272.98C413.77 271.84 413.89 270.66 413.86 269.49H413.79C413.36 269.69 412.95 269.93 412.56 270.21C412.07 270.52 411.42 270.38 411.1 269.89C410.79 269.4 410.93 268.75 411.43 268.43L411.39 268.5Z" fill="white"/>
<path d="M382.12 275.75C381.91 277.22 385.89 278.19 389.12 278.75C388.85 281.42 387.12 284.12 384.62 286.64C381.54 284.9 377.13 282.64 376.32 283.16C375.51 283.68 379.94 286.69 382.76 288.41C380.75 290.17 378.62 291.79 376.38 293.25C374.99 291.95 373.38 290.82 372.38 291.43C371.38 292.04 371.65 294.07 372.14 295.85C368.79 297.85 366.27 299 366.27 299C365.29 295.88 364.55 292.7 364.03 289.47C364.2 289.14 364.37 288.8 364.52 288.47C365.06 287.22 364.52 286.69 363.64 286.47C363.39 284.19 363.37 281.89 363.59 279.61C367.39 278.81 372.01 277.34 370.28 275.06C369.28 273.68 367.28 273.53 365.33 273.87C365.6 273.42 365.92 272.99 366.27 272.59C373.19 264.98 378.01 272.59 378.01 272.59C382.01 269.25 387.67 270.15 388.89 275.38C386.7 274.8 382.38 273.94 382.12 275.75Z" fill="#EA5B0B"/>
<path opacity="0.5" d="M382.12 275.75C381.91 277.22 385.89 278.19 389.12 278.75C388.85 281.42 387.12 284.12 384.62 286.64C381.54 284.9 377.13 282.64 376.32 283.16C375.51 283.68 379.94 286.69 382.76 288.41C380.75 290.17 378.62 291.79 376.38 293.25C374.99 291.95 373.38 290.82 372.38 291.43C371.38 292.04 371.65 294.07 372.14 295.85C368.79 297.85 366.27 299 366.27 299C365.29 295.88 364.55 292.7 364.03 289.47C364.2 289.14 364.37 288.8 364.52 288.47C365.06 287.22 364.52 286.69 363.64 286.47C363.39 284.19 363.37 281.89 363.59 279.61C367.39 278.81 372.01 277.34 370.28 275.06C369.28 273.68 367.28 273.53 365.33 273.87C365.6 273.42 365.92 272.99 366.27 272.59C373.19 264.98 378.01 272.59 378.01 272.59C382.01 269.25 387.67 270.15 388.89 275.38C386.7 274.8 382.38 273.94 382.12 275.75Z" fill="white"/>
<path d="M190.08 358.06L164.87 348.78L139.39 358.07C138.69 358.32 137.91 357.96 137.66 357.26C137.61 357.11 137.58 356.96 137.58 356.8C137.58 356.28 137.89 355.8 138.36 355.58L164.87 343.28L191.11 355.58C191.59 355.8 191.89 356.28 191.89 356.8C191.89 357.54 191.3 358.14 190.56 358.15C190.4 358.15 190.24 358.12 190.08 358.06Z" fill="#4A1E05"/>
<path opacity="0.3" d="M190.08 358.06L164.87 348.78L139.39 358.07C138.69 358.32 137.91 357.96 137.66 357.26C137.61 357.11 137.58 356.96 137.58 356.8C137.58 356.28 137.89 355.8 138.36 355.58L164.87 343.28L191.11 355.58C191.59 355.8 191.89 356.28 191.89 356.8C191.89 357.54 191.3 358.14 190.56 358.15C190.4 358.15 190.24 358.12 190.08 358.06Z" fill="white"/>
<path opacity="0.2" d="M158.931 350.94L164.871 348.78L170.541 350.87V345.93L164.871 343.28L158.931 346.03V350.94Z" fill="black"/>
<path d="M164.741 358.281C163.591 358.281 162.631 357.421 162.511 356.281L161.801 348.811V286.811H167.671V348.811L166.961 356.281C166.841 357.411 165.881 358.281 164.741 358.281Z" fill="#4A1E05"/>
<path opacity="0.3" d="M164.741 358.281C163.591 358.281 162.631 357.421 162.511 356.281L161.801 348.811V286.811H167.671V348.811L166.961 356.281C166.841 357.411 165.881 358.281 164.741 358.281Z" fill="white"/>
<path opacity="0.2" d="M167.681 286.76H161.801V293.98H167.681V286.76Z" fill="black"/>
<path d="M151.55 222.87C152.48 222.85 153.35 223.34 153.8 224.16C164.56 242.19 168.42 263.5 164.68 284.16C164.56 285.24 163.67 286.07 162.58 286.11C160.95 286.23 131.94 286.11 130.89 286.11C129.28 286.15 127.94 284.87 127.9 283.26C127.9 283.08 127.9 282.89 127.94 282.71C131.32 263.48 127.66 243.67 117.61 226.92C116.89 225.62 117.35 223.98 118.65 223.26C119.07 223.02 119.56 222.91 120.04 222.92C120.88 222.85 149.7 222.9 151.55 222.87Z" fill="#EA5B0B"/>
<path opacity="0.2" d="M151.55 222.87C152.48 222.85 153.35 223.34 153.8 224.16C164.56 242.19 168.42 263.5 164.68 284.16C164.56 285.24 163.67 286.07 162.58 286.11C160.95 286.23 131.94 286.11 130.89 286.11C129.28 286.15 127.94 284.87 127.9 283.26C127.9 283.08 127.9 282.89 127.94 282.71C131.32 263.48 127.66 243.67 117.61 226.92C116.89 225.62 117.35 223.98 118.65 223.26C119.07 223.02 119.56 222.91 120.04 222.92C120.88 222.85 149.7 222.9 151.55 222.87Z" fill="black"/>
<path d="M127.94 282.69C131.32 263.46 127.66 243.65 117.61 226.9C115.8 223.9 120.49 221.17 122.29 224.16C133.05 242.19 136.91 263.5 133.17 284.16C132.55 287.59 127.32 286.16 127.94 282.72V282.69Z" fill="#EA5B0B"/>
<g opacity="0.1">
<path d="M127.94 282.69C131.32 263.46 127.66 243.65 117.61 226.9C115.8 223.9 120.49 221.17 122.29 224.16C133.05 242.19 136.91 263.5 133.17 284.16C132.55 287.59 127.32 286.16 127.94 282.72V282.69Z" fill="white"/>
</g>
<path d="M218.421 281.12C211.771 279.43 204.941 278.49 198.081 278.32C191.021 278.14 164.581 278.32 158.301 278.32C150.641 278.32 143.021 279.26 135.601 281.15C130.941 282.34 132.381 289.06 136.601 289.15H217.181C221.581 289.31 223.181 282.33 218.421 281.12Z" fill="#EA5B0B"/>
<path opacity="0.3" d="M218.421 281.12C211.771 279.43 204.941 278.49 198.081 278.32C191.021 278.14 164.581 278.32 158.301 278.32C150.641 278.32 143.021 279.26 135.601 281.15C130.941 282.34 132.381 289.06 136.601 289.15H217.181C221.581 289.31 223.181 282.33 218.421 281.12Z" fill="black"/>
<path d="M137.77 289C151.25 285.57 165.36 285.57 178.84 289C183.91 290.29 186.08 282.44 181 281.15C166.1 277.37 150.5 277.37 135.6 281.15C130.53 282.44 132.68 290.29 137.77 289Z" fill="#EA5B0B"/>
<g opacity="0.3">
<path d="M137.77 289C151.25 285.57 165.36 285.57 178.84 289C183.91 290.29 186.08 282.44 181 281.15C166.1 277.37 150.5 277.37 135.6 281.15C130.53 282.44 132.68 290.29 137.77 289Z" fill="white"/>
</g>
<path d="M187.26 249.54H151.46V263.89H187.26V249.54Z" fill="#4A1E05"/>
<path opacity="0.2" d="M187.26 249.54H151.46V263.89H187.26V249.54Z" fill="white"/>
<path d="M206.53 325.74L201.82 346.25L207.67 348.51L216.09 327.89L206.53 325.74Z" fill="#B55B52"/>
<path d="M207.33 347.17L202 344.33C201.77 344.21 201.48 344.26 201.31 344.46L197.51 348.85C197.17 349.24 197.21 349.82 197.6 350.16C197.65 350.21 197.7 350.25 197.76 350.28C199.99 351.43 202.02 352.36 204.76 353.85C208 355.6 206.97 355.54 210.76 357.65C213.04 358.92 214.87 356.53 213.96 355.88C209.8 352.88 209.25 350.88 208.39 348.34C208.19 347.84 207.81 347.42 207.33 347.17Z" fill="#4A1E05"/>
<path d="M159.131 262.12L187.851 260.54C187.851 260.54 235.561 268 234.851 281.34C234.141 294.68 214.721 336.74 214.721 336.74L203.331 333.58C203.331 333.58 212.011 291.29 217.661 284.28C217.661 284.28 182.031 280.1 173.111 277.72C168.251 276.42 156.421 278.63 159.131 262.12Z" fill="#4A1E05"/>
<path opacity="0.2" d="M159.131 262.12L187.851 260.54C187.851 260.54 235.561 268 234.851 281.34C234.141 294.68 214.721 336.74 214.721 336.74L203.331 333.58C203.331 333.58 212.011 291.29 217.661 284.28C217.661 284.28 182.031 280.1 173.111 277.72C168.251 276.42 156.421 278.63 159.131 262.12Z" fill="white"/>
<path opacity="0.2" d="M212.881 283.701C213.051 279.741 212.301 275.801 210.691 272.181C208.041 266.181 186.201 262.601 175.751 261.181L159.131 262.091C156.421 278.601 168.251 276.391 173.131 277.691C180.001 279.561 202.841 282.471 212.881 283.701Z" fill="black"/>
<path d="M187.021 331.391L186.271 352.421L192.601 352.721L196.811 331.691L187.021 331.391Z" fill="#B55B52"/>
<path d="M192.15 350.81L186.01 350.94C185.74 350.94 185.52 351.13 185.46 351.39L184.29 357.18C184.21 357.69 184.52 358.18 185.02 358.31H185.22C187.78 358.22 190.04 358.03 193.22 357.98C196.98 357.91 196.03 358.38 200.45 358.36C203.11 358.36 203.54 355.36 202.45 355.19C197.28 354.63 195.76 353.09 193.74 351.28C193.29 350.93 192.72 350.76 192.15 350.81Z" fill="#4A1E05"/>
<path d="M202.47 331.09L216.8 335.08L214.18 340.59L201.12 337.34L202.47 331.09Z" fill="#4A1E05"/>
<path d="M202.47 331.09L216.8 335.08L214.18 340.59L201.12 337.34L202.47 331.09Z" fill="black"/>
<path d="M166.82 262.12C166.82 262.12 205.26 263.48 207.52 275.24C209.78 287 196.9 339.68 196.9 339.68H185.36C185.36 339.68 186.72 292.42 190.57 282.47C190.57 282.47 158.91 287.47 150.57 280.26C144.57 275.13 151.7 262.12 151.7 262.12H166.82Z" fill="#4A1E05"/>
<path opacity="0.2" d="M166.82 262.12C166.82 262.12 205.26 263.48 207.52 275.24C209.78 287 196.9 339.68 196.9 339.68H185.36C185.36 339.68 186.72 292.42 190.57 282.47C190.57 282.47 158.91 287.47 150.57 280.26C144.57 275.13 151.7 262.12 151.7 262.12H166.82Z" fill="white"/>
<path d="M184.23 336.74L198.71 337.42L197.35 343.19L184.23 342.51V336.74Z" fill="#4A1E05"/>
<path d="M184.23 336.74L198.71 337.42L197.35 343.19L184.23 342.51V336.74Z" fill="black"/>
<path d="M217.89 217.53L224.05 215.23L218.8 210.16C218.8 210.16 213.43 212.55 214.8 215.27L217.89 217.53Z" fill="#B55B52"/>
<path d="M228.081 210.11L222.091 207.29L218.801 210.17L224.051 215.23L228.081 210.11Z" fill="#B55B52"/>
<path d="M210.061 217.801L213.691 213.851L218.541 217.981L214.611 222.631L210.061 217.801Z" fill="#EA5B0B"/>
<path opacity="0.8" d="M210.061 217.801L213.691 213.851L218.541 217.981L214.611 222.631L210.061 217.801Z" fill="white"/>
<path d="M185.47 193.48C185.47 193.48 189.26 197.78 194.73 211.87C200.2 225.96 206.26 221.87 212.91 214.25L218.38 219.25C218.38 219.25 208.16 232 201.72 232C194.56 232 187.61 220.89 186.21 213.14C184.81 205.39 185.47 193.48 185.47 193.48Z" fill="#4A1E05"/>
<path opacity="0.4" d="M186.811 201.62L184.811 199.92L183.811 205.34C183.951 206.91 184.131 208.45 184.381 209.84C185.181 214.27 188.181 220.07 191.381 224.89C190.371 217.04 188.841 209.27 186.811 201.62Z" fill="black"/>
<path d="M147.92 235.411L148.49 264.751L170.09 265.481C172.91 265.481 173.57 263.601 174.16 261.481L175.22 257.651L176.16 261.111C176.73 263.231 179.69 263.581 181.83 263.111L191.24 260.781L189.08 231.891C189.08 231.891 190.53 210.131 187.08 196.201C186.27 193.561 184.07 191.581 181.36 191.061C170.1 188.481 158.33 189.371 147.59 193.621C146.23 194.171 145.41 195.561 145.59 197.021L147.92 235.411Z" fill="#4A1E05"/>
<path opacity="0.5" d="M174.71 223.001C174.71 223.501 174.31 223.901 173.81 223.901C173.31 223.901 172.91 223.501 172.91 223.001C172.91 222.501 173.31 222.101 173.81 222.101C174.31 222.101 174.71 222.501 174.71 223.001Z" fill="black"/>
<path opacity="0.5" d="M175.59 235.41C175.59 235.91 175.19 236.31 174.69 236.31C174.19 236.31 173.79 235.91 173.79 235.41C173.79 234.91 174.19 234.51 174.69 234.51C175.19 234.51 175.59 234.91 175.59 235.41Z" fill="black"/>
<path opacity="0.5" d="M176 247.69C176 248.19 175.6 248.59 175.1 248.59C174.6 248.59 174.2 248.19 174.2 247.69C174.2 247.19 174.6 246.79 175.1 246.79C175.59 246.79 175.99 247.2 175.99 247.69H176Z" fill="black"/>
<path d="M160.26 189.26C163.7 187.98 167.43 187.72 171.01 188.51L173.22 189.77L173.99 192.22L171.2 194.41L164.6 195.09L159.15 192.83L159.45 190.41L160.26 189.26Z" fill="#4A1E05"/>
<path d="M172.34 190.53C170.15 189.94 168.6 186.13 170.4 183.68L160.84 176.28C162.24 189.63 161.55 187.2 159.57 191.04C159.57 191.04 160.94 195.49 168.65 194.11C173.65 193.21 172.34 190.53 172.34 190.53Z" fill="#B55B52"/>
<path opacity="0.2" d="M170.4 183.68L160.78 176.55C161.02 178.43 161.05 178.44 161.18 179.8C162.18 181.87 164.26 187.13 169.69 187.29C169.45 186.34 169.72 184.28 170.4 183.68Z" fill="black"/>
<path d="M159.701 197.581L162.331 206.131L168.43 214.941L173.441 220.151L175.311 212.521L174.711 196.591L174.611 193.151L173.211 191.181L170.991 193.131L169.09 193.861L166.311 193.891L159.021 191.671L159.701 197.581Z" fill="#EA5B0B"/>
<path opacity="0.8" d="M159.701 197.581L162.331 206.131L168.43 214.941L173.441 220.151L175.311 212.521L174.711 196.591L174.611 193.151L173.211 191.181L170.991 193.131L169.09 193.861L166.311 193.891L159.021 191.671L159.701 197.581Z" fill="#EA5B0B"/>
<path opacity="0.5" d="M159.701 197.581L162.331 206.131L168.43 214.941L173.441 220.151L175.311 212.521L174.711 196.591L174.611 193.151L173.211 191.181L170.991 193.131L169.09 193.861L166.311 193.891L159.021 191.671L159.701 197.581Z" fill="white"/>
<path d="M165.591 196.59C166.291 197.97 167.251 199.2 168.431 200.21C168.431 200.21 167.211 208.93 169.091 215.03L173.441 220.15L174.711 213.82C174.711 213.82 172.711 203.7 170.151 199.87C170.821 198.55 171.311 197.14 171.601 195.69L170.001 194.41C170.001 194.41 167.831 195.96 166.531 194.88L165.591 196.59Z" fill="#EA5B0B"/>
<path d="M159.53 190.05C159.53 190.05 163.53 193.48 167.6 193.48C171.67 193.48 172.09 189.26 172.09 189.26L173.79 191.1C173.88 193.24 173.4 195.36 172.4 197.25L168.19 194.4L165.33 198.52C162.62 197.14 160.32 195.07 158.66 192.52L159.53 190.05Z" fill="#EA5B0B"/>
<path opacity="0.8" d="M159.53 190.05C159.53 190.05 163.53 193.48 167.6 193.48C171.67 193.48 172.09 189.26 172.09 189.26L173.79 191.1C173.88 193.24 173.4 195.36 172.4 197.25L168.19 194.4L165.33 198.52C162.62 197.14 160.32 195.07 158.66 192.52L159.53 190.05Z" fill="white"/>
<path d="M160.261 189.26C160.261 189.26 156.961 199.43 173.261 218.83C173.261 218.83 176.181 195.06 171.061 188.51L174.621 189.92L178.321 195.51L175.611 197.25L178.961 198.74C178.961 198.74 178.481 206.45 173.761 221.27C173.761 221.27 163.081 213.01 156.101 201.86L159.351 199.27L155.011 198.58L156.941 190.86L160.261 189.26Z" fill="#4A1E05"/>
<path opacity="0.3" d="M160.261 189.26C160.261 189.26 156.961 199.43 173.261 218.83C173.261 218.83 176.181 195.06 171.061 188.51L174.621 189.92L178.321 195.51L175.611 197.25L178.961 198.74C178.961 198.74 178.481 206.45 173.761 221.27C173.761 221.27 163.081 213.01 156.101 201.86L159.351 199.27L155.011 198.58L156.941 190.86L160.261 189.26Z" fill="black"/>
<path opacity="0.4" d="M146.051 199.87L150.281 223.44L150.771 222.83C152.091 214.96 151.781 206.91 149.851 199.17L148.571 199.86H146.051V199.87Z" fill="black"/>
<path d="M173.001 158.181C173.001 158.181 177.601 166.691 174.061 171.871C170.521 177.051 164.511 160.281 164.511 160.281L173.001 158.181Z" fill="#4A1E05"/>
<path d="M177 176.69C176.98 177.03 176.94 177.36 176.88 177.69C176.47 180.12 175.16 182.3 173.2 183.79C171.45 185.15 169.26 185.81 167.05 185.63C165.47 185.49 163.96 184.92 162.68 183.99C158.68 181.14 158.02 177.13 156.42 170.44C155.13 165.41 158.16 160.28 163.19 158.99C164.62 158.62 166.12 158.6 167.56 158.91C174.71 160.45 177.42 170.34 177 176.69Z" fill="#B55B52"/>
<path d="M167.07 170.53C167.13 171.08 167.54 171.48 167.9 171.41C168.26 171.34 168.48 170.84 168.38 170.29C168.28 169.74 167.91 169.35 167.55 169.41C167.19 169.47 167 170 167.07 170.53Z" fill="#4A1E05"/>
<path d="M173.311 169.43C173.371 169.98 173.781 170.37 174.141 170.31C174.501 170.25 174.711 169.74 174.621 169.19C174.531 168.64 174.141 168.25 173.781 168.31C173.421 168.37 173.221 168.9 173.311 169.43Z" fill="#4A1E05"/>
<path d="M171.38 170.05C172.33 171.62 173.5 173.05 174.84 174.3C174.18 175 173.24 175.37 172.28 175.3L171.38 170.05Z" fill="#A02724"/>
<path d="M175.15 166.36C175.04 166.41 174.92 166.41 174.81 166.36C174.04 166.03 173.16 166.08 172.44 166.5C172.29 166.6 172.08 166.57 171.98 166.42C171.88 166.27 171.91 166.06 172.06 165.96C172.97 165.41 174.09 165.33 175.06 165.75C175.23 165.81 175.31 165.99 175.25 166.16C175.25 166.16 175.25 166.16 175.25 166.17C175.22 166.24 175.19 166.3 175.15 166.36Z" fill="#4A1E05"/>
<path d="M165.4 168.261C165.24 168.281 165.1 168.161 165.08 168.001C165.08 167.911 165.1 167.831 165.16 167.771C165.82 166.941 166.84 166.471 167.9 166.531C168.07 166.541 168.2 166.691 168.18 166.861C168.18 166.861 168.18 166.881 168.18 166.891C168.16 167.071 168 167.201 167.82 167.181C166.99 167.161 166.19 167.531 165.67 168.181C165.59 168.241 165.5 168.271 165.4 168.261Z" fill="#4A1E05"/>
<path d="M159.93 161.13L160.93 164C160.02 164.73 159.81 166.03 160.45 167C161.97 169.27 161.45 173.45 159.87 175.42C159.87 175.42 159.57 174.35 158.72 174.81C157.87 175.27 159.39 180.81 161.77 183.1C161.77 183.1 158.54 181.29 155.69 175.74C153.05 170.62 151.85 166.12 152.49 163.74L159.93 161.13Z" fill="#4A1E05"/>
<path d="M154.49 176.53C155.51 177.93 157.05 178.87 158.76 179.14C161.03 179.48 161.88 177.38 161.02 175.38C160.23 173.61 158.11 171.24 155.94 171.84C154.39 172.26 153.48 173.87 153.9 175.42C154.01 175.83 154.21 176.21 154.49 176.53Z" fill="#B55B52"/>
<path d="M152.361 165.24C152.361 165.24 150.791 161.52 156.251 157.15C161.711 152.78 169.171 154.81 172.691 151.31C176.211 147.81 178.691 158.53 170.211 161.63C164.441 163.6 158.441 164.81 152.361 165.24Z" fill="#4A1E05"/>
<path d="M172.16 177.27C171.54 178.05 170.98 178.87 170.48 179.73L169.99 179.54C167.78 178.66 167.05 177.54 166.9 176.54C166.83 175.77 167.01 175.01 167.43 174.36C168.56 175.5 169.92 176.39 171.43 176.96C171.67 177.08 171.91 177.18 172.16 177.27Z" fill="#4A1E05"/>
<path d="M171.41 177L170.89 177.71C168.82 176.89 167.47 176.03 167.07 175.14C167.16 174.88 167.28 174.63 167.43 174.4C168.55 175.54 169.91 176.43 171.41 177Z" fill="white"/>
<path d="M170 179.54C167.79 178.66 167.06 177.54 166.91 176.54C167.74 176.88 168.51 177.38 169.17 177.99C169.6 178.41 169.89 178.95 170 179.54Z" fill="#A02724"/>
<path d="M133.2 226.001C134.2 228.241 136.04 228.461 137.89 227.541C139.56 226.601 140.98 225.281 142.03 223.691C142.87 222.481 144.03 220.691 145.16 218.741C147.63 214.591 150.21 209.981 150.21 209.981C152.05 207.631 152.68 204.551 151.91 201.671C150.42 197.221 148.58 194.671 146.75 194.431C141.77 196.801 131.33 222.001 133.2 226.001Z" fill="#4A1E05"/>
<path opacity="0.2" d="M137.89 227.52C139.56 226.58 140.98 225.26 142.03 223.67C142.87 222.46 144.03 220.67 145.16 218.72C144.27 217.11 143.29 215.55 142.22 214.05L139.71 221.13C139.71 221.13 135.29 222.13 134.59 224.44C134.33 225.31 135.83 226.55 137.89 227.52Z" fill="black"/>
<path d="M138.001 207.3L146.341 239.08C146.561 239.84 147.291 240.33 148.081 240.25L170.211 237.3C170.871 237.22 171.331 236.62 171.251 235.96C171.251 235.9 171.231 235.83 171.211 235.77L162.941 204C162.721 203.24 161.981 202.75 161.201 202.84L139.071 205.78C138.401 205.83 137.911 206.42 137.961 207.08C137.961 207.15 137.981 207.22 138.001 207.3Z" fill="#4A1E05"/>
<path opacity="0.4" d="M138 207.3L146.34 239.08C146.56 239.84 147.29 240.33 148.08 240.25L169.2 237.44C169.86 237.35 170.33 236.74 170.24 236.08C170.24 236.02 170.22 235.96 170.2 235.9L161.86 204.12C161.64 203.36 160.91 202.86 160.12 202.95L139 205.76C138.34 205.85 137.87 206.46 137.96 207.12C137.96 207.18 137.98 207.24 138 207.3Z" fill="white"/>
<path opacity="0.3" d="M153.4 219.421C154.53 219.291 155.58 220.001 155.89 221.091C156.16 222.011 155.64 222.971 154.72 223.241C154.62 223.271 154.52 223.291 154.41 223.301C153.28 223.421 152.23 222.711 151.91 221.621C152.86 221.521 153.55 220.681 153.46 219.731C153.45 219.631 153.43 219.521 153.4 219.421Z" fill="white"/>
<path d="M136.241 233.47C137.741 234.26 141.101 233.06 142.121 232.66L142.441 232.54C142.441 232.54 144.271 226.54 139.491 223.31C139.461 223.28 139.421 223.26 139.381 223.25C137.861 222.43 133.141 223.48 133.001 225.08C132.431 231.47 134.471 232.54 136.241 233.47Z" fill="#4A1E05"/>
<path opacity="0.2" d="M139.16 228.35C139.62 230.1 140.68 231.63 142.16 232.66L142.48 232.54C142.48 232.54 144.31 226.54 139.53 223.31C139.5 223.28 139.46 223.26 139.42 223.25C139 223.79 138.31 225.21 139.16 228.35Z" fill="black"/>
<path d="M146.051 220.76C146.051 220.76 142.981 220.63 141.571 220.76C140.161 220.89 140.571 225.43 140.571 225.43L139.361 226.09C139.361 226.09 138.361 228.76 140.481 230.09L141.571 229.72C141.771 230.37 142.181 230.93 142.741 231.32C143.611 231.86 147.891 230.65 147.891 230.65L146.051 220.76Z" fill="#B55B52"/>
<path d="M225.741 240.25C226.291 240.25 226.741 239.8 226.741 239.25C226.741 238.7 226.291 238.25 225.741 238.25H197.851C197.301 238.25 196.851 238.7 196.851 239.25C196.851 239.8 197.301 240.25 197.851 240.25H225.741Z" fill="#EA5B0B"/>
<path opacity="0.5" d="M225.741 240.25C226.291 240.25 226.741 239.8 226.741 239.25C226.741 238.7 226.291 238.25 225.741 238.25H197.851C197.301 238.25 196.851 238.7 196.851 239.25C196.851 239.8 197.301 240.25 197.851 240.25H225.741Z" fill="white"/>
<path d="M223.371 238.48L227.081 212.07C227.241 211.08 228.081 210.34 229.081 210.31H232.641V240.24H224.871C224.051 240.26 223.361 239.61 223.351 238.79C223.351 238.69 223.351 238.59 223.371 238.48Z" fill="#EA5B0B"/>
<path opacity="0.6" d="M223.371 238.48L227.081 212.07C227.241 211.08 228.081 210.34 229.081 210.31H232.641V240.24H224.871C224.051 240.26 223.361 239.61 223.351 238.79C223.351 238.69 223.351 238.59 223.371 238.48Z" fill="white"/>
<path d="M226.42 240.24H258C259 240.21 259.84 239.47 260 238.48L263.71 212.07C263.85 211.25 263.31 210.48 262.49 210.33C262.39 210.31 262.3 210.31 262.2 210.31H230.62C229.62 210.34 228.77 211.08 228.62 212.07L224.9 238.48C224.76 239.3 225.3 240.07 226.12 240.22C226.22 240.24 226.32 240.25 226.42 240.24Z" fill="#EA5B0B"/>
<path opacity="0.5" d="M226.42 240.24H258C259 240.21 259.84 239.47 260 238.48L263.71 212.07C263.85 211.25 263.31 210.48 262.49 210.33C262.39 210.31 262.3 210.31 262.2 210.31H230.62C229.62 210.34 228.77 211.08 228.62 212.07L224.9 238.48C224.76 239.3 225.3 240.07 226.12 240.22C226.22 240.24 226.32 240.25 226.42 240.24Z" fill="white"/>
<path opacity="0.7" d="M241.67 226.64C241.44 227.89 242.27 229.09 243.52 229.31C243.68 229.34 243.84 229.35 244 229.35C245.55 229.3 246.85 228.17 247.1 226.64C247.32 225.38 246.48 224.19 245.23 223.96C245.08 223.93 244.92 223.92 244.76 223.93C243.21 223.97 241.91 225.11 241.67 226.64Z" fill="white"/>
<path d="M129.41 358.949H132.03L135.39 246.779H131.94L129.41 358.949Z" fill="#4A1E05"/>
<path opacity="0.6" d="M129.41 358.949H132.03L135.39 246.779H131.94L129.41 358.949Z" fill="white"/>
<path d="M171.57 246.779V358.949H168.8L165.54 251.899H132.16L129.72 358.949H126.98V246.779H171.57Z" fill="#4A1E05"/>
<path opacity="0.4" d="M171.57 246.779V358.949H168.8L165.54 251.899H132.16L129.72 358.949H126.98V246.779H171.57Z" fill="white"/>
<path d="M171.57 358.949H174.18L175.02 246.779H171.57V358.949Z" fill="#4A1E05"/>
<path opacity="0.6" d="M171.57 358.949H174.18L175.02 246.779H171.57V358.949Z" fill="white"/>
<path d="M271.311 358.949H273.921L277.291 246.779H273.831L271.311 358.949Z" fill="#4A1E05"/>
<path opacity="0.6" d="M271.311 358.949H273.921L277.291 246.779H273.831L271.311 358.949Z" fill="white"/>
<path d="M313.461 246.779V358.949H310.701L307.441 251.899H274.061L271.621 358.949H268.881V246.779H313.461Z" fill="#4A1E05"/>
<path opacity="0.4" d="M313.461 246.779V358.949H310.701L307.441 251.899H274.061L271.621 358.949H268.881V246.779H313.461Z" fill="white"/>
<path d="M313.46 358.949H316.08L316.92 246.779H313.46V358.949Z" fill="#4A1E05"/>
<path opacity="0.6" d="M313.46 358.949H316.08L316.92 246.779H313.46V358.949Z" fill="white"/>
<path d="M321.5 240.319H173.73V246.769H321.5V240.319Z" fill="#4A1E05"/>
<path opacity="0.5" d="M321.5 240.319H173.73V246.769H321.5V240.319Z" fill="white"/>
<path d="M177.74 240.319H122.4V246.769H177.74V240.319Z" fill="#4A1E05"/>
<path opacity="0.3" d="M177.74 240.319H122.4V246.769H177.74V240.319Z" fill="white"/>
<path d="M293 203.26L295.55 198.63L299 203.4C299 203.4 296.48 207.4 294.48 206.01L293 203.26Z" fill="#E4897B"/>
<path d="M300.101 196.03L301.651 201.12L298.981 203.4L295.561 198.63L300.101 196.03Z" fill="#E4897B"/>
<path opacity="0.2" d="M296.811 197.919C297.161 199.879 297.901 201.739 299.001 203.399L299.561 202.919L297.801 197.359L296.811 197.919Z" fill="black"/>
<path d="M292.38 212.25L293.02 203.26L296.4 203.91V212.95L292.38 212.25Z" fill="#E4897B"/>
<path d="M248.9 321.03L254.07 323.05L257.78 316.05L261.16 309.69L255.43 306.25L251.97 314.07L248.9 321.03Z" fill="#E4897B"/>
<path opacity="0.2" d="M251.97 314.07L257.78 316.05L261.16 309.69L255.43 306.25L251.97 314.07Z" fill="black"/>
<path d="M253.05 310.249L260.05 314.019C260.05 314.019 286.6 267.349 290.68 267.739C294.76 268.129 333.48 292.809 345.29 283.689C357.1 274.569 345.61 247.139 345.61 247.139C345.61 247.139 321.18 240.139 318.53 245.529C317.84 247.119 317.26 248.759 316.78 250.429C316.26 252.109 315.87 253.529 315.87 253.529C315.13 253.229 291 243.339 280.23 248.639C269.29 253.999 253.05 310.249 253.05 310.249Z" fill="#4A1E05"/>
<path opacity="0.3" d="M253.05 310.249L260.05 314.019C260.05 314.019 286.6 267.349 290.68 267.739C294.76 268.129 333.48 292.809 345.29 283.689C357.1 274.569 345.61 247.139 345.61 247.139C345.61 247.139 321.18 240.139 318.53 245.529C317.84 247.119 317.26 248.759 316.78 250.429C316.26 252.109 315.87 253.529 315.87 253.529C315.13 253.229 291 243.339 280.23 248.639C269.29 253.999 253.05 310.249 253.05 310.249Z" fill="white"/>
<path d="M291.21 348.31L296.72 347.68L296.74 339.91L296.75 332.78L290.09 332.46L290.68 340.86L291.21 348.31Z" fill="#E4897B"/>
<path opacity="0.2" d="M290.701 341.02L296.761 340.06V332.85L290.101 332.5L290.701 341.02Z" fill="black"/>
<path d="M263.51 311.7L253.23 306.56L252.16 310.91L259.94 314.93L263.51 311.7Z" fill="#4A1E05"/>
<path d="M327.07 283.77C327.07 283.77 325.38 283.57 299.41 278.77C299.41 278.77 298.82 311.99 297.59 336.77L289.59 337.03C289.59 337.03 278.12 282 279.47 273.75C280.82 265.5 290.69 264.33 290.69 264.33C290.69 264.33 307.83 277.65 327.07 283.77Z" fill="#4A1E05"/>
<path opacity="0.4" d="M327.07 283.77C327.07 283.77 325.38 283.57 299.41 278.77C299.41 278.77 298.82 311.99 297.59 336.77L289.59 337.03C289.59 337.03 278.12 282 279.47 273.75C280.82 265.5 290.69 264.33 290.69 264.33C290.69 264.33 307.83 277.65 327.07 283.77Z" fill="white"/>
<path opacity="0.3" d="M327.07 283.77C327.07 283.77 325.38 283.57 299.41 278.77C299.41 278.77 298.82 311.99 297.59 336.77L289.59 337.03C289.59 337.03 278.12 282 279.47 273.75C280.82 265.5 290.69 264.33 290.69 264.33C290.69 264.33 307.83 277.65 327.07 283.77Z" fill="black"/>
<path d="M299.06 334.51L288.15 334.26L289.64 338.76L298.49 338.84L299.06 334.51Z" fill="#4A1E05"/>
<path d="M238.64 330.19C239.5 329.92 240.4 329.82 241.3 329.89C241.3 329.89 244.64 328.49 248.66 321.89L252.1 322.35C253.79 322.57 256.1 324.51 255.68 326.09C254.9 329.42 252.22 332.25 250.79 335.34L250.23 335.11L251.99 330.11C252.58 328.41 250.52 329.84 249.43 331.49C248.34 333.14 246.79 334.71 243.12 333.33C238.84 331.67 237.14 330.79 238.64 330.19Z" fill="#4A1E05"/>
<path d="M249.54 320.1C249.54 320.1 244.01 328.49 241.3 329.89C241.3 329.89 244.3 332.32 248.4 328.39C253.64 323.32 254.53 323.56 254.53 323.56C254.55 323.07 254.5 322.57 254.38 322.09C254 320.16 249.54 320.1 249.54 320.1Z" fill="#E4897B"/>
<path d="M283 358.08C283.78 357.62 284.63 357.31 285.52 357.16C285.52 357.16 288.42 355.01 290.76 347.62L294.21 347.24C297.05 346.93 298.73 348.62 298.59 350.67C298.59 353.28 296.02 360.17 296.02 360.17L295.42 360.09L295.95 354.83C296.12 353.04 294.46 354.92 293.79 356.77C293.12 358.62 291.99 360.54 288.09 360.06C283.51 359.48 281.66 359 283 358.08Z" fill="#4A1E05"/>
<path d="M291.17 345.7C291.17 345.7 287.79 355.16 285.49 357.16C285.49 357.16 289.02 358.8 292.02 354.02C295.91 347.85 297.47 348.02 297.47 348.02C297.01 347.56 296.63 347.02 296.34 346.44C295.47 344.71 291.17 345.7 291.17 345.7Z" fill="#E4897B"/>
<path d="M300.28 189.29C300.2 189.29 300.12 189.25 300.07 189.18C299.44 188.41 298.49 187.96 297.49 187.98C297.36 187.98 297.25 187.87 297.24 187.74C297.24 187.6 297.35 187.49 297.49 187.48C298.66 187.46 299.77 187.99 300.49 188.91C300.57 189.02 300.54 189.17 300.43 189.24C300.39 189.27 300.34 189.28 300.29 189.28L300.28 189.29Z" fill="#4A1E05"/>
<path d="M298.32 192.26C297.68 193.2 296.93 194.07 296.08 194.83C296.42 195.44 297.07 195.8 297.77 195.77L298.32 192.26Z" fill="#DE5753"/>
<path d="M297.35 190.31C297.28 190.85 297.52 191.31 297.88 191.38C298.24 191.45 298.6 191.02 298.67 190.47C298.74 189.92 298.5 189.47 298.14 189.4C297.78 189.33 297.42 189.76 297.35 190.31Z" fill="#4A1E05"/>
<path d="M298.28 189.45L297.15 188.83C297.15 188.83 297.62 189.9 298.28 189.45Z" fill="#4A1E05"/>
<path d="M311.56 203.419C311.49 203.479 311.42 203.529 311.34 203.569C310.26 204.319 309.04 204.849 307.75 205.119C303.99 205.789 301.48 205.119 299.91 203.399C297.72 200.769 297.36 196.279 297.91 190.909C298.07 188.769 298.57 186.669 299.39 184.689V184.589C299.39 184.589 299.46 184.429 299.49 184.369C300.52 182.099 302.64 180.509 305.11 180.149C306.17 179.959 307.24 179.889 308.31 179.939C318.86 180.349 319.9 197.819 311.56 203.419Z" fill="#E4897B"/>
<path opacity="0.2" d="M311.34 203.57C310.25 204.27 309.03 204.75 307.75 204.97C304 205.65 301.5 204.89 299.92 203.11C302.11 203.77 304.46 203.69 306.61 202.89C308.21 202.38 309.95 202.63 311.34 203.57Z" fill="black"/>
<path d="M299.42 184.62C299.42 184.62 298.48 191.95 305.3 195.45C305.3 195.45 307.92 203.24 312.3 203.56C318.3 204 324.02 195.71 322.37 186.9C320.24 175.47 303.17 173.72 299.42 184.62Z" fill="#4A1E05"/>
<path d="M301.87 193.16C301.93 192.01 302.95 190.16 304.72 190.48C306.49 190.8 307.35 195.48 302.72 196.24C302.11 196.35 301.75 195.56 301.87 193.16Z" fill="#E4897B"/>
<path d="M312.62 177.42C312.62 177.42 305.68 175.3 301.62 177.93C296.93 181.01 295.04 184.34 300.15 189.93C300.15 189.93 312.15 186.69 316.01 187.69C318.28 188.26 320.49 189.03 322.63 189.97C323.88 182.18 316.61 176 312.62 177.42Z" fill="#4A1E05"/>
<path d="M306 204.4C306 204.4 311.16 206.92 309.65 212.45L322.8 207C322.8 207 315.63 206.55 315.99 201.51C316 201.49 308.49 198.61 306 204.4Z" fill="#E4897B"/>
<path d="M320.15 187C320.15 187 322.75 179.53 328.63 180.82C334.51 182.11 334.07 188.43 329.86 190.38C325.65 192.33 319.75 191.58 320.15 187Z" fill="#4A1E05"/>
<path d="M327.101 190.609C327.101 190.609 332.32 190.609 331.68 195.049C331.4 194.189 330.82 193.469 330.05 192.999C330.05 192.999 331.63 194.209 330.05 196.309C330.05 196.309 330.68 194.939 328.53 193.989C326.38 193.039 320.46 193.129 321.53 190.209C322.6 187.289 327.101 190.609 327.101 190.609Z" fill="#4A1E05"/>
<path d="M321.9 206.61L318.69 204.31C318.69 204.31 308.16 205.73 308.05 212.45C307.94 219.17 321.9 206.61 321.9 206.61Z" fill="#EA5B0B"/>
<path opacity="0.2" d="M315.89 253.53L325.89 258.53C323.65 255.03 320.49 252.22 316.76 250.39C316.28 252.11 315.89 253.53 315.89 253.53Z" fill="black"/>
<path d="M323.821 206.609C323.821 206.609 315.921 205.089 304.931 212.449C304.931 212.449 301.251 228.549 316.801 250.449L346.301 248.599C346.301 248.599 338.311 216.339 323.821 206.609Z" fill="#4A1E05"/>
<path opacity="0.1" d="M305.82 227.289C306.37 229.569 307.06 231.809 307.9 233.999C310.14 239.839 313.13 245.359 316.8 250.419L346.3 248.569C346.3 248.569 338.3 216.339 323.82 206.569C323.82 206.569 315.93 205.059 304.92 212.409C304.92 212.449 303.63 218.119 305.82 227.289Z" fill="white"/>
<path opacity="0.2" d="M305.82 227.289C306.37 229.569 307.06 231.809 307.9 233.999C308.24 231.099 308.74 228.209 309.39 225.359C308.63 225.449 306.41 226.999 305.82 227.289Z" fill="black"/>
<path d="M313.26 218.18C308.04 227.59 302.52 236.83 296.88 246C295.55 248.12 292.75 248.76 290.64 247.43C289.24 246.55 288.43 244.99 288.52 243.34C288.9 237.34 289.37 231.28 289.89 225.24C290.41 219.2 291.03 213.18 291.81 207.16C292 205.8 293.26 204.85 294.62 205.04C295.79 205.2 296.68 206.16 296.76 207.33C297.49 219.42 297.65 231.54 297.63 243.65L289.12 241.24C292.83 234.15 296.67 227.13 300.58 220.16C301.91 217.85 303.2 215.52 304.58 213.23C308.06 207.76 316.19 212.4 313.27 218.18H313.26Z" fill="#4A1E05"/>
<path opacity="0.1" d="M313.26 218.18C308.04 227.59 302.52 236.83 296.88 246C295.55 248.12 292.75 248.76 290.64 247.43C289.24 246.55 288.43 244.99 288.52 243.34C288.9 237.34 289.37 231.28 289.89 225.24C290.41 219.2 291.03 213.18 291.81 207.16C292 205.8 293.26 204.85 294.62 205.04C295.79 205.2 296.68 206.16 296.76 207.33C297.49 219.42 297.65 231.54 297.63 243.65L289.12 241.24C292.83 234.15 296.67 227.13 300.58 220.16C301.91 217.85 303.2 215.52 304.58 213.23C308.06 207.76 316.19 212.4 313.27 218.18H313.26Z" fill="white"/>
<path opacity="0.2" d="M297.6 225.14L295.07 229.69L297.36 219.45L297.6 225.14Z" fill="black"/>
<path d="M367.21 359.4L342 350.12L316.52 359.41C315.82 359.66 315.04 359.3 314.79 358.6C314.74 358.46 314.71 358.3 314.71 358.15C314.71 357.62 315.01 357.14 315.49 356.92L342 344.62L368.25 356.92C368.72 357.14 369.02 357.62 369.02 358.14C369.02 358.88 368.43 359.48 367.69 359.49C367.53 359.49 367.37 359.46 367.21 359.4Z" fill="#4A1E05"/>
<path opacity="0.3" d="M367.21 359.4L342 350.12L316.52 359.41C315.82 359.66 315.04 359.3 314.79 358.6C314.74 358.46 314.71 358.3 314.71 358.15C314.71 357.62 315.01 357.14 315.49 356.92L342 344.62L368.25 356.92C368.72 357.14 369.02 357.62 369.02 358.14C369.02 358.88 368.43 359.48 367.69 359.49C367.53 359.49 367.37 359.46 367.21 359.4Z" fill="white"/>
<path opacity="0.2" d="M336.061 352.29L342.001 350.12L347.671 352.21V347.28L342.001 344.62L336.061 347.38V352.29Z" fill="black"/>
<path d="M341.87 359.619C340.72 359.619 339.76 358.759 339.64 357.619L338.93 350.149V288.149H344.81V350.149L344.1 357.619C343.97 358.759 343.01 359.619 341.87 359.619Z" fill="#4A1E05"/>
<path opacity="0.3" d="M341.87 359.619C340.72 359.619 339.76 358.759 339.64 357.619L338.93 350.149V288.149H344.81V350.149L344.1 357.619C343.97 358.759 343.01 359.619 341.87 359.619Z" fill="white"/>
<path opacity="0.2" d="M344.81 288.109H338.93V295.329H344.81V288.109Z" fill="black"/>
<path d="M382.76 282.46C376.11 280.77 369.28 279.83 362.42 279.66C355.36 279.48 328.92 279.66 322.64 279.66C314.99 279.66 307.36 280.61 299.94 282.49C295.28 283.68 296.72 290.41 300.94 290.49H381.52C385.92 290.65 387.52 283.68 382.76 282.46Z" fill="#EA5B0B"/>
<path opacity="0.3" d="M382.76 282.46C376.11 280.77 369.28 279.83 362.42 279.66C355.36 279.48 328.92 279.66 322.64 279.66C314.99 279.66 307.36 280.61 299.94 282.49C295.28 283.68 296.72 290.41 300.94 290.49H381.52C385.92 290.65 387.52 283.68 382.76 282.46Z" fill="black"/>
<path d="M302.1 290.31C315.58 286.89 329.7 286.89 343.18 290.31C348.25 291.61 350.42 283.76 345.34 282.46C330.44 278.68 314.84 278.68 299.94 282.46C294.87 283.75 297.02 291.61 302.1 290.31Z" fill="#EA5B0B"/>
<g opacity="0.3">
<path d="M302.1 290.31C315.58 286.89 329.7 286.89 343.18 290.31C348.25 291.61 350.42 283.76 345.34 282.46C330.44 278.68 314.84 278.68 299.94 282.46C294.87 283.75 297.02 291.61 302.1 290.31Z" fill="white"/>
</g>
<path d="M361.38 224.21C360.45 224.19 359.58 224.69 359.14 225.51C348.38 243.54 344.51 264.85 348.26 285.51C348.36 286.6 349.25 287.46 350.35 287.51C351.98 287.62 381 287.51 382.05 287.51C383.66 287.56 385.01 286.29 385.06 284.68C385.06 284.45 385.05 284.22 385 284C381.62 264.77 385.28 244.96 395.33 228.22C396.05 226.91 395.57 225.27 394.27 224.55C393.85 224.32 393.37 224.2 392.89 224.22C392.05 224.2 363.23 224.25 361.38 224.21Z" fill="#EA5B0B"/>
<path opacity="0.2" d="M361.38 224.21C360.45 224.19 359.58 224.69 359.14 225.51C348.38 243.54 344.51 264.85 348.26 285.51C348.36 286.6 349.25 287.46 350.35 287.51C351.98 287.62 381 287.51 382.05 287.51C383.66 287.56 385.01 286.29 385.06 284.68C385.06 284.45 385.05 284.22 385 284C381.62 264.77 385.28 244.96 395.33 228.22C396.05 226.91 395.57 225.27 394.27 224.55C393.85 224.32 393.37 224.2 392.89 224.22C392.05 224.2 363.23 224.25 361.38 224.21Z" fill="black"/>
<path d="M353.49 284C350.11 264.77 353.77 244.96 363.82 228.22C365.63 225.22 360.94 222.48 359.14 225.48C348.38 243.51 344.51 264.82 348.26 285.48C348.88 288.92 354.11 287.48 353.49 284.04V284Z" fill="#EA5B0B"/>
<g opacity="0.2">
<path d="M353.49 284C350.11 264.77 353.77 244.96 363.82 228.22C365.63 225.22 360.94 222.48 359.14 225.48C348.38 243.51 344.51 264.82 348.26 285.48C348.88 288.92 354.11 287.48 353.49 284.04V284Z" fill="white"/>
</g>
<path d="M335.599 159.26C346.021 159.26 354.469 150.811 354.469 140.39C354.469 129.968 346.021 121.52 335.599 121.52C325.178 121.52 316.729 129.968 316.729 140.39C316.729 150.811 325.178 159.26 335.599 159.26Z" fill="#4A1E05"/>
<path d="M335.05 141.75L348.2 155.28C340.72 162.53 328.78 162.35 321.53 154.87C314.28 147.39 314.46 135.45 321.94 128.2C325.59 124.66 330.52 122.74 335.61 122.89L335.05 141.75Z" fill="#EA5B0B"/>
<path opacity="0.5" d="M335.05 141.75L348.2 155.28C344.14 159.23 338.51 161.14 332.88 160.49L335.05 141.75Z" fill="white"/>
<path opacity="0.4" d="M335.05 141.75L351.39 151.18C350.57 152.61 349.56 153.93 348.39 155.09C340.99 162.38 329.11 162.38 321.71 155.09C321.02 154.4 320.38 153.65 319.8 152.86L335.05 141.75Z" fill="white"/>
<path d="M328 148.84C324.1 144.93 324.11 138.6 328.03 134.7C331.94 130.8 338.27 130.81 342.17 134.73C346.06 138.63 346.06 144.94 342.17 148.84C338.27 152.75 331.94 152.77 328.03 148.87C328.03 148.87 328.01 148.85 328 148.84Z" fill="white"/>
<path d="M395 126.209H371C370.81 126.209 370.66 126.059 370.66 125.869C370.66 125.679 370.81 125.529 371 125.529H395C395.19 125.529 395.34 125.679 395.34 125.869C395.34 126.059 395.19 126.209 395 126.209Z" fill="#4A1E05"/>
<path d="M390.9 134.15H370.9C370.71 134.15 370.56 134 370.56 133.81C370.56 133.62 370.71 133.47 370.9 133.47H390.9C391.09 133.47 391.24 133.62 391.24 133.81C391.24 134 391.09 134.15 390.9 134.15Z" fill="#4A1E05"/>
<path d="M399.06 142.089H370.94C370.75 142.089 370.6 141.939 370.6 141.749C370.6 141.559 370.75 141.409 370.94 141.409H399.06C399.25 141.409 399.4 141.559 399.4 141.749C399.4 141.939 399.25 142.089 399.06 142.089Z" fill="#4A1E05"/>
<path d="M395 149.999H371C370.81 149.999 370.66 149.849 370.66 149.659C370.66 149.469 370.81 149.319 371 149.319H395C395.19 149.319 395.34 149.469 395.34 149.659C395.34 149.849 395.19 149.999 395 149.999Z" fill="#4A1E05"/>
<path d="M396.34 157.999H370.94C370.75 157.999 370.6 157.849 370.6 157.659C370.6 157.469 370.75 157.319 370.94 157.319H396.34C396.53 157.319 396.68 157.469 396.68 157.659C396.68 157.849 396.53 157.999 396.34 157.999Z" fill="#4A1E05"/>
<path d="M365.199 123.52H360.359V128.23H365.199V123.52Z" fill="#4A1E05"/>
<path d="M365.199 131.46H360.359V136.17H365.199V131.46Z" fill="#4A1E05"/>
<path d="M365.199 139.399H360.359V144.109H365.199V139.399Z" fill="#EA5B0B"/>
<path d="M365.199 147.34H360.359V152.05H365.199V147.34Z" fill="#EA5B0B"/>
<path d="M365.199 155.279H360.359V159.989H365.199V155.279Z" fill="#EA5B0B"/>
<path opacity="0.4" d="M365.199 131.46H360.359V136.17H365.199V131.46Z" fill="white"/>
<path opacity="0.4" d="M365.199 147.34H360.359V152.05H365.199V147.34Z" fill="white"/>
<path opacity="0.6" d="M365.199 155.279H360.359V159.989H365.199V155.279Z" fill="white"/>
<path d="M401.17 168.12H314.86C310.21 168.12 306.44 164.34 306.43 159.69V121.28C306.43 116.63 310.21 112.86 314.86 112.85H401.17C405.82 112.85 409.59 116.63 409.6 121.28V159.69C409.6 164.34 405.82 168.11 401.17 168.12ZM314.86 113.85C310.76 113.86 307.44 117.18 307.43 121.28V159.69C307.43 163.79 310.76 167.11 314.86 167.12H401.17C405.27 167.12 408.6 163.79 408.6 159.69V121.28C408.6 117.18 405.27 113.86 401.17 113.85H314.86Z" fill="#EA5B0B"/>
<path d="M226.38 135.47H223.66V185.25H226.38V135.47Z" fill="#EA5B0B"/>
<path opacity="0.2" d="M226.38 135.47H223.66V185.25H226.38V135.47Z" fill="black"/>
<path d="M230.9 146.52H228.18V185.25H230.9V146.52Z" fill="#4A1E05"/>
<path opacity="0.4" d="M230.9 146.52H228.18V185.25H230.9V146.52Z" fill="white"/>
<path d="M217.34 164.949H214.62V185.249H217.34V164.949Z" fill="#EA5B0B"/>
<path d="M221.86 157.58H219.14V185.25H221.86V157.58Z" fill="#EA5B0B"/>
<path d="M235.42 142.84H232.7V185.25H235.42V142.84Z" fill="#4A1E05"/>
<path opacity="0.4" d="M230.9 151.51H228.18V185.25H230.9V151.51Z" fill="white"/>
<path opacity="0.4" d="M235.42 149.439H232.7V185.249H235.42V149.439Z" fill="white"/>
<path d="M226.38 139.859H223.66V185.249H226.38V139.859Z" fill="#EA5B0B"/>
<path opacity="0.4" d="M221.86 167.399H219.14V185.249H221.86V167.399Z" fill="white"/>
<path opacity="0.2" d="M217.34 164.949H214.62V185.249H217.34V164.949Z" fill="white"/>
<path opacity="0.4" d="M217.34 169.569H214.62V185.249H217.34V169.569Z" fill="white"/>
<path d="M236.86 185.42H213.18C213.09 185.42 213.01 185.34 213.01 185.25C213.01 185.16 213.09 185.08 213.18 185.08H236.86C236.95 185.08 237.03 185.16 237.03 185.25C237.03 185.34 236.95 185.42 236.86 185.42Z" fill="#4A1E05"/>
<path d="M264.241 146.52H261.521V185.25H264.241V146.52Z" fill="#EA5B0B"/>
<path opacity="0.2" d="M264.241 146.52H261.521V185.25H264.241V146.52Z" fill="black"/>
<path d="M268.76 147.59H266.04V185.25H268.76V147.59Z" fill="#4A1E05"/>
<path opacity="0.4" d="M268.76 147.59H266.04V185.25H268.76V147.59Z" fill="white"/>
<path d="M255.2 154.01H252.48V185.25H255.2V154.01Z" fill="#EA5B0B"/>
<path d="M259.72 153.109H257V185.249H259.72V153.109Z" fill="#EA5B0B"/>
<path d="M273.281 157.109H270.561V185.249H273.281V157.109Z" fill="#4A1E05"/>
<path opacity="0.4" d="M268.76 152.439H266.04V185.249H268.76V152.439Z" fill="white"/>
<path opacity="0.4" d="M273.281 161.489H270.561V185.249H273.281V161.489Z" fill="white"/>
<path d="M264.241 149.939H261.521V185.249H264.241V149.939Z" fill="#EA5B0B"/>
<path opacity="0.4" d="M259.72 158.699H257V185.249H259.72V158.699Z" fill="white"/>
<path opacity="0.2" d="M255.2 154.01H252.48V185.25H255.2V154.01Z" fill="white"/>
<path opacity="0.4" d="M255.2 161.119H252.48V185.249H255.2V161.119Z" fill="white"/>
<path d="M274.72 185.42H251C250.91 185.42 250.83 185.34 250.83 185.25C250.83 185.16 250.91 185.08 251 185.08H274.68C274.77 185.08 274.85 185.16 274.85 185.25C274.85 185.34 274.77 185.42 274.68 185.42H274.72Z" fill="#4A1E05"/>
<path d="M278.31 196.13H210.26C205.61 196.13 201.84 192.35 201.83 187.7V135.28C201.83 130.63 205.61 126.86 210.26 126.85H278.31C282.96 126.85 286.73 130.63 286.74 135.28V187.7C286.74 192.35 282.96 196.12 278.31 196.13ZM210.26 127.85C206.16 127.86 202.84 131.18 202.83 135.28V187.7C202.83 191.8 206.16 195.12 210.26 195.13H278.31C282.41 195.13 285.73 191.8 285.74 187.7V135.28C285.73 131.18 282.41 127.86 278.31 127.85H210.26Z" fill="#EA5B0B"/>
<g opacity="0.2">
<path d="M348.26 93.0398H279.17V54.2998H279.73V92.4798H348.26V93.0398Z" fill="black"/>
</g>
<path opacity="0.2" d="M285.78 86.6104H282.79V92.2104H285.78V86.6104Z" fill="black"/>
<path d="M285.78 86.6104H282.79V88.2403H285.78V86.6104Z" fill="#EA5B0B"/>
<path opacity="0.2" d="M291.87 77.6602H288.88V92.2102H291.87V77.6602Z" fill="black"/>
<path d="M291.87 77.6602H288.88V81.9002H291.87V77.6602Z" fill="#EA5B0B"/>
<path opacity="0.2" d="M297.97 81.0098H294.98V92.1998H297.97V81.0098Z" fill="black"/>
<path d="M297.97 81.0098H294.98V84.2698H297.97V81.0098Z" fill="#EA5B0B"/>
<path opacity="0.2" d="M304.07 75.8701H301.08V92.2101H304.07V75.8701Z" fill="black"/>
<path d="M304.07 75.8701H301.08V80.6301H304.07V75.8701Z" fill="#EA5B0B"/>
<path opacity="0.2" d="M310.16 71.1201H307.17V92.2001H310.16V71.1201Z" fill="black"/>
<path d="M310.16 71.1201H307.17V77.2601H310.16V71.1201Z" fill="#EA5B0B"/>
<path opacity="0.2" d="M316.261 67.5303H313.271V92.2103H316.261V67.5303Z" fill="black"/>
<path d="M316.261 67.5303H313.271V74.7103H316.261V67.5303Z" fill="#EA5B0B"/>
<path opacity="0.2" d="M322.36 71.6797H319.37V92.1997H322.36V71.6797Z" fill="black"/>
<path d="M322.36 71.6797H319.37V77.6597H322.36V71.6797Z" fill="#EA5B0B"/>
<path opacity="0.2" d="M328.45 70.79H325.46V92.21H328.45V70.79Z" fill="black"/>
<path d="M328.45 70.79H325.46V77.03H328.45V70.79Z" fill="#EA5B0B"/>
<path opacity="0.2" d="M334.551 65.3203H331.561V92.2003H334.551V65.3203Z" fill="black"/>
<path d="M334.551 65.3203H331.561V73.1503H334.551V65.3203Z" fill="#EA5B0B"/>
<path opacity="0.2" d="M340.65 59.8105H337.66V92.2005H340.65V59.8105Z" fill="black"/>
<path d="M340.65 59.8105H337.66V69.2405H340.65V59.8105Z" fill="#EA5B0B"/>
<path opacity="0.2" d="M346.75 55H343.76V92.21H346.75V55Z" fill="black"/>
<path d="M346.75 55H343.76V65.83H346.75V55Z" fill="#EA5B0B"/>
<path opacity="0.2" d="M331.95 48.4502H294.98V49.9902H331.95V48.4502Z" fill="black"/>
<path d="M350.29 102.93H276.64C271.98 102.93 268.21 99.1601 268.2 94.5001V43.0501C268.21 38.3901 271.98 34.6301 276.64 34.6201H350.29C354.94 34.6201 358.71 38.4001 358.72 43.0501V94.5001C358.72 99.1501 354.94 102.92 350.29 102.93ZM276.64 35.6201C272.53 35.6201 269.21 38.9401 269.2 43.0501V94.5001C269.2 98.6101 272.53 101.93 276.64 101.93H350.29C354.39 101.93 357.72 98.6001 357.72 94.5001V43.0501C357.72 38.9501 354.39 35.6201 350.29 35.6201H276.64Z" fill="#EA5B0B"/>
<path d="M147.13 103.7C147.13 103.7 160.13 82.5797 164.19 82.2097C168.25 81.8397 173 94.1197 176.38 92.9997C179.76 91.8797 199.47 56.9097 203.98 57.8497C208.49 58.7897 215.62 77.6097 217.31 77.2997C219 76.9897 221.25 73.5297 226.13 83.1497C229.46 89.8397 232.42 96.6997 235 103.7H147.13Z" fill="#EA5B0B"/>
<path opacity="0.4" d="M147.13 103.7C147.13 103.7 160.13 82.5797 164.19 82.2097C168.25 81.8397 173 94.1197 176.38 92.9997C179.76 91.8797 199.47 56.9097 203.98 57.8497C208.49 58.7897 215.62 77.6097 217.31 77.2997C219 76.9897 221.25 73.5297 226.13 83.1497C229.46 89.8397 232.42 96.6997 235 103.7H147.13Z" fill="white"/>
<path d="M226.13 103.7C226.13 103.7 209.62 67.4604 204.36 65.8204C199.1 64.1804 191.96 80.2404 188.36 83.1004C184.76 85.9604 179.02 72.6304 176.67 72.4404C174.32 72.2504 163.61 93.2904 160 93.1004C156.39 92.9104 155.87 90.1804 152.11 88.6304C148.35 87.0804 138.78 103.7 138.78 103.7H226.13Z" fill="#EA5B0B"/>
<path d="M229.14 103.7C229.14 103.7 221.05 90.0904 217.86 86.9004C214.67 83.7104 210.16 94.9004 206.96 95.3004C203.76 95.7004 191.96 73.0104 188.56 71.3004C185.16 69.5904 178.24 89.7004 174.95 90.0704C171.66 90.4404 164.95 77.9104 161.34 77.2304C157.73 76.5504 141.43 103.68 141.43 103.68L229.14 103.7Z" fill="#4A1E05"/>
<path opacity="0.4" d="M229.14 103.7C229.14 103.7 221.05 90.0904 217.86 86.9004C214.67 83.7104 210.16 94.9004 206.96 95.3004C203.76 95.7004 191.96 73.0104 188.56 71.3004C185.16 69.5904 178.24 89.7004 174.95 90.0704C171.66 90.4404 164.95 77.9104 161.34 77.2304C157.73 76.5504 141.43 103.68 141.43 103.68L229.14 103.7Z" fill="white"/>
<path d="M236.091 103.37H136.561V104.03H236.091V103.37Z" fill="#4A1E05"/>
<path d="M226.88 103.7C226.88 103.7 222.88 93.7003 219.54 93.8803C216.2 94.0603 214.85 101.36 211.66 100.98C208.47 100.6 204.71 88.9803 199.92 89.5303C195.13 90.0803 194.19 97.0403 191.19 98.3603C188.19 99.6803 182.3 90.7303 178.51 89.5103C174.72 88.2903 170.16 100.23 166 101C161.84 101.77 160.18 96.1003 157.74 96.5803C155.3 97.0603 148.4 103.72 148.4 103.72L226.88 103.7Z" fill="#4A1E05"/>
<path d="M236 114.35H136.55C131.9 114.35 128.13 110.57 128.12 105.92V55.5501C128.12 50.9001 131.9 47.1301 136.55 47.1201H236C240.65 47.1201 244.42 50.9001 244.43 55.5501V105.92C244.43 110.57 240.65 114.34 236 114.35ZM136.56 48.1201C132.46 48.1201 129.13 51.4501 129.13 55.5501V105.92C129.13 110.02 132.46 113.35 136.56 113.35H236C240.1 113.35 243.43 110.02 243.43 105.92V55.5501C243.43 51.4501 240.1 48.1201 236 48.1201H136.56Z" fill="#EA5B0B"/>
</g>
<defs>
<clipPath id="clip0_2270_6325">
<rect width="500" height="360.17" fill="white"/>
</clipPath>
</defs>
</svg>
