<svg width="418" height="325" viewBox="0 0 418 325" fill="none" xmlns="http://www.w3.org/2000/svg">
<g clip-path="url(#clip0_2270_6171)">
<path d="M418 287.311H0V287.519H418V287.311Z" fill="#EBEBEB"/>
<path d="M302.632 293.938H274.943V294.146H302.632V293.938Z" fill="#EBEBEB"/>
<path d="M368.609 294.046H334.216V294.255H368.609V294.046Z" fill="#EBEBEB"/>
<path d="M314.294 299.495H298.251V299.704H314.294V299.495Z" fill="#EBEBEB"/>
<path d="M188.66 297.918H145.464V298.127H188.66V297.918Z" fill="#EBEBEB"/>
<path d="M138.023 297.918H109.273V298.127H138.023V297.918Z" fill="#EBEBEB"/>
<path d="M92.0684 294.396H52.9102V294.605H92.0684V294.396Z" fill="#EBEBEB"/>
<path d="M198.132 250.089H36.7086C34.0752 250.089 31.9434 247.952 31.9434 245.324V18.795C31.9684 16.1828 34.0919 14.0796 36.7086 14.0713H198.132C200.765 14.0713 202.905 16.2078 202.905 18.8367V245.324C202.905 247.952 200.765 250.089 198.132 250.089ZM36.7086 14.2382C34.1922 14.2382 32.1524 16.2829 32.1524 18.795V245.324C32.1524 247.836 34.1922 249.872 36.7086 249.88H198.132C200.648 249.88 202.688 247.836 202.696 245.324V18.795C202.696 16.2829 200.648 14.2465 198.132 14.2382H36.7086Z" fill="#EBEBEB"/>
<path d="M378.967 250.089H217.535C214.902 250.089 212.77 247.952 212.762 245.324V18.795C212.787 16.1828 214.919 14.0796 217.535 14.0713H378.967C381.584 14.0796 383.699 16.1828 383.724 18.795V245.324C383.724 247.952 381.6 250.081 378.967 250.089ZM217.535 14.2382C215.019 14.2382 212.979 16.2829 212.971 18.795V245.324C212.971 247.836 215.019 249.872 217.535 249.88H378.967C381.483 249.88 383.523 247.836 383.531 245.324V18.795C383.531 16.2829 381.483 14.2465 378.967 14.2382H217.535Z" fill="#EBEBEB"/>
<path d="M145.523 0H29.0762V226.787H145.523V0Z" fill="#F5F5F5"/>
<path d="M85.2723 226.796H54.9004V91.2941L85.2723 81.3877V226.796Z" fill="#EBEBEB"/>
<path d="M110.628 226.796H80.2559V123.751L110.628 113.845V226.796Z" fill="#E6E6E6"/>
<path d="M107 120.871H99.752V96.2847L107 93.9229V120.871Z" fill="#E6E6E6"/>
<path d="M266.977 0H150.53V226.787H266.977V0Z" fill="#F5F5F5"/>
<path d="M184.714 146.242H150.53V226.795H184.714V146.242Z" fill="#E6E6E6"/>
<path d="M388.933 0H272.486V226.787H388.933V0Z" fill="#F5F5F5"/>
<path d="M363.568 226.796H338.855V63.7448L363.568 53.8301V226.796Z" fill="#EBEBEB"/>
<path d="M388.924 226.796H358.552V123.751L388.924 113.845V226.796Z" fill="#E6E6E6"/>
<path d="M280.06 226.788H340.803V146.677L280.06 138.974V226.788Z" fill="#E6E6E6"/>
<path d="M385.304 120.871H381.676V96.2847L385.304 93.9229V120.871Z" fill="#E6E6E6"/>
<path d="M373.45 126.789H369.83V102.202L373.45 99.832V126.789Z" fill="#E6E6E6"/>
<path d="M47.2845 159.471H61.1203V226.796H38.2725V168.467C38.2725 163.502 42.3103 159.471 47.2845 159.471Z" fill="#EBEBEB"/>
<path d="M145.522 161.832H115.167V226.795H145.522V161.832Z" fill="#EBEBEB"/>
<path d="M215.069 171.897L184.714 161.832V226.795H215.069V171.897Z" fill="#EBEBEB"/>
<path d="M226.564 171.897L196.209 161.832V226.795H226.564V171.897Z" fill="#E6E6E6"/>
<path d="M226.564 161.582L256.92 151.517V226.795H226.564V161.582Z" fill="#F0F0F0"/>
<path opacity="0.5" d="M92.6704 226.787H61.3789L125.876 0H157.168L92.6704 226.787Z" fill="white"/>
<path opacity="0.5" d="M186.47 226.787H155.179L219.668 0H250.968L186.47 226.787Z" fill="white"/>
<path opacity="0.5" d="M225.636 226.787H194.345L258.842 0H290.134L225.636 226.787Z" fill="white"/>
<path opacity="0.5" d="M300.96 226.787H285.318L349.816 0H365.457L300.96 226.787Z" fill="white"/>
<path d="M92.6621 246.083C101.691 197.744 125.483 175.06 145.731 163.51C126.336 181.82 113.144 245.173 92.6621 246.083Z" fill="#FAFAFA"/>
<path d="M72.8744 242.277C66.1864 205.84 50.1101 191.585 36.5 185.526C49.6336 196.993 59.2476 244.572 72.8744 242.277Z" fill="#FAFAFA"/>
<path d="M84.5612 251.924C81.9863 199.513 61.9892 176.504 44.0068 165.454C60.3256 184.032 64.9904 252.634 84.5612 251.924Z" fill="#FAFAFA"/>
<path d="M84.5615 247.426C88.7415 194.765 111.046 170.12 130.876 157.609C112.668 177.506 105.796 246.542 84.5615 247.426Z" fill="#FAFAFA"/>
<path d="M87.8555 255.663C94.5435 201.566 79.7547 168.968 64.7568 149.372C76.9123 175.761 69.3214 247.184 87.8555 255.663Z" fill="#FAFAFA"/>
<path d="M108.68 239.206C125.559 207.692 146.734 200.181 163.02 199.413C145.79 205.389 122.708 246.233 108.68 239.206Z" fill="#FAFAFA"/>
<path d="M105.177 240.399C115.819 204.688 135.967 189.49 152.519 182.463C136.109 194.698 121.119 241.401 105.177 240.399Z" fill="#FAFAFA"/>
<path d="M86.5012 255.839C104.693 199.831 96.4747 165.296 85.3224 144.265C92.1191 172.248 69.3883 246.25 86.5012 255.839Z" fill="#FAFAFA"/>
<path d="M55.6357 235.7V270.936C55.6357 279.941 71.9127 287.31 91.8178 287.31C111.715 287.31 128 279.941 128 270.936V235.7H55.6357Z" fill="#F5F5F5"/>
<path d="M334.4 258.985C332.402 225.744 318.064 210.146 305.198 202.234C316.936 214.795 320.48 258.376 334.4 258.985Z" fill="#E0E0E0"/>
<path d="M348.312 256.39C356.019 231.353 368.292 221.522 378.14 217.349C368.15 225.219 357.449 257.959 348.312 256.39Z" fill="#E0E0E0"/>
<path d="M339.475 263.024C345.77 226.987 361.453 211.164 374.729 203.569C361.988 216.33 352.792 263.5 339.475 263.024Z" fill="#E0E0E0"/>
<path d="M339.867 259.928C341.539 223.708 328.414 206.766 315.916 198.17C326.667 211.865 325.396 259.319 339.867 259.928Z" fill="#E0E0E0"/>
<path d="M336.908 265.586C337 228.389 349.958 205.973 361.93 192.494C351.329 210.646 350.326 259.753 336.908 265.586Z" fill="#E0E0E0"/>
<path d="M324.075 254.27C315.222 232.571 301.37 227.43 290.284 226.904C301.562 231.01 313.843 259.102 324.075 254.27Z" fill="#E0E0E0"/>
<path d="M326.349 255.096C322.169 230.535 309.671 220.111 298.945 215.254C309.119 223.666 315.348 255.781 326.349 255.096Z" fill="#E0E0E0"/>
<path d="M337.811 265.712C330.195 227.197 338.814 203.453 348.269 188.998C341.197 208.227 350.334 259.111 337.811 265.712Z" fill="#E0E0E0"/>
<path d="M358.861 251.925V276.127C358.861 282.312 347.684 287.369 334.024 287.369C320.363 287.369 309.194 282.312 309.194 276.127V251.925H358.861Z" fill="#F5F5F5"/>
<path d="M209 325C298.521 325 371.092 320.771 371.092 315.553C371.092 310.335 298.521 306.105 209 306.105C119.479 306.105 46.9082 310.335 46.9082 315.553C46.9082 320.771 119.479 325 209 325Z" fill="#F5F5F5"/>
<path d="M223.213 75.7374V86.6787C223.213 88.2894 221.909 89.583 220.295 89.5914H193.401C191.788 89.5914 190.492 88.2894 190.483 86.6787V47.0114C190.5 45.409 191.796 44.1237 193.401 44.1154H220.253C221.867 44.0987 223.196 45.3923 223.213 47.003V64.3204" fill="white"/>
<path d="M220.253 90.0668H193.401C191.553 90.0668 190.057 88.573 190.057 86.7285V47.0111C190.057 45.1667 191.553 43.6729 193.401 43.6729H220.253C222.101 43.6729 223.597 45.1667 223.597 47.0111V64.3202H222.711V47.0111C222.711 45.6258 221.591 44.5074 220.203 44.5074H193.401C192.013 44.5074 190.893 45.6258 190.893 47.0111V86.6785C190.893 88.0639 192.013 89.1822 193.401 89.1822H220.253C221.641 89.1822 222.761 88.0639 222.761 86.6785V75.7372H223.647V86.6785C223.672 88.5229 222.201 90.0418 220.353 90.0668C220.32 90.0668 220.286 90.0668 220.253 90.0668Z" fill="#EA5B0B"/>
<path d="M204.82 84.1749C205.372 83.8327 205.94 83.5239 206.534 83.2485C206.81 83.1233 207.086 83.0148 207.37 82.923C207.687 82.7978 208.013 82.7227 208.356 82.6977L208.013 82.5057C207.955 82.4139 207.922 82.6476 207.905 82.706L207.788 82.9981C207.687 83.2068 207.621 83.4238 207.579 83.6491C207.504 83.9245 207.671 84.2083 207.947 84.2834C208.005 84.3001 208.064 84.3084 208.122 84.3001C209 84.1415 209.836 83.816 210.588 83.3403H210.279C210.371 83.3403 210.48 83.4655 210.572 83.4989C210.705 83.549 210.856 83.574 210.998 83.5823C211.324 83.5823 211.65 83.5323 211.976 83.5823C212.486 83.6324 212.478 82.8396 211.976 82.7978C211.633 82.7978 211.274 82.873 210.939 82.7978C210.605 82.7227 210.505 82.4891 210.154 82.6476C209.803 82.8062 209.518 83.0148 209.176 83.1567C209.017 83.2235 208.858 83.2819 208.691 83.332L208.373 83.4238C208.281 83.4238 208.114 83.4238 208.248 83.5573L208.365 83.8327C208.365 83.2986 208.933 82.7979 208.783 82.247C208.632 81.6962 207.947 81.9382 207.537 82.0384C206.425 82.3555 205.372 82.8396 204.402 83.4738C204.21 83.5823 204.151 83.8244 204.251 84.0163C204.352 84.2083 204.603 84.2667 204.795 84.1665L204.82 84.1832V84.1749Z" fill="#E0E0E0"/>
<path d="M220.052 50.0322H193.593V50.9085H220.052V50.0322Z" fill="#E0E0E0"/>
<path d="M217.059 56.25H193.593V57.1263H217.059V56.25Z" fill="#E0E0E0"/>
<path d="M220.052 62.4756H193.593V63.3519H220.052V62.4756Z" fill="#E0E0E0"/>
<path d="M200.866 68.7021H193.593V69.5785H200.866V68.7021Z" fill="#E0E0E0"/>
<path d="M213.59 68.7021H203.918V69.5785H213.59V68.7021Z" fill="#E0E0E0"/>
<path d="M220.052 74.9189H193.593V75.7953H220.052V74.9189Z" fill="#E0E0E0"/>
<path d="M197.229 86.0361C194.972 86.0361 193.149 84.2167 193.149 81.9633C193.149 79.71 194.972 77.8906 197.229 77.8906C199.486 77.8906 201.309 79.71 201.309 81.9633C201.309 84.2167 199.486 86.0361 197.229 86.0361ZM197.229 78.7753C195.457 78.7753 194.027 80.2024 194.027 81.9717C194.027 83.741 195.457 85.1681 197.229 85.1681C199.001 85.1681 200.431 83.741 200.431 81.9717C200.431 80.2107 198.993 78.7836 197.229 78.7836V78.7753Z" fill="#EA5B0B"/>
<path d="M199.638 81.9636C199.638 83.2906 198.568 84.3672 197.238 84.3755C195.909 84.3755 194.831 83.3073 194.822 81.9803C194.822 80.6533 195.892 79.5767 197.222 79.5684C198.551 79.5684 199.621 80.6366 199.629 81.9636H199.638Z" fill="#EA5B0B"/>
<path d="M213.247 81.245C213.389 80.1016 213.799 79.0083 214.434 78.0486C215.036 77.1389 215.763 76.3794 216.432 75.4864C217.778 73.8173 219.174 72.1481 220.612 70.479C223.438 67.1991 226.305 63.9526 229.432 60.9064C229.624 60.7479 229.909 60.7645 230.067 60.9565C230.184 61.0984 230.209 61.2987 230.126 61.4572C227.869 65.1878 225.352 68.718 222.794 72.2149C221.507 73.9508 220.203 75.6784 218.865 77.3809C218.188 78.2155 217.569 79.1168 216.817 79.8847C216.031 80.7276 215.053 81.3702 213.974 81.7708C213.699 81.8626 213.406 81.7207 213.306 81.4536C213.272 81.3869 213.255 81.3201 213.247 81.245Z" fill="#EA5B0B"/>
<path d="M215.413 110.79L209.919 115.573L210.496 116.234L215.99 111.451L215.413 110.79Z" fill="#EA5B0B"/>
<path d="M208.874 103.389L206.551 113.74L207.407 113.932L209.731 103.581L208.874 103.389Z" fill="#EA5B0B"/>
<path d="M200.688 111.327L200.047 111.926L203.104 115.185L203.745 114.586L200.688 111.327Z" fill="#EA5B0B"/>
<path d="M265.062 308.918H257.948L257.078 292.477H264.184L265.062 308.918Z" fill="#7F3E3B"/>
<path d="M300.926 308.918H293.811L291.027 292.477H298.133L300.926 308.918Z" fill="#7F3E3B"/>
<path d="M293.352 308.092H301.336C301.62 308.092 301.871 308.292 301.921 308.576L303.025 314.885C303.108 315.494 302.69 316.054 302.08 316.145C302.03 316.145 301.971 316.154 301.921 316.154C299.137 316.104 297.791 315.937 294.272 315.937C292.115 315.937 286.288 316.162 283.303 316.162C280.319 316.162 280.068 313.216 281.297 312.949C286.84 311.756 290.342 310.103 292.165 308.534C292.491 308.25 292.917 308.092 293.352 308.092Z" fill="#4A1E05"/>
<path d="M257.771 308.092H265.529C265.814 308.092 266.064 308.292 266.115 308.576L267.218 314.885C267.318 315.478 266.909 316.045 266.315 316.137C266.257 316.145 266.198 316.154 266.131 316.154C263.339 316.104 259.293 315.937 255.773 315.937C251.66 315.937 250.615 316.162 245.783 316.162C242.865 316.162 242.197 313.216 243.434 312.949C249.052 311.739 251.083 311.605 256.024 308.651C256.542 308.309 257.153 308.117 257.771 308.092Z" fill="#4A1E05"/>
<path d="M257.546 87.8557L247.831 85.0098C247.831 85.0098 237.933 108.486 234.581 110.047C230.025 112.133 217.861 118.535 212.711 121.556C212.36 122.716 212.352 125.896 212.912 126.814C221.347 126.146 238.652 120.429 241.979 117.241C249.57 109.964 257.546 87.8557 257.546 87.8557Z" fill="#7F3E3B"/>
<path d="M260.488 83.4239C263.247 89.5664 244.303 116.506 244.303 116.506L235.107 106.976C235.107 106.976 243.242 86.5869 247.647 78.767C252.145 70.73 257.487 76.6638 260.488 83.4239Z" fill="#EA5B0B"/>
<path opacity="0.4" d="M260.488 83.4239C263.247 89.5664 244.303 116.506 244.303 116.506L235.107 106.976C235.107 106.976 243.242 86.5869 247.647 78.767C252.145 70.73 257.487 76.6638 260.488 83.4239Z" fill="white"/>
<path d="M234.439 106.133C233.863 106.476 232.625 108.721 232.349 109.839C232.073 110.957 238.544 119.587 241.061 119.236C243.577 118.886 246.453 116.44 246.971 115.122C247.489 113.803 235.652 105.424 234.439 106.133Z" fill="#EA5B0B"/>
<path d="M213.79 121.022L207.938 119.954L208.289 128.3C208.289 128.3 210.345 129.134 214.776 126.397L213.79 121.022Z" fill="#7F3E3B"/>
<path d="M200.865 122.733L201.935 127.865L208.247 128.333L207.896 119.962L200.865 122.733Z" fill="#7F3E3B"/>
<path opacity="0.2" d="M257.078 292.485L257.53 300.956H264.636L264.192 292.485H257.078Z" fill="black"/>
<path opacity="0.2" d="M298.142 292.485H291.027L292.465 300.956H299.58L298.142 292.485Z" fill="black"/>
<path d="M251.452 75.0455C251.452 75.0455 241.963 99.4317 248.033 139.349H286.062C286.597 133.507 284.39 102.136 291.304 74.6783C287.124 73.8687 282.894 73.3263 278.647 73.0675C273.263 72.7587 267.863 72.7587 262.479 73.0675C258.759 73.4431 255.072 74.1107 251.452 75.0455Z" fill="#EA5B0B"/>
<path opacity="0.2" d="M251.452 75.0455C251.452 75.0455 241.963 99.4317 248.033 139.349H286.062C286.597 133.507 284.39 102.136 291.304 74.6783C287.124 73.8687 282.894 73.3263 278.647 73.0675C273.263 72.7587 267.863 72.7587 262.479 73.0675C258.759 73.4431 255.072 74.1107 251.452 75.0455Z" fill="black"/>
<path opacity="0.2" d="M282.718 81.4545C281.882 85.9779 282.776 96.7856 286.496 109.279C286.948 98.5549 288.344 87.8891 290.676 77.4068V77.3567C288.152 77.098 283.529 77.2149 282.718 81.4545Z" fill="black"/>
<path d="M277.259 57.9785C275.988 63.1696 275.177 69.6041 278.646 73.0676C278.646 73.0676 276.306 78.3421 266.641 78.3421C257.805 78.3421 262.461 73.0676 262.461 73.0676C268.313 71.6906 268.372 64.5299 267.553 60.4906L277.259 57.9785Z" fill="#7F3E3B"/>
<path d="M266.684 78.3333C272.377 80.111 273.505 81.9303 273.505 81.9303C273.505 81.9303 280.603 79.0511 280.335 72.8084C279.474 72.1742 278.546 71.6317 277.56 71.2061C277.56 71.2061 276.958 75.8296 266.684 78.3333Z" fill="#EA5B0B"/>
<path d="M266.683 78.333C263.49 78.6334 260.831 81.3625 260.831 81.3625C260.831 81.3625 258.8 79.2343 260.748 73.0585C260.748 73.0585 262.646 72.4159 264.217 72.082C264.175 72.082 262.896 76.9977 266.683 78.333Z" fill="#EA5B0B"/>
<path opacity="0.2" d="M267.57 60.4989C268.054 62.8608 268.238 66.3409 267.118 69.0199C268.029 68.8697 268.916 68.586 269.752 68.1854C273.096 66.6497 274.818 64.2211 276.674 60.6742C276.841 59.7478 277.041 58.8465 277.259 57.9785L267.57 60.4989Z" fill="black"/>
<path d="M266.441 41.3871C264.167 42.1299 259.084 46.4864 263.933 48.6813C268.782 50.8763 270.403 40.1019 266.441 41.3871Z" fill="#4A1E05"/>
<path d="M281.781 51.627C279.566 58.4372 278.613 62.4765 274.257 65.3141C267.712 69.4869 260.146 64.4795 260.321 57.2854C260.472 50.7674 264.067 40.7275 271.432 39.4339C278.797 38.1403 283.997 44.8419 281.781 51.627Z" fill="#7F3E3B"/>
<path d="M271.097 44.1743C267.335 44.8086 264.2 44.6083 263.063 41.487C261.926 38.3657 267.101 35.0942 270.671 36.563C273.304 33.8256 280.494 35.9287 281.422 38.5577C285.602 38.2906 289.556 43.0977 286.722 45.5597C289.054 47.0035 289.765 50.0581 288.319 52.3866C288.101 52.7287 287.851 53.0459 287.558 53.3296C288.779 56.9517 284.381 60.5654 280.912 59.0965C277.493 58.0783 275.628 58.9129 275.152 56.7096C274.675 54.5064 275.879 52.3782 278.788 51.9526C277.317 50.2 276.958 47.4292 277.952 46.2357C274.433 47.8298 271.549 45.8268 271.097 44.1743Z" fill="#4A1E05"/>
<path d="M266.583 58.8543C267.929 58.9628 269.258 58.5371 270.286 57.6692C270.353 57.6024 270.353 57.4939 270.286 57.4271C270.228 57.3604 270.128 57.3604 270.061 57.4188C270.061 57.4188 270.061 57.4188 270.052 57.4271C268.924 58.3619 267.427 58.7291 265.989 58.4286C265.897 58.4119 265.805 58.4704 265.789 58.5622C265.764 58.6456 265.814 58.7291 265.889 58.7458C265.889 58.7458 265.906 58.7458 265.914 58.7458C266.132 58.7875 266.357 58.8209 266.583 58.8459V58.8543Z" fill="#4A1E05"/>
<path d="M282.175 61.0327C280.753 62.1427 278.956 62.6601 277.159 62.4765C274.826 62.2178 274.651 59.9227 276.114 58.1868C277.435 56.6178 280.243 54.8485 282.191 56.0002C284.139 57.1519 283.922 59.6473 282.175 61.0327Z" fill="#7F3E3B"/>
<path d="M273.029 139.349C273.029 139.349 272.059 148.279 270.822 160.372C269.4 174.084 267.637 191.885 266.516 205.439V205.622C266.299 208.201 266.107 210.63 265.948 212.816C264.359 234.941 267.202 299.303 267.202 299.303H255.147C255.147 299.303 244.045 233.622 244.32 211.105C244.58 189.465 248.024 139.332 248.024 139.332L273.029 139.349Z" fill="#EA5B0B"/>
<path d="M268.188 294.605C268.247 294.605 267.979 299.563 267.979 299.563H254.093L253.742 294.121L268.188 294.605Z" fill="#4A1E05"/>
<path opacity="0.2" d="M270.864 160.372C269.442 174.084 267.678 191.885 266.558 205.439V205.623C263.908 192.762 263.08 176.771 264.109 150.44L270.864 160.372Z" fill="black"/>
<path d="M261.517 139.35C261.517 139.35 267.068 190.643 270.52 210.964C274.307 233.223 289.255 299.313 289.255 299.313H302.28C302.28 299.313 293.502 235.05 291.78 212.984C289.924 189.065 286.087 139.35 286.087 139.35H261.517Z" fill="#EA5B0B"/>
<path d="M302.439 294.906C302.498 294.906 302.891 299.563 302.891 299.563H288.578L287.533 294.363L302.439 294.906Z" fill="#4A1E05"/>
<path d="M269.969 51.3262C269.819 51.8854 269.409 52.2776 269.05 52.1608C268.69 52.044 268.515 51.5599 268.657 51.0007C268.799 50.4416 269.217 50.0493 269.576 50.1662C269.936 50.283 270.111 50.7921 269.969 51.3262Z" fill="#4A1E05"/>
<path d="M263.715 49.9584C263.565 50.5175 263.155 50.9098 262.796 50.793C262.436 50.6761 262.261 50.2004 262.403 49.6329C262.545 49.0654 262.963 48.6815 263.322 48.7983C263.682 48.9152 263.857 49.3992 263.715 49.9584Z" fill="#4A1E05"/>
<path d="M266.633 50.6758C265.53 52.2448 264.217 53.6719 262.746 54.9071C263.482 56.0421 265.254 55.9837 265.254 55.9837L266.633 50.6758Z" fill="#630F0F"/>
<path d="M273.371 49.6905C273.271 49.6655 273.187 49.5903 273.146 49.4985C272.845 48.714 272.176 48.1298 271.357 47.9462C271.181 47.9212 271.064 47.7626 271.081 47.5874C271.081 47.579 271.081 47.5707 271.081 47.5623C271.114 47.3787 271.29 47.2535 271.474 47.2786C272.519 47.4956 273.38 48.2216 273.764 49.2148C273.831 49.39 273.748 49.582 273.58 49.6655C273.513 49.6988 273.438 49.7072 273.363 49.6905H273.371Z" fill="#4A1E05"/>
<path d="M262.503 47.1033C262.461 47.0866 262.419 47.0616 262.378 47.0282C262.244 46.8947 262.244 46.686 262.378 46.5525C263.097 45.7263 264.167 45.284 265.262 45.3841C265.437 45.4091 265.554 45.5677 265.538 45.743C265.538 45.7513 265.538 45.7597 265.538 45.768C265.496 45.9516 265.329 46.0768 265.145 46.0518C264.275 45.985 263.431 46.3439 262.863 47.0032C262.771 47.095 262.637 47.1367 262.511 47.1033H262.503Z" fill="#4A1E05"/>
<path d="M295.517 84.3672L286.538 89.7919C286.538 89.7919 296.57 111.491 296.512 115.138C296.344 121.948 299.279 136.712 298.485 144.49C299.588 144.882 302.665 144.974 303.634 144.432C305.415 137.396 307.881 118.91 307.171 114.278C305.616 104.205 295.517 84.3672 295.517 84.3672Z" fill="#7F3E3B"/>
<path d="M291.304 74.6779C297.992 75.6543 307.522 109.538 307.522 109.538L295.149 114.22C295.149 114.22 284.373 95.8594 281.731 87.6055C278.889 78.9926 284.139 73.6263 291.304 74.6779Z" fill="#EA5B0B"/>
<path opacity="0.4" d="M291.304 74.6779C297.992 75.6543 307.522 109.538 307.522 109.538L295.149 114.22C295.149 114.22 284.373 95.8594 281.731 87.6055C278.889 78.9926 284.139 73.6263 291.304 74.6779Z" fill="white"/>
<path d="M290.928 309.335C290.451 309.377 289.975 309.244 289.582 308.968C289.331 308.751 289.214 308.409 289.273 308.084C289.281 307.883 289.398 307.7 289.582 307.608C290.418 307.207 292.617 308.609 292.867 308.776C292.926 308.81 292.951 308.876 292.934 308.943C292.918 309.01 292.867 309.06 292.801 309.077C292.19 309.235 291.563 309.319 290.928 309.335ZM289.95 307.841C289.875 307.841 289.799 307.85 289.732 307.883C289.657 307.917 289.615 307.992 289.615 308.075C289.574 308.301 289.649 308.534 289.816 308.693C290.184 309.018 291.112 309.06 292.324 308.818C291.605 308.334 290.803 308 289.95 307.841Z" fill="#EA5B0B"/>
<path d="M292.766 309.085C292.766 309.085 292.716 309.085 292.691 309.085C291.972 308.693 290.626 307.132 290.818 306.339C290.885 306.089 291.111 305.905 291.37 305.905C291.629 305.872 291.88 305.947 292.081 306.114C292.875 306.79 292.917 308.843 292.917 308.926C292.917 308.993 292.883 309.052 292.833 309.085C292.808 309.085 292.791 309.085 292.766 309.085ZM291.47 306.172H291.395C291.178 306.172 291.153 306.297 291.144 306.339C291.027 306.807 291.88 308.008 292.582 308.534C292.582 307.733 292.323 306.957 291.855 306.314C291.746 306.222 291.613 306.172 291.47 306.172Z" fill="#EA5B0B"/>
<path d="M254.753 309.335C254.151 309.394 253.541 309.235 253.04 308.901C252.814 308.684 252.713 308.375 252.764 308.067C252.78 307.875 252.897 307.708 253.065 307.616C253.951 307.132 256.743 308.584 257.061 308.751C257.119 308.784 257.153 308.859 257.136 308.926C257.119 309.001 257.069 309.051 256.994 309.068C256.258 309.227 255.506 309.31 254.753 309.335ZM253.533 307.841C253.424 307.841 253.315 307.858 253.215 307.9C253.148 307.941 253.106 308.008 253.098 308.083C253.065 308.284 253.131 308.484 253.282 308.626C253.7 309.01 254.862 309.076 256.45 308.818C255.539 308.325 254.553 307.991 253.533 307.841Z" fill="#EA5B0B"/>
<path d="M256.969 309.085H256.894C256.058 308.701 254.386 307.166 254.595 306.364C254.595 306.172 254.787 305.939 255.247 305.897C255.582 305.855 255.916 305.955 256.167 306.181C257.003 306.923 257.136 308.835 257.145 308.918C257.145 308.977 257.111 309.035 257.061 309.068C257.036 309.085 257.003 309.093 256.969 309.085ZM255.364 306.172H255.264C254.963 306.172 254.938 306.323 254.929 306.356C254.829 306.84 255.924 308.025 256.777 308.568C256.735 307.766 256.443 307.007 255.941 306.381C255.782 306.239 255.573 306.164 255.364 306.172Z" fill="#EA5B0B"/>
<path d="M319.897 151.351L277.163 156.914C275.29 157.158 273.97 158.871 274.215 160.74L277.854 188.596C278.098 190.465 279.814 191.783 281.686 191.539L324.42 185.976C326.293 185.732 327.613 184.019 327.369 182.15L323.73 154.294C323.485 152.425 321.769 151.107 319.897 151.351Z" fill="#4A1E05"/>
<path opacity="0.3" d="M319.897 151.351L277.163 156.914C275.29 157.158 273.97 158.871 274.215 160.74L277.854 188.596C278.098 190.465 279.814 191.783 281.686 191.539L324.42 185.976C326.293 185.732 327.613 184.019 327.369 182.15L323.73 154.294C323.485 152.425 321.769 151.107 319.897 151.351Z" fill="black"/>
<path d="M296.521 160.555C295.81 160.555 295.108 160.313 294.548 159.879C293.862 159.354 293.419 158.578 293.302 157.726L292.55 151.934C292.316 150.165 293.57 148.538 295.35 148.304L305.006 147.044C306.787 146.81 308.417 148.062 308.651 149.839L309.412 155.631C309.637 157.409 308.383 159.028 306.611 159.27L296.947 160.522C296.805 160.539 296.663 160.555 296.521 160.555ZM305.432 148.871H305.257L295.593 150.132C294.849 150.223 294.33 150.908 294.422 151.642L295.175 157.434C295.225 157.793 295.417 158.118 295.701 158.335C295.986 158.552 296.345 158.653 296.705 158.603L306.36 157.351C307.104 157.251 307.631 156.566 307.539 155.823L306.812 150.098C306.77 149.739 306.578 149.414 306.293 149.197C306.051 148.997 305.75 148.888 305.432 148.888V148.863V148.871Z" fill="#4A1E05"/>
<path d="M323.965 150.821L281.231 156.385C279.359 156.629 278.039 158.342 278.283 160.211L281.922 188.067C282.166 189.936 283.882 191.254 285.755 191.01L328.489 185.447C330.361 185.203 331.681 183.49 331.437 181.621L327.798 153.765C327.554 151.895 325.838 150.578 323.965 150.821Z" fill="#4A1E05"/>
<path d="M298.886 143.322L296.161 148.622L304.153 148.989C305.332 146.619 304.922 143.764 303.117 141.828L298.886 143.322Z" fill="#7F3E3B"/>
<path d="M299.213 152.727L303.978 152.076L304.153 148.988L296.161 148.621L296.287 150.349C296.387 151.767 297.616 152.844 299.037 152.744C299.095 152.744 299.154 152.736 299.213 152.727Z" fill="#7F3E3B"/>
<path d="M293.285 112.292C293.16 112.943 294.046 115.355 294.698 116.289C295.35 117.224 306.135 118.05 307.522 115.931C308.91 113.811 308.969 110.038 308.308 108.778C307.648 107.518 293.545 110.881 293.285 112.292Z" fill="#EA5B0B"/>
<path d="M135.75 86.2457C134.404 88.0067 132.941 89.9346 131.57 91.829C130.199 93.7235 128.878 95.6514 127.616 97.6043C125.083 101.352 122.901 105.324 121.087 109.464C120.878 109.956 120.685 110.448 120.518 110.941C120.426 111.183 120.343 111.425 120.267 111.667L120.15 112.034L120.1 112.209V112.259C119.95 112.902 119.916 113.561 120.008 114.212C120.301 116.315 120.794 118.377 121.488 120.38C122.917 124.695 124.832 129.143 126.713 133.458L122.441 136.162C119.239 132.214 116.464 127.933 114.165 123.401C112.902 120.956 111.932 118.36 111.297 115.681C110.879 113.945 110.812 112.151 111.096 110.39L111.163 109.989L111.23 109.722L111.356 109.205C111.431 108.863 111.514 108.521 111.615 108.187C111.799 107.511 111.999 106.86 112.217 106.209C113.964 101.301 116.246 96.5945 119.022 92.1796C120.359 90.018 121.73 87.8982 123.202 85.8535C124.673 83.8088 126.128 81.8225 127.825 79.7861L135.75 86.2457Z" fill="#4A1E05"/>
<path d="M125.585 131.913L129.982 134.242L124.966 140.159C124.966 140.159 121.806 138.022 121.622 134.767L125.585 131.913Z" fill="#FFC3BD"/>
<path d="M135.901 137.889L130.483 142.187L124.924 140.159L129.982 134.242L135.901 137.889Z" fill="#FFC3BD"/>
<path d="M201.627 119.228L206.827 121.907L206.367 123.776L202.187 127.949C202.187 127.949 199.177 125.612 199.244 122.357L201.627 119.228Z" fill="#FFC3BD"/>
<path d="M202.379 119.962L207.144 119.069L210.204 120.371L208.164 120.713L206.826 121.924L202.379 119.962Z" fill="#FFC3BD"/>
<path d="M212.035 128.566L206.869 129.676C206.325 129.793 205.765 129.726 205.264 129.484L202.162 127.982L206.342 123.809L209.109 122.975L212.57 126.939C212.921 127.373 212.863 128.015 212.42 128.374C212.303 128.466 212.177 128.533 212.035 128.566Z" fill="#FFC3BD"/>
<path d="M154.803 52.4116C154.92 52.9708 155.305 53.363 155.639 53.2462C155.973 53.1294 156.207 52.6537 156.099 52.0945C155.99 51.5353 155.589 51.1431 155.263 51.2599C154.937 51.3768 154.661 51.8525 154.803 52.4116Z" fill="#4A1E05"/>
<path d="M155.254 53.3711C156.274 54.9484 157.503 56.3756 158.907 57.6191C158.071 58.7458 156.332 58.6623 156.332 58.6623L155.254 53.3711Z" fill="#FF5652"/>
<path d="M152.153 49.7164C152.069 49.7164 151.986 49.683 151.927 49.6246C151.802 49.491 151.802 49.2824 151.927 49.1489C152.646 48.3393 153.708 47.922 154.786 48.0389C154.97 48.0973 155.062 48.2893 155.004 48.4729C154.953 48.6147 154.828 48.7149 154.678 48.7065C153.825 48.6231 152.98 48.9653 152.42 49.6079C152.353 49.683 152.253 49.7247 152.153 49.7164Z" fill="#4A1E05"/>
<path d="M139.613 62.3018C140.582 67.2257 141.159 74.0442 137.715 77.3241C137.715 77.3241 139.061 82.3315 148.223 82.3315C158.306 82.3315 153.072 77.9417 153.072 77.9417C148.892 76.6481 148.892 71.8827 149.879 68.0603L139.613 62.3018Z" fill="#FFC3BD"/>
<path d="M136.269 80.6954C135.433 79.3768 135.708 75.3792 136.712 74.7282C138.317 73.6767 144.938 73.7935 153.724 76.3556C152.537 80.178 154.468 82.3312 154.468 82.3312L136.269 80.6954Z" fill="#EA5B0B"/>
<path opacity="0.2" d="M128.912 87.7812C125.777 90.8692 124.866 97.1952 125.209 101.51C125.978 100.2 126.797 98.8894 127.641 97.6125C128.904 95.6513 130.25 93.7401 131.604 91.8206C131.98 91.2948 132.365 90.7607 132.758 90.2266C132.833 89.8844 132.9 89.5422 132.967 89.2084L128.912 87.7812Z" fill="black"/>
<path d="M106.708 307.842C107.26 308.034 107.853 308.001 108.38 307.75C108.589 307.558 108.647 307.266 108.539 307.007C108.48 306.799 108.33 306.632 108.129 306.54C107.218 306.106 105.119 306.957 105.036 306.991C104.977 307.016 104.936 307.066 104.936 307.133C104.936 307.199 104.969 307.258 105.028 307.283C105.563 307.525 106.131 307.717 106.708 307.842ZM107.811 306.765L107.995 306.824C108.112 306.874 108.204 306.974 108.238 307.099C108.321 307.383 108.238 307.475 108.179 307.508C107.82 307.817 106.507 307.508 105.529 307.149C106.256 306.84 107.051 306.699 107.845 306.74L107.811 306.765Z" fill="#EA5B0B"/>
<path d="M105.069 307.274H105.145C105.914 307.057 107.544 305.897 107.561 305.137C107.561 304.887 107.394 304.67 107.151 304.62C106.917 304.536 106.658 304.553 106.44 304.678C105.546 305.137 104.977 306.998 104.952 307.074C104.927 307.124 104.927 307.182 104.952 307.232C104.986 307.257 105.028 307.274 105.069 307.274ZM106.976 304.887H107.051C107.243 304.954 107.243 305.054 107.243 305.096C107.243 305.546 106.156 306.448 105.362 306.815C105.571 306.08 106.006 305.421 106.591 304.929C106.716 304.862 106.867 304.845 107.009 304.887H106.976Z" fill="#EA5B0B"/>
<path d="M156.491 308.944C157.327 308.944 158.163 308.827 158.472 308.434C158.623 308.226 158.623 307.95 158.472 307.742C158.355 307.558 158.171 307.416 157.962 307.366C156.842 307.066 154.485 308.401 154.384 308.46C154.326 308.493 154.292 308.56 154.309 308.626C154.317 308.693 154.368 308.743 154.434 308.76C155.112 308.877 155.805 308.944 156.491 308.944ZM157.561 307.642C157.661 307.625 157.77 307.625 157.87 307.642C158.004 307.667 158.113 307.75 158.18 307.867C158.297 308.067 158.255 308.159 158.18 308.217C157.87 308.651 156.165 308.66 154.911 308.485C155.73 308.034 156.633 307.75 157.561 307.642Z" fill="#EA5B0B"/>
<path d="M154.452 308.76H154.519C155.355 308.401 156.943 306.941 156.826 306.181C156.826 305.998 156.667 305.781 156.232 305.731C155.915 305.706 155.597 305.797 155.346 306.006C154.51 306.715 154.301 308.51 154.293 308.602C154.293 308.66 154.318 308.71 154.36 308.743C154.385 308.76 154.418 308.76 154.452 308.76ZM156.124 306.031H156.224C156.508 306.031 156.525 306.173 156.533 306.206C156.609 306.665 155.514 307.809 154.686 308.301C154.761 307.533 155.07 306.816 155.572 306.231C155.723 306.106 155.906 306.031 156.099 306.031H156.124Z" fill="#EA5B0B"/>
<path d="M147.045 308.601H153.783L154.452 293.011H147.714L147.045 308.601Z" fill="#FFC3BD"/>
<path d="M97.6699 305.721L104.174 307.099L110.076 292.185L103.572 290.808L97.6699 305.721Z" fill="#FFC3BD"/>
<path d="M104.776 306.248L97.3694 304.645C97.1019 304.587 96.8344 304.721 96.7173 304.971L94.1425 310.538C93.9167 311.038 94.1424 311.623 94.6357 311.856C94.7026 311.89 94.7778 311.915 94.8531 311.923C97.453 312.432 98.7405 312.557 101.992 313.258C103.999 313.692 108.522 314.794 111.289 315.386C114.056 315.979 115.001 313.333 113.922 312.841C109.09 310.638 107.067 308.668 105.754 306.882C105.52 306.557 105.169 306.331 104.776 306.248Z" fill="#4A1E05"/>
<path d="M153.741 307.842H146.376C146.1 307.842 145.866 308.034 145.799 308.301L144.47 314.285C144.353 314.819 144.687 315.345 145.214 315.461C145.289 315.478 145.364 315.487 145.439 315.487C148.098 315.436 151.935 315.286 155.271 315.286C159.175 315.286 160.563 315.495 165.136 315.495C167.903 315.495 168.672 312.707 167.518 312.449C162.243 311.297 159.919 311.172 155.363 308.368C154.878 308.05 154.318 307.867 153.741 307.842Z" fill="#4A1E05"/>
<path opacity="0.2" d="M154.452 293.02L154.109 301.048H147.362L147.705 293.02H154.452Z" fill="black"/>
<path opacity="0.2" d="M103.572 290.808L110.076 292.185L107.033 299.871L100.529 298.502L103.572 290.808Z" fill="black"/>
<path d="M151.868 137.38C151.868 137.38 144.21 188.823 140.014 208.093C135.416 229.2 110.754 299.062 110.754 299.062L98.6484 296.408C98.6484 296.408 115.903 239.507 119.757 210.005C122.725 187.346 128.569 137.397 128.569 137.397L151.868 137.38Z" fill="#4A1E05"/>
<path opacity="0.1" d="M151.868 137.38C151.868 137.38 144.21 188.823 140.014 208.093C135.416 229.2 110.754 299.062 110.754 299.062L98.6484 296.408C98.6484 296.408 115.903 239.507 119.757 210.005C122.725 187.346 128.569 137.397 128.569 137.397L151.868 137.38Z" fill="white"/>
<path d="M113.638 294.998C113.688 294.998 111.389 299.354 111.389 299.354L97.8125 296.416L98.9578 292.344L113.638 294.998Z" fill="#4A1E05"/>
<path opacity="0.3" d="M147.028 155.707C138.183 157.443 139.119 190.383 140.181 207.325C142.689 195.349 146.468 172.273 149.026 155.949C148.407 155.648 147.705 155.565 147.028 155.707Z" fill="black"/>
<path d="M164.692 137.38C164.692 137.38 165.62 187.705 164.885 208.235C164.124 229.584 156.658 299.496 156.658 299.496H145.197C145.197 299.496 144.779 230.836 144.269 209.863C143.717 187.004 140.925 137.38 140.925 137.38H164.692Z" fill="#4A1E05"/>
<path opacity="0.1" d="M164.692 137.38C164.692 137.38 165.62 187.705 164.885 208.235C164.124 229.584 156.658 299.496 156.658 299.496H145.197C145.197 299.496 144.779 230.836 144.269 209.863C143.717 187.004 140.925 137.38 140.925 137.38H164.692Z" fill="white"/>
<path d="M158.841 294.956C158.891 294.956 158.189 299.688 158.189 299.688H144.278L143.901 295.465L158.841 294.956Z" fill="#4A1E05"/>
<path d="M165.578 85.603C166.958 92.8805 169.516 113.211 165.52 142.788L126.495 142.187C126.27 137.021 130.383 108.979 126.579 84.0841C126.136 81.1464 128.167 78.409 131.102 77.975C131.135 77.975 131.169 77.9666 131.202 77.9583C133.175 77.6912 135.466 77.4409 137.723 77.3324C142.822 77.0403 147.947 77.0403 153.047 77.3324C154.719 77.4909 156.391 77.7329 157.879 77.9917C161.775 78.6844 164.843 81.7139 165.578 85.603Z" fill="#4A1E05"/>
<path opacity="0.2" d="M166.648 92.8301L160.077 94.4575C159.576 100.583 163.622 107.519 167.668 112.818C167.71 106.142 167.367 99.4649 166.648 92.8301Z" fill="black"/>
<path d="M163.948 82.3311C165.06 84.3257 166.264 86.5039 167.501 88.5319C168.738 90.56 170.009 92.6381 171.288 94.641C173.754 98.5802 176.547 102.294 179.648 105.758C180.033 106.15 180.409 106.55 180.793 106.918L181.078 107.193L181.303 107.393C181.429 107.527 181.646 107.677 181.805 107.819C182.574 108.42 183.477 109.054 184.472 109.663C186.437 110.873 188.543 112.059 190.683 113.202C194.964 115.497 199.395 117.75 203.767 120.029L202.036 124.778C197.087 123.592 192.213 122.115 187.448 120.346C185.057 119.453 182.658 118.485 180.258 117.308C178.979 116.699 177.742 116.014 176.555 115.255C176.229 115.021 175.92 114.838 175.568 114.562L175.067 114.178L174.657 113.836C174.097 113.386 173.587 112.918 173.069 112.451C171.096 110.615 169.248 108.637 167.551 106.542C165.879 104.514 164.316 102.369 162.836 100.291C161.356 98.213 159.952 96.0097 158.656 93.7981C157.36 91.5865 156.073 89.4166 154.869 87.013L163.948 82.3311Z" fill="#4A1E05"/>
<path d="M135.843 55.0153C137.665 61.8088 138.351 65.8648 142.589 68.7024C148.909 72.9587 156.801 68.0764 157.018 60.8741C157.236 54.3978 154.218 44.3745 146.92 43.0058C141.711 41.996 136.67 45.3927 135.659 50.5921C135.374 52.061 135.433 53.5715 135.843 55.0153Z" fill="#FFC3BD"/>
<path d="M149.979 55.099C151.601 52.7205 152.219 49.0651 151.082 47.3041C152.144 47.7464 159.802 48.2722 156.801 42.8308C153.799 37.3894 147.78 35.8871 142.538 37.3894L145.088 38.1238C145.088 38.1238 137.924 37.6064 134.438 40.5023C135.499 40.5608 136.419 40.5023 136.419 40.5023C136.419 40.5023 128.744 44.116 132.088 46.8618C126.696 50.9595 130.349 56.6347 139.228 65.0972C140.774 66.491 145.155 65.9819 146.125 65.1473C145.506 61.4585 149.068 56.451 149.979 55.099Z" fill="#4A1E05"/>
<path d="M150.882 50.4668C152.47 51.6269 154.435 55.0403 155.346 56.7428C156.258 58.4453 157.219 58.2283 157.679 58.9043C158.139 59.5804 160.02 71.014 158.005 72.8417C155.99 74.6695 149.929 71.7818 149.135 69.6787C148.341 67.5756 149.795 62.4179 150.188 61.2411C150.598 59.2048 150.481 57.1017 149.837 55.1321C149.135 53.1374 150.882 50.4668 150.882 50.4668Z" fill="#4A1E05"/>
<path d="M147.304 55.4157C147.739 57.0932 148.842 58.5287 150.355 59.3883C152.203 60.2229 152.428 58.078 152.069 56.05C151.743 54.2056 151.233 52.7117 149.737 51.9939C147.973 51.0843 146.694 53.396 147.304 55.4157Z" fill="#FFC3BD"/>
</g>
<defs>
<clipPath id="clip0_2270_6171">
<rect width="418" height="325" fill="white"/>
</clipPath>
</defs>
</svg>
