<svg width="500" height="373" viewBox="0 0 500 373" fill="none" xmlns="http://www.w3.org/2000/svg">
<g clip-path="url(#clip0_2270_7503)">
<path d="M500 327.4H0V327.65H500V327.4Z" fill="#EBEBEB"/>
<path d="M449.9 343.49H416.78V343.74H449.9V343.49Z" fill="#EBEBEB"/>
<path d="M331.22 346.21H322.53V346.46H331.22V346.21Z" fill="#EBEBEB"/>
<path d="M415.78 334.21H396.59V334.46H415.78V334.21Z" fill="#EBEBEB"/>
<path d="M95.65 335.89H52.46V336.14H95.65V335.89Z" fill="#EBEBEB"/>
<path d="M110.89 335.89H104.56V336.14H110.89V335.89Z" fill="#EBEBEB"/>
<path d="M225.15 340.11H131.47V340.36H225.15V340.11Z" fill="#EBEBEB"/>
<path d="M237 282.8H43.91C40.76 282.8 38.21 280.24 38.21 277.09V5.66C38.24 2.53 40.78 0.01 43.91 0H237C240.15 0 242.71 2.56 242.71 5.71V277.09C242.71 280.24 240.15 282.8 237 282.8ZM43.91 0.2C40.9 0.2 38.46 2.65 38.46 5.66V277.09C38.46 280.1 40.9 282.54 43.91 282.55H237C240.01 282.55 242.45 280.1 242.46 277.09V5.66C242.46 2.65 240.01 0.21 237 0.2H43.91Z" fill="#EBEBEB"/>
<path d="M453.31 282.8H260.21C257.06 282.8 254.51 280.24 254.5 277.09V5.66C254.53 2.53 257.08 0.01 260.21 0H453.31C456.44 0.01 458.97 2.53 459 5.66V277.09C459 280.24 456.46 282.79 453.31 282.8ZM260.21 0.2C257.2 0.2 254.76 2.65 254.75 5.66V277.09C254.75 280.1 257.2 282.54 260.21 282.55H453.31C456.32 282.55 458.76 280.1 458.77 277.09V5.66C458.77 2.65 456.32 0.21 453.31 0.2H260.21Z" fill="#EBEBEB"/>
<path d="M165.66 48.7803H94.4102V290.49H165.66V48.7803Z" fill="#FAFAFA"/>
<path d="M155.06 48.7803H150.89L126.04 290.49H130.2L155.06 48.7803Z" fill="#F5F5F5"/>
<path d="M164.41 49.7197H93.96V51.8497H164.41V49.7197Z" fill="#E0E0E0"/>
<path d="M164.41 288.38H93.96V292.94H164.41V288.38Z" fill="#EBEBEB"/>
<path d="M163.24 292.73H96.6699V292.93H163.24V292.73Z" fill="#EBEBEB"/>
<path d="M96.6697 49.7205H163.23V292.73H167.22V46.7305H92.6797V292.73H96.6697V49.7205Z" fill="#EBEBEB"/>
<path d="M244.95 48.7803H173.7V290.49H244.95V48.7803Z" fill="#FAFAFA"/>
<path d="M225.19 48.7803H202.47L177.62 290.49H200.34L225.19 48.7803Z" fill="#F5F5F5"/>
<path d="M245.69 49.7197H173.24V51.8497H245.69V49.7197Z" fill="#E0E0E0"/>
<path d="M245.69 288.38H173.24V292.94H245.69V288.38Z" fill="#EBEBEB"/>
<path d="M242.52 292.73H175.95V292.93H242.52V292.73Z" fill="#EBEBEB"/>
<path d="M175.95 49.7205H242.52V292.73H246.51V46.7305H171.97V292.73H175.95V49.7205Z" fill="#EBEBEB"/>
<path d="M322.24 48.7803H252.99V290.49H322.24V48.7803Z" fill="#FAFAFA"/>
<path d="M292.23 48.7803H288.06L263.21 290.49H267.37L292.23 48.7803Z" fill="#F5F5F5"/>
<path d="M322.98 49.7197H252.53V51.8497H322.98V49.7197Z" fill="#E0E0E0"/>
<path d="M322.98 288.38H252.53V292.94H322.98V288.38Z" fill="#EBEBEB"/>
<path d="M321.81 292.73H255.24V292.93H321.81V292.73Z" fill="#EBEBEB"/>
<path d="M255.24 49.7205H321.81V292.73H325.79V46.7305H251.25V292.73H255.24V49.7205Z" fill="#EBEBEB"/>
<path d="M403.52 48.7803H332.27V290.49H403.52V48.7803Z" fill="#FAFAFA"/>
<path d="M396.56 48.7803H373.84L348.99 290.49H371.7L396.56 48.7803Z" fill="#F5F5F5"/>
<path d="M402.27 49.7197H331.82V51.8497H402.27V49.7197Z" fill="#E0E0E0"/>
<path d="M402.27 288.38H331.82V292.94H402.27V288.38Z" fill="#EBEBEB"/>
<path d="M334.53 49.7205H401.09V292.73H405.08V46.7305H330.54V292.73H334.53V49.7205Z" fill="#EBEBEB"/>
<path d="M401.1 292.73H334.53V292.93H401.1V292.73Z" fill="#EBEBEB"/>
<path d="M143.62 234.87H112.69V288.36H143.62V234.87Z" fill="#EBEBEB"/>
<path d="M137.68 227.4V240.81H135.24H121.07H118.63V227.4H137.68Z" fill="#EBEBEB"/>
<path d="M141.64 236.86H137.68V240.82H141.64V236.86Z" fill="#FAFAFA"/>
<path d="M133.97 236.86H130.01V240.82H133.97V236.86Z" fill="#FAFAFA"/>
<path d="M126.29 236.86H122.33V240.82H126.29V236.86Z" fill="#FAFAFA"/>
<path d="M118.62 236.86H114.66V240.82H118.62V236.86Z" fill="#F0F0F0"/>
<path d="M141.64 244.05H137.68V248.01H141.64V244.05Z" fill="#F0F0F0"/>
<path d="M133.97 244.05H130.01V248.01H133.97V244.05Z" fill="#F0F0F0"/>
<path d="M126.29 244.05H122.33V248.01H126.29V244.05Z" fill="#FAFAFA"/>
<path d="M118.62 244.05H114.66V248.01H118.62V244.05Z" fill="#FAFAFA"/>
<path d="M141.64 251.24H137.68V255.2H141.64V251.24Z" fill="#F0F0F0"/>
<path d="M133.97 251.24H130.01V255.2H133.97V251.24Z" fill="#FAFAFA"/>
<path d="M126.29 251.24H122.33V255.2H126.29V251.24Z" fill="#FAFAFA"/>
<path d="M133.97 230.63H130.01V234.59H133.97V230.63Z" fill="#FAFAFA"/>
<path d="M126.29 230.63H122.33V234.59H126.29V230.63Z" fill="#F0F0F0"/>
<path d="M118.62 251.24H114.66V255.2H118.62V251.24Z" fill="#F0F0F0"/>
<path d="M141.64 258.44H137.68V262.4H141.64V258.44Z" fill="#FAFAFA"/>
<path d="M133.97 258.44H130.01V262.4H133.97V258.44Z" fill="#F0F0F0"/>
<path d="M126.29 258.44H122.33V262.4H126.29V258.44Z" fill="#F0F0F0"/>
<path d="M118.62 258.44H114.66V262.4H118.62V258.44Z" fill="#FAFAFA"/>
<path d="M141.64 265.64H137.68V269.6H141.64V265.64Z" fill="#F0F0F0"/>
<path d="M133.97 265.64H130.01V269.6H133.97V265.64Z" fill="#FAFAFA"/>
<path d="M126.29 265.64H122.33V269.6H126.29V265.64Z" fill="#FAFAFA"/>
<path d="M118.62 265.64H114.66V269.6H118.62V265.64Z" fill="#F0F0F0"/>
<path d="M141.64 272.84H137.68V276.8H141.64V272.84Z" fill="#F0F0F0"/>
<path d="M133.97 272.84H130.01V276.8H133.97V272.84Z" fill="#FAFAFA"/>
<path d="M126.29 272.84H122.33V276.8H126.29V272.84Z" fill="#F0F0F0"/>
<path d="M118.62 272.84H114.66V276.8H118.62V272.84Z" fill="#FAFAFA"/>
<path d="M141.64 280.03H137.68V283.99H141.64V280.03Z" fill="#FAFAFA"/>
<path d="M133.97 280.03H130.01V283.99H133.97V280.03Z" fill="#FAFAFA"/>
<path d="M126.29 280.03H122.33V283.99H126.29V280.03Z" fill="#F0F0F0"/>
<path d="M118.62 280.03H114.66V283.99H118.62V280.03Z" fill="#F0F0F0"/>
<path d="M318.01 234.87H287.08V288.36H318.01V234.87Z" fill="#EBEBEB"/>
<path d="M312.07 227.4V240.81H309.63H295.46H293.02V227.4H312.07Z" fill="#EBEBEB"/>
<path d="M316.03 236.86H312.07V240.82H316.03V236.86Z" fill="#FAFAFA"/>
<path d="M308.36 236.86H304.4V240.82H308.36V236.86Z" fill="#FAFAFA"/>
<path d="M300.69 236.86H296.73V240.82H300.69V236.86Z" fill="#FAFAFA"/>
<path d="M293.02 236.86H289.06V240.82H293.02V236.86Z" fill="#F0F0F0"/>
<path d="M316.03 244.05H312.07V248.01H316.03V244.05Z" fill="#F0F0F0"/>
<path d="M308.36 244.05H304.4V248.01H308.36V244.05Z" fill="#F0F0F0"/>
<path d="M300.69 244.05H296.73V248.01H300.69V244.05Z" fill="#FAFAFA"/>
<path d="M293.02 244.05H289.06V248.01H293.02V244.05Z" fill="#FAFAFA"/>
<path d="M316.03 251.24H312.07V255.2H316.03V251.24Z" fill="#F0F0F0"/>
<path d="M308.36 251.24H304.4V255.2H308.36V251.24Z" fill="#FAFAFA"/>
<path d="M300.69 251.24H296.73V255.2H300.69V251.24Z" fill="#FAFAFA"/>
<path d="M308.36 230.63H304.4V234.59H308.36V230.63Z" fill="#FAFAFA"/>
<path d="M300.69 230.63H296.73V234.59H300.69V230.63Z" fill="#F0F0F0"/>
<path d="M293.02 251.24H289.06V255.2H293.02V251.24Z" fill="#F0F0F0"/>
<path d="M316.03 258.44H312.07V262.4H316.03V258.44Z" fill="#FAFAFA"/>
<path d="M308.36 258.44H304.4V262.4H308.36V258.44Z" fill="#F0F0F0"/>
<path d="M300.69 258.44H296.73V262.4H300.69V258.44Z" fill="#F0F0F0"/>
<path d="M293.02 258.44H289.06V262.4H293.02V258.44Z" fill="#FAFAFA"/>
<path d="M316.03 265.64H312.07V269.6H316.03V265.64Z" fill="#F0F0F0"/>
<path d="M308.36 265.64H304.4V269.6H308.36V265.64Z" fill="#FAFAFA"/>
<path d="M300.69 265.64H296.73V269.6H300.69V265.64Z" fill="#FAFAFA"/>
<path d="M293.02 265.64H289.06V269.6H293.02V265.64Z" fill="#F0F0F0"/>
<path d="M316.03 272.84H312.07V276.8H316.03V272.84Z" fill="#F0F0F0"/>
<path d="M308.36 272.84H304.4V276.8H308.36V272.84Z" fill="#FAFAFA"/>
<path d="M300.69 272.84H296.73V276.8H300.69V272.84Z" fill="#F0F0F0"/>
<path d="M293.02 272.84H289.06V276.8H293.02V272.84Z" fill="#FAFAFA"/>
<path d="M316.03 280.03H312.07V283.99H316.03V280.03Z" fill="#FAFAFA"/>
<path d="M308.36 280.03H304.4V283.99H308.36V280.03Z" fill="#FAFAFA"/>
<path d="M300.69 280.03H296.73V283.99H300.69V280.03Z" fill="#F0F0F0"/>
<path d="M293.02 280.03H289.06V283.99H293.02V280.03Z" fill="#F0F0F0"/>
<path d="M367.14 254.36H339.43V288.36H367.14V254.36Z" fill="#F0F0F0"/>
<path d="M341.84 258.13H348.29H350.06H351.84V261.68H350.06H348.29H341.84V258.13Z" fill="#E6E6E6"/>
<path d="M341.84 265H348.29H350.06H351.84V268.55H350.06H348.29H341.84V265Z" fill="#FAFAFA"/>
<path d="M341.84 271.87H348.29H350.06H351.84V275.42H350.06H348.29H341.84V271.87Z" fill="#E6E6E6"/>
<path d="M341.84 278.75H348.29H351.03H351.84V282.29H351.03H348.29H341.84V278.75Z" fill="#FAFAFA"/>
<path d="M354.73 258.13H361.18H362.95H364.73V261.68H362.95H361.18H354.73V258.13Z" fill="#FAFAFA"/>
<path d="M354.73 265H361.18H363.68H364.73V268.55H363.68H361.18H354.73V265Z" fill="#FAFAFA"/>
<path d="M354.73 271.87H361.18H362.95H364.73V275.42H362.95H361.18H354.73V271.87Z" fill="#E6E6E6"/>
<path d="M354.73 278.75H361.18H362.95H364.73V282.29H362.95H361.18H354.73V278.75Z" fill="#FAFAFA"/>
<path d="M234.99 267.24H209.81V288.37H234.99V267.24Z" fill="#F0F0F0"/>
<path d="M233.38 269.87H230.16V273.09H233.38V269.87Z" fill="#FAFAFA"/>
<path d="M227.13 269.87H223.91V273.09H227.13V269.87Z" fill="#FAFAFA"/>
<path d="M220.88 269.87H217.66V273.09H220.88V269.87Z" fill="#FAFAFA"/>
<path d="M214.65 269.87H211.43V273.09H214.65V269.87Z" fill="#FAFAFA"/>
<path d="M233.38 275.72H230.16V278.94H233.38V275.72Z" fill="#FAFAFA"/>
<path d="M227.13 275.72H223.91V278.94H227.13V275.72Z" fill="#FAFAFA"/>
<path d="M220.88 275.72H217.66V278.94H220.88V275.72Z" fill="#FAFAFA"/>
<path d="M214.65 275.72H211.43V278.94H214.65V275.72Z" fill="#E6E6E6"/>
<path d="M233.38 281.59H230.16V284.81H233.38V281.59Z" fill="#E6E6E6"/>
<path d="M227.13 281.59H223.91V284.81H227.13V281.59Z" fill="#E6E6E6"/>
<path d="M220.88 281.59H217.66V284.81H220.88V281.59Z" fill="#FAFAFA"/>
<path d="M214.65 281.59H211.43V284.81H214.65V281.59Z" fill="#E6E6E6"/>
<path d="M284.43 267.24H259.25V288.37H284.43V267.24Z" fill="#F0F0F0"/>
<path d="M282.82 269.87H279.6V273.09H282.82V269.87Z" fill="#FAFAFA"/>
<path d="M276.58 269.87H273.36V273.09H276.58V269.87Z" fill="#FAFAFA"/>
<path d="M270.33 269.87H267.11V273.09H270.33V269.87Z" fill="#FAFAFA"/>
<path d="M264.08 269.87H260.86V273.09H264.08V269.87Z" fill="#FAFAFA"/>
<path d="M282.82 275.72H279.6V278.94H282.82V275.72Z" fill="#FAFAFA"/>
<path d="M276.58 275.72H273.36V278.94H276.58V275.72Z" fill="#FAFAFA"/>
<path d="M270.33 275.72H267.11V278.94H270.33V275.72Z" fill="#FAFAFA"/>
<path d="M264.08 275.72H260.86V278.94H264.08V275.72Z" fill="#E6E6E6"/>
<path d="M282.82 281.59H279.6V284.81H282.82V281.59Z" fill="#E6E6E6"/>
<path d="M276.58 281.59H273.36V284.81H276.58V281.59Z" fill="#E6E6E6"/>
<path d="M270.33 281.59H267.11V284.81H270.33V281.59Z" fill="#FAFAFA"/>
<path d="M264.08 281.59H260.86V284.81H264.08V281.59Z" fill="#E6E6E6"/>
<path d="M206.4 251.61H181.22V288.36H206.4V251.61Z" fill="#F0F0F0"/>
<path d="M204.79 253.22H195.32V262.3H204.79V253.22Z" fill="#FAFAFA"/>
<path d="M192.3 253.22H182.83V262.3H192.3V253.22Z" fill="#FAFAFA"/>
<path d="M204.79 264.94H195.32V274.02H204.79V264.94Z" fill="#FAFAFA"/>
<path d="M192.3 264.94H182.83V274.02H192.3V264.94Z" fill="#FAFAFA"/>
<path d="M204.79 276.65H195.32V285.73H204.79V276.65Z" fill="#FAFAFA"/>
<path d="M192.3 276.65H182.83V285.73H192.3V276.65Z" fill="#FAFAFA"/>
<path d="M396.53 251.61H371.35V288.36H396.53V251.61Z" fill="#F0F0F0"/>
<path d="M394.92 253.22H385.45V262.3H394.92V253.22Z" fill="#FAFAFA"/>
<path d="M382.43 253.22H372.96V262.3H382.43V253.22Z" fill="#FAFAFA"/>
<path d="M394.92 264.94H385.45V274.02H394.92V264.94Z" fill="#FAFAFA"/>
<path d="M382.43 264.94H372.96V274.02H382.43V264.94Z" fill="#FAFAFA"/>
<path d="M394.92 276.65H385.45V285.73H394.92V276.65Z" fill="#FAFAFA"/>
<path d="M382.43 276.65H372.96V285.73H382.43V276.65Z" fill="#FAFAFA"/>
<path d="M250 372.56C357.083 372.56 443.89 367.492 443.89 361.24C443.89 354.988 357.083 349.92 250 349.92C142.918 349.92 56.1104 354.988 56.1104 361.24C56.1104 367.492 142.918 372.56 250 372.56Z" fill="#F5F5F5"/>
<path d="M197.5 273.74H303.84C303.84 277.65 300.75 280.87 296.84 281.03C285.41 281.54 267.84 283.35 262.26 289.67C251.86 301.46 252.87 342.86 265.32 352.45C269.22 355.45 280.6 361.45 280.6 361.45H220.71C220.71 361.45 231.35 355.36 235.04 352.45C247.42 342.79 247.78 301.45 237.34 289.67C231.98 283.67 215.5 281.67 204.45 281.09C200.55 280.88 197.49 277.65 197.5 273.74Z" fill="#EA5B0B"/>
<path opacity="0.3" d="M197.5 273.74H303.84C303.84 277.65 300.75 280.87 296.84 281.03C285.41 281.54 267.84 283.35 262.26 289.67C251.86 301.46 252.87 342.86 265.32 352.45C269.22 355.45 280.6 361.45 280.6 361.45H220.71C220.71 361.45 231.35 355.36 235.04 352.45C247.42 342.79 247.78 301.45 237.34 289.67C231.98 283.67 215.5 281.67 204.45 281.09C200.55 280.88 197.49 277.65 197.5 273.74Z" fill="white"/>
<path opacity="0.2" d="M290.67 281.41C279.87 282.28 266.92 284.41 262.29 289.67C260.78 291.48 259.59 293.54 258.77 295.76H240.91C240.06 293.55 238.86 291.49 237.34 289.67C232.68 284.44 219.63 282.29 209.03 281.41H290.67Z" fill="black"/>
<path d="M293.64 245.94L288.05 271.3C287.84 272.13 287.1 272.72 286.24 272.74H250.11C249.43 272.72 248.89 272.15 248.91 271.46C248.91 271.35 248.93 271.24 248.96 271.14L254.54 246C254.78 245.21 255.54 244.69 256.36 244.76H292.49C293.31 244.75 293.82 245.12 293.64 245.94Z" fill="#4A1E05"/>
<path opacity="0.6" d="M293.64 245.94L288.05 271.3C287.84 272.13 287.1 272.72 286.24 272.74H250.11C249.43 272.72 248.89 272.15 248.91 271.46C248.91 271.35 248.93 271.24 248.96 271.14L254.54 246C254.78 245.21 255.54 244.69 256.36 244.76H292.49C293.31 244.75 293.82 245.12 293.64 245.94Z" fill="white"/>
<path opacity="0.2" d="M292.61 245.94L287 271.3C286.79 272.14 286.04 272.73 285.18 272.74H250.11C249.43 272.72 248.89 272.15 248.91 271.46C248.91 271.35 248.93 271.24 248.96 271.14L254.55 246C254.78 245.21 255.54 244.69 256.36 244.76H291.45C292.27 244.75 292.79 245.12 292.61 245.94Z" fill="black"/>
<path d="M226.28 269.9V272.72C226.28 273.44 227.13 273.72 227.85 273.72H284.17C284.9 273.72 285.77 273.42 285.77 272.72V269.9H226.28Z" fill="#4A1E05"/>
<path opacity="0.6" d="M226.28 269.9V272.72C226.28 273.44 227.13 273.72 227.85 273.72H284.17C284.9 273.72 285.77 273.42 285.77 272.72V269.9H226.28Z" fill="white"/>
<path opacity="0.2" d="M226.28 269.9V272.72C226.28 273.44 227.13 273.72 227.85 273.72H265C265.72 273.72 266.58 273.42 266.58 272.72V269.9H226.28Z" fill="white"/>
<path d="M286.78 267.43H250.67L255.37 246.24H291.49L286.78 267.43Z" fill="#EA5B0B"/>
<path d="M262.38 265.671H259.81L260.79 261.431H263.36L262.38 265.671Z" fill="#EA5B0B"/>
<path d="M266.55 265.671H263.98L265.67 258.351H268.24L266.55 265.671Z" fill="#EA5B0B"/>
<path d="M270.72 265.67H268.14L269.57 259.5H272.14L270.72 265.67Z" fill="#EA5B0B"/>
<path d="M274.88 265.67H272.31L274.45 256.42H277.02L274.88 265.67Z" fill="#EA5B0B"/>
<path d="M279.05 265.67H276.48L279.33 253.34H281.9L279.05 265.67Z" fill="#EA5B0B"/>
<g opacity="0.5">
<path d="M262.38 265.671H259.81L260.79 261.431H263.36L262.38 265.671Z" fill="white"/>
</g>
<g opacity="0.5">
<path d="M266.55 265.671H263.98L265.67 258.351H268.24L266.55 265.671Z" fill="white"/>
</g>
<g opacity="0.5">
<path d="M270.72 265.67H268.14L269.57 259.5H272.14L270.72 265.67Z" fill="white"/>
</g>
<g opacity="0.5">
<path d="M274.88 265.67H272.31L274.45 256.42H277.02L274.88 265.67Z" fill="white"/>
</g>
<g opacity="0.5">
<path d="M279.05 265.67H276.48L279.33 253.34H281.9L279.05 265.67Z" fill="white"/>
</g>
<path d="M282.35 266.26H256.14L256.41 265.08H282.62L282.35 266.26Z" fill="white"/>
<path d="M258.27 262.231L257.64 261.691L267.64 255.171L271.25 257.501L284.53 248.311L285.19 248.831L271.15 258.541L267.51 256.201L258.27 262.231Z" fill="white"/>
<path d="M285.57 248.01L283.8 248.27L285.24 249.3L285.57 248.01Z" fill="white"/>
<path d="M399.17 353.05H280.73V360.83H399.17V353.05Z" fill="#4A1E05"/>
<path opacity="0.4" d="M399.17 353.05H280.73V360.83H399.17V353.05Z" fill="white"/>
<path opacity="0.2" d="M347.88 353.05H280.73V360.83H347.88V353.05Z" fill="white"/>
<path d="M316.75 308.79H404.15L417.47 240C418.75 233.4 414.44 227 407.83 225.72C407.05 225.57 406.26 225.49 405.47 225.5H342.93C337.08 225.48 332.04 229.62 330.93 235.37L316.75 308.79Z" fill="#EA5B0B"/>
<path opacity="0.6" d="M316.75 308.79H404.15L417.47 240C418.75 233.4 414.44 227 407.83 225.72C407.05 225.57 406.26 225.49 405.47 225.5H342.93C337.08 225.48 332.04 229.62 330.93 235.37L316.75 308.79Z" fill="white"/>
<path opacity="0.2" d="M379.33 308.79H404.15L417.47 240C418.75 233.4 414.44 227 407.83 225.72C407.05 225.57 406.26 225.49 405.47 225.5C399.62 225.48 394.58 229.62 393.47 235.37L379.33 308.79Z" fill="black"/>
<path d="M401.32 307.939H277.5C274.109 307.939 271.36 310.688 271.36 314.079V349.049C271.36 352.44 274.109 355.189 277.5 355.189H401.32C404.711 355.189 407.46 352.44 407.46 349.049V314.079C407.46 310.688 404.711 307.939 401.32 307.939Z" fill="#EA5B0B"/>
<path opacity="0.6" d="M401.32 307.939H277.5C274.109 307.939 271.36 310.688 271.36 314.079V349.049C271.36 352.44 274.109 355.189 277.5 355.189H401.32C404.711 355.189 407.46 352.44 407.46 349.049V314.079C407.46 310.688 404.711 307.939 401.32 307.939Z" fill="white"/>
<path opacity="0.2" d="M401.32 307.939H348.33C344.939 307.939 342.19 310.688 342.19 314.079V349.049C342.19 352.44 344.939 355.189 348.33 355.189H401.32C404.711 355.189 407.46 352.44 407.46 349.049V314.079C407.46 310.688 404.711 307.939 401.32 307.939Z" fill="black"/>
<path d="M299.41 229.94L291 227.71L294.1 220.71C294.1 220.71 300.23 221.44 301.51 226.37L299.41 229.94Z" fill="#E4897B"/>
<path d="M286.391 223.49L289.951 218.84L294.061 220.73L290.961 227.71L286.391 223.49Z" fill="#E4897B"/>
<path d="M332.84 226.999C332.84 226.999 326.05 231.419 316.23 238.859L301.33 224.739L298 229.609C298 229.609 311.24 248.519 314.8 249.159C318.36 249.799 335.57 237.789 335.57 237.789L332.84 226.999Z" fill="#4A1E05"/>
<path opacity="0.4" d="M335.52 237.79C335.52 237.79 331.75 240.42 327.38 243.15C322.38 246.26 316.64 249.51 314.75 249.15C311.19 248.51 297.95 229.6 297.95 229.6L301.33 224.76L316.23 238.88C326.05 231.44 332.84 227.02 332.84 227.02L334.61 234.12L335.52 237.79Z" fill="white"/>
<path opacity="0.2" d="M335.52 237.789C335.52 237.789 331.75 240.419 327.38 243.149C329.21 239.729 331.66 236.679 334.61 234.149L335.52 237.789Z" fill="black"/>
<path d="M302.08 296.13C301.83 297.08 304.62 314.02 307.13 328.8C309.13 340.48 310.93 350.8 310.93 350.8L305.6 351.29C305.6 351.29 301.52 343.18 296.92 332.42C293.51 324.56 290.5 316.53 287.92 308.36C284.65 297.77 282.92 288.06 285.29 283.12C285.74 282.12 286.45 281.27 287.36 280.66C287.39 280.63 287.43 280.61 287.47 280.59L287.84 280.35C291.34 278.35 296.94 277.22 303.35 276.69C314.88 275.75 329.02 276.69 338.19 277.56C343.92 278.1 347.7 278.61 347.7 278.61L355.19 306.51C352.71 306.42 350.28 306.27 347.91 306.06C321.26 303.75 302.48 294.58 302.08 296.13Z" fill="#E4897B"/>
<path opacity="0.2" d="M307.13 328.799C303.82 330.259 300.41 331.469 296.92 332.429C293.51 324.569 290.5 316.539 287.92 308.369C290.09 304.369 299.57 291.299 312.11 286.679C309.74 282.899 306.78 279.529 303.35 276.679C314.88 275.739 329.02 276.679 338.19 277.549L347.91 306.049C321.3 303.729 302.52 294.559 302.12 296.109C301.83 297.079 304.62 313.999 307.13 328.799Z" fill="black"/>
<path d="M334.28 284.73C334.28 284.73 334.96 275.39 335.28 273.49C335.54 271.6 335.93 269.74 336.44 267.9C338.51 261.67 366.25 268.99 366.25 268.99C366.25 268.99 382.66 293.7 371.19 305.36C368.65 307.94 363.67 309.1 358.57 309.06C358.57 309.06 343.02 309.82 314.1 308.47C314.1 308.47 301.21 326.7 265.91 350.81L259.37 349.91C259.37 349.91 302.76 295.85 304.08 294.78C315.61 285.46 334.28 284.73 334.28 284.73Z" fill="#E4897B"/>
<path d="M265.88 360.46H264.45L264.05 358.69L259.31 360.83H247.31C247.31 360.83 245.4 358.91 251.12 357.38C251.4 357.3 251.67 357.2 251.93 357.07C254.98 355.64 259.32 350.81 259.32 350.81H265.91C266.11 351.11 266.29 351.43 266.45 351.76C267.16 353.21 268.41 356.25 265.88 360.46Z" fill="#4A1E05"/>
<path d="M266.44 351.759C265.57 350.759 261.61 355.049 258.71 356.499C256.12 357.789 253.21 358.359 251.92 357.049C254.97 355.619 259.77 349.369 259.77 349.369H265.07C265.07 349.369 266.13 351.139 266.44 351.759Z" fill="#E4897B"/>
<path d="M310.91 360.46H309.48L309.08 358.69L304.34 360.83H292.34C292.34 360.83 290.43 358.91 296.15 357.38C296.43 357.3 296.7 357.2 296.96 357.07C300.01 355.64 304.35 350.81 304.35 350.81H310.94C311.14 351.11 311.32 351.43 311.48 351.76C312.19 353.21 313.44 356.25 310.91 360.46Z" fill="#4A1E05"/>
<path d="M311.47 351.759C310.6 350.759 306.64 355.049 303.74 356.499C301.15 357.789 298.24 358.359 296.95 357.049C300 355.619 304.8 349.369 304.8 349.369H310.1C310.1 349.369 311.16 351.139 311.47 351.759Z" fill="#E4897B"/>
<path d="M301.9 276.79C301.9 276.79 322.26 285.1 327.16 291.69C332.06 298.28 329.03 307.54 325.34 308.91C325.34 308.91 331.22 309.76 350.89 309.76C370.56 309.76 376.1 305.41 375.97 294.86C375.84 284.31 366.24 269 366.24 269L335.46 269.16L332.46 276.32C332.46 276.32 316.75 274.42 301.9 276.79Z" fill="#4A1E05"/>
<path d="M368.69 233.47C365.96 241.7 365.83 260.27 366.8 270.53L335.8 270.33C332.28 257.43 331.24 243.99 332.72 230.7C332.83 229.24 333.33 227.84 334.18 226.65C334.18 226.65 340.51 224.03 346.02 224.07C350.29 224.22 354.54 224.67 358.74 225.41C361.86 225.93 364.96 226.63 368 227.5C369.31 227.87 370.07 229.23 369.7 230.54C369.69 230.58 369.68 230.62 369.66 230.66C369.3 231.63 369 232.56 368.69 233.47Z" fill="#EA5B0B"/>
<path opacity="0.1" d="M335.77 270.329L354.48 270.459L366.8 270.529C365.99 260.969 366.08 251.359 367.05 241.819C367.32 238.989 367.87 236.199 368.69 233.479C368.99 232.569 369.3 231.619 369.63 230.659C370.07 229.379 369.39 227.979 368.1 227.529C368.07 227.519 368.03 227.509 368 227.499C364.96 226.629 361.86 225.929 358.74 225.409C354.53 224.659 350.27 224.219 346 224.069C340.49 224.069 334.16 226.649 334.16 226.649C333.47 227.919 332.98 229.279 332.7 230.699C332.11 235.489 330.43 249.859 335.77 270.329Z" fill="white"/>
<path d="M336.41 270.07L332.41 276.31C332.41 276.31 333.13 270.46 333.12 266.51C333.11 262.56 328.99 248.21 332.93 226.96C335.12 226.03 337.37 225.27 339.68 224.69C340.42 224.52 341.17 224.42 341.93 224.39C341.93 224.39 337.21 236 336.25 254C335.97 259.35 336.02 264.72 336.41 270.07Z" fill="#4A1E05"/>
<path opacity="0.4" d="M336.41 270.07L332.41 276.31C332.41 276.31 333.13 270.46 333.12 266.51C333.11 262.56 328.99 248.21 332.93 226.96C335.12 226.03 337.37 225.27 339.68 224.69C340.42 224.51 341.17 224.41 341.93 224.39C341.93 224.39 337.21 236 336.25 254C335.97 259.35 336.02 264.72 336.41 270.07Z" fill="white"/>
<path d="M368.851 263.339C369.851 272.699 371.621 277.339 371.621 277.339C365.551 275.599 360.621 271.179 358.211 265.339C357.471 263.249 357.081 261.039 357.071 258.819C356.541 246.139 361.821 225.369 361.821 225.369L362.871 225.649C369.951 227.579 371.921 229.649 371.921 229.649C371.921 229.649 367.791 253.999 368.851 263.339Z" fill="#4A1E05"/>
<path opacity="0.4" d="M370.171 271.77C370.521 273.66 371.011 275.53 371.621 277.35C365.551 275.61 360.621 271.19 358.211 265.35C357.871 264.48 357.611 263.58 357.461 262.66C357.241 261.39 357.111 260.11 357.071 258.83C356.541 246.15 361.821 225.38 361.821 225.38L362.871 225.66C369.951 227.59 371.921 229.66 371.921 229.66C371.921 229.66 370.921 235.47 370.051 242.5C369.121 249.83 368.311 258.5 368.851 263.28C369.241 266.79 369.721 269.59 370.171 271.77Z" fill="white"/>
<path opacity="0.2" d="M361.331 236.999L363.471 241.349C363.471 241.349 359.151 252.279 357.071 258.889C356.541 246.209 361.821 225.439 361.821 225.439L362.871 225.719C363.791 227.999 365.261 232.789 365.621 240.619L361.331 236.999Z" fill="white"/>
<path opacity="0.2" d="M341.93 224.39C341.93 224.39 337.21 236 336.25 254C333.62 248 334.65 233.4 334.65 233.4L336.53 230.89L333.12 232C334.81 228 337.62 226.16 339.68 224.73C340.44 224.69 341.19 224.58 341.93 224.39Z" fill="white"/>
<path opacity="0.2" d="M370.17 271.77C368.48 272.68 366.72 273.43 364.89 274C361.91 271.8 359.6 268.82 358.21 265.39C357.87 264.52 357.61 263.62 357.46 262.7L360.25 259.63C360.25 259.63 360.86 249.86 364.48 243.15C365.69 240.91 367.83 240.91 370.05 242.56C369.12 249.89 368.31 258.56 368.85 263.34C369.24 266.79 369.72 269.59 370.17 271.77Z" fill="black"/>
<path d="M352.88 222.609C352.88 222.609 357.99 222.719 360.23 225.409C362.23 227.839 360.86 231.879 360.86 231.879L353.86 232.669L344.65 241.319L343.36 233.099L338.87 231.879C338.87 231.879 341.09 222.609 352.88 222.609Z" fill="#EA5B0B"/>
<g opacity="0.4">
<path d="M352.88 222.609C352.88 222.609 357.99 222.719 360.23 225.409C362.23 227.839 360.86 231.879 360.86 231.879L353.86 232.669L344.65 241.319L343.36 233.099L338.87 231.879C338.87 231.879 341.09 222.609 352.88 222.609Z" fill="white"/>
</g>
<path d="M358.411 226.449C353.621 230.189 349.221 234.389 345.261 238.999C345.261 238.999 341.951 227.199 347.341 225.279C347.341 225.279 348.851 224.809 349.171 222.409C349.331 220.719 349.111 219.009 348.531 217.409C348.451 217.149 348.361 216.869 348.271 216.599L357.091 211.079C357.091 211.079 354.001 222.269 358.411 226.449Z" fill="#E4897B"/>
<path opacity="0.2" d="M355.1 214.289C355.1 214.289 354.63 220.599 349.17 222.419C349.33 220.729 349.11 219.019 348.53 217.419C351.75 215.719 355.1 214.289 355.1 214.289Z" fill="black"/>
<path d="M361.331 197.74C364.271 195.25 368.361 194.61 371.921 196.09C378.081 198.59 376.101 210.25 370.831 215.17C365.561 220.09 369.761 220.73 369.761 220.73C369.761 220.73 365.461 221.32 367.221 215.04C368.981 208.76 369.401 203.04 363.591 203.67C357.781 204.3 361.331 197.74 361.331 197.74Z" fill="#4A1E05"/>
<path d="M359.88 191.6C359.88 191.6 349.34 185.6 342.61 190.37C335.88 195.14 338.39 208.44 342.61 211.89C346.83 215.34 357.88 214.45 357.88 214.45C357.88 214.45 363.88 213.45 365.62 204.66C367.07 197.48 363.44 192.13 359.88 191.6Z" fill="#4A1E05"/>
<path d="M352.78 193.189C345.5 192.499 342.78 196.189 341.55 203.639C340.01 212.949 341.46 219.809 350.75 218.639C363.37 217.099 364.87 194.319 352.78 193.189Z" fill="#E4897B"/>
<path d="M346.301 203.67C345.611 204.7 344.801 205.65 343.891 206.49C344.271 207.15 344.981 207.53 345.741 207.49L346.301 203.67Z" fill="#DE5753"/>
<path d="M350.81 203.49C350.74 204.09 351.01 204.61 351.4 204.66C351.79 204.71 352.18 204.26 352.25 203.66C352.32 203.06 352.05 202.54 351.66 202.5C351.27 202.46 350.88 202.9 350.81 203.49Z" fill="#4A1E05"/>
<path d="M351.82 202.55L350.58 201.88C350.58 201.88 351.1 203.05 351.82 202.55Z" fill="#4A1E05"/>
<path d="M343.4 202.499C343.33 203.099 343.6 203.619 344 203.659C344.4 203.699 344.77 203.259 344.85 202.659C344.93 202.059 344.65 201.539 344.25 201.489C343.85 201.439 343.47 201.899 343.4 202.499Z" fill="#4A1E05"/>
<path d="M344.41 201.55L343.18 200.89C343.18 200.89 343.69 202.06 344.41 201.55Z" fill="#4A1E05"/>
<path d="M354.41 200.179C354.31 200.179 354.21 200.129 354.15 200.039C353.46 199.219 352.43 198.759 351.36 198.779C351.19 198.779 351.05 198.639 351.05 198.469C351.05 198.299 351.19 198.159 351.36 198.159C352.65 198.119 353.88 198.689 354.69 199.699C354.78 199.839 354.74 200.029 354.6 200.129C354.54 200.169 354.48 200.179 354.41 200.179Z" fill="#4A1E05"/>
<path d="M343.13 198.31C343.01 198.31 342.91 198.25 342.86 198.14C342.78 197.99 342.83 197.8 342.98 197.72C343.95 197.12 345.15 196.99 346.22 197.39C346.38 197.45 346.47 197.63 346.41 197.79C346.35 197.95 346.17 198.04 346.01 197.98C345.99 197.98 345.98 197.97 345.96 197.96C345.06 197.65 344.08 197.77 343.28 198.28C343.23 198.3 343.18 198.32 343.13 198.32V198.31Z" fill="#4A1E05"/>
<path d="M359.591 206.199C359.591 206.199 356.741 199.899 357.691 195.329C357.691 195.329 343.811 188.089 341.691 202.669C341.691 202.669 341.501 189.529 354.041 190.409C366.581 191.289 364.821 209.599 357.841 214.409C357.881 214.449 361.341 210.139 359.591 206.199Z" fill="#4A1E05"/>
<path d="M358.25 207.629C358.55 205.879 360.21 204.699 361.96 204.989C361.97 204.989 361.98 204.989 362 204.989C364.23 205.449 364.87 210.179 359.15 210.769C358.3 210.889 357.92 210.059 358.25 207.619V207.629Z" fill="#E4897B"/>
<path d="M344.61 210.309C344.94 211.119 345.2 211.949 345.41 212.799H345.87C347.95 212.619 348.87 211.849 349.23 211.049C349.41 210.659 349.48 210.229 349.46 209.799C349.46 209.559 349.41 209.309 349.33 209.079C348.1 209.759 346.73 210.169 345.33 210.269C344.89 210.289 344.61 210.309 344.61 210.309Z" fill="#4A1E05"/>
<path d="M345.32 210.229L345.58 210.959C347.58 210.789 348.89 210.399 349.46 209.759C349.46 209.519 349.41 209.269 349.33 209.039C348.1 209.719 346.73 210.129 345.32 210.229Z" fill="white"/>
<path d="M345.87 212.76C347.95 212.58 348.87 211.81 349.23 211.01C348.44 211.1 347.67 211.32 346.96 211.67C346.49 211.91 346.11 212.29 345.87 212.76Z" fill="#DE5753"/>
<path d="M343.91 278.229L335.24 279.359L337.43 286.679C337.43 286.679 343.6 286.749 345.49 282.019L343.91 278.229Z" fill="#E4897B"/>
<path d="M330.17 282.969L333.11 288.039L337.43 286.689L335.24 279.359L330.17 282.969Z" fill="#E4897B"/>
<path d="M370.48 228.999C362.87 226.929 363.59 250.059 361.83 260.579L341 277.349L346.15 283.129C346.15 283.129 371.33 270.229 372.91 264.789C374.36 259.659 379 231.299 370.48 228.999Z" fill="#4A1E05"/>
<path opacity="0.4" d="M370.48 228.999C362.87 226.929 363.59 250.059 361.83 260.579L341 277.349L346.15 283.129C346.15 283.129 371.33 270.229 372.91 264.789C374.36 259.659 379 231.299 370.48 228.999Z" fill="white"/>
<path d="M354.73 322.35H380.76L377.7 334.65L358.21 330.07L354.73 322.35Z" fill="#4A1E05"/>
<path d="M356.23 325.98V316.75L381.29 317.41V320.57H383.94L382.43 334.65L356.23 325.98Z" fill="#EA5B0B"/>
<path opacity="0.2" d="M381.29 320.57H358.87L358.21 325.7L356.23 325.98V316.75L381.29 317.41V320.57Z" fill="black"/>
<path d="M358.21 360.83L354.73 322.35L357.46 324.53H383.94L386.56 355.56L387.94 360.83H358.21Z" fill="#4A1E05"/>
<path opacity="0.2" d="M358.21 360.83L354.73 322.35L357.46 324.53H383.94L386.56 355.56L387.94 360.83H358.21Z" fill="white"/>
<path d="M373.24 333.999C366.92 333.999 365.32 325.859 365.3 325.779C365.25 325.509 365.43 325.249 365.7 325.199C365.96 325.139 366.22 325.299 366.27 325.559C366.27 325.559 366.27 325.579 366.27 325.589C366.33 325.919 367.86 333.589 373.91 332.969C375.37 332.919 376.73 332.229 377.63 331.079C379.16 328.979 378.49 325.829 378.48 325.789C378.42 325.519 378.59 325.259 378.86 325.199C379.13 325.139 379.4 325.309 379.46 325.579C379.46 325.719 380.23 329.189 378.46 331.659C377.4 333.069 375.76 333.929 373.99 333.999C373.74 334.009 373.48 334.009 373.23 333.999H373.24Z" fill="white"/>
<path opacity="0.2" d="M357.46 324.53L359.66 358.57L360.58 360.83H358.21L354.73 322.35L357.46 324.53Z" fill="black"/>
<path d="M218.22 353.05H99.7803V360.83H218.22V353.05Z" fill="#4A1E05"/>
<path opacity="0.4" d="M218.22 353.05H99.7803V360.83H218.22V353.05Z" fill="white"/>
<path opacity="0.2" d="M218.211 353.05H151.061V360.83H218.211V353.05Z" fill="white"/>
<path d="M182.2 308.79H94.7903L81.4703 240C80.1903 233.39 84.5203 227 91.1303 225.72C91.9003 225.57 92.6903 225.5 93.4703 225.5H156C161.85 225.48 166.89 229.63 168 235.37L182.2 308.79Z" fill="#EA5B0B"/>
<path opacity="0.6" d="M182.2 308.79H94.7903L81.4703 240C80.1903 233.39 84.5203 227 91.1303 225.72C91.9003 225.57 92.6903 225.5 93.4703 225.5H156C161.85 225.48 166.89 229.63 168 235.37L182.2 308.79Z" fill="white"/>
<path opacity="0.2" d="M119.62 308.79H94.7903L81.4703 240C80.1903 233.39 84.5203 227 91.1303 225.72C91.9003 225.57 92.6903 225.5 93.4703 225.5C99.3203 225.48 104.36 229.63 105.47 235.37L119.62 308.79Z" fill="black"/>
<path d="M221.44 307.939H97.6205C94.2294 307.939 91.4805 310.688 91.4805 314.079V349.049C91.4805 352.44 94.2294 355.189 97.6205 355.189H221.44C224.831 355.189 227.58 352.44 227.58 349.049V314.079C227.58 310.688 224.831 307.939 221.44 307.939Z" fill="#EA5B0B"/>
<path opacity="0.6" d="M221.44 307.939H97.6205C94.2294 307.939 91.4805 310.688 91.4805 314.079V349.049C91.4805 352.44 94.2294 355.189 97.6205 355.189H221.44C224.831 355.189 227.58 352.44 227.58 349.049V314.079C227.58 310.688 224.831 307.939 221.44 307.939Z" fill="white"/>
<path opacity="0.2" d="M150.61 307.939H97.6205C94.2294 307.939 91.4805 310.688 91.4805 314.079V349.049C91.4805 352.44 94.2294 355.189 97.6205 355.189H150.61C154.001 355.189 156.75 352.44 156.75 349.049V314.079C156.75 310.688 154.001 307.939 150.61 307.939Z" fill="black"/>
<path d="M178.581 236.19C172.311 235.85 166.491 232.84 162.581 227.93C155.151 218.39 157.651 211.21 157.651 211.21H157.721C159.241 210.86 160.811 210.74 162.371 210.86C170.471 211.32 180.271 216.27 180.271 216.27C182.121 219.23 182.691 229.93 178.581 236.19Z" fill="#EA5B0B"/>
<path opacity="0.5" d="M178.581 236.19C172.311 235.85 166.491 232.84 162.581 227.93C155.151 218.39 157.651 211.21 157.651 211.21H157.721C159.241 210.86 160.811 210.74 162.371 210.86C170.471 211.32 180.271 216.27 180.271 216.27C182.121 219.23 182.691 229.93 178.581 236.19Z" fill="white"/>
<path d="M219.811 340.41L232.501 341.34L232.111 356.34L221.511 355.59L219.811 340.41Z" fill="#B55B52"/>
<path opacity="0.2" d="M219.82 340.42L232.51 341.34L232.29 349.75L220.76 348.92L219.82 340.42Z" fill="black"/>
<path d="M220 360.829H222.77L223.51 359.709L224.97 360.839H241.65C241.76 359.529 241.51 358.209 240.94 357.019C240.94 357.019 235.94 356.569 234.02 354.089C233.88 353.889 233.64 353.799 233.4 353.839C231.74 354.189 225.14 355.449 221.51 354.149C221.2 354.029 220.85 354.179 220.73 354.489C220.7 354.559 220.69 354.629 220.69 354.699C220.62 356.759 220.39 358.809 220 360.829Z" fill="#4A1E05"/>
<path d="M150.28 275.53C150.28 275.53 131.39 310.76 153.8 310.76C182 310.76 208.8 303.66 208.8 303.66C208.8 303.66 207.26 318.66 218.16 347.23L233.39 347.1C233.39 347.1 239.32 285.82 227.96 275.53C218.81 267.25 186.32 269.91 186.32 269.91L150.28 275.53Z" fill="#4A1E05"/>
<path opacity="0.4" d="M233.43 347.1L218.2 347.22C215.55 340.37 213.35 333.35 211.61 326.22C208.06 311.37 208.84 303.67 208.84 303.67C208.84 303.67 181.99 310.77 153.79 310.77C140.16 310.77 141.79 297.77 145.2 287.53C146.58 283.41 148.28 279.39 150.28 275.53L172.18 272.12L186.36 269.91C186.36 269.91 192.2 269.43 199.63 269.51C209.72 269.62 222.73 270.76 228 275.51C239.37 285.82 233.43 347.1 233.43 347.1Z" fill="white"/>
<path opacity="0.2" d="M212.19 324C212 324.74 211.81 325.47 211.61 326.18C208.06 311.33 208.84 303.63 208.84 303.63C208.84 303.63 181.99 310.73 153.79 310.73C140.16 310.73 141.79 297.73 145.2 287.49C154.81 281.39 164.95 275.86 172.2 272.09L186.38 269.88C186.38 269.88 192.22 269.4 199.65 269.48C210.62 274.42 221.18 287.94 212.19 324Z" fill="black"/>
<path d="M168.481 204.49L166.791 209.57C163.241 213.94 158.421 208.4 158.421 208.4L153.421 205.99C152.221 205.28 151.721 203.81 152.221 202.51L153.371 198.95C153.791 197.41 155.341 196.46 156.901 196.8L161.631 198.5C162.571 198.78 163.421 199.3 164.101 200L168.481 204.49Z" fill="#B55B52"/>
<path d="M185.52 270.399C169.13 279.459 127.43 272.889 119.97 271.619C119.04 259.279 117.79 243.619 113.86 229.019C112.11 222.669 115.83 216.099 122.18 214.349C122.4 214.289 122.63 214.229 122.86 214.179C134.43 211.909 146.21 210.929 158 211.239C162.14 211.389 166.59 213.399 167.92 217.329C174.06 235.429 183.74 250.139 185.52 270.399Z" fill="#EA5B0B"/>
<path d="M174.8 213.539C175.18 213.469 175.8 213.399 176.26 213.339C176.72 213.279 177.26 213.239 177.83 213.189C178.83 213.109 179.93 212.999 180.98 212.959L182.55 212.849L184.09 212.779L187.09 212.609L183.67 214.399C183.19 214.849 182.8 215.379 182.52 215.969C181.96 217.069 181.73 218.309 181.86 219.539C181.91 220.049 182.03 220.549 182.22 221.029C182.28 221.199 182.35 221.359 182.43 221.519L182.63 221.879L182.74 222.029L182.81 222.119L182.96 222.289C183.01 222.339 183.06 222.389 183.12 222.429C183.25 222.479 183.12 222.229 182.79 221.969C182.43 221.639 182.06 221.339 181.66 221.059C179.52 219.609 177.29 218.309 174.98 217.159C172.53 215.879 169.98 214.649 167.37 213.409C164.76 212.169 162.12 210.949 159.56 209.689L159.44 209.629C157.13 208.499 156.17 205.709 157.29 203.399C158.14 201.659 159.97 200.629 161.9 200.799C165.02 201.069 167.97 201.529 171 202.069C174.03 202.609 177 203.309 180 204.139C181.52 204.569 183 205.049 184.58 205.589C186.21 206.159 187.8 206.829 189.35 207.589C190.26 208.009 191.14 208.479 192 208.999C193.09 209.679 194.09 210.479 195 211.379C195.26 211.629 195.59 212.019 195.88 212.379C196.17 212.739 196.19 212.789 196.34 212.999L196.57 213.319L196.82 213.709C196.98 213.979 197.13 214.259 197.27 214.549C197.43 214.879 197.57 215.209 197.71 215.549C198.01 216.379 198.21 217.239 198.3 218.119C198.49 220.079 198.1 222.049 197.19 223.799C196.54 225.029 195.68 226.139 194.65 227.069C194.11 227.579 193.48 227.979 192.79 228.249L191.22 228.859C189.94 229.349 188.67 229.859 187.41 230.179C186.17 230.579 184.91 230.909 183.63 231.179C182.38 231.469 181.12 231.659 179.86 231.829C179.23 231.899 178.6 231.989 177.96 232.019C177.32 232.049 176.72 232.099 175.96 232.099C170.83 232.119 166.67 227.979 166.65 222.849C166.63 218.409 169.76 214.589 174.11 213.719L174.8 213.539Z" fill="#B65B52"/>
<path opacity="0.7" d="M185.52 270.399C169.13 279.459 127.43 272.889 119.97 271.619C119.72 268.369 119.45 264.879 119.12 261.239C118.6 255.569 117.93 249.529 116.92 243.429C116.13 238.609 115.13 233.759 113.86 229.019C112.11 222.669 115.83 216.099 122.18 214.349C122.4 214.289 122.63 214.229 122.86 214.179C134.43 211.909 146.21 210.929 158 211.239C162.14 211.389 166.59 213.399 167.92 217.329C174.06 235.429 183.74 250.139 185.52 270.399Z" fill="white"/>
<path d="M152.63 213.66C151.75 212.22 150.42 211.12 148.84 210.53C148.17 209.08 148.01 207.45 148.41 205.9L130.66 201.54C132.45 207.19 133.86 211.65 131.91 214.54C135.47 216.4 141.98 219.72 148.79 219.06C155.6 218.4 153.9 216 152.63 213.66Z" fill="#B55B52"/>
<path opacity="0.2" d="M148.311 206.439L135.221 206.559C139.591 210.639 145.881 211.859 148.581 209.899C148.201 208.789 148.101 207.599 148.311 206.439Z" fill="black"/>
<path d="M149.2 219.059L146.2 216.899L142.54 219.059C142.54 219.059 145.13 221.169 149.2 219.059Z" fill="#EA5B0B"/>
<path opacity="0.5" d="M149.2 219.059L146.2 216.899L142.54 219.059C142.54 219.059 145.13 221.169 149.2 219.059Z" fill="white"/>
<path d="M132.841 210.63C132.841 210.63 138.901 217.05 146.221 216.9C142.111 219.2 141.711 224.02 141.711 224.02C141.711 224.02 132.421 221.86 130.051 212.29C130.661 211.32 131.701 210.7 132.841 210.63Z" fill="#EA5B0B"/>
<path d="M149.2 219.059L152.2 215.979L156.35 216.919C156.35 216.919 153.51 220.599 149.2 219.059Z" fill="#EA5B0B"/>
<path opacity="0.5" d="M149.2 219.059L152.2 215.979L156.35 216.919C156.35 216.919 153.51 220.599 149.2 219.059Z" fill="white"/>
<path d="M148.841 210.53C148.841 210.53 151.901 213.62 152.201 215.98C155.681 216.72 157.661 221.61 157.661 221.61C157.661 221.61 157.801 214.42 152.181 210.92C151.131 210.46 149.971 210.32 148.841 210.53Z" fill="#EA5B0B"/>
<path opacity="0.8" d="M132.841 210.63C132.841 210.63 138.901 217.05 146.221 216.9C142.111 219.2 141.711 224.02 141.711 224.02C141.711 224.02 132.421 221.86 130.051 212.29C130.661 211.32 131.701 210.7 132.841 210.63Z" fill="white"/>
<path opacity="0.8" d="M148.841 210.53C148.841 210.53 151.901 213.62 152.201 215.98C155.681 216.72 157.661 221.61 157.661 221.61C157.661 221.61 157.801 214.42 152.181 210.92C151.131 210.46 149.971 210.32 148.841 210.53Z" fill="white"/>
<path d="M135.92 183.24C135.77 177.89 140.75 175.11 145.4 177.61C150.05 180.11 151.06 188.61 148.03 193.35C145 198.09 135.92 183.24 135.92 183.24Z" fill="#4A1E05"/>
<path d="M126.68 192.999C129.26 200.339 131.18 205.269 136.74 207.309C147.74 211.359 152.24 205.969 152.09 198.049C151.95 190.929 147.76 180.129 139.03 179.049C130.3 177.969 124.1 185.639 126.68 192.999Z" fill="#B55B52"/>
<path d="M132.36 188.68C134.82 190.68 136.36 200.38 132.89 200.46C130.5 200.48 128.11 200.33 125.74 200.02C125.74 200.02 121.18 198.64 123.16 191.81C125.14 184.98 132.36 188.68 132.36 188.68Z" fill="#4A1E05"/>
<path d="M125.731 201.84C127.261 203.27 129.301 204.04 131.391 203.97C134.171 203.85 134.721 201.15 133.251 198.97C131.931 196.97 128.881 194.7 126.431 195.88C123.981 197.06 123.881 200.06 125.731 201.84Z" fill="#B55B52"/>
<path d="M141.19 191C141.36 191.66 141.84 192.1 142.27 192C142.7 191.9 142.91 191.26 142.74 190.6C142.57 189.94 142.09 189.51 141.66 189.6C141.23 189.69 141 190.34 141.19 191Z" fill="#4A1E05"/>
<path d="M148.001 189.42C148.171 190.08 148.651 190.52 149.081 190.42C149.511 190.32 149.721 189.67 149.551 189.02C149.381 188.37 148.901 187.92 148.471 188.02C148.041 188.12 147.861 188.76 148.001 189.42Z" fill="#4A1E05"/>
<path d="M145.9 190.53L147.28 196.07C147.96 196.04 148.64 195.9 149.28 195.65C149.65 195.49 149.83 195.05 149.66 194.68C149.6 194.54 149.5 194.42 149.37 194.34C147.98 193.31 146.8 192.01 145.9 190.53Z" fill="#A02724"/>
<path d="M137.21 190C137.14 190.02 137.08 190.02 137.01 190C136.81 189.92 136.71 189.68 136.79 189.48C137.25 188.27 138.27 187.36 139.52 187.04C139.74 187 139.95 187.14 139.99 187.36C140.03 187.58 139.89 187.78 139.67 187.83C138.68 188.1 137.89 188.82 137.53 189.78C137.47 189.9 137.35 189.99 137.21 190Z" fill="#4A1E05"/>
<path d="M150.19 187C150.06 187.03 149.93 187 149.83 186.91C149.11 186.2 148.09 185.88 147.09 186.05C146.88 186.1 146.66 185.97 146.61 185.76C146.56 185.55 146.69 185.33 146.9 185.28C148.15 185.02 149.45 185.4 150.37 186.28C150.52 186.44 150.52 186.69 150.37 186.85C150.33 186.92 150.27 186.98 150.19 187Z" fill="#4A1E05"/>
<path d="M142.241 197.65C142.301 197.64 142.351 197.64 142.411 197.65C144.931 198.9 148.411 198.15 148.481 198.15C148.681 198.11 148.881 198.23 148.931 198.43C148.971 198.63 148.841 198.84 148.641 198.88C148.491 198.88 144.831 199.68 142.081 198.32C141.891 198.24 141.801 198.02 141.881 197.83C141.941 197.69 142.081 197.6 142.241 197.61V197.65Z" fill="#4A1E05"/>
<path d="M122.661 196.55C120.811 193.39 117.941 182.61 127.141 177.07C136.341 171.53 145.821 174.2 145.881 177.96C145.941 181.72 136.531 189.49 130.661 189.21C124.791 188.93 122.661 197.05 122.661 197.05" fill="#4A1E05"/>
<path d="M178.581 236.19C172.311 235.85 166.491 232.84 162.581 227.93C155.151 218.39 157.651 211.21 157.651 211.21H157.721C159.021 210.92 160.341 210.79 161.671 210.82L162.071 211.04C163.551 211.84 169.191 214.52 173.701 216.23C171.961 223.28 173.791 230.74 178.581 236.19Z" fill="#EA5B0B"/>
<path opacity="0.7" d="M178.581 236.19C172.311 235.85 166.491 232.84 162.581 227.93C155.151 218.39 157.651 211.21 157.651 211.21H157.721C159.021 210.92 160.341 210.79 161.671 210.82L162.071 211.04C163.551 211.84 169.191 214.52 173.701 216.23C171.961 223.28 173.791 230.74 178.581 236.19Z" fill="white"/>
<path d="M195.5 341.61L208.15 340.3L210.4 355.14L199.83 356.26L195.5 341.61Z" fill="#B55B52"/>
<path opacity="0.2" d="M195.5 341.62L208.16 340.3L209.41 348.62L197.92 349.82L195.5 341.62Z" fill="black"/>
<path d="M198 360.829H200.76L201.51 359.709L202.96 360.839H219.65C219.75 359.529 219.5 358.209 218.93 357.019C218.93 357.019 213.93 356.569 212.02 354.089C211.88 353.889 211.64 353.799 211.4 353.839C209.74 354.189 203.14 355.449 199.5 354.149C199.19 354.029 198.84 354.189 198.73 354.499C198.71 354.559 198.69 354.629 198.69 354.699C198.62 356.759 198.39 358.809 198 360.829Z" fill="#4A1E05"/>
<path d="M120.261 275.53C120.261 275.53 112.371 301.58 133.601 308.75C154.831 315.92 175.811 303.27 175.811 303.27C175.811 303.27 175.811 308.75 194.721 349.05L210.401 346.05C210.401 346.05 204.871 285.74 197.991 275.49C191.111 265.24 156.351 269.87 156.351 269.87L120.261 275.53Z" fill="#4A1E05"/>
<path opacity="0.4" d="M120.261 275.53C120.261 275.53 112.371 301.58 133.601 308.75C154.831 315.92 175.811 303.27 175.811 303.27C175.811 303.27 175.811 308.75 194.721 349.05L210.401 346.05C210.401 346.05 204.871 285.74 197.991 275.49C191.111 265.24 156.351 269.87 156.351 269.87L120.261 275.53Z" fill="white"/>
<path opacity="0.2" d="M119.12 261.24C118.6 255.57 117.93 249.53 116.92 243.43C122.62 239.68 128.15 236.85 128.15 236.85C128.15 236.85 135.72 259.37 119.12 261.24Z" fill="black"/>
<path d="M127.39 233.57L126.6 237.28L125.84 241.18C125.34 243.77 124.93 246.38 124.56 248.94C124.19 251.5 123.96 254.06 123.81 256.53C123.68 258.86 123.71 261.2 123.91 263.53L122.5 260.21C122.32 259.95 122.09 259.73 121.83 259.55C121.75 259.5 121.69 259.55 121.76 259.55C122 259.77 122.26 259.96 122.54 260.12C123.5 260.67 124.51 261.14 125.54 261.54C127.86 262.45 130.47 263.33 133.12 264.1C135.77 264.87 138.52 265.67 141.27 266.43C144.02 267.19 146.84 267.93 149.56 268.73H149.69C152.16 269.46 153.58 272.06 152.85 274.53C152.31 276.37 150.7 277.69 148.79 277.86C145.7 278.13 142.73 278.2 139.7 278.2C136.67 278.2 133.64 278.05 130.57 277.8C127.39 277.54 124.24 277.07 121.12 276.41C119.35 276.02 117.61 275.51 115.91 274.87C114.84 274.47 113.81 273.98 112.83 273.4C112.19 273.02 111.57 272.59 110.99 272.12C110.18 271.46 109.46 270.7 108.83 269.87C108.23 269.07 107.8 268.16 107.57 267.18L107.42 266.55C106.66 263.27 106.21 259.92 106.09 256.55C106.02 254.93 106 253.33 106.02 251.74C106.04 250.15 106.15 248.59 106.26 247.03C106.48 243.92 106.89 240.87 107.4 237.85C107.67 236.34 107.94 234.85 108.28 233.33C108.45 232.58 108.62 231.83 108.81 231.08L109.45 228.71C110.92 223.81 116.09 221.02 120.99 222.49C125.51 223.85 128.29 228.38 127.45 233.03L127.39 233.57Z" fill="#B65B52"/>
<path d="M147.521 269.31L146.051 274.46C146.521 280.07 153.621 278.22 153.621 278.22L157.401 278.7C158.791 278.79 160.041 277.87 160.351 276.51L161.401 272.92C161.921 271.41 161.181 269.76 159.701 269.16L156.521 268.16C155.601 267.88 154.621 267.83 153.671 268.03L147.521 269.31Z" fill="#B55B52"/>
<path d="M120.71 214.84C110 217.18 104.52 233 103.23 248.47C103.23 248.47 112.66 252.14 126.71 250.78C126.71 250.78 129.14 234.05 128.18 225.52C127.22 216.99 120.71 214.84 120.71 214.84Z" fill="#EA5B0B"/>
<path opacity="0.7" d="M120.71 214.84C110 217.18 104.52 233 103.23 248.47C103.23 248.47 112.66 252.14 126.71 250.78C126.71 250.78 129.14 234.05 128.18 225.52C127.22 216.99 120.71 214.84 120.71 214.84Z" fill="white"/>
<path opacity="0.2" d="M175.31 235.77C175.31 235.77 170.66 230.18 168.38 228.49C168.38 228.49 175.42 230 175.31 235.77Z" fill="black"/>
<path d="M332.11 135.54H289.38C284.49 135.54 280.53 139.5 280.53 144.39V169.39C280.53 174.28 284.49 178.24 289.38 178.24H317.78L330.78 192.14L323.78 178.24H332.16C337.05 178.24 341.01 174.28 341.01 169.39V144.39C341.01 139.5 337.05 135.54 332.16 135.54C332.14 135.54 332.13 135.54 332.11 135.54Z" fill="#EA5B0B"/>
<path opacity="0.7" d="M332.11 135.54H289.38C284.49 135.54 280.53 139.5 280.53 144.39V169.39C280.53 174.28 284.49 178.24 289.38 178.24H317.78L330.78 192.14L323.78 178.24H332.16C337.05 178.24 341.01 174.28 341.01 169.39V144.39C341.01 139.5 337.05 135.54 332.16 135.54C332.14 135.54 332.13 135.54 332.11 135.54Z" fill="white"/>
<path d="M313.461 169.496C323.339 165.404 328.03 154.079 323.938 144.201C319.846 134.322 308.521 129.631 298.643 133.723C288.765 137.815 284.074 149.14 288.166 159.018C292.257 168.896 303.582 173.587 313.461 169.496Z" fill="#EA5B0B"/>
<path opacity="0.3" d="M312.374 166.872C320.803 163.381 324.806 153.717 321.315 145.288C317.823 136.858 308.159 132.856 299.73 136.347C291.301 139.839 287.298 149.502 290.79 157.931C294.281 166.361 303.945 170.364 312.374 166.872Z" fill="white"/>
<path d="M307.241 160.52V163.31H305.241V160.55C303.041 160.49 300.921 159.77 299.141 158.48L300.261 155.97C301.711 157.06 303.451 157.72 305.261 157.86V152.86C302.491 152.19 299.531 151.29 299.531 147.86C299.531 145.32 301.371 143.11 305.261 142.74V139.92H307.261V142.69C309.041 142.76 310.781 143.28 312.311 144.2L311.311 146.72C310.081 146 308.721 145.54 307.311 145.37V150.37C310.071 151.04 313.081 151.92 313.081 155.37C313.001 157.94 311.151 160.13 307.241 160.52ZM305.241 149.87V145.44C303.471 145.71 302.721 146.61 302.721 147.7C302.721 148.79 303.751 149.45 305.201 149.87H305.241ZM309.871 155.62C309.871 154.4 308.771 153.83 307.281 153.4V157.81C309.051 157.54 309.831 156.69 309.831 155.62H309.871Z" fill="#EA5B0B"/>
<path d="M329.46 152.101H319.75V153.801H329.46V152.101Z" fill="#EA5B0B"/>
<path d="M329.46 154.82H319.75V155.74H329.46V154.82Z" fill="#EA5B0B"/>
<path d="M319.75 151.63H329.45V140H333.33L324.6 128L315.87 140H319.75V151.63Z" fill="#EA5B0B"/>
<path d="M329.46 157.021H319.75V157.48H329.46V157.021Z" fill="#EA5B0B"/>
<g opacity="0.3">
<path d="M329.46 152.1H319.75V153.8H329.46V152.1Z" fill="black"/>
<path d="M329.46 154.82H319.75V155.74H329.46V154.82Z" fill="black"/>
<path d="M319.75 151.63H329.45V140H333.33L324.6 128L315.87 140H319.75V151.63Z" fill="black"/>
<path d="M329.46 157.02H319.75V157.48H329.46V157.02Z" fill="black"/>
</g>
<path d="M211.92 135.54H169.19C164.3 135.54 160.34 139.5 160.34 144.39V169.39C160.34 174.28 164.3 178.24 169.19 178.24H177.57L170.57 192.14L183.57 178.24H211.97C216.86 178.24 220.82 174.28 220.82 169.39V144.39C220.82 139.5 216.86 135.54 211.97 135.54C211.95 135.54 211.94 135.54 211.92 135.54Z" fill="#EA5B0B"/>
<path opacity="0.7" d="M211.92 135.54H169.19C164.3 135.54 160.34 139.5 160.34 144.39V169.39C160.34 174.28 164.3 178.24 169.19 178.24H177.57L170.57 192.14L183.57 178.24H211.97C216.86 178.24 220.82 174.28 220.82 169.39V144.39C220.82 139.5 216.86 135.54 211.97 135.54C211.95 135.54 211.94 135.54 211.92 135.54Z" fill="white"/>
<path d="M209.32 141L211.18 140.47L210.5 136.8L208.58 136.97C208.11 135.81 207.43 134.75 206.58 133.84L207.52 132.15L204.41 130L203.16 131.49C202 131 200.77 130.73 199.51 130.7L198.99 128.85L195.32 129.52L195.49 131.45C194.33 131.91 193.27 132.59 192.36 133.45L190.66 132.51L188.55 135.59L190.03 136.83C189.54 137.99 189.28 139.23 189.25 140.48L187.39 141.01L188.07 144.68L189.99 144.51C190.46 145.67 191.14 146.73 191.99 147.64L191.05 149.33L194.12 151.44L195.37 149.96C196.53 150.45 197.76 150.72 199.02 150.74L199.54 152.6L203.22 151.92L203.04 150C204.2 149.54 205.26 148.86 206.17 148L207.87 148.95L209.98 145.87L208.5 144.63C209 143.48 209.28 142.25 209.32 141ZM200.2 145.74C197.46 146.24 194.83 144.42 194.33 141.68C193.83 138.94 195.65 136.31 198.39 135.81C201.13 135.31 203.75 137.12 204.26 139.86C204.78 142.57 203 145.19 200.29 145.71C200.26 145.71 200.23 145.72 200.2 145.73V145.75V145.74Z" fill="#EA5B0B"/>
<path opacity="0.6" d="M181.21 155.999C182.05 155.649 182.81 155.159 183.46 154.529L184.67 155.209L186.19 152.999L185.12 152.109C185.48 151.279 185.67 150.389 185.69 149.489L187.02 149.109L186.53 146.469L185.15 146.589C184.81 145.759 184.31 144.989 183.69 144.339L184.37 143.129L182.16 141.609L181.26 142.679C180.43 142.319 179.54 142.129 178.64 142.109L178.26 140.779L175.62 141.269L175.75 142.649C174.91 142.989 174.15 143.479 173.5 144.109L172.28 143.429L170.76 145.639L171.83 146.529C171.48 147.359 171.29 148.259 171.27 149.159L169.93 149.539L170.42 152.169L171.8 152.049C172.14 152.879 172.64 153.649 173.26 154.299L172.59 155.519L174.8 157.039L175.69 155.969C176.52 156.319 177.41 156.509 178.31 156.529L178.69 157.869L181.33 157.379L181.21 155.999ZM179.14 152.889C177.17 153.249 175.28 151.949 174.91 149.979C174.55 148.009 175.85 146.119 177.82 145.749C179.79 145.389 181.68 146.689 182.05 148.659C182.44 150.619 181.17 152.529 179.21 152.919C179.19 152.919 179.17 152.919 179.14 152.929V152.889Z" fill="#EA5B0B"/>
<path opacity="0.5" d="M203.2 163L202.62 159.86L201 160C200.59 159.01 200 158.1 199.26 157.32L200.07 155.88L197.4 154L196.34 155.27C195.35 154.85 194.29 154.62 193.22 154.6L192.77 153.01L189.63 153.59L189.77 155.23C188.78 155.65 187.87 156.25 187.1 157L185.65 156.2L183.84 158.83L185.11 159.89C184.69 160.88 184.46 161.94 184.44 163.01L182.85 163.47L183.43 166.61L185.08 166.46C185.49 167.45 186.08 168.36 186.82 169.14L186.01 170.58L188.64 172.39L189.7 171.12C190.69 171.54 191.75 171.77 192.83 171.79L193.28 173.38L196.42 172.8L196.27 171.16C197.27 170.75 198.18 170.16 198.95 169.41L200.4 170.22L202.21 167.59L200.94 166.53C201.36 165.54 201.58 164.48 201.61 163.4L203.2 163ZM193.81 167.51C191.46 167.95 189.21 166.4 188.77 164.06C188.33 161.71 189.88 159.46 192.22 159.02C194.57 158.58 196.82 160.13 197.26 162.47C197.26 162.48 197.26 162.5 197.26 162.51C197.64 164.83 196.11 167.03 193.8 167.47V167.51H193.81Z" fill="#EA5B0B"/>
<path d="M415.14 335.16C415.14 335.16 414.68 309.37 426.82 297.78C438.96 286.19 418.22 295.96 413.7 308.13C413.7 308.13 414.9 285.05 427.22 271.03C439.54 257.01 419.69 266.64 415.08 282.65C415.08 282.65 416.08 262.05 422.54 251.65C429 241.25 420.16 247.02 415.95 253.53C411.74 260.04 412.11 278.25 412.11 278.25C412.11 278.25 410.91 244.48 403.38 245.7C395.85 246.92 409.32 271.49 409.63 282.98C409.63 282.98 404.19 266.55 397.31 268.42C390.43 270.29 406.16 274.92 409.24 298.42L409.81 309.28C409.81 309.28 405.01 293.17 399.13 296.83C393.25 300.49 411.49 312.27 411.81 335.34L415.14 335.16Z" fill="#EA5B0B"/>
<path opacity="0.2" d="M415.14 335.16C415.14 335.16 414.68 309.37 426.82 297.78C438.96 286.19 418.22 295.96 413.7 308.13C413.7 308.13 414.9 285.05 427.22 271.03C439.54 257.01 419.69 266.64 415.08 282.65C415.08 282.65 416.08 262.05 422.54 251.65C429 241.25 420.16 247.02 415.95 253.53C411.74 260.04 412.11 278.25 412.11 278.25C412.11 278.25 410.91 244.48 403.38 245.7C395.85 246.92 409.32 271.49 409.63 282.98C409.63 282.98 404.19 266.55 397.31 268.42C390.43 270.29 406.16 274.92 409.24 298.42L409.81 309.28C409.81 309.28 405.01 293.17 399.13 296.83C393.25 300.49 411.49 312.27 411.81 335.34L415.14 335.16Z" fill="black"/>
<path d="M400.049 360.831H430.959L435.069 330.771H395.939L400.049 360.831Z" fill="#4A1E05"/>
<path opacity="0.2" d="M400.049 360.831H430.959L435.069 330.771H395.939L400.049 360.831Z" fill="white"/>
<path d="M414.23 334.001C414.23 334.001 417.47 313.351 409.01 302.711C400.55 292.071 416.11 302.201 418.39 312.461C418.39 312.461 419.98 293.811 411.66 281.191C403.34 268.571 418.18 278.501 420.11 291.861C420.11 291.861 421.57 275.221 417.56 266.121C413.55 257.021 419.98 262.671 422.64 268.361C425.3 274.051 422.99 288.631 422.99 288.631C422.99 288.631 427.69 261.631 433.59 263.471C439.49 265.311 425.98 283.471 424.45 292.701C424.45 292.701 430.64 280.111 435.96 282.381C441.28 284.651 428.13 286.621 423.05 305.161L421.38 313.821C421.38 313.821 427.03 301.421 431.38 305.011C435.73 308.601 419.74 316.011 416.93 334.511L414.23 334.001Z" fill="#EA5B0B"/>
<path d="M438.94 328.33V331.19C438.94 333.1 437.41 334.64 435.5 334.65C435.5 334.65 435.49 334.65 435.48 334.65H395.14C393.23 334.65 391.68 333.11 391.67 331.2V328.33H438.94Z" fill="#4A1E05"/>
<path d="M87.0701 329.379H86.1201C86.1201 327.979 87.2901 294.929 93.0401 289.379C98.9501 283.629 105.9 289.289 105.96 289.379L105.36 290.109C105.1 289.889 99.0001 284.929 93.7001 290.109C88.2201 295.319 87.0801 328.999 87.0701 329.379Z" fill="#EA5B0B"/>
<path d="M86.6005 335.999L85.6505 335.909C85.6505 335.509 89.3705 295.789 74.9805 279.279L75.6905 278.659C90.3505 295.489 86.6305 335.609 86.6005 335.999Z" fill="#EA5B0B"/>
<path d="M87.05 331.77C86.93 329.9 84.16 285.77 95.22 275.58L95.86 276.27C85.13 286.14 87.96 331.27 87.99 331.71L87.05 331.77Z" fill="#EA5B0B"/>
<path d="M85.6504 331.74C85.6504 331.44 85.3104 301.74 77.4404 297.27C76.0804 296.38 74.3704 296.2 72.8604 296.8C68.2504 298.71 65.8003 307.51 65.7703 307.6L64.8604 307.35C64.9704 306.97 67.4604 298.01 72.5004 295.93C74.2804 295.22 76.3004 295.41 77.9104 296.45C86.2404 301.22 86.5903 330.45 86.6003 331.74H85.6504Z" fill="#EA5B0B"/>
<path d="M88.8902 331.77C88.8302 330.77 87.6202 308.32 93.9902 300C95.6902 297.79 97.5702 296.74 99.6102 296.88C104.14 297.2 107.61 303.34 107.8 303.6L106.98 304.06C106.98 304 103.56 298.06 99.5402 297.82C97.8502 297.7 96.2302 298.63 94.7402 300.57C88.5802 308.62 89.8202 331.48 89.8302 331.71L88.8902 331.77Z" fill="#EA5B0B"/>
<path d="M87.6201 334.88L86.6801 334.81C86.6801 334.27 90.6801 280.68 84.0801 271.75L84.8401 271.18C91.6601 280.4 87.7901 332.66 87.6201 334.88Z" fill="#EA5B0B"/>
<path d="M70.6704 301.26C70.6704 301.26 74.7504 302.76 73.5404 306.32C72.3304 309.88 59.4104 315.72 59.4104 315.72C59.4104 315.72 54.0004 310.72 58.9704 302.72C63.9404 294.72 70.5604 298.72 70.6704 301.26Z" fill="#EA5B0B"/>
<path opacity="0.2" d="M70.6704 301.26C70.6704 301.26 74.7504 302.76 73.5404 306.32C72.3304 309.88 59.4104 315.72 59.4104 315.72C59.4104 315.72 54.0004 310.72 58.9704 302.72C63.9404 294.72 70.5604 298.72 70.6704 301.26Z" fill="black"/>
<path d="M88.4202 294.489C88.4202 294.489 84.0702 294.309 83.8202 298.059C83.5702 301.809 93.2402 312.169 93.2402 312.169C93.2402 312.169 100.14 309.679 98.6602 300.329C97.1802 290.979 89.5002 292.189 88.4202 294.489Z" fill="#EA5B0B"/>
<path opacity="0.2" d="M88.4202 294.489C88.4202 294.489 84.0702 294.309 83.8202 298.059C83.5702 301.809 93.2402 312.169 93.2402 312.169C93.2402 312.169 100.14 309.679 98.6602 300.329C97.1802 290.979 89.5002 292.189 88.4202 294.489Z" fill="black"/>
<path d="M92.1 276.559C92.1 276.559 89.2 276.249 89.43 274.479C89.66 272.709 100.7 268.169 107.21 275.479C107.21 275.479 103.04 282.639 97.02 282.729C91 282.819 92.1 276.559 92.1 276.559Z" fill="#EA5B0B"/>
<path opacity="0.2" d="M92.1 276.559C92.1 276.559 89.2 276.249 89.43 274.479C89.66 272.709 100.7 268.169 107.21 275.479C107.21 275.479 103.04 282.639 97.02 282.729C91 282.819 92.1 276.559 92.1 276.559Z" fill="black"/>
<path d="M86.7 272.27C86.7 272.27 89.32 273.54 90.06 271.92C90.8 270.3 83.83 260.6 74.42 263.39C74.42 263.39 74.17 271.68 79.24 274.94C84.31 278.2 86.7 272.27 86.7 272.27Z" fill="#EA5B0B"/>
<path opacity="0.2" d="M86.7 272.27C86.7 272.27 89.32 273.54 90.06 271.92C90.8 270.3 83.83 260.6 74.42 263.39C74.42 263.39 74.17 271.68 79.24 274.94C84.31 278.2 86.7 272.27 86.7 272.27Z" fill="black"/>
<path d="M100.421 299.83C100.421 299.83 98.4209 298.22 100.581 297.43C102.741 296.64 113.331 296.86 113.441 307.36C113.441 307.36 101.111 309.41 99.5809 305.41C98.0509 301.41 100.421 299.83 100.421 299.83Z" fill="#EA5B0B"/>
<path opacity="0.2" d="M100.421 299.83C100.421 299.83 98.4209 298.22 100.581 297.43C102.741 296.64 113.331 296.86 113.441 307.36C113.441 307.36 101.111 309.41 99.5809 305.41C98.0509 301.41 100.421 299.83 100.421 299.83Z" fill="black"/>
<path d="M75.2602 276.29C75.2602 276.29 77.2602 274.68 75.1002 273.89C72.9402 273.1 62.3502 273.33 62.2402 283.82C62.2402 283.82 74.5802 285.87 76.1102 281.87C77.6402 277.87 75.2602 276.29 75.2602 276.29Z" fill="#EA5B0B"/>
<path opacity="0.2" d="M75.2602 276.29C75.2602 276.29 77.2602 274.68 75.1002 273.89C72.9402 273.1 62.3502 273.33 62.2402 283.82C62.2402 283.82 74.5802 285.87 76.1102 281.87C77.6402 277.87 75.2602 276.29 75.2602 276.29Z" fill="black"/>
<path d="M81.78 284.749C81.78 284.749 81.96 282.749 80.38 283.549C78.8 284.349 73.27 290.279 78.99 295.939C78.99 295.939 86.7 290.229 85.31 287.259C83.92 284.289 81.78 284.749 81.78 284.749Z" fill="#EA5B0B"/>
<path opacity="0.2" d="M81.78 284.749C81.78 284.749 81.96 282.749 80.38 283.549C78.8 284.349 73.27 290.279 78.99 295.939C78.99 295.939 86.7 290.229 85.31 287.259C83.92 284.289 81.78 284.749 81.78 284.749Z" fill="black"/>
<path d="M102.211 287.549C102.211 287.549 101.011 285.979 102.771 285.779C104.531 285.579 112.371 287.689 110.541 295.519C110.541 295.519 100.981 294.799 100.541 291.519C100.101 288.239 102.211 287.549 102.211 287.549Z" fill="#EA5B0B"/>
<path opacity="0.2" d="M102.211 287.549C102.211 287.549 101.011 285.979 102.771 285.779C104.531 285.579 112.371 287.689 110.541 295.519C110.541 295.519 100.981 294.799 100.541 291.519C100.101 288.239 102.211 287.549 102.211 287.549Z" fill="black"/>
<path d="M71.3805 360.83H102.301L106.411 330.77H67.2705L71.3805 360.83Z" fill="#4A1E05"/>
<path opacity="0.2" d="M71.3805 360.83H102.301L106.411 330.77H67.2705L71.3805 360.83Z" fill="white"/>
<path d="M110.28 328.33V331.19C110.28 333.1 108.73 334.65 106.82 334.65H66.47C64.56 334.65 63.01 333.11 63 331.2V328.34H110.28V328.33Z" fill="#4A1E05"/>
</g>
<defs>
<clipPath id="clip0_2270_7503">
<rect width="500" height="372.56" fill="white"/>
</clipPath>
</defs>
</svg>
