<svg width="412" height="307" viewBox="0 0 412 307" fill="none" xmlns="http://www.w3.org/2000/svg">
<g clip-path="url(#clip0_2270_7855)">
<path d="M412 269.787H0V269.993H412V269.787Z" fill="#E6E6E6"/>
<path d="M311.192 278.514H282.847V278.72H311.192V278.514Z" fill="#E6E6E6"/>
<path d="M91.4966 278.612H75.5439V278.818H91.4966V278.612Z" fill="#E6E6E6"/>
<path d="M206.824 278.135H174.49V278.341H206.824V278.135Z" fill="#E6E6E6"/>
<path d="M173.666 275.201H159.213V275.407H173.666V275.201Z" fill="#E6E6E6"/>
<path d="M349.838 275.3H306.174V275.506H349.838V275.3Z" fill="#E6E6E6"/>
<path d="M195.288 233.035H36.1822C33.5866 233.035 31.4854 230.926 31.4854 228.33V4.664C31.5101 2.08479 33.603 0.00824028 36.1822 0H195.288C197.884 0 199.993 2.10951 199.993 4.7052V228.33C199.993 230.926 197.884 233.035 195.288 233.035ZM36.1822 0.164806C33.7019 0.164806 31.6914 2.18367 31.6914 4.664V228.33C31.6914 230.81 33.7019 232.821 36.1822 232.829H195.288C197.769 232.829 199.779 230.81 199.787 228.33V4.664C199.787 2.18367 197.769 0.173046 195.288 0.164806H36.1822Z" fill="#E6E6E6"/>
<path d="M373.527 233.035H214.413C211.817 233.035 209.716 230.926 209.708 228.33V4.664C209.733 2.08479 211.834 0.00824028 214.413 0H373.527C376.107 0.00824028 378.191 2.08479 378.216 4.664V228.33C378.216 230.926 376.123 233.027 373.527 233.035ZM214.413 0.164806C211.933 0.164806 209.922 2.18367 209.914 4.664V228.33C209.914 230.81 211.933 232.821 214.413 232.829H373.527C376.008 232.829 378.018 230.81 378.026 228.33V4.664C378.026 2.18367 376.008 0.173046 373.527 0.164806H214.413Z" fill="#E6E6E6"/>
<path d="M348.577 15.3516H236.282V146.207H348.577V15.3516Z" fill="#E0E0E0"/>
<path d="M351.626 15.3516H237.708V146.207H351.626V15.3516Z" fill="#F5F5F5"/>
<path d="M348.577 146.199H236.282V153.533H348.577V146.199Z" fill="#E0E0E0"/>
<path d="M365.584 146.199H258.341V153.533H365.584V146.199Z" fill="#F5F5F5"/>
<path d="M347.357 20.8975H241.984V140.654H347.357V20.8975Z" fill="#FAFAFA"/>
<path d="M257.138 140.654L282.22 20.8975H315.098L290.015 140.654H257.138Z" fill="white"/>
<path d="M295.338 140.654L320.412 20.8975H335.261L310.186 140.654H295.338Z" fill="white"/>
<path d="M233.076 15.1621V61.7527H245.436C245.436 61.7527 267.577 47.3074 272.628 17.5847C273.081 14.8902 271.269 12.3439 268.574 11.8825C268.302 11.8413 268.038 11.8165 267.767 11.8165H236.455C234.601 11.8001 233.093 13.2916 233.076 15.1456C233.076 15.1456 233.076 15.1539 233.076 15.1621Z" fill="#E0E0E0"/>
<path d="M233.076 136.434V65.5098H245.436C245.436 65.5098 252.523 79.8314 259.584 96.2955C265.847 110.914 259.082 127.839 244.472 134.102C240.879 135.643 237.015 136.434 233.109 136.434H233.076Z" fill="#E0E0E0"/>
<path d="M245.041 61.7529H233.53C232.847 61.7529 232.294 62.3063 232.294 62.989V64.2745C232.294 64.9571 232.847 65.5105 233.53 65.5105H245.041C245.724 65.5105 246.277 64.9571 246.277 64.2745V62.989C246.277 62.3063 245.724 61.7529 245.041 61.7529Z" fill="#F5F5F5"/>
<path d="M355.144 15.1621V61.7527H342.784C342.784 61.7527 320.635 47.3074 315.592 17.5847C315.139 14.8902 316.952 12.3439 319.646 11.8825C319.91 11.8413 320.182 11.8165 320.445 11.8165H351.757C353.611 11.8001 355.127 13.2833 355.144 15.1374C355.144 15.1456 355.144 15.1539 355.144 15.1621Z" fill="#E0E0E0"/>
<path d="M355.226 136.45V65.5264H342.866C342.866 65.5264 335.78 79.8397 328.71 96.3121C322.472 110.972 329.295 127.905 343.945 134.143C347.505 135.659 351.328 136.442 355.193 136.45H355.226Z" fill="#E0E0E0"/>
<path d="M354.666 61.7529H343.155C342.472 61.7529 341.919 62.3063 341.919 62.989V64.2745C341.919 64.9571 342.472 65.5105 343.155 65.5105H354.666C355.349 65.5105 355.902 64.9571 355.902 64.2745V62.989C355.902 62.3063 355.349 61.7529 354.666 61.7529Z" fill="#F5F5F5"/>
<path d="M165.533 73.001H116.068V127.148H165.533V73.001Z" fill="#E0E0E0"/>
<path d="M172.488 73.001H118.747V127.148H172.488V73.001Z" fill="#FAFAFA"/>
<path d="M166.943 78.5459H124.284V121.61H166.943V78.5459Z" fill="white"/>
<path d="M134.312 100.079C134.312 94.4588 138.868 89.9102 144.488 89.9102H146.779C152.39 89.9102 156.939 94.467 156.947 100.079C156.947 105.699 152.398 110.247 146.779 110.247H144.488C138.868 110.247 134.32 105.707 134.312 100.087V100.079Z" fill="#F5F5F5"/>
<path d="M76.0058 85.9216C61.6682 85.9216 50.0498 74.3028 50.0498 59.9647C50.0498 45.6266 61.6682 34.0078 76.0058 34.0078H80.6944V85.9216H76.0058Z" fill="#E0E0E0"/>
<path d="M80.6944 85.9218C95.0204 85.9218 106.634 74.3079 106.634 59.9814C106.634 45.6549 95.0204 34.041 80.6944 34.041C66.3684 34.041 54.7549 45.6549 54.7549 59.9814C54.7549 74.3079 66.3684 85.9218 80.6944 85.9218Z" fill="#FAFAFA"/>
<path d="M80.6946 79.5438C91.4982 79.5438 100.256 70.7854 100.256 59.9814C100.256 49.1773 91.4982 40.4189 80.6946 40.4189C69.8909 40.4189 61.1328 49.1773 61.1328 59.9814C61.1328 70.7854 69.8909 79.5438 80.6946 79.5438Z" fill="white"/>
<path d="M88.7533 67.298L79.1455 60.5904L82.1943 45.7744L84.9135 46.3348L82.2355 59.3626L90.3437 65.0155L88.7533 67.298Z" fill="#E0E0E0"/>
<path d="M290.329 177.166H254.971V272.704H290.329V177.166Z" fill="#E0E0E0"/>
<path d="M280.886 272.704H290.329V256.883H270.989L280.886 272.704Z" fill="#FAFAFA"/>
<path d="M78.3539 177.166H42.9961V272.704H78.3539V177.166Z" fill="#E0E0E0"/>
<path d="M290.337 177.166H70.1143V267.257H290.337V177.166Z" fill="#FAFAFA"/>
<path d="M79.5573 272.704H70.1143V256.883H89.4535L79.5573 272.704Z" fill="#FAFAFA"/>
<path d="M283.011 184.912H77.4395V218.071H283.011V184.912Z" fill="#F0F0F0"/>
<path d="M283.011 226.089H77.4395V259.248H283.011V226.089Z" fill="#F0F0F0"/>
<path d="M252.869 184.912H77.4395V218.071H252.869V184.912Z" fill="#E0E0E0"/>
<path d="M131.461 189.387H120.79C120.79 189.387 122.644 195.789 122.644 199.555C122.644 203.321 114.528 218.079 126.13 218.079C137.732 218.079 129.607 203.321 129.607 199.555C129.607 195.789 131.461 189.387 131.461 189.387Z" fill="#FAFAFA"/>
<path d="M89.4531 200.511V206.337C89.4531 212.797 95.699 218.079 103.329 218.079H110.21C117.84 218.079 124.086 212.797 124.086 206.337V200.511H89.4531Z" fill="#F0F0F0"/>
<path d="M252.869 226.089H77.4395V259.248H252.869V226.089Z" fill="#E0E0E0"/>
<path d="M192.395 231.28H175.965V258.646H192.395V231.28Z" fill="white"/>
<path d="M190.954 231.709H189.833V259.075H190.954V231.709Z" fill="#E6E6E6"/>
<path d="M193.904 231.494H191.036C190.818 231.494 190.641 231.671 190.641 231.89V258.885C190.641 259.103 190.818 259.28 191.036 259.28H193.904C194.122 259.28 194.299 259.103 194.299 258.885V231.89C194.299 231.671 194.122 231.494 193.904 231.494Z" fill="#EBEBEB"/>
<path d="M194.299 237.839H190.641V244.332H194.299V237.839Z" fill="white"/>
<path d="M194.299 246.335H190.641V250.34H194.299V246.335Z" fill="white"/>
<path d="M189.932 231.494H175.125C174.907 231.494 174.729 231.671 174.729 231.89V258.885C174.729 259.103 174.907 259.28 175.125 259.28H189.932C190.151 259.28 190.328 259.103 190.328 258.885V231.89C190.328 231.671 190.151 231.494 189.932 231.494Z" fill="#EBEBEB"/>
<path d="M186.075 228.388H167.947V258.58H186.075V228.388Z" fill="white"/>
<path d="M184.493 228.857H183.266V259.05H184.493V228.857Z" fill="#E6E6E6"/>
<path d="M187.748 228.627H184.584C184.343 228.627 184.147 228.822 184.147 229.064V258.844C184.147 259.085 184.343 259.281 184.584 259.281H187.748C187.99 259.281 188.185 259.085 188.185 258.844V229.064C188.185 228.822 187.99 228.627 187.748 228.627Z" fill="#F0F0F0"/>
<path d="M188.185 238.392H184.147V239.438H188.185V238.392Z" fill="white"/>
<path d="M188.185 241.424H184.147V242.47H188.185V241.424Z" fill="white"/>
<path d="M188.185 244.448H184.147V245.495H188.185V244.448Z" fill="white"/>
<path d="M183.365 228.627H167.033C166.792 228.627 166.597 228.822 166.597 229.064V258.844C166.597 259.085 166.792 259.281 167.033 259.281H183.365C183.606 259.281 183.802 259.085 183.802 258.844V229.064C183.802 228.822 183.606 228.627 183.365 228.627Z" fill="#F0F0F0"/>
<path d="M145.617 248.766C145.617 251.329 143.541 253.414 140.978 253.422C138.415 253.422 136.331 251.345 136.322 248.783C136.314 246.22 138.399 244.135 140.961 244.127C143.524 244.127 145.601 246.204 145.609 248.766H145.617Z" fill="#FAFAFA"/>
<path d="M137.698 250.983C137.698 252.993 136.075 254.617 134.065 254.617C132.054 254.617 130.431 252.993 130.431 250.983C130.431 248.972 132.054 247.349 134.065 247.349C136.067 247.349 137.69 248.98 137.698 250.983Z" fill="#FAFAFA"/>
<path d="M153.569 250.982C153.569 253.545 151.484 255.63 148.922 255.63C146.359 255.63 144.274 253.545 144.274 250.982C144.274 248.42 146.359 246.335 148.922 246.335C151.484 246.335 153.561 248.42 153.569 250.982Z" fill="#FAFAFA"/>
<path d="M161.182 249.623C161.182 252.186 159.098 254.271 156.535 254.271C153.972 254.271 151.888 252.186 151.888 249.623C151.888 247.06 153.972 244.976 156.535 244.976C159.098 244.976 161.182 247.06 161.182 249.623Z" fill="#FAFAFA"/>
<path d="M121.276 250.225C121.276 250.225 121.911 259.289 146.359 259.289C170.807 259.289 171.441 250.225 171.441 250.225H121.276Z" fill="#F5F5F5"/>
<path d="M189.833 209.015C189.833 209.015 190.847 218.079 229.591 218.079C268.335 218.079 269.341 209.015 269.341 209.015H189.833Z" fill="white"/>
<path d="M206 307C294.236 307 365.765 302.823 365.765 297.672C365.765 292.52 294.236 288.344 206 288.344C117.764 288.344 46.2344 292.52 46.2344 297.672C46.2344 302.823 117.764 307 206 307Z" fill="#F5F5F5"/>
<path d="M89.5028 187.211C114.15 187.211 134.131 167.23 134.131 142.582C134.131 117.933 114.15 97.9521 89.5028 97.9521C64.8556 97.9521 44.875 117.933 44.875 142.582C44.875 167.23 64.8556 187.211 89.5028 187.211Z" fill="#EA5B0B"/>
<path opacity="0.4" d="M89.5028 187.211C114.15 187.211 134.131 167.23 134.131 142.582C134.131 117.933 114.15 97.9521 89.5028 97.9521C64.8556 97.9521 44.875 117.933 44.875 142.582C44.875 167.23 64.8556 187.211 89.5028 187.211Z" fill="black"/>
<path opacity="0.2" d="M89.5107 180.058C110.208 180.058 126.986 163.279 126.986 142.581C126.986 121.883 110.208 105.104 89.5107 105.104C68.8135 105.104 52.0352 121.883 52.0352 142.581C52.0352 163.279 68.8135 180.058 89.5107 180.058Z" fill="black"/>
<path d="M128.239 146.163C129.628 126.292 114.646 109.057 94.776 107.668C74.9055 106.278 57.671 121.26 56.2815 141.131C54.892 161.003 69.8738 178.238 89.7443 179.627C109.615 181.017 126.849 166.035 128.239 146.163Z" fill="#EA5B0B"/>
<path opacity="0.4" d="M128.239 146.163C129.628 126.292 114.646 109.057 94.776 107.668C74.9055 106.278 57.671 121.26 56.2815 141.131C54.892 161.003 69.8738 178.238 89.7443 179.627C109.615 181.017 126.849 166.035 128.239 146.163Z" fill="black"/>
<path d="M160.952 118.132C178.154 118.132 192.099 104.187 192.099 86.9842C192.099 69.7815 178.154 55.8359 160.952 55.8359C143.75 55.8359 129.805 69.7815 129.805 86.9842C129.805 104.187 143.75 118.132 160.952 118.132Z" fill="#EA5B0B"/>
<path opacity="0.4" d="M160.952 118.132C178.154 118.132 192.099 104.187 192.099 86.9842C192.099 69.7815 178.154 55.8359 160.952 55.8359C143.75 55.8359 129.805 69.7815 129.805 86.9842C129.805 104.187 143.75 118.132 160.952 118.132Z" fill="black"/>
<path opacity="0.2" d="M160.952 113.114C175.396 113.114 187.105 101.404 187.105 86.9593C187.105 72.5145 175.396 60.8047 160.952 60.8047C146.507 60.8047 134.798 72.5145 134.798 86.9593C134.798 101.404 146.507 113.114 160.952 113.114Z" fill="black"/>
<path d="M161.949 113.757C175.815 113.757 187.056 102.516 187.056 88.6492C187.056 74.7823 175.815 63.541 161.949 63.541C148.083 63.541 136.842 74.7823 136.842 88.6492C136.842 102.516 148.083 113.757 161.949 113.757Z" fill="#EA5B0B"/>
<path opacity="0.4" d="M161.949 113.757C175.815 113.757 187.056 102.516 187.056 88.6492C187.056 74.7823 175.815 63.541 161.949 63.541C148.083 63.541 136.842 74.7823 136.842 88.6492C136.842 102.516 148.083 113.757 161.949 113.757Z" fill="black"/>
<path d="M85.0867 275.201H84.2627V284.504H85.0867V275.201Z" fill="#EA5B0B"/>
<path opacity="0.1" d="M85.0867 275.201H84.2627V284.504H85.0867V275.201Z" fill="black"/>
<path d="M327.738 201.491H326.914V214.239H327.738V201.491Z" fill="#EA5B0B"/>
<path d="M327.738 220.931H326.914V227.844H327.738V220.931Z" fill="#EA5B0B"/>
<path opacity="0.1" d="M327.738 201.491H326.914V214.239H327.738V201.491Z" fill="black"/>
<path opacity="0.1" d="M327.738 220.931H326.914V227.844H327.738V220.931Z" fill="black"/>
<path d="M312.461 146.216H99.5477C92.6987 146.216 87.1465 151.768 87.1465 158.617V283.252C87.1465 290.101 92.6987 295.653 99.5477 295.653H312.461C319.31 295.653 324.862 290.101 324.862 283.252V158.617C324.862 151.768 319.31 146.216 312.461 146.216Z" fill="#EA5B0B"/>
<path opacity="0.2" d="M312.461 146.216H99.5477C92.6987 146.216 87.1465 151.768 87.1465 158.617V283.252C87.1465 290.101 92.6987 295.653 99.5477 295.653H312.461C319.31 295.653 324.862 290.101 324.862 283.252V158.617C324.862 151.768 319.31 146.216 312.461 146.216Z" fill="black"/>
<path d="M286.382 198.254C294.877 198.254 301.766 191.356 301.758 182.861C301.758 174.373 294.869 167.484 286.382 167.484H266.523C258.028 167.484 251.139 174.381 251.147 182.877C251.147 191.365 258.036 198.254 266.523 198.254H286.382Z" fill="#EA5B0B"/>
<path d="M152.226 198.245H115.583C112.634 198.245 110.243 200.636 110.243 203.585V227.539C110.243 230.488 112.634 232.879 115.583 232.879H152.226C155.175 232.879 157.565 230.488 157.565 227.539V203.585C157.565 200.636 155.175 198.245 152.226 198.245Z" fill="#EA5B0B"/>
<path opacity="0.3" d="M152.226 198.245H115.583C112.634 198.245 110.243 200.636 110.243 203.585V227.539C110.243 230.488 112.634 232.879 115.583 232.879H152.226C155.175 232.879 157.565 230.488 157.565 227.539V203.585C157.565 200.636 155.175 198.245 152.226 198.245Z" fill="white"/>
<path d="M114.025 163.702H177.58C179.665 163.702 181.363 165.391 181.363 167.484C181.363 169.569 179.665 171.258 177.58 171.258H114.025C111.941 171.258 110.243 169.569 110.243 167.476C110.243 165.391 111.941 163.702 114.025 163.702Z" fill="#EA5B0B"/>
<path opacity="0.3" d="M114.025 163.702H177.58C179.665 163.702 181.363 165.391 181.363 167.484C181.363 169.569 179.665 171.258 177.58 171.258H114.025C111.941 171.258 110.243 169.569 110.243 167.476C110.243 165.391 111.941 163.702 114.025 163.702Z" fill="white"/>
<path d="M144.373 250.068H115.789C112.726 250.068 110.243 252.551 110.243 255.614V260.797C110.243 263.86 112.726 266.343 115.789 266.343H144.373C147.436 266.343 149.919 263.86 149.919 260.797V255.614C149.919 252.551 147.436 250.068 144.373 250.068Z" fill="#EA5B0B"/>
<path opacity="0.3" d="M144.373 250.068H115.789C112.726 250.068 110.243 252.551 110.243 255.614V260.797C110.243 263.86 112.726 266.343 115.789 266.343H144.373C147.436 266.343 149.919 263.86 149.919 260.797V255.614C149.919 252.551 147.436 250.068 144.373 250.068Z" fill="white"/>
<path d="M194.984 250.068H166.399C163.336 250.068 160.854 252.551 160.854 255.614V260.797C160.854 263.86 163.336 266.343 166.399 266.343H194.984C198.046 266.343 200.529 263.86 200.529 260.797V255.614C200.529 252.551 198.046 250.068 194.984 250.068Z" fill="#EA5B0B"/>
<path opacity="0.3" d="M194.984 250.068H166.399C163.336 250.068 160.854 252.551 160.854 255.614V260.797C160.854 263.86 163.336 266.343 166.399 266.343H194.984C198.046 266.343 200.529 263.86 200.529 260.797V255.614C200.529 252.551 198.046 250.068 194.984 250.068Z" fill="white"/>
<path d="M245.602 250.068H217.017C213.954 250.068 211.472 252.551 211.472 255.614V260.797C211.472 263.86 213.954 266.343 217.017 266.343H245.602C248.664 266.343 251.147 263.86 251.147 260.797V255.614C251.147 252.551 248.664 250.068 245.602 250.068Z" fill="#EA5B0B"/>
<path opacity="0.3" d="M245.602 250.068H217.017C213.954 250.068 211.472 252.551 211.472 255.614V260.797C211.472 263.86 213.954 266.343 217.017 266.343H245.602C248.664 266.343 251.147 263.86 251.147 260.797V255.614C251.147 252.551 248.664 250.068 245.602 250.068Z" fill="white"/>
<path d="M296.212 250.068H267.628C264.565 250.068 262.082 252.551 262.082 255.614V260.797C262.082 263.86 264.565 266.343 267.628 266.343H296.212C299.275 266.343 301.758 263.86 301.758 260.797V255.614C301.758 252.551 299.275 250.068 296.212 250.068Z" fill="#EA5B0B"/>
<path opacity="0.3" d="M296.212 250.068H267.628C264.565 250.068 262.082 252.551 262.082 255.614V260.797C262.082 263.86 264.565 266.343 267.628 266.343H296.212C299.275 266.343 301.758 263.86 301.758 260.797V255.614C301.758 252.551 299.275 250.068 296.212 250.068Z" fill="white"/>
<path d="M241.432 92.1429C239.479 97.6557 237.312 102.987 235.013 108.319C232.689 113.741 230.019 119.006 227.02 124.09C226.616 124.741 226.196 125.392 225.759 126.043L225.438 126.53L225.001 127.131C224.705 127.51 224.424 127.84 224.177 128.161C223.139 129.315 222.035 130.419 220.881 131.457C218.681 133.493 216.44 135.338 214.174 137.16C209.625 140.769 204.978 144.147 200.166 147.353L197.29 143.785L209.403 131.845C211.405 129.859 213.391 127.856 215.245 125.854C216.16 124.857 217.05 123.835 217.783 122.896C217.964 122.665 218.121 122.434 218.261 122.236L218.434 121.956L218.673 121.528C218.994 120.959 219.332 120.407 219.645 119.822C222.167 115.084 224.391 109.934 226.534 104.709C228.676 99.485 230.736 94.2195 232.714 88.9951L241.432 92.1429Z" fill="#E4897B"/>
<path d="M243.747 88.1703C245.618 93.6418 234.626 109.735 234.626 109.735L224.128 103.893C225.916 98.8744 228.034 93.9714 230.456 89.225C234.131 82.2702 241.696 82.1631 243.747 88.1703Z" fill="#EA5B0B"/>
<path opacity="0.7" d="M243.747 88.1703C245.618 93.6418 234.626 109.735 234.626 109.735L224.128 103.893C225.916 98.8744 228.034 93.9714 230.456 89.225C234.131 82.2702 241.696 82.1631 243.747 88.1703Z" fill="white"/>
<path opacity="0.31" d="M243.903 88.8549C241.547 87.726 238.836 88.6736 235.977 93.1893C233.117 97.705 230.687 105.245 230.423 107.396L234.633 109.728C234.633 109.728 244.777 94.8621 243.903 88.8549Z" fill="#EA5B0B"/>
<path d="M236.636 83.9851C236.636 83.9851 228.791 102.435 234.444 136.789H267.116C267.519 131.771 265.212 107.305 270.873 83.672C267.28 82.9716 263.638 82.5101 259.98 82.2876C255.357 82.0239 250.718 82.0239 246.095 82.2876C242.906 82.609 239.742 83.1776 236.636 83.9851Z" fill="#EA5B0B"/>
<path opacity="0.7" d="M236.636 83.9851C236.636 83.9851 228.791 102.435 234.444 136.789H267.116C267.519 131.771 265.212 107.305 270.873 83.672C267.28 82.9716 263.638 82.5101 259.98 82.2876C255.357 82.0239 250.718 82.0239 246.095 82.2876C242.906 82.609 239.742 83.1776 236.636 83.9851Z" fill="white"/>
<path d="M278.684 283.152L273.848 287.487L264.627 277.895L269.472 273.561L278.684 283.152Z" fill="#E4897B"/>
<path d="M262.098 292.175H255.992L255.201 278.026H261.307L262.098 292.175Z" fill="#E4897B"/>
<path d="M264.636 277.895L269.382 282.839L274.227 278.505L269.481 273.561L264.636 277.895Z" fill="#CE6F64"/>
<path d="M261.307 278.035H255.201L255.613 285.328H261.719L261.307 278.035Z" fill="#CE6F64"/>
<path d="M234.444 136.788C234.444 136.788 228.008 181.335 225.817 205.578C224.053 225.034 266.118 283.037 266.118 283.037L274.251 275.382C274.251 275.382 243.533 223.377 245.898 201.722C248.188 180.75 255.95 136.764 255.95 136.764L234.444 136.788Z" fill="#EA5B0B"/>
<path opacity="0.7" d="M234.444 136.788C234.444 136.788 228.008 181.335 225.817 205.578C224.053 225.034 266.118 283.037 266.118 283.037L274.251 275.382C274.251 275.382 243.533 223.377 245.898 201.722C248.188 180.75 255.95 136.764 255.95 136.764L234.444 136.788Z" fill="black"/>
<path opacity="0.2" d="M245.898 201.747C247.076 190.944 249.713 174.018 251.979 160.158C250.792 157.834 247.464 153.129 247.464 153.129C244.481 163.438 237.996 202.299 247.249 254.781C256.89 270.322 266.119 283.062 266.119 283.062L267.38 263.021C258.472 246.261 244.258 216.719 245.898 201.747Z" fill="black"/>
<path d="M246.063 136.788C246.063 136.788 245.486 183.469 246.475 200.963C247.554 220.114 252.993 283.564 252.993 283.564H264.182C264.182 283.564 263.845 221.663 264.504 202.71C265.237 182.11 267.132 136.788 267.132 136.788H246.063Z" fill="#EA5B0B"/>
<path opacity="0.7" d="M246.063 136.788C246.063 136.788 245.486 183.469 246.475 200.963C247.554 220.114 252.993 283.564 252.993 283.564H264.182C264.182 283.564 263.845 221.663 264.504 202.71C265.237 182.11 267.132 136.788 267.132 136.788H246.063Z" fill="black"/>
<path d="M255.67 291.475H262.534C262.773 291.467 262.971 291.648 262.987 291.887L263.325 297.317C263.325 297.911 262.847 298.397 262.254 298.405C259.864 298.364 258.719 298.224 255.703 298.224C253.849 298.224 245.955 298.421 243.393 298.421C240.83 298.421 240.921 295.883 241.984 295.653C246.853 294.623 252.893 293.181 254.624 291.846C254.92 291.607 255.291 291.483 255.67 291.475Z" fill="#4A1E05"/>
<path d="M272.513 285.756L278.396 281.792C278.594 281.636 278.874 281.636 279.072 281.792L283.571 286.333C283.9 286.712 283.868 287.28 283.488 287.61C283.447 287.643 283.406 287.676 283.357 287.709C279.599 290.601 276.888 292.785 274.746 295.191C272.274 298.001 270.939 298.405 265.171 298.405C262.501 298.405 260.993 296.155 262.081 295.809C271.689 292.768 269.118 291.442 271.458 286.984C271.705 286.489 272.068 286.069 272.513 285.756Z" fill="#4A1E05"/>
<path d="M198.674 143.018L192.305 143.24L193.64 148.234C193.64 148.234 200.297 148.827 200.891 146.816L198.674 143.018Z" fill="#E4897B"/>
<path d="M185.433 146.215L189.899 148.819L193.64 148.234L192.305 143.24L185.433 146.215Z" fill="#E4897B"/>
<path opacity="0.31" d="M263.573 89.5058C262.897 93.3952 263.795 102.69 267.133 113.452C267.396 104.231 268.468 95.0515 270.338 86.0201V85.9707C268.196 85.7564 264.224 85.8553 263.573 89.5058Z" fill="#EA5B0B"/>
<path d="M259.148 66.6475C258.118 71.1137 256.956 79.3045 259.972 82.304C259.972 82.304 258.67 86.0039 250.364 86.0039C241.234 86.0039 246.088 82.304 246.088 82.304C251.114 81.1174 251.114 77.4175 250.364 73.9484L259.148 66.6475Z" fill="#E4897B"/>
<path d="M250.133 85.9873L247.661 88.616L248.872 91.154L250.842 91.2446L252.523 88.822L250.133 85.9873Z" fill="#EA5B0B"/>
<path d="M255.572 69.6221L250.372 73.9235C250.562 74.7393 250.677 75.5633 250.718 76.3956C252.63 76.1237 255.316 74.0306 255.588 72.0365C255.736 71.2372 255.728 70.4214 255.572 69.6221Z" fill="#CE6F64"/>
<path d="M248.312 51.5015C245.19 52.5645 242.693 60.846 246.335 63.0379C249.977 65.2298 254.245 49.4826 248.312 51.5015Z" fill="#4A1E05"/>
<path d="M261.101 61.9666C259.238 67.7348 258.447 71.2205 254.69 73.5854C251.015 75.9421 246.129 74.8791 243.772 71.2122C242.907 69.8608 242.47 68.2869 242.519 66.6801C242.594 61.1344 245.626 52.5974 252.012 51.5262C256.354 50.6857 260.549 53.5286 261.381 57.863C261.644 59.2309 261.546 60.6482 261.101 61.9666Z" fill="#E4897B"/>
<path d="M265.715 52.3254C263.853 56.8246 268.187 53.0671 267.066 58.4068C266.341 61.8842 260.062 70.2151 257.64 69.457C255.217 68.6989 255.242 62.7906 258.332 58.6128C260.112 56.2149 256.264 53.4956 247.62 53.784C238.976 54.0724 233.752 49.2106 245.238 45.6426C245.238 45.6426 241.003 48.1147 243.516 48.9387C247.076 50.2654 269.448 43.3106 265.715 52.3254Z" fill="#4A1E05"/>
<path d="M264.067 54.3858C263.977 54.3858 266.004 53.8831 267.083 50.2656C267.083 50.3233 266.729 55.6548 264.067 54.3858Z" fill="#4A1E05"/>
<path d="M247.892 46.4414C242.577 48.0895 244.777 49.9435 246.978 50.405L252.02 48.4273C244.357 49.4409 247.892 46.4414 247.892 46.4414Z" fill="#4A1E05"/>
<path d="M262.122 69.0122C261.018 70.0834 259.543 70.6932 258.002 70.7179C255.967 70.7179 255.53 68.7897 256.626 67.1746C257.598 65.7243 259.823 63.9774 261.619 64.7602C263.416 65.543 263.473 67.6855 262.122 69.0122Z" fill="#E4897B"/>
<path d="M251.715 61.6449C251.591 62.1228 251.237 62.4689 250.891 62.3865C250.545 62.3041 250.421 61.8674 250.545 61.3895C250.668 60.9115 251.023 60.5654 251.369 60.6561C251.715 60.7467 251.838 61.167 251.715 61.6449Z" fill="#4A1E05"/>
<path d="M246.276 60.4502C246.153 60.9281 245.798 61.2742 245.452 61.1918C245.106 61.1094 244.983 60.6809 245.106 60.203C245.23 59.7251 245.576 59.379 245.93 59.4614C246.285 59.5438 246.375 59.9723 246.276 60.4502Z" fill="#4A1E05"/>
<path d="M247.942 61.0684C247.002 62.4033 245.898 63.6064 244.646 64.6529C245.206 65.2709 246.005 65.6088 246.837 65.584L247.942 61.0684Z" fill="#DE5753"/>
<path d="M248.847 67.3224C248.51 67.3224 248.164 67.2812 247.834 67.207C247.76 67.1905 247.71 67.1081 247.727 67.034C247.743 66.9598 247.826 66.9104 247.9 66.9269C249.128 67.1988 250.413 66.8939 251.394 66.1028C251.451 66.0451 251.542 66.0451 251.6 66.1028C251.657 66.1605 251.657 66.2512 251.6 66.3088C250.833 66.9681 249.861 67.3306 248.847 67.3224Z" fill="#4A1E05"/>
<path d="M253.874 60.2692C253.758 60.2692 253.651 60.2033 253.61 60.0962C253.338 59.4287 252.753 58.9343 252.045 58.7695C251.888 58.7448 251.773 58.6047 251.797 58.4481C251.822 58.2915 251.97 58.1844 252.127 58.2009C253.025 58.3822 253.783 59.0002 254.137 59.8489C254.203 59.989 254.137 60.1538 254.006 60.2198C254.006 60.2198 253.997 60.2198 253.989 60.2198C253.956 60.2445 253.915 60.261 253.874 60.2692Z" fill="#4A1E05"/>
<path d="M244.439 58.0858C244.373 58.0858 244.307 58.0611 244.258 58.0199C244.134 57.9128 244.118 57.7315 244.217 57.6079C244.802 56.8745 245.7 56.4625 246.639 56.479C246.796 56.4955 246.919 56.6273 246.903 56.7921C246.903 56.9487 246.763 57.064 246.606 57.0558H246.59C245.84 57.0558 245.123 57.3854 244.662 57.9787C244.604 58.0446 244.53 58.0858 244.439 58.0858Z" fill="#4A1E05"/>
<path d="M272.455 87.8818C273.098 88.8789 273.633 89.7606 274.177 90.7165C274.721 91.6724 275.24 92.5953 275.751 93.5511C276.756 95.4547 277.704 97.3994 278.569 99.3853C280.382 103.448 281.75 107.7 282.631 112.067L282.714 112.487L282.755 112.693L282.813 113.039C282.887 113.501 282.92 113.962 282.92 114.432C282.92 115.215 282.829 115.989 282.673 116.756C282.392 118.017 281.989 119.253 281.47 120.431C280.547 122.499 279.443 124.493 278.174 126.372C275.776 129.948 273.048 133.294 270.032 136.368L266.448 133.492C268.442 130.014 270.428 126.405 272.092 122.87C272.908 121.181 273.609 119.434 274.185 117.646C274.424 116.896 274.581 116.13 274.663 115.355C274.688 115.099 274.688 114.844 274.663 114.589C274.663 114.514 274.663 114.449 274.614 114.44C274.564 114.432 274.614 114.44 274.614 114.399L274.564 114.234L274.466 113.896C273.947 112.075 273.329 110.287 272.612 108.54C271.887 106.752 271.079 104.972 270.23 103.201C269.382 101.429 268.467 99.6819 267.528 97.935C267.066 97.0615 266.58 96.1963 266.094 95.3393L264.644 92.8672L272.455 87.8818Z" fill="#E4897B"/>
<path d="M253.511 292.53C253.099 292.571 252.687 292.455 252.358 292.208C252.168 292.002 252.102 291.706 252.176 291.434C252.209 291.252 252.341 291.096 252.514 291.03C253.264 290.733 254.986 291.92 255.184 292.052C255.233 292.085 255.258 292.142 255.242 292.2C255.233 292.258 255.192 292.299 255.134 292.315C254.599 292.447 254.055 292.513 253.511 292.53ZM252.794 291.269C252.737 291.261 252.679 291.261 252.621 291.269C252.539 291.302 252.473 291.376 252.465 291.467C252.407 291.64 252.44 291.837 252.564 291.977C252.844 292.258 253.643 292.291 254.739 292.076C254.154 291.673 253.495 291.401 252.794 291.277V291.269Z" fill="white"/>
<path d="M255.101 292.323H255.027C254.418 291.961 253.511 290.675 253.651 290.016C253.701 289.769 253.915 289.588 254.17 289.579C254.393 289.555 254.615 289.62 254.772 289.777C255.39 290.379 255.25 292.134 255.25 292.208C255.25 292.257 255.209 292.299 255.167 292.323H255.101ZM254.277 289.851H254.212C254.006 289.851 253.956 289.975 253.94 290.057C253.849 290.494 254.451 291.458 254.978 291.903C255.052 291.236 254.912 290.56 254.582 289.975C254.5 289.892 254.385 289.851 254.269 289.851H254.277Z" fill="white"/>
<path d="M268.558 289.068C268.402 289.068 268.253 289.044 268.113 288.986C267.891 288.895 267.726 288.706 267.677 288.475C267.635 288.335 267.668 288.178 267.767 288.071C268.319 287.404 271.211 287.602 271.541 287.626C271.607 287.626 271.656 287.676 271.673 287.734C271.689 287.791 271.656 287.857 271.607 287.89C270.684 288.5 269.646 288.895 268.558 289.068ZM270.305 287.865C269.292 287.865 268.229 287.964 267.99 288.253C267.965 288.302 267.965 288.352 267.99 288.401C268.014 288.549 268.113 288.665 268.253 288.722C268.715 288.912 269.753 288.599 271.063 287.898L270.305 287.865Z" fill="white"/>
<path d="M271.532 287.915C270.708 287.915 268.854 287.28 268.714 286.621C268.714 286.456 268.714 286.226 269.109 286.036C270.527 285.369 271.623 287.61 271.672 287.684C271.689 287.734 271.689 287.783 271.672 287.832C271.647 287.882 271.59 287.915 271.532 287.915ZM269.629 286.209C269.488 286.209 269.348 286.242 269.225 286.3C269.052 286.382 268.969 286.473 268.986 286.555C269.068 286.943 270.403 287.486 271.277 287.602C271.013 287.157 270.378 286.209 269.629 286.209Z" fill="white"/>
<path d="M268.079 132.158L262.031 131.095L265.154 138.14C265.154 138.14 270.7 138.14 270.453 135.24L268.079 132.158Z" fill="#E4897B"/>
<path d="M257.458 134.63L260.317 140.324L265.121 138.132L261.998 131.095L257.458 134.63Z" fill="#E4897B"/>
<path d="M274.746 274.937L265.624 283.532L262.683 280.376L273.123 270.866L274.746 274.937Z" fill="#EA5B0B"/>
<path opacity="0.6" d="M274.746 274.937L265.624 283.532L262.683 280.376L273.123 270.866L274.746 274.937Z" fill="white"/>
<path d="M264.628 283.564H252.54L251.872 279.32L265.213 279.98L264.628 283.564Z" fill="#EA5B0B"/>
<path opacity="0.6" d="M264.628 283.564H252.54L251.872 279.32L265.213 279.98L264.628 283.564Z" fill="white"/>
<path d="M270.873 83.6716C276.641 84.4956 282.549 104.536 282.549 104.536L270.189 111.392C270.189 111.392 265.171 101.866 262.773 94.796C260.26 87.388 264.701 82.7652 270.873 83.6716Z" fill="#EA5B0B"/>
<path opacity="0.7" d="M270.873 83.6716C276.641 84.4956 282.549 104.536 282.549 104.536L270.189 111.392C270.189 111.392 265.171 101.866 262.773 94.796C260.26 87.388 264.701 82.7652 270.873 83.6716Z" fill="white"/>
<path opacity="0.2" d="M250.133 85.9873L247.661 88.616L248.872 91.154L250.842 91.2446L252.523 88.822L250.133 85.9873Z" fill="black"/>
<path d="M249.087 90.7002C249.087 90.7002 244.398 110.123 244.217 114.16C243.961 119.714 246.285 129.199 246.285 129.199C246.285 129.199 249.581 121.313 250.257 113.987C250.932 106.662 250.43 94.8121 250.735 90.7002H249.087Z" fill="#EA5B0B"/>
<path opacity="0.2" d="M249.087 90.7002C249.087 90.7002 244.398 110.123 244.217 114.16C243.961 119.714 246.285 129.199 246.285 129.199C246.285 129.199 249.581 121.313 250.257 113.987C250.932 106.662 250.43 94.8121 250.735 90.7002H249.087Z" fill="black"/>
<path d="M250.133 85.9872C251.072 87.5034 251.616 89.2421 251.715 91.022C251.715 91.022 261.998 87.3963 261.512 82.0813C261.512 82.0813 260.054 81.216 259.131 80.5156C259.131 80.5156 258.785 83.8612 250.133 85.9872Z" fill="#EA5B0B"/>
<path opacity="0.6" d="M250.133 85.9872C251.072 87.5034 251.616 89.2421 251.715 91.022C251.715 91.022 261.998 87.3963 261.512 82.0813C261.512 82.0813 260.054 81.216 259.131 80.5156C259.131 80.5156 258.785 83.8612 250.133 85.9872Z" fill="white"/>
<path d="M250.133 85.9869C249.185 87.429 248.509 89.0194 248.122 90.7004C248.122 90.7004 243.466 87.5526 244.867 82.3035C245.724 81.9574 246.598 81.6855 247.496 81.4795C247.496 81.4795 246.886 84.8745 250.133 85.9869Z" fill="#EA5B0B"/>
<path opacity="0.6" d="M250.133 85.9869C249.185 87.429 248.509 89.0194 248.122 90.7004C248.122 90.7004 243.466 87.5526 244.867 82.3035C245.724 81.9574 246.598 81.6855 247.496 81.4795C247.496 81.4795 246.886 84.8745 250.133 85.9869Z" fill="white"/>
</g>
<defs>
<clipPath id="clip0_2270_7855">
<rect width="412" height="307" fill="white"/>
</clipPath>
</defs>
</svg>
