<svg width="60" height="60" viewBox="0 0 60 60" fill="none" xmlns="http://www.w3.org/2000/svg">
<path d="M60 30.0011C60 45.1529 48.7685 57.6793 34.1779 59.712C32.8136 59.9012 31.4179 60 30.0011 60C28.3656 60 26.7596 59.8697 25.1957 59.6174C10.9099 57.3177 0 44.9322 0 30.0011C0 13.4324 13.4324 0 29.999 0C46.5655 0 60 13.4324 60 30.0011Z" fill="#1877F2"/>
<path d="M34.1776 24.0879V30.6233H42.2623L40.9821 39.4268H34.1776V59.7099C32.8134 59.8991 31.4176 59.9979 30.0008 59.9979C28.3653 59.9979 26.7593 59.8676 25.1954 59.6153V39.4268H17.7393V30.6233H25.1954V22.6269C25.1954 17.666 29.2167 13.6426 34.1797 13.6426V13.6468C34.1944 13.6468 34.207 13.6426 34.2218 13.6426H42.2644V21.2564H37.0091C35.4473 21.2564 34.1797 22.5239 34.1797 24.0858L34.1776 24.0879Z" fill="white"/>
</svg>
