<?xml version="1.0" encoding="UTF-8"?>
<svg id="Calque_2" data-name="Calque 2" xmlns="http://www.w3.org/2000/svg" xmlns:xlink="http://www.w3.org/1999/xlink" viewBox="0 0 562.36 1201.79">
  <defs>
    <style>
      .cls-1 {
        fill: url(#Dégradé_sans_nom_45-18);
      }

      .cls-2 {
        fill: url(#Dégradé_sans_nom_45-7);
      }

      .cls-3 {
        fill: url(#Dégradé_sans_nom_45-21);
      }

      .cls-4 {
        fill: url(#Dégradé_sans_nom_45-16);
      }

      .cls-5 {
        fill: url(#Dégradé_sans_nom_45-17);
      }

      .cls-6 {
        fill: url(#Dégradé_sans_nom_45-5);
      }

      .cls-7 {
        fill: url(#Dégradé_sans_nom_45-14);
      }

      .cls-8 {
        fill: url(#Dégradé_sans_nom_45-11);
      }

      .cls-9 {
        fill: url(#Dégradé_sans_nom_45-15);
      }

      .cls-10 {
        fill: url(#Dégradé_sans_nom_45);
      }

      .cls-11 {
        fill: url(#Dégradé_sans_nom_45-3);
      }

      .cls-12 {
        fill: url(#Dégradé_sans_nom_45-8);
      }

      .cls-13 {
        fill: url(#Dégradé_sans_nom_45-19);
      }

      .cls-14 {
        fill: url(#Dégradé_sans_nom_45-6);
      }

      .cls-15 {
        fill: url(#Dégradé_sans_nom_45-22);
      }

      .cls-16 {
        fill: url(#Dégradé_sans_nom_45-2);
      }

      .cls-17 {
        fill: url(#Dégradé_sans_nom_45-4);
      }

      .cls-18 {
        fill: url(#Dégradé_sans_nom_45-9);
      }

      .cls-19 {
        opacity: .1;
      }

      .cls-20 {
        fill: url(#Dégradé_sans_nom_45-20);
      }

      .cls-21 {
        fill: url(#Dégradé_sans_nom_45-13);
      }

      .cls-22 {
        fill: url(#Dégradé_sans_nom_45-12);
      }

      .cls-23 {
        fill: url(#Dégradé_sans_nom_45-10);
      }
    </style>
    <linearGradient id="Dégradé_sans_nom_45" data-name="Dégradé sans nom 45" x1="987.49" y1="1815.8" x2="464.72" y2="934.23" gradientUnits="userSpaceOnUse">
      <stop offset="0" stop-color="#a01880"/>
      <stop offset=".35" stop-color="#d60b51"/>
      <stop offset=".65" stop-color="#e95a0c"/>
      <stop offset="1" stop-color="#f29100"/>
    </linearGradient>
    <linearGradient id="Dégradé_sans_nom_45-2" data-name="Dégradé sans nom 45" x1="987.49" y1="1815.8" x2="464.72" y2="934.23" xlink:href="#Dégradé_sans_nom_45"/>
    <linearGradient id="Dégradé_sans_nom_45-3" data-name="Dégradé sans nom 45" x1="938.55" y1="1844.82" x2="415.78" y2="963.25" xlink:href="#Dégradé_sans_nom_45"/>
    <linearGradient id="Dégradé_sans_nom_45-4" data-name="Dégradé sans nom 45" x1="924.16" y1="1853.36" x2="401.39" y2="971.78" xlink:href="#Dégradé_sans_nom_45"/>
    <linearGradient id="Dégradé_sans_nom_45-5" data-name="Dégradé sans nom 45" x1="910.02" y1="1861.74" x2="387.26" y2="980.16" xlink:href="#Dégradé_sans_nom_45"/>
    <linearGradient id="Dégradé_sans_nom_45-6" data-name="Dégradé sans nom 45" x1="905.7" y1="1864.3" x2="382.93" y2="982.73" xlink:href="#Dégradé_sans_nom_45"/>
    <linearGradient id="Dégradé_sans_nom_45-7" data-name="Dégradé sans nom 45" x1="691.2" y1="1991.5" x2="168.44" y2="1109.92" xlink:href="#Dégradé_sans_nom_45"/>
    <linearGradient id="Dégradé_sans_nom_45-8" data-name="Dégradé sans nom 45" x1="711.89" y1="1979.23" x2="189.12" y2="1097.66" xlink:href="#Dégradé_sans_nom_45"/>
    <linearGradient id="Dégradé_sans_nom_45-9" data-name="Dégradé sans nom 45" x1="745.28" y1="1959.43" x2="222.52" y2="1077.85" xlink:href="#Dégradé_sans_nom_45"/>
    <linearGradient id="Dégradé_sans_nom_45-10" data-name="Dégradé sans nom 45" x1="764.55" y1="1948" x2="241.78" y2="1066.43" xlink:href="#Dégradé_sans_nom_45"/>
    <linearGradient id="Dégradé_sans_nom_45-11" data-name="Dégradé sans nom 45" x1="816.15" y1="1917.4" x2="293.39" y2="1035.83" xlink:href="#Dégradé_sans_nom_45"/>
    <linearGradient id="Dégradé_sans_nom_45-12" data-name="Dégradé sans nom 45" x1="861.68" y1="1890.4" x2="338.92" y2="1008.83" xlink:href="#Dégradé_sans_nom_45"/>
    <linearGradient id="Dégradé_sans_nom_45-13" data-name="Dégradé sans nom 45" x1="911.78" y1="1860.69" x2="389.02" y2="979.12" xlink:href="#Dégradé_sans_nom_45"/>
    <linearGradient id="Dégradé_sans_nom_45-14" data-name="Dégradé sans nom 45" x1="869.06" y1="1268.94" x2="346.29" y2="387.36" xlink:href="#Dégradé_sans_nom_45"/>
    <linearGradient id="Dégradé_sans_nom_45-15" data-name="Dégradé sans nom 45" x1="849.96" y1="1907.39" x2="327.19" y2="1025.81" xlink:href="#Dégradé_sans_nom_45"/>
    <linearGradient id="Dégradé_sans_nom_45-16" data-name="Dégradé sans nom 45" x1="968.84" y1="1466.7" x2="446.08" y2="585.13" xlink:href="#Dégradé_sans_nom_45"/>
    <linearGradient id="Dégradé_sans_nom_45-17" data-name="Dégradé sans nom 45" x1="932.41" y1="1129.94" x2="409.64" y2="248.36" xlink:href="#Dégradé_sans_nom_45"/>
    <linearGradient id="Dégradé_sans_nom_45-18" data-name="Dégradé sans nom 45" x1="1221.49" y1="1679.73" x2="698.72" y2="798.16" xlink:href="#Dégradé_sans_nom_45"/>
    <linearGradient id="Dégradé_sans_nom_45-19" data-name="Dégradé sans nom 45" x1="893.71" y1="1749.27" x2="370.94" y2="867.7" xlink:href="#Dégradé_sans_nom_45"/>
    <linearGradient id="Dégradé_sans_nom_45-20" data-name="Dégradé sans nom 45" x1="780.32" y1="1938.65" x2="257.56" y2="1057.08" xlink:href="#Dégradé_sans_nom_45"/>
    <linearGradient id="Dégradé_sans_nom_45-21" data-name="Dégradé sans nom 45" x1="906.4" y1="911.53" x2="383.63" y2="29.95" xlink:href="#Dégradé_sans_nom_45"/>
    <linearGradient id="Dégradé_sans_nom_45-22" data-name="Dégradé sans nom 45" x1="649.74" y1="2016.09" x2="126.97" y2="1134.51" xlink:href="#Dégradé_sans_nom_45"/>
  </defs>
  <g id="Calque_2-2" data-name="Calque 2">
    <g class="cls-19">
      <path class="cls-10" d="M308.5,742.94c40.35,0,72.89-32.22,72.89-72.17s-32.54-72.17-72.89-72.17-72.9,32.22-72.9,72.17,32.55,72.17,72.9,72.17ZM308.5,614.05c31.24,0,57.27,25.78,57.27,56.72s-26.03,56.72-57.27,56.72-57.28-25.78-57.28-56.72,26.04-56.72,57.28-56.72Z"/>
      <path class="cls-16" d="M308.5,702.99c18.23,0,32.54-14.17,32.54-32.22s-14.31-32.22-32.54-32.22-32.55,14.17-32.55,32.22,14.32,32.22,32.55,32.22ZM308.5,654.02c9.11,0,16.92,7.73,16.92,16.75s-7.8,16.75-16.92,16.75-16.93-7.73-16.93-16.75,7.82-16.75,16.93-16.75Z"/>
      <path class="cls-11" d="M413.92,775.16h-210.86c-3.9,0-7.82,3.88-7.82,7.74s3.91,7.73,7.82,7.73h212.17c3.9,0,7.8-3.86,7.8-7.73-1.3-3.86-3.9-7.74-9.11-7.74Z"/>
      <path class="cls-17" d="M373.57,807.38h-130.16c-3.91,0-7.82,3.88-7.82,7.74s3.9,7.73,7.82,7.73h130.16c3.91,0,7.82-3.86,7.82-7.73s-3.9-7.74-7.82-7.74Z"/>
      <path class="cls-6" d="M341.03,839.61h-65.09c-3.9,0-7.8,3.88-7.8,7.74s3.9,7.73,7.8,7.73h65.09c3.9,0,7.82-3.86,7.82-7.73s-3.91-7.74-7.82-7.74Z"/>
      <path class="cls-14" d="M312.4,476.16c-2.61-2.58-6.51-2.58-9.11,0-92.42,64.44-157.51,183.01-157.51,322.22-23.42,39.95-36.44,78.62-36.44,114.7,0,27.07,5.2,54.14,14.31,79.91,1.31,2.58,3.91,5.16,7.82,5.16s6.51-2.58,7.8-5.16c7.82-19.33,16.93-37.38,29.94-54.14,2.6,5.16,3.9,11.6,6.51,16.75,1.3,2.58,3.9,5.16,7.82,5.16h48.16c15.62,39.95,40.35,72.17,71.59,95.38,2.61,2.57,6.51,2.57,9.11,0,31.24-23.21,55.97-55.43,71.59-95.38h48.16c3.9,0,6.51-2.58,7.82-5.16,2.61-5.15,3.9-11.59,6.51-16.75,13.02,16.75,22.13,34.8,29.93,54.14,1.31,2.58,3.91,5.16,7.82,5.16s6.51-2.58,7.8-5.16c9.11-25.78,14.32-52.84,14.32-79.91,0-36.09-11.72-74.75-36.45-114.7,0-139.21-65.07-257.77-157.5-322.22ZM308.5,492.91c24.72,18.04,46.86,39.95,66.38,64.44h-132.78c19.53-24.49,41.66-46.41,66.39-64.44ZM132.76,967.21c-5.2-18.05-6.51-36.09-6.51-54.14,0-27.06,6.51-54.14,20.83-82.48,2.6,30.93,7.8,60.57,16.92,90.22-11.71,12.89-22.13,29.64-31.24,46.39ZM308.5,1039.38c-24.73-19.33-45.56-46.39-59.89-78.62h118.45c-13.02,30.94-33.85,58-58.57,78.62ZM426.95,944.01h-238.22c-45.55-119.86-32.54-262.93,41.66-371.19h156.2c72.89,106.97,87.21,250.03,40.35,371.19ZM482.92,967.21c-7.82-16.75-18.22-32.22-29.94-46.39,9.11-29.65,14.32-59.3,16.92-90.22,14.32,28.34,20.83,56.7,20.83,82.48,0,18.05-2.6,36.09-7.8,54.14Z"/>
      <path class="cls-2" d="M153.59,1032.94c-3.9,0-7.82,3.88-7.82,7.74v88.92c0,3.88,3.91,7.74,7.82,7.74s7.8-3.86,7.8-7.74v-88.92c0-3.86-2.59-7.74-7.8-7.74Z"/>
      <path class="cls-12" d="M186.13,1008.46c-3.9,0-7.8,3.86-7.8,7.73v153.38c0,3.86,3.9,7.73,7.8,7.73s7.82-3.86,7.82-7.73v-153.38c0-3.86-2.6-7.73-7.82-7.73Z"/>
      <path class="cls-18" d="M226.48,1040.68c-3.9,0-7.8,3.86-7.8,7.73v73.47c0,3.86,3.9,7.73,7.8,7.73s7.82-3.86,7.82-7.73v-72.17c1.3-5.16-2.61-9.02-7.82-9.02Z"/>
      <path class="cls-23" d="M283.77,1080.63c-3.91,0-7.82,3.86-7.82,7.74v97.95c0,3.86,3.9,7.73,7.82,7.73s7.8-3.86,7.8-7.73v-96.67c0-5.16-2.61-9.02-7.8-9.02Z"/>
      <path class="cls-8" d="M348.85,1057.43c-3.91,0-7.82,3.86-7.82,7.73v128.89c0,3.88,3.9,7.74,7.82,7.74s7.8-3.86,7.8-7.74v-128.89c0-3.86-2.61-7.73-7.8-7.73Z"/>
      <path class="cls-22" d="M398.3,1065.16c-3.9,0-7.8,3.88-7.8,7.74v72.17c0,3.86,3.9,7.74,7.8,7.74s7.82-3.88,7.82-7.74v-72.17c0-3.86-3.9-7.74-7.82-7.74Z"/>
      <path class="cls-21" d="M446.47,983.96c-3.9,0-7.82,3.86-7.82,7.74v168.84c0,3.86,3.91,7.73,7.82,7.73s7.8-3.86,7.8-7.73v-167.55c0-5.16-2.61-9.02-7.8-9.02Z"/>
      <path class="cls-7" d="M275.64,219.24c-27.34,0-49.47,21.91-49.47,48.97s22.13,48.97,49.47,48.97,49.47-21.9,49.47-48.97-22.13-48.97-49.47-48.97ZM275.64,299.15c-18.22,0-32.54-14.19-32.54-32.22s14.31-32.22,32.54-32.22,32.54,14.17,32.54,32.22-14.31,32.22-32.54,32.22Z"/>
      <path class="cls-9" d="M74.64,539.33c-33.85,0-61.18,27.06-61.18,60.58s27.34,60.57,61.18,60.57,61.17-27.06,61.17-60.57-27.34-60.58-61.17-60.58ZM74.64,643.72c-24.73,0-44.27-19.33-44.27-43.81s19.53-43.83,44.27-43.83,44.25,19.33,44.25,43.83c1.3,24.48-19.54,43.81-44.25,43.81Z"/>
      <ellipse class="cls-4" cx="541.11" cy="745.39" rx="11.72" ry="11.6"/>
      <path class="cls-5" d="M402.33,224.43c6.47,0,11.72,5.2,11.72,11.6s-5.25,11.59-11.72,11.59-11.72-5.19-11.72-11.59,5.25-11.6,11.72-11.6Z"/>
      <ellipse class="cls-1" cx="550.64" cy="548.44" rx="11.72" ry="11.6"/>
      <path class="cls-13" d="M103.75,405.5c6.47,0,11.71,5.2,11.71,11.6s-5.24,11.59-11.71,11.59-11.72-5.19-11.72-11.59,5.25-11.6,11.72-11.6Z"/>
      <path class="cls-20" d="M68.99,727.48c6.47,0,11.72,5.19,11.72,11.59s-5.25,11.6-11.72,11.6-11.72-5.2-11.72-11.6,5.25-11.59,11.72-11.59Z"/>
      <ellipse class="cls-3" cx="372.75" cy="11.6" rx="11.72" ry="11.6"/>
      <path class="cls-15" d="M11.72,928.54c6.47,0,11.71,5.2,11.71,11.6s-5.24,11.59-11.71,11.59-11.72-5.19-11.72-11.59,5.24-11.6,11.72-11.6Z"/>
    </g>
  </g>
</svg>