<svg width="329" height="130" viewBox="0 0 329 130" fill="none" xmlns="http://www.w3.org/2000/svg">
<mask id="mask0_1940_1751" style="mask-type:luminance" maskUnits="userSpaceOnUse" x="27" y="80" width="50" height="33">
<path d="M27.5361 89.5485V89.5909L64.4823 108.323C64.8823 108.535 71.8084 112.031 71.8084 112.031L75.3662 104.403C77.324 100.186 75.6399 95.1002 71.5979 93.0448L46.2303 80.1826L27.5361 89.5273V89.5485Z" fill="white"/>
</mask>
<g mask="url(#mask0_1940_1751)">
<path d="M27.5331 79.5964L27.1562 112.036L77.2986 112.626L77.6755 80.1866L27.5331 79.5964Z" fill="url(#paint0_linear_1940_1751)"/>
</g>
<path d="M43.4727 112.052H35.3467V57.4882C35.3467 52.8052 38.9887 48.991 43.4727 48.991H51.5988V103.555C51.5988 108.238 47.9568 112.052 43.4727 112.052ZM43.4727 26.9747C38.9887 26.9747 35.3467 30.7677 35.3467 35.4719V44.4352H43.4727C47.9568 44.4352 51.5988 40.6422 51.5988 35.9381V26.9747H43.4727Z" fill="black"/>
<mask id="mask1_1940_1751" style="mask-type:luminance" maskUnits="userSpaceOnUse" x="27" y="70" width="20" height="20">
<path d="M27.5361 89.5485L46.2303 80.2037L27.5361 70.7107V89.5485Z" fill="white"/>
</mask>
<g mask="url(#mask1_1940_1751)">
<path d="M46.2303 70.7107H27.5361V89.5485H46.2303V70.7107Z" fill="url(#paint1_linear_1940_1751)"/>
</g>
<mask id="mask2_1940_1751" style="mask-type:luminance" maskUnits="userSpaceOnUse" x="27" y="51" width="44" height="39">
<path d="M58.5662 55.1997L27.5566 70.7107V89.5485L46.2508 80.2037L65.6186 70.52C69.6606 68.4857 71.3868 63.4213 69.429 59.1834L65.9133 51.5338C65.9133 51.5338 58.9872 55.009 58.5872 55.1997" fill="white"/>
</mask>
<g mask="url(#mask2_1940_1751)">
<path d="M71.3443 51.5338H27.5352V89.5485H71.3443V51.5338Z" fill="url(#paint2_linear_1940_1751)"/>
</g>
<g style="mix-blend-mode:multiply">
<mask id="mask3_1940_1751" style="mask-type:luminance" maskUnits="userSpaceOnUse" x="27" y="85" width="9" height="9">
<path d="M35.3464 85.6495H27.5361V93.5534H35.3464V85.6495Z" fill="white"/>
</mask>
<g mask="url(#mask3_1940_1751)">
<mask id="mask4_1940_1751" style="mask-type:luminance" maskUnits="userSpaceOnUse" x="27" y="85" width="9" height="9">
<path d="M27.5361 89.5485V89.5909L35.3464 93.5534V85.6495L27.5361 89.5485Z" fill="white"/>
</mask>
<g mask="url(#mask4_1940_1751)">
<path d="M33.6286 82.3871L24.2949 87.3761L29.2712 96.8084L38.6049 91.8194L33.6286 82.3871Z" fill="url(#paint3_linear_1940_1751)"/>
</g>
</g>
</g>
<path d="M86.1871 111.734V87.2176H81.7451V81.5811H86.1871C86.1871 74.2282 90.3975 70.5412 98.9235 70.5412V76.9829C94.9026 76.9829 93.9974 78.0848 93.9974 81.5811H99.113V87.2176H93.9974V111.734H86.2081H86.1871Z" fill="white"/>
<path d="M99.1543 96.6471C99.1543 87.0905 105.07 80.7759 114.564 80.7759C124.059 80.7759 129.785 87.0269 129.785 96.6471C129.785 106.267 123.869 112.518 114.564 112.518C105.259 112.518 99.1543 106.013 99.1543 96.6471ZM121.827 96.6471C121.827 90.5232 119.385 87.5143 114.585 87.5143C109.786 87.5143 107.344 90.5232 107.344 96.6471C107.344 102.771 109.786 105.844 114.585 105.844C119.385 105.844 121.827 102.771 121.827 96.6471Z" fill="white"/>
<path d="M152.563 111.734V93.4686C152.563 88.8069 151.216 87.5143 147.447 87.5143C143.3 87.5143 141.3 89.8452 141.3 94.4434V111.734H133.385V81.5811H140.942V85.9886C142.774 82.6194 145.805 80.7759 150.626 80.7759C156.352 80.7759 160.563 84.2722 160.563 90.8411V111.756H152.584L152.563 111.734Z" fill="white"/>
<path d="M185.51 111.734L185.447 108.047C183.552 111.12 180.753 112.518 177.111 112.518C169.553 112.518 164.143 106.522 164.143 96.3293C164.143 87.1964 168.711 80.7547 176.437 80.7547C180.142 80.7547 183.068 82.2804 185.321 85.48V70.52H193.11V111.713H185.489L185.51 111.734ZM185.637 97.3887C185.637 90.8199 183.384 87.5778 179.005 87.5778C174.374 87.5778 172.184 90.7139 172.184 96.9014C172.184 102.305 174.984 106.034 178.942 106.034C182.9 106.034 185.637 102.474 185.637 97.3887Z" fill="white"/>
<path d="M216.035 111.734C215.782 110.993 215.614 109.954 215.551 109.043C213.656 111.12 210.498 112.54 206.477 112.54C199.656 112.54 196.478 109.17 196.478 104.254C196.478 95.5452 202.267 94.5705 210.246 93.4686C214.203 92.9177 215.298 92.1125 215.298 90.0359C215.298 88.0652 213.34 86.8998 210.246 86.8998C206.646 86.8998 205.193 88.6797 204.835 91.3708H197.467C197.593 85.1198 201.004 80.7759 210.624 80.7759C220.245 80.7759 223.424 85.0774 223.424 92.6634V111.734H216.056H216.035ZM215.487 96.965C214.687 97.7702 213.298 98.194 210.372 98.7449C205.867 99.5925 204.393 100.885 204.393 103.47C204.393 105.738 205.74 106.839 208.225 106.839C212.309 106.839 215.34 103.83 215.403 100.271L215.466 96.965H215.487Z" fill="white"/>
<path d="M244.539 91.8582H251.907V100.44C251.907 106.818 248.244 112.518 239.782 112.518C231.319 112.518 227.529 106.882 227.529 100.377V73.4018H235.319V81.5599H251.886V87.1964H235.319V99.5713C235.319 103.364 236.666 105.589 239.887 105.589C243.108 105.589 244.518 103.449 244.518 99.6985V91.8582H244.539Z" fill="white"/>
<path d="M256.034 77.9576V70.5412H263.95V77.9576H256.034ZM256.034 111.734V81.5811H263.95V111.734H256.034Z" fill="white"/>
<path d="M267.612 96.6471C267.612 87.0905 273.528 80.7759 283.022 80.7759C292.517 80.7759 298.243 87.0269 298.243 96.6471C298.243 106.267 292.327 112.518 283.022 112.518C273.717 112.518 267.612 106.013 267.612 96.6471ZM290.264 96.6471C290.264 90.5232 287.822 87.5143 283.022 87.5143C278.222 87.5143 275.78 90.5232 275.78 96.6471C275.78 102.771 278.222 105.844 283.022 105.844C287.822 105.844 290.264 102.771 290.264 96.6471Z" fill="white"/>
<path d="M321.021 111.734V93.4686C321.021 88.8069 319.674 87.5143 315.905 87.5143C311.758 87.5143 309.758 89.8452 309.758 94.4434V111.734H301.843V81.5811H309.4V85.9886C311.232 82.6194 314.263 80.7759 319.084 80.7759C324.81 80.7759 329.021 84.2722 329.021 90.8411V111.756H321.042L321.021 111.734Z" fill="white"/>
<path d="M128.986 35.9804C120.502 35.9804 117.512 39.8158 117.407 45.3252H123.891C124.207 42.9519 125.512 41.3839 128.67 41.3839C131.407 41.3839 133.112 42.401 133.112 44.1385C133.112 45.9821 132.143 46.6813 128.67 47.1687C121.639 48.1434 116.544 49.0122 116.544 56.683C116.544 61.0057 119.323 63.9723 125.344 63.9723C128.88 63.9723 131.68 62.7221 133.343 60.8998C133.407 61.705 133.554 62.6373 133.764 63.273H140.248V46.4694C140.248 39.7734 137.343 36.0016 128.986 36.0016M133.238 53.1443C133.175 56.2804 130.501 58.9291 126.902 58.9291C124.712 58.9291 123.512 57.9544 123.512 55.9625C123.512 53.6952 124.796 52.5509 128.775 51.8093C131.343 51.3219 132.586 50.9405 133.28 50.2412L133.217 53.1654L133.238 53.1443Z" fill="white"/>
<path d="M173.047 35.9804C169.721 35.9804 167.363 37.273 165.91 40.1972C163.868 37.1247 162.163 35.9804 158.563 35.9804C154.963 35.9804 152.606 37.0611 150.837 40.5787V36.7009H144.29V63.273H151.258V47.1263C151.258 43.6724 152.711 41.9348 155.49 41.9348C158.542 41.9348 159.679 43.0155 159.679 47.2747V63.2518H166.647V47.3806C166.647 44.1386 168.521 41.7017 171.089 41.7017C173.658 41.7017 175.215 43.969 175.215 47.1475V63.2307H182.036V44.8166C182.036 39.8582 178.331 35.9593 173.026 35.9593" fill="white"/>
<path d="M88.7128 63.2518V36.6585H85.2392C83.3235 36.6585 81.7656 38.2266 81.7656 40.1548V63.2518H88.7338H88.7128Z" fill="white"/>
<path d="M85.2187 26.9747C83.303 26.9747 81.7451 28.5428 81.7451 30.4711V34.1793H85.2187C87.1344 34.1793 88.6923 32.6112 88.6923 30.683V26.9959H85.2187V26.9747Z" fill="white"/>
<path d="M116.923 36.6797H108.397L99.7023 46.7873V30.1744C99.5549 28.4368 98.1655 27.0807 96.4392 26.9747H92.6709V63.2518H99.7023V54.8394L103.092 51.3219L108.881 63.2518H116.712L108.081 46.4694L116.923 36.7009V36.6797Z" fill="white"/>
<path d="M193.025 63.2518V36.6585H189.552C187.636 36.6585 186.078 38.2266 186.078 40.1548V63.2518H193.046H193.025Z" fill="white"/>
<path d="M189.552 26.9747C187.636 26.9747 186.078 28.5428 186.078 30.4711V34.1793H189.552C191.467 34.1793 193.025 32.6112 193.025 30.683V26.9959H189.552V26.9747Z" fill="white"/>
<mask id="mask5_1940_1751" style="mask-type:luminance" maskUnits="userSpaceOnUse" x="27" y="80" width="50" height="33">
<path d="M27.4727 89.5697V89.6121L64.4188 108.344C64.8188 108.556 71.7449 112.052 71.7449 112.052L75.3027 104.403C77.2605 100.186 75.5764 95.1002 71.5344 93.0448L46.1878 80.1826L27.4937 89.5273L27.4727 89.5697Z" fill="white"/>
</mask>
<g mask="url(#mask5_1940_1751)">
<path d="M77.2395 80.2249H27.4727V112.073H77.2395V80.2249Z" fill="url(#paint4_linear_1940_1751)"/>
</g>
<path d="M43.4093 112.073H35.2832V57.5094C35.2832 52.8264 38.9252 49.0122 43.4093 49.0122H51.5353V103.576C51.5353 108.259 47.8933 112.073 43.4093 112.073ZM43.4093 26.9959C38.9252 26.9959 35.2832 30.7889 35.2832 35.4931V44.4564H43.4093C47.8933 44.4564 51.5353 40.6634 51.5353 35.9592V26.9959H43.4093Z" fill="white"/>
<mask id="mask6_1940_1751" style="mask-type:luminance" maskUnits="userSpaceOnUse" x="27" y="70" width="20" height="20">
<path d="M27.4727 89.5697L46.1668 80.2249L27.4727 70.7319V89.5697Z" fill="white"/>
</mask>
<g mask="url(#mask6_1940_1751)">
<path d="M46.1668 70.7319H27.4727V89.5697H46.1668V70.7319Z" fill="url(#paint5_linear_1940_1751)"/>
</g>
<mask id="mask7_1940_1751" style="mask-type:luminance" maskUnits="userSpaceOnUse" x="27" y="51" width="44" height="39">
<path d="M58.5037 55.2209L27.4941 70.7531V89.5909L46.1883 80.2461L65.535 70.5623C69.577 68.5281 71.3033 63.4637 69.3454 59.2258L65.8298 51.5762C65.8298 51.5762 58.9037 55.0513 58.4826 55.2421" fill="white"/>
</mask>
<g mask="url(#mask7_1940_1751)">
<path d="M71.2818 51.555H27.4727V89.5909H71.2818V51.555Z" fill="url(#paint6_linear_1940_1751)"/>
</g>
<g style="mix-blend-mode:multiply">
<mask id="mask8_1940_1751" style="mask-type:luminance" maskUnits="userSpaceOnUse" x="27" y="85" width="9" height="9">
<path d="M35.2829 85.6707H27.4727V93.5746H35.2829V85.6707Z" fill="white"/>
</mask>
<g mask="url(#mask8_1940_1751)">
<mask id="mask9_1940_1751" style="mask-type:luminance" maskUnits="userSpaceOnUse" x="27" y="85" width="9" height="9">
<path d="M27.4727 89.5697V89.6121L35.2829 93.5746V85.6707L27.4727 89.5697Z" fill="white"/>
</mask>
<g mask="url(#mask9_1940_1751)">
<path d="M33.5641 82.4244L24.2305 87.4134L29.2067 96.8457L38.5404 91.8567L33.5641 82.4244Z" fill="url(#paint7_linear_1940_1751)"/>
</g>
</g>
</g>
<mask id="mask10_1940_1751" style="mask-type:luminance" maskUnits="userSpaceOnUse" x="0" y="0" width="73" height="131">
<path d="M0 72.5542V130.021H72.0819V118.748H11.1996V72.5754C11.1996 38.7987 38.504 11.2942 72.0819 11.2942V0C32.3358 0 0 32.5477 0 72.5542Z" fill="white"/>
</mask>
<g mask="url(#mask10_1940_1751)">
<path d="M72.0819 0H0V130H72.0819V0Z" fill="url(#paint8_linear_1940_1751)"/>
</g>
<defs>
<linearGradient id="paint0_linear_1940_1751" x1="46.066" y1="53.9202" x2="45.3569" y2="114.159" gradientUnits="userSpaceOnUse">
<stop stop-color="#51BABC"/>
<stop offset="0.12" stop-color="#51BABC"/>
<stop offset="0.46" stop-color="#2C9894"/>
<stop offset="0.81" stop-color="#0C7B72"/>
<stop offset="1" stop-color="#007066"/>
</linearGradient>
<linearGradient id="paint1_linear_1940_1751" x1="32.6652" y1="114.379" x2="32.6652" y2="54.2209" gradientUnits="userSpaceOnUse">
<stop stop-color="#2D2E83"/>
<stop offset="0.05" stop-color="#3B2B83"/>
<stop offset="0.18" stop-color="#662483"/>
<stop offset="0.34" stop-color="#A31A5B"/>
<stop offset="0.4" stop-color="#B71357"/>
<stop offset="0.49" stop-color="#D60B52"/>
<stop offset="0.64" stop-color="#DA1E40"/>
<stop offset="0.95" stop-color="#E75114"/>
<stop offset="1" stop-color="#EA5B0C"/>
</linearGradient>
<linearGradient id="paint2_linear_1940_1751" x1="55.1629" y1="49.0465" x2="55.1629" y2="106.132" gradientUnits="userSpaceOnUse">
<stop stop-color="#51BABC"/>
<stop offset="0.12" stop-color="#51BABC"/>
<stop offset="0.4" stop-color="#2C9894"/>
<stop offset="0.69" stop-color="#0C7B72"/>
<stop offset="0.84" stop-color="#007066"/>
<stop offset="1" stop-color="#007066"/>
</linearGradient>
<linearGradient id="paint3_linear_1940_1751" x1="35.2061" y1="93.1176" x2="32.6028" y2="88.2471" gradientUnits="userSpaceOnUse">
<stop stop-color="white"/>
<stop offset="0.14" stop-color="white"/>
<stop offset="0.32" stop-color="#DADADA"/>
<stop offset="0.72" stop-color="#7E7E7D"/>
<stop offset="1" stop-color="#3C3C3B"/>
</linearGradient>
<linearGradient id="paint4_linear_1940_1751" x1="57.8831" y1="110.014" x2="57.8831" y2="67.3377" gradientUnits="userSpaceOnUse">
<stop stop-color="#A11881"/>
<stop offset="0.28" stop-color="#CB0D5B"/>
<stop offset="0.35" stop-color="#D60B52"/>
<stop offset="0.44" stop-color="#DA1E40"/>
<stop offset="0.62" stop-color="#E75114"/>
<stop offset="0.65" stop-color="#EA5B0C"/>
<stop offset="0.84" stop-color="#EF7A05"/>
<stop offset="1" stop-color="#F39200"/>
</linearGradient>
<linearGradient id="paint5_linear_1940_1751" x1="32.6018" y1="114.4" x2="32.6018" y2="54.2421" gradientUnits="userSpaceOnUse">
<stop stop-color="#2D2E83"/>
<stop offset="0.05" stop-color="#3B2B83"/>
<stop offset="0.18" stop-color="#662483"/>
<stop offset="0.34" stop-color="#A31A5B"/>
<stop offset="0.4" stop-color="#B71357"/>
<stop offset="0.49" stop-color="#D60B52"/>
<stop offset="0.64" stop-color="#DA1E40"/>
<stop offset="0.95" stop-color="#E75114"/>
<stop offset="1" stop-color="#EA5B0C"/>
</linearGradient>
<linearGradient id="paint6_linear_1940_1751" x1="46.1794" y1="102.053" x2="46.1794" y2="62.1097" gradientUnits="userSpaceOnUse">
<stop stop-color="#A11881"/>
<stop offset="0.28" stop-color="#CB0D5B"/>
<stop offset="0.35" stop-color="#D60B52"/>
<stop offset="0.44" stop-color="#DA1E40"/>
<stop offset="0.62" stop-color="#E75114"/>
<stop offset="0.65" stop-color="#EA5B0C"/>
<stop offset="0.84" stop-color="#EF7A05"/>
<stop offset="1" stop-color="#F39200"/>
</linearGradient>
<linearGradient id="paint7_linear_1940_1751" x1="-155.512" y1="-268.263" x2="-158.115" y2="-273.134" gradientUnits="userSpaceOnUse">
<stop stop-color="white"/>
<stop offset="0.14" stop-color="white"/>
<stop offset="0.32" stop-color="#DADADA"/>
<stop offset="0.72" stop-color="#7E7E7D"/>
<stop offset="1" stop-color="#3C3C3B"/>
</linearGradient>
<linearGradient id="paint8_linear_1940_1751" x1="32.6939" y1="147.825" x2="32.6939" y2="10.0271" gradientUnits="userSpaceOnUse">
<stop stop-color="#A11881"/>
<stop offset="0.28" stop-color="#CB0D5B"/>
<stop offset="0.35" stop-color="#D60B52"/>
<stop offset="0.44" stop-color="#DA1E40"/>
<stop offset="0.62" stop-color="#E75114"/>
<stop offset="0.65" stop-color="#EA5B0C"/>
<stop offset="0.84" stop-color="#EF7A05"/>
<stop offset="1" stop-color="#F39200"/>
</linearGradient>
</defs>
</svg>
