<svg width="156" height="65" viewBox="0 0 156 65" fill="none" xmlns="http://www.w3.org/2000/svg">
<g id="Frame" clip-path="url(#clip0_2161_2365)">
<g id="Group">
<g id="Calque_1">
<path id="Vector" d="M92.3595 27.6504C83.9362 27.6504 80.952 31.4067 80.8462 36.7988H87.2949C87.6166 34.4723 88.8949 32.9375 92.0379 32.9375C94.7574 32.9375 96.4633 33.9432 96.4633 35.6355C96.4633 37.4329 95.5025 38.1195 92.0379 38.5961C85.0558 39.5494 79.9912 40.3935 79.9912 47.9061C79.9912 52.139 82.7637 55.0471 88.7321 55.0471C92.2496 55.0471 95.0221 53.8313 96.675 52.034C96.7279 52.8256 96.8867 53.7263 97.1024 54.3605H103.551V37.9136C103.551 31.3542 100.673 27.6544 92.3554 27.6544L92.3595 27.6504ZM96.5691 44.4648C96.5162 47.5305 93.8496 50.1235 90.2791 50.1235C88.0929 50.1235 86.9204 49.1703 86.9204 47.2154C86.9204 44.994 88.1987 43.8832 92.1437 43.1441C94.7045 42.6675 95.9299 42.2959 96.622 41.6093L96.5691 44.4648Z" fill="#1D1D1B"/>
<path id="Vector_2" d="M136.145 27.6505C132.839 27.6505 130.494 28.9188 129.057 31.7744C127.03 28.7613 125.324 27.6505 121.753 27.6505C118.183 27.6505 115.838 28.7087 114.075 32.146V28.3372H107.569V54.3565H114.499V38.5438C114.499 35.1591 115.94 33.4667 118.708 33.4667C121.745 33.4667 122.865 34.5249 122.865 38.7013V54.3565H129.794V38.8063C129.794 35.6316 131.659 33.2527 134.219 33.2527C136.78 33.2527 138.323 35.4741 138.323 38.5922V54.3525H145.094V36.3183C145.094 31.4512 141.417 27.6465 136.137 27.6465L136.145 27.6505Z" fill="#1D1D1B"/>
<path id="Vector_3" d="M52.3269 54.362V28.3184H48.8705C46.9611 28.3184 45.4141 29.8532 45.4141 31.7475V54.362H47.3438H52.331H52.3269Z" fill="#1D1D1B"/>
<path id="Vector_4" d="M48.8705 18.8301C46.9611 18.8301 45.4141 20.3649 45.4141 22.2592V25.8782H48.8705C50.7799 25.8782 52.3269 24.3433 52.3269 22.449V18.8301H48.8705Z" fill="#1D1D1B"/>
<path id="Vector_5" d="M80.3658 28.3382H71.8896L63.2546 38.2298V21.9525C63.1121 20.2602 61.7319 18.9192 60.0098 18.8223H56.2725V54.3616H63.2546V46.1099L66.6133 42.6727L72.37 54.3616H80.1541L71.572 37.9147L80.3658 28.3422V28.3382Z" fill="black"/>
<path id="Vector_6" d="M156 54.362V28.3184H152.543C150.634 28.3184 149.087 29.8532 149.087 31.7475V54.362H151.017H156.004H156Z" fill="#1D1D1B"/>
<path id="Vector_7" d="M152.543 18.8301C150.634 18.8301 149.087 20.3649 149.087 22.2592V25.8782H152.543C154.453 25.8782 156 24.3433 156 22.449V18.8301H152.543Z" fill="#1D1D1B"/>
<path id="Vector_8" d="M34.0718 50.3907L14.4568 40.584L0 47.7169V47.7533L28.5716 62.0393C28.8851 62.1968 34.2306 64.8706 34.2306 64.8706L36.9787 59.0464C38.4972 55.8313 37.1944 51.9538 34.0678 50.3948L34.0718 50.3907Z" fill="url(#paint0_linear_2161_2365)"/>
<path id="Vector_9" d="M12.3273 64.8748H6.03727V58.4002V23.2688C6.03727 19.6943 8.85454 16.7943 12.3313 16.7943H18.6254C18.6254 16.7943 18.6254 22.5216 18.6254 22.8811V58.4043C18.6254 61.9788 15.8081 64.8788 12.3313 64.8788M12.3273 0C8.85047 0 6.0332 2.90002 6.0332 6.47456V6.83403C6.0332 7.1935 6.0332 13.3086 6.0332 13.3086H12.3273C15.8041 13.3086 18.6213 10.4086 18.6213 6.83403V6.47456V0H12.3313" fill="#1D1D1B"/>
<path id="Vector_10" d="M0 47.7163L14.4568 40.5834L0 33.3535V47.7163Z" fill="url(#paint1_linear_2161_2365)"/>
<path id="Vector_11" d="M32.3863 24.5611L29.6668 18.7207C29.6668 18.7207 24.3091 21.3622 23.9915 21.5197L0 33.3541V47.7128L14.4568 40.5839L29.4307 33.2006C32.5655 31.6537 33.8886 27.7883 32.3863 24.5652V24.5611Z" fill="url(#paint2_linear_2161_2365)"/>
<g id="Group_2" style="mix-blend-mode:multiply">
<path id="Vector_12" d="M0 47.717V47.7533L6.03758 50.7705V44.7402L0 47.717Z" fill="url(#paint3_linear_2161_2365)"/>
</g>
</g>
</g>
</g>
<defs>
<linearGradient id="paint0_linear_2161_2365" x1="18.8089" y1="64.6606" x2="18.8089" y2="32.1182" gradientUnits="userSpaceOnUse">
<stop stop-color="#A11881"/>
<stop offset="0.35" stop-color="#D60B52"/>
<stop offset="0.65" stop-color="#EA5B0C"/>
<stop offset="1" stop-color="#F39200"/>
</linearGradient>
<linearGradient id="paint1_linear_2161_2365" x1="7.23044" y1="65.4314" x2="7.23044" y2="19.5683" gradientUnits="userSpaceOnUse">
<stop stop-color="#2D2E83"/>
<stop offset="0.18" stop-color="#662483"/>
<stop offset="0.34" stop-color="#A3195B"/>
<stop offset="0.49" stop-color="#D60B52"/>
<stop offset="1" stop-color="#EA5B0C"/>
</linearGradient>
<linearGradient id="paint2_linear_2161_2365" x1="16.5046" y1="56.2755" x2="16.5046" y2="25.8253" gradientUnits="userSpaceOnUse">
<stop stop-color="#A11881"/>
<stop offset="0.35" stop-color="#D60B52"/>
<stop offset="0.65" stop-color="#EA5B0C"/>
<stop offset="1" stop-color="#F39200"/>
</linearGradient>
<linearGradient id="paint3_linear_2161_2365" x1="5.47168" y1="50.827" x2="3.50137" y2="47.0901" gradientUnits="userSpaceOnUse">
<stop offset="0.14" stop-color="white" stop-opacity="0"/>
<stop offset="0.44" stop-color="#B6B6B6" stop-opacity="0.37"/>
<stop offset="1" stop-color="#3C3C3B"/>
</linearGradient>
<clipPath id="clip0_2161_2365">
<rect width="156" height="65" fill="white"/>
</clipPath>
</defs>
</svg>
