<svg width="201" height="85" viewBox="0 0 201 85" fill="none" xmlns="http://www.w3.org/2000/svg">
<path d="M156.5 83.1331H153.327V78.9535H156.399V79.6837H154.177V80.5775H156.223V81.3139H154.177V82.3903H156.5V83.1331Z" fill="white"/>
<path d="M153.149 83.1332H149.977V78.9537H153.048V79.6838H150.826V80.5777H152.872V81.3141H150.826V82.3905H153.149V83.1332ZM152.501 77.9717L151.097 78.5634L150.902 78.2172L152.205 77.4556L152.501 77.9717Z" fill="white"/>
<path d="M149.673 83.133H148.949L148.93 82.7176C148.729 83.07 148.251 83.2778 147.678 83.2778C146.52 83.2778 145.783 82.2014 145.783 81.0369C145.783 79.8032 146.488 78.8149 147.842 78.8149C148.836 78.8149 149.604 79.4066 149.667 80.2438H148.786C148.742 79.8535 148.32 79.5388 147.842 79.5388C147.143 79.5388 146.677 80.0801 146.677 81.0747C146.677 81.7608 147.023 82.5413 147.835 82.5413C148.408 82.5413 148.855 82.107 148.855 81.5845H147.93V80.8858H149.673V83.133Z" fill="white"/>
<path d="M144.617 81.5531L144.095 79.8914H144.088L143.553 81.5531H144.617ZM146.084 83.1331H145.133L144.869 82.2707H143.327L143.031 83.1331H142.105L143.597 78.9535H144.611L146.084 83.1331Z" fill="white"/>
<path d="M141.849 83.1331H140.974V79.6837H139.715V78.9535H143.114V79.6837H141.849V83.1331Z" fill="white"/>
<path d="M138.172 79.6774H137.045V80.7915H138.14C138.606 80.7915 138.782 80.5586 138.782 80.2376C138.782 79.9103 138.606 79.6774 138.172 79.6774ZM139.487 83.1331H138.631V82.0567C138.631 81.6538 138.48 81.4965 137.977 81.4965H137.045V83.1331H136.195V78.9535H138.317C139.091 78.9535 139.601 79.4696 139.601 80.162C139.601 80.609 139.38 80.9866 138.977 81.1314C139.349 81.251 139.487 81.4587 139.487 81.9497V83.1331Z" fill="white"/>
<path d="M134.536 81.5531L134.013 79.8914H134.007L133.472 81.5531H134.536ZM136.003 83.1331H135.052L134.788 82.2707H133.246L132.95 83.1331H132.024L133.516 78.9535H134.53L136.003 83.1331Z" fill="white"/>
<path d="M130.382 80.9048H131.213C131.716 80.9048 131.924 80.6467 131.924 80.2816C131.924 79.9354 131.716 79.6774 131.213 79.6774H130.382V80.9048ZM130.382 83.1331H129.507V78.9535H131.351C132.169 78.9535 132.692 79.5515 132.692 80.3068C132.692 81.0685 132.169 81.6161 131.351 81.6161H130.382V83.1331Z" fill="white"/>
<path d="M127.811 83.1331H124.639V78.9535H127.71V79.6837H125.488V80.5775H127.534V81.3139H125.488V82.3903H127.811V83.1331Z" fill="#EA5B0C"/>
<path d="M122.976 79.6774H121.85V80.7915H122.945C123.411 80.7915 123.587 80.5586 123.587 80.2376C123.587 79.9103 123.411 79.6774 122.976 79.6774ZM124.292 83.1331H123.436V82.0567C123.436 81.6538 123.285 81.4965 122.781 81.4965H121.85V83.1331H121V78.9535H123.121C123.895 78.9535 124.405 79.4696 124.405 80.162C124.405 80.609 124.185 80.9866 123.782 81.1314C124.154 81.251 124.292 81.4587 124.292 81.9497V83.1331Z" fill="#EA5B0C"/>
<path d="M120.822 83.1332H117.649V78.9537H120.721V79.6838H118.499V80.5777H120.545V81.3141H118.499V82.3905H120.822V83.1332ZM119.601 78.5634L118.197 77.9717L118.493 77.4556L119.796 78.2172L119.601 78.5634Z" fill="#EA5B0C"/>
<path d="M117.351 83.1331H116.476V78.9535H117.351V83.1331Z" fill="#EA5B0C"/>
<path d="M116.268 83.1331H113.322V78.9535H114.197V82.3714H116.268V83.1331Z" fill="#EA5B0C"/>
<path d="M113.023 83.1331H112.148V78.9535H113.023V83.1331Z" fill="#EA5B0C"/>
<path d="M109.377 82.4218H110.485C110.887 82.4218 111.127 82.1637 111.127 81.8238C111.127 81.4587 110.887 81.2951 110.497 81.2951H109.377V82.4218ZM110.428 79.6774H109.377V80.5838H110.478C110.824 80.5838 111.007 80.4264 111.007 80.1306C111.007 79.8095 110.837 79.6774 110.428 79.6774ZM110.415 83.1331H108.533V78.9535H110.592C111.41 78.9535 111.85 79.3941 111.85 80.0928C111.85 80.4516 111.63 80.7537 111.341 80.8733C111.693 81.0055 111.976 81.2888 111.976 81.8867C111.976 82.6484 111.466 83.1331 110.415 83.1331Z" fill="#EA5B0C"/>
<path d="M106.275 82.5287C106.904 82.5287 107.408 82.0881 107.408 81.0999C107.408 80.1116 107.005 79.5892 106.275 79.5892C105.538 79.5892 105.129 80.1116 105.129 81.0999C105.129 82.0881 105.551 82.5287 106.275 82.5287ZM106.275 83.2778C104.99 83.2778 104.267 82.4909 104.267 81.081C104.267 79.6647 104.99 78.8149 106.275 78.8149C107.559 78.8149 108.27 79.6647 108.27 81.0999C108.27 82.535 107.559 83.2778 106.275 83.2778Z" fill="#EA5B0C"/>
<path d="M103.994 83.1331H103.176V80.269L102.395 83.1331H101.527L100.752 80.2816V83.1331H99.9404V78.9535H101.225L101.98 82.0189L102.735 78.9535H103.994V83.1331Z" fill="#EA5B0C"/>
<path d="M99.6172 83.1331H98.7989V80.269L98.0183 83.1331H97.1497L96.3755 80.2816V83.1331H95.5635V78.9535H96.8476L97.6029 82.0189L98.3582 78.9535H99.6172V83.1331Z" fill="#EA5B0C"/>
<path d="M95.2646 83.1331H94.3896V78.9535H95.2646V83.1331Z" fill="#EA5B0C"/>
<path d="M92.6929 83.1331H89.5205V78.9535H92.5922V79.6837H90.3703V80.5775H92.416V81.3139H90.3703V82.3903H92.6929V83.1331Z" fill="#EA5B0C"/>
<path d="M88.0499 83.1331H87.1749V79.6837H85.916V78.9535H89.3151V79.6837H88.0499V83.1331Z" fill="#EA5B0C"/>
<path d="M85.7363 83.1331H84.8613V78.9535H85.7363V83.1331Z" fill="#EA5B0C"/>
<path d="M84.5126 80.1871H83.6818C83.6377 79.7591 83.3796 79.5514 82.8509 79.5514C82.3599 79.5514 82.1018 79.7276 82.1018 80.0424C82.1018 80.3067 82.2844 80.4578 82.7502 80.5711C83.2223 80.6844 83.6818 80.7977 83.9902 80.9362C84.3553 81.0999 84.6448 81.3579 84.6448 81.9496C84.6448 82.8686 83.9524 83.2778 82.9768 83.2778C81.9445 83.2778 81.2269 82.8183 81.208 81.8804H82.0515C82.0641 82.3084 82.4229 82.5728 82.9831 82.5728C83.4992 82.5728 83.7951 82.3525 83.7951 81.9811C83.7951 81.7356 83.6692 81.5657 83.1467 81.4523C82.6306 81.339 82.297 81.2635 82.0011 81.1313C81.5542 80.9299 81.3024 80.6278 81.3024 80.099C81.3024 79.35 81.8123 78.8149 82.832 78.8149C83.8895 78.8149 84.4812 79.3877 84.5126 80.1871Z" fill="#EA5B0C"/>
<path d="M80.9658 80.1871H80.1349C80.0908 79.7591 79.8327 79.5514 79.304 79.5514C78.813 79.5514 78.555 79.7276 78.555 80.0424C78.555 80.3067 78.7375 80.4578 79.2033 80.5711C79.6754 80.6844 80.1349 80.7977 80.4433 80.9362C80.8084 81.0999 81.0979 81.3579 81.0979 81.9496C81.0979 82.8686 80.4055 83.2778 79.4299 83.2778C78.3976 83.2778 77.68 82.8183 77.6611 81.8804H78.5046C78.5172 82.3084 78.876 82.5728 79.4362 82.5728C79.9523 82.5728 80.2482 82.3525 80.2482 81.9811C80.2482 81.7356 80.1223 81.5657 79.5998 81.4523C79.0837 81.339 78.7501 81.2635 78.4542 81.1313C78.0073 80.9299 77.7556 80.6278 77.7556 80.099C77.7556 79.35 78.2654 78.8149 79.2851 78.8149C80.3426 78.8149 80.9343 79.3877 80.9658 80.1871Z" fill="#EA5B0C"/>
<path d="M76.5538 81.742V78.9535H77.4477V81.742C77.4477 82.7554 76.8245 83.2778 75.7292 83.2778C74.7158 83.2778 74.0801 82.7994 74.0801 81.7923V78.9535H74.9676V81.7105C74.9676 82.2266 75.2446 82.554 75.7167 82.554C76.2769 82.554 76.5538 82.2896 76.5538 81.742Z" fill="#EA5B0C"/>
<path d="M73.9019 83.1332H70.7295V78.9537H73.8012V79.6838H71.5793V80.5777H73.625V81.3141H71.5793V82.3905H73.9019V83.1332ZM73.2536 77.9717L71.8499 78.5634L71.6548 78.2172L72.9578 77.4556L73.2536 77.9717Z" fill="#EA5B0C"/>
<path d="M69.0673 79.6774H67.9406V80.7915H69.0358C69.5016 80.7915 69.6779 80.5586 69.6779 80.2376C69.6779 79.9103 69.5016 79.6774 69.0673 79.6774ZM70.3829 83.1331H69.5268V82.0567C69.5268 81.6538 69.3757 81.4965 68.8722 81.4965H67.9406V83.1331H67.0908V78.9535H69.2121C69.9863 78.9535 70.4962 79.4696 70.4962 80.162C70.4962 80.609 70.2759 80.9866 69.873 81.1314C70.2444 81.251 70.3829 81.4587 70.3829 81.9497V83.1331Z" fill="#EA5B0C"/>
<path d="M63.9129 81.5531L63.3904 79.8914H63.3841L62.8491 81.5531H63.9129ZM65.3795 83.1331H64.429L64.1647 82.2707H62.6225L62.3267 83.1331H61.4014L62.8932 78.9535H63.9066L65.3795 83.1331Z" fill="#EA5B0C"/>
<path d="M61.3199 83.1331H58.374V78.9535H59.249V82.3714H61.3199V83.1331Z" fill="#EA5B0C"/>
<path d="M118.354 35.6384C107.651 35.6384 103.86 40.5246 103.725 47.5388H111.919C112.328 44.5125 113.952 42.5159 117.946 42.5159C121.401 42.5159 123.569 43.8242 123.569 46.0257C123.569 48.3637 122.348 49.2569 117.946 49.8769C109.074 51.1168 102.639 52.2149 102.639 61.9875C102.639 67.4938 106.161 71.2767 113.745 71.2767C118.215 71.2767 121.737 69.6952 123.838 67.3571C123.905 68.3869 124.107 69.5586 124.381 70.3835H132.575V48.9889C132.575 40.4563 128.918 35.6436 118.349 35.6436L118.354 35.6384ZM123.703 57.511C123.636 61.4989 120.248 64.872 115.711 64.872C112.933 64.872 111.443 63.632 111.443 61.089C111.443 58.1993 113.067 56.7544 118.08 55.793C121.334 55.173 122.891 54.6896 123.77 53.7964L123.703 57.511Z" fill="white"/>
<path d="M175.186 35.6435C170.916 35.6435 167.887 37.268 166.031 40.9257C163.412 37.0663 161.209 35.6435 156.597 35.6435C151.985 35.6435 148.956 36.999 146.68 41.4017V36.523H138.276V69.8511H147.226V49.5966C147.226 45.2612 149.088 43.0935 152.664 43.0935C156.587 43.0935 158.033 44.4489 158.033 49.7984V69.8511H166.983V49.9329C166.983 45.8665 169.391 42.8193 172.699 42.8193C176.006 42.8193 177.999 45.6647 177.999 49.6587V69.846H186.744V46.746C186.744 40.5119 181.996 35.6384 175.176 35.6384L175.186 35.6435Z" fill="white"/>
<path d="M66.9954 69.851V37.0638H62.7213C60.3603 37.0638 58.4473 38.996 58.4473 41.3808V69.851H60.8335H67.0005H66.9954Z" fill="white"/>
<path d="M62.7239 24.2341C60.3614 24.2341 58.4473 26.0967 58.4473 28.3955V32.7873H62.7239C65.0863 32.7873 67.0005 30.9247 67.0005 28.6259V24.2341H62.7239Z" fill="white"/>
<path d="M104.064 36.4484H93.0306L81.7906 49.1448V28.2519C81.6051 26.0797 79.8086 24.3585 77.567 24.2341H72.7021V69.8511H81.7906V59.2595L86.1626 54.8476L93.6559 69.8511H103.788L92.6172 48.7405L104.064 36.4536V36.4484Z" fill="white"/>
<path d="M200.995 69.851V37.0638H196.721C194.36 37.0638 192.447 38.996 192.447 41.3808V69.851H194.833H201H200.995Z" fill="white"/>
<path d="M196.724 24.2341C194.361 24.2341 192.447 26.0967 192.447 28.3955V32.7873H196.724C199.086 32.7873 201 30.9247 201 28.6259V24.2341H196.724Z" fill="white"/>
<path d="M43.9054 64.5584L18.6292 51.3192L0 60.9487V60.9977L36.8178 80.284C37.2217 80.4967 44.11 84.1064 44.11 84.1064L47.6511 76.2436C49.608 71.9032 47.9292 66.6686 43.9001 64.5638L43.9054 64.5584Z" fill="url(#paint0_linear_1941_938)"/>
<path d="M16.3906 84.1012H8.5578V75.7078V30.1648C8.5578 25.5309 12.0661 21.7714 16.3957 21.7714H24.2336C24.2336 21.7714 24.2336 29.1961 24.2336 29.6621V75.713C24.2336 80.3469 20.7253 84.1064 16.3957 84.1064M16.3906 0C12.061 0 8.55273 3.75947 8.55273 8.39336V8.85937C8.55273 9.32538 8.55273 17.2527 8.55273 17.2527H16.3906C20.7202 17.2527 24.2285 13.4933 24.2285 8.85937V8.39336V0H16.3957" fill="white"/>
<path d="M0 61.2979L18.5319 52.0945L0 42.766V61.2979Z" fill="url(#paint1_linear_1941_938)"/>
<path d="M41.9631 31.7005L38.4394 24.2341C38.4394 24.2341 31.4974 27.611 31.0859 27.8124L0 42.9416V61.2979L18.7317 52.1843L38.1334 42.7453C42.1952 40.7677 43.9096 35.8262 41.9631 31.7057V31.7005Z" fill="url(#paint2_linear_1941_938)"/>
<g style="mix-blend-mode:multiply">
<path d="M0 61.3911V61.4383L7.77899 65.3567V57.5252L0 61.3911Z" fill="url(#paint3_linear_1941_938)"/>
</g>
<defs>
<linearGradient id="paint0_linear_1941_938" x1="24.2374" y1="83.8229" x2="24.2374" y2="39.8902" gradientUnits="userSpaceOnUse">
<stop stop-color="#A11881"/>
<stop offset="0.35" stop-color="#D60B52"/>
<stop offset="0.65" stop-color="#EA5B0C"/>
<stop offset="1" stop-color="#F39200"/>
</linearGradient>
<linearGradient id="paint1_linear_1941_938" x1="9.26857" y1="84.1553" x2="9.26857" y2="24.9793" gradientUnits="userSpaceOnUse">
<stop stop-color="#2D2E83"/>
<stop offset="0.18" stop-color="#662483"/>
<stop offset="0.34" stop-color="#A3195B"/>
<stop offset="0.49" stop-color="#D60B52"/>
<stop offset="1" stop-color="#EA5B0C"/>
</linearGradient>
<linearGradient id="paint2_linear_1941_938" x1="21.3851" y1="72.2446" x2="21.3851" y2="33.3167" gradientUnits="userSpaceOnUse">
<stop stop-color="#A11881"/>
<stop offset="0.35" stop-color="#D60B52"/>
<stop offset="0.65" stop-color="#EA5B0C"/>
<stop offset="1" stop-color="#F39200"/>
</linearGradient>
<linearGradient id="paint3_linear_1941_938" x1="7.04987" y1="65.4301" x2="4.47961" y2="60.5938" gradientUnits="userSpaceOnUse">
<stop offset="0.14" stop-color="white" stop-opacity="0"/>
<stop offset="0.44" stop-color="#B6B6B6" stop-opacity="0.37"/>
<stop offset="1" stop-color="#3C3C3B"/>
</linearGradient>
</defs>
</svg>
