<svg width="60" height="60" viewBox="0 0 60 60" fill="none" xmlns="http://www.w3.org/2000/svg">
<path d="M30.0683 0H29.9317C13.4009 0 0 13.4009 0 29.9317V30.0683C0 46.5991 13.4009 60 29.9317 60H30.0683C46.5991 60 60 46.5991 60 30.0683V29.9317C60 13.4009 46.5991 0 30.0683 0Z" fill="url(#paint0_linear_1941_922)"/>
<path d="M39.2834 12.2068H20.7178C15.5887 12.2068 11.416 16.3795 11.416 21.5086V38.4935C11.416 43.6226 15.5887 47.7953 20.7178 47.7953H39.2834C44.4125 47.7953 48.5852 43.6226 48.5852 38.4935V21.5086C48.5852 16.3795 44.4125 12.2068 39.2834 12.2068ZM14.6974 21.5086C14.6974 18.1894 17.3986 15.4882 20.7178 15.4882H39.2834C42.6026 15.4882 45.3038 18.1894 45.3038 21.5086V38.4935C45.3038 41.8127 42.6026 44.5139 39.2834 44.5139H20.7178C17.3986 44.5139 14.6974 41.8127 14.6974 38.4935V21.5086Z" fill="white"/>
<path d="M30.0008 38.6512C34.7705 38.6512 38.6531 34.7707 38.6531 29.999C38.6531 25.2272 34.7726 21.3467 30.0008 21.3467C25.2291 21.3467 21.3486 25.2272 21.3486 29.999C21.3486 34.7707 25.2291 38.6512 30.0008 38.6512ZM30.0008 24.6302C32.9627 24.6302 35.3717 27.0392 35.3717 30.0011C35.3717 32.9629 32.9627 35.3719 30.0008 35.3719C27.039 35.3719 24.63 32.9629 24.63 30.0011C24.63 27.0392 27.039 24.6302 30.0008 24.6302Z" fill="white"/>
<path d="M39.4543 22.7446C40.7386 22.7446 41.7855 21.6999 41.7855 20.4134C41.7855 19.1269 40.7407 18.0822 39.4543 18.0822C38.1678 18.0822 37.123 19.1269 37.123 20.4134C37.123 21.6999 38.1678 22.7446 39.4543 22.7446Z" fill="white"/>
<defs>
<linearGradient id="paint0_linear_1941_922" x1="8.76572" y1="51.2343" x2="51.2343" y2="8.76783" gradientUnits="userSpaceOnUse">
<stop stop-color="#FAAD4F"/>
<stop offset="0.35" stop-color="#DD2A7B"/>
<stop offset="0.62" stop-color="#9537B0"/>
<stop offset="1" stop-color="#515BD4"/>
</linearGradient>
</defs>
</svg>
