<svg width="467" height="582" viewBox="0 0 467 582" fill="none" xmlns="http://www.w3.org/2000/svg">
<path d="M401.405 583.578L42.5133 402.871L-222 534.234V534.903L179.771 737.22L278.503 726.315C278.503 677.941 386.032 743 386.032 743H454.591C482.376 683.756 458.539 612.307 401.331 583.578H401.405Z" fill="url(#paint0_linear_1940_1694)"/>
<path d="M-222 534.233L42.5133 402.871L-222 269.647V534.233Z" fill="url(#paint1_linear_1940_1694)"/>
<path d="M370.567 107.621L320.807 0C320.807 0 222.779 48.6749 216.969 51.5776L-222 269.647V534.233L42.5133 402.871L316.487 266.819C373.844 238.314 398.053 167.088 370.567 107.695V107.621Z" fill="url(#paint2_linear_1940_1694)"/>
<defs>
<linearGradient id="paint0_linear_1940_1694" x1="122.143" y1="846.527" x2="122.143" y2="246.798" gradientUnits="userSpaceOnUse">
<stop stop-color="#A11881"/>
<stop offset="0.35" stop-color="#D60B52"/>
<stop offset="0.65" stop-color="#EA5B0C"/>
<stop offset="1" stop-color="#F39200"/>
</linearGradient>
<linearGradient id="paint1_linear_1940_1694" x1="-89.7061" y1="860.668" x2="-89.7061" y2="15.5551" gradientUnits="userSpaceOnUse">
<stop stop-color="#2D2E83"/>
<stop offset="0.18" stop-color="#662483"/>
<stop offset="0.34" stop-color="#A3195B"/>
<stop offset="0.49" stop-color="#D60B52"/>
<stop offset="1" stop-color="#EA5B0C"/>
</linearGradient>
<linearGradient id="paint2_linear_1940_1694" x1="79.9818" y1="691.943" x2="79.9818" y2="130.842" gradientUnits="userSpaceOnUse">
<stop stop-color="#A11881"/>
<stop offset="0.35" stop-color="#D60B52"/>
<stop offset="0.65" stop-color="#EA5B0C"/>
<stop offset="1" stop-color="#F39200"/>
</linearGradient>
</defs>
</svg>
