<svg width="60" height="60" viewBox="0 0 60 60" fill="none" xmlns="http://www.w3.org/2000/svg">
<path d="M30.0683 0H29.9317C13.4009 0 0 13.4009 0 29.9317V30.0683C0 46.5991 13.4009 60 29.9317 60H30.0683C46.5991 60 60 46.5991 60 30.0683V29.9317C60 13.4009 46.5991 0 30.0683 0Z" fill="#007EBB"/>
<path d="M14.3085 19.9446C13.5181 19.211 13.125 18.3029 13.125 17.2224C13.125 16.142 13.5202 15.1939 14.3085 14.4582C15.0988 13.7246 16.1163 13.3567 17.3628 13.3567C18.6093 13.3567 19.5868 13.7246 20.3751 14.4582C21.1655 15.1918 21.5586 16.1146 21.5586 17.2224C21.5586 18.3302 21.1634 19.211 20.3751 19.9446C19.5847 20.6783 18.582 21.0461 17.3628 21.0461C16.1436 21.0461 15.0988 20.6783 14.3085 19.9446ZM20.8943 24.153V46.6454H13.7871V24.153H20.8943Z" fill="#FEFFFC"/>
<path d="M44.5532 26.3749C46.1024 28.0566 46.876 30.3647 46.876 33.3034V46.2481H40.1262V34.2157C40.1262 32.7338 39.7416 31.5818 38.9743 30.762C38.207 29.9422 37.1728 29.5302 35.8779 29.5302C34.583 29.5302 33.5488 29.9401 32.7815 30.762C32.0142 31.5818 31.6296 32.7338 31.6296 34.2157V46.2481H24.8398V24.09H31.6296V27.0287C32.3169 26.0491 33.244 25.2755 34.4086 24.7059C35.5731 24.1362 36.8827 23.8524 38.3395 23.8524C40.9334 23.8524 43.0061 24.6933 44.5532 26.3749Z" fill="#FEFFFC"/>
</svg>
